<svg xmlns="http://www.w3.org/2000/svg" width="216" height="29.647" viewBox="0 0 216 29.647">
    <defs>
        <style>
            .cls-1{fill:#fff}
        </style>
    </defs>
    <g id="img_p_w_logo" transform="translate(-77 -122.953)">
        <g id="그룹_381">
            <path id="패스_2709" d="M97.005 125.55h5.473v10.65h2.683v-10.65h5.473v-2.078H97.005z" class="cls-1"/>
            <path id="패스_2710" d="M82.861 123.472L77 136.2h2.708l1.432-3.193.017-.037h6.163l.016.037 1.433 3.193h2.742l-5.861-12.728zm3.526 7.424h-4.3l.04-.089 2.052-4.571.057-.129.058.129 2.051 4.571z" class="cls-1"/>
            <path id="패스_2711" d="M125.5 136.2h2.59l4.4-12.731h-2.7l-2.944 9.035-.06.184-.06-.184-2.944-9.035H121.1l-2.944 9.035-.06.184-.06-.184-2.944-9.035h-2.7l4.4 12.731h2.608l2.98-8.739.06-.175.06.175 2.98 8.739z" class="cls-1"/>
            <path id="패스_2712" d="M135.7 134.818a8 8 0 0 0 10.337 0 6.511 6.511 0 0 0 2.215-4.936 6.9 6.9 0 0 0-1.9-4.743 8 8 0 0 0-10.963 0 6.909 6.909 0 0 0-1.9 4.743 6.512 6.512 0 0 0 2.211 4.936zm5.167-9.59a4.759 4.759 0 0 1 4.726 4.654 4.469 4.469 0 0 1-1.378 3.211 4.795 4.795 0 0 1-6.693 0 4.474 4.474 0 0 1-1.376-3.211 4.756 4.756 0 0 1 4.725-4.654z" class="cls-1"/>
            <path id="패스_2713" d="M239.55 134.079v-10.607h-2.569V136.2h11.033v-2.125h-8.464z" class="cls-1"/>
            <path id="패스_2714" d="M211.27 134.126h-8.162v-3.634h7.685v-2.078h-7.685v-2.9h7.923v-2.078H200.54V136.2h10.73z" class="cls-1"/>
            <path id="패스_2715" d="M284.9 134.126h-.063v-3.634h7.685v-2.078h-7.685v-2.9h7.923v-2.078h-10.49V136.2H293v-2.078z" class="cls-1"/>
            <path id="패스_2716" d="M273.408 134.457h-.041a4.872 4.872 0 0 1-4.9-4.6 4.485 4.485 0 0 1 1.313-3.236 4.9 4.9 0 0 1 3.509-1.4h.039a6.416 6.416 0 0 1 4.562 1.913l1.246-1.969a8.869 8.869 0 0 0-5.837-2.207 8.161 8.161 0 0 0-4.954 1.792 6.477 6.477 0 0 0-2.509 5.166c0 4.209 3.642 6.6 7.24 6.788a8.236 8.236 0 0 0 6.168-2.314l-1.334-1.931a5.893 5.893 0 0 1-4.502 1.998z" class="cls-1"/>
            <path id="패스_2717" d="M224.3 132.058h4.462a6.913 6.913 0 0 0 3.6-.785 4.459 4.459 0 0 0 .05-7.053 6.939 6.939 0 0 0-3.628-.779h-7.226v12.794h2.742zm0-6.477h4.821a2.557 2.557 0 0 1 1.573.522 2.027 2.027 0 0 1 .751 1.647 2.183 2.183 0 0 1-2.324 2.167H224.3z" class="cls-1"/>
            <path id="패스_2718" d="M194.463 127.349l.018-.03h.155v8.881h2.569v-12.728h-3.244l-4.027 6.813-.054.092-.054-.092-4.038-6.813h-3.233V136.2h2.569v-8.885h.155l.018.03 3.878 6.362h1.412z" class="cls-1"/>
            <path id="패스_2719" d="M156.759 134.566h-.164a9.214 9.214 0 0 1-5.205-2.07l-.97 2.206a11.82 11.82 0 0 0 6.2 2.011c2.257 0 4-.563 5.04-1.628a3.566 3.566 0 0 0 1.016-2.637c-.041-1.787-1.173-2.866-3.562-3.4-.523-.116-1.4-.3-2.175-.455-.418-.086-.81-.166-1.111-.23-1.227-.256-2.426-.585-2.44-1.515-.012-.817.888-1.664 2.632-1.7h.16a8.576 8.576 0 0 1 5.31 1.987l1.049-2.056a10.046 10.046 0 0 0-6.174-2.108 6.679 6.679 0 0 0-4.6 1.734 3.355 3.355 0 0 0-1 2.5c.07 2.709 3.132 3.447 6.536 4.018h.016c1.333.224 2.711.455 2.759 1.536a1.222 1.222 0 0 1-.38.918 4.171 4.171 0 0 1-2.937.889z" class="cls-1"/>
            <path id="패스_2720" d="M256.228 123.472l-5.862 12.728h2.708l1.432-3.193.017-.037h6.163l.016.037 1.433 3.193h2.743l-5.862-12.732zm3.526 7.424h-4.3l.04-.089 2.052-4.571.058-.129.057.129 2.052 4.571z" class="cls-1"/>
            <path id="패스_2721" d="M177.836 125.139a8 8 0 0 0-10.964 0 6.912 6.912 0 0 0-1.9 4.743 6.514 6.514 0 0 0 2.211 4.936 8 8 0 0 0 10.338 0 6.51 6.51 0 0 0 2.214-4.936 6.906 6.906 0 0 0-1.899-4.743zm-2.136 7.954a4.794 4.794 0 0 1-6.692 0 4.474 4.474 0 0 1-1.376-3.211 4.724 4.724 0 0 1 9.447 0 4.47 4.47 0 0 1-1.379 3.211z" class="cls-1"/>
        </g>
        <g id="그룹_382">
            <path id="패스_2722" d="M128.876 144.293a4.154 4.154 0 1 0 0 8.307 3.956 3.956 0 0 0 3.308-1.624l.054-.078-1.174-.857-.019-.013-.058.083a2.491 2.491 0 0 1-2.111 1.08 2.745 2.745 0 0 1 0-5.489 2.526 2.526 0 0 1 2.117 1.085l.055.081 1.2-.8.018-.012-.049-.08a3.867 3.867 0 0 0-3.341-1.683z" class="cls-1"/>
            <path id="패스_2723" d="M137.786 144.293a4.154 4.154 0 1 0 4.219 4.154 4.05 4.05 0 0 0-4.219-4.154zm0 6.9a2.745 2.745 0 1 1 2.689-2.744 2.6 2.6 0 0 1-2.689 2.742z" class="cls-1"/>
            <path id="패스_2724" d="M143.926 152.455h1.467v-3.34h4.087v-1.391h-4.087v-1.894h4.345v-1.391h-5.813z" class="cls-1"/>
            <path id="패스_2725" d="M151.66 152.455h1.468v-3.34h4.087v-1.391h-4.087v-1.894h4.345v-1.391h-5.813z" class="cls-1"/>
            <path id="패스_2726" d="M160.862 149.109h4.116v-1.38h-4.116v-1.909h4.4v-1.381h-5.864v8.016h6.065v-1.38h-4.6z" class="cls-1"/>
            <path id="패스_2727" d="M168.934 149.109h4.116v-1.38h-4.116v-1.909h4.4v-1.381h-5.864v8.016h6.065v-1.38h-4.6z" class="cls-1"/>
            <path id="패스_2728" d="M184.045 150.448c.048-.072.1-.153.151-.234l1.036-1.611.012-.019-1.1-.685-.018-.011-1.073 1.651-1.286-1.228a2.805 2.805 0 0 0 1.436-2.082 2 2 0 0 0-2.263-1.93 2.068 2.068 0 0 0-2.274 1.969 2.68 2.68 0 0 0 1.012 1.979 2.882 2.882 0 0 0-1.349 2.188c0 1.352.924 2.159 2.471 2.159a3.185 3.185 0 0 0 2.381-1.026l.929.88.006.007h1.984l-2.069-1.979zm-3.109-4.847c.516 0 .812.249.812.684 0 .4-.443.778-.926 1.128-.562-.547-.692-.75-.692-1.072a.706.706 0 0 1 .806-.741zm-.067 5.7c-.644 0-1.076-.363-1.076-.9a1.817 1.817 0 0 1 .829-1.249l1.6 1.516a1.7 1.7 0 0 1-1.353.632z" class="cls-1"/>
            <path id="패스_2729" d="M192.987 144.438h-3.224v8.017h3.224a4.012 4.012 0 1 0 0-8.017zm0 6.625h-1.757v-5.233h1.757a2.617 2.617 0 1 1 0 5.233z" class="cls-1"/>
            <path id="패스_2730" d="M200.561 149.109h4.116v-1.38h-4.116v-1.909h4.4v-1.381h-5.863v8.016h6.064v-1.38h-4.6z" class="cls-1"/>
            <path id="패스_2731" d="M210.633 147.785l-.545-.072c-1.116-.159-1.551-.425-1.551-.948 0-.649.656-1.069 1.672-1.069a3.988 3.988 0 0 1 2.156.655l.084.054.739-1.169.012-.019-.081-.053a5.1 5.1 0 0 0-2.9-.86c-1.915 0-3.2 1.021-3.2 2.54 0 1.59 1.316 2.106 2.419 2.259l.612.084c1.182.159 1.686.445 1.686.957 0 .623-.716 1.059-1.74 1.059a3.907 3.907 0 0 1-2.4-.835l-.084-.076-.794 1.154-.012.017.067.058a5.231 5.231 0 0 0 3.227 1.073c2.247 0 3.252-1.286 3.252-2.562.001-1.254-.881-2.011-2.619-2.247z" class="cls-1"/>
            <path id="패스_2732" d="M218.642 147.785l-.544-.072c-1.116-.159-1.551-.425-1.551-.948 0-.649.656-1.069 1.672-1.069a3.988 3.988 0 0 1 2.156.655l.084.054.739-1.169.012-.019-.081-.053a5.1 5.1 0 0 0-2.9-.86c-1.915 0-3.2 1.021-3.2 2.54 0 1.59 1.316 2.106 2.419 2.259l.612.084c1.182.159 1.686.445 1.686.957 0 .623-.716 1.059-1.74 1.059a3.912 3.912 0 0 1-2.4-.835l-.084-.076-.793 1.154-.012.017.067.058a5.228 5.228 0 0 0 3.229 1.073c2.247 0 3.252-1.286 3.252-2.562-.002-1.254-.884-2.011-2.623-2.247z" class="cls-1"/>
            <path id="패스_2733" d="M224.653 149.109h4.115v-1.38h-4.115v-1.909h4.4v-1.381h-5.863v8.016h6.064v-1.38h-4.6z" class="cls-1"/>
            <path id="패스_2734" d="M237.479 146.8c0-1.522-1.025-2.361-2.886-2.361h-3.337v8.017h1.467v-3.29h1.2l2.077 3.278.007.011h1.693l-2.224-3.378a2.308 2.308 0 0 0 2.003-2.277zm-4.756 1.025v-2.005h1.836c.957 0 1.4.312 1.4.98 0 .7-.445 1.025-1.4 1.025z" class="cls-1"/>
            <path id="패스_2735" d="M238.783 145.83h2.546v6.625h1.471v-6.625h2.546v-1.391h-6.56z" class="cls-1"/>
        </g>
    </g>
</svg>
