<svg width="112" height="29" viewBox="0 0 112 29" fill="none" xmlns="http://www.w3.org/2000/svg">
<g clip-path="url(#clip0_4733_40429)">
<path d="M-6.31205e-06 10.3606V9.64245C-0.00494152 9.02267 0.107513 8.40814 0.330702 7.83524C0.540401 7.29458 0.852436 6.80519 1.24754 6.3973C1.65992 5.99092 2.14207 5.67222 2.66782 5.45849C3.82723 5.00369 5.10194 5.00369 6.26134 5.45849C6.78709 5.67222 7.26924 5.99092 7.68162 6.3973C8.07756 6.80641 8.39229 7.29532 8.60731 7.83524C8.83618 8.40661 8.95177 9.02175 8.94688 9.64245V10.3606C8.95397 10.9844 8.83884 11.603 8.60879 12.1772C8.39216 12.7135 8.07755 13.199 7.6831 13.6058C7.27028 14.0116 6.78824 14.3302 6.26281 14.5446C5.10306 14.9973 3.82905 14.9973 2.66929 14.5446C2.14387 14.3302 1.66183 14.0116 1.24901 13.6058C0.855382 13.2002 0.543481 12.7142 0.33218 12.1772C0.106849 11.6017 -0.00615148 10.9837 -6.31205e-06 10.3606ZM14.0921 18.885V21.2321H0.931592V16.2861H3.3691V18.885H14.0921ZM2.40798 9.64245V10.3606C2.39125 10.9721 2.59083 11.5682 2.96753 12.0317C3.16261 12.2469 3.39668 12.418 3.6557 12.535C3.91473 12.6519 4.19337 12.7122 4.47491 12.7122C4.75646 12.7122 5.0351 12.6519 5.29413 12.535C5.55315 12.418 5.78722 12.2469 5.9823 12.0317C6.3609 11.5694 6.56075 10.9725 6.54185 10.3606V9.64245C6.55861 9.02929 6.3555 8.43217 5.97344 7.97137C5.77837 7.75622 5.54429 7.58505 5.28527 7.46813C5.02624 7.35121 4.7476 7.29094 4.46606 7.29094C4.18451 7.29094 3.90587 7.35121 3.64685 7.46813C3.38782 7.58505 3.15375 7.75622 2.95867 7.97137C2.58492 8.43614 2.38851 9.03214 2.40798 9.64245ZM14.1231 5.11426V17.2499H11.6974V5.11426H14.1231Z" fill="#333333"/>
<path d="M24.1536 20.6547H16.4631V5.38652H24.1817V7.73355H18.9021V11.7845H24.2068V14.1315H18.9021V18.3139H24.1536V20.6547ZM27.7383 14.1206H24.9494V11.7735H27.7383V5.11426H30.164V21.2446H27.7383V14.1206Z" fill="#333333"/>
<path d="M42.3027 18.3139V20.661H32.4021V18.3139H34.0616V8.7365H36.3898V18.3139H38.377V8.7365H40.7053V18.3139H42.3027ZM42.3027 5.38652V7.73355H32.411V5.38652H42.3027ZM45.9376 14.1362V21.2446H43.4942V5.11426H45.9317V11.7876H47.9853V14.1347L45.9376 14.1362Z" fill="#333333"/>
<path d="M63.235 18.8584V21.2289H48.0032V18.8584H63.235ZM62.4009 17.2624H59.9575V14.133H48.7738V11.786H59.9575V7.75696H48.7738V5.38647H62.395L62.4009 17.2624Z" fill="#333333"/>
<path d="M81.7696 20.6296V27.7458C81.7696 28.4687 81.244 29.0445 80.3803 28.6737L68.1957 24.2925C67.8103 24.1189 67.2596 23.6291 67.3098 23.1879L68.3153 16.5771L81.7696 20.6296Z" fill="#333333"/>
<path d="M111.049 24.0217H68.1735C68.0484 24.0217 67.9246 23.9956 67.809 23.9449C67.6935 23.8942 67.5885 23.8198 67.5001 23.7261C67.4117 23.6324 67.3415 23.5212 67.2937 23.3987C67.2458 23.2763 67.2212 23.145 67.2212 23.0125V3.83731C67.2213 3.5776 67.3159 3.32794 67.4853 3.14026C67.6547 2.95258 67.8858 2.84133 68.1306 2.82965L111.006 0.795567C111.135 0.789661 111.263 0.811336 111.383 0.859285C111.504 0.907234 111.614 0.98047 111.707 1.07459C111.799 1.16871 111.874 1.28178 111.924 1.40699C111.975 1.5322 112.001 1.66698 112.001 1.80322V23.0078C112.002 23.1407 111.978 23.2725 111.93 23.3955C111.883 23.5184 111.813 23.6303 111.724 23.7245C111.636 23.8187 111.53 23.8934 111.415 23.9445C111.299 23.9955 111.175 24.0217 111.049 24.0217Z" fill="#EF3E43"/>
<path d="M71.7686 20.0413V6.2486H74.6992V17.2937H79.8577V20.0475L71.7686 20.0413Z" fill="white"/>
<path d="M81.8123 20.0413V6.2486H84.7429V20.0413H81.8123Z" fill="white"/>
<path d="M94.4537 20.1461H90.2726L86.5979 6.35339H89.6082L92.3632 17.3296L95.1211 6.35339H98.1299L94.4537 20.1461Z" fill="white"/>
<path d="M99.3015 20.0413V6.2486H107.49V9.00088H102.234V11.5278H107.084V14.2832H102.238V17.2937H107.494V20.0475L99.3015 20.0413Z" fill="white"/>
</g>
<defs>
<clipPath id="clip0_4733_40429">
<rect width="112" height="28" fill="white" transform="translate(0 0.791016)"/>
</clipPath>
</defs>
</svg>
