<svg version="1.1" id="Layer_1" xmlns="http://www.w3.org/2000/svg" xmlns:xlink="http://www.w3.org/1999/xlink" x="0px" y="0px"
	 width="300px" height="66px" viewBox="0 0 300 66" enable-background="new 0 0 300 66" xml:space="preserve">
<g>
	<g>
		<path fill="#FFFFFF" d="M272.716,29.422c0-1.048,0.855-1.907,1.904-1.907h3.982c1.049,0,1.904,0.859,1.904,1.907v25.502
			c0,1.05-0.855,1.907-1.904,1.907h-3.982c-1.049,0-1.904-0.857-1.904-1.907V29.422z"/>
		<path fill="#FFFFFF" d="M173.812,57.711c0-0.818,0-5.692,0-7.239c0-0.193,0.127-0.281,0.264-0.281c0,0,9.57,0.049,9.914,0.049
			c0.789,0,1.648-1.009,1.648-1.752c0-0.744,0-2.716,0-3.552c0-0.836-1.021-1.619-1.648-1.619c-0.215,0-26.877,0-26.877,0
			c-0.99,0-1.828,0.629-1.828,1.619v3.552c0,0.99,0.838,1.752,1.828,1.752c0,0,9.373-0.049,9.545-0.049s0.279,0.085,0.279,0.281
			c0,1.352,0,5.137,0,7.333c0,1.038,1.188,1.681,1.877,1.681c0.688,0,2.271,0,3.178,0S173.812,58.616,173.812,57.711z"/>
		<path fill="#FFFFFF" d="M209.474,57.711c0-0.818,0-5.692,0-7.239c0-0.193,0.125-0.281,0.262-0.281c0,0,9.572,0.049,9.916,0.049
			c0.789,0,1.646-1.009,1.646-1.752c0-0.744,0-2.716,0-3.552c0-0.836-1.021-1.619-1.646-1.619c-0.215,0-24.52,0-24.52,0
			c-0.99,0-1.83,0.629-1.83,1.619v3.552c0,0.99,0.84,1.752,1.83,1.752c0,0,7.016-0.049,7.188-0.049c0.17,0,0.279,0.085,0.279,0.281
			c0,1.352,0,5.137,0,7.333c0,1.038,1.188,1.681,1.875,1.681c0.689,0,2.273,0,3.18,0S209.474,58.616,209.474,57.711z"/>
		<path fill="#FFFFFF" d="M147.675,41.016c-0.816,0-4.43,0-5.977,0c-0.195,0-0.363-0.017-0.363-0.152c0,0,0-11.024,0-11.367
			c0-0.79-0.99-1.648-1.732-1.648c-0.744,0-3.158,0-3.994,0c-0.834,0-1.578,1.021-1.578,1.648c0,0.214,0,25.496,0,25.496
			c0,0.99,0.668,1.828,1.656,1.828h3.877c0.99,0,1.771-0.838,1.771-1.828V48.31c0,0-0.045-0.221,0.195-0.221c3.555,0,3.92,0,6.24,0
			c1.039,0,1.68-1.087,1.68-1.876c0-0.688,0-2.47,0-3.375C149.45,41.931,148.581,41.016,147.675,41.016z"/>
		<path fill="#FFFFFF" d="M126.831,52.957c-4.758,0-16.67,0-17.064,0c-0.486,0-1.723-0.705-1.723-1.865c0-5.357,0-21.224,0-21.767
			c0-0.661,0.938-1.712,1.82-1.712c0.885,0,3.188,0,3.975,0c0.785,0,1.832,0.877,1.832,1.712c0,0.748,0,12.661,0,15.128
			c0,0.288,0.09,0.447,0.385,0.447c1.637,0,9.814,0,10.678,0c0.957,0,1.877,0.903,1.877,1.86c0,0.96,0,3.585,0,4.315
			C128.61,51.803,127.933,52.957,126.831,52.957z"/>
		<path fill="#FFFFFF" d="M182.681,37.393c0,0.979-0.799,1.778-1.777,1.778h-20.885c-0.979,0-1.779-0.799-1.779-1.778V20.06
			c0-0.979,0.801-1.778,1.779-1.778h20.885c0.979,0,1.777,0.799,1.777,1.778V37.393z M174.249,32.582
			c1.086,0,1.969-0.885,1.969-1.969v-3.771c0-1.083-0.883-1.969-1.969-1.969h-7.576c-1.086,0-1.969,0.886-1.969,1.969v3.771
			c0,1.084,0.883,1.969,1.969,1.969H174.249z"/>
		<path fill="#FFFFFF" d="M206.216,17.465c3.137,0,5.814,1.078,8.029,3.231c2.217,2.154,3.326,4.798,3.326,7.938
			c0,3.138-1.109,5.815-3.326,8.031c-2.215,2.215-4.893,3.323-8.029,3.323s-5.785-1.107-7.938-3.323
			c-2.154-2.216-3.232-4.893-3.232-8.031c0-3.14,1.078-5.784,3.232-7.938C200.431,18.543,203.079,17.465,206.216,17.465z
			 M206.216,33.206c1.242,0,2.314-0.467,3.215-1.401c0.902-0.932,1.355-1.99,1.355-3.171c0-1.244-0.453-2.287-1.355-3.125
			c-0.9-0.84-1.973-1.261-3.215-1.261c-1.184,0-2.211,0.42-3.08,1.261c-0.871,0.839-1.305,1.882-1.305,3.125
			c0,1.182,0.434,2.239,1.305,3.171C204.005,32.739,205.032,33.206,206.216,33.206z"/>
		<path fill="#FFFFFF" d="M254.894,38.62c1.008,0,1.832-0.825,1.832-1.832v-0.111c0-1.009-0.824-1.832-1.832-1.832h-11.818
			c-1.008,0-1.832-0.824-1.832-1.832v-3.604c0-1.007,0.824-1.832,1.832-1.832h19.084c1.006,0,1.832,0.825,1.832,1.832V51.32
			c0,1.008-0.826,1.83-1.832,1.83h-3.602c-1.008,0-1.832-0.822-1.832-1.83v-3.981c0-1.008-0.824-1.83-1.832-1.83h-11.246
			c-1.008,0-1.832-0.825-1.832-1.833v-3.224c0-1.007,0.824-1.831,1.832-1.831H254.894z"/>
		<g>
			<path fill="#FFFFFF" d="M276.79,32.785c-4.941,0-8.961-4.021-8.961-8.962c0-4.943,4.02-8.961,8.961-8.961
				c4.943,0,8.963,4.019,8.963,8.961C285.753,28.765,281.733,32.785,276.79,32.785z M276.79,21.191c-1.449,0-2.631,1.18-2.631,2.632
				c0,1.452,1.182,2.633,2.631,2.633c1.451,0,2.635-1.181,2.635-2.633C279.425,22.371,278.241,21.191,276.79,21.191z"/>
		</g>
		<path fill="#FFFFFF" d="M224.382,19.254c0-1.047,0.855-1.906,1.904-1.906h4.078c1.049,0,1.906,0.859,1.906,1.906v36.392
			c0,1.05-0.857,1.904-1.906,1.904h-4.078c-1.049,0-1.904-0.854-1.904-1.904V19.254z"/>
		<g>
			<path fill="#FFFFFF" d="M228.458,22.644c-4.941,0-8.961-4.02-8.961-8.962s4.02-8.961,8.961-8.961s8.961,4.019,8.961,8.961
				S233.399,22.644,228.458,22.644z M228.458,11.049c-1.451,0-2.633,1.18-2.633,2.632s1.182,2.633,2.633,2.633
				s2.633-1.181,2.633-2.633S229.909,11.049,228.458,11.049z"/>
		</g>
		<g>
			<path fill="#FFFFFF" d="M137.425,31.29c-4.941,0-8.961-4.021-8.961-8.964c0-4.942,4.02-8.961,8.961-8.961s8.963,4.02,8.963,8.961
				C146.388,27.268,142.366,31.29,137.425,31.29z M137.425,19.694c-1.451,0-2.631,1.18-2.631,2.632s1.18,2.633,2.631,2.633
				s2.635-1.182,2.635-2.633S138.876,19.694,137.425,19.694z"/>
		</g>
	</g>
	<g>
		<path fill="#FFFFFF" d="M75.415,35.666l-16.299,6.9l-5.604-13.238c-0.502-1.186-1.869-1.74-3.055-1.237
			c-1.186,0.502-1.74,1.869-1.238,3.055l2.516,5.939l-12.449,5.271l-8.058-19.031c-0.502-1.185-1.87-1.739-3.056-1.236
			c-1.185,0.501-1.739,1.87-1.237,3.054l8.058,19.031l-5.436,2.301c-1.185,0.502-1.739,1.869-1.237,3.055
			c0.502,1.186,1.869,1.74,3.055,1.237l22.176-9.389l5.18,12.231c0.502,1.186,1.869,1.74,3.055,1.238
			c1.186-0.502,1.74-1.87,1.238-3.055l-2.09-4.935l16.299-6.899c1.184-0.502,1.738-1.87,1.236-3.056
			C77.968,35.719,76.599,35.163,75.415,35.666z"/>
		<g>
			<path fill="#FFFFFF" d="M26.586,26.369c-4.824,0.037-8.778-3.857-8.814-8.679c-0.037-4.825,3.858-8.777,8.682-8.814
				c4.823-0.037,8.776,3.857,8.813,8.682C35.303,22.379,31.409,26.333,26.586,26.369z M26.493,14.003
				c-1.996,0.015-3.608,1.652-3.594,3.647c0.017,1.996,1.652,3.606,3.648,3.592c1.995-0.015,3.607-1.652,3.592-3.647
				C30.124,15.599,28.489,13.989,26.493,14.003z"/>
		</g>
		<g>
			<path fill="#FFFFFF" d="M48.933,33.364c-4.822,0.036-8.777-3.858-8.814-8.681c-0.036-4.824,3.859-8.777,8.681-8.814
				c4.824-0.037,8.777,3.857,8.814,8.682C57.651,29.374,53.757,33.328,48.933,33.364z M48.839,20.997
				c-1.996,0.016-3.607,1.652-3.592,3.647c0.014,1.996,1.65,3.608,3.646,3.593c1.996-0.016,3.607-1.652,3.592-3.647
				C52.472,22.593,50.835,20.982,48.839,20.997z"/>
		</g>
		<g>
			<path fill="#FFFFFF" d="M33.094,51.146c0.037,4.822-3.857,8.778-8.681,8.814s-8.777-3.858-8.813-8.682
				c-0.036-4.823,3.857-8.777,8.681-8.814C29.104,42.429,33.058,46.323,33.094,51.146z M20.727,51.24
				c0.016,1.996,1.651,3.608,3.647,3.592c1.996-0.015,3.607-1.652,3.593-3.646c-0.015-1.996-1.651-3.607-3.647-3.592
				S20.712,49.244,20.727,51.24z"/>
		</g>
		<g>
			<path fill="#FFFFFF" d="M73.78,34.536c-0.037-4.822,3.855-8.777,8.68-8.814c4.824-0.037,8.775,3.859,8.813,8.682
				c0.037,4.824-3.857,8.777-8.682,8.813C77.769,43.253,73.815,39.36,73.78,34.536z M86.147,34.443
				c-0.018-1.996-1.654-3.607-3.65-3.592c-1.994,0.015-3.605,1.651-3.592,3.646c0.016,1.996,1.652,3.608,3.648,3.592
				C84.55,38.074,86.159,36.439,86.147,34.443z"/>
		</g>
	</g>
</g>
</svg>