<svg width="28" height="25" viewBox="0 0 28 25" fill="none" xmlns="http://www.w3.org/2000/svg">
<path d="M26.2666 11.2455V22.0954C26.2666 22.7765 26.0327 23.3523 25.565 23.8227C25.0972 24.2931 24.5247 24.5283 23.8473 24.5283H4.15751C3.48017 24.5283 2.90763 24.29 2.43988 23.8135C1.97214 23.337 1.73827 22.7689 1.73827 22.109V11.179C0.881682 10.631 0.351626 9.92251 0.148101 9.05341C-0.0554496 8.18428 -0.0491795 7.27706 0.166911 6.33174L1.83954 1.66104C1.96494 1.07843 2.23649 0.655933 2.65417 0.393544C3.07185 0.131181 3.5978 0 4.232 0H23.7439C24.3781 0 24.9002 0.116233 25.3102 0.348701C25.7201 0.581169 25.9955 1.00897 26.1364 1.63211L27.8379 6.33174C28.054 7.27706 28.054 8.19393 27.8379 9.08234C27.6219 9.97075 27.0981 10.6918 26.2666 11.2455ZM17.313 9.93173C17.9844 9.93173 18.5333 9.73687 18.9596 9.34715C19.386 8.95745 19.5741 8.51181 19.5239 8.0102L18.5343 1.95617H15.131V7.73546C15.131 8.35268 15.3452 8.87304 15.7735 9.29651C16.2017 9.71999 16.7149 9.93173 17.313 9.93173ZM10.673 9.93173C11.3029 9.93173 11.8272 9.71999 12.2459 9.29651C12.6645 8.87304 12.8738 8.35268 12.8738 7.73546V1.95617H9.47061L8.4809 8.06806C8.45005 8.50215 8.64298 8.92128 9.05968 9.32544C9.47641 9.72963 10.0142 9.93173 10.673 9.93173ZM4.07068 9.93173C4.62824 9.93173 5.10767 9.76244 5.50898 9.42386C5.91026 9.08525 6.14562 8.65936 6.21507 8.1462L7.21347 1.95617H4.24434C4.08034 1.95617 3.95011 1.99235 3.85365 2.06471C3.75717 2.13707 3.68481 2.2456 3.63658 2.39031L2.00157 7.06097C1.75268 7.78253 1.83997 8.44137 2.26345 9.0375C2.68692 9.63365 3.28934 9.93173 4.07068 9.93173ZM23.9341 9.93173C24.648 9.93173 25.2398 9.64331 25.7095 9.06647C26.1793 8.4896 26.2898 7.8211 26.0409 7.06097L24.3683 2.36134C24.32 2.21666 24.2477 2.11295 24.1512 2.05023C24.0548 1.98752 23.9245 1.95617 23.7605 1.95617H20.7914L21.7898 8.1462C21.8592 8.65936 22.1009 9.08525 22.5147 9.42386C22.9285 9.76244 23.4017 9.93173 23.9341 9.93173ZM4.15751 22.5721H23.8473C23.9824 22.5721 24.0933 22.5287 24.1801 22.4419C24.267 22.355 24.3104 22.2441 24.3104 22.109V11.83C24.2718 11.8397 24.2163 11.8517 24.144 11.8662C24.0716 11.8807 24.0017 11.8879 23.9341 11.8879C23.3071 11.8879 22.7115 11.7591 22.1472 11.5016C21.5829 11.244 21.0847 10.8452 20.6525 10.305C20.23 10.8258 19.7384 11.2199 19.1775 11.4871C18.6167 11.7543 17.9759 11.8879 17.2551 11.8879C16.6623 11.8879 16.1032 11.7553 15.5777 11.49C15.0523 11.2247 14.5272 10.8297 14.0024 10.305C13.5375 10.8297 13.0045 11.2247 12.4036 11.49C11.8026 11.7553 11.2127 11.8879 10.634 11.8879C10.0552 11.8879 9.48752 11.7837 8.93095 11.5754C8.37434 11.367 7.85778 10.9436 7.38126 10.305C6.72298 10.9516 6.11469 11.3771 5.55638 11.5814C4.99807 11.7858 4.50284 11.8879 4.07068 11.8879C4.00317 11.8879 3.93806 11.8807 3.87536 11.8662C3.81263 11.8517 3.75234 11.8397 3.69448 11.83V22.109C3.69448 22.2441 3.73788 22.355 3.82468 22.4419C3.91151 22.5287 4.02245 22.5721 4.15751 22.5721Z" fill="white"/>
</svg>
