<svg width="24" height="24" viewBox="0 0 24 24" fill="none" xmlns="http://www.w3.org/2000/svg">
<path d="M18.2948 7.115C18.6841 6.72564 18.6841 6.09436 18.2948 5.705V5.705C17.9054 5.31564 17.2741 5.31564 16.8848 5.705L11.9998 10.59L7.11476 5.705C6.72539 5.31564 6.09412 5.31564 5.70476 5.705V5.705C5.31539 6.09436 5.3154 6.72564 5.70476 7.115L10.5898 12L5.70476 16.885C5.3154 17.2744 5.31539 17.9056 5.70476 18.295V18.295C6.09412 18.6844 6.72539 18.6844 7.11476 18.295L11.9998 13.41L16.8848 18.295C17.2741 18.6844 17.9054 18.6844 18.2948 18.295V18.295C18.6841 17.9056 18.6841 17.2744 18.2948 16.885L13.4098 12L18.2948 7.115Z" fill="white"/>
</svg>
