<svg width="213" height="111" viewBox="0 0 375 196" fill="none" class="" xmlns="http://www.w3.org/2000/svg" xmlns:xlink="http://www.w3.org/1999/xlink"><path d="m206.916 147.704 37.08-47.028c.926-1.234 2.78-1.433 3.939-.504l28.288 22.014c1.24.921 1.438 2.764.503 3.919l-37.071 47.108c-.927 1.234-2.78 1.433-3.94.504l-28.287-22.014a2.886 2.886 0 0 1-.512-3.999Z" fill="#DDD"></path><path d="m247.808 123.873 5.5-6.989c.479-.592 1.455-.787 2.06-.221l5.037 3.875c.595.477.79 1.447.221 2.049l-5.5 6.989c-.48.592-1.456.787-2.06.221l-5.038-3.875c-.595-.477-.7-1.457-.22-2.049Z" fill="#F9E7BA"></path><g clip-path="url(#illustrationnewscardrecommendation_clip0_3_30949)"><path d="m169.983 24.49 67.545 9.692c.373.053.481.62.351 1.521l-18.162 126.155c-.104.721-.394 1.415-.766 1.362l-67.545-9.691L169.983 24.49Z" fill="#96F6CD"></path><path d="m169.983 24.49-11.961 83.083 58.428 8.383 11.961-83.082-58.428-8.383Z" fill="#68EBB8"></path><path d="m169.983 24.49 9.118 1.31c.372.052.532.26.481.62l-11.884 82.541-9.676-1.388 11.961-83.082Z" fill="#3BDFA4"></path><path d="m228.411 32.874 9.118 1.308c.372.053.532.26.48.62l-11.961 83.083c.052-.361-.108-.568-.48-.621l-9.118-1.308 11.961-83.082Z" fill="#68EBB8"></path><path d="m222.271 31.993 5.954.854-11.961 83.082-18.235-2.616c-1.545-1.142-3.224-2.67-4.903-4.199-21.245-19.97 14.952-24.71 6.924-33.588-9.334-10.352-3.178-20.138 7.056-26.579 7.927-4.933 12.578-12.175 15.165-16.954ZM215.138 151.453c-.26 1.802-1.93 2.85-3.605 2.609l-2.046-.293c-1.861-.267-2.956-1.896-2.723-3.518.26-1.802 1.93-2.85 3.605-2.61l2.046.294c1.675.24 2.956 1.896 2.723 3.518ZM216.747 140.279c-.259 1.802-1.93 2.85-3.604 2.61l-2.047-.294c-1.861-.267-2.956-1.896-2.722-3.518.259-1.802 1.929-2.85 3.604-2.61l2.047.294c1.675.24 2.956 1.896 2.722 3.518ZM218.355 129.105c-.259 1.802-1.929 2.85-3.604 2.61l-2.047-.294c-1.86-.267-2.955-1.896-2.722-3.518.26-1.802 1.93-2.85 3.604-2.61l2.047.294c1.675.24 2.956 1.896 2.722 3.518Z" fill="#3BDFA4"></path></g><path d="m130.733 163.262-24.62-54.563c-.668-1.391.012-3.126 1.372-3.724l32.613-14.913c1.39-.674 3.118 0 3.711 1.362l24.695 54.593c.668 1.391-.012 3.126-1.373 3.725l-32.612 14.912a2.89 2.89 0 0 1-3.786-1.392Z" fill="#808491"></path><path d="m128.461 116.027-3.663-8.099c-.304-.699-.026-1.654.755-1.928l5.768-2.677c.698-.307 1.65-.032 1.921.75l3.663 8.099c.304.699.026 1.654-.755 1.928l-5.768 2.677c-.698.307-1.617-.052-1.921-.75Z" fill="#FBD396"></path><path d="m219.811 161.361 5.256-36.793 1.368-1.527-2.782 41.299-3.842-2.979Z" fill="#4E4E4E"></path><path d="M89.164 51.198a9.598 9.598 0 0 0 9.092-10.154c-.02-.356.317-.732.674-.752.356-.02.733.316.753.673a9.598 9.598 0 0 0 10.165 9.08c.357-.02.733.316.753.672.02.356-.317.732-.674.752a9.598 9.598 0 0 0-9.092 10.154c.02.356-.317.732-.673.752-.357.02-.734-.316-.753-.672a9.598 9.598 0 0 0-10.166-9.08c-.356.02-.733-.316-.753-.673-.02-.356.139-.722.674-.752ZM258.532 44.222a11.998 11.998 0 0 0 11.366-12.692c-.025-.445.396-.915.842-.94.445-.025.916.395.941.84a11.996 11.996 0 0 0 12.706 11.35c.446-.025.917.395.942.84.024.446-.396.916-.842.94a11.998 11.998 0 0 0-11.366 12.693c.025.446-.396.916-.841.94-.446.026-.917-.395-.942-.84a11.997 11.997 0 0 0-12.706-11.35c-.446.025-.917-.395-.942-.84-.024-.445.174-.903.842-.94Z" fill="#B3F9E4"></path><path d="M109.658 28.795c8.872-.495 15.618-8.41 15.099-17.713-.04-.716.442-1.28 1.124-1.319.683-.038 1.224.47 1.264 1.186.519 9.303 8.104 16.418 16.976 15.923.682-.038 1.224.47 1.264 1.186.04.715-.442 1.28-1.125 1.319-8.871.495-15.617 8.409-15.098 17.712.04.716-.442 1.281-1.125 1.32-.682.037-1.224-.47-1.264-1.186-.519-9.304-8.104-16.418-16.975-15.924-.682.038-1.224-.47-1.264-1.185-.04-.716.442-1.281 1.124-1.32Z" fill="#24E3AA"></path><defs><clipPath id="illustrationnewscardrecommendation_clip0_3_30949"><path fill="#fff" transform="rotate(-81.808 164.31 -10.618) skewX(.028)" d="M0 0h130.369v68.801H0z"></path></clipPath></defs></svg>