<svg xmlns="http://www.w3.org/2000/svg" xmlns:xlink="http://www.w3.org/1999/xlink" width="48" height="48" viewBox="0 0 24 24" fill="none" class="cardLnbCategoryFeaturedItemIcon_Emthc"><path d="M19.9949 12C19.9949 11.03 20.6849 10.23 21.5949 10.04C21.8249 9.99 21.9949 9.79 21.9949 9.55V7C21.9949 5.9 21.0949 5 19.9949 5H4.00488C2.90488 5 2.00488 5.9 2.00488 7V9.55C2.00488 9.79 2.17488 9.99 2.40488 10.04C3.31488 10.23 3.99488 11.03 3.99488 12C3.99488 12.97 3.31488 13.77 2.40488 13.96C2.17488 14.01 2.00488 14.21 2.00488 14.45V17C2.00488 18.1 2.90488 19 4.00488 19H19.9949C21.0949 19 21.9949 18.1 21.9949 17V14.45C21.9949 14.21 21.8249 14.01 21.5949 13.96C20.6849 13.77 19.9949 12.97 19.9949 12Z" fill="#3CD281"></path><path fill-rule="evenodd" clip-rule="evenodd" d="M1.70508 7.0002C1.70508 5.73451 2.73939 4.7002 4.00508 4.7002H19.9951C21.2608 4.7002 22.2951 5.73451 22.2951 7.0002V9.5502C22.2951 9.93748 22.0206 10.2547 21.6588 10.3333L21.6576 10.3336L21.6564 10.3339C20.8803 10.4959 20.2951 11.1774 20.2951 12.0002C20.2951 12.823 20.8803 13.5045 21.6564 13.6665L21.6576 13.6668L21.6588 13.667C22.0206 13.7457 22.2951 14.0629 22.2951 14.4502V17.0002C22.2951 18.2659 21.2608 19.3002 19.9951 19.3002H4.00508C2.73939 19.3002 1.70508 18.2659 1.70508 17.0002V14.4502C1.70508 14.0629 1.97955 13.7457 2.34135 13.667L2.34256 13.6668L2.34376 13.6665C3.11765 13.5049 3.69508 12.8252 3.69508 12.0002C3.69508 11.1752 3.11765 10.4954 2.34376 10.3339L2.34256 10.3336L2.34135 10.3333C1.97955 10.2547 1.70508 9.93748 1.70508 9.5502V7.0002ZM4.00508 5.3002C3.07076 5.3002 2.30508 6.06588 2.30508 7.0002V9.5502C2.30508 9.64262 2.3702 9.72518 2.4679 9.74684C3.51326 9.96583 4.29508 10.8857 4.29508 12.0002C4.29508 13.1147 3.51323 14.0346 2.46784 14.2536C2.37017 14.2752 2.30508 14.3578 2.30508 14.4502V17.0002C2.30508 17.9345 3.07076 18.7002 4.00508 18.7002H19.9951C20.9294 18.7002 21.6951 17.9345 21.6951 17.0002V14.4502C21.6951 14.3578 21.63 14.2752 21.5323 14.2536C20.4891 14.0351 19.6951 13.1169 19.6951 12.0002C19.6951 10.8835 20.4891 9.96538 21.5323 9.74684C21.63 9.72519 21.6951 9.64263 21.6951 9.5502V7.0002C21.6951 6.06588 20.9294 5.3002 19.9951 5.3002H4.00508Z" fill="#35C275"></path><path fill-rule="evenodd" clip-rule="evenodd" d="M7.44995 12.0256C7.44995 11.7218 7.69619 11.4756 7.99995 11.4756H9.28095C9.58471 11.4756 9.83095 11.7218 9.83095 12.0256C9.83095 12.3293 9.58471 12.5756 9.28095 12.5756H7.99995C7.69619 12.5756 7.44995 12.3293 7.44995 12.0256Z" fill="#F3FEF8"></path><path fill-rule="evenodd" clip-rule="evenodd" d="M14.1689 12.0256C14.1689 11.7218 14.4152 11.4756 14.7189 11.4756H15.9999C16.3037 11.4756 16.5499 11.7218 16.5499 12.0256C16.5499 12.3293 16.3037 12.5756 15.9999 12.5756H14.7189C14.4152 12.5756 14.1689 12.3293 14.1689 12.0256Z" fill="#F3FEF8"></path><path fill-rule="evenodd" clip-rule="evenodd" d="M15.6093 9.2535C15.8966 9.35199 16.0497 9.66477 15.9512 9.95212L14.1942 15.0781C14.1179 15.3007 13.9084 15.4501 13.6731 15.4498C13.4378 15.4494 13.2288 15.2994 13.1531 15.0766L11.9789 11.6174L10.7514 15.0834C10.6728 15.3052 10.4619 15.4524 10.2266 15.4497C9.99134 15.447 9.78384 15.295 9.7104 15.0714L8.0264 9.94544C7.9316 9.65686 8.08868 9.34606 8.37727 9.25126C8.66585 9.15645 8.97665 9.31354 9.07145 9.60212L10.2525 13.1971L11.4715 9.75517C11.5497 9.53431 11.7592 9.38726 11.9935 9.38879C12.2278 9.39033 12.4354 9.54013 12.5107 9.76199L13.6765 13.1962L14.9106 9.59545C15.0091 9.3081 15.3219 9.15501 15.6093 9.2535Z" fill="#F3FEF8"></path></svg>