<svg xmlns="http://www.w3.org/2000/svg" xmlns:xlink="http://www.w3.org/1999/xlink" width="48" height="48" viewBox="0 0 40 40" fill="none" class="cardLnbCategoryFeaturedItemIcon_Emthc"><path fill-rule="evenodd" clip-rule="evenodd" d="M14.282 6.86a1 1 0 0 0-.953 1.302l1.636 5.16c-4.037 1.665-6.833 5.268-6.833 9.445v6.373a4 4 0 0 0 4 4h15.737a4 4 0 0 0 4-4v-6.373c0-4.177-2.796-7.78-6.834-9.444l1.637-5.16a1 1 0 0 0-.954-1.303H14.282Z" fill="url(#iconcurationloan_paint0_linear_3_32073)"></path><path fill-rule="evenodd" clip-rule="evenodd" d="m16.196 13.897-.85.35c-3.733 1.539-6.214 4.82-6.214 8.52v6.373a3 3 0 0 0 3 3h15.737a3 3 0 0 0 3-3v-6.373c0-3.7-2.482-6.981-6.215-8.52l-.85-.35 1.914-6.037H14.282l1.914 6.037ZM13.33 8.162a1 1 0 0 1 .953-1.302h11.436a1 1 0 0 1 .954 1.302l-1.637 5.16c4.038 1.665 6.834 5.268 6.834 9.445v6.373a4 4 0 0 1-4 4H12.132a4 4 0 0 1-4-4v-6.373c0-4.177 2.796-7.78 6.833-9.444l-1.636-5.16Z" fill="#000" fill-opacity="0.03"></path><path fill-rule="evenodd" clip-rule="evenodd" d="M25.609 11.34H14.393l.533 1.78-.133.068h10.416a10.994 10.994 0 0 0-.133-.067l.533-1.782Z" fill="#E28F5B"></path><g filter="url(#iconcurationloan_filter0_d_3_32073)" fill="#fff"><path fill-rule="evenodd" clip-rule="evenodd" d="M16.288 27.14c-.32-.32-.345-.815-.055-1.105l6.374-6.374c.29-.29.785-.266 1.105.054.32.32.345.815.055 1.105l-6.375 6.374c-.29.29-.784.266-1.104-.054Z"></path><circle cx="17.112" cy="20.541" r="1.237"></circle><circle cx="22.887" cy="26.315" r="1.237"></circle></g><defs><linearGradient id="iconcurationloan_paint0_linear_3_32073" x1="20" y1="6.86" x2="20" y2="42.223" gradientUnits="userSpaceOnUse"><stop stop-color="#FFD363"></stop><stop offset="1" stop-color="#F48F50"></stop></linearGradient><filter id="iconcurationloan_filter0_d_3_32073" x="13.875" y="17.303" width="12.249" height="12.249" filterUnits="userSpaceOnUse" color-interpolation-filters="sRGB"><feFlood flood-opacity="0" result="BackgroundImageFix"></feFlood><feColorMatrix in="SourceAlpha" values="0 0 0 0 0 0 0 0 0 0 0 0 0 0 0 0 0 0 127 0" result="hardAlpha"></feColorMatrix><feOffset></feOffset><feGaussianBlur stdDeviation="1"></feGaussianBlur><feComposite in2="hardAlpha" operator="out"></feComposite><feColorMatrix values="0 0 0 0 0 0 0 0 0 0 0 0 0 0 0 0 0 0 0.1 0"></feColorMatrix><feBlend in2="BackgroundImageFix" result="effect1_dropShadow_3_32073"></feBlend><feBlend in="SourceGraphic" in2="effect1_dropShadow_3_32073" result="shape"></feBlend></filter></defs></svg>