<svg xmlns="http://www.w3.org/2000/svg" xmlns:xlink="http://www.w3.org/1999/xlink" width="375" height="160" viewBox="0 0 375 240" fill="none" class=""><g clip-path="url(#illustrationcurationgetcoupons_clip0_9616_99552)"><path d="M312.72 80.566c.45-.1.46-.79 0-.89-2.7-.61-5.94-1.84-8.58-5.16-1.85-2.23-3.51-5.76-4.01-8.22a.425.425 0 0 0-.84 0c-.63 3.13-1.79 5.44-3.42 7.67-2.53 3.49-6.25 5.06-9.11 5.7-.45.1-.45.79 0 .89 3.32.74 5.8 2.28 7.64 4.16 2.26 2.19 4.05 4.91 4.87 9.03.1.48.75.48.84 0 .62-3.11 2.34-7.2 5.66-9.78 1.71-1.45 4.17-2.79 6.93-3.41l.02.01Z" fill="#FFE569" stroke="#D89600" stroke-linecap="round" stroke-linejoin="round"></path><path d="M286.39 80.066s.07-.33 1.01-.59c2.91-.82 5.98-2.07 8.47-5.5 1.44-1.98 2.81-4.89 3.54-7.9.05-.22.35-.19.37.04.15 2.19 1.13 7.27-2.17 10.63-4.76 4.86-10.3 3.4-11.23 3.32h.01Z" fill="#FFF1A7"></path><path d="M312.95 80.466c-2.59.63-5.52 1.74-8.83 4.99-2.22 2.26-3.27 5.57-3.95 8.43-.06.27-.44.24-.46-.05-.14-2.38-.36-7.15 2.28-10.32 3.26-3.92 8.51-3.34 10.93-3.35.16 0 .19.25.03.29v.01Z" fill="#F8D034"></path><path d="M312.72 80.566c.45-.1.46-.79 0-.89-2.7-.61-5.94-1.84-8.58-5.16-1.85-2.23-3.51-5.76-4.01-8.22a.425.425 0 0 0-.84 0c-.63 3.13-1.79 5.44-3.42 7.67-2.53 3.49-6.25 5.06-9.11 5.7-.45.1-.45.79 0 .89 3.32.74 5.8 2.28 7.64 4.16 2.26 2.19 4.05 4.91 4.87 9.03.1.48.75.48.84 0 .62-3.11 2.34-7.2 5.66-9.78 1.71-1.45 4.17-2.79 6.93-3.41l.02.01Z" stroke="#D89600" stroke-linecap="round" stroke-linejoin="round"></path><path d="m125.803 45.686-59.035 18.58a6.91 6.91 0 0 0-4.517 8.665L99.038 189.82a6.911 6.911 0 0 0 8.666 4.517l59.035-18.58a6.91 6.91 0 0 0 4.517-8.666L134.469 50.202a6.91 6.91 0 0 0-8.666-4.516Z" fill="#565F69" stroke="#333C45" stroke-miterlimit="10"></path><path d="m87.75 65.876 21.77-6.85c1.66-.53 2.08-1.79 2.15-2.75.05-.77.56-1.42 1.3-1.66l12.91-4.14c2.25-.71 4.66.54 5.37 2.8l35.61 113.13c.71 2.25-.54 4.66-2.8 5.37l-56.42 17.76c-2.25.71-4.66-.54-5.37-2.8L66.66 73.606c-.71-2.25.54-4.66 2.8-5.37l13.09-4.12c.75-.24 1.55.03 2.04.64.6.74 1.63 1.52 3.17 1.12h-.01Z" fill="#E0ECFF" stroke="#333C45" stroke-miterlimit="10"></path><path d="M134.95 69.565c-1.49.42-2.5 1.72-2.69 3.26a8.353 8.353 0 0 1-6.02 7.04c-3.34.95-6.78-.29-8.81-2.86-.96-1.21-2.5-1.8-3.99-1.38l-11.09 3.12c-1.97.55-3.11 2.6-2.56 4.57l20.61 73.16c.55 1.97 2.6 3.11 4.57 2.56l11.09-3.12c1.49-.42 2.5-1.72 2.69-3.26a8.353 8.353 0 0 1 6.02-7.04c3.34-.95 6.78.29 8.81 2.86.96 1.21 2.5 1.8 3.99 1.38l11.09-3.12c1.97-.55 3.11-2.6 2.56-4.57l-20.62-73.16c-.55-1.97-2.6-3.11-4.57-2.56l-11.09 3.12h.01Z" fill="#46DF8E" stroke="#2D965A" stroke-linecap="round" stroke-linejoin="round"></path><path d="m171.66 142.765-1.51 3.54-6.63 1.87-3.24-7.6-18.47 6.29-5.99-77.14 11.87-3.34 23.97 76.38Z" fill="#3CD281"></path><path d="m129.42 123.985 10.82-24.94M128.136 109.608c1.638-.462 2.539-2.348 2.013-4.214-.525-1.866-2.278-3.005-3.916-2.543-1.637.461-2.538 2.347-2.013 4.213.526 1.866 2.279 3.005 3.916 2.544ZM143.01 120.305c1.638-.461 2.539-2.348 2.013-4.214-.525-1.866-2.278-3.004-3.916-2.543-1.637.461-2.538 2.347-2.013 4.213.526 1.866 2.279 3.005 3.916 2.544Z" stroke="#E1FCED" stroke-width="1.5" stroke-linecap="round" stroke-linejoin="round"></path><path d="M134.95 69.565c-1.49.42-2.5 1.72-2.69 3.26a8.353 8.353 0 0 1-6.02 7.04c-3.34.95-6.78-.29-8.81-2.86-.96-1.21-2.5-1.8-3.99-1.38l-11.09 3.12c-1.97.55-3.11 2.6-2.56 4.57l20.61 73.16c.55 1.97 2.6 3.11 4.57 2.56l11.09-3.12c1.49-.42 2.5-1.72 2.69-3.26a8.353 8.353 0 0 1 6.02-7.04c3.34-.95 6.78.29 8.81 2.86.96 1.21 2.5 1.8 3.99 1.38l11.09-3.12c1.97-.55 3.11-2.6 2.56-4.57l-20.62-73.16c-.55-1.97-2.6-3.11-4.57-2.56l-11.09 3.12h.01Z" stroke="#2D965A" stroke-linecap="round" stroke-linejoin="round"></path><path d="M176.38 65.396c-1.54.12-2.79 1.2-3.27 2.67a8.339 8.339 0 0 1-7.28 5.72 8.337 8.337 0 0 1-8.08-4.53c-.7-1.38-2.1-2.25-3.65-2.13l-11.48.9a3.699 3.699 0 0 0-3.4 3.98l5.91 75.78a3.699 3.699 0 0 0 3.98 3.4l11.48-.9c1.54-.12 2.79-1.2 3.27-2.67a8.339 8.339 0 0 1 7.28-5.72 8.337 8.337 0 0 1 8.08 4.53c.7 1.38 2.1 2.25 3.65 2.13l11.48-.9a3.699 3.699 0 0 0 3.4-3.98l-5.91-75.78a3.699 3.699 0 0 0-3.98-3.4l-11.48.9Z" fill="#46DF8E" stroke="#2D965A" stroke-linecap="round" stroke-linejoin="round"></path><path d="m182.7 147.645-7.84-5.68 6.04-76.4 9.43-.86-7.63 82.94Z" fill="#3CD281"></path><path d="M176.38 65.396c-1.54.12-2.79 1.2-3.27 2.67a8.339 8.339 0 0 1-7.28 5.72 8.337 8.337 0 0 1-8.08-4.53c-.7-1.38-2.1-2.25-3.65-2.13l-11.48.9a3.699 3.699 0 0 0-3.4 3.98l5.91 75.78a3.699 3.699 0 0 0 3.98 3.4l11.48-.9c1.54-.12 2.79-1.2 3.27-2.67a8.339 8.339 0 0 1 7.28-5.72 8.337 8.337 0 0 1 8.08 4.53c.7 1.38 2.1 2.25 3.65 2.13l11.48-.9a3.699 3.699 0 0 0 3.4-3.98l-5.91-75.78a3.699 3.699 0 0 0-3.98-3.4l-11.48.9Z" stroke="#2D965A" stroke-linecap="round" stroke-linejoin="round"></path><path d="m161.41 116.006 15.22-21.92M162.941 101.917c1.669-.128 2.903-1.772 2.757-3.671-.145-1.9-1.616-3.337-3.285-3.208-1.668.128-2.903 1.772-2.757 3.671.146 1.9 1.617 3.336 3.285 3.208ZM175.194 115.091c1.668-.128 2.902-1.772 2.757-3.672-.146-1.899-1.617-3.336-3.286-3.208-1.668.129-2.902 1.772-2.757 3.672.146 1.9 1.617 3.336 3.286 3.208Z" stroke="#E1FCED" stroke-width="1.5" stroke-linecap="round" stroke-linejoin="round"></path><path d="M199.2 65.406c1.54.12 2.79 1.2 3.27 2.67a8.339 8.339 0 0 0 7.28 5.72c3.46.27 6.59-1.62 8.07-4.54.7-1.38 2.1-2.25 3.64-2.14l11.48.88c2.04.16 3.56 1.94 3.41 3.98l-5.82 75.79a3.714 3.714 0 0 1-3.98 3.41l-11.48-.88c-1.54-.12-2.79-1.2-3.27-2.67a8.339 8.339 0 0 0-7.28-5.72 8.321 8.321 0 0 0-8.07 4.54c-.7 1.38-2.1 2.25-3.64 2.14l-11.48-.88a3.714 3.714 0 0 1-3.41-3.98l5.82-75.79a3.714 3.714 0 0 1 3.98-3.41l11.48.88Z" fill="#46DF8E" stroke="#2D965A" stroke-linecap="round" stroke-linejoin="round"></path><path d="m229.35 150.596-15.6-.67-1.45-6.1-6.19-2.27 20.29-73.9 8.72 1.08-4.09 78.27-1.68 3.59Z" fill="#3CD281"></path><path d="M199.2 65.406c1.54.12 2.79 1.2 3.27 2.67a8.339 8.339 0 0 0 7.28 5.72c3.46.27 6.59-1.62 8.07-4.54.7-1.38 2.1-2.25 3.64-2.14l11.48.88c2.04.16 3.56 1.94 3.41 3.98l-5.82 75.79a3.714 3.714 0 0 1-3.98 3.41l-11.48-.88c-1.54-.12-2.79-1.2-3.27-2.67a8.339 8.339 0 0 0-7.28-5.72 8.321 8.321 0 0 0-8.07 4.54c-.7 1.38-2.1 2.25-3.64 2.14l-11.48-.88a3.714 3.714 0 0 1-3.41-3.98l5.82-75.79a3.714 3.714 0 0 1 3.98-3.41l11.48.88Z" stroke="#2D965A" stroke-linecap="round" stroke-linejoin="round"></path><path d="m197 114.475 19.32-18.58M204.734 97.827c.23-1.897-.933-3.599-2.6-3.802-1.667-.203-3.205 1.17-3.436 3.068-.231 1.897.933 3.599 2.6 3.802 1.666.203 3.205-1.17 3.436-3.068ZM214.194 113.216c.231-1.897-.933-3.599-2.6-3.802-1.667-.203-3.205 1.17-3.436 3.067-.231 1.897.933 3.599 2.6 3.802 1.667.203 3.205-1.17 3.436-3.067Z" stroke="#E1FCED" stroke-width="1.5" stroke-linecap="round" stroke-linejoin="round"></path><path d="M244.78 70.805c1.49.42 2.5 1.72 2.69 3.26a8.353 8.353 0 0 0 6.02 7.04c3.34.95 6.78-.29 8.81-2.86.96-1.21 2.5-1.8 3.99-1.38l11.09 3.12c1.97.55 3.11 2.6 2.56 4.57l-20.61 73.16c-.55 1.97-2.6 3.11-4.57 2.56l-11.09-3.12c-1.49-.42-2.5-1.72-2.69-3.26a8.353 8.353 0 0 0-6.02-7.04c-3.34-.95-6.78.29-8.81 2.86-.96 1.21-2.5 1.8-3.99 1.38l-11.09-3.12c-1.97-.55-3.11-2.6-2.56-4.57l20.61-73.16c.55-1.97 2.6-3.11 4.57-2.56l11.09 3.12Z" fill="#46DF8E" stroke="#2D965A" stroke-linecap="round" stroke-linejoin="round"></path><path d="m234.97 119.545 22.09-14.99M245.365 104.508c.546-1.825-.311-3.694-1.914-4.174-1.603-.48-3.346.612-3.892 2.437-.546 1.825.311 3.694 1.914 4.174 1.603.48 3.346-.611 3.892-2.437ZM252.074 121.217c.547-1.825-.31-3.694-1.913-4.174-1.603-.479-3.346.612-3.892 2.437-.546 1.825.31 3.694 1.914 4.174 1.603.48 3.345-.611 3.891-2.437Z" stroke="#E1FCED" stroke-width="1.5" stroke-linecap="round" stroke-linejoin="round"></path><path d="M115.23 160.306c.56-.12.56-.97 0-1.09-3.31-.74-7.29-2.26-10.53-6.33-2.27-2.74-4.31-7.07-4.92-10.08a.52.52 0 0 0-1.03 0c-.77 3.84-2.2 6.68-4.19 9.41-3.11 4.28-7.67 6.2-11.17 6.99-.56.13-.56.97 0 1.09 4.08.91 7.11 2.8 9.37 5.11 2.77 2.68 4.97 6.02 5.98 11.08.12.59.92.59 1.03 0 .77-3.82 2.87-8.84 6.95-12 2.1-1.78 5.12-3.42 8.51-4.18Z" fill="#FFE569" stroke="#D89600" stroke-linecap="round" stroke-linejoin="round"></path><path d="M82.92 159.695s.09-.4 1.24-.73c3.57-1.01 7.33-2.53 10.4-6.75 1.77-2.43 3.44-6 4.34-9.69.06-.26.43-.23.45.04.18 2.68 1.39 8.92-2.66 13.05-5.84 5.96-12.63 4.17-13.77 4.08Z" fill="#FFF1A7"></path><path d="M115.51 160.186c-3.18.77-6.77 2.14-10.84 6.13-2.72 2.77-4.01 6.84-4.85 10.35-.08.33-.54.29-.56-.06-.17-2.91-.44-8.77 2.79-12.66 4.01-4.81 10.45-4.09 13.41-4.11.2 0 .24.3.04.35h.01Z" fill="#F8D034"></path><path d="M115.23 160.306c.56-.12.56-.97 0-1.09-3.31-.74-7.29-2.26-10.53-6.33-2.27-2.74-4.31-7.07-4.92-10.08a.52.52 0 0 0-1.03 0c-.77 3.84-2.2 6.68-4.19 9.41-3.11 4.28-7.67 6.2-11.17 6.99-.56.13-.56.97 0 1.09 4.08.91 7.11 2.8 9.37 5.11 2.77 2.68 4.97 6.02 5.98 11.08.12.59.92.59 1.03 0 .77-3.82 2.87-8.84 6.95-12 2.1-1.78 5.12-3.42 8.51-4.18Z" stroke="#D89600" stroke-linecap="round" stroke-linejoin="round"></path></g><defs><clipPath id="illustrationcurationgetcoupons_clip0_9616_99552"><path fill="#fff" transform="translate(61.43 44.855)" d="M0 0h252.14v150.29H0z"></path></clipPath></defs></svg>