<svg id="그룹_464213" data-name="그룹 464213" xmlns="http://www.w3.org/2000/svg" width="30" height="30" viewBox="0 0 30 30">
  <g id="그룹_461324" data-name="그룹 461324">
    <rect id="사각형_339464" data-name="사각형 339464" width="30" height="30" fill="none"/>
    <g id="그룹_461316" data-name="그룹 461316" transform="translate(2.115 3.21)">
      <g id="그룹_461321" data-name="그룹 461321">
        <g id="패스_841619" data-name="패스 841619" transform="translate(28.034 -11.648)" fill="none" stroke-linecap="round" stroke-linejoin="round">
          <path d="M-16.783,29.156V25.469L-6.557,15.243-3.3,18.5-13.965,29.156Z" stroke="none"/>
          <path d="M -13.96533012390137 29.1562671661377 L -3.304400444030762 18.49531745910645 L -6.55720043182373 15.242506980896 L -16.78320121765137 25.46852684020996 L -16.78320121765137 29.1562671661377 L -13.96533012390137 29.1562671661377 M -13.96533012390137 31.1562671661377 L -16.78320121765137 31.1562671661377 C -17.88776969909668 31.1562671661377 -18.78320121765137 30.26083564758301 -18.78320121765137 29.1562671661377 L -18.78320121765137 25.46852684020996 C -18.78320121765137 24.93809700012207 -18.57249069213867 24.42938613891602 -18.19741058349609 24.05431747436523 L -7.971410274505615 13.82829666137695 C -7.596340179443359 13.45321655273438 -7.087630271911621 13.242506980896 -6.55720043182373 13.242506980896 C -6.02677059173584 13.242506980896 -5.518060207366943 13.45321655273438 -5.142980575561523 13.82829666137695 L -1.890180349349976 17.08110618591309 C -1.109140396118164 17.86215591430664 -1.109140396118164 19.12847709655762 -1.890190362930298 19.90952682495117 L -12.55112075805664 30.57047653198242 C -12.92619037628174 30.945556640625 -13.43490028381348 31.1562671661377 -13.96533012390137 31.1562671661377 Z" stroke="none" fill="#000"/>
        </g>
        <path id="패스_841620" data-name="패스 841620" d="M-11.509,21.5V15.244H-28.5v23.1h16.99V32.233" transform="translate(28.499 -15.244)" fill="none" stroke="#000" stroke-linecap="round" stroke-linejoin="round" stroke-width="2"/>
      </g>
    </g>
  </g>
</svg>
