<svg id="그룹_464215" data-name="그룹 464215" xmlns="http://www.w3.org/2000/svg" width="30" height="30" viewBox="0 0 30 30">
  <g id="그룹_461320" data-name="그룹 461320">
    <rect id="사각형_339464" data-name="사각형 339464" width="30" height="30" fill="none"/>
  </g>
  <g id="그룹_461322" data-name="그룹 461322" transform="translate(1.929 2.786)">
    <g id="그룹_457088" data-name="그룹 457088" transform="translate(0 0)">
      <path id="패스_841375" data-name="패스 841375" d="M9.962,5.051a11.448,11.448,0,0,1,5.776-1.557c9.829,0,11.579,8.607,11.579,11.579a11.579,11.579,0,1,1-22.759-3" transform="translate(-1.175 -2.223)" fill="none" stroke="#000" stroke-miterlimit="10" stroke-width="2"/>
      <path id="패스_841376" data-name="패스 841376" d="M13.4,14.547,2.8,11.7A1.3,1.3,0,0,1,1.921,10,15.369,15.369,0,0,1,7.5,2.741a1.3,1.3,0,0,1,1.865.41l5.49,9.51A1.286,1.286,0,0,1,13.4,14.547Z" transform="translate(-1.84 -2.506)" fill="none" stroke="#000" stroke-miterlimit="10" stroke-width="2"/>
    </g>
  </g>
</svg>
