<svg xmlns="http://www.w3.org/2000/svg" width="32" height="32" viewBox="0 0 32 32">
    <g transform="translate(.441 .323)">
        <rect data-name="사각형 1824" width="32" height="32" rx="6" transform="translate(-.441 -.323)" style="fill:#888"/>
        <path data-name="twitter" d="M24.866 4.391a11.411 11.411 0 0 1-2.933.715 4.714 4.714 0 0 0 2.245-2.513 11.389 11.389 0 0 1-3.246 1.093 5.579 5.579 0 0 0-6.138-.9 4.38 4.38 0 0 0-2.565 5.039A15.142 15.142 0 0 1 1.7 3.091a4.078 4.078 0 0 0-.691 2.284 4.433 4.433 0 0 0 2.271 3.78 5.585 5.585 0 0 1-2.31-.569v.055a4.712 4.712 0 0 0 4.1 4.454 5.817 5.817 0 0 1-2.3.078 5.091 5.091 0 0 0 4.779 3.153 11.085 11.085 0 0 1-6.334 1.944c-.4 0-.809-.021-1.215-.062a15.881 15.881 0 0 0 7.845 2.038c9.4 0 14.531-6.917 14.531-12.9 0-.194 0-.388-.016-.581a9.763 9.763 0 0 0 2.554-2.351z" transform="translate(3.56 4.43)" style="fill:#2d2926"/>
    </g>
</svg>
