<svg xmlns="http://www.w3.org/2000/svg" width="32" height="32" viewBox="0 0 32 32">
    <g transform="translate(-.118 .323)">
        <rect data-name="사각형 1820" width="32" height="32" rx="6" transform="translate(.118 -.323)" style="fill:#888"/>
        <path data-name="instagram" d="M11 0C8.012 0 7.639.014 6.465.066A8.111 8.111 0 0 0 3.8.577a5.387 5.387 0 0 0-1.954 1.269A5.367 5.367 0 0 0 .577 3.8a8.087 8.087 0 0 0-.511 2.67C.011 7.639 0 8.012 0 11s.014 3.361.066 4.535a8.116 8.116 0 0 0 .511 2.67 5.394 5.394 0 0 0 1.269 1.949A5.379 5.379 0 0 0 3.8 21.423a8.121 8.121 0 0 0 2.67.512C7.639 21.989 8.012 22 11 22s3.361-.014 4.535-.066a8.14 8.14 0 0 0 2.67-.511 5.622 5.622 0 0 0 3.217-3.217 8.116 8.116 0 0 0 .512-2.67C21.989 14.361 22 13.988 22 11s-.014-3.361-.066-4.535a8.135 8.135 0 0 0-.512-2.67 5.4 5.4 0 0 0-1.269-1.949A5.36 5.36 0 0 0 18.205.577a8.092 8.092 0 0 0-2.67-.512C14.361.011 13.988 0 11 0zm0 1.98c2.936 0 3.286.015 4.446.065a6.06 6.06 0 0 1 2.041.38 3.62 3.62 0 0 1 2.088 2.087 6.073 6.073 0 0 1 .379 2.041c.052 1.16.064 1.509.064 4.446s-.018 3.287-.068 4.447a6.19 6.19 0 0 1-.386 2.041 3.493 3.493 0 0 1-.824 1.267 3.432 3.432 0 0 1-1.265.821 6.118 6.118 0 0 1-2.049.379c-1.168.052-1.512.064-4.454.064S7.685 20 6.518 19.95a6.237 6.237 0 0 1-2.05-.386A3.406 3.406 0 0 1 3.2 18.74a3.34 3.34 0 0 1-.825-1.265 6.243 6.243 0 0 1-.385-2.049c-.041-1.155-.056-1.512-.056-4.44s.019-3.286.061-4.456a6.236 6.236 0 0 1 .385-2.047 3.261 3.261 0 0 1 .82-1.266 3.254 3.254 0 0 1 1.264-.823A6.088 6.088 0 0 1 6.5 2.008c1.169-.041 1.513-.055 4.454-.055zm0 3.372A5.649 5.649 0 1 0 16.649 11 5.648 5.648 0 0 0 11 5.352zm0 9.315A3.667 3.667 0 1 1 14.667 11 3.666 3.666 0 0 1 11 14.667zm7.192-9.538a1.32 1.32 0 1 1-1.32-1.319 1.321 1.321 0 0 1 1.32 1.319z" transform="translate(5.119 4.676)" style="fill:#2d2926"/>
    </g>
</svg>
