<svg xmlns="http://www.w3.org/2000/svg" width="32" height="32" viewBox="0 0 32 32">
    <g transform="translate(1.22 .323)">
        <rect data-name="사각형 1826" width="32" height="32" rx="6" transform="translate(-1.22 -.323)" style="fill:#888"/>
        <path data-name="youtube" d="M570.371 236.024a31.234 31.234 0 0 1-.5 5.777 3.006 3.006 0 0 1-2.122 2.122c-1.872.5-9.377.5-9.377.5s-7.505 0-9.377-.5a3.005 3.005 0 0 1-2.122-2.122 33.519 33.519 0 0 1 0-11.553 3.006 3.006 0 0 1 2.122-2.122c1.872-.5 9.377-.5 9.377-.5s7.505 0 9.377.5a3.006 3.006 0 0 1 2.122 2.122 31.235 31.235 0 0 1 .5 5.776zm-14.4 3.6 6.235-3.6-6.235-3.6z" transform="translate(-543.591 -219.948)" style="fill:#2d2926"/>
    </g>
</svg>
