<svg xmlns="http://www.w3.org/2000/svg" width="32" height="32" viewBox="0 0 32 32">
    <g data-name="kakao page" transform="translate(-10.897 .323)">
        <rect data-name="사각형 1822" width="32" height="32" rx="6" transform="translate(10.897 -.323)" style="fill:#888"/>
        <path data-name="패스 69901" d="M9.022 0H.978A.912.912 0 0 0 0 .828v6.79a.912.912 0 0 0 .978.827h3.709a4.635 4.635 0 0 1-1 2.466 10.845 10.845 0 0 1-2.031 1.859.432.432 0 0 0-.189.333.441.441 0 0 0 .138.28l2.587 2.469a.656.656 0 0 0 .229.133.473.473 0 0 0 .341-.033A10.552 10.552 0 0 0 10 7.354V.828A.912.912 0 0 0 9.022 0" transform="translate(21.897 7.677)" style="fill:#2d2926"/>
    </g>
</svg>
