<svg xmlns="http://www.w3.org/2000/svg" width="32" height="32" viewBox="0 0 32 32">
    <g data-name="공식 blog" transform="translate(-.338 .323)">
        <rect data-name="사각형 1825" width="32" height="32" rx="6" transform="translate(.338 -.323)" style="fill:#888"/>
        <g data-name="그룹 461331">
            <path data-name="패스 841244" d="M599.715 397.769a.579.579 0 0 0-.428.181.629.629 0 0 0 0 .876.578.578 0 0 0 .428.181.619.619 0 0 0 0-1.238z" transform="translate(-590.04 -383.232)" style="fill:#2d2926"/>
            <path data-name="패스 841245" d="M655.841 397.711a.575.575 0 0 0-.427.181.628.628 0 0 0 0 .876.577.577 0 0 0 .427.181.619.619 0 0 0 0-1.238z" transform="translate(-638.169 -383.183)" style="fill:#2d2926"/>
            <path data-name="패스 841246" d="M693.272 397.769a.58.58 0 0 0-.428.181.63.63 0 0 0 0 .876.579.579 0 0 0 .428.181.619.619 0 0 0 0-1.238z" transform="translate(-670.267 -383.232)" style="fill:#2d2926"/>
            <path data-name="패스 841247" d="M591.367 348.412h-17.55a2.454 2.454 0 0 0-2.447 2.447v9.925a2.454 2.454 0 0 0 2.447 2.447h6.891s1.331 3.633 1.816 3.633 1.925-3.633 1.925-3.633h6.918a2.454 2.454 0 0 0 2.447-2.447v-9.925a2.454 2.454 0 0 0-2.447-2.447zm-13.473 9.163a2.149 2.149 0 0 1-2.654.183h-.017v.279h-1.318v-5.747h1.318v2.2h.017a2.166 2.166 0 0 1 1.388-.426 1.741 1.741 0 0 1 1.272.627 2.3 2.3 0 0 1 .513 1.477 1.887 1.887 0 0 1-.519 1.407zm2.828.505h-1.344v-3.556a.856.856 0 0 0-.649-.929v-1.423a2.265 2.265 0 0 1 1.992 2.4zm5.273-1.09a2.084 2.084 0 0 1-.494.689 2.249 2.249 0 0 1-.736.459 2.435 2.435 0 0 1-.878.16 2.369 2.369 0 0 1-.864-.16 2.307 2.307 0 0 1-.737-.459 2.187 2.187 0 0 1-.5-.7 2.007 2.007 0 0 1 0-1.621 2.193 2.193 0 0 1 .5-.7 2.308 2.308 0 0 1 .737-.46 2.369 2.369 0 0 1 .864-.159 2.434 2.434 0 0 1 .878.159 2.251 2.251 0 0 1 .736.46 2.084 2.084 0 0 1 .494.689 2.071 2.071 0 0 1 0 1.637zm5.284.571a2.618 2.618 0 0 1-.641 2.052 2.288 2.288 0 0 1-1.94.452v-1.043a1.115 1.115 0 0 0 1.272-.994v-.267h-.016a1.491 1.491 0 0 1-1.323.566 1.7 1.7 0 0 1-1.328-.572 2.224 2.224 0 0 1-.477-1.5 2.477 2.477 0 0 1 .531-1.669 1.816 1.816 0 0 1 1.435-.6 1.552 1.552 0 0 1 1.161.415h.016v-.315h1.31z" transform="translate(-566.254 -340.961)" style="fill:#2d2926"/>
        </g>
    </g>
</svg>
