<svg xmlns="http://www.w3.org/2000/svg" width="32" height="32" viewBox="0 0 32 32">
  <g id="그룹_502" data-name="그룹 502" transform="translate(-1536 -6916)">
    <g id="타원_103" data-name="타원 103" transform="translate(1536 6916)" fill="none" stroke="#fff" stroke-width="1" opacity="0.56">
      <circle cx="16" cy="16" r="16" stroke="none"/>
      <circle cx="16" cy="16" r="15.5" fill="none"/>
    </g>
    <path id="패스_2" data-name="패스 2" d="M269.353,337.222A10.077,10.077,0,0,0,279.5,327.076q0-.231-.01-.461a7.258,7.258,0,0,0,1.779-1.846,7.129,7.129,0,0,1-2.048.561,3.579,3.579,0,0,0,1.568-1.973,7.151,7.151,0,0,1-2.264.866,3.569,3.569,0,0,0-6.077,3.252,10.124,10.124,0,0,1-7.351-3.726,3.569,3.569,0,0,0,1.1,4.761,3.538,3.538,0,0,1-1.615-.446c0,.015,0,.03,0,.045a3.568,3.568,0,0,0,2.861,3.5,3.567,3.567,0,0,1-1.61.061,3.57,3.57,0,0,0,3.332,2.477,7.155,7.155,0,0,1-4.429,1.527,7.245,7.245,0,0,1-.851-.05,10.1,10.1,0,0,0,5.466,1.6" transform="translate(1279.613 6601.904)" fill="#fff" opacity="0.56"/>
  </g>
</svg>
