<svg xmlns="http://www.w3.org/2000/svg" width="32" height="32" viewBox="0 0 32 32">
    <g>
        <g opacity="0.56">
            <g fill="none" stroke="#fff" transform="translate(.478 -23.641) translate(-182.956 -1446.719) translate(182.478 1470.359)">
                <circle cx="16" cy="16" r="16" stroke="none"/>
                <circle cx="16" cy="16" r="15.5"/>
            </g>
            <path fill="#fff" d="M-3385.522 5002.359a44.733 44.733 0 0 1-6.245-.358 2.1 2.1 0 0 1-1.418-1.519 23.823 23.823 0 0 1-.336-4.123 24.426 24.426 0 0 1 .328-4.123 2.087 2.087 0 0 1 1.417-1.519 44.936 44.936 0 0 1 6.255-.358 44.744 44.744 0 0 1 6.246.358 2.1 2.1 0 0 1 1.419 1.519 23.819 23.819 0 0 1 .336 4.123 24.431 24.431 0 0 1-.328 4.123 2.086 2.086 0 0 1-1.419 1.519 44.922 44.922 0 0 1-6.255.358zm-1.623-8.369v4.738l4.158-2.369-4.158-2.369z" transform="translate(.478 -23.641) translate(-182.956 -1446.719) translate(3584 -3510)"/>
        </g>
    </g>
</svg>
