<svg height="32" viewBox="0 0 33 32" width="33" xmlns="http://www.w3.org/2000/svg"><path d="m16.226 4.362h.096l.238.002c1.072.006 3.523.03 5.973.124l.611.025c2.237.097 4.377.258 5.358.522 1.377.371 2.461 1.462 2.829 2.849.59 2.213.66 6.544.668 7.544v.132l.001.042v.245c-.01 1-.08 5.33-.669 7.544-.368 1.379-1.452 2.477-2.83 2.848-1.069.289-3.518.453-5.968.548l-.611.022c-2.543.086-4.96.1-5.696.103h-.454c-.736-.002-3.154-.017-5.696-.103l-.611-.022c-2.45-.095-4.9-.26-5.97-.548-1.375-.371-2.46-1.462-2.829-2.848-.605-2.273-.663-6.78-.668-7.618v-.273c.005-.837.063-5.344.668-7.617.368-1.394 1.454-2.478 2.83-2.849 2.138-.577 9.797-.66 11.941-.671l.239-.001h.096zm-3.5 6.517v9.515l8.364-4.757z" fill="#222321" transform="translate(.182)"/></svg>