<?xml version="1.0" encoding="utf-8"?>
<!-- Generator: Adobe Illustrator 24.0.0, SVG Export Plug-In . SVG Version: 6.00 Build 0)  -->
<svg version="1.1" id="Calque_1" xmlns="http://www.w3.org/2000/svg" xmlns:xlink="http://www.w3.org/1999/xlink" x="0px" y="0px"
	 viewBox="0 0 140 160" style="enable-background:new 0 0 140 160;" xml:space="preserve">
<style type="text/css">
	.st0{fill:#997341;}
	.st1{fill-rule:evenodd;clip-rule:evenodd;fill:#997341;}
</style>
<g>
	<path class="st0" d="M118.5,25.4H79.1c-4.8,0-8.9,5.4-8.9,8.9V61c0,4.3,5,9.3,8.2,9.3h4v8.1L98,70.3h21.6c2.8,0,8.1-5.1,8.1-9.5
		V33.6C127.6,29.8,122.7,25.4,118.5,25.4z M127,60.7c0,4.3-5.2,8.9-7.5,8.9H97.8L83,77.3v-7.7h-4.6c-2.9,0-7.6-4.7-7.6-8.7V34.2
		c0-3.1,3.9-8.2,8.3-8.2h39.4c3.8,0,8.4,4.2,8.4,7.6L127,60.7L127,60.7z"/>
</g>
<path class="st1" d="M94.6,41.1h2.8v5.7l-5-6.6h-2.1l5,6.7l-5.1,8.4h2.5l4.7-7.8v7.8h0.9V40.2h-3.7C94.6,40.2,94.6,41.1,94.6,41.1z
	 M102.5,46.8l5.1-6.7h-2.1l-5.1,6.6V41h2.8v-0.9h-3.7v15.1h0.9v-7.8l4.7,7.8h2.5L102.5,46.8z"/>
<g>
	<path class="st0" d="M83.2,135.6H18.7v-0.3c0-22.3,13-37.2,32.2-37.2c19.3,0,32.2,15,32.2,37.2V135.6z M19.3,135h63.2
		c-0.1-21.7-12.8-36.3-31.6-36.3C32.1,98.7,19.4,113.3,19.3,135z"/>
</g>
<g>
	<path class="st0" d="M50.9,92.1c-8,0-14.5-6.5-14.5-14.5c0-8,6.5-14.5,14.5-14.5s14.5,6.5,14.5,14.5C65.4,85.7,58.9,92.1,50.9,92.1
		z M50.9,63.8c-7.6,0-13.8,6.2-13.8,13.8c0,7.6,6.2,13.8,13.8,13.8s13.8-6.2,13.8-13.8C64.8,70.1,58.6,63.8,50.9,63.8z"/>
</g>
</svg>
