<svg xmlns="http://www.w3.org/2000/svg" xmlns:xlink="http://www.w3.org/1999/xlink" width="232" height="66" viewBox="0 0 232 66">
    <defs>
        <path id="usqcsmamqa" d="M0 0L232.031 0 232.031 66 0 66z"/>
    </defs>
    <g fill="none" fill-rule="evenodd">
        <g>
            <path fill="#FFF" d="M168.192 31.266c-1.673 0-2.48 1.417-2.688 2.708h5.1c-.014-.463-.127-1.427-.77-2.082-.41-.416-.961-.626-1.642-.626"/>
            <g>
                <mask id="po60oopt6b" fill="#fff">
                    <use xlink:href="#usqcsmamqa"/>
                </mask>
                <path fill="#FFF" d="M172.71 35.556l-.03.142-7.218-.021c.138 2.92 2.378 3.242 3.35 3.242 1.383 0 2.193-.253 2.802-.501l.186-.075.43 1.667-.134.06c-.686.309-1.857.679-3.541.679-3.202 0-5.27-2.12-5.27-5.4 0-3.406 2.079-5.784 5.056-5.784 3.274 0 4.436 2.724 4.436 5.057 0 .4-.022.706-.067.934zm-10.236-3.841c-1.177 0-2.101.885-2.353 2.254-.04.263-.062.556-.062.866v5.7h-2.237l.02-7.306c0-1.341-.023-2.335-.083-3.22l-.013-.188h2.007l.066 1.565c.584-1.111 1.634-1.8 2.804-1.8.198 0 .359.02.556.07l.134.034v2.087l-.24-.025c-.19-.018-.37-.037-.6-.037zm-11.325 9.055h-.02c-3.03 0-5.143-2.264-5.143-5.506 0-3.343 2.185-5.678 5.314-5.678 1.507 0 2.8.529 3.739 1.53.932.996 1.424 2.363 1.424 3.955 0 3.916-2.754 5.699-5.314 5.699zm-5.391-9.162h-2.698v5.41c0 1.288.37 1.836 1.237 1.836.467 0 .757-.033 1.039-.12l.215-.066.108 1.79-.126.046c-.282.099-.883.266-1.728.266-.896 0-1.664-.301-2.164-.85-.521-.585-.774-1.513-.774-2.836v-5.476h-1.606V29.82h1.606v-1.858l2.193-.688v2.546h2.698v1.787zm-11.93 9.162c-1.346 0-2.935-.408-3.78-.971l-.11-.074.6-1.91.194.125c.908.582 2.082.914 3.224.914 1.753 0 2.842-.875 2.842-2.284 0-1.246-.706-1.973-2.604-2.682-2.678-.974-3.925-2.332-3.925-4.276 0-2.41 1.992-4.093 4.844-4.093 1.814 0 2.882.51 3.256.73l.125.074-.631 1.865-.19-.116c-.25-.155-1.176-.66-2.625-.66-1.756 0-2.542.998-2.542 1.987 0 1.175.669 1.81 2.756 2.618 2.68 1.058 3.772 2.334 3.772 4.403 0 2.007-1.363 4.35-5.206 4.35zm-9.902-1.441c-.88.93-2.083 1.44-3.39 1.44-1.255 0-2.363-.482-3.056-1.312v5.316h-2.236V33.38c0-1.448-.026-2.455-.087-3.371l-.011-.19h2.044l.09 1.472c.813-1.118 2.033-1.706 3.555-1.706 1.288 0 2.454.538 3.287 1.514.85.999 1.299 2.357 1.299 3.928 0 1.778-.517 3.266-1.495 4.3zm-11.517 0c-.877.93-2.081 1.44-3.388 1.44-1.256 0-2.364-.482-3.058-1.312v5.316h-2.235V33.38c0-1.448-.026-2.456-.086-3.371l-.012-.19h2.045l.089 1.472c.813-1.118 2.032-1.706 3.556-1.706 1.286 0 2.453.538 3.286 1.514.85.999 1.299 2.357 1.299 3.928 0 1.778-.516 3.266-1.496 4.3zm-11.95 1.206l-1.542-4.538h-4.862l-1.5 4.538h-2.3l5.023-14.781h2.5l5.043 14.78h-2.362zm-17.791 1.82c-1.253 1.909-3.02 4.285-5.21 4.305-1.944.018-2.444-1.266-5.084-1.252-2.64.015-3.191 1.274-5.137 1.257-2.19-.021-3.863-2.167-5.117-4.075-3.506-5.336-3.872-11.598-1.71-14.928 1.536-2.366 3.96-3.751 6.239-3.751 2.32 0 3.779 1.273 5.698 1.273 1.86 0 2.995-1.274 5.677-1.274 2.028 0 4.176 1.103 5.707 3.013-5.016 2.748-4.201 9.913.867 11.828-.697 1.547-1.032 2.237-1.93 3.604zm-9.775-22.958c1.088-1.32 2.95-2.333 4.543-2.443.268 1.806-.473 3.573-1.447 4.824-1.044 1.34-2.842 2.378-4.58 2.324-.317-1.728.497-3.506 1.484-4.705zM202.33 65.91c.394-.03.786-.06 1.175-.101.217-.023.43-.054.646-.082.354-.045.708-.092 1.058-.15.223-.036.443-.078.664-.118.34-.063.68-.13 1.019-.204.216-.047.432-.097.647-.15.34-.081.68-.17 1.019-.262.203-.057.405-.113.607-.173.35-.104.699-.217 1.044-.333.182-.06.363-.12.542-.183.237-.084.468-.177.702-.266.454-.174.904-.358 1.348-.552l.06-.027c.205-.088.41-.177.612-.271.503-.233.998-.48 1.486-.738l.005-.003c.146-.077.296-.151.44-.231.555-.304 1.098-.628 1.632-.964.223-.14.442-.288.66-.433.36-.24.715-.485 1.065-.738.255-.185.512-.368.762-.56.099-.076.196-.153.293-.231.27-.212.534-.432.796-.653.638-.537 1.255-1.096 1.849-1.68.155-.153.305-.31.457-.465.599-.614 1.184-1.243 1.732-1.903v-.001l.003-.001.16-.2c.114-.14.219-.29.33-.432.37-.466.722-.946 1.066-1.433.234-.334.465-.671.69-1.012.242-.366.476-.737.7-1.116.277-.47.542-.948.796-1.433l.003-.006c.378-.723.733-1.46 1.056-2.213.819-1.911 1.456-3.918 1.893-5.998l.017-.075c.098-.473.182-.95.26-1.431.008-.055.02-.11.029-.166.069-.447.124-.898.174-1.35.01-.091.025-.18.034-.271.046-.441.077-.887.103-1.333.007-.103.018-.204.024-.308.028-.55.042-1.103.042-1.66v-2c0-.552-.013-1.101-.041-1.646-.032-.625-.087-1.243-.154-1.858-.281-2.582-.866-5.072-1.724-7.432-.257-.708-.546-1.401-.851-2.084-.276-.62-.578-1.224-.891-1.822-.141-.27-.28-.54-.428-.805l-.014-.024c-.233-.414-.473-.823-.724-1.226l-.06-.093c-.237-.378-.481-.752-.733-1.12-.047-.068-.097-.134-.145-.203-.23-.33-.462-.655-.704-.975-.09-.12-.185-.235-.277-.352-.2-.257-.4-.514-.606-.764-.64-.772-1.312-1.515-2.02-2.223l-.001-.001c-.655-.654-1.344-1.272-2.054-1.867-.134-.112-.263-.23-.398-.34l-.096-.074c-.382-.308-.772-.607-1.17-.897-.474-.347-.957-.684-1.451-1.007-.142-.092-.285-.184-.428-.274-1.162-.732-2.372-1.39-3.628-1.97l-.235-.107-.235-.106c-.527-.233-1.063-.448-1.604-.655-.461-.174-.925-.341-1.395-.495-.368-.12-.738-.232-1.112-.338-.371-.106-.744-.207-1.12-.302-.413-.105-.83-.203-1.25-.29-.133-.026-.268-.045-.401-.071-.45-.086-.903-.164-1.36-.233-.468-.071-.94-.132-1.416-.18-.164-.017-.33-.024-.494-.038-.45-.038-.901-.07-1.355-.092-.473-.02-.947-.036-1.425-.036H32c-.27 0-.536.014-.804.02-.281.008-.565.008-.844.022-.2.01-.396.032-.595.045-.344.024-.69.044-1.03.079-.125.013-.248.033-.372.047-.412.047-.823.094-1.23.156-.185.029-.366.067-.55.099-.343.058-.686.113-1.025.183-.143.029-.282.067-.423.097-.377.083-.754.165-1.125.26-.033.009-.064.019-.097.027-2.01.524-3.943 1.237-5.778 2.12-.208.1-.41.21-.614.316-.717.364-1.422.747-2.106 1.162-.196.119-.385.248-.578.37-.274.175-.548.348-.816.53-.615.419-1.212.865-1.796 1.325-.995.785-1.95 1.62-2.844 2.515C3.582 15.163 0 23.163 0 32v2c0 17.674 14.327 32 32 32h168.03c.589 0 1.172-.018 1.75-.05.186-.01.367-.028.55-.04z" mask="url(#po60oopt6b)"/>
            </g>
            <path fill="#FFF" d="M151.235 31.351c-2.066 0-2.991 1.933-2.991 3.85 0 2.203 1.23 3.803 2.927 3.803h.022c1.72 0 2.97-1.627 2.97-3.868 0-1.824-.916-3.785-2.928-3.785M120.279 31.437c-1.255 0-2.363.893-2.695 2.172l-.033.18c-.035.192-.071.39-.071.553v1.799c0 .283.027.535.079.724.3 1.224 1.384 2.075 2.634 2.075 1.832 0 2.97-1.466 2.97-3.827 0-1.829-.892-3.676-2.884-3.676M108.762 31.437c-1.255 0-2.362.893-2.696 2.172-.009.059-.02.121-.032.182-.034.191-.071.389-.071.551v1.799c0 .283.028.535.08.724.302 1.224 1.384 2.075 2.634 2.075 1.832 0 2.971-1.466 2.971-3.827 0-1.829-.892-3.676-2.886-3.676M96.469 28.184c-.18.73-.373 1.42-.576 2.06l-1.335 3.944h3.852l-1.353-3.919c-.235-.74-.419-1.425-.588-2.085"/>
        </g>
    </g>
</svg>
