<?xml version="1.0" encoding="utf-8"?>
<!-- Generator: Adobe Illustrator 24.0.0, SVG Export Plug-In . SVG Version: 6.00 Build 0)  -->
<svg version="1.1" id="Calque_1" xmlns="http://www.w3.org/2000/svg" xmlns:xlink="http://www.w3.org/1999/xlink" x="0px" y="0px"
	 viewBox="0 0 140 160" style="enable-background:new 0 0 140 160;" xml:space="preserve">
<style type="text/css">
	.st0{fill:#997341;}
	.st1{filter:url(#Adobe_OpacityMaskFilter);}
	.st2{fill-rule:evenodd;clip-rule:evenodd;fill:#FFFFFF;}
	.st3{mask:url(#prefix__b_2_);fill-rule:evenodd;clip-rule:evenodd;fill:#997341;}
	.st4{filter:url(#Adobe_OpacityMaskFilter_1_);}
	.st5{mask:url(#prefix__b_8_);fill-rule:evenodd;clip-rule:evenodd;fill:#FEFEFE;}
	.st6{filter:url(#Adobe_OpacityMaskFilter_2_);}
	.st7{mask:url(#prefix__b_7_);fill-rule:evenodd;clip-rule:evenodd;fill:#D9CEBF;}
	.st8{filter:url(#Adobe_OpacityMaskFilter_3_);}
	.st9{mask:url(#prefix__b_6_);fill-rule:evenodd;clip-rule:evenodd;fill:#997341;}
	.st10{filter:url(#Adobe_OpacityMaskFilter_4_);}
	.st11{mask:url(#prefix__b_5_);fill-rule:evenodd;clip-rule:evenodd;fill:#FFFFFF;}
	.st12{filter:url(#Adobe_OpacityMaskFilter_5_);}
	.st13{mask:url(#prefix__d_8_);fill-rule:evenodd;clip-rule:evenodd;fill:#997341;}
	.st14{filter:url(#Adobe_OpacityMaskFilter_6_);}
	.st15{mask:url(#prefix__d_7_);fill-rule:evenodd;clip-rule:evenodd;fill:#997341;}
	.st16{filter:url(#Adobe_OpacityMaskFilter_7_);}
	.st17{mask:url(#prefix__d_6_);fill-rule:evenodd;clip-rule:evenodd;fill:#FFFFFF;}
	.st18{filter:url(#Adobe_OpacityMaskFilter_8_);}
	.st19{mask:url(#prefix__d_5_);fill-rule:evenodd;clip-rule:evenodd;fill:#997341;}
	.st20{filter:url(#Adobe_OpacityMaskFilter_9_);}
	.st21{mask:url(#prefix__f_4_);fill-rule:evenodd;clip-rule:evenodd;fill:#997341;}
	.st22{filter:url(#Adobe_OpacityMaskFilter_10_);}
	.st23{mask:url(#prefix__f_3_);fill:none;}
	.st24{fill-rule:evenodd;clip-rule:evenodd;fill:#997341;}
	.st25{filter:url(#Adobe_OpacityMaskFilter_11_);}
	.st26{mask:url(#prefix__b_3_);fill-rule:evenodd;clip-rule:evenodd;fill:#997341;}
	.st27{filter:url(#Adobe_OpacityMaskFilter_12_);}
	.st28{mask:url(#prefix__b_1_);}
	.st29{filter:url(#Adobe_OpacityMaskFilter_13_);}
	.st30{mask:url(#prefix__b_4_);fill-rule:evenodd;clip-rule:evenodd;fill:#997341;}
	.st31{filter:url(#Adobe_OpacityMaskFilter_14_);}
	.st32{mask:url(#prefix__d_2_);fill-rule:evenodd;clip-rule:evenodd;fill:#997341;}
	.st33{filter:url(#Adobe_OpacityMaskFilter_15_);}
	.st34{mask:url(#prefix__f_2_);fill-rule:evenodd;clip-rule:evenodd;fill:#997341;}
</style>
<g>
	<g>
		<path class="st24" d="M90.1,62.4l12.2,15.1l29.3,36.3c0,0,0,0,0,0V46.2c0-0.7-0.4-1.2-0.8-1.2H49.3c-0.4,0-0.8,0.6-0.8,1.2v66.7
			l29-35.2C77.5,77.7,90.1,62.4,90.1,62.4z M48.5,113.8c0,0.7,0.3,1.2,0.8,1.2h81.5c0.3,0,0.5-0.2,0.6-0.6L90.1,63.2l-41.6,50.5
			V113.8L48.5,113.8z M49.2,115.5c-0.7,0-1.2-0.8-1.2-1.7V46.2c0-0.9,0.5-1.7,1.2-1.7h81.5c0.7,0,1.2,0.7,1.2,1.7v67.6
			c0,0.9-0.6,1.7-1.2,1.7L49.2,115.5L49.2,115.5z"/>
		<path class="st2" d="M49,45.5l41.2,46L132,46.4L49,45.5z"/>
		<path class="st24" d="M8,71.6h32.7v-0.5H8V71.6z M15,77.7h25.7v-0.5H15V77.7z M25.1,83h15.6v-0.5H25.1V83z M18.1,88.2h22.7v-0.5
			H18.1V88.2z M89.9,90.5L48.6,44.8l0.3-0.3l41,45.3l41.7-44.9l0.3,0.3L89.9,90.5z"/>
	</g>
	<path class="st24" d="M86.8,66.3h2.4l0,4.9l-4.3-5.7H83l4.3,5.8L83,78.5h2.1l4.1-6.7v6.7H90l0-13h-3.2V66.3z M93.6,71.2l4.4-5.7
		h-1.8l-4.4,5.7l0-4.9h2.4v-0.8l-3.2,0l0,13h0.8l0-6.7l4,6.7H98L93.6,71.2z"/>
</g>
</svg>
