<?xml version="1.0" encoding="utf-8"?>
<!-- Generator: Adobe Illustrator 24.0.0, SVG Export Plug-In . SVG Version: 6.00 Build 0)  -->
<svg version="1.1" id="Calque_1" xmlns="http://www.w3.org/2000/svg" xmlns:xlink="http://www.w3.org/1999/xlink" x="0px" y="0px"
	 viewBox="0 0 140 160" style="enable-background:new 0 0 140 160;" xml:space="preserve">
<style type="text/css">
	.st0{fill-rule:evenodd;clip-rule:evenodd;fill:#997341;}
</style>
<g>
	<g>
		<path class="st0" d="M83.5,79.7v0.2c0.1,0.3,0.2,0.8,0.3,1.3c0.2,0.8,0.4,1.8,0.5,2c0.3,1,0.8,2.8,0.8,2.9c0,0,0.5,1.5,0.7,2.3
			c0.1,0.3,0.1,0.4,0.1,0.5l1.2,4.2c0.3-1.1,0.8-2.8,1-3.7c0,0,0.3-1.4,0.4-1.9c0,0,0.2-1,0.4-2.1l0.4-2c0.1-0.4,0.6-3.7,0.9-4.3
			l0.4-2.5L91,74c0.2-1.3,0.6-4.2,0.6-4.2c0-0.2,0.1-2.5,0.2-4c0-0.3,0.3-7.5,0.3-7.6l0.2-9.2l0.2-12.2H82c-0.1,0-0.1,0-0.1,0v0.1
			V56c0,0.9,0.1,3.5,0.1,3.8l0.2,5.8c0,0,0.2,4.1,0.2,4.7c0.1,0.3,0.4,4.8,0.5,5.5C83.1,77.2,83.5,79.4,83.5,79.7L83.5,79.7
			L83.5,79.7C83.5,79.5,83.5,79.7,83.5,79.7z M87.3,93.7c0.3,0.8,0.6,2.1,0.6,2.2V96l0.1-0.8c0-0.3,0.4-3.8,0.4-4.2
			c0-0.2,0.3-2.4,0.5-3.9c0,0.2-0.1,0.3-0.1,0.3c-0.1,0.5-0.4,1.9-0.4,1.9C88.3,90.5,87.5,92.9,87.3,93.7z M103,96.8l-0.9,0.1
			c-0.3,0-0.9,0.2-1,0.2s-0.2,0.1-0.4,0.1c0.2,0,0.4,0,0.6-0.1c0.1,0,0.2,0,0.3-0.1c0.1,0,1.5-0.2,2.2-0.2l1.9-0.1c0,0,0,0,0.1,0
			h-0.2C104.9,96.7,103.1,96.8,103,96.8z M86.1,97.2c0.2,0,0.4,0.1,0.5,0.2v0.1c0,0,0.1,0.1,0.2,0.2c0.5,0.3,0.8,0.4,0.9,0.4
			c0-0.4,0-1.3-0.2-2c0,0-0.3-1.4-0.6-2.2v-0.1l0,0l-0.1-0.2l-1.3-4.7c0-0.1-0.1-0.2-0.1-0.4c-0.2-0.8-0.7-2.2-0.7-2.3
			c-0.1-0.2-0.6-2-0.8-2.8c0.1,0.6,0.2,1.4,0.2,1.9c0,0.3,0.1,0.6,0.1,0.8c0,0.4,0.3,2.7,0.3,2.7c0.1,0.7,0.2,2.1,0.2,2.1
			c0.1,0.8,0.3,2.3,0.3,2.3c0.2,1.2,0.3,1.6,0.3,1.6c0.1,0.6,0.4,1.4,0.4,1.4C85.9,96.9,86,97.1,86.1,97.2
			C86,97.1,86,97.2,86.1,97.2L86.1,97.2z M85.6,98C85.6,98.1,85.5,98.1,85.6,98c-0.1,0.2-0.1,0.2-0.1,0.2l0.1,0.3c0-0.1,0-0.2,0-0.2
			C85.7,98.3,85.7,98.1,85.6,98L85.6,98z M90.1,99.8L90.1,99.8l0.2-0.1L90.1,99.8C90.2,99.8,90.2,99.8,90.1,99.8z M84.4,100.1
			c0.3,0.2,0.7,0.4,0.8,0.5l0.6,0.4c-0.1-0.3-0.1-0.7-0.1-0.9l0,0c-0.2,0-0.5,0-0.8,0v-0.4c0.2,0,0.5,0,0.7,0
			c-0.2-0.4-0.4-1.1-0.4-1.2v-0.1c-0.1-0.1-0.3-0.3-0.7-0.6c-0.3-0.2-0.6,0.1-0.6,0.1L82.4,99c-0.2,0-0.3,0-0.4,0.1
			c0.2,0.1,0.5,0.2,0.8,0.3c0.1,0,0.6,0,1.3,0.3c0.2,0,0.4-0.1,0.6-0.1v0.4C84.6,100,84.5,100.1,84.4,100.1L84.4,100.1z M84.2,102.7
			c-0.2,0-0.4,0.1-0.5,0.2C83.8,102.8,84,102.7,84.2,102.7z M87,103.2c0.1,0.1,0.3,0.5,0.9,0.2c0.1-0.1,0.7-0.5,1.1-0.5
			c0,0,0.1-0.1,0.1-0.3l0.6-2.8c0-0.1,0-0.1,0-0.2c0,0-0.1-0.1-0.3-0.1h-0.1c0,0-0.2-0.1-0.4-0.2c0,0-0.3-0.3-0.8-0.4l0,0l-0.4,0.2
			c-0.1-0.1-0.1-0.2-0.1-0.3l0,0v-0.1c0-0.1,0-0.2,0.1-0.2c0,0,0,0,0-0.1c-0.2,0-0.7,0-1.3-0.5c-0.1-0.1-0.2-0.2-0.2-0.3
			c0,0-0.1-0.1-0.2-0.1c0,0.2,0.1,0.5,0.1,0.8c0,0-0.1,0.9,0,1.3c0,0.1,0,0.2,0,0.3c0,0.4,0.1,0.8,0.1,0.9c0.1,0.2,0.2,0.4,0.2,0.4
			l0,0l0,0c0,0,0,0.1,0,0.3l0,0c0.2,0.6,0.2,0.9,0.2,1l0,0v-0.1l0.1,0.2C87,103,87,103,87,103V103.2L87,103.2L87,103.2z M97.5,105.1
			L97.5,105.1c0.4,0.2,0.7,0.3,1,0.5l1.6,0.9c1.8,0.8,4.3,1.4,4.9,1.5c-0.6-0.2-1.2-0.4-1.7-0.7c-0.9-0.4-1.8-0.9-1.8-0.9
			c-0.7-0.4-2.3-1.3-2.3-1.4c-1-0.6-5.1-2.1-5.1-2.2l0,0c-0.5-0.1-1-0.1-1-0.2c-0.1,0-0.2-0.1-0.4-0.1c0.3,0.2,0.6,0.4,0.6,0.4
			l0.9,0.6c0.5,0.3,1.1,0.6,1.1,0.6l0.8,0.4L97.5,105.1L97.5,105.1L97.5,105.1z M87.1,103.8c0.3,1.4,1,2.1,1,2.1
			c0.7,0.7,1.4,1.4,1.9,2.1c-0.7-1.4-1.5-2.9-2.1-4.2C87.6,103.9,87.3,103.9,87.1,103.8z M95.3,102.9c1.3,0.5,3.4,1.4,4.1,1.8
			c0,0,1.7,1,2.3,1.4c0,0,0.8,0.5,1.8,0.9c0.6,0.2,1.2,0.5,1.8,0.7l0.2,0.1c0.7,0.3,1.2,0.4,1.6,0.4l0.2-0.8c0-0.1,0.1-0.4,0.1-0.8
			c0.1-0.4,0.1-0.9,0.2-1v-0.1c0.1-0.3,0.1-0.8,0.1-1v-0.1c0-0.4,0.1-1.8,0.1-1.8c0-0.2,0.2-2.7,0.2-2.7c0.1-0.6,0.2-2.2,0.2-2.8
			c-0.6,0-1.9,0-2.5,0.1l-1.9,0.1c-0.7,0-2.1,0.2-2.1,0.2c-0.1,0-0.2,0-0.3,0.1c-0.3,0-0.4,0.1-0.9,0.1c-0.6,0-1.6,0.1-1.7,0.1
			c-0.6,0.2-1.3,0.3-1.3,0.3c-0.6,0.1-1.7,0.3-1.7,0.3c-0.7,0.1-2,0.5-2,0.5c-0.6,0.2-1.3,0.4-1.3,0.4l-0.2,0.1h0.3l-1.2,0.3
			c-0.1,0-0.4,0.1-0.7,0.3c0.5,0.1,1.2,0.2,2-0.1c0.6-0.3,2.6-1.1,3-1.1l0,0v0.4c-0.2,0-1.6,0.6-2.8,1.1c-0.7,0.2-1.4,0.3-1.9,0.2
			c0.2,0.2,0.5,0.4,1,0.4v0.4c-0.5,0-1-0.2-1.3-0.5c-0.1-0.1-0.3-0.3-0.3-0.3c-0.1-0.1-0.2-0.2-0.3-0.2l0,0v0.2l1.4,1.1l0.1,0.1
			c0.1,0.1,0.9,0.4,1.7,0.5c0.4,0.1,1.4,0.2,1.8,0.2c0,0,1.2-0.1,1.7-0.2c0,0,0.6-0.1,1.2-0.1l0,0h0.2c0,0,0,0,0.1,0l0,0
			c0.1,0,0.2,0,0.4,0c1,0,2.8,0.1,3.6,0.3c0,0,1.6,0.2,2.4,0.8l-0.2,0.4c-0.8-0.5-2.3-0.7-2.3-0.7c-0.8-0.2-2.7-0.3-3.6-0.3h-0.2
			l0,0h-0.2H98h-0.1c-0.5,0-1.2,0.1-1.2,0.1C96.4,102.8,95.7,102.9,95.3,102.9L95.3,102.9z M107.7,107.3l2.9,0.6l0,0
			c0.3,0.3,1.5,1.7,1.5,1.8l0,0V37l-19.4,0v0.1L92.6,49l-0.2,9.2c0,0.3-0.3,7.3-0.3,7.6c0,0.6-0.2,3.8-0.2,4c0,0-0.4,2.9-0.6,4.2
			l-0.4,2.6l-0.5,3c-0.4,2.4-0.9,6.1-0.9,6.3c0,0.1-0.6,4.8-0.6,5.1c-0.2,1.6-0.4,3.9-0.4,4.2l-0.4,2.9c0.1,0.1,0.1,0.2,0.1,0.3
			c0.7,0.1,1.1,0.5,1.1,0.6c0.1,0.1,0.2,0.1,0.2,0.2c0.3,0,0.5,0.1,0.6,0.2c0.2,0,0.8,0.1,1.2,0.1l1.1-0.4c0,0,0.7-0.3,1.3-0.5
			c0.1,0,1.3-0.4,2.1-0.5c0,0,1.1-0.2,1.7-0.3c0,0,0.8-0.2,1.4-0.3c0,0,1.9-0.5,2.2-0.6c0,0,0.7-0.2,1-0.3c0.7-0.1,0.9-0.1,0.9-0.1
			l0,0c0.1,0,1.9-0.1,2.7,0c0.2,0,2.4,0.2,2.9,0.4l0.1,0.1v0.1c0,0.1-0.2,2.3-0.3,3c0,0-0.2,2.5-0.2,2.7c0,0-0.1,1.4-0.1,1.8
			c0,0.3-0.1,0.9-0.1,1.2v0.1c0,0.1-0.1,0.6-0.1,1L107.7,107.3L107.7,107.3z M69.9,105.8l1.1,4.8c0,0.1,0.1,0.2,0.1,0.3l0,0
			c0,0,0.4-0.3,0.9-0.4c0.3-0.1,1.3-0.4,1.6-0.8c0,0,0.5-0.6,0.8-1.3c0.2-0.4,0.8-1.5,1.1-1.7c0,0,0.9-0.8,1.6-1
			c0,0,1.4-0.8,2.4-1.1c0,0,1.4-0.5,2.2-0.9v-0.1c0.2-0.1,0.4-0.2,0.5-0.3c0.2-0.2,0.3-0.3,0.3-0.3c0-0.1,0.1-0.1,0.1-0.2
			c0.1-0.1,0.2-0.2,0.3-0.3c0.3-0.2,0.6-0.3,0.6-0.3c0.3,0,0.5-0.1,0.7,0l0,0l0,0c0.3,0,0.6,0.1,0.6,0.2c0.2,0,0.4,0,0.5,0.1
			c0,0,0.1,0,0.1,0.1c0.1,0,0.2,0,0.2,0c0.1-0.1,0.3-0.1,0.4-0.1h0.1c0-0.2-0.1-0.4-0.2-0.6c0,0-0.2-0.3-0.4-0.4l-0.7-0.5
			c-0.2-0.2-1-0.6-1.5-0.8c-0.8-0.4-2-0.7-2-0.7c-0.7-0.1-1.8-0.2-1.8-0.2c-1.2-0.1-4.2,0-4.2,0c-1.3,0-3.6,0.3-3.6,0.4
			c-1.1,0.3-2.2,0.7-2.2,0.8c-0.9,0.4-0.7,1.1-0.7,1.2L69.9,105.8L69.9,105.8z M71.5,111.2c0.2,0,0.4,0,0.4,0
			c0.9-0.2,2.8-0.9,2.8-0.9c1.3-0.6,5.1-2.6,5.2-2.7l2.3-1.5c0.6-0.4,1.7-1.4,1.7-1.4c0.4-0.3,0.9-1.1,0.9-1.1
			c0.1-0.2,0.2-0.3,0.3-0.5c-0.2,0.2-0.7,0.5-1.1,0.8l-0.2-0.4c0.3-0.2,0.7-0.5,1-0.7h-0.1c-0.1,0-1.2,0.6-1.6,0.7l0,0
			c-0.3,0.2-0.6,0.4-0.7,0.4c-0.5,0.2-2.6,1.1-2.7,1.1c-0.9,0.3-2.3,1.1-2.3,1.1c-0.7,0.2-1.5,0.9-1.5,0.9c-0.2,0.1-0.7,0.9-1,1.5
			c-0.3,0.8-0.9,1.4-0.9,1.4c-0.4,0.5-1.7,0.9-1.9,0.9C71.8,111,71.6,111.1,71.5,111.2L71.5,111.2z M89.3,103.1
			c0.4,0.4,1.3,1.1,1.5,1.5c0.1,0.1,1,1.3,1.2,1.6l1.4,1.9c0,0,1.6,1.7,2.5,2.4l1.5,1.1c0,0,1.8,1.3,2.5,1.6c0.1,0,3.1,1.7,3.9,2
			c0.2,0.1,4.6,2.3,5,2.6c1.1,0.6,4.4,2.6,5.3,3.4c0.2-0.4,0.6-1.2,0.5-2.6c0,0,0-0.9-0.1-1.6c0,0-0.1-0.8-0.3-1.7
			c-0.1-0.6-0.3-1.1-0.4-1.4c0,0-0.4-1.1-0.9-2.1c-0.3-0.6-0.6-1.1-1.1-1.8c0,0-1.1-1.3-1.4-1.7l-2.8-0.6l-0.2,0.9h-0.2
			c0,0-0.6,0.1-2.2-0.2c0,0-3-0.6-5.2-1.6l-1.6-0.9c-0.2-0.1-0.6-0.3-0.8-0.4c-0.2-0.1-0.4-0.2-0.5-0.2L96,105l-0.9-0.4
			c0,0-0.6-0.3-1.1-0.7l-0.9-0.6c-0.1,0-1.6-1.1-2-1.3l-1.1-0.9l0.7,0.9c0.2,0.3,0.5,0.6,0.5,0.7c0,0,0.3,0.3,0.7,0.8
			c1.5,1.8,1.6,2.2,1.6,2.2l-0.4,0.1c0-0.1-0.2-0.4-1.5-2.1c-0.4-0.5-0.7-0.8-0.7-0.8c-0.1-0.1-0.3-0.4-0.5-0.7
			c-0.2-0.3-0.4-0.6-0.6-0.8l-0.3,1.2C89.5,102.9,89.4,103.1,89.3,103.1L89.3,103.1z M69.6,106.5c-0.8,1.7-3.4,7.1-3.8,7.7
			c-0.6,1.2-3.2,6.7-4.2,8.3c1.1,0,4.1-0.1,5.5-0.4l0.7-0.2c4.5-1.1,6-1.5,6.5-1.6l2.7-6.1l2.6-6c-1.1,0.6-3.7,2-4.8,2.4
			c-0.1,0-2,0.7-2.8,0.9c0,0-0.5,0.2-0.9,0c-0.3-0.2-0.4-0.4-0.5-0.8L69.6,106.5z M25.3,123.1h57c-0.5-8.5,1.4-15.6,2.4-18.6
			c-0.2,0.2-0.3,0.4-0.5,0.5c0,0-1.2,1-1.7,1.4l-2.2,1.4l-2.8,6.5l-2.8,6.5l-0.2-0.2c-0.7,0.1-5,1.2-6.5,1.6l-0.8,0.2
			c-1.8,0.4-5.9,0.5-6.1,0.5h-0.6l0.5-0.4c0.4-0.3,2.9-5.4,4.4-8.6c0.4-0.6,2.8-5.6,4.1-8.1l-0.8-4.3c-0.1-0.4-0.1-1.2,0.9-1.7
			c0.1,0,1.2-0.5,2.3-0.8c0.1,0,2.4-0.4,3.7-0.4c0.1,0,3.1-0.1,4.2,0c0,0,1,0.1,1.7,0.2c0.1,0,0.3-0.1,0.7-0.4l1.4-1.1
			c0.2-0.2,0.6-0.5,1.2-0.2c0,0,0.4,0.3,0.6,0.5c0.1-0.1,0.2-0.2,0.3-0.4l0,0l0,0c0,0-0.2-0.3-0.3-0.9c0,0-0.3-0.8-0.4-1.4
			c0,0-0.1-0.4-0.3-1.6c0-0.1-0.2-1.6-0.3-2.3c0,0-0.2-1.4-0.2-2.2c0,0-0.2-2.3-0.3-2.7c0-0.1,0-0.4-0.1-0.8
			c-0.1-0.7-0.1-1.5-0.2-2.2c0-0.1-0.3-2.5-0.4-3.5c0-0.1,0-0.1,0-0.1c-0.1-0.3-0.6-3.5-0.7-3.9c-0.1-0.8-0.4-5.1-0.5-5.4
			c0,0,0,0,0-0.1c-0.1-0.6-0.2-4.6-0.3-4.7l-0.2-5.8c0-0.4-0.1-3.7-0.1-3.8V37.2h-56L25.3,123.1L25.3,123.1z M93.8,123.1h18.5v-2.8
			c-1.1-0.7-2.5-1.5-3.7-2.2c-0.3-0.2-3.7-1.9-5-2.5c-0.8-0.4-3.8-2-3.9-2c-0.8-0.3-2.5-1.6-2.6-1.7l-1.5-1.1
			c-0.9-0.7-2.5-2.4-2.6-2.4l-1.4-1.9c-0.1-0.2-0.7-1-1.2-1.6c-0.2-0.3-1.1-1.1-1.6-1.5c-0.2,0-0.4,0.1-0.6,0.3
			c0.6,1.2,3.6,6.9,3.7,7.8C93.1,113.7,93.7,121.2,93.8,123.1z M82.7,123.3h10.7c-0.1-1.5-0.7-10.1-1.9-12c0-0.1-1.2-2.8-3.6-5.1
			c0,0-0.8-0.7-1.1-2.1c-0.1,0.4-0.2,0.8-0.2,1c-0.1,0.3-0.3,1.1-0.3,1.4c0,0,0,0.6,0.1,1.2c0,0.1,0.3,1.5,0.2,2.2l-0.4-0.1
			c0.2-0.7-0.2-2.1-0.2-2.1c-0.1-0.6-0.1-1.2-0.1-1.2c0-0.4,0.2-1.4,0.3-1.5c0-0.4,0.4-1.5,0.5-1.8c0-0.1-0.1-0.1-0.2-0.2l-0.1-0.1
			c0,0-0.1,0-0.1-0.1c-0.1,0-0.2-0.1-0.4,0c-0.1,0-0.1,0.1-0.1,0.1s-0.1,0.1-0.2,0.2C85.3,103.8,82,112.6,82.7,123.3L82.7,123.3z
			 M93.9,123.7H82.3v-0.2l0,0H24.9V36.8h56.4c0-0.2,0.1-0.3,0.2-0.4c0.2-0.1,0.4-0.1,0.4-0.1h10.5l0,0c0.1,0,0.2,0.2,0.3,0.3l20,0
			v73.7c0.3,0.4,0.5,0.8,0.7,1.2c0.5,1.1,0.9,2.1,0.9,2.2c0.1,0.3,0.3,1,0.4,1.5c0.2,0.8,0.3,1.7,0.3,1.7c0.1,0.7,0.1,1.6,0.1,1.6
			c0,2.2-0.7,3.1-0.8,3.1l-0.2,0.2l-0.1-0.3c-0.1-0.1-0.6-0.5-1.3-1v3H93.8C93.8,123.5,93.9,123.7,93.9,123.7z"/>
	</g>
	<path class="st0" d="M35.6,45.1H38v4.8l-4.3-5.6h-1.8l4.3,5.7l-4.3,7H34l4-6.6V57h0.8V44.2h-3.1v0.9H35.6z M42.3,49.9l4.3-5.7h-1.8
		l-4.3,5.6V45h2.3v-0.8h-3.1V57h0.8v-6.6l4,6.6h2.1L42.3,49.9z"/>
</g>
</svg>
