<svg xmlns="http://www.w3.org/2000/svg" class="svg-inline icon-04-localisation" width="18" height="18" viewBox="0 0 30 32"><g fill="#53545C" fill-rule="evenodd"><path d="M14.918 0c5.494 0 9.945 4.793 9.945 10.727 0 1.833-.504 3.903-1.434 6.175-.81 1.98-1.924 4.067-3.265 6.207-1.011 1.614-2.093 3.165-3.175 4.6-.189.251-.372.49-.547.715l-.608.77-.916 1.101-.62-.739-.904-1.132-.547-.715c-1.082-1.435-2.164-2.986-3.174-4.6-1.342-2.14-2.456-4.227-3.266-6.207-.93-2.272-1.434-4.342-1.434-6.175C4.973 4.793 9.423 0 14.918 0zm0 1.852c-4.57 0-8.26 3.972-8.26 8.875 0 1.534.446 3.362 1.287 5.415.763 1.867 1.828 3.861 3.116 5.917.98 1.565 2.032 3.073 3.084 4.469.184.244.361.475.53.694l.241.308.244-.308.531-.694c1.052-1.396 2.104-2.904 3.084-4.469 1.288-2.056 2.353-4.05 3.117-5.917.84-2.053 1.286-3.881 1.286-5.415 0-4.903-3.69-8.875-8.26-8.875zm0 6.045c1.57 0 2.842 1.357 2.842 3.03 0 1.673-1.273 3.03-2.842 3.03-1.57 0-2.841-1.357-2.841-3.03 0-1.673 1.272-3.03 2.841-3.03z" transform="translate(-947 -658) translate(896 622) translate(51.148 36.787)"/></g></svg>