<svg xmlns="http://www.w3.org/2000/svg" class="svg-inline icon-10-search" viewBox="0 0 512 512" width="19" height="18"><g fill="#53545C" fill-rule="evenodd"><path d="M480,457.4L370.6,348c28.3-33.5,45.4-76.7,45.4-124c0-106-85.9-192-192-192C118,32,32,118,32,224s86,192,192,192 c47.2,0,90.5-17.1,123.9-45.4L457.3,480L480,457.4z M224,384c-42.8,0-82.9-16.6-113.1-46.9C80.6,306.9,64,266.8,64,224 s16.6-82.9,46.9-113.1C141.1,80.6,181.3,64,224,64s82.9,16.6,113.1,46.9C367.4,141.1,384,181.3,384,224s-16.6,82.9-46.9,113.1 C306.9,367.4,266.8,384,224,384z"/></g></svg>