<svg xmlns="http://www.w3.org/2000/svg" class="svg-inline icon-11-account" width="19" height="18" viewBox="0 0 32 32"><g fill="#53545C" fill-rule="evenodd"><path d="M15.148 15.105c5.382 0 8.655 1.45 10.322 4.334 1.15 1.986 1.434 3.896 1.459 8.089v2.767H3.366v-2.767c.024-4.193.309-6.103 1.458-8.089 1.667-2.883 4.94-4.334 10.323-4.334zm0 1.676c-4.847 0-7.565 1.205-8.895 3.505-.953 1.648-1.209 3.38-1.232 7.269L5.02 28.62h20.255c.014-4.467-.18-6.387-1.112-8.118l-.12-.216c-1.331-2.3-4.049-3.505-8.895-3.505zM15.694 0C19.2 0 22.04 2.878 22.04 6.428s-2.842 6.428-6.347 6.428c-3.503 0-6.345-2.879-6.345-6.428C9.349 2.878 12.19 0 15.694 0zm0 1.676c-2.59 0-4.69 2.128-4.69 4.752 0 2.624 2.1 4.751 4.69 4.751 2.592 0 4.692-2.127 4.692-4.75 0-2.625-2.1-4.753-4.692-4.753z" transform="translate(-241 -306) translate(190 270) translate(51.934 36.787)"/></g></svg>