<svg xmlns="http://www.w3.org/2000/svg" class="svg-inline icon-07-arrow" data-name="Layer 1" width="86" height="27" transform="rotate(270)" viewBox="0 0 86 27"><title>07-arrow</title><rect data-name="canvas background" width="86" height="27" style="fill:none"/><g data-name="svg 1"><path data-name="svg 2" d="M64.525,5.72533c1.4,2.6,2.6,4.8,2.6,5s-14.8.4-33,.4c-28.7,0-33,.2-33,1.5s4.3,1.5,33,1.5c18.2,0,33,.3,33,.6a41.09425,41.09425,0,0,1-2.6,5c-1.4,2.4-2.3,4.4-1.8,4.4.9,0,16.2-8.4,18.8-10.3,1.8-1.3,1.2-1.8-8.1-7.1a98.59214,98.59214,0,0,0-10.7-5.6C62.325,1.12533,63.125,3.22533,64.525,5.72533Z" transform="translate(1 1)"/></g></svg>