<?xml version="1.0" encoding="utf-8"?>
<!-- Generator: Adobe Illustrator 24.0.0, SVG Export Plug-In . SVG Version: 6.00 Build 0)  -->
<svg version="1.1" id="Calque_1" xmlns="http://www.w3.org/2000/svg" xmlns:xlink="http://www.w3.org/1999/xlink" x="0px" y="0px"
	 viewBox="0 0 140 160" style="enable-background:new 0 0 140 160;" xml:space="preserve">
<style type="text/css">
	.st0{fill:#997341;}
	.st1{filter:url(#Adobe_OpacityMaskFilter);}
	.st2{fill-rule:evenodd;clip-rule:evenodd;fill:#FFFFFF;}
	.st3{mask:url(#prefix__b_2_);fill-rule:evenodd;clip-rule:evenodd;fill:#997341;}
	.st4{filter:url(#Adobe_OpacityMaskFilter_1_);}
	.st5{mask:url(#prefix__b_8_);fill-rule:evenodd;clip-rule:evenodd;fill:#FEFEFE;}
	.st6{filter:url(#Adobe_OpacityMaskFilter_2_);}
	.st7{mask:url(#prefix__b_7_);fill-rule:evenodd;clip-rule:evenodd;fill:#D9CEBF;}
	.st8{filter:url(#Adobe_OpacityMaskFilter_3_);}
	.st9{mask:url(#prefix__b_6_);fill-rule:evenodd;clip-rule:evenodd;fill:#997341;}
	.st10{filter:url(#Adobe_OpacityMaskFilter_4_);}
	.st11{mask:url(#prefix__b_5_);fill-rule:evenodd;clip-rule:evenodd;fill:#FFFFFF;}
	.st12{filter:url(#Adobe_OpacityMaskFilter_5_);}
	.st13{mask:url(#prefix__d_8_);fill-rule:evenodd;clip-rule:evenodd;fill:#997341;}
	.st14{filter:url(#Adobe_OpacityMaskFilter_6_);}
	.st15{mask:url(#prefix__d_7_);fill-rule:evenodd;clip-rule:evenodd;fill:#997341;}
	.st16{filter:url(#Adobe_OpacityMaskFilter_7_);}
	.st17{mask:url(#prefix__d_6_);fill-rule:evenodd;clip-rule:evenodd;fill:#FFFFFF;}
	.st18{filter:url(#Adobe_OpacityMaskFilter_8_);}
	.st19{mask:url(#prefix__d_5_);fill-rule:evenodd;clip-rule:evenodd;fill:#997341;}
	.st20{filter:url(#Adobe_OpacityMaskFilter_9_);}
	.st21{mask:url(#prefix__f_4_);fill-rule:evenodd;clip-rule:evenodd;fill:#997341;}
	.st22{filter:url(#Adobe_OpacityMaskFilter_10_);}
	.st23{mask:url(#prefix__f_3_);fill:none;}
	.st24{fill-rule:evenodd;clip-rule:evenodd;fill:#997341;}
	.st25{filter:url(#Adobe_OpacityMaskFilter_11_);}
	.st26{mask:url(#prefix__b_3_);fill-rule:evenodd;clip-rule:evenodd;fill:#997341;}
	.st27{filter:url(#Adobe_OpacityMaskFilter_12_);}
	.st28{mask:url(#prefix__b_1_);}
	.st29{filter:url(#Adobe_OpacityMaskFilter_13_);}
	.st30{mask:url(#prefix__b_4_);fill-rule:evenodd;clip-rule:evenodd;fill:#997341;}
	.st31{filter:url(#Adobe_OpacityMaskFilter_14_);}
	.st32{mask:url(#prefix__d_2_);fill-rule:evenodd;clip-rule:evenodd;fill:#997341;}
	.st33{filter:url(#Adobe_OpacityMaskFilter_15_);}
	.st34{mask:url(#prefix__f_2_);fill-rule:evenodd;clip-rule:evenodd;fill:#997341;}
</style>
<g transform="translate(26 13)">
	<path class="st2" d="M106.6,77c0.5,1.2,0,2.6-1.2,3.1l-77.9,34.6c-1.2,0.5-2.6,0-3.1-1.2L4.9,70.3c-0.5-1.2,0-2.6,1.2-3.1L84,32.6
		c1.2-0.5,2.6,0,3.2,1.2C87.2,33.8,106.6,77,106.6,77z"/>
	<defs>
		<filter id="Adobe_OpacityMaskFilter" filterUnits="userSpaceOnUse" x="17.1" y="61.7" width="86.1" height="46.2">
			<feColorMatrix  type="matrix" values="1 0 0 0 0  0 1 0 0 0  0 0 1 0 0  0 0 0 1 0"/>
		</filter>
	</defs>
	<mask maskUnits="userSpaceOnUse" x="17.1" y="61.7" width="86.1" height="46.2" id="prefix__b_8_">
		<g class="st1">
			<path id="prefix__a_8_" class="st2" d="M5.5,32.3h101.8v83.5H5.5V32.3z"/>
		</g>
	</mask>
	<path class="st5" d="M103.3,71l-82,36.8l-4.2-9.3l82-36.8L103.3,71z"/>
	<defs>
		<filter id="Adobe_OpacityMaskFilter_1_" filterUnits="userSpaceOnUse" x="17.5" y="61.1" width="86.6" height="46.4">
			<feColorMatrix  type="matrix" values="1 0 0 0 0  0 1 0 0 0  0 0 1 0 0  0 0 0 1 0"/>
		</filter>
	</defs>
	<mask maskUnits="userSpaceOnUse" x="17.5" y="61.1" width="86.6" height="46.4" id="prefix__b_7_">
		<g class="st4">
			<path id="prefix__a_7_" class="st2" d="M5.5,32.3h101.8v83.5H5.5V32.3z"/>
		</g>
	</mask>
	<path class="st7" d="M17.5,97.4l82.1-36.3l4.5,10.1L22,107.5L17.5,97.4z"/>
	<defs>
		<filter id="Adobe_OpacityMaskFilter_2_" filterUnits="userSpaceOnUse" x="5.5" y="32.3" width="101.8" height="83.5">
			<feColorMatrix  type="matrix" values="1 0 0 0 0  0 1 0 0 0  0 0 1 0 0  0 0 0 1 0"/>
		</filter>
	</defs>
	<mask maskUnits="userSpaceOnUse" x="5.5" y="32.3" width="101.8" height="83.5" id="prefix__b_6_">
		<g class="st6">
			<path id="prefix__a_6_" class="st2" d="M5.5,32.3h101.8v83.5H5.5V32.3z"/>
		</g>
	</mask>
	<path class="st9" d="M85.4,32.8c-0.3,0-0.6,0.1-0.9,0.2L7.3,67.8C6.7,68,6.4,68.5,6.2,69c-0.2,0.5-0.2,1.1,0,1.6L25.5,114
		c0.5,1.1,1.7,1.5,2.8,1.1l77.3-34.8c0.5-0.2,0.9-0.7,1.1-1.2c0.2-0.5,0.2-1.1,0-1.6L87.3,34.1C86.9,33.3,86.2,32.8,85.4,32.8
		 M27.4,115.8c-1,0-2-0.6-2.4-1.6L5.7,70.8c-0.3-0.6-0.3-1.4-0.1-2c0.3-0.7,0.7-1.2,1.4-1.5l77.3-34.8c1.3-0.6,2.9,0,3.5,1.3
		L107,77.3c0.3,0.6,0.3,1.4,0.1,2c-0.2,0.7-0.7,1.2-1.4,1.5l-77.3,34.8C28.1,115.7,27.7,115.8,27.4,115.8"/>
	<defs>
		<filter id="Adobe_OpacityMaskFilter_3_" filterUnits="userSpaceOnUse" x="-19.3" y="18.2" width="89.7" height="52.4">
			<feColorMatrix  type="matrix" values="1 0 0 0 0  0 1 0 0 0  0 0 1 0 0  0 0 0 1 0"/>
		</filter>
	</defs>
	<mask maskUnits="userSpaceOnUse" x="-19.3" y="18.2" width="89.7" height="52.4" id="prefix__b_5_">
		<g class="st8">
			<path id="prefix__a_5_" class="st2" d="M5.5,32.3h101.8v83.5H5.5V32.3z"/>
		</g>
	</mask>
	<path class="st11" d="M70.4,68.2c0,1.3-1.1,2.4-2.4,2.4h-84.9c-1.3,0-2.4-1.1-2.4-2.4V20.6c0-1.3,1.1-2.4,2.4-2.4H68
		c1.3,0,2.4,1.1,2.4,2.4V68.2z"/>
	<defs>
		<filter id="Adobe_OpacityMaskFilter_4_" filterUnits="userSpaceOnUse" x="-19.3" y="18.3" width="90.3" height="52.4">
			<feColorMatrix  type="matrix" values="1 0 0 0 0  0 1 0 0 0  0 0 1 0 0  0 0 0 1 0"/>
		</filter>
	</defs>
	<mask maskUnits="userSpaceOnUse" x="-19.3" y="18.3" width="90.3" height="52.4" id="prefix__d_8_">
		<g class="st10">
			<path id="prefix__c_8_" class="st2" d="M-19.3,18.3H71v52.4h-90.3V18.3z"/>
		</g>
	</mask>
	<path class="st13" d="M-16.6,18.8c-1.2,0-2.1,0.9-2.1,2.1V68c0,1.2,1,2.1,2.1,2.1h85c1.2,0,2.1-0.9,2.1-2.1V20.9
		c0-1.2-0.9-2.1-2.1-2.1C68.4,18.8-16.6,18.8-16.6,18.8z M68.4,70.6h-85c-1.5,0-2.6-1.2-2.6-2.6V20.9c0-1.4,1.2-2.6,2.6-2.6h85
		c1.5,0,2.6,1.2,2.6,2.6V68C71,69.5,69.9,70.6,68.4,70.6z"/>
	<defs>
		<filter id="Adobe_OpacityMaskFilter_5_" filterUnits="userSpaceOnUse" x="50.9" y="23.5" width="13.3" height="11.5">
			<feColorMatrix  type="matrix" values="1 0 0 0 0  0 1 0 0 0  0 0 1 0 0  0 0 0 1 0"/>
		</filter>
	</defs>
	<mask maskUnits="userSpaceOnUse" x="50.9" y="23.5" width="13.3" height="11.5" id="prefix__d_7_">
		<g class="st12">
			<path id="prefix__c_7_" class="st2" d="M-19.3,18.3H71v52.4h-90.3V18.3z"/>
		</g>
	</mask>
	<path class="st15" d="M54.3,24.2l2.1,0l0,4.3l-3.9-5l-1.6,0l3.9,5.1L50.9,35l1.9,0l3.6-5.9l0,6l0.7,0l0-11.5l-2.8,0L54.3,24.2z
		 M60.3,28.6l3.9-5.1l-1.6,0l-3.9,5l0-4.3l2.1,0l0-0.7l-2.8,0L58,35l0.7,0l0-5.9l3.6,5.9l1.9,0L60.3,28.6z"/>
	<defs>
		<filter id="Adobe_OpacityMaskFilter_6_" filterUnits="userSpaceOnUse" x="-13.9" y="32.4" width="12.1" height="12.1">
			<feColorMatrix  type="matrix" values="1 0 0 0 0  0 1 0 0 0  0 0 1 0 0  0 0 0 1 0"/>
		</filter>
	</defs>
	<mask maskUnits="userSpaceOnUse" x="-13.9" y="32.4" width="12.1" height="12.1" id="prefix__d_6_">
		<g class="st14">
			<path id="prefix__c_6_" class="st2" d="M-19.3,18.3H71v52.4h-90.3V18.3z"/>
		</g>
	</mask>
	<path class="st17" d="M-1.9,43.2c0,0.3,0,1.1-0.3,1.1l-11,0.2c-0.3,0-0.7-1-0.7-1.3V33c0-0.3,0.4-0.6,0.7-0.6h10.4
		c0.3,0,1,0.1,1,0.3V43.2z"/>
	<defs>
		<filter id="Adobe_OpacityMaskFilter_7_" filterUnits="userSpaceOnUse" x="-13.9" y="32.4" width="12.4" height="12.4">
			<feColorMatrix  type="matrix" values="1 0 0 0 0  0 1 0 0 0  0 0 1 0 0  0 0 0 1 0"/>
		</filter>
	</defs>
	<mask maskUnits="userSpaceOnUse" x="-13.9" y="32.4" width="12.4" height="12.4" id="prefix__d_5_">
		<g class="st16">
			<path id="prefix__c_5_" class="st2" d="M-19.3,18.3H71v52.4h-90.3V18.3z"/>
		</g>
	</mask>
	<path class="st19" d="M-12.9,32.9c-0.3,0-0.5,0.1-0.5,0.1l0,10.8c0,0.2,0.3,0.5,0.5,0.5h10.7c0.1,0,0.2-0.2,0.2-0.5V33
		c0-0.1,0-0.1,0-0.1c0,0,0,0-0.2,0H-12.9z M-12.9,44.8c-0.4,0-1-0.6-1-1V33c0-0.2,0.1-0.6,1-0.6h10.7c0.2,0,0.7,0,0.7,0.6v10.8
		c0,0.4-0.2,1-0.7,1L-12.9,44.8L-12.9,44.8z"/>
	<defs>
		<filter id="Adobe_OpacityMaskFilter_8_" filterUnits="userSpaceOnUse" x="-13.9" y="36.2" width="62.1" height="27.3">
			<feColorMatrix  type="matrix" values="1 0 0 0 0  0 1 0 0 0  0 0 1 0 0  0 0 0 1 0"/>
		</filter>
	</defs>
	<mask maskUnits="userSpaceOnUse" x="-13.9" y="36.2" width="62.1" height="27.3" id="prefix__f_4_">
		<g class="st18">
			<path id="prefix__e_4_" class="st2" d="M-19.3,115.8h127V18.2h-127V115.8z"/>
		</g>
	</mask>
	<path class="st21" d="M-13.9,36.6h6.5v-0.4h-6.5V36.6z M-13.9,41h6.5v-0.4h-6.5V41z M-7.4,39.3h5.5v-0.4h-5.5V39.3z M16.6,53.8
		l0.4,0.2l0.6-1.2h0.1l0,0l0.5,1.2l0.4-0.2l-0.8-1v-0.1l1.3,0.2v-0.4l-1.3,0.2v-0.1l0,0l0.8-1l-0.4-0.2l-0.5,1.2h-0.1L17,51.2
		l-0.4,0.2l0.8,1v0.1l-0.1,0l-1.2-0.2v0.4l1.3-0.2v0.1l0,0C17.4,52.8,16.6,53.8,16.6,53.8z M17,54.3l-0.6-0.4l0-0.1l0.7-1L16,53
		v-0.7l0.1,0l1.1,0.1l-0.8-1l0.7-0.4l0.5,1.2l0.5-1.2l0.7,0.4l-0.8,1l1.3-0.2V53l-1.2-0.1l0.8,1l-0.7,0.4l-0.5-1.2L17,54.3z
		 M23.8,53.8l0.4,0.2l0.6-1.2h0.1l0,0l0.5,1.2l0.4-0.2l-0.8-1v-0.1l1.3,0.2v-0.4L25,52.6v-0.1l0,0l0.8-1l-0.4-0.2l-0.5,1.2h-0.1
		l-0.5-1.2l-0.4,0.2l0.8,1v0.1l-0.1,0l-1.2-0.2v0.4l1.3-0.2v0.1l0,0C24.6,52.8,23.8,53.8,23.8,53.8z M24.3,54.3l-0.6-0.4l0-0.1
		l0.7-1L23.2,53v-0.7l0.1,0l1.1,0.1l-0.8-1l0.7-0.4l0.5,1.2l0.5-1.2l0.6,0.4l-0.8,1l1.3-0.2V53l-1.2-0.1l0.8,1l-0.7,0.4l-0.5-1.2
		L24.3,54.3L24.3,54.3z M-12.4,53.8l0.4,0.2l0.6-1.2h0.1l0,0l0.5,1.2l0.4-0.2l-0.8-1v-0.1l1.3,0.2v-0.4l-1.3,0.2v-0.1l0,0l0.8-1
		l-0.4-0.2l-0.5,1.2h-0.1l-0.5-1.2l-0.4,0.2l0.8,1v0.1l-0.1,0l-1.2-0.2v0.4l1.3-0.2v0.1l0,0C-11.6,52.8-12.4,53.8-12.4,53.8z
		 M-12,54.3l-0.6-0.4l0-0.1l0.7-1l-1.2,0.2v-0.7l0.1,0l1.1,0.1l-0.8-1L-12,51l0.5,1.2l0.5-1.2l0.7,0.4l-0.8,1l1.3-0.2V53l-1.2-0.1
		l0.8,1l-0.7,0.4l-0.5-1.2C-11.5,53.1-12,54.3-12,54.3z M31.1,53.8l0.4,0.2l0.6-1.2h0.1l0,0l0.5,1.2l0.4-0.2l-0.8-1v-0.1l1.3,0.2
		v-0.4l-1.3,0.2v-0.1l0,0l0.8-1l-0.4-0.2l-0.5,1.2H32l-0.5-1.2l-0.4,0.2l0.8,1v0.1l-0.1,0l-1.2-0.2v0.4l1.3-0.2v0.1l0,0L31.1,53.8z
		 M31.5,54.3l-0.6-0.4l0-0.1l0.7-1L30.5,53v-0.7l0.1,0l1.1,0.1l-0.8-1l0.7-0.4l0.5,1.2l0.5-1.2l0.7,0.4l-0.8,1l1.3-0.2V53l-1.2-0.1
		l0.8,1l-0.7,0.4l-0.5-1.2L31.5,54.3L31.5,54.3z M45.6,53.8l0.4,0.2l0.6-1.2h0.1l0,0l0.5,1.2l0.4-0.2l-0.8-1v-0.1l1.3,0.2v-0.4
		l-1.3,0.2v-0.1l0,0l0.8-1l-0.4-0.2l-0.5,1.2h-0.1L46,51.2l-0.4,0.2l0.8,1v0.1l-0.1,0l-1.2-0.2v0.4l1.3-0.2v0.1l0,0
		C46.4,52.8,45.6,53.8,45.6,53.8z M46,54.3l-0.6-0.4l0-0.1l0.7-1L45,53v-0.7l0.1,0l1.1,0.1l-0.8-1l0.7-0.4l0,0.1l0.5,1.1l0.5-1.2
		l0.7,0.4l-0.8,1l1.3-0.2V53L47,52.9l0.8,1l-0.7,0.4l-0.5-1.2C46.6,53.1,46,54.3,46,54.3z M-5.2,53.8l0.4,0.2l0.6-1.2h0.1l0,0
		l0.5,1.2l0.4-0.2l-0.8-1v-0.1l1.3,0.2v-0.4L-4,52.6v-0.1l0,0l0.8-1l-0.4-0.2l-0.5,1.2h-0.1l-0.5-1.2l-0.4,0.2l0.8,1v0.1l-0.1,0
		l-1.2-0.2v0.4l1.3-0.2v0.1l0,0L-5.2,53.8z M-4.7,54.3l-0.6-0.4l0-0.1l0.7-1L-5.8,53v-0.7l0.1,0l1.1,0.1l-0.8-1l0.7-0.4l0.5,1.2
		l0.5-1.2l0.7,0.4l-0.8,1l1.3-0.2V53l-1.2-0.1l0.8,1l-0.7,0.4l-0.5-1.2L-4.7,54.3L-4.7,54.3z M5.7,53.8l0.4,0.2l0.6-1.2h0.1l0,0
		l0.5,1.2l0.4-0.2l-0.8-1v-0.1l1.3,0.2v-0.4l-1.3,0.2v-0.1l0,0l0.8-1l-0.4-0.2l-0.5,1.2H6.6l-0.5-1.2l-0.4,0.2l0.8,1v0.1l-0.1,0
		l-1.2-0.2v0.4l1.3-0.2v0.1l0,0L5.7,53.8L5.7,53.8z M6.1,54.3l-0.6-0.4l0-0.1l0.7-1L5.1,53v-0.7l0.1,0l1.1,0.1l-0.8-1L6.2,51l0,0.1
		l0.5,1.1L7.2,51l0.6,0.4l-0.8,1l1.3-0.2V53l-1.3-0.1l0.8,1l-0.7,0.4l-0.5-1.2C6.7,53.1,6.1,54.3,6.1,54.3z M9.3,53.8l0.4,0.2
		l0.6-1.2h0.1l0,0l0.5,1.2l0.4-0.2l-0.8-1v-0.1l1.3,0.2v-0.4l-1.3,0.2v-0.1l0,0l0.8-1l-0.4-0.2l-0.5,1.2h-0.1l-0.5-1.2l-0.4,0.2
		l0.8,1v0.1l-0.1,0l-1.2-0.2v0.4l1.3-0.2v0.1l0,0C10.1,52.8,9.3,53.8,9.3,53.8z M9.8,54.3l-0.6-0.4l0-0.1l0.7-1L8.7,53v-0.7l0.1,0
		l1.1,0.1l-0.8-1L9.8,51l0.5,1.2l0.5-1.2l0.7,0.4l-0.8,1l1.3-0.2V53l-1.2-0.1l0.8,1l-0.7,0.4l-0.5-1.2C10.3,53.1,9.8,54.3,9.8,54.3z
		 M13,53.8l0.4,0.2l0.6-1.2H14l0,0l0.5,1.2l0.4-0.2l-0.8-1v-0.1l1.3,0.2v-0.4l-1.3,0.2v-0.1l0,0l0.8-1l-0.4-0.2L14,52.4h-0.1
		l-0.5-1.2L13,51.5l0.8,1v0.1l-0.1,0l-1.2-0.2v0.4l1.3-0.2v0.1l0,0L13,53.8z M13.4,54.3l-0.6-0.4l0-0.1l0.7-1L12.3,53v-0.7l0.1,0
		l1.1,0.1l-0.8-1l0.7-0.4l0,0.1l0.5,1.1l0.5-1.2l0.7,0.4l-0.8,1l1.3-0.2V53l-1.2-0.1l0.8,1l-0.7,0.4l-0.5-1.2
		C13.9,53.1,13.4,54.3,13.4,54.3z M20.2,53.8l0.4,0.2l0.6-1.2h0.1l0,0l0.5,1.2l0.4-0.2l-0.8-1v-0.1l1.3,0.2v-0.4l-1.3,0.2v-0.1l0,0
		l0.8-1l-0.4-0.2l-0.5,1.2h-0.1l-0.5-1.2l-0.4,0.2l0.8,1v0.1l-0.1,0l-1.2-0.2v0.4l1.3-0.2v0.1l0,0L20.2,53.8z M20.6,54.3L20,53.9
		l0-0.1l0.7-1L19.6,53v-0.7l0.1,0l1.1,0.1l-0.8-1l0.7-0.4l0,0.1l0.5,1.1l0.5-1.2l0.7,0.4l-0.8,1l1.3-0.2V53l-1.2-0.1l0.8,1l-0.7,0.4
		l-0.5-1.2C21.2,53.1,20.6,54.3,20.6,54.3z M34.7,53.8l0.4,0.2l0.6-1.2h0.1l0,0l0.5,1.2l0.4-0.2l-0.8-1v-0.1l1.3,0.2v-0.4l-1.3,0.2
		v-0.1l0,0l0.8-1l-0.4-0.2l-0.5,1.2h-0.1l-0.5-1.2l-0.4,0.2l0.8,1v0.1l-0.1,0l-1.2-0.2v0.4l1.3-0.2v0.1l0,0L34.7,53.8z M35.2,54.3
		l-0.6-0.4l0-0.1l0.7-1L34.1,53v-0.7l0.1,0l1.1,0.1l-0.8-1l0.7-0.4l0,0.1l0.5,1.1l0.5-1.2l0.7,0.4l-0.8,1l1.3-0.2V53l-1.2-0.1l0.8,1
		l-0.7,0.4l-0.5-1.2C35.7,53.1,35.2,54.3,35.2,54.3z M38.3,53.8l0.4,0.2l0.6-1.2h0.1l0,0l0.5,1.2l0.4-0.2l-0.8-1v-0.1l1.3,0.2v-0.4
		l-1.3,0.2v-0.1l0,0l0.8-1l-0.4-0.2l-0.5,1.2h-0.1l-0.5-1.2l-0.4,0.2l0.8,1v0.1l-0.1,0l-1.2-0.2v0.4l1.3-0.2v0.1l0,0L38.3,53.8z
		 M38.8,54.3l-0.6-0.4l0-0.1l0.7-1L37.7,53v-0.7l0.1,0l1.1,0.1l-0.8-1l0.7-0.4l0.5,1.2l0.5-1.2l0.7,0.4l-0.8,1l1.3-0.2V53l-1.2-0.1
		l0.8,1l-0.7,0.4l-0.5-1.2C39.3,53.1,38.8,54.3,38.8,54.3z M42,53.8l0.4,0.2l0.6-1.2H43l0,0l0.5,1.2l0.4-0.2l-0.8-1v-0.1l1.3,0.2
		v-0.4l-1.3,0.2v-0.1l0,0l0.8-1l-0.4-0.2L43,52.4h-0.1l-0.5-1.2L42,51.5l0.8,1v0.1l-0.1,0l-1.2-0.2v0.4l1.3-0.2v0.1l0,0L42,53.8z
		 M42.4,54.3l-0.6-0.4l0-0.1l0.7-1L41.4,53v-0.7l0.1,0l1.1,0.1l-0.8-1l0.7-0.4l0,0.1l0.5,1.1l0.5-1.2l0.7,0.4l-0.8,1l1.3-0.2V53
		l-1.2-0.1l0.8,1l-0.7,0.4L43,53.1L42.4,54.3L42.4,54.3z M2.1,53.8l0.4,0.2L3,52.9h0.1l0,0l0.5,1.2L4,53.8l-0.8-1v-0.1l1.3,0.2v-0.4
		l-1.3,0.2v-0.1l0,0l0.8-1l-0.4-0.2l-0.5,1.2H3l-0.5-1.2l-0.4,0.2l0.8,1v0.1l-0.1,0l-1.2-0.2v0.4l1.3-0.2v0.1l0,0L2.1,53.8z
		 M2.5,54.3l-0.6-0.4l0-0.1l0.7-1L1.5,53v-0.7l0.1,0l1.1,0.1l-0.8-1L2.5,51l0.5,1.2L3.6,51l0.7,0.4l-0.8,1l1.3-0.2V53l-1.2-0.1
		l0.8,1l-0.7,0.4l-0.5-1.2L2.5,54.3L2.5,54.3z M27.5,53.8l0.4,0.2l0.6-1.2h0.1l0,0l0.5,1.2l0.4-0.2l-0.8-1v-0.1l1.3,0.2v-0.4
		l-1.3,0.2v-0.1l0,0l0.8-1L29,51.2l-0.5,1.2h-0.1l-0.5-1.2l-0.4,0.2l0.8,1v0.1l-0.1,0L27,52.4v0.4l1.3-0.2v0.1l0,0
		C28.3,52.8,27.5,53.8,27.5,53.8z M27.9,54.3l-0.6-0.4l0-0.1l0.7-1L26.8,53v-0.7l0.1,0l1.1,0.1l-0.8-1l0.7-0.4l0,0.1l0.5,1.1L29,51
		l0.7,0.4l-0.8,1l1.3-0.2V53l-1.2-0.1l0.8,1l-0.7,0.4l-0.5-1.2C28.4,53.1,27.9,54.3,27.9,54.3z M-8.8,53.8l0.4,0.2l0.6-1.2h0.1l0,0
		l0.5,1.2l0.4-0.2l-0.8-1v-0.1l1.3,0.2v-0.4l-1.3,0.2v-0.1l0,0l0.8-1l-0.4-0.2l-0.5,1.2h-0.1l-0.5-1.2l-0.4,0.2l0.8,1v0.1l-0.1,0
		l-1.2-0.2v0.4l1.3-0.2v0.1l0,0C-8,52.8-8.8,53.8-8.8,53.8z M-8.4,54.3L-9,53.9l0-0.1l0.7-1L-9.4,53v-0.7l0.1,0l1.1,0.1l-0.8-1
		l0.7-0.4l0,0.1l0.5,1.1l0.5-1.2l0.6,0.4l-0.8,1l1.3-0.2V53l-1.2-0.1l0.8,1l-0.7,0.4l-0.5-1.2C-7.8,53.1-8.4,54.3-8.4,54.3z
		 M-1.5,53.8l0.4,0.2l0.6-1.2h0.1l0,0L0,54.1l0.4-0.2l-0.8-1v-0.1l1.3,0.2v-0.4l-1.3,0.2v-0.1l0,0l0.8-1L0,51.2l-0.5,1.2h-0.1
		l-0.5-1.2l-0.4,0.2l0.8,1v0.1l-0.1,0L-2,52.4v0.4l1.3-0.2v0.1l0,0C-0.8,52.8-1.5,53.8-1.5,53.8z M-1.1,54.3l-0.6-0.4l0-0.1l0.7-1
		L-2.2,53v-0.7l0.1,0l1.1,0.1l-0.8-1l0.7-0.4l0,0.1l0.5,1.1L0,51l0.7,0.4l-0.8,1l1.3-0.2V53l-1.3-0.1l0.8,1l-0.7,0.4l-0.5-1.2
		L-1.1,54.3L-1.1,54.3z M-12.4,63l0.4,0.2l0.6-1.2h0.1l0,0l0.5,1.2l0.4-0.2l-0.8-1v-0.1l1.3,0.2v-0.4l-1.3,0.2v-0.1l0,0l0.8-1
		l-0.4-0.2l-0.5,1.2h-0.1l-0.5-1.2l-0.4,0.2l0.8,1v0.1l-0.1,0l-1.2-0.2v0.4l1.3-0.2V62l0,0C-11.6,62-12.4,63-12.4,63z M-12,63.5
		l-0.6-0.4l0-0.1l0.7-1l-1.2,0.2v-0.7l0.1,0l1.1,0.1l-0.8-1l0.7-0.4l0.5,1.2l0.5-1.2l0.7,0.4l-0.8,1l1.3-0.2v0.7l-1.2-0.1l0.8,1
		l-0.7,0.4l-0.5-1.2C-11.5,62.3-12,63.5-12,63.5z M-5.2,63l0.4,0.2l0.6-1.2h0.1l0,0l0.5,1.2l0.4-0.2L-4,62v-0.1l1.3,0.2v-0.4
		L-4,61.8v-0.1l0,0l0.8-1l-0.4-0.2l-0.5,1.2h-0.1l-0.5-1.2l-0.4,0.2l0.8,1v0.1l-0.1,0l-1.2-0.2v0.4l1.3-0.2V62l0,0
		C-4.4,62-5.2,63-5.2,63z M-4.7,63.5l-0.6-0.4l0-0.1l0.7-1l-1.2,0.2v-0.7l0.1,0l1.1,0.1l-0.8-1l0.7-0.4l0.5,1.2l0.5-1.2l0.7,0.4
		l-0.8,1l1.3-0.2v0.7l-1.2-0.1l0.8,1l-0.7,0.4l-0.5-1.2L-4.7,63.5L-4.7,63.5z M5.7,63l0.4,0.2l0.6-1.2h0.1l0,0l0.5,1.2L7.7,63
		l-0.8-1v-0.1l1.3,0.2v-0.4l-1.3,0.2v-0.1l0,0l0.8-1l-0.4-0.2l-0.5,1.2H6.6l-0.5-1.2l-0.4,0.2l0.8,1v0.1l-0.1,0l-1.2-0.2v0.4
		l1.3-0.2V62l0,0L5.7,63L5.7,63z M6.1,63.5l-0.6-0.4l0-0.1l0.7-1l-1.2,0.2v-0.7l0.1,0l1.1,0.1l-0.8-1l0.7-0.4l0,0.1l0.5,1.1l0.5-1.2
		l0.7,0.4l-0.8,1l1.3-0.2v0.7l-1.2-0.1l0.8,1l-0.7,0.4l-0.5-1.2L6.1,63.5z M9.3,63l0.4,0.2l0.6-1.2h0.1l0,0l0.5,1.2l0.4-0.2l-0.8-1
		v-0.1l1.3,0.2v-0.4l-1.3,0.2v-0.1l0,0l0.8-1l-0.4-0.2l-0.5,1.2h-0.1l-0.5-1.2l-0.4,0.2l0.8,1v0.1l-0.1,0l-1.2-0.2v0.4l1.3-0.2V62
		l0,0C10.1,62,9.3,63,9.3,63z M9.8,63.5l-0.6-0.4l0-0.1l0.7-1l-1.2,0.2v-0.7l0.1,0l1.1,0.1l-0.8-1l0.7-0.4l0.5,1.2l0.5-1.2l0.7,0.4
		l-0.8,1l1.3-0.2v0.7l-1.2-0.1l0.8,1l-0.7,0.4l-0.5-1.2C10.3,62.3,9.8,63.5,9.8,63.5z M2.1,63l0.4,0.2L3,62.1h0.1l0,0l0.5,1.2L4,63
		l-0.8-1v-0.1l1.3,0.2v-0.4l-1.3,0.2v-0.1l0,0l0.8-1l-0.4-0.2l-0.5,1.2H3l-0.5-1.2l-0.4,0.2l0.8,1v0.1l-0.1,0l-1.2-0.2v0.4l1.3-0.2
		V62l0,0C2.9,62,2.1,63,2.1,63z M2.5,63.5l-0.6-0.4l0-0.1l0.7-1l-1.2,0.2v-0.7l0.1,0l1.1,0.1l-0.8-1l0.7-0.4l0.5,1.2l0.5-1.2
		l0.7,0.4l-0.8,1l1.3-0.2v0.7l-1.2-0.1l0.8,1l-0.7,0.4l-0.5-1.2L2.5,63.5L2.5,63.5z M-8.8,63l0.4,0.2l0.6-1.2h0.1l0,0l0.5,1.2
		l0.4-0.2l-0.8-1v-0.1l1.3,0.2v-0.4l-1.3,0.2v-0.1l0,0l0.8-1l-0.4-0.2l-0.5,1.2h-0.1l-0.5-1.2l-0.4,0.2l0.8,1v0.1l-0.1,0l-1.2-0.2
		v0.4l1.3-0.2V62l0,0C-8,62-8.8,63-8.8,63z M-8.4,63.5L-9,63.1l0-0.1l0.7-1l-1.2,0.2v-0.7l0.1,0l1.1,0.1l-0.8-1l0.7-0.4l0,0.1
		l0.5,1.1l0.5-1.2l0.6,0.4l-0.8,1l1.3-0.2v0.7l-1.2-0.1l0.8,1l-0.7,0.4l-0.5-1.2C-7.8,62.3-8.4,63.5-8.4,63.5z M-1.5,63l0.4,0.2
		l0.6-1.2h0.1l0,0L0,63.3L0.4,63l-0.8-1v-0.1l1.3,0.2v-0.4l-1.3,0.2v-0.1l0,0l0.8-1L0,60.4l-0.5,1.2h-0.1l-0.5-1.2l-0.4,0.2l0.8,1
		v0.1l-0.1,0L-2,61.6v0.4l1.3-0.2V62l0,0C-0.8,62-1.5,63-1.5,63z M-1.1,63.5l-0.6-0.4l0-0.1l0.7-1l-1.2,0.2v-0.7l0.1,0l1.1,0.1
		l-0.8-1l0.7-0.4l0,0.1l0.5,1.1L0,60.2l0.7,0.4l-0.8,1l1.3-0.2v0.7l-1.3-0.1l0.8,1l-0.7,0.4l-0.5-1.2L-1.1,63.5L-1.1,63.5z"/>
	<defs>
		<filter id="Adobe_OpacityMaskFilter_9_" filterUnits="userSpaceOnUse" x="16.6" y="61.2" width="87.5" height="46.8">
			<feColorMatrix  type="matrix" values="1 0 0 0 0  0 1 0 0 0  0 0 1 0 0  0 0 0 1 0"/>
		</filter>
	</defs>
	<mask maskUnits="userSpaceOnUse" x="16.6" y="61.2" width="87.5" height="46.8" id="prefix__f_3_">
		<g class="st20">
			<path id="prefix__e_3_" class="st2" d="M-19.3,115.8h127V18.2h-127V115.8z"/>
		</g>
	</mask>
	<path class="st23" d="M16.6,97.9l83-36.7l4.5,10.1l-83,36.7L16.6,97.9z"/>
</g>
</svg>
