<?xml version="1.0" encoding="utf-8"?>
<!-- Generator: Adobe Illustrator 24.0.0, SVG Export Plug-In . SVG Version: 6.00 Build 0)  -->
<svg version="1.1" id="Calque_1" xmlns="http://www.w3.org/2000/svg" xmlns:xlink="http://www.w3.org/1999/xlink" x="0px" y="0px"
	 viewBox="0 0 140 160" style="enable-background:new 0 0 140 160;" xml:space="preserve">
<style type="text/css">
	.st0{fill:#997341;}
	.st1{filter:url(#Adobe_OpacityMaskFilter);}
	.st2{fill-rule:evenodd;clip-rule:evenodd;fill:#FFFFFF;}
	.st3{mask:url(#prefix__b_2_);fill-rule:evenodd;clip-rule:evenodd;fill:#997341;}
	.st4{filter:url(#Adobe_OpacityMaskFilter_1_);}
	.st5{mask:url(#prefix__b_8_);fill-rule:evenodd;clip-rule:evenodd;fill:#FEFEFE;}
	.st6{filter:url(#Adobe_OpacityMaskFilter_2_);}
	.st7{mask:url(#prefix__b_7_);fill-rule:evenodd;clip-rule:evenodd;fill:#D9CEBF;}
	.st8{filter:url(#Adobe_OpacityMaskFilter_3_);}
	.st9{mask:url(#prefix__b_6_);fill-rule:evenodd;clip-rule:evenodd;fill:#997341;}
	.st10{filter:url(#Adobe_OpacityMaskFilter_4_);}
	.st11{mask:url(#prefix__b_5_);fill-rule:evenodd;clip-rule:evenodd;fill:#FFFFFF;}
	.st12{filter:url(#Adobe_OpacityMaskFilter_5_);}
	.st13{mask:url(#prefix__d_8_);fill-rule:evenodd;clip-rule:evenodd;fill:#997341;}
	.st14{filter:url(#Adobe_OpacityMaskFilter_6_);}
	.st15{mask:url(#prefix__d_7_);fill-rule:evenodd;clip-rule:evenodd;fill:#997341;}
	.st16{filter:url(#Adobe_OpacityMaskFilter_7_);}
	.st17{mask:url(#prefix__d_6_);fill-rule:evenodd;clip-rule:evenodd;fill:#FFFFFF;}
	.st18{filter:url(#Adobe_OpacityMaskFilter_8_);}
	.st19{mask:url(#prefix__d_5_);fill-rule:evenodd;clip-rule:evenodd;fill:#997341;}
	.st20{filter:url(#Adobe_OpacityMaskFilter_9_);}
	.st21{mask:url(#prefix__f_4_);fill-rule:evenodd;clip-rule:evenodd;fill:#997341;}
	.st22{filter:url(#Adobe_OpacityMaskFilter_10_);}
	.st23{mask:url(#prefix__f_3_);fill:none;}
	.st24{fill-rule:evenodd;clip-rule:evenodd;fill:#997341;}
	.st25{filter:url(#Adobe_OpacityMaskFilter_11_);}
	.st26{mask:url(#prefix__b_3_);fill-rule:evenodd;clip-rule:evenodd;fill:#997341;}
	.st27{filter:url(#Adobe_OpacityMaskFilter_12_);}
	.st28{mask:url(#prefix__b_1_);}
	.st29{filter:url(#Adobe_OpacityMaskFilter_13_);}
	.st30{mask:url(#prefix__b_4_);fill-rule:evenodd;clip-rule:evenodd;fill:#997341;}
	.st31{filter:url(#Adobe_OpacityMaskFilter_14_);}
	.st32{mask:url(#prefix__d_2_);fill-rule:evenodd;clip-rule:evenodd;fill:#997341;}
	.st33{filter:url(#Adobe_OpacityMaskFilter_15_);}
	.st34{mask:url(#prefix__f_2_);fill-rule:evenodd;clip-rule:evenodd;fill:#997341;}
</style>
<g transform="translate(13)">
	<defs>
		<filter id="Adobe_OpacityMaskFilter" filterUnits="userSpaceOnUse" x="27.2" y="36.6" width="70.5" height="85">
			<feColorMatrix  type="matrix" values="1 0 0 0 0  0 1 0 0 0  0 0 1 0 0  0 0 0 1 0"/>
		</filter>
	</defs>
	<mask maskUnits="userSpaceOnUse" x="27.2" y="36.6" width="70.5" height="85" id="prefix__b_3_">
		<g class="st1">
			<path id="prefix__a_3_" class="st2" d="M27.2,36.6h70.5v85H27.2V36.6z"/>
		</g>
	</mask>
	<path class="st26" d="M27.9,115.2l67.2,6L95,44.7l-67.1-4.3V115.2z M95.5,121.7l-68.1-6.1V40.4l-0.2,0l2.8-3.1
		c0.9-0.9,3.2-0.6,3.3-0.6l64.4,0.1v75.3h-0.4V37.2l-64-0.1c-0.6-0.1-2.3-0.1-3,0.5L28.2,40l67.2,4.3L95.5,121.7L95.5,121.7z"/>
	<defs>
		<filter id="Adobe_OpacityMaskFilter_1_" filterUnits="userSpaceOnUse" x="32.1" y="45.8" width="14" height="13.6">
			<feColorMatrix  type="matrix" values="1 0 0 0 0  0 1 0 0 0  0 0 1 0 0  0 0 0 1 0"/>
		</filter>
	</defs>
	<mask maskUnits="userSpaceOnUse" x="32.1" y="45.8" width="14" height="13.6" id="prefix__b_1_">
		<g class="st4">
			<path id="prefix__a_1_" class="st2" d="M27.2,36.6h70.5v85H27.2V36.6z"/>
		</g>
	</mask>
	<g class="st28">
		<g>
			<path class="st24" d="M36.2,51.7l-4,6.8l2,0.1l3.7-6.3l0.1,6.5l0.7,0.1l-0.2-12.6l-3-0.2l0,0.8l2.2,0.2l0.1,4.7l-4.1-5.8
				l-1.6-0.1l-0.1,0L36.2,51.7z M39.6,59l0.7,0.1l-0.1-6.5l3.8,6.8l2,0.1l-4.2-7.3l4-5.3l-1.7-0.1l-4,5.2l-0.1-4.7l2.2,0.2l0-0.8
				l-2.6-0.2l-0.4,0L39.6,59z"/>
			<path class="st24" d="M39.6,59L39.6,59l0.8,0.1l-0.1-6.4l3.8,6.7l0,0l2,0.1l0,0l-4.1-7.3l3.9-5.3l0,0l-1.7-0.1l-3.9,5.2l-0.1-4.6
				l2.2,0.2l0,0l0-0.8l-2.7-0.2l-0.2,0L39.6,59L39.6,59z M39.6,58.9l-0.2-12.5l2.9,0.2l0,0.7l-2.2-0.2l0,0l0.1,4.7V52l4-5.3l1.6,0.1
				l-3.9,5.2l0,0l4.1,7.3L44,59.2l-3.8-6.7l0-0.1l0.1,6.6L39.6,58.9L39.6,58.9z"/>
		</g>
	</g>
	<defs>
		<filter id="Adobe_OpacityMaskFilter_2_" filterUnits="userSpaceOnUse" x="27.8" y="76.2" width="69.9" height="36.1">
			<feColorMatrix  type="matrix" values="1 0 0 0 0  0 1 0 0 0  0 0 1 0 0  0 0 0 1 0"/>
		</filter>
	</defs>
	<mask maskUnits="userSpaceOnUse" x="27.8" y="76.2" width="69.9" height="36.1" id="prefix__b_4_">
		<g class="st6">
			<path id="prefix__a_4_" class="st2" d="M27.2,36.6h70.5v85H27.2V36.6z"/>
		</g>
	</mask>
	<path class="st30" d="M97.5,112.3C97.5,112.3,97.5,112.3,97.5,112.3l-2.1-0.2c-0.1,0-0.2-0.1-0.2-0.2c0-0.1,0.1-0.2,0.2-0.2
		l2.1,0.2c0.1,0,0.2,0.1,0.2,0.2C97.7,112.2,97.6,112.3,97.5,112.3 M28.2,83c0,0,0.1,0.2,0.4,0.4c0,0,0.9,0.7,3.2,0.7
		c0,0,2.7,0,3.7-1.1v-6.4h-7.2V83L28.2,83z M31.8,84.5L31.8,84.5c-2.5,0-3.4-0.8-3.5-0.8c-0.5-0.2-0.5-0.7-0.5-0.7l0-0.7v-6.1h8.1
		v6.9l0,0.1C34.8,84.5,32.2,84.5,31.8,84.5L31.8,84.5z"/>
	<defs>
		<filter id="Adobe_OpacityMaskFilter_3_" filterUnits="userSpaceOnUse" x="16.3" y="75" width="20.3" height="48.4">
			<feColorMatrix  type="matrix" values="1 0 0 0 0  0 1 0 0 0  0 0 1 0 0  0 0 0 1 0"/>
		</filter>
	</defs>
	<mask maskUnits="userSpaceOnUse" x="16.3" y="75" width="20.3" height="48.4" id="prefix__d_2_">
		<g class="st8">
			<path id="prefix__c_2_" class="st2" d="M16.3,75h20.3v48.4H16.3V75z"/>
		</g>
	</mask>
	<path class="st32" d="M31.8,75.4c-2.2,0-3.6,0.6-3.6,1c0,0.4,1.4,1,3.6,1c2.2,0,3.6-0.6,3.6-1C35.5,76,34.1,75.4,31.8,75.4
		L31.8,75.4z M31.8,77.8c-2,0-4.1-0.5-4.1-1.4c0-1.8,8.2-1.8,8.2,0C35.9,77.3,33.9,77.8,31.8,77.8z M21.7,79c-0.7,0-1.3,0.6-1.3,1.3
		c0,0.7,0.6,1.3,1.3,1.3c0.7,0,1.3-0.6,1.3-1.3C23,79.6,22.4,79,21.7,79L21.7,79z M21.7,82c-0.9,0-1.7-0.8-1.7-1.7
		c0-0.9,0.8-1.7,1.7-1.7c0.9,0,1.7,0.8,1.7,1.7C23.4,81.2,22.7,82,21.7,82L21.7,82z M32.4,79c-0.7,0-1.3,0.6-1.3,1.3
		c0,0.7,0.6,1.3,1.3,1.3s1.3-0.6,1.3-1.3C33.7,79.6,33.1,79,32.4,79z M32.4,82c-0.9,0-1.7-0.8-1.7-1.7c0-0.9,0.8-1.7,1.7-1.7
		c0.9,0,1.7,0.8,1.7,1.7C34.1,81.2,33.3,82,32.4,82z M27.4,90.2c0.1,0.2,0.8,1,2.3,1.3c0.5,0.1,1.9,0.2,2.5,0.1c0,0,0,0,0,0
		c0.2,0,1.1,0,2.2-0.3c0.7-0.2,1-0.4,1.4-0.7c0.1-0.1,0.2-0.2,0.3-0.2v-7.4c-0.5,0.5-0.9,0.8-1.6,1.1c-2.1,0.8-4.4,0.5-5.9-0.1
		c-0.6-0.2-1-0.5-1.3-0.7L27.4,90.2L27.4,90.2z M27.5,91l-0.1,3.5c0,0,0.1,1,1.1,1.5c0,0,2.6,1,4.9,0.3c0,0,2.2-0.5,2.8-1.6V91
		c0,0,0,0,0,0c-0.4,0.3-0.7,0.6-1.6,0.8c-1.3,0.3-2.3,0.3-2.4,0.3c-0.6,0.1-2,0-2.6-0.1C28.6,91.8,27.9,91.3,27.5,91L27.5,91
		L27.5,91z M31.7,96.9c-1.8,0-3.2-0.6-3.3-0.6c-1.3-0.6-1.4-1.8-1.4-1.9l0.1-3.6l0,0c0-0.1,0-0.3,0-0.4c0,0,0-0.1,0-0.1l0-0.1v-7.5
		c0-0.3,0.5-0.8,0.9-1.1l0.3,0.3c-0.3,0.3-0.7,0.6-0.7,0.8c0.2,0.2,0.8,0.5,1.5,0.8c1.4,0.6,3.6,0.9,5.6,0.1
		c0.7-0.3,1.1-0.7,1.6-1.2c-0.1-0.1-0.3-0.3-0.5-0.4l0.2-0.4c0.5,0.3,0.8,0.7,0.8,0.7l0,0.1l0,12.3c-0.6,1.3-3,1.9-3.1,1.9
		C32.9,96.9,32.3,96.9,31.7,96.9L31.7,96.9z M17.6,76.2h7.1c-0.4-0.4-1.7-0.7-3.5-0.7S18,75.8,17.6,76.2z M17.6,76.6
		c0.4,0.4,1.7,0.7,3.5,0.7s3.1-0.4,3.5-0.7L17.6,76.6L17.6,76.6z M25.3,82.4v0.4l0.2-0.2C25.4,82.5,25.3,82.4,25.3,82.4L25.3,82.4z
		 M16.7,82.9c0.1,0.1,0.2,0.1,0.4,0.2l0,0l0-0.6C16.9,82.6,16.8,82.8,16.7,82.9z M17.5,83c0,0,0.1,0.2,0.4,0.4c0,0,0.9,0.7,3.2,0.7
		c0,0,2.7,0,3.7-1.1v-6c-1.4,1-5.9,1-7.3,0C17.5,77,17.5,83,17.5,83z M16.7,90.2c0.1,0.2,0.8,1,2.3,1.3c0.5,0.1,1.9,0.2,2.5,0.1
		c0,0,0,0,0,0c0.2,0,1.1,0,2.2-0.3c0.7-0.2,1-0.4,1.4-0.7c0.1-0.1,0.2-0.2,0.3-0.2v-7.4c-0.5,0.5-0.9,0.8-1.6,1.1
		c-2.1,0.8-4.4,0.5-5.9-0.1c-0.6-0.2-1-0.5-1.3-0.7L16.7,90.2L16.7,90.2z M23.8,91.9l0.1,4l-0.1,0.1c0.7-0.3,1.4-0.7,1.7-1.3V91l0,0
		c-0.4,0.3-0.7,0.6-1.6,0.8C23.9,91.8,23.8,91.9,23.8,91.9z M16.7,94.5c0,0.2,0.2,1,1.1,1.4c0,0,0.3,0.1,0.7,0.2
		c-0.1-0.3-0.1-1.7,0-4.1c0-0.1,0-0.1,0-0.2c-0.9-0.2-1.5-0.6-1.8-0.9l0,0l-0.1,3.2h0C16.7,94.2,16.7,94.5,16.7,94.5z M19,95.9
		c0.3,0.1,1,0.3,1.7,0.4c0,0,1.4,0.1,2.5-0.5c0,0,0.1-0.1,0.3-0.1c0,0,0,0,0,0l-0.1-3.7c-1,0.2-1.7,0.2-1.8,0.2
		c-0.6,0.1-1.9,0-2.5-0.1c0,0,0,0.1,0,0.1C18.9,93.7,18.9,95.5,19,95.9z M22.7,120.3c0.2,0,0.5,0.1,0.7-0.1l-1.1-22.3l0-0.1
		c0,0,0.4-0.6,0.6-1.2c-0.6,0.2-1.6,0.5-2.8,0.3c0.3,0.4,0.5,0.7,0.6,0.8l0.1,0.1l0,0.1c0.1,2.1,0.4,7.8,0.5,8.3l1,10.2L22.7,120.3
		L22.7,120.3z M16.7,95.5l0,23.9c0,0-0.2,2.2,1.1,2.8c0,0,3.7,1.4,6.2,0.2c0.1,0,1.3-0.4,1.4-1.9l0-25.2c-0.5,0.6-1.4,0.9-2,1.1
		c-0.2,0.6-0.7,1.3-0.8,1.5l1.1,22.3l-0.1,0.1c-0.5,0.6-1.3,0.2-1.4,0.2l-0.1-0.1l-0.4-4.1l-1-10.1c-0.1-0.6-0.4-7.4-0.5-8.3
		c-0.3-0.3-0.8-1.1-0.9-1.3l0,0c-1-0.2-1.8-0.5-1.8-0.5C17.2,96.1,16.9,95.8,16.7,95.5L16.7,95.5z M21.6,123.4c-2,0-3.8-0.7-3.9-0.7
		c-1.6-0.7-1.4-3.1-1.4-3.2l0-24.9c0,0,0-0.1,0-0.1l0.1-3.6l0,0c0-0.1,0-0.3,0-0.4c0,0,0-0.1,0-0.1l0-0.1v-7.5c0-0.3,0.4-0.7,0.8-1
		v-5.4l0,0v-0.2h0c0.6-1.5,7.5-1.5,8.1,0h0v5.7c0.4,0.3,0.7,0.6,0.7,0.6l0,0.1v38.1c-0.2,1.9-1.6,2.3-1.7,2.3
		C23.4,123.2,22.5,123.4,21.6,123.4L21.6,123.4z"/>
	<defs>
		<filter id="Adobe_OpacityMaskFilter_4_" filterUnits="userSpaceOnUse" x="21.3" y="80" width="15.3" height="43.4">
			<feColorMatrix  type="matrix" values="1 0 0 0 0  0 1 0 0 0  0 0 1 0 0  0 0 0 1 0"/>
		</filter>
	</defs>
	<mask maskUnits="userSpaceOnUse" x="21.3" y="80" width="15.3" height="43.4" id="prefix__f_2_">
		<g class="st10">
			<path id="prefix__e_2_" class="st2" d="M21.3,80h15.3v43.4H21.3V80z"/>
		</g>
	</mask>
	<path class="st34" d="M21.7,80.8c-0.2,0-0.4-0.2-0.4-0.4s0.2-0.4,0.4-0.4c0.2,0,0.4,0.2,0.4,0.4S22,80.8,21.7,80.8z M32.4,80.8
		c-0.2,0-0.4-0.2-0.4-0.4s0.2-0.4,0.4-0.4s0.4,0.2,0.4,0.4S32.6,80.8,32.4,80.8z M33.3,120.3c0.2,0,0.5,0.1,0.7-0.1L33,97.9l0-0.1
		c0,0,0.4-0.6,0.6-1.2c-0.6,0.2-1.6,0.5-2.8,0.3c0.3,0.4,0.5,0.7,0.6,0.8l0.1,0.1l0,0.1c0.1,2.1,0.4,7.8,0.5,8.3l1,10.1L33.3,120.3
		L33.3,120.3z M33.7,120.7c-0.3,0-0.6-0.1-0.6-0.1l-0.1-0.1l-0.3-4.1l-1-10.1c-0.1-0.6-0.4-7.4-0.5-8.3c-0.3-0.3-0.8-1.1-0.9-1.3
		L30,96.5c-0.4-0.1-0.6-0.2-0.6-0.2l-0.1,0l0-0.1c-0.1-0.2-0.1-1.6,0-4.1c0-0.2,0.1-0.4,0.1-0.5l0.4,0.2l-0.2-0.1l0.2,0.1
		c0,0-0.1,0.2-0.1,0.3c-0.1,1.6-0.1,3.4-0.1,3.8c0.3,0.1,1,0.3,1.7,0.4c0,0,1.4,0.1,2.4-0.5c0,0,0.1-0.1,0.3-0.1l0,0l-0.1-4l0.4,0
		l0.1,4.2l-0.1,0.1c0,0,0,0-0.1,0l-0.1,0.4c-0.2,0.6-0.7,1.4-0.8,1.6l1.1,22.3l-0.1,0.1C34.2,120.7,33.9,120.7,33.7,120.7
		L33.7,120.7z M32.3,123.4c-2,0-3.8-0.7-3.9-0.7c-1.6-0.7-1.4-3.1-1.4-3.2l0-25.2h0.4l0,25.2c0,0-0.2,2.2,1.1,2.8
		c0,0,3.7,1.4,6.2,0.2c0.1,0,1.3-0.4,1.4-1.9l0-26h0.4v26c-0.2,1.9-1.6,2.3-1.7,2.3C34.1,123.2,33.2,123.4,32.3,123.4z"/>
</g>
</svg>
