<svg width="33" height="32" viewBox="0 0 33 32" xmlns="http://www.w3.org/2000/svg">
    <g fill="none" fill-rule="evenodd">
        <path d="M0 0h32v32H0z" transform="translate(.273)"/>
        <g transform="translate(3.198 1.058)" fill="#000">
            <path d="m2.191 29.43-.7-.23 13.164-13.224 4.328 4.3c-.091.057-.175.115-.264.167C13.87 23.27 9.022 26.1 4.167 28.919c-.366.213-.78.342-1.171.51H2.19zM.23 1.564l13.236 13.159L.23 28.024c-.083-.362-.16-.66-.215-.961-.026-.14-.01-.286-.01-.43 0-7.928 0-15.856-.003-23.784 0-.455.042-.896.228-1.285M18.999 9.166 14.7 13.393 1.485.26c.829-.375 1.618-.344 2.38.09 1.328.76 2.647 1.535 3.97 2.305L18.74 9.008c.073.043.145.089.258.158M20.645 10.11c1.351.793 2.814 1.59 4.213 2.487 1.593 1.02 1.496 3.355-.145 4.346-1.18.711-2.378 1.39-3.567 2.084l-.54.314-4.638-4.617 4.677-4.613"/>
        </g>
    </g>
</svg>

