<svg width="33" height="32" viewBox="0 0 33 32" xmlns="http://www.w3.org/2000/svg">
    <g fill="none" fill-rule="evenodd">
        <path d="M.273 0h32v32h-32z"/>
        <g fill="#000">
            <path d="M28.193 22.229c-.681 1.51-1.008 2.183-1.884 3.518-1.224 1.863-2.948 4.183-5.085 4.202-1.899.017-2.387-1.236-4.963-1.222-2.577.014-3.115 1.243-5.015 1.226-2.136-.02-3.77-2.114-4.994-3.977-3.422-5.208-3.78-11.32-1.67-14.57 1.5-2.31 3.866-3.662 6.09-3.662 2.265 0 3.689 1.243 5.562 1.243 1.816 0 2.923-1.245 5.541-1.245 1.98 0 4.077 1.078 5.571 2.942-4.896 2.683-4.1 9.676.847 11.545"/>
            <path d="M19.79 5.662C20.74 4.44 21.462 2.716 21.2.953c-1.554.107-3.372 1.096-4.434 2.385-.963 1.17-1.758 2.906-1.448 4.593 1.696.052 3.45-.961 4.47-2.27"/>
        </g>
    </g>
</svg>
