<svg xmlns="http://www.w3.org/2000/svg" xmlns:xlink="http://www.w3.org/1999/xlink" width="33" height="32" viewBox="0 0 33 32">
    <defs>
        <path id="6e6bpiizca" d="M0 0.143L29.002 0.143 29.002 27.042 0 27.042z"/>
    </defs>
    <g fill="none" fill-rule="evenodd">
        <g>
            <g>
                <g>
                    <g>
                        <g>
                            <g>
                                <path fill="#000" d="M6.329 10.068c-.552 0-.999.448-.999.999 0 .552.447.999.999.999.551 0 .998-.447.998-.999 0-.551-.447-.999-.998-.999M16.193 9.964c-.594 0-1.076.482-1.076 1.076 0 .593.482 1.075 1.076 1.075.593 0 1.075-.482 1.075-1.075 0-.594-.482-1.076-1.075-1.076" transform="translate(-280 -3431) translate(89 1204) translate(8 2130) translate(0 97) translate(183.273) translate(1.455 2.971)"/>
                                <g transform="translate(-280 -3431) translate(89 1204) translate(8 2130) translate(0 97) translate(183.273) translate(1.455 2.971)">
                                    <mask id="7dsc22hnwb" fill="#fff">
                                        <use xlink:href="#6e6bpiizca"/>
                                    </mask>
                                    <path fill="#000" d="M25.498 13.66s.025 2.49-2.505 2.49h-.77v-1.613h.465s1.063.098 1.05-1.54c0 0-.207.664-1.698.664 0 0-2.114-.153-2.114-2.215v-.782s.049-2.139 2.37-2.31c0 0 .917-.097 1.479.66V8.49h1.723v5.172zm-9.305 0c-1.573 0-2.847-1.173-2.847-2.62 0-1.448 1.274-2.622 2.847-2.622 1.572 0 2.847 1.174 2.847 2.622 0 1.447-1.275 2.62-2.847 2.62zm-4.027-5.086v4.9h-1.698V8.623c0-.66-.819-.843-.819-.843V6.07c2.713.109 2.517 2.504 2.517 2.504zm-3.055 2.713c-.012 2.304-2.395 2.37-2.395 2.37-.921 0-1.442-.61-1.442-.61v.415H3.54V6.305c-.007 0-.008-.002 0-.004v.004c.108.018 1.735-.004 1.735-.004V9.04c.409-.696 1.589-.685 1.589-.685 2.57.24 2.248 2.933 2.248 2.933zM25.121.143H3.88C1.737.143 0 1.879 0 4.023v12.606c0 2.143 1.737 3.88 3.88 3.88h7.502l2.552 6.012s.176.521.601.521.601-.52.601-.52l2.552-6.013h7.434c2.143 0 3.88-1.737 3.88-3.88V4.022c0-2.143-1.737-3.88-3.88-3.88z" mask="url(#7dsc22hnwb)"/>
                                </g>
                                <path fill="#000" d="M22.798 9.989c-.58 0-1.051.47-1.051 1.05 0 .581.47 1.051 1.05 1.051.58 0 1.051-.47 1.051-1.05 0-.581-.47-1.051-1.05-1.051" transform="translate(-280 -3431) translate(89 1204) translate(8 2130) translate(0 97) translate(183.273) translate(1.455 2.971)"/>
                            </g>
                        </g>
                    </g>
                </g>
            </g>
        </g>
    </g>
</svg>
