<svg height="32" viewBox="0 0 33 32" width="33" xmlns="http://www.w3.org/2000/svg"><g fill-rule="evenodd" transform="translate(1.546 1.455)"><path d="m14.544 0c-3.951 0-4.446.017-5.997.087-1.548.07-2.606.316-3.53.676-.957.372-1.768.87-2.578 1.678-.808.808-1.305 1.62-1.677 2.576-.36.925-.606 1.983-.676 3.53-.071 1.553-.087 2.047-.087 5.998 0 3.95.017 4.446.087 5.998.07 1.548.316 2.606.676 3.53.372.957.87 1.768 1.677 2.577.809.809 1.62 1.306 2.577 1.678.925.36 1.983.605 3.53.676 1.552.071 2.047.087 5.998.087 3.95 0 4.446-.017 5.998-.087 1.547-.07 2.606-.317 3.53-.676.957-.372 1.768-.87 2.577-1.678.808-.808 1.306-1.62 1.677-2.576.36-.925.606-1.983.676-3.531.072-1.552.088-2.046.088-5.998 0-3.95-.018-4.445-.088-5.997-.07-1.548-.316-2.606-.676-3.53-.371-.957-.869-1.768-1.677-2.577s-1.62-1.306-2.577-1.678c-.924-.36-1.983-.606-3.53-.676-1.552-.071-2.047-.087-5.998-.087m0 2.91c3.79 0 4.239.013 5.736.082 1.383.063 2.134.294 2.635.489.662.257 1.136.565 1.632 1.062s.804.97 1.062 1.631c.195.5.426 1.252.489 2.636.068 1.497.083 1.945.083 5.735s-.015 4.239-.083 5.736c-.063 1.384-.294 2.135-.49 2.636-.256.662-.565 1.135-1.061 1.63-.497.498-.97.805-1.632 1.063-.5.195-1.252.426-2.635.49-1.496.068-1.945.082-5.736.082-3.79 0-4.238-.014-5.735-.083-1.384-.063-2.135-.294-2.636-.489-.662-.257-1.136-.565-1.631-1.062-.497-.497-.804-.97-1.062-1.631-.195-.5-.426-1.252-.49-2.636-.068-1.497-.082-1.945-.082-5.736 0-3.789.014-4.238.082-5.735.064-1.384.295-2.135.49-2.636.256-.662.565-1.135 1.062-1.631.497-.497.969-.804 1.631-1.062.5-.195 1.252-.426 2.636-.49 1.497-.068 1.945-.082 5.735-.082"/><path d="m14.545 18.91c-2.41 0-4.364-1.954-4.364-4.364s1.953-4.364 4.364-4.364c2.41 0 4.363 1.953 4.363 4.364 0 2.41-1.954 4.363-4.363 4.363m0-11.636c-4.018 0-7.274 3.256-7.274 7.272 0 4.017 3.256 7.273 7.273 7.273s7.273-3.256 7.273-7.273c0-4.016-3.256-7.272-7.273-7.272m10.183-.728c0 1.205-.977 2.182-2.182 2.182s-2.181-.977-2.181-2.182.976-2.181 2.181-2.181 2.182.976 2.182 2.181"/></g></svg>