<svg height="38" viewBox="0 0 120 38" width="120" xmlns="http://www.w3.org/2000/svg"><g fill="#fff" fill-rule="evenodd"><path d="m21.294 26.219c0 .964-.782 1.745-1.746 1.745-.965 0-1.746-.781-1.746-1.745 0-.965.781-1.746 1.746-1.746.964 0 1.746.781 1.746 1.746m28.166 5.669c-.752 0-1.363-.61-1.363-1.363v-19.803l-4.193 4.258c-.528.537-1.391.543-1.928.016-.537-.53-.543-1.393-.015-1.929l6.529-6.63c.387-.395.975-.516 1.489-.306.512.21.847.709.847 1.262v23.132c0 .753-.611 1.363-1.365 1.363m-18.568-3.915c-4.378 0-7.938-3.561-7.938-7.938 0-1.813.913-3.823 2.442-5.376.53-.537 1.393-.542 1.93-.014.536.528.542 1.39.014 1.928-1.008 1.023-1.66 2.382-1.66 3.462 0 2.873 2.338 5.21 5.212 5.21 2.873 0 5.211-2.337 5.211-5.21 0-2.071-.674-4.587-5.927-5.667-5.278-1.084-6.418-5.294-6.285-7.416.026-3.838 3.156-6.952 7-6.952 3.926 0 7.001 3.006 7.001 6.841 0 1.577-.926 3.458-2.252 4.577-.575.487-1.436.414-1.922-.162-.485-.575-.413-1.436.163-1.92.768-.65 1.284-1.814 1.284-2.495 0-2.307-1.878-4.114-4.273-4.114-2.357 0-4.275 1.916-4.275 4.273 0 .033 0 .066-.003.1-.02.37-.086 3.735 4.11 4.597 5.379 1.106 8.107 3.911 8.107 8.338 0 4.377-3.562 7.938-7.94 7.938m-24.657-.11c-.131 0-.264-.019-.396-.059-3.407-1.032-5.696-4.118-5.696-7.68 0-4.425 3.6-8.025 8.026-8.025s8.026 3.6 8.026 8.025c0 .753-.611 1.362-1.364 1.362s-1.364-.609-1.364-1.362c0-2.922-2.377-5.299-5.298-5.299-2.922 0-5.3 2.377-5.3 5.299 0 2.315 1.547 4.4 3.76 5.07.721.219 1.128.98.91 1.7-.178.59-.72.97-1.304.97"/><path d="m1.363 37.94c-.344 0-.689-.129-.954-.388-.538-.528-.546-1.39-.02-1.928l11.573-11.804c.97-.993 1.505-2.307 1.505-3.698 0-.754.61-1.365 1.364-1.365.753 0 1.364.611 1.364 1.365 0 2.106-.811 4.098-2.283 5.605l-11.575 11.806c-.267.27-.62.407-.974.407m66.751-25.444h-4.627c-.757 0-1.34.582-1.34 1.34v12.58c0 .736.583 1.318 1.34 1.318.735 0 1.32-.582 1.32-1.318v-11.5h3.09c1.99 0 3.266.93 3.266 2.702v.043c0 1.578-1.254 2.703-3.265 2.703l-.409.004c-.662 0-1.189.526-1.189 1.208 0 .663.527 1.189 1.19 1.189l.321-.002c3.33 0 6.055-1.772 6.055-5.166v-.044c0-3.048-2.206-5.057-5.752-5.057m15.484.864c-.304-.67-.822-1.082-1.58-1.082h-.128c-.757 0-1.297.411-1.6 1.082l-5.623 12.537c-.108.216-.172.41-.172.606 0 .691.54 1.231 1.232 1.231.563 0 1.016-.301 1.233-.842l1.276-2.919h3.2l.834-.013c.648 0 1.165-.517 1.165-1.166 0-.668-.517-1.184-1.165-1.184l-.834.007h-2.184l2.659-6.117 2.66 6.117 1.016 2.356 1.232 2.832c.238.563.67.93 1.297.93.714 0 1.255-.563 1.255-1.276 0-.172-.044-.367-.152-.562zm15.178-.864h-5.406c-.757 0-1.34.582-1.34 1.34v12.58c0 .736.583 1.318 1.34 1.318.736 0 1.32-.582 1.32-1.318v-11.5h3.87c1.967 0 3.135.887 3.135 2.508v.043c0 1.476-1.121 2.45-2.898 2.523h-.01c-.65 0-1.277.496-1.277 1.231 0 .41.173.692.433 1.016l.599.755 3.175 4.05c.302.412.691.692 1.297.692.649 0 1.275-.496 1.275-1.231 0-.41-.173-.692-.432-1.016l-.6-.755-2.276-2.906c2.02-.63 3.416-2.098 3.416-4.51v-.044c0-1.319-.454-2.442-1.254-3.264-.972-.951-2.465-1.512-4.367-1.512m20.756 12.991-2.95-3.685-.033-.058c-.275-.361-.594-.616-1.104-.616-.742 0-1.316.553-1.316 1.274 0 .403.149.657.361.933l.165.182 2.781 3.591c.28.367.605.626 1.123.626.758 0 1.341-.562 1.341-1.296 0-.411-.152-.67-.368-.951m-.389-10.874c.303-.28.476-.584.476-.994 0-.648-.497-1.232-1.233-1.232-.475 0-.8.173-1.102.497l-7.178 7.22v-6.398c0-.735-.584-1.319-1.32-1.319-.756 0-1.34.584-1.34 1.319v12.71c0 .736.584 1.318 1.34 1.318.736 0 1.32-.582 1.32-1.318v-3.135l2.465-2.377 1.859-1.75 4.713-4.54z"/></g></svg>