<svg xmlns="http://www.w3.org/2000/svg" width="233" height="66" viewBox="0 0 233 66">
    <g fill="none" fill-rule="evenodd">
        <g>
            <rect width="230.031" height="64" x="1.326" y="1" stroke="#FFF" stroke-width="2" rx="32"/>
            <path fill="#FFF" d="M168.518 31.266c.68 0 1.233.21 1.641.626.644.655.757 1.619.77 2.082h-5.1c.208-1.292 1.016-2.708 2.689-2.708m.149-1.702c-2.977 0-5.056 2.379-5.056 5.785 0 3.28 2.068 5.4 5.27 5.4 1.684 0 2.855-.37 3.54-.68l.135-.06-.43-1.667-.186.075c-.61.249-1.42.501-2.802.501-.972 0-3.212-.32-3.35-3.242l7.219.021.029-.142c.045-.228.067-.534.067-.934 0-2.333-1.162-5.057-4.436-5.057M84.924 38.75c-.697 1.547-1.032 2.237-1.93 3.604-1.254 1.909-3.02 4.286-5.209 4.306-1.945.017-2.445-1.267-5.085-1.252-2.64.014-3.191 1.274-5.137 1.256-2.19-.02-3.863-2.166-5.117-4.074-3.506-5.337-3.872-11.599-1.71-14.928 1.536-2.366 3.96-3.751 6.24-3.751 2.32 0 3.778 1.273 5.696 1.273 1.861 0 2.996-1.275 5.678-1.275 2.028 0 4.176 1.104 5.707 3.013-5.016 2.749-4.2 9.913.867 11.828"/>
            <path fill="#FFF" d="M76.315 21.777c.974-1.25 1.715-3.018 1.446-4.824-1.591.11-3.454 1.123-4.542 2.444-.987 1.198-1.801 2.977-1.484 4.705 1.738.053 3.536-.985 4.58-2.325M96.795 28.184c.17.66.353 1.345.588 2.085l1.353 3.92h-3.851l1.334-3.945c.203-.64.396-1.331.576-2.06zm-1.191-2.43l-5.022 14.78h2.3l1.499-4.538h4.862l1.541 4.539h2.363l-5.043-14.782h-2.5zM109.088 31.437c1.994 0 2.886 1.846 2.886 3.676 0 2.36-1.139 3.827-2.97 3.827-1.251 0-2.334-.851-2.635-2.075-.052-.19-.08-.441-.08-.724v-1.799c0-.163.037-.36.071-.552.012-.06.024-.122.033-.181.333-1.28 1.44-2.172 2.695-2.172m.558-1.851c-1.524 0-2.744.587-3.556 1.705l-.09-1.47h-2.044l.012.188c.06.915.085 1.923.085 3.371v11.392h2.236v-5.316c.694.83 1.802 1.314 3.057 1.314 1.308 0 2.512-.512 3.39-1.441.979-1.035 1.495-2.523 1.495-4.301 0-1.571-.448-2.93-1.299-3.928-.833-.977-2-1.514-3.286-1.514M120.605 31.437c1.992 0 2.885 1.846 2.885 3.676 0 2.36-1.14 3.827-2.971 3.827-1.25 0-2.333-.851-2.634-2.075-.052-.19-.079-.441-.079-.724v-1.799c0-.163.036-.361.071-.553l.032-.18c.333-1.28 1.44-2.172 2.696-2.172m.556-1.851c-1.523 0-2.742.587-3.555 1.705l-.09-1.47h-2.044l.011.188c.06.916.086 1.923.086 3.371v11.392h2.237v-5.316c.694.83 1.8 1.314 3.056 1.314 1.307 0 2.511-.512 3.39-1.441.978-1.035 1.495-2.523 1.495-4.301 0-1.571-.449-2.93-1.3-3.928-.832-.977-1.999-1.514-3.286-1.514M135.588 32.016c-2.087-.808-2.756-1.443-2.756-2.618 0-.989.786-1.986 2.542-1.986 1.449 0 2.376.504 2.625.66l.19.116.631-1.866-.125-.073c-.374-.22-1.442-.73-3.256-.73-2.853 0-4.844 1.683-4.844 4.093 0 1.943 1.247 3.302 3.925 4.275 1.898.71 2.604 1.436 2.604 2.682 0 1.41-1.09 2.285-2.842 2.285-1.142 0-2.317-.333-3.224-.914l-.194-.124-.6 1.909.11.073c.845.564 2.434.972 3.78.972 3.844 0 5.206-2.344 5.206-4.35 0-2.07-1.092-3.346-3.772-4.404M143.386 27.274l-2.193.688v1.859h-1.606v1.787h1.606v5.475c0 1.323.253 2.251.774 2.837.5.548 1.268.85 2.164.85.845 0 1.446-.167 1.728-.267l.126-.045-.108-1.79-.214.065c-.283.087-.573.12-1.04.12-.867 0-1.237-.548-1.237-1.835v-5.41h2.698V29.82h-2.698v-2.547zM151.561 31.351c2.012 0 2.928 1.961 2.928 3.784 0 2.242-1.25 3.87-2.97 3.87h-.022c-1.696 0-2.927-1.601-2.927-3.806 0-1.915.925-3.848 2.991-3.848m.065-1.766c-3.13 0-5.314 2.336-5.314 5.678 0 3.242 2.114 5.507 5.143 5.507h.02c2.56 0 5.314-1.783 5.314-5.7 0-1.592-.492-2.96-1.425-3.955-.938-1-2.231-1.53-3.738-1.53M163.639 29.69l-.134-.035c-.197-.05-.358-.07-.556-.07-1.17 0-2.22.689-2.804 1.8l-.066-1.565h-2.007l.013.189c.06.885.084 1.878.084 3.22l-.02 7.306h2.236v-5.7c0-.31.021-.604.062-.867.252-1.369 1.176-2.254 2.353-2.254.229 0 .409.019.6.038l.239.025v-2.088z"/>
        </g>
    </g>
</svg>
