<svg xmlns="http://www.w3.org/2000/svg" xmlns:xlink="http://www.w3.org/1999/xlink" width="232" height="66" viewBox="0 0 232 66">
    <defs>
        <path id="hvscdwhz1a" d="M0 0L232.031 0 232.031 66 0 66z"/>
    </defs>
    <g fill="none" fill-rule="evenodd">
        <g>
            <path fill="#FFF" d="M106.929 41.999c-.237 0-1.661.053-2.766.423-.58.209-2.264.841-2.264 2.711 0 1.869 1.818 3.214 4.635 3.214 2.526 0 3.87-1.214 3.87-2.845 0-1.345-.87-2.053-2.871-3.475-.21-.028-.342-.028-.604-.028M105.638 30.255c-.685 0-1.422.342-1.843.87-.448.553-.581 1.263-.581 1.948 0 1.764 1.028 4.687 3.293 4.687.658 0 1.368-.316 1.79-.737.606-.607.657-1.448.657-1.923 0-1.896-1.131-4.845-3.316-4.845M126.806 32.144c0-1.05-1.18-2.257-2.599-2.257-1.05 0-3.019.814-3.019 3.648 0 .446.053.919.08 1.393l4.777-2.076c.498-.183.761-.341.761-.708M92.538 29.827c-.868 0-1.735.343-2.366.896-1.025.918-1.21 2.075-1.21 3.207 0 2.6 1.288 6.885 4.47 6.885 1.025 0 2.077-.5 2.68-1.34.632-.841.79-1.892.79-2.918 0-2.314-1.104-6.73-4.364-6.73M144.448 30.555c-1.287 0-2.217.356-2.79 1.068-.575.712-.87 1.846-.886 3.4v.425c0 1.77.296 3.035.885 3.797.59.762 1.536 1.143 2.837 1.143 1.088 0 1.94-.44 2.557-1.321.616-.88.924-2.094.924-3.642 0-1.57-.308-2.774-.924-3.612-.617-.84-1.485-1.258-2.603-1.258M78.289 29.827c-.867 0-1.735.343-2.366.896-1.025.918-1.21 2.075-1.21 3.207 0 2.6 1.288 6.885 4.47 6.885 1.026 0 2.077-.5 2.682-1.34.63-.841.789-1.892.789-2.918 0-2.314-1.105-6.73-4.365-6.73"/>
            <g>
                <mask id="s31n4igmyb" fill="#fff">
                    <use xlink:href="#hvscdwhz1a"/>
                </mask>
                <path fill="#FFF" d="M174.244 43.5c-.535 1.417-1.16 2.421-1.878 3.016-.716.592-1.595.889-2.636.889-.582 0-1.156-.065-1.723-.195v-1.527c.421.091.893.138 1.413.138 1.31 0 2.243-.735 2.803-2.206l.7-1.792-5.076-12.658h2.043l2.758 7.179c.604 1.639.98 2.822 1.126 3.55h.092c.1-.392.308-1.059.626-2.005.317-.947 1.357-3.853 3.118-8.724h2.045l-5.41 14.335zm-7.504-1.746h-1.413l-.379-1.792h-.092c-.628.789-1.254 1.324-1.878 1.602-.624.28-1.403.419-2.337.419-1.248 0-2.227-.321-2.935-.964-.709-.644-1.063-1.558-1.063-2.746 0-2.541 2.034-3.874 6.1-3.997l2.136-.069v-.781c0-.988-.212-1.718-.637-2.187-.425-.472-1.105-.707-2.04-.707-1.049 0-2.236.322-3.56.965l-.586-1.459c.621-.337 1.3-.601 2.04-.792.738-.192 1.48-.288 2.222-.288 1.501 0 2.613.333 3.337 1 .723.666 1.085 1.734 1.085 3.205v8.591zm-14.28 0h1.905V23.881h-1.906v17.873zm-3.893-1.487c-.924 1.145-2.203 1.716-3.844 1.716-.819 0-1.567-.15-2.244-.453-.678-.302-1.247-.767-1.707-1.395h-.137c.091.735.137 1.431.137 2.09v5.18h-1.905v-18.24h1.55l.264 1.723h.091c.491-.69 1.062-1.187 1.712-1.493.651-.307 1.398-.46 2.24-.46 1.67 0 2.958.571 3.865 1.712s1.362 2.742 1.362 4.801c0 2.068-.462 3.674-1.384 4.819zm-14.97-9.335h-.19v-1.748h-.01l-.534 1.748h-.164l-.538-1.748h-.007v1.748h-.19v-1.911h.326l.487 1.545h.007l.48-1.545h.332v1.911zm-1.979-1.732h-.573v1.732h-.21V29.2h-.573v-.179h1.356v.179zm-3.106 11.474c-.288.159-.577.343-.865.473-.867.394-1.759.499-2.549.499-.837 0-2.15-.054-3.49-1.023-1.863-1.314-2.676-3.572-2.676-5.54 0-4.067 3.307-6.062 6.01-6.062.946 0 1.918.236 2.705.735 1.312.865 1.653 1.994 1.835 2.597l-6.166 2.495-2.022.157c.655 3.334 2.913 5.274 5.407 5.274 1.34 0 2.31-.471 3.202-.917l-1.39 1.312zm-10.384.47h-4.679c.61-.792.713-.872.713-1.4V23.427l.002.01v-.012h-2.02l1.982-.952h3.781c-.82.477-1.084.635-1.19 1.56-.006.055-.01.113-.015.171v14.959c0 1.031.182 1.189 1.055 1.269.45.052.9.078 1.35.132l-.979.58zm-6.856-7.254c0 1.947-1.106 2.871-2.212 3.738-.342.342-.737.712-.737 1.292 0 .578.395.894.685 1.132l.95.736c1.157.974 2.21 1.87 2.21 3.687 0 2.475-2.397 4.976-6.925 4.976-3.819 0-5.66-1.816-5.66-3.766 0-.948.471-2.29 2.026-3.212 1.632-1.001 3.845-1.131 5.03-1.212-.37-.473-.79-.974-.79-1.789 0-.447.131-.711.263-1.028-.29.027-.58.053-.844.053-2.79 0-4.37-2.08-4.37-4.134 0-1.211.554-2.554 1.684-3.528 1.502-1.238 3.292-1.449 4.715-1.449h5.424l-1.686.948h-1.632c.605.501 1.87 1.554 1.87 3.556zm-18.445 7.715c-4.18 0-6.415-3.261-6.415-6.206 0-3.443 2.813-6.387 6.811-6.387 3.862 0 6.281 3.022 6.281 6.204 0 3.101-2.39 6.389-6.677 6.389zm-14.249 0c-4.18 0-6.415-3.261-6.415-6.206 0-3.443 2.813-6.387 6.81-6.387 3.863 0 6.282 3.022 6.282 6.204 0 3.101-2.392 6.389-6.677 6.389zm-8.106-5.33c-.187.159-.212.213-.266.422-.026.239-.05 1.006-.05 1.27v3.226l-3.78.872c-1.535.239-2.909.448-4.362.448-7.295 0-10.069-5.366-10.069-9.568 0-5.127 3.937-9.883 10.677-9.883 1.43 0 2.802.211 4.043.555 1.983.555 2.908 1.241 3.49 1.638l-2.195 2.088-.924.211.66-1.057c-.898-.872-2.538-2.484-5.656-2.484-4.176 0-7.32 3.173-7.32 7.798 0 4.967 3.593 9.645 9.354 9.645 1.694 0 2.564-.343 3.357-.66v-4.255l-3.99.211 2.114-1.138h5.603l-.686.661zm131.544 29.664c.208-.013.412-.04.62-.057.444-.036.891-.069 1.331-.123.177-.022.351-.056.528-.081.464-.066.93-.129 1.386-.214.201-.037.398-.089.597-.13.428-.087.856-.172 1.277-.277.42-.104.83-.228 1.242-.349.196-.057.396-.104.59-.165 1.81-.567 3.551-1.291 5.208-2.154.64-.334 1.267-.688 1.881-1.063 9.206-5.619 15.355-15.752 15.355-27.326v-2c0-17.673-14.327-32-32-32H32.001c-4.775 0-9.3 1.053-13.369 2.927-.687.317-1.362.657-2.02 1.02-.199.108-.386.233-.58.345-.457.264-.915.524-1.357.809-.464.3-.91.623-1.358.945-.16.116-.328.22-.487.339-.439.329-.859.68-1.28 1.031-.154.127-.316.245-.467.376-.364.314-.708.649-1.058.98-.193.183-.396.355-.585.543-.3.299-.582.617-.87.928-.22.236-.45.463-.664.706-.235.269-.45.554-.678.831-.247.302-.504.596-.739.908-.207.272-.394.56-.592.839-.236.331-.48.656-.703.996-.203.312-.386.638-.578.957-.196.324-.403.641-.588.972-.185.333-.348.68-.522 1.02-.17.331-.35.655-.509.993-.174.374-.325.762-.485 1.143-.134.317-.28.627-.404.95-.16.419-.294.85-.437 1.277-.1.297-.214.588-.305.889-.124.412-.222.836-.33 1.255-.085.327-.184.647-.258.978-.087.386-.146.783-.219 1.175-.069.373-.152.741-.209 1.119-.056.376-.085.761-.127 1.142-.045.401-.104.799-.134 1.206-.029.382-.029.773-.043 1.159C.03 31.172 0 31.583 0 32v2c0 .275.014.546.02.819.008.278.008.557.022.833.014.279.042.555.063.832.02.264.034.53.06.792.026.251.064.499.096.749.036.285.066.571.108.853.034.221.08.437.118.656.053.307.102.615.164.919.044.216.1.428.148.643.07.303.133.607.21.906.041.159.09.313.133.471.097.35.19.702.298 1.048.047.15.102.297.152.447.113.348.226.696.351 1.038.054.149.117.292.173.44.13.339.26.68.4 1.014.04.092.084.182.124.273.167.385.336.768.518 1.144.023.048.048.094.071.141.204.418.414.832.635 1.239.025.046.053.09.078.136 4.441 8.076 12.264 14.029 21.564 15.946l.042.01c.911.187 1.838.327 2.776.435.134.015.267.037.401.05.322.033.648.052.973.075.218.015.434.038.652.049.283.015.57.015.853.022.266.006.53.02.797.02h168.031c.306 0 .607-.019.91-.028.36-.01.72-.011 1.075-.033z" mask="url(#s31n4igmyb)"/>
            </g>
            <path fill="#FFF" d="M159.647 36.35c-.67.418-1.005 1.067-1.005 1.947 0 .689.209 1.214.626 1.573.418.36 1.001.54 1.753.54 1.186 0 2.118-.325 2.796-.976.677-.65 1.017-1.562 1.017-2.734v-1.137l-1.908.08c-1.516.054-2.609.289-3.279.708"/>
        </g>
    </g>
</svg>
