<svg xmlns="http://www.w3.org/2000/svg" width="232" height="67" viewBox="0 0 232 67">
    <g fill="none" fill-rule="evenodd">
        <g>
            <path fill="#FFF" d="M144.504 31.493c-1.287 0-2.217.357-2.791 1.068-.575.712-.87 1.846-.885 3.4v.425c0 1.77.295 3.035.885 3.797.59.762 1.536 1.142 2.837 1.142 1.087 0 1.94-.44 2.556-1.32.616-.88.924-2.094.924-3.642 0-1.569-.308-2.774-.924-3.612-.616-.84-1.484-1.258-2.602-1.258m.275 11.429c-.82 0-1.568-.151-2.245-.454-.677-.302-1.246-.767-1.706-1.395h-.138c.092.735.138 1.432.138 2.09v5.18h-1.906v-18.24h1.55l.264 1.723h.092c.49-.69 1.061-1.187 1.712-1.493.65-.306 1.397-.46 2.24-.46 1.67 0 2.958.571 3.865 1.712.907 1.14 1.361 2.742 1.361 4.8 0 2.07-.461 3.675-1.384 4.82-.923 1.145-2.203 1.717-3.843 1.717M152.514 42.692L154.421 42.692 154.421 24.819 152.514 24.819zM161.076 41.348c1.186 0 2.118-.325 2.796-.976.678-.65 1.017-1.562 1.017-2.734v-1.137l-1.908.08c-1.515.054-2.608.289-3.279.708-.67.416-1.005 1.066-1.005 1.946 0 .689.209 1.214.626 1.573.418.36 1.001.54 1.753.54zm4.307 1.344l-.38-1.792h-.091c-.628.79-1.254 1.324-1.879 1.602-.623.28-1.403.42-2.337.42-1.248 0-2.226-.322-2.935-.965-.708-.643-1.062-1.558-1.062-2.745 0-2.542 2.033-3.875 6.099-3.997l2.137-.07v-.78c0-.988-.213-1.718-.638-2.188-.425-.472-1.105-.707-2.039-.707-1.05 0-2.236.321-3.56.965l-.587-1.459c.621-.337 1.3-.6 2.04-.792.738-.192 1.48-.288 2.222-.288 1.501 0 2.613.333 3.337 1 .723.666 1.085 1.734 1.085 3.205v8.591h-1.412zM167.902 30.103h2.044l2.757 7.179c.605 1.64.98 2.822 1.126 3.55h.092c.1-.391.308-1.059.626-2.005.317-.947 1.358-3.853 3.118-8.724h2.045l-5.41 14.335c-.536 1.417-1.162 2.422-1.879 3.016-.715.593-1.594.889-2.635.889-.582 0-1.157-.065-1.724-.195v-1.527c.421.091.893.138 1.414.138 1.31 0 2.243-.735 2.802-2.206l.7-1.792-5.076-12.658zM126.1 33.79c.499-.183.761-.341.761-.708 0-1.05-1.18-2.258-2.599-2.258-1.05 0-3.018.815-3.018 3.649 0 .446.052.918.08 1.392l4.777-2.075zm2.467 7.823c-.288.158-.576.342-.864.473-.868.393-1.76.498-2.549.498-.838 0-2.151-.053-3.491-1.023-1.862-1.314-2.676-3.571-2.676-5.54 0-4.067 3.308-6.062 6.01-6.062.946 0 1.918.236 2.706.736 1.311.864 1.652 1.993 1.835 2.596l-6.167 2.495-2.021.158c.655 3.333 2.912 5.273 5.407 5.273 1.338 0 2.31-.47 3.202-.917l-1.392 1.313zM108.353 37.961c.605-.607.657-1.448.657-1.923 0-1.895-1.132-4.844-3.317-4.844-.685 0-1.422.342-1.843.87-.448.552-.58 1.262-.58 1.948 0 1.764 1.027 4.687 3.292 4.687.658 0 1.368-.316 1.79-.738zm-.764 5.004c-.21-.028-.343-.028-.605-.028-.237 0-1.66.054-2.765.423-.58.21-2.265.841-2.265 2.712 0 1.869 1.817 3.213 4.635 3.213 2.527 0 3.87-1.213 3.87-2.845 0-1.345-.868-2.053-2.87-3.475zm1.87-11.692c.605.5 1.868 1.553 1.868 3.555 0 1.947-1.105 2.87-2.211 3.739-.343.341-.738.711-.738 1.291 0 .578.395.895.686 1.132l.948.736c1.158.974 2.21 1.87 2.21 3.687 0 2.475-2.396 4.976-6.924 4.976-3.818 0-5.66-1.816-5.66-3.766 0-.947.471-2.29 2.027-3.212 1.63-1.001 3.844-1.131 5.029-1.212-.37-.473-.79-.974-.79-1.789 0-.447.131-.71.263-1.028-.291.027-.58.053-.844.053-2.79 0-4.37-2.08-4.37-4.133 0-1.212.554-2.555 1.685-3.529 1.501-1.237 3.291-1.448 4.715-1.448h5.423l-1.686.948h-1.631zM96.167 40.414c.632-.842.79-1.893.79-2.919 0-2.314-1.104-6.73-4.364-6.73-.867 0-1.734.342-2.365.896-1.026.918-1.21 2.075-1.21 3.207 0 2.601 1.287 6.885 4.47 6.885 1.024 0 2.076-.499 2.68-1.34m-3.286 2.13c-4.18 0-6.414-3.26-6.414-6.205 0-3.444 2.813-6.387 6.81-6.387 3.863 0 6.281 3.022 6.281 6.204 0 3.1-2.391 6.388-6.677 6.388M81.92 40.414c.63-.842.789-1.893.789-2.919 0-2.314-1.105-6.73-4.365-6.73-.867 0-1.735.342-2.366.896-1.025.918-1.209 2.075-1.209 3.207 0 2.601 1.287 6.885 4.47 6.885 1.025 0 2.076-.499 2.68-1.34m-3.286 2.13c-4.18 0-6.415-3.26-6.415-6.205 0-3.444 2.814-6.387 6.81-6.387 3.864 0 6.282 3.022 6.282 6.204 0 3.1-2.391 6.388-6.677 6.388M70.21 42.13l-3.78.873c-1.534.239-2.907.448-4.36.448-7.296 0-10.07-5.365-10.07-9.568C52 28.757 55.937 24 62.678 24c1.428 0 2.8.211 4.043.555 1.982.555 2.907 1.241 3.489 1.639l-2.194 2.088-.925.21.66-1.057c-.897-.872-2.538-2.484-5.655-2.484-4.176 0-7.322 3.173-7.322 7.798 0 4.967 3.595 9.645 9.356 9.645 1.693 0 2.563-.343 3.357-.66v-4.255l-3.99.211 2.113-1.137h5.603l-.686.66c-.186.16-.212.213-.265.423-.027.238-.052 1.005-.052 1.27v3.225z"/>
            <rect width="230.031" height="64" x="1.056" y="1.938" stroke="#FFF" stroke-width="2" rx="32"/>
            <path fill="#FFF" d="M117.812 41.37c-.872-.08-1.055-.238-1.055-1.27V25.143l.014-.17c.107-.925.371-1.084 1.192-1.56h-3.781l-1.984.951h2.021v.012l-.001-.01v16.317c0 .528-.105.608-.714 1.4h4.68l.977-.58c-.449-.054-.899-.08-1.349-.132M131.101 30.139L131.101 31.87 130.89 31.87 130.89 30.139 130.317 30.139 130.317 29.959 131.673 29.959 131.673 30.139zM133.462 31.87L133.462 30.122 133.452 30.122 132.919 31.87 132.754 31.87 132.216 30.122 132.209 30.122 132.209 31.87 132.018 31.87 132.018 29.959 132.346 29.959 132.833 31.504 132.839 31.504 133.319 29.959 133.651 29.959 133.651 31.87z"/>
        </g>
    </g>
</svg>
