<svg xmlns="http://www.w3.org/2000/svg" width="173" height="96" viewBox="0 0 173 96">
    <g fill="none" fill-rule="evenodd" stroke-linecap="round" stroke-linejoin="round">
        <g stroke="#FFFFFF" stroke-width="7">
            <g>
                <path d="M162.766 66.153c-9.357 0-16.94-7.916-16.94-17.678 0-9.765 7.583-17.678 16.94-17.678V7.224H10v82.5h152.766M49.196 29.757L49.196 66.789" transform="translate(0 -1) translate(0 .376)"/>
                <path d="M101.282 35.716c0 3.294-2.67 5.963-5.962 5.963-3.294 0-5.965-2.669-5.965-5.963s2.67-5.962 5.965-5.962c3.291 0 5.962 2.668 5.962 5.962zM128.255 62.69c0 3.295-2.67 5.963-5.962 5.963-3.294 0-5.963-2.668-5.963-5.962 0-3.295 2.669-5.963 5.963-5.963 3.291 0 5.962 2.668 5.962 5.963zM127.33 29.97L89.357 67.943M63.611 53.742L49.197 68.156 34.782 53.742" transform="translate(0 -1) translate(0 .376)"/>
            </g>
        </g>
    </g>
</svg>
