<svg xmlns="http://www.w3.org/2000/svg" width="129" height="129" viewBox="0 0 129 129">
    <g fill="none" fill-rule="evenodd" stroke-linecap="round">
        <g stroke="#3C93FF" stroke-width="6.5">
            <path stroke-linejoin="round" d="M91.55 40.584c9.384 0 16.99-7.606 16.99-16.989 0-9.383-7.606-16.989-16.99-16.989-9.382 0-16.988 7.606-16.988 16.99 0 9.382 7.606 16.988 16.989 16.988zM66.475 57.66c3.556-3.186 8.165-4.948 12.941-4.94h24.27c10.722 0 19.416 8.693 19.416 19.415v33.978c0 2.68-2.173 4.854-4.854 4.854H70.516"/>
            <path d="M81.843 81.843h19.416M91.55 91.55V72.135"/>
            <path stroke-linejoin="round" d="M38.157 52.719c9.383 0 16.99-7.606 16.99-16.989 0-9.383-7.607-16.989-16.99-16.989-9.382 0-16.988 7.606-16.988 16.989 0 9.383 7.606 16.989 16.988 16.989zM45.438 123.101H11.461c-2.68 0-4.854-2.174-4.854-4.854V84.27c0-10.723 8.693-19.416 19.416-19.416h24.27c10.722 0 19.415 8.693 19.415 19.416v33.977c0 2.68-2.174 4.854-4.854 4.854h-7.28"/>
        </g>
    </g>
</svg>
