<svg width="144" height="36" viewBox="0 0 144 36" fill="none" xmlns="http://www.w3.org/2000/svg">
<g clip-path="url(#clip0_2297_10864)">
<path d="M30.5587 11.448C30.1605 11.0547 29.9605 10.5666 29.9605 9.98021C29.9605 9.39381 30.1605 8.90395 30.5587 8.51063C30.9569 8.11731 31.4578 7.92065 32.0612 7.92065C32.6646 7.92065 33.1637 8.11731 33.5636 8.51063C33.9619 8.90395 34.1618 9.39381 34.1618 9.98021C34.1618 10.5666 33.9619 11.0565 33.5636 11.4498C33.1654 11.8431 32.6646 12.0398 32.0612 12.0398C31.4578 12.0398 30.9587 11.8431 30.5587 11.4498V11.448ZM33.7462 13.6953V27.6062H30.3274V13.6953H33.7462Z" fill="#CCCCCC"/>
<path d="M48.5219 15.0653C49.5148 16.1111 50.0122 17.5718 50.0122 19.4472V27.6085H46.5934V19.9245C46.5934 18.8197 46.3256 17.9704 45.7883 17.3751C45.2509 16.7816 44.5188 16.483 43.5902 16.483C42.6616 16.483 41.8999 16.7798 41.3556 17.3751C40.8096 17.9687 40.5366 18.8197 40.5366 19.9245V27.6085H37.1178V13.6958H40.5366V15.4282C40.9922 14.8257 41.5748 14.3519 42.2825 14.0087C42.9903 13.6654 43.7676 13.4938 44.6145 13.4938C46.2265 13.4938 47.529 14.0176 48.5219 15.0635V15.0653Z" fill="#CCCCCC"/>
<path d="M57.242 16.5841V23.3134C57.242 23.7818 57.3516 24.1215 57.5724 24.3307C57.7916 24.5398 58.162 24.6453 58.6836 24.6453H60.2713V27.6077H58.122C55.2405 27.6077 53.7989 26.1685 53.7989 23.2884V16.5841H52.1869V13.6968H53.7989V10.2552H57.242V13.695H60.2713V16.5823H57.242V16.5841Z" fill="#CCCCCC"/>
<path d="M75.2172 21.7071H65.326C65.4077 22.7118 65.7485 23.4985 66.352 24.067C66.9536 24.6355 67.6962 24.9216 68.5744 24.9216C69.8438 24.9216 70.7481 24.3602 71.2854 23.2392H74.9737C74.5825 24.5783 73.833 25.6796 72.727 26.5413C71.6193 27.403 70.2594 27.8339 68.6474 27.8339C67.3449 27.8339 66.1763 27.5371 65.1416 26.9418C64.107 26.3482 63.3018 25.5062 62.7245 24.4174C62.1454 23.3286 61.8568 22.0736 61.8568 20.6505C61.8568 19.2274 62.1419 17.9473 62.7123 16.8586C63.2827 15.7698 64.0809 14.9331 65.1051 14.3485C66.1311 13.7621 67.3119 13.4689 68.6474 13.4689C69.9829 13.4689 71.0854 13.7531 72.1027 14.3234C73.12 14.892 73.9095 15.7001 74.4712 16.7459C75.0329 17.7918 75.3146 18.9932 75.3146 20.3484C75.3146 20.8507 75.2815 21.303 75.2172 21.7035V21.7071ZM71.774 19.3472C71.7584 18.4426 71.4402 17.7203 70.8211 17.175C70.202 16.6315 69.4456 16.3598 68.55 16.3598C67.7031 16.3598 66.9902 16.6244 66.4128 17.15C65.8338 17.6774 65.4807 18.4104 65.3503 19.3472H71.774Z" fill="#CCCCCC"/>
<path d="M82.9488 14.1232C83.6565 13.7049 84.4669 13.4957 85.3798 13.4957V17.1876H84.4756C83.4009 17.1876 82.5906 17.4468 82.0463 17.9652C81.5002 18.4837 81.2272 19.3883 81.2272 20.6774V27.6069H77.8084V13.696H81.2272V15.8556C81.6672 15.1191 82.241 14.5416 82.9488 14.1232Z" fill="#CCCCCC"/>
<path d="M92.913 14.1102C93.6869 13.683 94.5703 13.4702 95.5632 13.4702C96.7196 13.4702 97.7647 13.7634 98.702 14.3498C99.6376 14.9362 100.378 15.7693 100.924 16.8474C101.47 17.9272 101.743 19.1787 101.743 20.6018C101.743 22.0249 101.47 23.2853 100.924 24.3812C100.378 25.4771 99.6376 26.3263 98.702 26.9306C97.7665 27.5331 96.7196 27.8352 95.5632 27.8352C94.5703 27.8352 93.6956 27.6261 92.9374 27.2077C92.1809 26.7894 91.5653 26.262 91.0941 25.6255V34.2374H87.6753V13.6955H91.0941V15.705C91.534 15.0685 92.1392 14.5375 92.913 14.1102ZM97.7491 18.4296C97.4152 17.8182 96.9752 17.3533 96.431 17.0369C95.8849 16.7187 95.2954 16.5595 94.6607 16.5595C94.026 16.5595 93.4591 16.7222 92.9148 17.0494C92.3687 17.3766 91.9288 17.8486 91.5966 18.4689C91.2628 19.0893 91.0958 19.8169 91.0958 20.6536C91.0958 21.4903 91.2628 22.2197 91.5966 22.8383C91.9305 23.4569 92.3705 23.9307 92.9148 24.2578C93.4608 24.585 94.0416 24.7477 94.6607 24.7477C95.2798 24.7477 95.8849 24.5797 96.431 24.2453C96.977 23.911 97.4152 23.4337 97.7491 22.8133C98.083 22.1947 98.2499 21.4581 98.2499 20.6036C98.2499 19.749 98.083 19.0428 97.7491 18.4314V18.4296Z" fill="#CCCCCC"/>
<path d="M104.173 16.8599C104.719 15.7711 105.459 14.9344 106.395 14.3498C107.331 13.7634 108.377 13.4702 109.534 13.4702C110.542 13.4702 111.426 13.6794 112.184 14.0977C112.94 14.5161 113.547 15.0435 114.003 15.6799V13.6955H117.446V27.6064H114.003V25.5719C113.563 26.2244 112.956 26.7644 112.184 27.1916C111.41 27.6189 110.518 27.8317 109.51 27.8317C108.37 27.8317 107.332 27.5295 106.395 26.927C105.458 26.3246 104.717 25.4753 104.173 24.3776C103.627 23.2817 103.354 22.0213 103.354 20.5982C103.354 19.1751 103.627 17.9451 104.173 16.8563V16.8599ZM113.514 18.4546C113.189 17.8432 112.749 17.3748 112.196 17.0476C111.643 16.7204 111.048 16.5578 110.414 16.5578C109.779 16.5578 109.193 16.7169 108.656 17.0351C108.118 17.3533 107.682 17.8182 107.35 18.4278C107.016 19.0392 106.849 19.7633 106.849 20.6C106.849 21.4367 107.016 22.1697 107.35 22.7972C107.684 23.4247 108.124 23.9056 108.668 24.2418C109.214 24.5761 109.795 24.7441 110.414 24.7441C111.033 24.7441 111.643 24.5814 112.196 24.2543C112.749 23.9271 113.189 23.4587 113.514 22.8473C113.84 22.2358 114.003 21.5046 114.003 20.6501C114.003 19.7955 113.84 19.0643 113.514 18.4528V18.4546Z" fill="#CCCCCC"/>
<path d="M125.628 14.1232C126.336 13.7049 127.147 13.4957 128.06 13.4957V17.1876H127.155C126.081 17.1876 125.27 17.4468 124.726 17.9652C124.18 18.4837 123.907 19.3883 123.907 20.6774V27.6069H120.488V13.696H123.907V15.8556C124.347 15.1191 124.921 14.5416 125.628 14.1232Z" fill="#CCCCCC"/>
<path d="M138.669 27.6069L134.078 21.6803V27.6069H130.66V9.02625H134.078V19.5975L138.621 13.696H143.065L137.106 20.6774L143.114 27.6069H138.669Z" fill="#CCCCCC"/>
</g>
<path d="M20.9616 32.5051H20.4875C20.3251 32.5051 20.1873 32.3822 20.1641 32.2174C19.877 30.0907 18.7707 27.4665 16.2477 24.7884C16.0868 24.619 16.0563 24.3553 16.181 24.1575C18.3893 20.6281 20.4324 15.3302 19.3217 11.8008C19.0375 10.8941 18.5677 10.1493 17.934 9.58878C17.8064 9.47638 17.8282 9.26956 17.9761 9.18713C19.5609 8.3164 20.6107 6.53597 20.4715 4.52174C20.3033 2.11486 18.4053 0.169577 16.0781 0.0107165C13.3333 -0.17512 11.0423 2.08039 11.0423 4.87843C11.0423 6.31716 11.6469 7.61202 12.6083 8.50374C12.7315 8.61764 12.7069 8.82146 12.5604 8.90089C12.3473 9.01628 12.1399 9.14967 11.9384 9.29954C9.62854 11.044 8.8934 14.7023 8.82381 16.5876C8.79191 17.4299 8.8499 18.2541 8.99635 19.0664C9.2849 20.6925 9.92869 22.2646 10.9379 23.8023C11.2438 24.2669 11.5846 24.709 11.9529 25.1226L13.8262 27.2372C15.7228 29.4298 16.7422 31.5819 16.8886 33.5572C16.8959 33.6306 16.9017 33.7025 16.9046 33.776C16.9582 35.0229 17.9471 36 19.1564 36H21.0167C21.9606 36 22.7233 35.2012 22.7074 34.2196C22.6914 33.2574 21.891 32.5036 20.9602 32.5036L20.9616 32.5051ZM15.762 3.49365C16.5 3.49365 17.1018 4.1141 17.1018 4.87843C17.1018 5.64276 16.5015 6.26321 15.762 6.26321C15.0225 6.26321 14.4236 5.64276 14.4236 4.87843C14.4236 4.1141 15.0225 3.49365 15.762 3.49365ZM13.3811 21.2695C12.5256 19.7813 12.1457 18.2916 12.2023 16.7225C12.2632 15.0919 12.9432 12.8709 13.9321 12.123C14.1061 11.9927 14.325 11.8698 14.6571 11.8698C14.8035 11.8698 14.9717 11.8938 15.1689 11.9492C15.6692 12.0931 15.9403 12.3628 16.1027 12.8814C16.603 14.467 15.7721 18.0024 13.948 21.2605C13.8219 21.4868 13.5087 21.4913 13.3797 21.2695H13.3811Z" fill="#CCCCCC"/>
<path d="M9.63993 26.5366C9.58918 26.4646 9.49348 26.4482 9.42098 26.4946C6.67037 28.2825 4.63024 27.244 3.75445 26.9532C2.64521 26.583 1.45913 27.1375 0.996582 28.2451L0.139642 30.2893C-0.231553 31.175 0.162842 32.2031 1.01978 32.5868C1.87672 32.9704 2.87141 32.5628 3.24261 31.6786L3.61235 30.7973C3.67325 30.6505 3.8255 30.568 3.9763 30.5995C5.78008 30.9697 8.41469 31.4328 11.5452 29.2462C11.6279 29.1892 11.6409 29.0678 11.5742 28.9929C11.2784 28.6542 10.9841 28.3035 10.6941 27.9393C10.3229 27.4733 9.97198 27.0057 9.64138 26.5381L9.63993 26.5366Z" fill="#CCCCCC"/>
<defs>
<clipPath id="clip0_2297_10864">
<rect width="113.154" height="26.3147" fill="white" transform="translate(29.9608 7.92017)"/>
</clipPath>
</defs>
</svg>
