<svg xmlns="http://www.w3.org/2000/svg" width="64" height="64" viewBox="0 0 64 64">
    <defs>
        <style>
            .cls-2{fill:#010101}.cls-5{fill:#ffede1}.cls-8{fill:#723822}
        </style>
    </defs>
    <g id="ico_sep" transform="translate(-76 -609.459)">
        <path id="사각형_844" fill="#fff" d="M0 0H64V64H0z" transform="translate(76 609.459)"/>
        <path id="패스_2920" d="M23.5 0c12.979 0 23.061 3.024 23.061 5.785s-8.1 4.878-23.481 4.5S.439 7.908.439 5.147 10.521 0 23.5 0z" class="cls-2" transform="translate(85 662.459)"/>
        <g id="그룹_477" transform="translate(-3 -1)">
            <path id="합치기_44" fill="#010101" stroke="#010101" d="M-6645.141 1782.964a5.953 5.953 0 0 1 .361-1.078 18.718 18.718 0 0 1 3.389-4.778 18.533 18.533 0 0 1 4.217-3.338h-.038l7.2-6.258 1.064-4.445a7.477 7.477 0 0 1-6.062-1.334c-2.953-1.763-5.821-8.748-6.516-14.2-.407-1.9-.932-5.156-.177-6.741a62.219 62.219 0 0 1-6.031-3.122l.036-.013c-3.934-.72 2-5.117 5.455-6.458 3.571-1.384 13.434-4.507 22.313-1.427s7.676 14.19 7.676 14.19l-.016.036c2.333 2.481 4.03 10.105 4.452 21.321.441 11.752-5.985-2.572-8.112-12.9a56.029 56.029 0 0 1-1.7 6.444l1.88 5.719 3.784 3.157-.436.559a15.488 15.488 0 0 1 6.634 4.715c2.892 3.464 4.954 8.76 5.563 10.262a1.506 1.506 0 0 1 0 1.159zm29.654-17.578l.38.479-.583-1.095z" transform="translate(6734.233 -1115.067)"/>
        </g>
        <g id="그룹_476" transform="translate(-3 -1)">
            <path id="패스_2886" fill="#d50037" d="M105.229 665.975l-3.771-3.092a17.786 17.786 0 0 0-5.7 4.089c-2.711 2.894-4.029 5.866-2.811 7.317s8.7 2.974 20.363 3.191 21.175-.986 22.567-2.495-1.04-7.964-4.5-12.1a14.738 14.738 0 0 0-7.522-4.978z" transform="translate(-2.914 -4.933)"/>
            <path id="패스_2882" d="M6758.014-1078.106s-1.217 2.624-1.831 8.885c-.025.252-2.079 2.057-2.3 2.693-.321.973.343 4.119.343 4.119l8.661-2.482 8.8-7.023-1.026-1.294-4.329-13.165z" class="cls-5" transform="translate(-6651.914 1723.527)"/>
            <path id="패스_2887" fill="#ac9274" d="M115.145 647.833l-9.67 11.291 2.072-8.653 9.549-7.109z" transform="translate(-1.914 -3.933)"/>
            <path id="패스_2879" d="M95.845 629.527c-5.375.472-.663 18.118 4.291 21.074 2.647 1.8 4.2 1.538 6.5 1.285a13.385 13.385 0 0 0 9.391-6.4c2.693-4.579 2.88-12.885 2.88-12.885s3.114-3.621-2.358-1.009-3.458-6.658-6.147-7.871-4.789-2.585-8.975-.98a5.049 5.049 0 0 0-.608.3c-3.903 2.22.401 6.015-4.974 6.486z" class="cls-5" transform="translate(-.914 -3.933)"/>
            <path id="패스_2880" fill="none" stroke="#3e1f1f" d="M102.683 643.256s3.018 4.9 6.884 0" transform="rotate(-3 48.66 698.52)"/>
            <path id="패스_2883" d="M125.4 639.374c4.051-3.683 7.366 5.033 7.98 21.362s-12.027-17.679-7.98-21.362z" class="cls-8" transform="translate(-6.971 -10.483)"/>
            <path id="패스_2884" d="M107.114 664.986l-1.919 8.811a22.757 22.757 0 0 0-2.3-1.95 5.329 5.329 0 0 0-2.965-.691z" class="cls-2" transform="translate(-2.914 -12.451)"/>
            <path id="패스_2885" d="M109.01 674.833v-.422s3.774-1.559 8.089-3.779a65.977 65.977 0 0 0 9.153-5.666l-1.092-2.052 3.853 3.214-8.738 11.2s-.525-2.453-4.81-2.825a18.092 18.092 0 0 0-6.455.33z" class="cls-2" transform="translate(-6.745 -13.451)"/>
            <path id="패스_2890" fill="#222" d="M89.857 626.581c4.73.491 12.318-1.785 20.708 1.963a20.99 20.99 0 0 1 10.888 11.918l3.437-7.634s1.2-11.112-7.676-14.191-18.743.045-22.313 1.428-9.774 6.025-5.044 6.516z" transform="translate(-2.914 -3.933)"/>
            <path id="패스_2891" d="M96.551 629.973c.581.019-1.14-.421.625-1.517 1.694-1.055 6.257-.976 9.237-1.026 3.258-.045-2.785-1.738-8.479-2.321-3.6-.368-8.523 1.428-8.523 1.428s5.801 3.391 7.14 3.436z" transform="translate(-2.914 -3.933)"/>
            <path id="패스_2892" d="M107.382 627.288a25.442 25.442 0 0 0-7.473 3.38c-3 2.222-3.933 7.849-3.933 7.849s-2.058-8.054 0-9.526a6.687 6.687 0 0 1 4.105-1.83 32.276 32.276 0 0 1 7.301.127z" class="cls-8" transform="translate(-2.914 -3.933)"/>
            <path id="패스_2893" d="M108.833 627.557c-1.547-.078 8.935 8.9 9.189 12.411s.894 9.512.894 9.512 2.51-6.686 2.819-12.109-11.356-9.736-12.902-9.814z" class="cls-8" transform="translate(-2.914 -3.933)"/>
            <path id="패스_2896" d="M115.628 632.951l1.919 5.317a21.55 21.55 0 0 0 1.653-5.068c.344-2.324.043-4.263-1.34-3.415a7.277 7.277 0 0 0-2.232 3.166z" class="cls-5" transform="translate(0 .054)"/>
            <path id="패스_2897" fill="none" stroke="#d50037" stroke-linecap="round" stroke-width="2px" d="M107.2 621.774a16.474 16.474 0 0 1 5.963 1.72c1.18.59 3.911 2.361 5.017 4.28" transform="translate(0 -1)"/>
            <path id="패스_2894" fill="none" stroke="#010101" d="M6772.03-1067.18s-2.112 3.7-.98 10.333" transform="translate(-6649 1729.459)"/>
            <path id="패스_2898" fill="#d19f7e" d="M6750.788-1094.967v4.489a5.35 5.35 0 0 1-1.077-.2 2.172 2.172 0 0 1-.872-.841z" transform="translate(-6648.904 1727.8)"/>
        </g>
    </g>
</svg>
