<svg xmlns="http://www.w3.org/2000/svg" width="320" height="202.988" viewBox="0 0 320 202.988">
    <defs>
        <style>
            .cls-1,.cls-2,.cls-4,.cls-5{fill:#fff}.cls-2,.cls-3{stroke:#000}.cls-13,.cls-3{fill:none}.cls-3,.cls-4{stroke-width:2px}.cls-4,.cls-5{stroke:#010101}.cls-7{fill:#53575a}.cls-8{fill:#d60037}.cls-11,.cls-12{stroke:none}.cls-12{fill:#010101}
        </style>
    </defs>
    <g id="img_p_news_illust" transform="translate(-1152 -2188.335)">
        <g id="서류" transform="translate(233 85.322)">
            <g id="패스_2736" class="cls-1">
                <path d="M64 82H1V1h52.27v10.696H64V82z" class="cls-11" transform="translate(1135 2223)"/>
                <path d="M2 2v79h61V12.696H52.27V2H2M0 0h54.27v10.696H65V83H0V0z" class="cls-12" transform="translate(1135 2223)"/>
            </g>
            <g id="사각형_597" class="cls-2">
                <path d="M0 0H10V2H0z" class="cls-11" transform="translate(1149 2246)"/>
                <path d="M0.5 0.5H9.5V1.5H0.5z" class="cls-13" transform="translate(1149 2246)"/>
            </g>
            <g id="사각형_598" class="cls-2">
                <path d="M0 0H37V2H0z" class="cls-11" transform="translate(1149 2254)"/>
                <path d="M0.5 0.5H36.5V1.5H0.5z" class="cls-13" transform="translate(1149 2254)"/>
            </g>
            <g id="사각형_599" class="cls-2">
                <path d="M0 0H37V2H0z" class="cls-11" transform="translate(1149 2262)"/>
                <path d="M0.5 0.5H36.5V1.5H0.5z" class="cls-13" transform="translate(1149 2262)"/>
            </g>
            <g id="사각형_600" class="cls-2">
                <path d="M0 0H37V2H0z" class="cls-11" transform="translate(1149 2270)"/>
                <path d="M0.5 0.5H36.5V1.5H0.5z" class="cls-13" transform="translate(1149 2270)"/>
            </g>
            <g id="사각형_601" class="cls-2">
                <path d="M0 0H10V2H0z" class="cls-11" transform="translate(1176 2287)"/>
                <path d="M0.5 0.5H9.5V1.5H0.5z" class="cls-13" transform="translate(1176 2287)"/>
            </g>
            <path id="패스_2737" d="M1188.523 2223.709l10.76 10.7" class="cls-3"/>
        </g>
        <g id="그룹_464" transform="translate(822 -1374.678)">
            <g id="패스_2877" class="cls-1">
                <path d="M45.178 21H-8.178L4.549 1H32.45l12.727 20z" class="cls-11" transform="translate(459 3743.761)"/>
                <path d="M5.098 2L-6.357 20h49.714L31.902 2H5.098M4 0h29l14 22h-57L4 0z" class="cls-12" transform="translate(459 3743.761)"/>
            </g>
            <g id="사각형_826" class="cls-4">
                <path d="M0 0H170V120H0z" class="cls-11" transform="translate(393 3626)"/>
                <path d="M1 1H169V119H1z" class="cls-13" transform="translate(393 3626)"/>
            </g>
            <g id="사각형_827" class="cls-5">
                <path d="M0 0H170V2H0z" class="cls-11" transform="translate(393 3642)"/>
                <path d="M0.5 0.5H169.5V1.5H0.5z" class="cls-13" transform="translate(393 3642)"/>
            </g>
            <g id="사각형_828" class="cls-5">
                <path d="M0 0H5V2H0z" class="cls-11" transform="translate(528 3634)"/>
                <path d="M0.5 0.5H4.5V1.5H0.5z" class="cls-13" transform="translate(528 3634)"/>
            </g>
            <g id="사각형_829" class="cls-4">
                <path d="M0 0H6V6H0z" class="cls-11" transform="translate(538 3632)"/>
                <path d="M1 1H5V5H1z" class="cls-13" transform="translate(538 3632)"/>
            </g>
            <g id="합치기_40" class="cls-1">
                <path d="M1456.485-826.807l-1.414-1.415-.354-.353-.353.353-1.414 1.414-.707-.707 1.413-1.414.354-.354-.354-.353-1.413-1.414.707-.707 1.414 1.414.353.353.354-.353 1.414-1.415.707.708-1.414 1.414-.354.353.354.354 1.414 1.414-.707.708z" class="cls-11" transform="translate(-902.536 4464.464)"/>
                <path d="M1456.485-827.515l-1.06-1.06-.708-.708.708-.707 1.06-1.06-1.06 1.06-.708.707-.707-.707-1.06-1.06 1.06 1.06.707.707-.707.708-1.06 1.06 1.06-1.06.707-.707.707.707 1.061 1.06m0 1.415l-1.768-1.768-1.767 1.767-1.415-1.414 1.768-1.768-1.768-1.767 1.415-1.414 1.767 1.767 1.768-1.768 1.414 1.415-1.767 1.767 1.767 1.768-1.414 1.415z" class="cls-12" transform="translate(-902.536 4464.464)"/>
            </g>
            <path id="패스_2878" fill="#010101" d="M139.16 0H170l.673 2.659-37.649 7.855z" transform="translate(323 3745.761)"/>
        </g>
        <g id="컵" transform="translate(1193.782 2328.683)">
            <g id="패스_2728" class="cls-1">
                <path d="M28.365 45.736H4.139L-.62 6h33.746l-4.76 39.736z" class="cls-11" transform="translate(5.382 15.904)"/>
                <path d="M.506 7l4.52 37.736h22.451L31.998 7H.506m-2.254-2h36l-5 41.736h-26L-1.748 5z" class="cls-12" transform="translate(5.382 15.904)"/>
            </g>
            <path id="패스_2730" d="M0 15.944L.214 3.052 4.362 0" class="cls-3" transform="rotate(14.98 15.31 116.623)"/>
            <path id="합치기_13" d="M1.128 12.8A1.127 1.127 0 0 1 0 11.668V6.962a1.127 1.127 0 0 1 1.128-1.128h4.045V3.917a1 1 0 0 1 1-1h16.648V1a1 1 0 0 1 1-1h6.606a1 1 0 0 1 1 1v1.917H34.8a1 1 0 0 1 1 1v1.917h5.5a1.128 1.128 0 0 1 1.128 1.128v4.707a1.128 1.128 0 0 1-1.122 1.131z" transform="translate(0 12.152)"/>
            <g id="그룹_363" transform="translate(15.785 29.922)">
                <path id="사각형_499" d="M0 0H5.638V5.638H0z" class="cls-7" transform="translate(.001)"/>
                <path id="사각형_591" d="M0 0H5.638V5.638H0z" class="cls-7" transform="translate(5.639 5.638)"/>
                <path id="사각형_500" d="M0 0H5.638V5.638H0z" class="cls-8" transform="translate(5.639)"/>
                <path id="사각형_592" d="M0 0H5.638V5.638H0z" class="cls-8" transform="translate(0 5.638)"/>
            </g>
        </g>
        <g id="체크" transform="translate(-31 33.335)">
            <circle id="타원_128" cx="21.5" cy="21.5" r="21.5" transform="translate(1310 2155)"/>
            <path id="패스_2764" fill="none" stroke="#fff" stroke-width="3px" d="M3029.426 5050.066l5.046 4.682 9.429-9.21" transform="translate(-1704.926 -2874.038)"/>
            <path id="패스_2765" d="M3030.2 5066.2l6.526 8.215 5.451-8.215z" transform="translate(-1705 -2873)"/>
        </g>
        <g id="그룹_465" transform="translate(826 -1396.917)">
            <g id="사각형_832" class="cls-4">
                <path d="M0 0H70V48H0z" class="cls-11" transform="translate(414 3689)"/>
                <path d="M1 1H69V47H1z" class="cls-13" transform="translate(414 3689)"/>
            </g>
        </g>
        <g id="그룹_467" transform="translate(909 -1396.917)">
            <g id="사각형_832-2" class="cls-4">
                <path d="M0 0H35V33H0z" class="cls-11" transform="translate(416 3689)"/>
                <path d="M1 1H34V32H1z" class="cls-13" transform="translate(416 3689)"/>
            </g>
            <g id="사각형_833" class="cls-5">
                <path d="M0 0H35V2H0z" class="cls-11" transform="translate(416 3729)"/>
                <path d="M0.5 0.5H34.5V1.5H0.5z" class="cls-13" transform="translate(416 3729)"/>
            </g>
            <g id="사각형_834" class="cls-5">
                <path d="M0 0H35V2H0z" class="cls-11" transform="translate(416 3735)"/>
                <path d="M0.5 0.5H34.5V1.5H0.5z" class="cls-13" transform="translate(416 3735)"/>
            </g>
        </g>
        <path id="계단라인" fill="none" stroke="#010101" stroke-width="2px" d="M1161.634 2397.975h320" transform="translate(-9.634 -7.652)"/>
        <g id="그룹_468" transform="translate(798 -3875.917)">
            <g id="사각형_835" class="cls-5">
                <path d="M0 0H2V14H0z" class="cls-11" transform="rotate(-45 7756.192 2314.694)"/>
                <path d="M0.5 0.5H1.5V13.5H0.5z" class="cls-13" transform="rotate(-45 7756.192 2314.694)"/>
            </g>
            <g id="타원_166" class="cls-4" transform="translate(612 6136)">
                <circle cx="16" cy="16" r="16" class="cls-11"/>
                <circle cx="16" cy="16" r="15" class="cls-13"/>
            </g>
        </g>
        <g id="사각형_836" class="cls-4">
            <path d="M0 0H5V15H0z" class="cls-11" transform="rotate(-45 3485.168 -588.193)"/>
            <path d="M1 1H4V14H1z" class="cls-13" transform="rotate(-45 3485.168 -588.193)"/>
        </g>
    </g>
</svg>
