<?xml version="1.0" standalone="no"?>
<!DOCTYPE svg PUBLIC "-//W3C//DTD SVG 20010904//EN"
 "http://www.w3.org/TR/2001/REC-SVG-20010904/DTD/svg10.dtd">
<svg version="1.0" xmlns="http://www.w3.org/2000/svg"
 width="1244.000000pt" height="1280.000000pt" viewBox="0 0 1244.000000 1280.000000"
 preserveAspectRatio="xMidYMid meet">
<g transform="translate(0.000000,1280.000000) scale(0.100000,-0.100000)"
fill="#000000" stroke="none">
<path d="M4030 12780 c-330 -30 -522 -62 -785 -130 -619 -160 -1185 -453
-1700 -881 -129 -107 -407 -385 -514 -514 -567 -683 -904 -1468 -995 -2325
-37 -340 -41 -461 -22 -690 10 -118 24 -264 32 -325 105 -818 442 -1583 978
-2225 103 -124 344 -367 476 -482 590 -513 1294 -852 2063 -993 410 -75 943
-86 1362 -29 633 87 1285 335 1801 684 40 26 82 54 94 60 21 11 157 -122 2449
-2413 1931 -1930 2436 -2430 2476 -2450 78 -38 192 -69 239 -64 119 13 220 59
304 141 84 81 136 190 149 312 5 46 -25 161 -64 239 -20 40 -515 540 -2429
2455 -1322 1323 -2404 2408 -2404 2412 0 4 31 42 68 86 1076 1249 1350 3000
705 4511 -105 245 -218 454 -379 696 -491 740 -1196 1311 -2019 1634 -426 168
-769 245 -1290 291 -261 23 -337 23 -595 0z m735 -924 c652 -92 1208 -330
1715 -735 118 -95 337 -307 440 -426 757 -882 1013 -2057 694 -3175 -113 -395
-335 -829 -588 -1150 -697 -884 -1751 -1366 -2865 -1309 -1176 60 -2224 712
-2810 1746 -192 339 -337 766 -395 1163 -52 356 -45 765 19 1115 241 1311
1241 2374 2535 2695 175 44 348 72 575 94 94 9 575 -4 680 -18z"/>
</g>
</svg>
