<?xml version="1.0" encoding="utf-8"?>
<!-- Generator: Adobe Illustrator 25.2.0, SVG Export Plug-In . SVG Version: 6.00 Build 0)  -->
<svg width="14px" height="14px" version="1.1" id="Layer_1" xmlns="http://www.w3.org/2000/svg" xmlns:xlink="http://www.w3.org/1999/xlink" x="0px" y="0px"
	 viewBox="0 0 24.8 24.6" enable-background="new 0 0 24.8 24.6" xml:space="preserve">
<path fill="#148EFF" d="M20.6,8.9C21.3,6.6,21.5,4.6,21,3V2.9c-0.1-0.1-0.1-0.3-0.2-0.3c-0.1,0-0.1,0.1-0.1,0.2c0,0,0,0,0,0.1
	c0.2,1.4-0.3,3.4-1.1,5.5c-1.7-0.8-3.8-1.4-6.1-1.8c-2.1-0.3-4-0.4-5.8-0.3c0.2-1.4,0.8-2.5,1.6-2.6c1.2-0.3,2.5,0.5,3.7,2
	c0.2,0.1,0.4,0.1,0.7,0.1c0.6,0.1,1.2,0.2,1.8,0.4c-2.2-4.4-5.3-6.8-7.6-5.9C6.1,0.8,5.3,3.3,5.4,6.6C3.1,7.1,1.3,8,0.2,9.3
	c0,0,0,0-0.1,0.1S0,9.5,0,9.6c0.1,0.1,0.2,0,0.2-0.1c0,0,0,0,0.1,0c1.1-0.8,3-1.5,5.2-1.7c0.2,1.9,0.7,4,1.5,6.3
	c0.8,2,1.7,3.8,2.7,5.3C8.3,20,7.2,20,6.6,19.3c-0.8-0.9-0.8-2.5-0.2-4.3c-0.1-0.2-0.2-0.4-0.2-0.6c-0.2-0.6-0.4-1.2-0.6-1.7
	c-2.6,4.2-3.1,8-1.2,9.6c1.5,1.2,4,0.8,6.7-1c1.6,1.7,3.2,2.9,4.8,3.3h0.1c0.1,0,0.3,0.1,0.3-0.1c0.1-0.1-0.1-0.1-0.1-0.2
	c0,0,0,0-0.1,0c-1.3-0.5-2.7-1.9-4.1-3.7c1.5-1.1,3.1-2.6,4.6-4.5c1.3-1.6,2.4-3.3,3.1-5c1.1,0.9,1.7,1.9,1.4,2.7
	c-0.3,1.2-1.7,2-3.5,2.3c-0.1,0.2-0.3,0.3-0.4,0.5c-0.4,0.5-0.8,1-1.2,1.4c4.8,0.2,8.4-1.3,8.7-3.8C25.2,12.4,23.5,10.4,20.6,8.9z
	 M16.5,13.8c-1.7,2.1-3.8,3.9-5.7,5c-0.7-1.1-1.3-2.4-1.8-3.7C8,12.5,7.6,9.8,7.6,7.6c1.3-0.1,2.7,0.1,4,0.3
	c2.6,0.4,5.2,1.4,7.1,2.5C18.1,11.5,17.3,12.8,16.5,13.8L16.5,13.8z"/>
</svg>
