<?xml version="1.0" encoding="UTF-8"?>
<svg width="38px" height="32px" viewBox="0 0 38 32" version="1.1" xmlns="http://www.w3.org/2000/svg" xmlns:xlink="http://www.w3.org/1999/xlink">
    <!-- Generator: Sketch 57 (83077) - https://sketch.com -->
    <title>Nav/Chicklet</title>
    <desc>Created with Sketch.</desc>
    <g id="Nav/Chicklet" stroke="none" stroke-width="1" fill="none" fill-rule="evenodd">
        <path d="M29.266,13.225 L29.923,13.225 C29.953,13.225 30.201,13.195 30.668,13.135 C30.931,13.106 31.208,13.09 31.5,13.09 C31.734,13.09 32.143,13.106 32.727,13.135 C32.961,13.165 33.165,13.18 33.34,13.18 C33.632,13.21 34.085,13.24 34.698,13.27 C35.604,13.33 36.29,13.359 36.757,13.359 C37.196,13.359 37.414,13.51 37.414,13.808 C37.414,13.868 37.399,13.942 37.37,14.032 C37.342,14.212 37.327,14.436 37.327,14.705 C37.327,16.021 37.02,18.002 36.407,18.569 C36.057,18.928 35.56,19.107 34.917,19.107 C34.538,19.107 34.158,19.063 33.778,18.973 C32.639,18.704 31.398,18.569 30.055,18.569 L29.704,18.569 C29.207,18.569 28.112,18.629 26.418,18.748 C26.33,18.779 26.185,18.794 25.98,18.794 C25.601,18.854 25.308,18.883 25.104,18.883 C24.9,18.883 24.709,18.854 24.534,18.794 C23.745,18.585 22.929,18.48 22.081,18.48 C21.76,18.48 21.204,18.524 20.416,18.614 C19.774,18.675 19.277,18.704 18.926,18.704 C18.605,18.704 18.065,18.675 17.306,18.614 C16.722,18.555 16.284,18.524 15.991,18.524 C13.684,18.614 11.844,18.659 10.471,18.659 L9.858,18.659 C8.953,18.659 7.989,18.734 6.966,18.883 L4.469,19.152 C4.265,19.183 3.973,19.197 3.593,19.197 C3.476,19.197 3.184,19.183 2.717,19.152 L2.059,19.152 C2.031,19.152 1.928,19.168 1.753,19.197 C1.636,19.227 1.461,19.242 1.227,19.242 C0.41,19.242 0,18.555 0,17.179 C0,15.984 0.153,14.152 0.46,13.763 C0.766,13.375 1.417,13.18 2.41,13.18 C2.585,13.18 2.804,13.195 3.067,13.225 C3.271,13.255 3.433,13.27 3.549,13.27 C4.25,13.27 5.404,13.21 7.01,13.09 C7.39,13.061 7.682,13.045 7.886,13.045 C8.061,13.045 8.339,13.031 8.719,13 L9.463,13 C9.756,13 10.018,13.016 10.252,13.045 C10.486,13.076 10.821,13.106 11.26,13.135 C12.165,13.255 12.852,13.314 13.319,13.314 C13.698,13.345 14.078,13.359 14.457,13.359 C14.838,13.359 15.217,13.345 15.597,13.314 C16.298,13.285 17.086,13.27 17.962,13.27 C18.46,13.27 19.292,13.285 20.46,13.314 L22.65,13.314 C22.797,13.314 23.103,13.285 23.57,13.225 C23.95,13.195 24.213,13.18 24.359,13.18 C24.827,13.21 25.221,13.225 25.542,13.225 L29.266,13.225 Z" id="Fill-1" fill="#878582"></path>
    </g>
</svg>