<svg xmlns="http://www.w3.org/2000/svg" xmlns:xlink="http://www.w3.org/1999/xlink" width="122px" version="1.1" id="Layer_1" focusable="false" x="0px" y="0px" viewBox="0 0 124 66" enable-background="new 0 0 124 66" xml:space="preserve" aria-labelledby="blz-logo-main-title"><title id="blz-logo-main-title">Blizzard Entertainment</title><g><g id="NavbarFooter-blizzard-lower"><polygon fill="#FFFFFF" points="9.5,65 5.9,65 5.9,60 9.5,60 9.5,60.9 7.1,60.9 7.1,62 9.4,62 9.4,62.9 7.1,62.9 7.1,64.1     9.5,64.1   "></polygon><polygon fill="#FFFFFF" points="18.5,64.9 17.6,64.9 15,61.9 15,64.9 13.8,64.9 13.8,60.2 14.9,60.2 17.4,63.1 17.4,60.2     18.5,60.2   "></polygon><polygon fill="#FFFFFF" points="28.7,60.9 26.9,60.9 26.9,65 25.7,65 25.7,60.9 23.9,60.9 23.9,60 28.7,60   "></polygon><polygon fill="#FFFFFF" points="36.5,65 32.9,65 32.9,60.1 36.5,60.1 36.5,61 34.1,61 34.1,62 36.3,62 36.3,62.9 34.1,62.9     34.1,64.1 36.5,64.1   "></polygon><path fill="#FFFFFF" d="M44,60c0.8-0.1,1.5,0.5,1.6,1.3c0,0,0,0.1,0,0.1c0,0.5-0.3,1-0.8,1.2c0.5,0.3,0.7,0.8,1.3,2.3h-1.4    c-0.5-1-0.7-2-1.4-2H43v2h-1.2V60H44z M43,62h0.6c0.3,0,0.6-0.2,0.7-0.5c0,0,0-0.1,0-0.1c0-0.3-0.2-0.6-0.6-0.6c0,0-0.1,0-0.1,0    H43V62z"></path><polygon fill="#FFFFFF" points="54.7,61 52.9,61 52.9,65 51.7,65 51.7,61 49.9,61 49.9,60 54.7,60.1   "></polygon><path fill="#FFFFFF" d="M63.2,65h-1.3l-0.4-1h-2.1L59,65h-1.2l1.9-4.8h1.4L63.2,65z M60.4,61.4l-0.7,1.8h1.5L60.4,61.4z"></path><polygon fill="#FFFFFF" points="68.7,64.9 67.8,64.9 67.8,60 68.7,60   "></polygon><polygon fill="#FFFFFF" points="78.6,65 77.6,65 75,61.9 75,65 73.8,65 73.8,60.2 74.9,60.2 77.4,63.1 77.4,60.2 78.6,60.2   "></polygon><polygon fill="#FFFFFF" points="87.9,60 89,60 89,65 87.7,65 87.7,61.9 86.4,63.5 86.2,63.5 84.9,61.9 84.9,65 83.6,65 83.6,60     84.7,60 86.3,61.9   "></polygon><polygon fill="#FFFFFF" points="98.1,64.9 94.6,64.9 94.6,60.2 98,60.2 98,61.1 95.8,61.1 95.8,62 97.9,62 97.9,62.9 95.8,62.9     95.8,64.1 98.1,64.1   "></polygon><polygon fill="#FFFFFF" points="107.6,65 106.6,65 103.9,61.9 103.9,65 102.7,65 102.7,60.1 103.8,60.1 106.4,63.1 106.4,60.1     107.6,60.1   "></polygon><polygon fill="#FFFFFF" points="116.7,60.9 114.9,60.9 114.9,64.9 113.7,64.9 113.7,60.9 111.9,60.9 111.9,60 116.7,60   "></polygon></g></g><g><g id="NavbarFooter-blizzard-upper"><path fill="#009dff" d="M75.6,43.9c0.1,0.5,0.2,1,0.4,1.4v4.1h-0.1c-0.1,0.1-0.2,0.2-0.4,0.3c0,0,0,0.1,0,0.1c0,0.1,0,0.1,0,0.2    v0.1H69V50c-0.1-0.1-0.2-0.3-0.3-0.4l-2.2-0.2c-0.5,0.5-1,0.9-1.7,1.1h-0.1c-1.6,0-2.6,0.1-3.5,0.1c-0.8,0.4-1.7,0.6-2.5,0.8h-0.1    v0c-0.3-0.3-0.4-0.7-0.4-1.1c0-0.3,0.1-0.6,0.1-0.7v-1.7l0.1,0c0.2-0.1,0.3-0.2,0.4-0.3c0.1-0.1,0.1-0.3,0.1-0.5    c0-0.3-0.1-0.6-0.2-0.9v-0.1l0.1-0.1c0.3-0.2,0.6-0.4,0.8-0.8c0.1-0.2,0.1-0.3,0.1-0.5c0-0.3,0-0.6-0.1-0.8v-0.1l0.1-0.1    c0.1-0.1,0.3-0.2,0.4-0.3c0.1-0.1,0.1-0.3,0.1-0.5c0-0.3-0.1-0.5-0.1-0.8v-0.1c0-0.2,0.3-0.7,0.4-1.1c0.1-0.4,0.2-0.9,0.2-1.3    c0-0.6-0.1-1.2-0.2-1.8c-0.1-0.4-0.2-0.7-0.4-1c-0.3-1-0.5-2-0.5-3.1c0-1.4,0.2-2.8,0.4-4.3l2.6-6.9c-0.2-0.1-0.3-0.3-0.4-0.5    c0-0.1,0-0.2,0-0.2c0-0.2,0-0.2,0-0.4v-0.1l0,0c0.3-0.3,0.5-0.8,0.6-1.3c0-0.2,0-0.4,0-0.5s0-0.1,0-0.2c0.1-0.5,1.2-1.8,1.3-3    c0-0.2,0-0.4,0-0.5c0-0.4,0-0.7,0-0.7c0.7-2,1.7-4,3-5.7V7.6h0.1c0.2-0.1,0.3-0.2,0.4-0.4l0,0c0-0.1,0,0-0.2-0.3h-2.3V6.8    c-0.1-0.2-0.2-0.3-0.3-0.5c-0.2-0.2-0.4-0.2-0.7-0.2c-0.5,0.1-1,0.2-1.5,0.3c-0.3,0.2-0.6,0.5-0.7,0.9c-0.4,0.9-0.6,1.9-0.8,2.8    c-0.4,2.6-0.8,2.9-1.4,3h-0.2c-0.3,0-0.5,0.2-0.6,0.4l-0.1,0.1l-0.1-0.1c-0.2-0.2-0.4-0.4-0.5-0.4l-0.1-0.1v-0.1    c0.1-0.3,0.2-0.7,0.2-1c0-0.5-0.2-0.7-0.2-1.2c0.1-0.4,0.3-0.8,0.7-1v-8h14.9v0.1c0.3,0.4,0.3,0.4,0.3,0.4h0.3h0.2v0.5l0,0    c-0.4,0.4-0.5,2-1.8,3.2c0,0.3,0.1,0.5,0.1,0.8c0,0.2,0,0.5-0.1,0.7C72.4,8,72,8.7,71.3,9.1c0,0.3,0.1,0.5,0.1,0.8    c0,0.2,0,0.5-0.1,0.7c-0.3,0.8-0.8,0.4-0.9,1.3c0,0-0.2,1.6-0.5,2.7s-0.8,1.6-0.8,2.4c0,0.1,0,0.3,0,0.4l-0.1,4.2h-0.1    c-0.6,0.4-0.5,2.8-1.7,4v1.5c-0.3,0.9-1,0.9-1.3,2v5l-1.3,3.7c0,0.1,0.1,0.7,0.1,1.3c0,0.3,0,0.7-0.1,1c-0.3,1.2-0.7,2.3-1.4,3.3    l-0.2,0.3c0,0,0,0.1,0,0.1c-0.1,0.5-0.2,1-0.4,1.4c-0.1,0.4-0.2,0.7-0.4,1c0.1,0.1,0.2,0.2,0.3,0.2c0.1-0.1,0.2-0.2,0.3-0.4    l0.1-0.1l0.1,0.1c0.2,0.1,0.5,0.2,0.8,0.2c0.5,0,1-0.2,1.6-0.2c0.2,0,0.2-0.2,0.3-0.5c0-0.4,0.2-0.8,0.4-1.1    c0.7-0.7,2.1-0.8,2.4-1.1c1.8-1.2,2.5-0.7,3.6-2.5l0.1-0.2l0.2,0.1c0.1,0.1,0.3,0.3,0.4,0.4h2.2v0.1c0.4,0.3,0.6,0.7,0.7,1.2    C75.7,43,75.6,43.4,75.6,43.9z M86.6,35.1c0,1.8,0,3.5-0.2,5.3v0.1h-0.1c-0.4,0.7-0.7,1.4-0.9,2.2c-0.2,1-0.6,1.9-1.2,2.7v2.5    l-0.1,0.1c-0.5,0.3-0.6,2.2-1.2,3v1.5l-0.1,0c-0.1,0.1-0.2,0.2-0.4,0.3v2l-0.1,0.1c-0.2,0.3-0.4,0.4-0.8,0.5c-0.1,0-0.2,0-0.2-0.1    c-0.1,0-0.2,0.1-0.2,0.1L81,55.4v-2.7l-1.3-4.3v-1.2c0.1-1-2.1-1.7-2.2-3.8v-0.1l0,0c1.7-1.9,2.6-4.3,2.8-6.8l0,0    c0.1-0.3-1.1-1.1-2.4-1.8c-1-0.5-1.9-1-2.8-1.7h-0.8l0.4,1.1v2.4c0.6,0.2,0.9,0.9,1.3,0.9c0.1,0,0.2,0.1,0.2,0.2    c-0.2,0.4-0.5,0.8-0.7,1.2v0.2h-0.2c0,0-1.3-0.1-2.4-0.1c-0.4,0-0.8,0-1.2,0.1c-2.1,0.7-4.4,1.6-4.4,1.6h-0.1l-0.1-0.1    c-0.6-0.9-0.1-0.7-0.6-1.4l-0.1-0.1l0.1-0.1c0.4-0.7,1-1.2,1.5-1.8c0-0.6,0.1-1.2,0.4-1.8c0.4-0.7,1.4-0.9,1.3-1.1    c-0.1-0.2-0.2-0.3-0.4-0.3L69.4,34v-0.1c0,0,0.2-1.4,0.3-2.1c0-0.1,0-0.3,0.1-0.4c-0.1-0.4-0.2-0.8-0.2-1.2c0-0.3,0.1-0.6,0.3-0.9    c0.1-0.1,0.2-0.2,0.4-0.3V27h0.1c0.2-0.1,0.4-0.3,0.4-0.6c0-0.1,0-0.1-0.1-0.2c-0.2-0.1-0.4-0.3-0.3-0.6c0-0.1,0-0.2,0-0.3    c0-0.2,0.1-0.4,0.1-0.6c0-0.4-0.1-0.7-0.1-1.1c0-0.2,0-0.4,0.1-0.6c0.2-0.5,0.5-1,0.9-1.5c0.3-0.8,0.5-1.6,0.5-2.4V19h0.1    c1-0.5,0.4-2.7,1.2-4.4c0.3-0.8,0.7-1.5,1.2-2.1c0,0,0-0.1,0-0.1c0-0.3-0.2-0.6-0.2-0.9c0-0.2,0.1-0.3,0.2-0.5    c0.1-0.1,0.3-0.3,0.4-0.3c0.2-0.8,0.6-1.7,0.9-2.4c0.2-0.5,0.5-0.9,0.8-1.3v-2l0.1-0.1c0.1-0.1,0.3-0.2,0.3-0.4    C76.8,4.2,77,4,77.2,3.9l0,0l0,0c0.4,0,0.4-0.4,0.5-1c0-0.2,0-0.3,0-0.5c0-0.6,0.1-1.3,0.9-1.3c1.4,0.1,1.3,2.4,1.4,2.7    c1.2,2.5,1.5,2.1,1.5,2.8v1.3c0,1.1,1.6,5.2,1.6,5.2l1.4,5.4c0.1,0.1,0.3,0.2,0.4,0.3H85v1.9c0.3,0.2,0.4,0.5,0.5,0.8    c0,0.2-0.1,0.3-0.1,0.4c0,0.2,0.2,0.4,0.4,0.5h0.1v2.5h-0.1c0,0,0,0.1,0,0.1c0.1,1.6,0.3,3.1,0.6,4.6l0,0v0.1    C86.5,30.5,86.6,32.8,86.6,35.1L86.6,35.1z M75.8,28.6c0,0.3,0,0.5-0.1,0.8v0.1c0.3,0,0.5,0,0.8,0c0.4,0,0.9,0,1.3,0.1    c1.3,0.3,2,1.2,2.8,1.4h0.4c0-0.6,0.1-2.8,0.1-4.5c0-1,0-1.8-0.1-2.1c-0.2-0.5-0.4-1-0.3-1.6c0-0.6-0.2-1.2-0.5-1.7    c-0.5-0.5-1.2-0.2-1.8-0.9c-0.3-0.4-0.6-0.9-0.8-1.5l-0.1,2v0.1h-0.1c-0.3,0.2-0.4,0.6-0.5,0.9c-0.1,0.4-0.4,0.7-0.8,0.8    c0,1-0.1,1.9-0.4,2.8c0,0.2,0,0.4,0,0.6C75.6,26.8,75.8,27.9,75.8,28.6z M57.8,36.4l-0.2,0c-0.7,0.2-0.4,0.7-0.9,1.3    c-0.1,0.6-0.2,1.3-0.1,1.9c0,1.9,0.2,4.5,0.2,4.5v0.2h-0.2c-0.6,0.1-1.2,0.4-1.6,0.9l0,0.1h-5l0-0.1c-0.3-0.4-0.3-0.4-0.3-0.4    c0,0-0.2,0-0.5,0c-0.3,0-0.7,0.1-0.8,0.4c-0.1,0.3-0.5,0.5-0.8,0.5l0,0c-0.5-0.1-1-0.3-1.5-0.7h-3.4V45c-0.2-0.2-0.4-0.5-0.5-0.8    c0.1-0.2,0.2-0.3,0.3-0.4l0.3-0.3v-2.9h0.1c0.4-0.3,0.4-0.3,0.4-0.3c0-0.1,0-0.2,0-0.3c0,0,0,0,0-0.1l-0.1-0.2    c-0.1-0.1-0.1-0.3-0.2-0.5c-0.1-0.3-0.3-0.5-0.5-0.8l-0.1-0.1l0.1-0.1c0.2-0.2,0.3-0.5,0.3-0.8c0-0.3-0.1-0.6-0.3-0.8l0,0l0,0    c0-0.2,0-0.5,0-0.7c0-1.4,0.5-3,0.5-3.8v-0.2l0.1,0c0.4-0.3,0.3-1.7,0.8-2.8c0.4-0.7,0.9-1.5,1.5-2.1c0.2-1.4,0.8-2.7,1.8-3.6    c0.1-0.5,0.9-4.3,1.6-5.5c0.2-0.2,0.4-0.3,0.6-0.5l0.5-0.4c0-0.3,0.3-1,1.7-2.3c-0.1-0.5-0.2-1-0.2-1.5c0-0.4,0.1-0.9,0.3-1.3l0,0    l0,0c0.9-0.7,1.5-2.2,3-3.6v-3l-4.8,0C49,5.9,47.2,6,47.1,8.5v0.2h-0.2c-0.3,0-0.7,0.2-0.9,0.4c-0.3,0.1-0.6,0.4-0.6,0.8v3.5    c-0.2,0.6-0.5,1.2-0.9,1.7l-0.1,0.2L44.2,15c-0.2-0.2-0.4-0.5-0.4-0.8c0-0.2,0-0.3,0-0.4c0-0.2-0.2-0.4-0.4-0.5h-0.1v-0.1    c0,0-0.1-0.9-0.2-1.5c0-0.2,0-0.4-0.1-0.6l-0.1-0.1V11c0.2-0.6,0.4-1.3,0.4-2c0-0.4-0.1-0.8-0.4-1.2c-0.1-0.1-0.3-0.2-0.4-0.3    h-0.1V3.3l0,0c0.2-0.3,0.4-0.6,0.4-1c0,0,0-0.1,0-0.1V2h0.2c6.1,0,6.7,0,12.7,0h0.2v2.4c0,0.4,0.4,0.4,0.4,1v7.9l-0.1,0.1    c-0.4,0.4-0.6,0.9-0.5,1.5c0,0.4,0.1,0.8,0.2,1.2v0.1l-0.1,0.1c-1.3,0.9-1.9,4.4-2.7,5.3v2H53c0,0-1.8,0.8-2.1,1.7    c-0.1,0.3-0.1,0.5-0.1,0.8c0,0.4,0,0.7,0.1,1.1v0.1l-0.1,0c-1.4,0.5-3.7,7-3.7,7.3v1.2H47l0.1,0.1l0,0C47,36,47,36,47,36.1    c-0.1,0.2-0.2,0.4-0.3,0.6c-0.2,0.5-0.5,1.3-0.7,2c-0.3,1.2-0.7,2.4-1.2,3.5c0.2,0.3,0.2,0.3,0.3,0.3s0.2,0,0.4,0    c0.4,0,0.5-0.2,2.2-1c0.7,0,1.4-0.2,2.1-0.5c0.5-0.6,1-1.2,1.3-1.9c0.5-0.9,1.4-1.6,2.5-1.8c0.1-0.7,0.4-1.3,0.8-1.8l0.2-0.2    l0.1,0.2c0.1,0.1,0.1,0.2,0.2,0.3c1.4-0.6,0.8-1.3,1.5-2.2v-0.1h1.2v0.2c0,0,0,0.2,0,0.4c0,0.7,0.1,1.3,0.3,2L57.8,36.4z     M20.8,39.3c0,0.5,0.3,1.6,0.3,2.6c0,0.2,0,0.5-0.1,0.7c-0.2,0.7-0.4,1.5-0.8,2.2c-0.5,0.7-0.9,1.4-1.3,2.2c-0.3,1-0.5,2-0.6,3V50    h-0.1c-1,0.4-1.9,1-2.7,1.5c-0.8,0.4-1.5,1.1-2,1.8v0.1h-0.1c-0.9,0.1-1.8,0.3-2.8,0.5c0,0-0.1,0-0.1,0.1    c-0.1,0.1-0.2,0.2-0.4,0.3c-0.5-0.1-0.6-0.7-0.9-0.6c-0.3,0-0.5,0.2-0.6,0.4c-0.2,0.5-0.9,0.5-1.6,0.5c-0.9,0-1.8-0.1-2.6-0.3    c-0.2,0.1-0.3,0.1-0.5,0.1c-0.5,0-1.1-0.1-1.4-0.1H2.3l-0.1,0.3L2,54.4C1.9,54.3,1.6,54,1.5,54l-0.3-0.2l0.3-0.1    C2,53.5,2.5,53.3,2.9,53l0,0v-0.1c0-0.1,0.1-0.2,0.1-0.3c0-0.1,0.2-0.6,0.3-1c0.2-0.8,0.4-1.8,0.6-2.5C3.8,46.6,4,45.3,4,44    c0-0.7-0.1-1.5-0.2-2.2c0-0.3-0.2-2.7-0.4-4.3c0-2.7,0.2-5.6,0.2-7.2c0-0.3,0-0.6,0-0.8v-0.2h0.2c0.2,0,0.4-0.2,0.5-0.4l-0.1-2.2    l-0.3-0.7v-3.2c0.1-0.3,0.2-0.7,0.4-0.9c0.1-0.2,0.1-0.4,0.1-0.7c0-0.4,0-0.9-0.1-1l-0.4-0.8v-11h0.1C4.3,8.1,4.3,8.1,4.3,8    s0-0.3,0-0.6s0-0.5,0-0.5l0,0C4.2,6.8,4.1,6.7,4.1,6.6H3.7c0,0.1-0.1,0.1-0.2,0.1c-0.1,0-0.1,0-0.2,0H3.2c-0.1,0-0.1-0.1-0.1-0.2    c0,0,0-0.1,0.1-0.1L2.9,6.1L1.5,4.7C1.4,4.6,1.3,4.4,1.2,4.3C1.1,4.2,1,4.1,1,4c0-0.1,0-0.2,0-0.4c0-0.2,0-0.5,0.1-0.7    c0.1-0.1,0.3-0.3,0.4-0.5V2.4h2.4C4.4,2.1,5,2,5.6,2c0.8-0.1,1.7-0.2,1.9-0.2l2.3,0.1c2.3,0,3.2-0.2,4.4-0.2c0.7,0,1.3,0.1,2,0.2    h0.1v0.1c0.2,0.5,0.7,1,1.2,1.3h0.3c0.4,0,0.8,0.1,1.1,0.3c1.3,1.2,2.2,2.8,2.2,4.6c0,1.2,0.3,2.4,0.3,3.3c0,0.5-0.1,1-0.4,1.3    l-1.6,3c-0.8,1.2-1.6,2.4-2.5,3.5c0.1,0.2,0.3,0.3,0.5,0.4c0.5,0.3,1,0.4,1.5,0.4c0.3,0,0.6,0.3,0.6,0.7c-0.1,0.5-0.2,0.9-0.5,1.3    c0,0,0,0.1,0,0.1c0,0.1,0,0.3,0.1,0.4c0,0.1,0.1,0.1,0.2,0.2c0,0,0,0,0.1-0.1l0.1-0.2l0.1,0.1c0.4,0.2,0.6,0.6,0.8,1    c0,0.1-0.1-0.1,0.4,0.4l0.1,0.1v0.1c-0.2,1-0.3,2-0.4,3c0,0.7,0.1,1.4,0.4,2.1c0.1,0.4,0.9,0.5,0.9,1.1c0,0.1-0.1,0.2-0.1,0.3    c0,0.2,0,0.6,0,1c0,0.3,0,0.6,0,0.8c0,0.1,0,0.1,0,0.2c0,1.4,0.3,2.7,0.3,3.9c0.1,0.9-0.2,1.8-0.7,2.6    C20.9,39.1,20.8,39.2,20.8,39.3L20.8,39.3z M14.9,9.4c0-0.1,0-0.2,0.1-0.2l0.6-0.4c-0.7-0.2-1.3,0.2-1.9-1h-0.2l-1.9,0.3l0.1-0.3    c0-0.1,0.1-0.1,0.1-0.2l-0.2,0.1c-0.1,0.2-0.1,0.4-0.1,0.6c0,0.3-0.2,0.5-0.4,0.6v8.3c0.1,0,0.3-0.1,0.4-0.1l0,0    c0.2,0,0.3,0,0.5,0.1c0.9-0.3,0.5-2.4,3-2.7c0-0.2,0-0.6,0-1c0-1,0-2.2,0.4-2.6C15.2,10.4,15,9.9,14.9,9.4z M15.3,38.9    c0-0.3,0.2-0.6,0.1-0.7c0-0.1-0.1-0.2-0.2-0.3L15,37.8l0.2-0.1c0.1-0.1,0.2-0.2,0.2-0.3c0-0.5-0.6-1.4-0.6-2.3    c0-0.4,0.2-0.8,0.5-1.1c0.1-0.5,0-0.9-0.3-1.3c-0.3-0.4-0.5-0.9-0.4-1.3c0-0.5,0.4-1.3,0.4-1.8c0-0.1,0-0.2-0.1-0.3l-0.1-0.1    l0.1-0.1c0.1-0.1,0.1-0.3,0.1-0.5c0-0.4-0.2-0.7-0.4-1l-0.2-0.3h0.4h0.1c-0.1-0.2-0.3-0.5-0.3-0.7c0-0.1,0-0.2,0.1-0.2    c0,0,0.1-0.1,0.1-0.2c-0.1-0.4-0.4-0.7-0.7-1c-0.6-0.4-1.2-0.9-1.8-1.4L11,22.6c0,0.6,0,1.6,0,2.5c0,0.7,0,1.3,0,1.7v0l0,0    c-0.2,0.3-0.3,0.7-0.3,1c0,0.7,0.1,1.3,0.3,2l0,0l-0.5,2.2h-0.1c-0.2,0.1-0.3,0.2-0.3,0.5c0,0,0,0,0,0c0,0.2,0.1,0.4,0.3,0.5h0.1    v8.2v0c-0.2,0.1-0.3,0.3-0.4,0.5c0,0.2,0,0.3-0.1,0.3c0,0.1,0,0.1-0.1,0.2c0,0.4,0,1.4,0,3.5c0,0,0,1.1,0.1,1.5l0,0    c0,0,0,0.1,0,0.1c-0.1,0.3-0.3,0.7-0.5,1l-0.3,0.6c0.4,0,0.8-0.1,1.2-0.3l1-0.9h0.1c0.7,0,1.6-1.5,2.3-2c0.6-0.4,0.3-2.3,0.6-3.7    v0l0,0l0,0V42c0-0.1,0.1-0.2,0.1-0.3c0-0.1,0.2-0.6,0.3-0.9c0.2-0.5,0.3-1.1,0.3-1.6l0,0C15.2,39.1,15.2,39,15.3,38.9L15.3,38.9z     M104.7,46.4c0.1,0.2,0.2,0.4,0.2,0.6c0,0.3-0.1,0.5-0.2,0.8c-0.2,0.5-0.1,0.7-1.1,5.7v0.2l-0.2-0.1c-0.7-0.2-1.4-0.5-2-0.8    c-2.3-2.2-2.9-2.4-3.9-2.4h-0.8v-0.1c0-0.1,0-0.1,0-0.2c0-0.8,1.3-3.7,1.5-5c0.1-1.4,0.2-2.8,0.2-4.2c0-0.5,0-0.9,0-1.4l0,0    c-0.1-1.3-0.4-2.6-0.7-3.9c-0.4-1.8-1.1-3.6-1.5-3.6H96v-0.2c0.1-1,0.4-2.4,0.4-3c0-0.1,0-0.1,0-0.2c-0.6-1.2-1.9-3.6-2.7-4    c0,0.2,0,0.4,0.1,0.6c0,0.6-0.2,1.1-0.5,1.6c-0.2,0.3-0.3,0.6-0.4,1l0,0l0,0l0,0l0,0v0.1c0,1.1,1.1,10.2,1.1,11.1v0.1l-0.2,0.2    l0,0c0,0-0.1,0.1-0.1,0.1c-0.1,0.1-0.1,0.2-0.1,0.3l0,0c0.2,0.2,0.3,0.5,0.4,0.8c0,0.5,0.1,1.2,0.1,1.8c0,0.9-0.1,1.8-0.4,2.6    c0.1,1,0.4,3.3,0.4,4.5c0,0.1,0,0.3,0,0.4l0,0l0,0c-0.1,0.1-0.2,0.3-0.4,0.3c0,0.3,0.1,0.6,0.1,0.9c0,1-0.2,1.9-0.4,2.8l-0.1,0.5    L93,54c-0.7-2-2-3.8-3.7-5.2c-1.3-1.1-2.3-1.4-2.4-2c0,0,1.5-5.4,2.2-6c0.1-0.2,0.1-0.4,0.1-0.6c0-0.4,0-0.8-0.1-1.2    c-0.1-0.1-0.3-0.1-0.4-0.2l-0.1-0.1v-0.1c0-0.1,0-1.5,0-3.3c0-3.4,0-8.2,0-8.8c-0.1-0.3-0.1-0.6-0.2-0.9l0,0h-0.1L88.2,24    c-0.2-0.3-0.3-0.8-0.4-0.8h-0.1V23c0,0,0-0.5,0-0.9c0-0.2,0-0.4,0-0.6c-0.1-0.2-0.1-0.4-0.1-0.6c0-0.2-0.1-0.4-0.1-0.6l0,0l-0.1,0    v-0.1c0,0,0,0,0-0.1c0-0.4-0.1-0.9-0.2-1.3c-0.1-0.3-0.2-0.7-0.2-1c0-0.3,0-0.6-0.1-0.9H87v-2.2c-0.2-0.2-0.4-0.4-0.4-0.8    c0-0.1,0-0.1,0-0.1c-0.1-0.2-0.2-0.3-0.4-0.3h-0.1v-0.1C86,12.7,86,12,86,11.3c0-0.7,0-1.3,0.1-2V9.3l0,0c0.7-0.7,2.7-1.7,4-3.5    c-0.3-0.1-1.2-0.4-1.3-0.4l-0.1,0.1c-0.1,0.1-0.2,0.2-0.3,0.3c-0.1,0.1-0.3,0.1-0.5,0.1c-0.2,0-0.3-0.1-0.5-0.2h-0.1V5.5    c-0.3-0.9-0.8-1.7-1.6-2.2C85,2.6,84.3,2.2,84.1,2l-1.6-0.3V1.3l6.3-0.2c0.3-0.2,0.7-0.3,1.1-0.3c0.3,0,0.6,0.2,0.7,0.5h2.3l0,0    H93l0.5,0.2L94.7,2l1.7,0.5h0.4c0.2,0,0.4,0,0.5,0c0.7,0.1,1.4,0.5,2,1c0.3,0.3,0.6,0.6,1,0.8h0.1l2.2,4.7c0.1,0.3,0.1,0.7,0.1,1    c0,0.8-0.1,1.8-0.1,1.8v0.1h-0.1c-0.1,0.1-0.1,0.3-0.2,0.4c0,0.2-0.1,0.4-0.2,0.5c0,0.2,0,0.5,0,0.8c0,0.6,0,1,0,1.1    c-0.8,3.2-2.3,5.8-5.1,5.9c0,0.4,0,0.6,0,0.8c0,0.2-0.1,0.5-0.3,0.6H97c0.3,0,0.6-0.1,1-0.1c0.5,0,1.1,0.3,2,1.4    c0.4,0.3,0.6,0.8,0.6,1.3c0,0.1,0,0.1,0.1,0.1c0.2,0.1,0.4,0.2,0.6,0.3c0.1,0.1,0.2,0.2,0.2,0.3c0,0,0,0.1,0,0.1    c0,0.2,0.1,0.3,0.1,0.5c0.1,0.5,0.2,1,0.3,1.5c0.2,0.8,0.2,1.6,0.2,2.4c0,0.7,0.1,1.4,0.2,2.1l0,0c0.1,0.1,0.1,0.2,0.1,0.3    c0,0.1,0.1,0.3,0.1,0.5c0,0.2,0.1,0.4,0.3,0.5c0.1,0,0.1,0,0.2-0.1l0.2-0.1l0.1,0.2c0.2,0.4,0.8,4.7,0.8,5.1v0.1v0.1    c-0.2,0.5-0.2,1.1-0.3,1.6c0.1,0.1,0.3,0.1,0.4,0.2h0.1v0.1c0.3,0.5,0.5,1,0.6,1.6v0.1v0.1c-0.1,0.1-0.2,0.3-0.2,0.4    c0.1,0.5,0.1,1,0.2,1.4c0,0.8-0.1,1.5-0.3,2.3l0,0L104.7,46.4z M96.8,15.3c0-0.3,0-0.6,0.1-0.9v-0.2H97L97,14    c0-0.1,0.1-0.2,0.2-0.3v-0.9c0-0.2,0.1-0.3,0.1-0.5c0-0.6-0.2-1.2-0.5-1.7c0,0-0.7-0.9-1.4-1.9s-1.7-1.9-2.1-1.8h-0.4v12.8h0.5    c0.2,0,0.3,0,0.5,0c0.6-0.1,1.2-0.4,1.6-0.9c0.5-1.1,0.9-2.1,1.3-3.3C96.8,15.5,96.8,15.4,96.8,15.3z M121.1,20.5    c0,0.7,0,1.4-0.2,2.1l0,0l0,0c-0.1,0-0.3,0.8-0.6,1.1c0,0.1,0,0.2,0,0.3c0,0.5,0.1,1.1,0.1,1.7c0,0.5-0.1,1-0.3,1.5    c-0.2,0.6-0.6,1.1-1,1.5l-0.4,2.2c-0.2,0.5-0.3,1-0.3,1.6c0,0.4,0.3,3.7,0.3,6.1c0,0.8,0,1.7-0.2,2.5c-0.3,0.7-0.4,1.5-0.3,2.2    c0,0.2,0,0.4,0,0.7c0,0.8-0.1,1.7-0.4,2.5l-0.4,2.4c-0.2,0.7-0.5,1.3-0.9,1.9c-0.1,0.3-0.3,0.5-0.5,0.7c-0.1,0.1-0.3,0.2-0.4,0.3    c-0.2,0.5-1.1,0.6-2.1,1c-1,0.2-2,0.5-2.9,0.9h-0.1c-0.5,0-1.1-0.5-1.3-0.5l0,0c-0.3,0.3-0.8,0.5-1.2,0.5    c-0.6,0.1-1.2,0.2-1.7,0.2c-0.2,0-0.3,0-0.4-0.1l-0.2-0.1l0.1-0.2c0.8-0.8,1.3-1.9,1.4-3c0-0.1,0-0.1,0-0.2    c-0.1-0.8-0.2-1.6-0.5-2.4l-0.1-0.2l0.2-0.1c0.6-0.2,1.9-0.8,1.8-1.1c0-0.1,0-0.1,0-0.2h-0.1c-0.1,0-0.3-0.1-0.3-0.2l-0.5-1.3    l-0.9-2l0.8-7.9c-0.9-1.4-1.6-2.9-1.9-4.5v-1.3c0-0.4-0.4-0.4-0.4-1c0,0-0.1-1.6-0.1-2.8c0-0.4,0-0.8,0.1-1.2    c-0.1-0.1-0.2-0.2-0.3-0.3l-0.1-0.1l0.2-3c-0.1-0.2-0.1-0.4-0.2-0.7c0-0.3-0.1-0.5-0.2-0.8l0,0l-0.1,0v-8.9l0.1-0.1    c0.1-0.1,0.2-0.2,0.4-0.3V6.9h0.1c0.1-0.1,0.2-0.2,0.4-0.3V4.1c-0.4-0.4-3.7-3.6-3.9-3.7l-0.2-0.3h2.5v0.1    c0.1,0.1,0.2,0.3,0.3,0.4h1.5v0.1c0,0.4,2.1,0.7,3,1.7h1.4v0.1c0.1,0.2,0.3,0.4,0.5,0.6h1.4l0.1,0.1c0.1,0.1,0.2,0.3,0.3,0.4h1.9    v0.1c0.1,0.1,0.2,0.3,0.3,0.4h2l0.1,0.1c0.6,1.1,1.9,1.7,2.2,2.2c1.5,3.1,1.2,3.4,1.7,3.7h0.1l-0.1,4.5c0.1,0.2,0.2,0.5,0.3,0.7    c0.1,0.3,0.1,0.5,0.3,0.7h0.1v0.1C120.7,16.1,121.1,18.6,121.1,20.5L121.1,20.5z M114.6,27.8c-0.1-0.7,0.3-1.4,0.8-1.9    c0.1-0.5,0.4-2.5,1-3.1v-4.3c-0.3-0.4-0.5-0.9-0.6-1.5c-0.1-0.5-0.2-0.9-0.3-1.3c-0.5-0.7-1.6-1-1.7-2.2c-1-0.1-1.2-1-1.6-0.9    c-0.8,0-1.3-0.1-1.9-0.1h-0.7l-0.2,1.6l0.1,0.6c0,0,0.2,4.7,0.2,6.5c0,0.1,0,0.3,0,0.4l0,0c0,0.1,0.1,0.2,0.1,0.3l0.2,0.4v0.1    c0.1,0.9,0.3,1.8,0.8,2.7h0.1L111,45.8c1.2-1.3,1.9-3,2.1-4.8c0-0.1,0-0.2,0-0.3c0.5-1.7,1-2.2,1.2-3.2l0,0c0-0.5,0-8.5,0.3-9.5    C114.6,28,114.6,27.9,114.6,27.8L114.6,27.8z M41,45.7l-0.3-0.1c-0.2-0.1-0.4-0.1-0.6-0.1h-0.4l0,0h-0.1c-0.2,0-0.5,0.1-0.7,0.2    h-0.1l-0.1-0.1c-0.6-0.2-1.1-0.2-1.7-0.2c-1.1,0-2.3,0.1-3.4,0.4c-0.2,0.4-0.6,0.6-1,0.8l0,0c-0.1,0-0.1,0-0.2-0.1l0,0    c-0.2-0.1-0.4-0.3-0.6-0.5l-0.2-0.1l0.1-0.1c1.3-1.6,0.5-1.1,2-2c0.3-1.9,0.4-3.7,0.4-5.6v-0.4h0.1c0.4-0.3,0.4-0.3,0.4-0.4    c0-0.1,0-0.2,0-0.4c-0.2-0.5-0.3-0.9-0.4-1.4c0-0.7,0.2-1.3,0.5-1.9l-0.1-18.5h0.1c0.1-0.1,0.2-0.2,0.3-0.2h0.1c0,0,0,0,0,0    c-0.1-0.2-0.2-0.3-0.4-0.3v-0.1L34.2,5c-0.2-0.4-0.5-0.6-0.9-0.7c-0.4,0-0.7-0.3-0.9-0.6c-0.3,0.1-0.5,0-0.7-0.2    c-0.1-0.2-0.3-0.4-0.5-0.6l-0.1-0.1L31,2.8c0.2-0.2,0.4-0.5,0.4-0.6l0.1-0.1h0.1c1.4,0.2,2.9,0.2,4.3,0.2c1.3,0,2.5,0,3.8-0.2    l0.1,0L40,2.2c0.2,0.2,0.3,0.5,0.5,0.7l0,0v0.9h-0.1c-1.1,0.3-2.2,1.3-2.2,2.1c0,0.6,0.1,0.6,0.1,0.6c0.3,0.2,0.4,0.5,0.3,0.8    c0,0.3-0.1,0.6-0.4,0.8C38.1,8.1,38,8.3,38,8.5c0,1.4,0.2,5.1,0.2,8.3c0,1.3,0,2.6-0.2,3.9c0.1,0.2,0.2,0.4,0.2,0.6    c0,0.2,0.1,0.5,0.1,0.7l0,0h0.1l0.2,1.4l-0.1,0.1c-0.1,0.1-0.3,0.2-0.4,0.3c-0.2,0.3-0.3,0.7-0.3,1.1c0,0.4,0.1,0.8,0.1,1    c0,0.2,0,0.3,0,0.5c0,0.4,0,0.9,0.1,1.3c0,0.3,0,0.9,0.1,1.2c0,0,0,0.1,0,0.1h0.1V29c0,0.3,0.1,0.6,0.1,0.8c0,0.3,0,0.7-0.1,1v0.1    h-0.1c-0.1,0.1-0.3,0.2-0.4,0.3c-0.2,0.2-0.4,0.5-0.4,0.8c0.2,0.8,0.3,1.7,0.4,2.5v0.2c0.1,0.6,0.3,1.1,0.6,1.6l0,0l0.1,0.1    l-0.2,3.3h-0.1c-0.1,0.1-0.3,0.2-0.4,0.3c-0.1,0.1-0.2,0.3-0.2,0.5c0,0.3,0.1,0.7,0.2,1c0.4,1.5,0.2,0.7,2.9,2.6h0.1L41,45.7z     M56.4,55.2h-6.1v-0.1c-0.1-0.1-0.2-0.3-0.3-0.4h-1.5v-0.1c-0.1-0.2-0.2-0.4-0.4-0.4h-0.3c-0.3,0-0.6-0.2-0.8-0.5h-4.2    c-0.4,0-0.8-0.2-1-0.6C41,53,35.6,53,32.8,53h-1.9l0-0.1c-0.4-0.3-0.8-0.5-1.3-0.6H28c-0.3,0.3-2.5,1.7-2.7,2.3l0,0.1h-0.1    c-0.8-0.1-1.7-0.2-2.6-0.2c-0.5,0-0.9,0-1.3,0.2l-0.1,0.1L21,54.6c-0.1-0.2-0.2-0.3-0.4-0.4l-0.1-0.1l0.1-0.1    c0.2-0.2,0.4-0.4,0.4-0.7v-0.1l1.3-0.7c0.5-0.5,0.4-0.3,1.5-1.3v-2h0.1c0.2-0.1,0.3-0.2,0.4-0.5c0-0.2-0.2-0.4-0.4-0.4l-0.1-0.1    v-3.6h0.1c0.1-0.1,0.2-0.2,0.4-0.3v-1.6h0.1c0.4-0.3,0.4-0.3,0.4-0.3c0-0.1,0-0.2,0-0.3c0-0.5-0.4-0.9-0.8-1.2l-0.1-0.1v-6h0.1    c0.2,0,0.3-0.2,0.3-0.3c-0.1-0.5-0.1-1-0.1-1.5c0-0.5,0-1.1,0.1-1.6v-0.1h0.1c0.1-0.1,0.2-0.2,0.4-0.3v-4.7h0.1    c0.3-0.3,0.4-0.6,0.5-1c0,0,0,0,0-0.1c0-0.4-0.2-0.7-0.4-1h-0.1v-6.6c-0.1-0.1-0.2-0.2-0.4-0.3h-0.1v-3.6h0.1    c0.3-0.2,0.6-0.5,0.8-0.8c0-0.3,0.1-1.2,0.1-2c0-0.4,0-0.8-0.1-1.1c-0.1-0.1-0.2-0.2-0.4-0.3l-0.1-0.1l0.1-0.2    c0.4-0.6,0.6-1.3,0.7-2.1l0,0c-0.1-0.8-0.4-1.7-0.8-2.4c-0.2-0.2-0.5-0.3-0.9-0.3h-0.2v0.1l-0.2-0.1c-0.5-0.4,0.2-0.6-2.2-2.3    L21.1,2l0.1-0.1c0.2-0.2,0.4-0.5,0.4-0.8V0.9h0.8l0,0.1c0.1,0.1,0.2,0.3,0.3,0.4h3.5v0.1c0.1,0.5,0.5,0.8,1,0.9    c0.1,0,0.3-0.1,0.5-0.1c0.1,0,0.2,0,0.3,0.1c0.6,0.7,1.2,1.4,1.9,2.1h0.1v4.4l-0.1,0.1c-0.2,0.1-0.4,0.3-0.4,0.6l0,0l0,0    c0.1,0.4,0.4,0.7,0.8,0.9h0.1v2l0,0.2c-0.1,0.1-0.2,0.2-0.4,0.3v9.2c0.3,0.2,0.6,0.5,0.9,0.8c0.2,1,0.3,2,0.3,3    c0,2.8-0.2,6.5-0.2,6.5v0.1h-0.1c-0.1,0.1-0.2,0.2-0.4,0.3v3.1c0.1,0.1,0.2,0.2,0.4,0.3h0.1v0.1c0,0.3,0,0.6,0,0.9    c0,0.7,0,1.6,0,1.6v0.1L30.8,39c-0.5,0.1-0.5,0.4-0.7,1.1c0.3,0.2,0.4,0.5,0.4,0.8V41c0.1,0.4-0.1,0.7-0.4,0.9v2L30,44    c-0.1,0.1-0.2,0.2-0.4,0.3v2.9l-0.1,0c-0.2,0.1-0.3,0.4-0.4,0.6c0,0,0,0.1,0,0.1c0.4,0.3,0.6,0.8,0.5,1.3c0.8,0,1.4,0.1,2.1,0.1    c0.4,0,0.9,0,1.3-0.1c0.3-0.5,0.7-0.8,1.3-1.1h0.2c0.7,0,2.1,0.7,3.5,0.7c0.7,0,1.5-0.2,2.1-0.6c0.1-0.2,0.4-0.4,0.6-0.4    c0.5-0.1,1.1-0.2,1.6-0.2c1.3-0.1,3.1-0.1,4.9-0.1c3.9,0,7.8,0.1,7.8,0.1h0.2v5.5l0,0l0,0.1l0.2,0.4c0.2,0.3,0.4,0.7,0.6,1    L56.4,55.2z M123,3c0,0.5-0.3,1.3-2.1,1.3s-2.1-0.7-2.1-1.3V1.3c0-0.5,0.3-1.3,2.1-1.3s2.1,0.7,2.1,1.3V3z M122.6,1.2    c0-0.4-0.3-0.9-1.7-0.9s-1.7,0.5-1.7,0.9V3c0,0.4,0.3,0.9,1.7,0.9s1.7-0.5,1.7-0.9V1.2z M120.4,2.5v0.9c0,0,0,0.1,0,0.1    c0,0,0,0,0,0h-0.2c0,0-0.1,0-0.1-0.1c0,0,0,0,0,0V1c0,0,0-0.1,0-0.1c0,0,0,0,0,0h0.9c0.8,0,0.9,0.4,0.9,0.7v0.2    c0,0.3-0.2,0.6-0.5,0.6l0.4,0.9c0,0,0,0.1,0,0.1c0,0,0,0,0,0h-0.2c0,0-0.1,0-0.1-0.1l-0.4-0.9L120.4,2.5L120.4,2.5z M120.4,1.2v1    h0.6c0.3,0.1,0.5-0.1,0.6-0.4c0,0,0,0,0-0.1V1.6c0-0.3-0.3-0.5-0.5-0.4c0,0,0,0-0.1,0L120.4,1.2L120.4,1.2z"></path></g></g></svg>