<?xml version="1.0" encoding="UTF-8"?>
<svg width="32px" height="32px" viewBox="0 0 32 32" version="1.1" xmlns="http://www.w3.org/2000/svg" xmlns:xlink="http://www.w3.org/1999/xlink">
    <!-- Generator: Sketch 56.3 (81716) - https://sketch.com -->
    <title>Nav/Tooltip/Play</title>
    <desc>Created with Sketch.</desc>
    <g id="Nav/Tooltip/Play" stroke="none" stroke-width="1" fill="none" fill-rule="evenodd">
        <path d="M2.31350986,31.8491493 L4.34753803,29.8151211 C4.34753803,29.8151211 6.92015775,29.5685859 7.54393239,29.2341634 C8.16770704,28.8997408 10.159369,28.0717972 10.159369,28.0717972 L14.2274254,25.4563606 C14.2274254,25.4563606 15.0238197,24.957431 15.3893408,24.5846986 C15.7553127,24.2119662 16.551707,23.4223324 16.551707,23.4223324 L18.0047775,23.4223324 C18.0047775,23.4223324 20.3119324,21.8146704 20.9104676,21.3883042 C21.5094535,20.961938 22.4009465,20.5481915 22.6537915,20.225938 C22.9066366,19.9041352 24.3150873,18.8512901 24.6882704,18.4826141 C25.0605521,18.113938 26.3040451,17.829093 26.4315944,17.6109521 C26.5591437,17.3928113 29.3372845,15.8676282 29.3372845,15.8676282 L29.9182423,14.9955155 L27.3032563,13.2521915 C27.3032563,13.2521915 23.4366648,10.3041352 23.2352,10.3465014 C23.0337352,10.3888676 21.7794254,9.36171268 21.4914254,9.47483944 C21.2038761,9.5879662 20.1298479,8.89568451 19.7481014,8.89343099 C19.3663549,8.89117746 18.7295099,8.70638873 18.295031,8.60317746 C17.8610028,8.49951549 16.5958761,7.59720563 16.2614535,7.44081127 C15.9265803,7.2839662 14.2274254,7.44081127 14.2274254,7.44081127 C14.2274254,7.44081127 12.3615099,5.23731831 11.902693,4.82582535 C11.4434254,4.41343099 10.4847775,4.12047324 10.159369,3.95371268 C9.83350986,3.78695211 3.3420169,0.409374648 2.89491831,0.176360563 C2.44736901,-0.0571042254 2.02731268,-0.144991549 2.02280563,0.467064789 C2.0187493,1.07912113 2.31350986,2.50109296 2.31350986,2.50109296 L2.60421408,11.5088676 C2.60421408,11.5088676 2.92827042,13.7281352 3.18517183,14.1238535 C3.44207324,14.5200225 3.27891831,16.6212056 2.89491831,17.3202479 C2.51046761,18.0192901 1.87091831,19.5521352 2.02280563,20.5166423 C2.17514366,21.4811493 2.77953803,23.7423324 2.89491831,24.2939944 C3.00984789,24.846107 2.56004507,25.4523042 2.31350986,26.0373183 C2.06697465,26.6232338 1.98990423,30.0706704 2.02280563,30.6867831 C2.05615775,31.3028958 1.90381972,31.6341634 2.31350986,31.8491493" id="Fill-1" fill="#BBAC95"></path>
    </g>
</svg>