<?xml version="1.0" encoding="UTF-8"?>
<svg width="38px" height="32px" color="#bbac95" viewBox="0 0 38 32" version="1.1" xmlns="http://www.w3.org/2000/svg" xmlns:xlink="http://www.w3.org/1999/xlink">
    <!-- Generator: Sketch 56.3 (81716) - https://sketch.com -->
    <title>Nav/Arrow</title>
    <desc>Created with Sketch.</desc>
    <g id="Nav/Arrow" stroke="none" stroke-width="1" fill="none" fill-rule="evenodd" color="#bbac95">
        <path d="M37,3.65310094 L32.3122222,6.47570418 L31.6872222,6.16232942 L27.625,13.3760825 C27.625,13.3760825 26.8722222,15.6210056 26.6877778,15.885311 C26.5027778,16.150174 25.4377778,17.4538576 25.4377778,17.4538576 L24.5,18.3945395 L23.875,19.9630861 L23.875,21.8450074 L19.5,30 L18.875,29.0593181 L16.6872222,24.981543 L16.375,23.413554 L15.125,21.8450074 L14.8122222,20.2764608 L13.25,19.0218466 L12.9372222,17.4538576 L6.68722222,6.47570418 L5.75,5.5350223 L2,3.65310094 C2,3.65310094 3.78944444,3.44455617 3.875,3.33972618 C3.96055556,3.23433859 6.68722222,3.33972618 6.68722222,3.33972618 C6.68722222,3.33972618 6.975,2.88918027 7.31222222,3.02579382 C7.65,3.16240737 7.93722222,3.33972618 7.93722222,3.33972618 L8.25,3.65310094 L8.25,4.90771518 L9.81222222,4.90771518 L13.875,10.5534793 C13.875,10.5534793 17.5744444,12.8608543 19.1872222,15.2580039 L21.6877778,12.7487754 L23.25,12.4354006 C23.25,12.4354006 23.3872222,11.5794749 23.5627778,11.4947188 C23.7377778,11.409405 24.05,10.8869279 24.1877778,10.5534793 C24.325,10.2200307 25.2272222,8.54275084 26.0627778,8.04425078 C26.8977778,7.54575073 28.25,6.16232942 28.25,6.16232942 L30.125,3.65310094 C30.125,3.65310094 30.7027778,3.27169821 31.0622222,3.33972618 C31.4222222,3.40775416 31.53,4.20290078 32,3.9664757 C32.47,3.73060822 33.0677778,3.12393254 33.5627778,3.33972618 C34.0572222,3.55496223 37,3.65310094 37,3.65310094" id="Fill-1" fill="#BBAC95"></path>
    </g>
</svg>