<svg xmlns="http://www.w3.org/2000/svg" xmlns:xlink="http://www.w3.org/1999/xlink" color="hsla(0,0%,100%,.7)" viewBox="0 0 64 64" fill="currentColor" focusable="false" aria-hidden="true">    <g>        <path d="M32.027,9.583L32.027,9.583c0.873,0,1.702,0.38,2.272,1.041l12.264,11.78 c1.082,1.255,0.942,3.149-0.313,4.231c-1.254,1.083-3.149,0.941-4.231-0.313l-9.993-9.146L22,26.375 c-1.081,1.255-2.976,1.396-4.231,0.312c-1.255-1.082-1.395-2.977-0.312-4.231l12.298-11.832 C30.325,9.963,31.154,9.583,32.027,9.583z"></path>        <path d="M31.992,54.166L31.992,54.166c-0.873,0-1.702-0.38-2.272-1.041l-12.264-11.78 c-1.082-1.255-0.942-3.149,0.313-4.231c1.254-1.083,3.149-0.941,4.231,0.313l9.993,9.146l10.026-9.198 c1.081-1.255,2.976-1.396,4.231-0.312c1.255,1.082,1.395,2.977,0.312,4.231L34.264,53.125 C33.694,53.786,32.865,54.166,31.992,54.166z"></path>    </g>    </svg>