<svg xmlns="http://www.w3.org/2000/svg" color="#fff" fill="currentColor" stroke="currentColor" stroke-linecap="round" stroke-linejoin="round" stroke-width="0" viewBox="0 0 24 24" part="icon blz-icon"><path stroke="none" d="M17.333 4h-1.666C14.747 4 14 4.768 14 5.714v12.572c0 .947.746 1.714 1.667 1.714h1.666c.92 0 1.667-.767 1.667-1.714V5.714C19 4.768 18.254 4 17.333 4Zm-9 0H6.667C5.747 4 5 4.768 5 5.714v12.572C5 19.233 5.746 20 6.667 20h1.666c.92 0 1.667-.767 1.667-1.714V5.714C10 4.768 9.254 4 8.333 4Z"></path></svg>