<svg xmlns="http://www.w3.org/2000/svg" color="#fff" fill="currentColor" stroke="currentColor" stroke-linecap="round" stroke-linejoin="round" stroke-width="0" aria-labelledby="blz-icon-title-playstation-4-5-logo" viewBox="0 0 273 32" part="icon blz-icon"><title id="blz-icon-title-playstation-4-5-logo">PlayStation</title><path stroke="none" d="M235.178 8.316v-1.78a.135.135 0 0 0-.132-.135h-12.55c-3.638 0-5.422 2.242-5.422 5.162v8.877c0 1.806-.858 3.108-2.668 3.108h-11.797a.135.135 0 0 0-.135.136v1.784c0 .075.06.135.135.135h13.156c3.638 0 5.426-2.239 5.426-5.159v-8.88c0-1.81.858-3.112 2.664-3.112h11.187a.138.138 0 0 0 .136-.136Zm-37.205-1.911h-22.701a.135.135 0 0 0-.136.135v1.784c0 .075.06.135.136.135h21.339c1.807 0 2.668 1.302 2.668 3.112 0 1.806-.858 3.108-2.668 3.108h-16.88c-2.619 0-4.595 2.202-4.595 5.122v5.67c0 .076.06.136.136.136h3.849c.075 0 .136-.06.136-.136v-5.674c0-1.81 1.042-3.07 2.536-3.07h16.18c3.639 0 5.423-2.236 5.423-5.156 0-2.92-1.784-5.166-5.423-5.166Zm66.86 15.093-3.849-.004a.14.14 0 0 1-.14-.136V8.444c0-1.983-1.373-2.634-3.3-1.441l-23.138 14.209c-.911.557-1.212 1.189-.993 1.655.188.403.688.681 1.689.681h21.49c.061.004.11.05.121.102v1.814c0 .075.06.14.135.14h3.865a.14.14 0 0 0 .135-.14v-1.776a.14.14 0 0 1 .136-.14h3.849c.075 0 .139-.06.139-.135V21.63a.135.135 0 0 0-.139-.131Zm-8.113-.147a.14.14 0 0 1-.135.14h-18.013c-.147 0-.222-.038-.245-.091-.022-.083.026-.147.132-.218l17.93-11.04c.124-.076.331-.065.331.18V21.35ZM158 0h1v32h-1zM91.12 25.6a5.16 5.16 0 0 0 5.162-5.16v-8.88a3.11 3.11 0 0 1 3.112-3.112h10.013c.075 0 .135-.06.135-.136V6.536a.135.135 0 0 0-.135-.135H97.339a5.162 5.162 0 0 0-5.162 5.162v8.881a3.11 3.11 0 0 1-3.112 3.112H79.19a.135.135 0 0 0-.136.135v1.777c0 .075.06.135.136.135h11.928v-.004Zm22.565-11.99V6.537c0-.075.061-.135.136-.135h27.266c.075 0 .135.06.135.135v1.776c0 .076-.06.136-.135.136h-23.165a.135.135 0 0 0-.135.135v4.61c0 .816.662 1.475 1.475 1.475h17.246a5.463 5.463 0 0 1 0 10.928h-22.687a.136.136 0 0 1-.136-.136v-1.776c0-.075.061-.136.136-.136h20.636a3.413 3.413 0 0 0 3.413-3.401c.007-1.885-1.554-3.428-3.44-3.428h-17.637a3.105 3.105 0 0 1-3.108-3.109Zm-40.496 1.062A3.11 3.11 0 0 0 76.3 11.56a3.11 3.11 0 0 0-3.112-3.112H52.27a.135.135 0 0 1-.136-.136V6.536c0-.075.06-.135.136-.135h22.97a5.161 5.161 0 0 1 5.162 5.162 5.161 5.161 0 0 1-5.162 5.163H59.345a3.113 3.113 0 0 0-3.112 3.112v5.63c0 .075-.06.135-.135.135H52.27a.135.135 0 0 1-.136-.135v-5.634a5.161 5.161 0 0 1 5.163-5.162h15.89ZM15.495 0v29.859L22.257 32V6.965c0-1.178.527-1.964 1.37-1.693 1.103.305 1.317 1.392 1.317 2.559v9.998c4.207 2.035 7.522 0 7.522-5.377 0-5.49-1.942-7.936-7.657-9.904C22.555 1.798 18.374.53 15.495 0Z"></path><path stroke="none" d="m23.544 27.635 10.86-3.865c1.227-.455 1.415-1.072.421-1.4-1.008-.33-2.81-.236-4.052.211l-7.225 2.552V21.06l.414-.135s2.092-.742 5.035-1.061c2.935-.324 6.536.041 9.37 1.11 3.187 1.012 3.544 2.49 2.739 3.518-.817 1.016-2.804 1.754-2.804 1.754l-14.75 5.298v-3.91h-.008Zm-20.432-.41c-3.27-.91-3.816-2.834-2.322-3.947 1.377-1.016 3.718-1.78 3.718-1.78l9.685-3.455v3.929l-6.965 2.495c-1.234.44-1.418 1.06-.425 1.388 1.012.339 2.807.248 4.041-.207l3.35-1.208v3.507c-.215.038-.456.072-.674.11-3.342.556-6.898.33-10.408-.832Z"></path></svg>