<svg xmlns="http://www.w3.org/2000/svg" color="#fff" fill="currentColor" stroke="currentColor" stroke-linecap="round" stroke-linejoin="round" stroke-width="0" aria-labelledby="blz-icon-title-xbox-one-logo" viewBox="0 0 166 32" part="icon blz-icon"><title id="blz-icon-title-xbox-one-logo">Xbox One</title><path stroke="none" d="M16 12.832c.018 0 .04.015.052.026 4.785 3.64 12.978 12.642 10.48 15.186A15.933 15.933 0 0 1 16 32a15.936 15.936 0 0 1-10.532-3.956c-2.5-2.543 5.694-11.546 10.479-15.185.013-.011.035-.027.053-.027Zm8.335-10.49C21.885.884 19.23 0 16 0c-3.23 0-5.884.885-8.335 2.341a.061.061 0 0 0-.027.08c.014.029.046.034.078.027 3.097-.67 7.804 2.006 8.25 2.275.01.006.02.012.034.012a.063.063 0 0 0 .034-.012c.446-.269 5.152-2.944 8.25-2.275.032.007.064.002.078-.028a.061.061 0 0 0-.027-.079ZM4.8 4.591a.28.28 0 0 0-.071.053A15.95 15.95 0 0 0 0 16c0 3.644 1.22 7.003 3.272 9.693.02.026.057.043.085.026.028-.016.03-.051.019-.083-1.22-3.77 5.016-12.912 8.237-16.745.012-.014.022-.029.022-.047 0-.023-.013-.04-.028-.053-4.88-4.854-6.538-4.339-6.807-4.2Zm15.593 4.2a.068.068 0 0 0-.028.052c0 .018.011.033.022.047 3.22 3.833 9.457 12.975 8.237 16.745-.01.032-.009.067.019.083.028.017.065 0 .085-.026A15.925 15.925 0 0 0 32 16c0-4.44-1.81-8.456-4.729-11.355a.278.278 0 0 0-.071-.054c-.27-.139-1.926-.654-6.807 4.2ZM55.68 25.855h-3.274L46.772 18.1l-5.636 7.756h-3.274l7.272-10.01-6.7-9.223h3.274l5.064 6.97 5.065-6.97h3.274l-6.702 9.223 7.272 10.01Zm16.994-5.47c0 1.689-.561 3.037-1.666 4.008-1.104.97-2.71 1.461-4.773 1.461H57.22V17.29h-4.285l1.782-2.454h2.503V6.623h8.64c1.937 0 3.444.465 4.477 1.38 1.034.918 1.558 2.14 1.558 3.63 0 1.85-.838 3.253-2.493 4.17 1.067.413 1.886 1.021 2.434 1.807.558.8.84 1.735.84 2.777Zm-12.519-5.549h5.515c1.11 0 1.953-.249 2.507-.74.552-.49.832-1.237.832-2.221 0-.85-.29-1.522-.865-1.999-.576-.478-1.408-.72-2.473-.72h-5.515v5.68Zm9.554 5.496c0-1.01-.305-1.777-.906-2.28-.602-.505-1.52-.761-2.728-.761h-5.919v6.03h5.919c1.172 0 2.081-.26 2.702-.774.618-.514.932-1.258.932-2.215Zm22.722-4.094c0 1.486-.216 2.852-.64 4.056a9.256 9.256 0 0 1-1.925 3.208 8.462 8.462 0 0 1-3 2.088c-1.13.461-2.411.696-3.808.696-1.416 0-2.706-.234-3.836-.696a8.204 8.204 0 0 1-2.972-2.087 9.086 9.086 0 0 1-1.945-3.195c-.43-1.205-.648-2.574-.648-4.069 0-1.486.218-2.853.648-4.063a9.35 9.35 0 0 1 1.945-3.229 8.207 8.207 0 0 1 2.972-2.067c1.129-.457 2.42-.689 3.836-.689 1.397 0 2.679.232 3.808.689a8.46 8.46 0 0 1 3 2.067 9.372 9.372 0 0 1 1.925 3.229c.424 1.209.64 2.576.64 4.062Zm-15.73 0c0 2.263.587 4.078 1.744 5.395 1.139 1.334 2.69 2.01 4.612 2.01 1.922 0 3.473-.676 4.611-2.01 1.14-1.299 1.717-3.114 1.717-5.394 0-2.28-.578-4.105-1.718-5.422-1.155-1.316-2.707-1.983-4.611-1.983s-3.455.667-4.612 1.983c-1.155 1.352-1.743 3.177-1.743 5.421Zm25.008-.393 6.702-9.224h-3.274l-5.065 6.97-5.064-6.97h-3.274l6.701 9.224-7.272 10.01h3.274l5.636-7.756 5.635 7.756h3.274l-7.273-10.01Zm28.883-3.67a9.367 9.367 0 0 0-1.925-3.228 8.475 8.475 0 0 0-3-2.068c-1.129-.457-2.411-.689-3.808-.689-1.416 0-2.706.232-3.836.689a8.188 8.188 0 0 0-2.972 2.068 9.339 9.339 0 0 0-1.945 3.228c-.431 1.21-.648 2.576-.648 4.063 0 1.495.217 2.865.648 4.07a9.076 9.076 0 0 0 1.945 3.194 8.185 8.185 0 0 0 2.972 2.087c1.129.462 2.42.696 3.836.696 1.397 0 2.679-.234 3.808-.696a8.47 8.47 0 0 0 3-2.088 9.235 9.235 0 0 0 1.924-3.208c.426-1.205.641-2.57.641-4.056.001-1.485-.215-2.852-.64-4.062Zm-4.122 9.459c-1.139 1.334-2.69 2.01-4.611 2.01-1.922 0-3.473-.676-4.612-2.01-1.157-1.318-1.744-3.133-1.744-5.395 0-2.245.587-4.07 1.744-5.422 1.156-1.317 2.708-1.983 4.612-1.983s3.455.667 4.611 1.983c1.14 1.317 1.717 3.141 1.717 5.422 0 2.28-.578 4.095-1.717 5.395Zm28.716-12.37v5.572h9.553v2.454h-9.553v5.922h10.8v2.642h-13.739V6.623h13.739v2.642h-10.8Zm-5.877-2.642v19.233h-3.356l-.008-.013-5.899-9.293c-1.602-2.503-2.805-4.477-3.584-5.878v15.183h-2.858V6.623h3.357l.008.013 5.925 9.293c1.499 2.374 2.702 4.36 3.584 5.912V6.623h2.831Z"></path></svg>