<svg xmlns="http://www.w3.org/2000/svg" color="#fff" fill="currentColor" stroke="currentColor" stroke-linecap="round" stroke-linejoin="round" stroke-width="0" aria-labelledby="blz-icon-title-xbox-series-logo" viewBox="0 0 252 32" part="icon blz-icon"><title id="blz-icon-title-xbox-series-logo">Xbox Series X|S</title><path stroke="none" d="M16 12.832c.018 0 .04.015.052.026 4.785 3.64 12.978 12.642 10.48 15.186A15.933 15.933 0 0 1 16 32a15.936 15.936 0 0 1-10.532-3.956c-2.5-2.543 5.694-11.546 10.479-15.185.013-.011.035-.027.053-.027Zm8.335-10.49C21.885.884 19.23 0 16 0c-3.23 0-5.884.885-8.335 2.341a.061.061 0 0 0-.027.08c.014.029.046.034.078.027 3.097-.67 7.804 2.006 8.25 2.275.01.006.02.012.034.012a.063.063 0 0 0 .034-.012c.446-.269 5.152-2.944 8.25-2.275.032.007.064.002.078-.028a.061.061 0 0 0-.027-.079ZM4.8 4.591a.28.28 0 0 0-.071.053A15.95 15.95 0 0 0 0 16c0 3.644 1.22 7.003 3.272 9.693.02.026.057.043.085.026.028-.016.03-.051.019-.083-1.22-3.77 5.016-12.912 8.237-16.745.012-.014.022-.029.022-.047 0-.023-.013-.04-.028-.053-4.88-4.854-6.538-4.339-6.807-4.2Zm15.593 4.2a.068.068 0 0 0-.028.052c0 .018.011.033.022.047 3.22 3.833 9.457 12.975 8.237 16.745-.01.032-.009.067.019.083.028.017.065 0 .085-.026A15.925 15.925 0 0 0 32 16c0-4.44-1.81-8.456-4.729-11.355a.278.278 0 0 0-.071-.054c-.27-.139-1.926-.654-6.807 4.2ZM55.68 25.855h-3.274L46.772 18.1l-5.636 7.756h-3.274l7.272-10.01-6.7-9.223h3.274l5.064 6.97 5.065-6.97h3.274l-6.702 9.223 7.272 10.01Zm16.994-5.47c0 1.689-.561 3.037-1.666 4.008-1.104.97-2.71 1.461-4.773 1.461H57.22V17.29h-4.285l1.782-2.454h2.503V6.623h8.64c1.937 0 3.444.465 4.477 1.38 1.034.918 1.558 2.14 1.558 3.63 0 1.85-.838 3.253-2.493 4.17 1.067.413 1.886 1.021 2.434 1.807.558.8.84 1.735.84 2.777Zm-12.519-5.549h5.515c1.11 0 1.953-.249 2.507-.74.552-.49.832-1.237.832-2.221 0-.85-.29-1.522-.865-1.999-.576-.478-1.408-.72-2.473-.72h-5.515v5.68Zm9.554 5.496c0-1.01-.305-1.777-.906-2.28-.602-.505-1.52-.761-2.728-.761h-5.919v6.03h5.919c1.172 0 2.081-.26 2.702-.774.618-.514.932-1.258.932-2.215Zm22.722-4.094c0 1.486-.216 2.852-.64 4.056a9.256 9.256 0 0 1-1.925 3.208 8.462 8.462 0 0 1-3 2.088c-1.13.461-2.411.696-3.808.696-1.416 0-2.706-.234-3.836-.696a8.204 8.204 0 0 1-2.972-2.087 9.086 9.086 0 0 1-1.945-3.195c-.43-1.205-.648-2.574-.648-4.069 0-1.486.218-2.853.648-4.063a9.35 9.35 0 0 1 1.945-3.229 8.207 8.207 0 0 1 2.972-2.067c1.129-.457 2.42-.689 3.836-.689 1.397 0 2.679.232 3.808.689a8.46 8.46 0 0 1 3 2.067 9.372 9.372 0 0 1 1.925 3.229c.424 1.209.64 2.576.64 4.062Zm-15.73 0c0 2.263.587 4.078 1.744 5.395 1.139 1.334 2.69 2.01 4.612 2.01 1.922 0 3.473-.676 4.611-2.01 1.14-1.299 1.717-3.114 1.717-5.394 0-2.28-.578-4.105-1.718-5.422-1.155-1.316-2.707-1.983-4.611-1.983s-3.455.667-4.612 1.983c-1.155 1.352-1.743 3.177-1.743 5.421Zm25.008-.393 6.702-9.224h-3.274l-5.065 6.97-5.064-6.97h-3.274l6.701 9.224-7.272 10.01h3.274l5.636-7.756 5.635 7.756h3.274l-7.273-10.01Zm31.736-6.581v5.572H143v2.454h-9.554v5.922h10.8v2.642h-13.738V6.622h13.738v2.642h-10.8Zm-6.76 7.68c-.96-.878-2.554-1.56-4.74-2.026l-1.67-.35c-1.586-.339-2.688-.754-3.275-1.234-.582-.44-.877-1.104-.877-1.97 0-.849.331-1.512.984-1.97.656-.462 1.621-.695 2.866-.695 1.602 0 2.779.292 3.497.869.717.576 1.126 1.489 1.215 2.714l.002.025h2.91l-.001-.028c-.035-1.885-.696-3.388-1.962-4.465-1.265-1.076-3.179-1.623-5.688-1.623-2.079 0-3.753.477-4.974 1.42-1.222.944-1.842 2.224-1.842 3.806 0 1.581.51 2.839 1.517 3.738 1.004.896 2.514 1.552 4.484 1.945l1.642.35c1.622.357 2.761.768 3.383 1.221.618.45.931 1.1.931 1.93 0 1.026-.381 1.821-1.133 2.36-.755.542-1.85.817-3.256.817-1.701 0-2.999-.36-3.861-1.071-.86-.71-1.309-1.79-1.336-3.211l-.001-.028h-2.937v.029c.017 2.207.742 3.908 2.151 5.058 1.408 1.148 3.403 1.73 5.929 1.73 2.33 0 4.18-.518 5.499-1.541 1.321-1.024 1.99-2.445 1.99-4.224.004-1.49-.484-2.694-1.447-3.575Zm35.234 6.537-.188-2.989c-.036-1.06-.273-1.92-.705-2.56-.42-.62-1.084-1.073-1.975-1.345.984-.328 1.76-.888 2.312-1.666.566-.8.853-1.798.853-2.966 0-1.653-.597-2.97-1.775-3.913-1.176-.943-2.808-1.42-4.853-1.42h-8.404v19.232h2.939v-7.89h5.546c1.101 0 1.91.255 2.404.759.495.504.773 1.38.826 2.607l.081 2.046c.018 1.114.21 1.944.571 2.467l.008.012h3.027l-.025-.043c-.337-.568-.553-1.353-.642-2.331ZM150.124 9.156h5.304c1.209 0 2.15.26 2.798.776.645.512.972 1.284.972 2.294 0 1.046-.318 1.864-.946 2.43-.63.567-1.507.854-2.608.854h-5.52V9.156Zm14.747 16.7h2.939V6.622h-2.939v19.234Zm19.615-16.591V6.622h-13.738v19.233h13.738v-2.642h-10.8v-5.922h9.554v-2.454h-9.554V9.265h10.8Zm15.658 7.68c-.96-.878-2.555-1.56-4.74-2.026l-1.67-.35c-1.586-.339-2.688-.754-3.274-1.234-.583-.44-.878-1.104-.878-1.97 0-.849.332-1.512.985-1.97.656-.462 1.621-.695 2.866-.695 1.602 0 2.779.292 3.497.869.717.576 1.126 1.489 1.215 2.714l.002.025h2.91l-.001-.028c-.036-1.885-.696-3.388-1.963-4.465-1.265-1.076-3.178-1.623-5.688-1.623-2.079 0-3.753.477-4.973 1.42-1.222.944-1.843 2.224-1.843 3.806 0 1.581.511 2.839 1.518 3.738 1.004.896 2.513 1.552 4.483 1.945l1.643.35c1.622.357 2.761.768 3.383 1.221.618.45.931 1.1.931 1.93 0 1.026-.382 1.821-1.134 2.36-.754.542-1.849.817-3.256.817-1.7 0-2.999-.36-3.86-1.071-.861-.71-1.309-1.79-1.337-3.211l-.001-.028h-2.938v.029c.018 2.207.743 3.908 2.152 5.058 1.408 1.148 3.404 1.73 5.93 1.73 2.33 0 4.18-.518 5.499-1.541 1.321-1.024 1.99-2.445 1.99-4.224.003-1.49-.485-2.694-1.448-3.575ZM231.426 4.22h-1.47v24.04h1.47V4.22Zm-13.452 11.627 6.702-9.224h-3.274l-5.065 6.97-5.065-6.97h-3.274l6.702 9.224-7.272 10.01h3.273l5.636-7.756 5.635 7.756h3.274l-7.272-10.01Zm32.288 1.1c-.96-.88-2.554-1.561-4.74-2.027l-1.67-.35c-1.586-.339-2.688-.754-3.274-1.234-.582-.44-.878-1.104-.878-1.97 0-.849.332-1.512.985-1.97.656-.462 1.621-.695 2.866-.695 1.602 0 2.779.292 3.497.869.717.576 1.126 1.489 1.215 2.714l.002.025h2.91l-.001-.028c-.035-1.885-.696-3.388-1.962-4.465-1.265-1.076-3.179-1.623-5.688-1.623-2.08 0-3.753.477-4.974 1.42-1.222.944-1.842 2.224-1.842 3.806 0 1.581.51 2.838 1.517 3.738 1.004.896 2.514 1.552 4.483 1.945l1.643.35c1.622.357 2.761.768 3.383 1.221.618.45.931 1.1.931 1.93 0 1.026-.381 1.821-1.133 2.36-.755.542-1.85.817-3.256.817-1.701 0-3-.36-3.861-1.071-.86-.71-1.309-1.79-1.336-3.211l-.001-.028h-2.938v.029c.018 2.207.743 3.908 2.152 5.058 1.408 1.148 3.404 1.73 5.93 1.73 2.33 0 4.18-.518 5.499-1.541 1.321-1.024 1.99-2.445 1.99-4.224.001-1.49-.487-2.694-1.449-3.575Z"></path></svg>