<svg xmlns="http://www.w3.org/2000/svg" width="8" height="12" viewBox="0 0 8 12" fill="none">
<path fill-rule="evenodd" clip-rule="evenodd" d="M0.452287 11.7615C0.16869 11.4586 0.185308 10.984 0.489405 10.7015L5.54931 6.00087L0.545254 1.29539C0.242879 1.01106 0.229144 0.536381 0.514577 0.235171C0.80001 -0.0660391 1.27652 -0.0797205 1.5789 0.204613L7.75 6.0075L1.5164 11.7985C1.2123 12.081 0.735885 12.0644 0.452287 11.7615Z" fill="#999999"/>
<path xmlns="http://www.w3.org/2000/svg" fill-rule="evenodd" clip-rule="evenodd" d="M0.452287 11.7615C0.16869 11.4586 0.185308 10.984 0.489405 10.7015L5.54931 6.00087L0.545254 1.29539C0.242879 1.01106 0.229144 0.536381 0.514577 0.235171C0.80001 -0.0660391 1.27652 -0.0797205 1.5789 0.204613L7.75 6.0075L1.5164 11.7985C1.2123 12.081 0.735885 12.0644 0.452287 11.7615Z" fill="#999999"/>
</svg>