<svg width="30" height="30" viewBox="0 0 30 30" fill="none" xmlns="http://www.w3.org/2000/svg">
<path d="M0 15C0 4.20012 4.20012 0 15 0C25.7999 0 30 4.20012 30 15C30 25.7999 25.7999 30 15 30C4.20012 30 0 25.7999 0 15Z" fill="#FF322E"/>
<path d="M21.6488 11.5488H18.7461V10.6211C18.7461 8.55478 17.0663 6.875 15 6.875C12.9337 6.875 11.2539 8.55478 11.2539 10.6211V11.5488H8.35119C7.40939 11.5488 6.70656 12.4204 6.91038 13.3411L8.48473 20.4959C8.63232 21.1707 9.22973 21.6556 9.92554 21.6556H20.0745C20.7632 21.6556 21.3677 21.1707 21.5153 20.4959L23.0896 13.3411C23.2934 12.4204 22.5906 11.5488 21.6488 11.5488ZM11.8162 13.9666C11.5069 13.9666 11.2539 13.7136 11.2539 13.4043C11.2539 13.0951 11.5069 12.8421 11.8162 12.8421C12.1254 12.8421 12.3784 13.0951 12.3784 13.4043C12.3784 13.7136 12.1254 13.9666 11.8162 13.9666ZM12.3784 10.6211C12.3784 9.17327 13.5592 7.99953 15 7.99953C16.4408 7.99953 17.6216 9.1803 17.6216 10.6211V11.5488H12.3714V10.6211H12.3784ZM18.1909 13.9666C17.8816 13.9666 17.6286 13.7136 17.6286 13.4043C17.6286 13.0951 17.8816 12.8421 18.1909 12.8421C18.5001 12.8421 18.7531 13.0951 18.7531 13.4043C18.7531 13.7136 18.5001 13.9666 18.1909 13.9666Z" fill="white"/>
</svg>
