<svg width="30" height="30" viewBox="0 0 30 30" fill="none" xmlns="http://www.w3.org/2000/svg">
<path d="M0 15C0 4.20012 4.20012 0 15 0C25.7999 0 30 4.20012 30 15C30 25.7999 25.7999 30 15 30C4.20012 30 0 25.7999 0 15Z" fill="#FF7800"/>
<path d="M21.4174 8.78241L15.2553 10.4116C15.0919 10.4574 14.9217 10.4574 14.7583 10.4116L8.59623 8.78241C8.05152 8.63847 7.5 8.99178 7.5 9.48903V19.8789C7.5 20.206 7.74512 20.4939 8.09918 20.5855L14.7515 22.352C14.9149 22.3978 15.0851 22.3978 15.2485 22.352L21.9008 20.5855C22.2549 20.4939 22.5 20.206 22.5 19.8789V9.48903C22.5 8.99178 21.9485 8.63847 21.4038 8.78241H21.4174ZM20.8863 18.0992L16.2631 19.3882C16.2222 19.4012 16.1882 19.4012 16.1473 19.4012C15.9703 19.4012 15.8069 19.29 15.7524 19.1199C15.6911 18.9105 15.8137 18.6946 16.0315 18.6292L20.6548 17.3403C20.8727 17.2814 21.0974 17.3992 21.1655 17.6085C21.2267 17.8179 21.1042 18.0338 20.8863 18.0992ZM20.8999 15.1419L16.2767 16.4309C16.2358 16.4439 16.2018 16.4439 16.1609 16.4439C15.9839 16.4439 15.8205 16.3327 15.766 16.1626C15.7047 15.9532 15.8273 15.7373 16.0452 15.6719L20.6684 14.383C20.8863 14.3241 21.111 14.4419 21.1791 14.6512C21.2404 14.8606 21.1178 15.0765 20.8999 15.1419ZM20.8999 12.2173L16.2767 13.5063C16.2358 13.5193 16.2018 13.5193 16.1609 13.5193C15.9839 13.5193 15.8205 13.4081 15.766 13.238C15.7047 13.0286 15.8273 12.8127 16.0452 12.7473L20.6684 11.4584C20.8863 11.3995 21.111 11.5173 21.1791 11.7266C21.2404 11.936 21.1178 12.1519 20.8999 12.2173Z" fill="white"/>
</svg>
