<svg width="30" height="30" viewBox="0 0 30 30" fill="none" xmlns="http://www.w3.org/2000/svg">
<path d="M0 15C0 4.20012 4.20012 0 15 0C25.7999 0 30 4.20012 30 15C30 25.7999 25.7999 30 15 30C4.20012 30 0 25.7999 0 15Z" fill="#8E43E7"/>
<path d="M22.0004 10H14.0301C13.7349 10 13.4537 10.1687 13.3623 10.4428C13.1796 11.0051 12.6525 11.4057 12.0269 11.4057C11.4014 11.4057 10.8813 11.0051 10.6915 10.4428C10.6001 10.1617 10.312 10 10.0168 10H7.99957C7.38106 10 6.875 10.5061 6.875 11.1246V19.348C6.875 19.9665 7.38106 20.4725 7.99957 20.4725H10.0238C10.319 20.4725 10.6001 20.3038 10.6915 20.0297C10.8813 19.4745 11.4084 19.0668 12.0269 19.0668C12.6454 19.0668 13.1796 19.4745 13.3623 20.0297C13.4537 20.3038 13.7419 20.4725 14.0301 20.4725H22.0004C22.6189 20.4725 23.125 19.9665 23.125 19.348V11.1246C23.125 10.5061 22.6189 10 22.0004 10ZM11.9777 17.4151C11.5912 17.4151 11.2749 17.0988 11.2749 16.7123C11.2749 16.3257 11.5912 16.0094 11.9777 16.0094C12.3643 16.0094 12.6806 16.3257 12.6806 16.7123C12.6806 17.0988 12.3643 17.4151 11.9777 17.4151ZM11.9777 14.4702C11.5912 14.4702 11.2749 14.1539 11.2749 13.7673C11.2749 13.3807 11.5912 13.0644 11.9777 13.0644C12.3643 13.0644 12.6806 13.3807 12.6806 13.7673C12.6806 14.1539 12.3643 14.4702 11.9777 14.4702Z" fill="white"/>
</svg>
