<svg width="30" height="30" viewBox="0 0 30 30" fill="none" xmlns="http://www.w3.org/2000/svg">
<path d="M0 15C0 4.20012 4.20012 0 15 0C25.7999 0 30 4.20012 30 15C30 25.7999 25.7999 30 15 30C4.20012 30 0 25.7999 0 15Z" fill="#1769FF"/>
<path d="M20.1898 10.486H18.3377V9.11823C18.3377 8.33289 17.6963 7.69153 16.911 7.69153H13.0825C12.2971 7.69153 11.6558 8.33289 11.6558 9.11823V10.486H9.80366C8.53403 10.486 7.5 11.5201 7.5 12.7962V19.3015C7.5 20.5777 8.53403 21.6117 9.81021 21.6117H20.1898C21.466 21.6117 22.5 20.5777 22.5 19.3015V12.7962C22.5 11.5201 21.466 10.486 20.1898 10.486ZM12.7029 19.38C12.7029 19.668 12.4673 19.9036 12.1793 19.9036C11.8914 19.9036 11.6558 19.668 11.6558 19.38V12.7112C11.6558 12.4232 11.8914 12.1876 12.1793 12.1876C12.4673 12.1876 12.7029 12.4232 12.7029 12.7112V19.38ZM17.2906 10.486H12.7029V9.11823C12.7029 8.90881 12.873 8.73865 13.0825 8.73865H16.911C17.1204 8.73865 17.2906 8.90881 17.2906 9.11823V10.486ZM18.3377 19.38C18.3377 19.668 18.1021 19.9036 17.8141 19.9036C17.5262 19.9036 17.2906 19.668 17.2906 19.38V12.7112C17.2906 12.4232 17.5262 12.1876 17.8141 12.1876C18.1021 12.1876 18.3377 12.4232 18.3377 12.7112V19.38Z" fill="white"/>
</svg>
