<svg xmlns="http://www.w3.org/2000/svg" width="50" height="50" viewBox="0 0 50 50" fill="none">
<rect width="32" height="50" transform="translate(9)" fill="white"/>
<g clip-path="url(#clip0_333_32714)">
<path fill-rule="evenodd" clip-rule="evenodd" d="M36.9771 44.2187C31.2781 39.3515 29.9295 39.6797 29.9295 39.6797H21.3657C18.9352 39.2422 14.8057 42.8203 14.8057 42.8203C12.1619 44.2734 11.0343 47.5234 10.5543 50H39.4609C38.6305 45.6015 37 44.289 37 44.289L36.9695 44.2187H36.9771Z" fill="#333333"/>
<path fill-rule="evenodd" clip-rule="evenodd" d="M28.5428 44.5234H28.6495H28.8171H28.8476L29.0838 44.7891L29.1524 44.5547C29.1524 44.5547 29.1676 44.5 29.1676 44.4687H28.8247H28.8095L28.6876 44.3359L28.6038 44.2344C28.6419 44.0547 28.6724 43.8672 28.7028 43.6797L28.1009 43.6563L25.0228 40.1562L22.12 43.4531L21.2514 43.4219C21.3047 43.6875 21.3428 43.9531 21.3962 44.2266L21.3124 44.3203C21.3276 44.3828 21.3428 44.4453 21.3581 44.5078H21.4571C21.6781 45.6172 21.9219 46.7188 22.1809 47.8125C22.3714 48.5391 22.5695 49.2734 22.7752 49.9844H27.2933C27.7581 48.1641 28.1847 46.3438 28.5505 44.5078L28.5428 44.5234Z" fill="white"/>
<path fill-rule="evenodd" clip-rule="evenodd" d="M31.9943 47.5156C32.0095 47.3047 31.9638 47.2813 31.8343 47.086C31.4533 46.5 31.0267 45.9375 30.6229 45.3672C30.5238 45.2344 30.4324 45.0938 30.3333 44.9531C30.4476 44.9531 30.6305 44.8828 30.7372 44.8594C31.3695 44.7188 32.0095 44.586 32.6419 44.4453C32.6572 44.4453 32.6724 44.4375 32.68 44.4297C32.6876 44.4297 32.6953 44.4141 32.7029 44.4063C32.7029 44.4063 32.7181 44.3906 32.7181 44.3828C32.7333 44.3516 32.741 44.3125 32.7333 44.2813C32.5657 43.1875 32.2229 41.5391 31.5067 40.2891C31.4914 40.2578 31.4686 40.2266 31.4533 40.1875C31.4305 40.1406 31.4 40.1016 31.3695 40.0625C31.1714 39.7578 30.9505 39.4766 30.6991 39.2422C30.4095 38.9766 30.0743 38.7734 29.701 38.6563C29.701 38.6563 29.6933 38.6563 29.6857 38.6563C29.6857 38.6563 29.6705 38.6563 29.6629 38.6485C29.5791 38.625 29.5181 38.6797 29.5029 38.75C29.5029 38.7578 29.5029 38.7656 29.4953 38.7735C29.48 38.8985 29.4572 39.0235 29.4419 39.1485C29.4419 39.1719 29.4419 39.1875 29.4343 39.2109C29.4343 39.25 29.4267 39.2813 29.4191 39.3203C29.221 40.7735 28.9772 42.2266 28.6953 43.6797L29.3353 43.7031C29.2895 43.9453 29.221 44.2031 29.16 44.461V44.4844L29.1448 44.5078V44.5469C28.7181 46.2578 28.0553 48.1875 27.4381 50.0156H30.9962C31.2019 49.5391 31.4153 49.0469 31.5981 48.5625C31.6667 48.3906 31.7733 48.1797 31.8648 47.961C31.9257 47.8125 31.9791 47.6641 31.9867 47.5313L31.9943 47.5156Z" fill="black"/>
<path fill-rule="evenodd" clip-rule="evenodd" d="M28.6876 44.3203L28.8095 44.4531H28.8248H29.1676C29.2286 44.1953 29.2895 43.9453 29.3429 43.6953L28.7029 43.6719C28.6648 43.8516 28.6419 44.0391 28.6038 44.2266L28.6876 44.3281V44.3203Z" fill="black"/>
<path fill-rule="evenodd" clip-rule="evenodd" d="M28.84 44.5H28.8095H28.6419H28.5352C28.1695 46.3359 27.7428 48.1641 27.2781 49.9766H27.4457C28.0628 48.1484 28.7257 46.2344 29.1447 44.5234L29.0762 44.7578L28.84 44.4922V44.5Z" fill="black"/>
<path fill-rule="evenodd" clip-rule="evenodd" d="M21.3429 44.5H21.1752H21.1448L20.9086 44.7656L20.8248 44.4922V44.4687L20.8095 44.4453H21.16H21.1752L21.2971 44.3125C21.2286 44 21.16 43.6953 21.0991 43.4062H21.2286C20.9695 42.0468 20.741 40.6797 20.5505 39.3047C20.5505 39.2656 20.5429 39.2343 20.5352 39.1953C20.5352 39.1718 20.5352 39.1562 20.5276 39.1328C20.5124 39.0078 20.4895 38.8828 20.4743 38.7578C20.4743 38.75 20.4743 38.7422 20.4667 38.7343C20.4514 38.664 20.3905 38.6015 20.3067 38.6328C20.2991 38.6328 20.2914 38.6328 20.2838 38.6406C20.2838 38.6406 20.2762 38.6406 20.2686 38.6406C19.8952 38.7578 19.56 38.9609 19.2705 39.2265C19.0191 39.4609 18.7981 39.7343 18.6 40.0468C18.6 40.0468 18.5924 40.0625 18.5848 40.0703C18.5924 40.0703 18.6 40.0547 18.6152 40.0547C18.5848 40.1015 18.5467 40.1562 18.5162 40.2031C18.4933 40.2343 18.4781 40.2734 18.4552 40.3047C18.4476 40.3047 18.44 40.3125 18.4324 40.3203C17.7314 41.5625 17.3962 43.1797 17.2286 44.2656C17.2286 44.2968 17.2286 44.3359 17.2438 44.3672C17.2438 44.375 17.2514 44.3828 17.2591 44.3906C17.2591 44.3984 17.2743 44.4062 17.2819 44.414C17.2971 44.4218 17.3048 44.4296 17.32 44.4296L19.2248 44.8437C19.3314 44.8672 19.5143 44.9453 19.6286 44.9375C19.5295 45.0703 19.4381 45.2109 19.3391 45.3515C18.9352 45.9218 18.5086 46.4843 18.1276 47.0703C17.9981 47.2734 17.96 47.2968 17.9676 47.5C17.9752 47.6328 18.0286 47.7812 18.0895 47.9296C18.1733 48.1406 18.2876 48.3593 18.3562 48.5312C18.5467 49.0156 18.7448 49.4921 18.9505 49.9687L22.7295 49.9843C22.5467 49.2578 22.3181 48.5156 22.1505 47.789C21.8457 46.6484 21.5638 45.5156 21.3276 44.4843H21.32L21.3429 44.5Z" fill="black"/>
<path fill-rule="evenodd" clip-rule="evenodd" d="M21.3885 44.2187C21.3352 43.9531 21.2895 43.6875 21.2438 43.4141H21.1143C21.1752 43.6953 21.2438 44 21.3124 44.3047L21.3962 44.2109L21.3885 44.2187Z" fill="black"/>
<path fill-rule="evenodd" clip-rule="evenodd" d="M21.3505 44.5C21.5867 45.5313 21.8762 46.6641 22.1733 47.8047C21.9143 46.7031 21.6705 45.6094 21.4495 44.5H21.3505V44.5Z" fill="black"/>
<path fill-rule="evenodd" clip-rule="evenodd" d="M14.0057 43.4453C14.0057 43.4453 15.9867 46.5156 16.8248 48.1406C16.8629 48.2187 16.9771 48.1484 16.939 48.0703C16.1009 46.4375 15.1562 44.8672 14.1124 43.3594C15.5067 42.2891 16.9467 41.25 18.4552 40.3594C18.4629 40.3437 18.4705 40.3047 18.4781 40.2891C18.4933 40.2578 18.5162 40.2266 18.5314 40.1875C18.5543 40.1484 18.5771 40.1172 18.6 40.0859C16.9924 41.0078 15.4914 42.1641 14.0209 43.2656C13.9829 43.2656 13.9448 43.2891 13.9448 43.3203C13.8686 43.375 13.7848 43.4375 13.7086 43.5C12.2686 44.5781 11.5676 46.2344 11.0648 47.9297C10.8667 48.5937 10.6762 49.3047 10.5238 50H10.6914C10.7676 49.6406 10.8438 49.2656 10.9352 48.9141C11.4 47.0781 12.0857 44.9687 13.5867 43.7656C13.7238 43.6562 14.0133 43.4375 14.0133 43.4375L14.0057 43.4453Z" fill="black"/>
<path fill-rule="evenodd" clip-rule="evenodd" d="M18.4781 40.2891C18.4781 40.2891 18.4629 40.3203 18.4553 40.3359C18.4629 40.3359 18.4705 40.3281 18.4781 40.3203C18.501 40.2891 18.5162 40.25 18.5391 40.2187C18.5695 40.1641 18.6076 40.1172 18.6381 40.0703C18.6305 40.0703 18.6153 40.0859 18.6076 40.0859C18.5848 40.1172 18.5619 40.1562 18.5391 40.1953C18.5162 40.2266 18.501 40.2578 18.4857 40.2891H18.4781Z" fill="#666666"/>
<path fill-rule="evenodd" clip-rule="evenodd" d="M39.2095 48.7891C38.7752 47.1016 38.1809 45.1406 36.8628 43.9297C35.8724 43.0156 34.6686 42.2656 33.5638 41.5C32.8476 41 32.1238 40.5078 31.3695 40.0703C31.4 40.1094 31.4228 40.1562 31.4533 40.1953C31.4762 40.2266 31.4914 40.2578 31.5143 40.2891C32.8476 41.0781 34.0971 42.0234 35.3314 42.9297C36.3295 43.6641 37.1981 44.3047 37.8152 45.4062C38.2952 46.2656 38.6305 47.2109 38.9047 48.1562C39.08 48.7578 39.2247 49.3828 39.3467 50H39.5067C39.4152 49.5938 39.3162 49.1953 39.2171 48.8047" fill="black"/>
<path fill-rule="evenodd" clip-rule="evenodd" d="M28.5429 44.4844C28.5429 44.4844 28.5429 44.4687 28.5429 44.4609L21.4952 44.5938C21.4952 44.5938 21.4952 44.6094 21.4952 44.6172L28.5276 44.4844H28.5429Z" fill="white"/>
<path fill-rule="evenodd" clip-rule="evenodd" d="M28.5429 44.5C28.5429 44.5 28.5429 44.4844 28.5429 44.4766L21.5105 44.6094V44.6328L28.5429 44.5Z" fill="white"/>
<path fill-rule="evenodd" clip-rule="evenodd" d="M28.8095 44.5H28.84L28.8171 44.4766C28.8171 44.4766 28.8171 44.4922 28.8171 44.5H28.8095Z" fill="black"/>
<path fill-rule="evenodd" clip-rule="evenodd" d="M29.16 44.4922H28.84L29.0762 44.7656L29.16 44.4922V44.4922Z" fill="black"/>
<path fill-rule="evenodd" clip-rule="evenodd" d="M28.8171 44.4687H29.16V44.4453H28.8171C28.8171 44.4453 28.8171 44.4531 28.8171 44.4609V44.4687Z" fill="black"/>
<path fill-rule="evenodd" clip-rule="evenodd" d="M29.16 44.4922V44.4688H28.8248L28.8476 44.4922H29.1676H29.16Z" fill="black"/>
<path fill-rule="evenodd" clip-rule="evenodd" d="M28.6876 44.3203L28.6038 44.2188C28.5886 44.2969 28.5733 44.375 28.5581 44.4531H28.6648C28.6724 44.4063 28.68 44.3594 28.6952 44.3125L28.6876 44.3203Z" fill="black"/>
<path fill-rule="evenodd" clip-rule="evenodd" d="M28.6495 44.4766C28.6495 44.4766 28.6495 44.4609 28.6495 44.4531H28.5428C28.5428 44.4531 28.5428 44.4687 28.5428 44.4766H28.6495Z" fill="black"/>
<path fill-rule="evenodd" clip-rule="evenodd" d="M28.6495 44.5C28.6495 44.5 28.6495 44.4844 28.6495 44.4766H28.5428C28.5428 44.4766 28.5428 44.4922 28.5428 44.5H28.6495Z" fill="black"/>
<path fill-rule="evenodd" clip-rule="evenodd" d="M28.8019 44.4531L28.68 44.3203C28.6724 44.3672 28.6648 44.4141 28.6495 44.4609H28.7943L28.8019 44.4531Z" fill="black"/>
<path fill-rule="evenodd" clip-rule="evenodd" d="M28.6495 44.4766H28.8172C28.8172 44.4766 28.8172 44.4766 28.8172 44.4687L28.8019 44.4531H28.6572C28.6572 44.4531 28.6572 44.4687 28.6572 44.4766H28.6495Z" fill="black"/>
<path fill-rule="evenodd" clip-rule="evenodd" d="M28.8095 44.5C28.8095 44.5 28.8095 44.4844 28.8095 44.4766H28.6419C28.6419 44.4766 28.6419 44.4922 28.6419 44.5H28.8095Z" fill="black"/>
<path fill-rule="evenodd" clip-rule="evenodd" d="M28.8171 44.4531H28.8019L28.8171 44.4687C28.8171 44.4687 28.8171 44.4609 28.8171 44.4531Z" fill="black"/>
<path fill-rule="evenodd" clip-rule="evenodd" d="M25.5181 45.7812C25.5181 46.0625 25.2971 46.2891 25.0228 46.2891C24.7485 46.2891 24.5276 46.0625 24.5276 45.7812C24.5276 45.5 24.7485 45.2734 25.0228 45.2734C25.2971 45.2734 25.5181 45.5 25.5181 45.7812Z" fill="black"/>
<path fill-rule="evenodd" clip-rule="evenodd" d="M25.5181 48.5625C25.5181 48.8437 25.2971 49.0703 25.0228 49.0703C24.7485 49.0703 24.5276 48.8437 24.5276 48.5625C24.5276 48.2813 24.7485 48.0547 25.0228 48.0547C25.2971 48.0547 25.5181 48.2813 25.5181 48.5625Z" fill="black"/>
<path fill-rule="evenodd" clip-rule="evenodd" d="M30.1733 40.1563C30.2114 39.7188 29.9143 39.4922 29.5105 39.6563L25.7619 41.1797C25.3581 41.3438 24.6952 41.3438 24.2914 41.1797L20.3828 39.625C19.979 39.4609 19.6895 39.6875 19.7352 40.125L20.2228 44.4375C20.2762 44.875 20.6343 45.0859 21.0381 44.9063L24.299 43.4375C24.6952 43.2578 25.3428 43.2578 25.739 43.4375L28.9924 44.9219C29.3885 45.1016 29.7466 44.8906 29.7847 44.4531L30.1657 40.1406L30.1733 40.1563Z" fill="#EF3E43"/>
<path fill-rule="evenodd" clip-rule="evenodd" d="M35.9638 43.2968C34.9047 44.8281 33.9447 46.414 33.0914 48.0703C33.0533 48.1484 33.1676 48.2187 33.2057 48.1406C34.059 46.4843 35.0114 44.8906 36.0705 43.3671C36.1238 43.2968 36.0019 43.2265 35.9562 43.2968H35.9638Z" fill="black"/>
<path fill-rule="evenodd" clip-rule="evenodd" d="M40.9314 26.6406C40.9314 28.5313 39.7733 30.0625 38.341 30.0625C36.9086 30.0625 35.7505 28.5313 35.7505 26.6406C35.7505 24.75 36.9086 23.2188 38.341 23.2188C39.7733 23.2188 40.9314 24.75 40.9314 26.6406V26.6406Z" fill="#F4D6CB"/>
<path fill-rule="evenodd" clip-rule="evenodd" d="M40.8628 26.6406C40.8171 28.0938 40.0324 29.9922 38.3409 29.9922C36.6495 29.9922 35.819 28.0938 35.819 26.6406C35.819 25.1875 36.6724 23.2891 38.3409 23.2891C40.0095 23.2891 40.8171 25.1875 40.8628 26.6406C40.8628 26.6484 40.8705 26.6406 40.8781 26.6406C40.8933 26.6406 40.9086 26.6406 40.9314 26.6406C40.9466 26.6406 40.9695 26.6406 40.9847 26.6406C41 26.6406 41 26.6484 41 26.6406C40.9543 25.1094 40.1162 23.1484 38.3409 23.1484C36.5657 23.1484 35.6819 25.1016 35.6819 26.6406C35.6819 28.1719 36.5962 30.1328 38.3409 30.1328C40.0857 30.1328 40.9543 28.1719 41 26.6406" fill="#E8C5BA"/>
<path fill-rule="evenodd" clip-rule="evenodd" d="M14.2495 26.6406C14.2495 28.5313 13.0914 30.0625 11.659 30.0625C10.2266 30.0625 9.06854 28.5313 9.06854 26.6406C9.06854 24.75 10.2266 23.2188 11.659 23.2188C13.0914 23.2188 14.2495 24.75 14.2495 26.6406Z" fill="#F4D6CB"/>
<path fill-rule="evenodd" clip-rule="evenodd" d="M14.181 26.6406C14.1352 28.0938 13.3505 29.9922 11.659 29.9922C9.96762 29.9922 9.13714 28.0938 9.13714 26.6406C9.13714 25.1875 9.99048 23.2891 11.659 23.2891C13.3276 23.2891 14.1352 25.1875 14.181 26.6406C14.181 26.7266 14.3181 26.7266 14.3181 26.6406C14.2724 25.1094 13.4343 23.1484 11.659 23.1484C9.88381 23.1484 9 25.1094 9 26.6406C9 28.1719 9.91429 30.1328 11.659 30.1328C13.4038 30.1328 14.2724 28.1719 14.3181 26.6406C14.3181 26.5547 14.1886 26.5547 14.181 26.6406V26.6406Z" fill="#E8C5BA"/>
<path fill-rule="evenodd" clip-rule="evenodd" d="M36.0476 12.2578L30.981 10.2109L25.0076 14.3828L19.0343 10.2109L13.9676 12.2578L10.8591 24.2344C10.8591 24.2344 12.5505 33.3359 13.4648 34.4844C13.4648 34.4844 15.9867 39.1797 23.3619 41.3047C23.5676 41.3672 24.3676 41.4531 24.9162 41.4844V41.5C24.9162 41.5 24.9695 41.5 25 41.4922C25.0305 41.4922 25.061 41.4922 25.0838 41.5V41.4844C25.6324 41.4531 26.4248 41.3672 26.6381 41.3047C34.0438 39.2578 36.5353 34.4844 36.5353 34.4844C37.4495 33.3437 39.141 24.2344 39.141 24.2344L36.04 12.2578H36.0476Z" fill="#FCE5D9"/>
<path fill-rule="evenodd" clip-rule="evenodd" d="M36.0628 12.1953C35.1638 11.8359 34.2647 11.4687 33.3657 11.1094C32.779 10.875 32.1924 10.6406 31.6133 10.3984C31.4533 10.3359 31.1409 10.125 30.9657 10.1484C30.8057 10.1719 30.5619 10.4219 30.44 10.5156C29.9752 10.8437 29.5104 11.164 29.0457 11.4922C27.9562 12.25 26.8666 13.0156 25.7771 13.7734C25.5943 13.8984 25.2438 14.2656 25.0228 14.3047C24.9085 14.3203 25.1371 14.3125 24.9771 14.2812C24.84 14.25 24.6495 14.0547 24.5352 13.9765C23.4914 13.25 22.4476 12.5156 21.4038 11.789C20.9314 11.4531 20.4514 11.125 19.979 10.7969C19.7581 10.6406 19.3619 10.2265 19.0952 10.1797C18.6228 10.0937 17.6628 10.7109 17.2209 10.8828C16.6038 11.1328 15.9866 11.3828 15.3619 11.6328C14.9809 11.789 14.379 11.8984 14.059 12.1562C13.8 12.3594 13.7924 12.6719 13.7009 13.0234C13.0685 15.4765 12.4362 17.9219 11.8038 20.375L10.9885 23.539C10.8971 23.8906 10.8133 24.1328 10.8514 24.4765C10.9581 25.5078 11.2628 26.5625 11.4762 27.5781C11.7809 29.0234 12.1009 30.4687 12.4819 31.8984C12.9543 33.6719 13.5485 34.9687 14.7828 36.3125C15.9257 37.5625 17.2895 38.6015 18.7447 39.4453C19.6743 39.9765 20.6419 40.4297 21.64 40.8125C21.7466 40.8515 24.8628 41.8437 24.8628 41.5078C24.8628 41.539 24.8933 41.5781 24.9314 41.5781C24.9847 41.5703 25.0457 41.5703 25.099 41.5781C25.1371 41.5781 25.1676 41.5469 25.1676 41.5078C25.1676 41.8125 27.9943 40.9531 28.1162 40.914C29.1371 40.5469 30.1276 40.0937 31.0724 39.5703C32.5276 38.7578 33.8914 37.7422 35.0495 36.5312C36.2228 35.3047 36.9238 34.1172 37.3962 32.4687C37.8381 30.914 38.1885 29.3359 38.5238 27.7578C38.7524 26.6797 39.1181 25.5234 39.1943 24.4219C39.2247 24.0234 39.0724 23.6484 38.9733 23.2578C38.6533 22.0156 38.3333 20.7812 38.0133 19.539C37.3809 17.1094 36.7562 14.6797 36.1314 12.25C36.1085 12.164 35.979 12.2031 36.0019 12.289C36.4971 14.1953 36.9924 16.1094 37.48 18.0156C37.8304 19.375 38.1809 20.7344 38.5314 22.0937C38.699 22.7578 39.0266 23.5312 39.08 24.2187C39.1104 24.664 38.8438 25.5312 38.7371 26.0703C38.44 27.5625 38.12 29.0547 37.7619 30.5312C37.3352 32.2969 36.9466 34.0078 35.819 35.4453C33.3352 38.625 29.0914 41.1562 25.099 41.4297C25.0609 41.4297 25.0304 41.4609 25.0304 41.5C25.0152 41.414 25.0076 41.414 24.9924 41.5C24.9924 41.4609 24.9619 41.4375 24.9238 41.4297C21.8838 41.2187 18.8285 39.6562 16.4743 37.7344C15.3695 36.8281 14.3485 35.7812 13.5866 34.5625C12.8552 33.3828 12.5885 31.875 12.2609 30.5312C11.8038 28.6406 11.4152 26.7422 11.0419 24.8359C10.8895 24.0547 11.1333 23.4765 11.3543 22.625C11.8419 20.7422 12.3295 18.8672 12.8095 16.9844C13.1904 15.5078 13.5257 14.0156 13.9524 12.5547C14.059 12.2031 14.0895 12.2969 14.5314 12.1172C15.4076 11.7656 16.2838 11.4062 17.16 11.0547C17.5638 10.8906 18.7143 10.2578 19.0038 10.3047C19.1638 10.3281 19.4076 10.5859 19.5447 10.6797C19.9028 10.9297 20.2609 11.1797 20.6266 11.4375L24.9619 14.4687C24.9619 14.4687 25.0152 14.4844 25.0304 14.4687C26.9276 13.1406 28.8628 11.8672 30.7219 10.4922C31.0038 10.2812 30.9124 10.3125 31.1866 10.3984C31.7428 10.5703 32.2914 10.8437 32.8324 11.0625C33.899 11.4922 34.9581 11.9219 36.0247 12.3515C36.1085 12.3828 36.139 12.25 36.0628 12.2187V12.1953Z" fill="#F7DCD0"/>
<path fill-rule="evenodd" clip-rule="evenodd" d="M18.6762 29.8125C16.7181 29.8125 15.1181 28.1953 15.1181 26.2031C15.1181 24.2109 16.7105 22.5938 18.6762 22.5938C20.6419 22.5938 22.2343 24.2109 22.2343 26.2031C22.2343 28.1953 20.6419 29.8125 18.6762 29.8125V29.8125ZM18.6762 21.9766C16.3828 21.9766 14.5162 23.875 14.5162 26.2031C14.5162 28.5313 16.3828 30.4297 18.6762 30.4297C20.9695 30.4297 22.8362 28.5313 22.8362 26.2031C22.8362 23.875 20.9695 21.9766 18.6762 21.9766Z" fill="black"/>
<path fill-rule="evenodd" clip-rule="evenodd" d="M30.9581 23.7891V25.2188H29.4876V25.1094C29.4876 25.1484 29.4724 25.1875 29.4724 25.2266C29.4724 26.0234 30.1276 26.6719 30.9429 26.6719C31.7581 26.6719 32.421 26.0312 32.421 25.2344C32.421 24.4375 31.7657 23.7891 30.9505 23.7891H30.9581Z" fill="black"/>
<path fill-rule="evenodd" clip-rule="evenodd" d="M29.4876 25.2109H30.9505V23.7891C30.1428 23.7891 29.4876 24.4297 29.48 25.2109H29.4876Z" fill="#333333"/>
<path fill-rule="evenodd" clip-rule="evenodd" d="M30.3867 25.1172C30.3867 25.3594 30.5848 25.5547 30.8362 25.5547C31.0876 25.5547 31.2857 25.3594 31.2857 25.1172C31.2857 24.875 31.0876 24.6797 30.8362 24.6797C30.5848 24.6797 30.3867 24.875 30.3867 25.1172Z" fill="white"/>
<path fill-rule="evenodd" clip-rule="evenodd" d="M33.4952 21.5391C32.6266 20.6094 31.499 20.5235 31.499 20.5235C31.2933 20.4688 29.5638 20.5313 29.1143 21.2266C28.8552 21.6251 29.7314 21.2891 31.0876 21.2501C31.24 21.2501 31.3695 21.2501 31.499 21.2657C32.2609 21.3516 32.5809 21.7344 33.1066 21.9219C33.7162 22.1407 33.4952 21.5469 33.4952 21.5469V21.5391Z" fill="#666666"/>
<path fill-rule="evenodd" clip-rule="evenodd" d="M32.6038 26.7187C32.0857 27.2734 31.5067 27.4453 30.9962 27.4453C30.1962 27.4531 29.5638 27.0547 29.5638 27.0547C29.4952 27.25 29.6476 27.4843 29.6476 27.4843C29.9829 27.9531 30.44 28.1328 31.0038 28.1484C31.0876 28.1484 31.1638 28.1484 31.2552 28.1484C31.9486 28.1172 32.4819 27.4687 32.6038 27.0781C32.7181 26.6953 32.6191 26.7109 32.6191 26.7109L32.6038 26.7187Z" fill="#F3C9C0"/>
<path fill-rule="evenodd" clip-rule="evenodd" d="M20.4896 25.1094V25.2188H19.0267V23.7891C18.2115 23.7891 17.5486 24.4375 17.5562 25.2344C17.5562 26.0312 18.2191 26.6719 19.0343 26.6719C19.8496 26.6719 20.5124 26.0234 20.5048 25.2266C20.5048 25.1875 20.4972 25.1484 20.4896 25.1094V25.1094Z" fill="black"/>
<path fill-rule="evenodd" clip-rule="evenodd" d="M19.019 23.7891V25.2188H20.4895C20.4819 24.4297 19.8267 23.7969 19.019 23.7969V23.7891Z" fill="#333333"/>
<path fill-rule="evenodd" clip-rule="evenodd" d="M19.5905 25.1172C19.5905 25.3594 19.3924 25.5547 19.1409 25.5547C18.8895 25.5547 18.6914 25.3594 18.6914 25.1172C18.6914 24.875 18.8895 24.6797 19.1409 24.6797C19.3924 24.6797 19.5905 24.875 19.5905 25.1172Z" fill="white"/>
<path fill-rule="evenodd" clip-rule="evenodd" d="M20.8629 21.2188C20.4133 20.5235 18.6838 20.461 18.4781 20.5157C18.4781 20.5157 17.3505 20.6016 16.4819 21.5313C16.4819 21.5313 16.2609 22.1251 16.8705 21.9063C17.3962 21.7188 17.7162 21.336 18.4781 21.2501C18.6 21.2344 18.7371 21.2266 18.8895 21.2344C20.2533 21.2735 21.1219 21.6172 20.8629 21.211V21.2188Z" fill="#666666"/>
<path fill-rule="evenodd" clip-rule="evenodd" d="M20.4133 27.0625C20.4133 27.0625 19.7809 27.4609 18.9809 27.4531C18.4705 27.4531 17.8914 27.2734 17.3733 26.7265C17.3733 26.7265 17.2743 26.7109 17.3886 27.0937C17.5105 27.4843 18.0438 28.1328 18.7371 28.164C18.8209 28.164 18.9048 28.164 18.9886 28.164C19.5524 28.1484 20.0019 27.9687 20.3448 27.5C20.3448 27.5 20.4895 27.2656 20.4286 27.0703L20.4133 27.0625Z" fill="#F3C9C0"/>
<path fill-rule="evenodd" clip-rule="evenodd" d="M26.5772 36.3359C26.4476 35.7265 25.3962 35.7812 25.1905 35.7968C24.9924 35.7812 23.9333 35.7265 23.8038 36.3359C23.6591 37.0078 24.3753 37.0078 24.5124 37.0078H25.861C26.0057 37.0078 26.7143 37.0078 26.5695 36.3359H26.5772Z" fill="#F4CAC1"/>
<path fill-rule="evenodd" clip-rule="evenodd" d="M24.1924 27.25C23.3162 27.8282 23.0952 29.1563 23.72 30.0078C24.4057 30.9453 25.7162 30.9453 26.4933 30.125C26.7828 29.8203 26.3257 29.3594 26.0362 29.6641C25.5333 30.1953 24.68 30.25 24.2305 29.6094C23.8571 29.0703 23.9562 28.1875 24.52 27.8125C24.8628 27.586 24.5428 27.0157 24.1924 27.25V27.25Z" fill="#333333"/>
<path fill-rule="evenodd" clip-rule="evenodd" d="M13.1447 20.5781C12.2533 21.3203 11.3238 22 10.3409 22.6094C10.3181 22.625 10.3028 22.6563 10.3105 22.6875C10.3105 22.6953 10.3181 22.711 10.3257 22.7188C10.3638 23.3438 10.3714 25.3281 11.2552 25.3672C11.7276 25.3906 11.7276 24.6563 11.8343 24.2891C12.2 23.0469 12.6114 21.7813 13.2514 20.6485C13.2895 20.5781 13.2057 20.5156 13.1447 20.5625V20.5781Z" fill="#333333"/>
<path fill-rule="evenodd" clip-rule="evenodd" d="M40.0248 21.3437C40.0248 21.3437 41.48 11.0078 38.501 8.70312C35.5219 6.39844 34.6686 3.375 34.6686 3.375C34.6686 3.375 34.5238 3.30469 34.3867 3.625C34.2419 3.95312 32.9695 5.53125 32.1162 5.82031C32.1162 5.82031 32.6876 3.80469 32.5429 3.22656C32.5429 3.22656 32.3295 3.08594 32.0781 3.36719C31.8267 3.65625 28.139 4.44531 23.5981 3.97656C23.5981 3.97656 15.1562 2.78906 13.6248 9.55469C13.6248 9.55469 10.0438 10.2031 9.72381 14.7734C9.72381 14.7734 9.26667 19.6641 10.3867 22.6562C11.3695 22.0469 12.3143 21.3672 13.2057 20.6094C13.9524 19.3516 17.0762 15.6797 16.6495 13.2656C16.6495 13.2656 21.7619 17.625 33.3962 16.7578C33.3962 16.7578 33.7543 16.3281 36.3448 19.5703C36.3448 19.5703 36.7257 20.0781 37.1219 20.75C37.9676 21.4531 38.859 22.0937 39.7886 22.6641C39.8648 22.2891 39.9486 21.8437 40.04 21.3281L40.0248 21.3437Z" fill="#666666"/>
<path fill-rule="evenodd" clip-rule="evenodd" d="M39.9562 21.3281C39.9257 21.4922 39.88 22.3125 39.7581 22.4297C39.5448 22.6172 38.8819 22.0234 38.7143 21.8984C37.8534 21.2969 37.1829 20.6641 36.5734 19.7969C35.9638 18.9375 35.2476 18.1094 34.4857 17.3828C33.6705 16.6094 33.4724 16.7109 32.4057 16.7656C27.7734 17 22.8515 16.5234 18.6381 14.4219C17.9676 14.0859 17.2667 13.7188 16.6876 13.2266C16.6343 13.1797 16.5657 13.2266 16.5734 13.2891C16.8476 15.2813 15.3772 17.3125 14.3181 18.8594C13.9143 19.4531 13.5181 20.1719 13.0229 20.6797C12.5276 21.1875 11.8572 21.6016 11.2781 22C11.08 22.1406 10.6229 22.5938 10.3715 22.4297C10.2495 22.3516 10.181 21.7734 10.1429 21.625C9.67812 19.6953 9.64002 17.6406 9.73145 15.6641C9.80764 14.125 10.0286 12.5859 11.0038 11.3438C11.6438 10.5313 12.6115 9.82032 13.6476 9.62501C13.6705 9.62501 13.6857 9.60157 13.6934 9.57813C14.5772 5.8672 17.8534 4.18751 21.3886 4.00001C22.12 3.96095 22.8515 3.98438 23.5829 4.0547C25.8915 4.28126 28.3067 4.28126 30.6153 3.8672C31.1181 3.78126 31.6515 3.50782 32.1238 3.4297C32.8019 3.32032 32.3829 4.42188 32.2915 4.82813C32.2153 5.15626 32.1391 5.48438 32.0476 5.81251C32.0324 5.85938 32.0781 5.91407 32.1315 5.89845C32.9086 5.57813 33.5334 4.88282 34.0515 4.23438C34.181 4.07032 34.3562 3.64845 34.5238 3.53907C34.6991 3.4297 34.6381 3.52345 34.7448 3.81251C35.3924 5.52345 36.5124 7.07032 37.8686 8.27345C38.5543 8.88282 39.1105 9.34376 39.4838 10.2109C39.8115 10.9766 39.9867 11.8047 40.1086 12.625C40.3753 14.4375 40.36 16.2891 40.261 18.1094C40.2 19.1875 40.1162 20.2656 39.9715 21.3281H39.9562ZM40.2229 12.5859C40.101 11.75 39.9257 10.9141 39.5905 10.1406C39.2324 9.3047 38.7295 8.85157 38.0591 8.27345C36.6038 7.01563 35.2705 5.25782 34.7219 3.3672C34.7219 3.34376 34.6991 3.32032 34.6762 3.32032C34.341 3.26563 33.8686 4.2422 33.6857 4.45313C33.3124 4.88282 32.901 5.21095 32.4743 5.57032C32.0095 5.96095 32.2305 5.66407 32.3372 5.22657C32.4134 4.89845 32.8781 3.53907 32.6038 3.22657C32.3905 2.97657 32.1086 3.3047 31.9257 3.40626C31.3162 3.73438 30.4476 3.78126 29.7772 3.8672C28.5048 4.03126 27.2248 4.09376 25.9448 4.07032C24.7867 4.04688 23.6438 3.88282 22.4857 3.85157C19.9257 3.78907 17.0762 4.3672 15.24 6.31251C14.6915 6.89063 14.2648 7.57032 13.96 8.3047C13.8381 8.59376 13.7848 9.18751 13.6095 9.42188C13.5181 9.54688 13.5181 9.48438 13.3505 9.57032C12.4134 10.0859 11.5905 10.375 10.8895 11.2813C9.86859 12.5859 9.66288 14.2188 9.59431 15.8359C9.49526 18.1094 9.54859 20.5313 10.3181 22.6953C10.3334 22.7344 10.3791 22.7578 10.4172 22.7344C11.2248 22.2266 12.0095 21.6797 12.7562 21.0859C13.2286 20.7031 13.4724 20.3281 13.8153 19.8281C14.6991 18.5703 15.6057 17.3047 16.2229 15.8828C16.4515 15.3516 16.6419 14.7969 16.7181 14.2188C16.7486 13.9609 16.7181 13.7031 16.7334 13.4453C16.7334 13.4219 16.7334 13.4141 16.7334 13.3984C16.9772 13.4922 17.4038 13.8984 17.5715 14C19.3162 15.0469 21.2743 15.7266 23.24 16.1875C24.7943 16.5547 26.3867 16.7734 27.9791 16.8828C28.9315 16.9453 29.8915 16.9688 30.8515 16.9609C31.3772 16.9609 31.8953 16.9375 32.4134 16.9141C32.7029 16.8984 33.1753 16.7969 33.4419 16.8359C34.0743 16.9219 34.7372 17.8203 35.1486 18.2813C35.5448 18.7266 35.9486 19.1797 36.3067 19.6641C36.581 20.0234 36.7715 20.4766 37.061 20.8125C37.7391 21.6016 38.8895 22.2109 39.7505 22.7578C39.7886 22.7813 39.8419 22.7578 39.8495 22.7188C39.941 22.2734 40.0248 21.8281 40.101 21.3828C40.5048 18.5156 40.6648 15.4766 40.2381 12.6016L40.2229 12.5859Z" fill="#666666"/>
<path fill-rule="evenodd" clip-rule="evenodd" d="M38.6 24.4609C38.6838 24.6094 38.7752 24.7422 38.8743 24.8359C38.7829 24.7734 38.6914 24.6406 38.6 24.4609ZM39.8114 22.6172C38.8895 22.0391 38.0057 21.4062 37.16 20.7109C37.16 20.7109 37.1524 20.7109 37.1448 20.7109C37.1295 20.7109 37.1219 20.6953 37.1067 20.7031C37.1067 20.7031 37.1067 20.7031 37.0991 20.7031C37.0838 20.7031 37.0762 20.7031 37.0686 20.7187C37.0686 20.7187 37.061 20.7266 37.0533 20.7344C37.0533 20.7344 37.0533 20.7422 37.0533 20.75C37.0533 20.7656 37.0533 20.7734 37.0533 20.7891C37.0533 20.7891 37.0533 20.7891 37.0533 20.7969C37.5257 21.625 37.7695 22.4453 38.0514 23.3359C38.1429 23.625 38.5543 25.0156 38.9581 25.0078C39.5219 24.9922 39.7733 22.9844 39.8343 22.7031C39.8343 22.6719 39.8343 22.6406 39.8038 22.625L39.8114 22.6172Z" fill="#333333"/>
<path fill-rule="evenodd" clip-rule="evenodd" d="M17.9524 11.2344C17.9524 11.2344 23.2705 16.5937 33.0762 14.4766L27.4533 13.5469C27.4533 13.5469 33.7314 13.9453 34.5162 13.0156C34.5162 13.0156 25.7543 14.0781 18.8743 8.77344C18.8743 8.77344 19.2248 11.9609 23.4076 12.8828C23.4076 12.8828 22.9276 13.0938 17.9524 11.2344V11.2344Z" fill="#999999"/>
<path fill-rule="evenodd" clip-rule="evenodd" d="M31.0419 32.0938C30.9352 32.0313 30.8895 32.0156 30.7905 32.0625C30.7829 32.0625 30.7676 32.0703 30.76 32.0781C30.7524 32.0781 30.7448 32.0859 30.7371 32.0938C29.6095 33.3906 28.6267 32.1328 27.4914 31.625C26.9581 31.3828 26.3943 31.2266 25.8152 31.4219C25.32 31.5859 25.5257 31.7344 25.1067 31.5078C24.1314 30.9922 23.019 31.6641 22.2267 32.2266C21.7314 32.5703 21.1524 32.8984 20.5581 32.6094C20.2457 32.4531 20.04 31.8828 19.6667 32.0859C19.6057 32.1172 19.5981 32.1797 19.6057 32.2422C20.0095 35.0938 23.7733 35.3984 25.3581 33.4531C26.9429 35.3984 30.7067 35.0859 31.1105 32.2422C31.1181 32.1797 31.1105 32.1172 31.0495 32.0859L31.0419 32.0938Z" fill="#666666"/>
</g>
<defs>
<clipPath id="clip0_333_32714">
<rect width="32" height="46.875" fill="white" transform="translate(9 3.125)"/>
</clipPath>
</defs>
</svg>