<svg xmlns="http://www.w3.org/2000/svg" width="238.265" height="66.658997" viewBox="0 0 238.265 66.658997" fill="none">
  <g>
   <path d="M 25.312204,12.369826 C 11.338946,12.369826 0,23.708772 0,37.682052 c 0,5.841216 2.0616212,11.224423 5.3831273,15.57671 0.2290846,0.343508 0.5726914,0.687213 0.8017563,0.916218 0.3436066,0.45821 0.8017359,0.916418 1.2598849,1.374428 4.8104555,5.154003 10.9953395,9.04828 17.8674355,11.109921 6.872135,-2.061641 13.057063,-5.955918 17.867359,-11.109921 0.458207,-0.45801 0.801714,-0.916218 1.259923,-1.374428 0.229007,-0.343507 0.572711,-0.687213 0.801718,-0.916218 3.321564,-4.237784 5.383206,-9.620992 5.383206,-15.57671 0,-13.97328 -11.338925,-25.312226 -25.312206,-25.312226 z m 0,34.933017 c -5.383147,0 -9.735473,-4.352286 -9.735473,-9.735294 0,-5.383208 4.352326,-9.735495 9.735473,-9.735495 5.383207,0 9.620993,4.352287 9.620993,9.735495 0,5.383008 -4.237786,9.735294 -9.620993,9.735294 z" fill="#FF8A3D" id="path153"></path>
   <path d="m 33.558769,11.797095 c 1.717934,-0.343607 2.977859,-1.8325763 2.977859,-3.6651328 0,-2.0616211 -1.717931,-3.6651131 -3.665073,-3.6651131 -0.572711,0 -1.145422,0.1145423 -1.603434,0.3436068 C 30.58091,2.0616212 28.175562,0 25.312204,0 22.448847,0 20.0437,2.0616212 19.470948,4.8104559 19.012799,4.5813914 18.440128,4.4668491 17.867456,4.4668491 c -2.061621,0 -3.665113,1.7180343 -3.665113,3.6651131 0,1.8325565 1.259885,3.3215258 2.9779,3.6651328 2.634312,-0.916278 5.383107,-1.374427 8.246464,-1.374427 2.863357,0 5.497709,0.458149 8.132062,1.374427 z" fill="#56C271" id="path155"></path>
  </g>
  <g>
   <path d="m 68.720773,38.025359 h 15.462206 c 1.947139,0 3.436069,-1.145224 3.436069,-3.550571 0,-2.405148 -1.48893,-3.550571 -3.436069,-3.550571 H 70.66791 c -0.687214,0 -1.145424,-0.458009 -1.145424,-1.030721 v -6.070421 c 0,-0.687213 0.45821,-1.03072 1.145424,-1.03072 h 13.515069 c 1.947139,0 3.436069,-1.145423 3.436069,-3.550631 0,-2.405228 -1.48893,-3.550571 -3.436069,-3.550571 H 68.720773 c -5.268507,0 -7.788358,2.290686 -7.788358,6.757495 v 8.933778 c 0,4.352287 2.519851,6.642933 7.788358,6.642933 z" fill="#FF8A3D" id="path157"></path>
   <path d="M 88.077256,40.888915 H 72.844055 c -6.871937,0 -11.338928,3.779576 -11.338928,9.277286 0,5.383007 4.466991,9.162783 11.338928,9.162783 h 15.233201 c 6.872138,0 11.453429,-3.779776 11.453429,-9.162783 0,-5.49771 -4.581291,-9.277286 -11.453429,-9.277286 z m 0,11.338926 H 72.844055 c -1.717937,0 -2.634155,-0.916418 -2.634155,-2.06164 0,-1.259925 0.916218,-2.176144 2.634155,-2.176144 h 15.233201 c 1.717937,0 2.634353,0.916219 2.634353,2.176144 0,1.145222 -0.916416,2.06164 -2.634353,2.06164 z" fill="#FF8A3D" id="path159"></path>
   <path d="m 101.01982,22.906857 h -2.405353 v -4.695894 c 0,-2.06164 -1.717935,-3.55059 -4.352287,-3.55059 -2.51985,0 -4.352287,1.48895 -4.352287,3.55059 v 17.981959 c 0,2.061641 1.832437,3.550571 4.352287,3.550571 2.51985,0 4.352287,-1.48893 4.352287,-3.550571 v -4.924998 h 2.405353 c 1.94693,0 3.55056,-1.717935 3.55056,-4.237785 0,-2.290645 -1.60363,-4.123282 -3.55056,-4.123282 z" fill="#FF8A3D" id="path161"></path>
   <path d="m 144.19917,42.034139 h -35.3912 c -2.06164,0 -3.77978,-1.374427 -3.77978,-3.894079 0,-2.290845 1.71814,-3.779774 3.77978,-3.779774 h 35.3912 c 2.06164,0 3.77959,1.488929 3.77959,3.779774 0,2.519652 -1.60344,3.894079 -3.77959,3.894079 z m -7.21564,-12.48415 v -4.58149 c 0,-0.801717 -0.45821,-1.259925 -1.14541,-1.259925 h -24.625 c -2.17615,0 -3.89408,-1.374429 -3.89408,-3.894139 0,-2.51977 1.83244,-4.00872 3.89408,-4.00872 h 26.45762 c 5.26851,0 7.90286,2.748835 7.90286,7.559351 v 6.299425 c 0,2.061642 -1.71813,3.550572 -4.35228,3.550572 -2.63436,0 -4.23779,-1.603632 -4.23779,-3.665074 z m -20.73091,17.409148 v 3.092561 c 0,0.572512 0.4582,1.030721 1.14542,1.030721 h 25.31221 c 2.17614,0 3.89408,1.374427 3.89408,3.894278 0,2.51965 -1.83244,3.894077 -3.89408,3.894077 h -27.03034 c -5.26851,0 -8.01737,-2.176144 -8.01737,-6.986639 v -4.924998 c 0,-2.061641 1.71814,-3.550571 4.35229,-3.550571 2.40536,0 4.23779,1.603432 4.23779,3.550571 z" fill="#FF8A3D" id="path163"></path>
   <path d="M 152.44554,50.967916 V 21.761634 c 0,-4.008779 2.06165,-6.070401 6.18492,-6.070401 h 11.33893 c 4.12329,0 6.18493,2.061622 6.18493,6.070401 v 29.206282 c 0,4.008781 -2.06164,6.070421 -6.18493,6.070421 h -11.33893 c -4.23778,0 -6.18492,-2.06164 -6.18492,-6.070421 z m 15.46221,-2.748854 V 24.510489 c 0,-0.572712 -0.34371,-0.916418 -0.80172,-0.916418 h -5.61221 c -0.45821,0 -0.80172,0.343706 -0.80172,0.916418 v 23.59407 c 0,0.572712 0.34351,0.916219 0.80172,0.916219 h 5.61221 c 0.45801,0.114702 0.80172,-0.343507 0.80172,-0.801716 z m 13.40057,7.444848 V 18.55459 c 0,-2.176143 1.83264,-3.779635 4.35229,-3.779635 2.51984,0 4.35228,1.718014 4.35228,3.779635 v 12.140623 h 2.40535 c 1.94714,0 3.55057,1.832636 3.55057,4.237784 0,2.51985 -1.60343,4.352486 -3.55057,4.352486 h -2.40535 v 16.492929 c 0,2.176143 -1.71793,3.779576 -4.35228,3.779576 -2.51965,-0.114503 -4.35229,-1.717934 -4.35229,-3.894078 z" fill="#FF8A3D" id="path165"></path>
   <path d="m 218.18885,24.853996 h 1.71754 v -6.643013 c 0,-1.947078 1.60383,-3.206963 3.89387,-3.206963 2.29205,0 3.89388,1.259885 3.89388,3.206963 v 20.04358 c 0,1.947139 -1.48813,3.207064 -3.89388,3.207064 -2.40375,0 -3.89387,-1.374428 -3.89387,-3.321567 v -5.841216 h -1.71754 c -0.91562,0 -1.83324,-0.458209 -2.40574,-1.259925 -2.40575,5.268506 -6.52903,9.50629 -12.36985,12.140642 -1.83124,0.801716 -3.89388,0.343707 -4.9246,-1.488929 -1.03092,-1.832637 -0.34371,-4.00878 1.26012,-4.810497 2.63315,-1.145222 4.8095,-2.748854 6.52903,-4.695992 h -4.23898 c -1.60383,0 -3.09216,-0.916219 -3.09216,-3.092362 0,-1.947139 1.37462,-3.092362 3.09216,-3.092362 h 7.44465 c 0.2294,-0.801717 0.45881,-1.603632 0.45881,-2.405348 0.1137,-0.687214 -0.22941,-1.145224 -0.91562,-1.145224 h -6.87214 c -1.94694,0 -3.32237,-1.145422 -3.32237,-3.321565 0,-2.176164 1.37543,-3.436049 3.32237,-3.436049 h 8.24657 c 5.4977,0 8.01715,2.634292 7.21524,8.590051 0,0.229205 0,0.45821 -0.1157,0.687215 0.34511,-0.114503 0.4588,-0.114503 0.68821,-0.114503 z m 15.46181,33.787774 c -5.26831,-1.145423 -11.56793,-4.00878 -15.69122,-7.330147 -3.78017,3.779575 -8.81907,6.528431 -14.20308,7.559151 -1.83124,0.343707 -3.89387,-0.458009 -4.58048,-2.748854 -0.57272,-2.176144 0.45721,-4.00858 2.40614,-4.581292 5.84082,-1.48893 10.65032,-4.924999 13.05606,-9.391788 0.80191,-1.374427 2.74886,-2.290845 5.1546,-1.603631 2.40376,0.801716 3.43507,3.092561 2.63315,4.695993 v 0.114502 c 3.43707,2.748855 8.36227,4.924999 13.28746,6.070422 1.83124,0.458009 2.97627,2.290645 2.40376,4.466789 -0.57252,2.290645 -2.63315,3.207064 -4.46639,2.748855 z m -4.00759,-19.127282 v -21.53257 c 0,-1.947078 1.60184,-3.206963 4.00759,-3.206963 2.40575,0 4.00958,1.259885 4.00958,3.206963 v 21.53257 c 0,1.947139 -1.60383,3.206864 -4.00958,3.206864 -2.40575,0 -4.00759,-1.259725 -4.00759,-3.206864 z" fill="#FF8A3D" id="path167"></path>
  </g>
</svg>