<svg width="8" height="13" viewBox="0 0 8 13" fill="none" xmlns="http://www.w3.org/2000/svg">
<path id="Vector" d="M5.83129 6.63805L0.517512 11.9509C0.427149 12.0455 0.377378 12.1716 0.378852 12.3024C0.380325 12.4331 0.432926 12.5581 0.525397 12.6506C0.617867 12.7431 0.74286 12.7957 0.873625 12.7972C1.00439 12.7986 1.13054 12.7489 1.22507 12.6585L6.89173 6.99183C6.98553 6.89799 7.03822 6.77074 7.03822 6.63805C7.03822 6.50537 6.98553 6.37812 6.89173 6.28428L1.22507 0.617609C1.13124 0.523781 1.00398 0.471069 0.871289 0.471069C0.738597 0.471069 0.611339 0.523781 0.517512 0.617609C0.423684 0.711437 0.370972 0.838694 0.370972 0.971387C0.370972 1.10408 0.423684 1.23134 0.517512 1.32516L5.83129 6.63805Z" fill="#333333"/>
</svg>
