<svg width="8" height="13" viewBox="0 0 8 13" fill="none" xmlns="http://www.w3.org/2000/svg">
<path id="Vector" d="M1.578 6.63804L6.89178 1.32515C6.93997 1.27908 6.97847 1.22385 7.00502 1.1627C7.03157 1.10154 7.04563 1.0357 7.04639 0.969036C7.04714 0.902372 7.03456 0.836229 7.00939 0.774492C6.98423 0.712756 6.94698 0.65667 6.89984 0.609528C6.8527 0.562387 6.79661 0.525139 6.73488 0.499974C6.67314 0.474808 6.607 0.462232 6.54033 0.462983C6.47367 0.463735 6.40783 0.477799 6.34667 0.504349C6.28552 0.530899 6.23029 0.569401 6.18422 0.617594L0.517553 6.28426C0.471004 6.33067 0.43407 6.38581 0.408869 6.44651C0.383669 6.50722 0.370697 6.57231 0.370697 6.63804C0.370697 6.70377 0.383669 6.76885 0.408869 6.82956C0.43407 6.89027 0.471004 6.94541 0.517553 6.99182L6.18422 12.6585C6.27875 12.7488 6.4049 12.7986 6.53566 12.7971C6.66643 12.7957 6.79142 12.7431 6.88389 12.6506C6.97636 12.5581 7.02896 12.4331 7.03044 12.3024C7.03191 12.1716 6.98214 12.0455 6.89178 11.9509L1.578 6.63804Z" fill="#333333"/>
</svg>
