<svg width="29" height="29" viewBox="0 0 29 29" fill="none" xmlns="http://www.w3.org/2000/svg">
<g id="Frame">
<g id="Group">
<path id="Vector" d="M10.3226 25.691C10.0906 25.691 9.86799 25.5988 9.7039 25.4348C9.5398 25.2707 9.44762 25.0481 9.44762 24.816V18.691H7.69762V24.816C7.69762 25.0481 7.60543 25.2707 7.44133 25.4348C7.27724 25.5988 7.05468 25.691 6.82262 25.691H2.15662C1.92455 25.691 1.70199 25.5988 1.5379 25.4348C1.3738 25.2707 1.28162 25.0481 1.28162 24.816V4.98303C1.28162 4.50003 1.67262 4.10803 2.15662 4.10803H14.9896C15.4726 4.10803 15.8646 4.50003 15.8646 4.98303V8.77403H25.4896C25.9356 8.77403 26.3036 9.10803 26.3576 9.54003L26.3646 9.65003V20.15C26.3646 20.3821 26.2724 20.6047 26.1083 20.7688C25.9442 20.9328 25.7217 21.025 25.4896 21.025C25.2576 21.025 25.035 20.9328 24.8709 20.7688C24.7068 20.6047 24.6146 20.3821 24.6146 20.15V10.525H15.8646V23.941H25.4896C25.7217 23.941 25.9442 24.0332 26.1083 24.1973C26.2724 24.3614 26.3646 24.584 26.3646 24.816C26.3646 25.0481 26.2724 25.2707 26.1083 25.4348C25.9442 25.5988 25.7217 25.691 25.4896 25.691H10.3226ZM14.1146 5.85803H3.03162V23.941H5.94762V17.816C5.94762 17.333 6.33962 16.941 6.82262 16.941H10.3226C10.8066 16.941 11.1976 17.333 11.1976 17.816V23.941H14.1146V5.85803ZM18.4896 16.65C19.1336 16.65 19.6566 17.172 19.6566 17.816V18.983C19.6566 19.2925 19.5337 19.5894 19.3148 19.8082C19.096 20.0271 18.7991 20.15 18.4896 20.15C18.1801 20.15 17.8833 20.0271 17.6644 19.8082C17.4456 19.5894 17.3226 19.2925 17.3226 18.983V17.816C17.3226 17.172 17.8456 16.65 18.4896 16.65ZM18.4896 11.983C19.1336 11.983 19.6566 12.505 19.6566 13.15V14.316C19.6566 14.6255 19.5337 14.9224 19.3148 15.1412C19.096 15.3601 18.7991 15.483 18.4896 15.483C18.1801 15.483 17.8833 15.3601 17.6644 15.1412C17.4456 14.9224 17.3226 14.6255 17.3226 14.316V13.15C17.3226 12.505 17.8456 11.983 18.4896 11.983ZM6.98962 11.983C7.25483 11.983 7.50919 12.0884 7.69672 12.2759C7.88426 12.4635 7.98962 12.7178 7.98962 12.983V14.483C7.98962 14.7482 7.88426 15.0026 7.69672 15.1901C7.50919 15.3777 7.25483 15.483 6.98962 15.483H6.65662C6.3914 15.483 6.13705 15.3777 5.94951 15.1901C5.76197 15.0026 5.65662 14.7482 5.65662 14.483V12.983C5.65662 12.7178 5.76197 12.4635 5.94951 12.2759C6.13705 12.0884 6.3914 11.983 6.65662 11.983H6.98962ZM6.98962 7.31603C7.25483 7.31603 7.50919 7.42139 7.69672 7.60893C7.88426 7.79646 7.98962 8.05082 7.98962 8.31603V9.81603C7.98962 10.0812 7.88426 10.3356 7.69672 10.5231C7.50919 10.7107 7.25483 10.816 6.98962 10.816H6.65662C6.3914 10.816 6.13705 10.7107 5.94951 10.5231C5.76197 10.3356 5.65662 10.0812 5.65662 9.81603V8.31603C5.65662 8.05082 5.76197 7.79646 5.94951 7.60893C6.13705 7.42139 6.3914 7.31603 6.65662 7.31603H6.98962Z" fill="#333333"/>
<g id="Mask group">
<mask id="mask0_214_35" style="mask-type:luminance" maskUnits="userSpaceOnUse" x="1" y="4" width="26" height="22">
<g id="Group_2">
<path id="Vector_2" d="M10.3226 25.691C10.0906 25.691 9.86799 25.5988 9.7039 25.4348C9.5398 25.2707 9.44762 25.0481 9.44762 24.816V18.691H7.69762V24.816C7.69762 25.0481 7.60543 25.2707 7.44133 25.4348C7.27724 25.5988 7.05468 25.691 6.82262 25.691H2.15662C1.92455 25.691 1.70199 25.5988 1.5379 25.4348C1.3738 25.2707 1.28162 25.0481 1.28162 24.816V4.98303C1.28162 4.50003 1.67262 4.10803 2.15662 4.10803H14.9896C15.4726 4.10803 15.8646 4.50003 15.8646 4.98303V8.77403H25.4896C25.9356 8.77403 26.3036 9.10803 26.3576 9.54003L26.3646 9.65003V20.15C26.3646 20.3821 26.2724 20.6047 26.1083 20.7688C25.9442 20.9328 25.7217 21.025 25.4896 21.025C25.2576 21.025 25.035 20.9328 24.8709 20.7688C24.7068 20.6047 24.6146 20.3821 24.6146 20.15V10.525H15.8646V23.941H25.4896C25.7217 23.941 25.9442 24.0332 26.1083 24.1973C26.2724 24.3614 26.3646 24.584 26.3646 24.816C26.3646 25.0481 26.2724 25.2707 26.1083 25.4348C25.9442 25.5988 25.7217 25.691 25.4896 25.691H10.3226ZM14.1146 5.85803H3.03162V23.941H5.94762V17.816C5.94762 17.333 6.33962 16.941 6.82262 16.941H10.3226C10.8066 16.941 11.1976 17.333 11.1976 17.816V23.941H14.1146V5.85803ZM18.4896 16.65C19.1336 16.65 19.6566 17.172 19.6566 17.816V18.983C19.6566 19.2925 19.5337 19.5894 19.3148 19.8082C19.096 20.0271 18.7991 20.15 18.4896 20.15C18.1801 20.15 17.8833 20.0271 17.6644 19.8082C17.4456 19.5894 17.3226 19.2925 17.3226 18.983V17.816C17.3226 17.172 17.8456 16.65 18.4896 16.65ZM18.4896 11.983C19.1336 11.983 19.6566 12.505 19.6566 13.15V14.316C19.6566 14.6255 19.5337 14.9224 19.3148 15.1412C19.096 15.3601 18.7991 15.483 18.4896 15.483C18.1801 15.483 17.8833 15.3601 17.6644 15.1412C17.4456 14.9224 17.3226 14.6255 17.3226 14.316V13.15C17.3226 12.505 17.8456 11.983 18.4896 11.983ZM6.98962 11.983C7.25483 11.983 7.50919 12.0884 7.69672 12.2759C7.88426 12.4635 7.98962 12.7178 7.98962 12.983V14.483C7.98962 14.7482 7.88426 15.0026 7.69672 15.1901C7.50919 15.3777 7.25483 15.483 6.98962 15.483H6.65662C6.3914 15.483 6.13705 15.3777 5.94951 15.1901C5.76197 15.0026 5.65662 14.7482 5.65662 14.483V12.983C5.65662 12.7178 5.76197 12.4635 5.94951 12.2759C6.13705 12.0884 6.3914 11.983 6.65662 11.983H6.98962ZM6.98962 7.31603C7.25483 7.31603 7.50919 7.42139 7.69672 7.60893C7.88426 7.79646 7.98962 8.05082 7.98962 8.31603V9.81603C7.98962 10.0812 7.88426 10.3356 7.69672 10.5231C7.50919 10.7107 7.25483 10.816 6.98962 10.816H6.65662C6.3914 10.816 6.13705 10.7107 5.94951 10.5231C5.76197 10.3356 5.65662 10.0812 5.65662 9.81603V8.31603C5.65662 8.05082 5.76197 7.79646 5.94951 7.60893C6.13705 7.42139 6.3914 7.31603 6.65662 7.31603H6.98962Z" fill="#333333"/>
</g>
</mask>
<g mask="url(#mask0_214_35)">
<g id="Group_3">
<path id="Vector_3" fill-rule="evenodd" clip-rule="evenodd" d="M0.114624 0.608032H28.1146V28.608H0.114624V0.608032Z" fill="#333333"/>
</g>
</g>
</g>
</g>
</g>
</svg>
