<svg width="29" height="29" viewBox="0 0 29 29" fill="none" xmlns="http://www.w3.org/2000/svg">
<g id="Frame">
<g id="Group">
<path id="Vector" d="M17.0447 13.173C16.4137 13.975 16.0197 14.84 16.0057 15.763C15.9857 17.213 16.7987 18.301 18.2917 18.917L18.4077 18.955C21.8947 19.853 24.1957 21.913 24.1957 23.985L24.2097 25.211C24.2097 25.237 24.0157 25.399 23.8597 25.4H5.24666C5.11066 25.4 4.97266 25.278 4.97266 25.222L4.95866 23.974C4.95866 21.977 7.04466 20.044 10.3707 19.106C10.821 18.994 11.2512 18.8125 11.6457 18.568C12.4207 18.094 12.9617 17.433 13.0937 16.554C13.128 16.3245 13.0698 16.0907 12.9317 15.9041C12.7937 15.7175 12.5872 15.5934 12.3577 15.559C12.1281 15.5247 11.8943 15.5829 11.7077 15.721C11.5211 15.859 11.397 16.0655 11.3627 16.295C11.3187 16.587 11.1067 16.847 10.7337 17.074C10.487 17.2254 10.219 17.339 9.93866 17.411C5.89866 18.548 3.20866 21.043 3.20866 23.984L3.22266 25.232C3.22266 26.294 4.18766 27.15 5.24666 27.15H23.8597C24.9207 27.147 25.9587 26.279 25.9587 25.201L25.9447 23.974C25.9447 20.971 23.0447 18.362 18.9057 17.277C18.0807 16.923 17.7457 16.461 17.7557 15.787C17.7617 15.314 18.0037 14.784 18.4187 14.257C18.6907 13.911 18.9637 13.651 19.1287 13.521L19.2157 13.441C20.4487 12.151 21.2457 10.441 21.2457 8.77504C21.2457 5.12704 18.1927 2.06604 14.5537 2.06604C10.9147 2.06604 7.86166 5.12704 7.86166 8.77504C7.86166 10.345 8.30466 11.689 9.21866 12.823C9.28976 12.9152 9.37855 12.9923 9.47983 13.0498C9.58111 13.1072 9.69283 13.1439 9.80846 13.1576C9.92408 13.1713 10.0413 13.1618 10.1532 13.1297C10.2651 13.0975 10.3695 13.0434 10.4602 12.9703C10.5509 12.8973 10.6261 12.807 10.6814 12.7045C10.7368 12.6021 10.7711 12.4896 10.7824 12.3737C10.7937 12.2578 10.7818 12.1409 10.7473 12.0296C10.7129 11.9184 10.6565 11.8152 10.5817 11.726C9.92666 10.913 9.61166 9.95804 9.61166 8.77504C9.61166 6.09304 11.8817 3.81604 14.5537 3.81604C17.2257 3.81604 19.4947 6.09204 19.4947 8.77504C19.4947 9.93704 18.9077 11.212 17.9887 12.192C17.7307 12.403 17.3887 12.737 17.0447 13.173Z" fill="#333333"/>
<g id="Mask group">
<mask id="mask0_214_20" style="mask-type:luminance" maskUnits="userSpaceOnUse" x="3" y="2" width="23" height="26">
<g id="Group_2">
<path id="Vector_2" d="M17.0447 13.173C16.4137 13.975 16.0197 14.84 16.0057 15.763C15.9857 17.213 16.7987 18.301 18.2917 18.917L18.4077 18.955C21.8947 19.853 24.1957 21.913 24.1957 23.985L24.2097 25.211C24.2097 25.237 24.0157 25.399 23.8597 25.4H5.24666C5.11066 25.4 4.97266 25.278 4.97266 25.222L4.95866 23.974C4.95866 21.977 7.04466 20.044 10.3707 19.106C10.821 18.994 11.2512 18.8125 11.6457 18.568C12.4207 18.094 12.9617 17.433 13.0937 16.554C13.128 16.3245 13.0698 16.0907 12.9317 15.9041C12.7937 15.7175 12.5872 15.5934 12.3577 15.559C12.1281 15.5247 11.8943 15.5829 11.7077 15.721C11.5211 15.859 11.397 16.0655 11.3627 16.295C11.3187 16.587 11.1067 16.847 10.7337 17.074C10.487 17.2254 10.219 17.339 9.93866 17.411C5.89866 18.548 3.20866 21.043 3.20866 23.984L3.22266 25.232C3.22266 26.294 4.18766 27.15 5.24666 27.15H23.8597C24.9207 27.147 25.9587 26.279 25.9587 25.201L25.9447 23.974C25.9447 20.971 23.0447 18.362 18.9057 17.277C18.0807 16.923 17.7457 16.461 17.7557 15.787C17.7617 15.314 18.0037 14.784 18.4187 14.257C18.6907 13.911 18.9637 13.651 19.1287 13.521L19.2157 13.441C20.4487 12.151 21.2457 10.441 21.2457 8.77504C21.2457 5.12704 18.1927 2.06604 14.5537 2.06604C10.9147 2.06604 7.86166 5.12704 7.86166 8.77504C7.86166 10.345 8.30466 11.689 9.21866 12.823C9.28976 12.9152 9.37855 12.9923 9.47983 13.0498C9.58111 13.1072 9.69283 13.1439 9.80846 13.1576C9.92408 13.1713 10.0413 13.1618 10.1532 13.1297C10.2651 13.0975 10.3695 13.0434 10.4602 12.9703C10.5509 12.8973 10.6261 12.807 10.6814 12.7045C10.7368 12.6021 10.7711 12.4896 10.7824 12.3737C10.7937 12.2578 10.7818 12.1409 10.7473 12.0296C10.7129 11.9184 10.6565 11.8152 10.5817 11.726C9.92666 10.913 9.61166 9.95804 9.61166 8.77504C9.61166 6.09304 11.8817 3.81604 14.5537 3.81604C17.2257 3.81604 19.4947 6.09204 19.4947 8.77504C19.4947 9.93704 18.9077 11.212 17.9887 12.192C17.7307 12.403 17.3887 12.737 17.0447 13.173Z" fill="#333333"/>
</g>
</mask>
<g mask="url(#mask0_214_20)">
<g id="Group_3">
<path id="Vector_3" fill-rule="evenodd" clip-rule="evenodd" d="M0.584656 0.608032H28.5847V28.608H0.584656V0.608032Z" fill="#333333"/>
</g>
</g>
</g>
</g>
</g>
</svg>
