<svg width="29" height="29" viewBox="0 0 29 29" fill="none" xmlns="http://www.w3.org/2000/svg">
<g id="Frame">
<g id="Group">
<path id="Vector" d="M25.3589 27.4771C25.4395 27.5615 25.5361 27.6288 25.6432 27.6753C25.7502 27.7218 25.8654 27.7464 25.9821 27.7477C26.0987 27.749 26.2145 27.727 26.3225 27.683C26.4306 27.6389 26.5287 27.5737 26.6112 27.4912C26.6937 27.4087 26.7589 27.3106 26.8029 27.2026C26.847 27.0945 26.869 26.9788 26.8677 26.8621C26.8663 26.7454 26.8417 26.6302 26.7953 26.5232C26.7488 26.4162 26.6814 26.3195 26.5971 26.2389L19.0138 18.6556L18.7182 18.3989C18.551 18.2553 18.3358 18.18 18.1155 18.188C17.8952 18.1961 17.686 18.287 17.5298 18.4425C16.1639 19.7982 14.3489 20.6069 12.4276 20.7159C10.5062 20.8249 8.61138 20.2267 7.10096 19.0341C5.59054 17.8415 4.56904 16.1372 4.22935 14.243C3.88966 12.3487 4.25529 10.3956 5.25719 8.75255C6.2591 7.10946 7.82794 5.89006 9.66747 5.32463C11.507 4.7592 13.4899 4.88686 15.2417 5.68352C16.9936 6.48017 18.3931 7.89067 19.176 9.64868C19.9589 11.4067 20.0711 13.3905 19.4913 15.2256C19.4568 15.3352 19.4442 15.4505 19.4542 15.565C19.4643 15.6794 19.4968 15.7908 19.5499 15.8927C19.6029 15.9946 19.6756 16.0851 19.7636 16.1589C19.8517 16.2327 19.9534 16.2885 20.063 16.323C20.1726 16.3575 20.2879 16.3701 20.4024 16.3601C20.5168 16.35 20.6282 16.3176 20.7301 16.2645C20.832 16.2114 20.9225 16.1387 20.9963 16.0507C21.0701 15.9627 21.1259 15.8609 21.1604 15.7513C21.8574 13.5431 21.7351 11.1576 20.8157 9.03227C19.8963 6.90696 18.2416 5.1843 16.155 4.18019C14.0684 3.17608 11.6897 2.95783 9.45523 3.56546C7.22073 4.1731 5.28017 5.56589 3.9894 7.48842C2.69863 9.41095 2.14418 11.7344 2.42772 14.0326C2.71126 16.3308 3.81379 18.4498 5.53312 20.0009C7.25245 21.5521 9.47334 22.4315 11.7885 22.4778C14.1037 22.5241 16.358 21.7343 18.138 20.2531L25.3589 27.4771V27.4771Z" stroke="white" stroke-width="0.466667"/>
</g>
</g>
</svg>
