<svg width="19" height="19" viewBox="0 0 19 19" fill="none" xmlns="http://www.w3.org/2000/svg">
<rect width="19" height="19" fill="#F5F5F5"/>
<rect width="1920" height="3491.42" transform="translate(-1228.8 -15.3619)" fill="#F8F8F8"/>
<g filter="url(#filter0_d_0_1)">
<rect width="1920" height="50" transform="translate(-1228.8 -15.3619)" fill="white"/>
<g clip-path="url(#clip0_0_1)">
<path d="M15.7416 17.911C15.7935 17.9653 15.8556 18.0086 15.9244 18.0384C15.9932 18.0683 16.0673 18.0841 16.1423 18.085C16.2173 18.0858 16.2917 18.0717 16.3611 18.0434C16.4306 18.0151 16.4937 17.9732 16.5467 17.9201C16.5998 17.8671 16.6417 17.804 16.67 17.7345C16.6983 17.6651 16.7124 17.5907 16.7116 17.5157C16.7107 17.4407 16.6949 17.3666 16.665 17.2978C16.6352 17.229 16.5919 17.1669 16.5376 17.115L11.6626 12.24L11.4726 12.075C11.3651 11.9827 11.2268 11.9343 11.0852 11.9395C10.9435 11.9447 10.8091 12.0031 10.7086 12.103C9.8306 12.9746 8.66383 13.4945 7.42866 13.5646C6.19348 13.6346 4.9754 13.25 4.00442 12.4834C3.03343 11.7167 2.37675 10.6211 2.15838 9.40337C1.94001 8.18564 2.17505 6.93009 2.81914 5.87382C3.46322 4.81754 4.47176 4.03365 5.65431 3.67016C6.83686 3.30667 8.11158 3.38873 9.23776 3.90087C10.3639 4.413 11.2636 5.31975 11.7669 6.4499C12.2703 7.58005 12.3424 8.85537 11.9696 10.035C11.9474 10.1055 11.9393 10.1796 11.9458 10.2532C11.9523 10.3268 11.9732 10.3984 12.0073 10.4639C12.0414 10.5294 12.0881 10.5876 12.1447 10.635C12.2013 10.6825 12.2667 10.7184 12.3371 10.7405C12.4076 10.7627 12.4817 10.7708 12.5553 10.7644C12.6289 10.7579 12.7005 10.737 12.766 10.7029C12.8315 10.6688 12.8897 10.6221 12.9371 10.5655C12.9846 10.5089 13.0204 10.4435 13.0426 10.373C13.4907 8.95346 13.412 7.41992 12.821 6.05364C12.23 4.68737 11.1663 3.57994 9.82487 2.93444C8.48347 2.28894 6.95433 2.14864 5.51787 2.53926C4.08141 2.92989 2.8339 3.82525 2.00412 5.06116C1.17435 6.29707 0.817914 7.79069 1.00019 9.26812C1.18247 10.7455 1.89123 12.1077 2.99652 13.1049C4.1018 14.1021 5.52951 14.6674 7.01784 14.6972C8.50617 14.727 9.95536 14.2192 11.0996 13.267L15.7416 17.911V17.911Z" stroke="#333333" stroke-width="0.3"/>
</g>
</g>
<defs>
<filter id="filter0_d_0_1" x="-1228.8" y="-15.3619" width="1920" height="51" filterUnits="userSpaceOnUse" color-interpolation-filters="sRGB">
<feFlood flood-opacity="0" result="BackgroundImageFix"/>
<feColorMatrix in="SourceAlpha" type="matrix" values="0 0 0 0 0 0 0 0 0 0 0 0 0 0 0 0 0 0 127 0" result="hardAlpha"/>
<feOffset dy="1"/>
<feComposite in2="hardAlpha" operator="out"/>
<feColorMatrix type="matrix" values="0 0 0 0 0 0 0 0 0 0 0 0 0 0 0 0 0 0 0.1 0"/>
<feBlend mode="normal" in2="BackgroundImageFix" result="effect1_dropShadow_0_1"/>
<feBlend mode="normal" in="SourceGraphic" in2="effect1_dropShadow_0_1" result="shape"/>
</filter>
<clipPath id="clip0_0_1">
<rect width="18" height="18" fill="white" transform="translate(0.0146484 0.638062)"/>
</clipPath>
</defs>
</svg>
