<svg width="75" height="18" viewBox="0 0 75 18" fill="none" xmlns="http://www.w3.org/2000/svg">
<rect width="75" height="18" fill="#F5F5F5"/>
<rect width="1920" height="3491.42" transform="translate(-461.795 -13.3619)" fill="#F8F8F8"/>
<g filter="url(#filter0_d_0_1)">
<rect width="1920" height="50" transform="translate(-461.795 -13.3619)" fill="white"/>
<g clip-path="url(#clip0_0_1)">
<path d="M47.6704 1.84377L44.7104 3.11234V5.64948H42.7018V8.39805H44.7104V13.7895C44.7104 16.0095 46.0847 17.4895 48.1989 17.4895C49.0447 17.4895 49.5732 17.2781 49.8904 17.1723V14.4238C49.7846 14.4238 49.3618 14.5295 48.9389 14.5295C48.0932 14.5295 47.6704 14.2123 47.6704 13.1552V8.50377H49.8904V5.75519H47.6704V1.84377ZM15.3218 5.75519L13.2075 13.1552L10.7761 5.75519H7.81608L5.38465 13.1552L3.37608 5.75519H0.204651L3.79894 17.2781H6.97037L9.29608 9.56091L11.7275 17.2781H14.8989L18.4932 5.75519H15.3218ZM71.2446 1.84377V6.38948C70.5046 5.86091 69.6589 5.54377 68.7075 5.43805H68.4961H67.6504C65.0075 5.64948 63.3161 7.65805 62.7875 10.1952C62.6818 10.6181 62.6818 10.9352 62.6818 11.3581V12.3095C62.9989 15.2695 65.0075 17.5952 68.0732 17.5952C69.3418 17.5952 70.3989 17.2781 71.2446 16.6438V17.3838H74.0989V0.680908L71.2446 1.84377ZM68.4961 14.7409C66.9104 14.7409 65.5361 13.4723 65.5361 11.4638C65.5361 9.34948 66.9104 8.18662 68.4961 8.18662C70.0818 8.18662 71.2446 9.34948 71.2446 11.3581C71.2446 13.5781 70.0818 14.7409 68.4961 14.7409ZM61.6246 10.1952C61.2018 7.44662 59.1932 5.43805 56.3389 5.43805C53.4846 5.43805 51.4761 7.44662 51.0532 10.1952C50.9475 10.6181 50.9475 11.0409 50.9475 11.5695V12.4152C51.2647 15.3752 53.2732 17.7009 56.3389 17.7009C58.7704 17.7009 60.5675 16.2209 61.3075 14.1066L58.6646 13.4723C58.2418 14.4238 57.3961 15.1638 56.3389 15.1638C54.8589 15.1638 53.9075 14.0009 53.6961 12.4152H61.7304V11.5695C61.7304 11.0409 61.7304 10.6181 61.6246 10.1952ZM53.8018 10.1952C54.2247 9.03234 55.0704 8.29234 56.3389 8.29234C57.6075 8.29234 58.4532 9.13805 58.8761 10.1952H53.8018ZM26.9504 6.49519C26.2104 5.96662 25.2589 5.54377 24.2018 5.54377H23.8847H23.5675C20.8189 5.75519 19.0218 7.65805 18.5989 10.3009C18.4932 10.7238 18.4932 11.0409 18.4932 11.4638V12.4152C18.8104 15.3752 20.8189 17.7009 23.8847 17.7009C25.1532 17.7009 26.2104 17.3838 27.0561 16.7495V17.4895H30.0161V5.75519H27.0561V6.49519H26.9504ZM24.2018 14.7409C22.6161 14.7409 21.2418 13.4723 21.2418 11.4638C21.2418 9.34948 22.6161 8.18662 24.2018 8.18662C25.7875 8.18662 26.9504 9.34948 26.9504 11.3581C26.9504 13.5781 25.7875 14.7409 24.2018 14.7409ZM37.8389 5.43805C36.6761 5.43805 35.4075 5.96662 34.6675 7.12948V5.75519H31.7075V17.2781H34.6675V10.6181C34.6675 9.24376 35.4075 8.18662 36.7818 8.18662C38.2618 8.18662 38.7904 9.24377 38.7904 10.5123V17.2781H41.7504V9.98377C41.8561 7.44662 40.5875 5.43805 37.8389 5.43805Z" fill="#333333"/>
</g>
</g>
<defs>
<filter id="filter0_d_0_1" x="-461.795" y="-13.3619" width="1920" height="51" filterUnits="userSpaceOnUse" color-interpolation-filters="sRGB">
<feFlood flood-opacity="0" result="BackgroundImageFix"/>
<feColorMatrix in="SourceAlpha" type="matrix" values="0 0 0 0 0 0 0 0 0 0 0 0 0 0 0 0 0 0 127 0" result="hardAlpha"/>
<feOffset dy="1"/>
<feComposite in2="hardAlpha" operator="out"/>
<feColorMatrix type="matrix" values="0 0 0 0 0 0 0 0 0 0 0 0 0 0 0 0 0 0 0.1 0"/>
<feBlend mode="normal" in2="BackgroundImageFix" result="effect1_dropShadow_0_1"/>
<feBlend mode="normal" in="SourceGraphic" in2="effect1_dropShadow_0_1" result="shape"/>
</filter>
<clipPath id="clip0_0_1">
<rect width="74" height="21" fill="white" transform="translate(0.204651 -1.36194)"/>
</clipPath>
</defs>
</svg>
