<svg xmlns="http://www.w3.org/2000/svg" width="37" height="36" viewBox="0 0 37 36">
    <g fill="none" fill-rule="evenodd" opacity=".7">
        <path fill="#6B7684" d="M36 18c0 9.941-8.059 18-18 18S0 27.941 0 18 8.059 0 18 0s18 8.059 18 18"/>
        <path fill="#F1F1F2" d="M18 8.74c-2.515 0-2.83.01-3.818.056-.985.045-1.659.201-2.248.43-.608.237-1.125.554-1.64 1.068-.514.515-.831 1.032-1.068 1.64-.229.59-.385 1.263-.43 2.248-.045.988-.056 1.303-.056 3.818s.01 2.83.056 3.818c.045.986.201 1.659.43 2.248.237.609.554 1.125 1.068 1.64.515.515 1.032.831 1.64 1.068.59.229 1.263.385 2.248.43.988.045 1.303.056 3.818.056s2.83-.01 3.818-.056c.985-.045 1.659-.201 2.248-.43.608-.237 1.125-.553 1.64-1.068.514-.515.831-1.031 1.068-1.64.229-.59.385-1.262.43-2.248.045-.988.056-1.303.056-3.818s-.01-2.83-.056-3.818c-.045-.985-.201-1.659-.43-2.248-.237-.608-.554-1.125-1.068-1.64-.515-.514-1.032-.831-1.64-1.068-.59-.229-1.263-.385-2.248-.43C20.83 8.75 20.515 8.74 18 8.74m0 1.669c2.472 0 2.765.01 3.742.054.903.04 1.393.192 1.72.318.431.168.74.369 1.064.693.324.324.525.633.693 1.065.126.326.277.816.318 1.72.045.976.054 1.269.054 3.741 0 2.473-.009 2.765-.054 3.742-.04.903-.192 1.393-.318 1.72-.168.431-.37.74-.693 1.064-.324.324-.633.525-1.065.693-.326.126-.816.277-1.72.318-.975.045-1.268.054-3.741.054s-2.766-.009-3.742-.054c-.903-.04-1.393-.192-1.72-.318-.431-.168-.74-.37-1.064-.693-.324-.324-.525-.633-.693-1.065-.126-.326-.277-.816-.318-1.72-.045-.976-.054-1.268-.054-3.741 0-2.472.009-2.765.054-3.742.04-.903.192-1.393.318-1.72.168-.431.37-.74.693-1.064.324-.324.633-.525 1.065-.693.326-.126.816-.277 1.72-.318.976-.045 1.269-.054 3.741-.054"/>
        <path fill="#F1F1F2" d="M18 21.087c-1.705 0-3.087-1.382-3.087-3.087 0-1.705 1.382-3.087 3.087-3.087 1.705 0 3.087 1.382 3.087 3.087 0 1.705-1.382 3.087-3.087 3.087m0-7.842c-2.626 0-4.755 2.129-4.755 4.755s2.129 4.755 4.755 4.755 4.755-2.129 4.755-4.755-2.129-4.755-4.755-4.755M24.054 13.057c0 .614-.497 1.111-1.111 1.111s-1.111-.497-1.111-1.11c0-.615.497-1.112 1.11-1.112.615 0 1.112.497 1.112 1.111"/>
    </g>
</svg>
