<svg xmlns="http://www.w3.org/2000/svg" width="37" height="36" viewBox="0 0 37 36">
    <g fill="none" fill-rule="evenodd" opacity=".7">
        <path fill="#6B7684" d="M36 18c0 9.941-8.059 18-18 18S0 27.941 0 18 8.059 0 18 0s18 8.059 18 18"/>
        <path fill="#FFF" d="M15.084 26.668c7.214 0 11.159-5.977 11.159-11.159 0-.17-.004-.339-.012-.507.766-.554 1.432-1.244 1.957-2.03-.703.312-1.46.522-2.252.617.81-.486 1.431-1.254 1.724-2.17-.758.45-1.597.776-2.49.952-.716-.762-1.735-1.239-2.863-1.239-2.166 0-3.922 1.757-3.922 3.922 0 .308.034.607.101.894-3.259-.164-6.15-1.725-8.083-4.098-.338.58-.532 1.253-.532 1.972 0 1.36.693 2.561 1.746 3.264-.644-.02-1.248-.196-1.777-.49v.05c0 1.9 1.352 3.485 3.146 3.845-.33.09-.676.138-1.034.138-.253 0-.498-.026-.737-.071.5 1.558 1.947 2.692 3.664 2.724-1.343 1.052-3.034 1.678-4.871 1.678-.317 0-.629-.018-.936-.054 1.736 1.113 3.797 1.762 6.012 1.762"/>
    </g>
</svg>
