<?xml version="1.0" encoding="utf-8"?>
<!-- Generator: Adobe Illustrator 24.1.3, SVG Export Plug-In . SVG Version: 6.00 Build 0)  -->
<svg version="1.1" id="Layer_1" xmlns="http://www.w3.org/2000/svg" xmlns:xlink="http://www.w3.org/1999/xlink" x="0px" y="0px"
	 viewBox="0 0 45 45" style="enable-background:new 0 0 45 45;" xml:space="preserve">
<style type="text/css">
	.st0{fill:#F8F8F8;}
	.st1{fill:#383838;}
</style>
<path id="패스_7790_6_" class="st0" d="M22.5,0C34.9,0,45,10.1,45,22.5S34.9,45,22.5,45S0,35,0,22.5S10.1,0,22.5,0z"/>
<g>
	<path class="st1" d="M12.1,18.9c0,0-1,0-2,0.9v-3.6H7.9v9.6h2.3v-0.7c0,0,0.5,1,1.9,1c0,0,3.2-0.1,3.2-3.6
		C15.3,22.4,15.2,18.9,12.1,18.9z M11.6,23.9c-0.8,0-1.5-0.7-1.5-1.5s0.7-1.5,1.5-1.5s1.5,0.7,1.5,1.5
		C13.1,23.2,12.4,23.9,11.6,23.9z"/>
	<path class="st1" d="M16.1,15.9v2.2c0,0,1,0,1,1.9v5.7h2.2v-6.2C19.3,19.5,19.4,15.9,16.1,15.9z"/>
	<path class="st1" d="M24.7,18.9c0,0-3.8,0-3.8,3.5c0,0-0.1,3.5,3.8,3.5c0,0,3.9,0,3.9-3.5C28.6,22.4,28.7,18.9,24.7,18.9z
		 M24.7,23.9c-0.8,0-1.5-0.7-1.5-1.5s0.7-1.5,1.5-1.5s1.5,0.7,1.5,1.5C26.2,23.2,25.6,23.9,24.7,23.9z"/>
	<path class="st1" d="M35,19.1v0.6c0,0-0.7-0.9-1.9-0.9c0,0-3.2-0.1-3.2,3.5c0,0,0,3.4,3.2,3.4c0,0,1.3,0.1,2-0.9v0.5
		c0,0,0.2,1.7-1.5,1.7H33v2h0.9c0,0,3.4,0,3.4-3.6v-6.5H35V19.1z M33.6,23.9c-0.8,0-1.5-0.7-1.5-1.5s0.7-1.5,1.5-1.5
		s1.5,0.7,1.5,1.5C35.1,23.2,34.4,23.9,33.6,23.9z"/>
</g>
</svg>
