<?xml version="1.0" encoding="UTF-8"?>
<svg width="53px" height="53px" viewBox="0 0 53 53" version="1.1" xmlns="http://www.w3.org/2000/svg" xmlns:xlink="http://www.w3.org/1999/xlink">
    <!-- Generator: Sketch 62 (91390) - https://sketch.com -->
    <title>BMW-logo-white-default-53px</title>
    <desc>Created with Sketch.</desc>
    <g id="BMW-logo-white-default-53px" stroke="none" stroke-width="1" fill="none" fill-rule="evenodd">
        <g id="BMW-logo">
            <g id="BMW-logo-white">
                <g id="BMW-Logo-103x115-White-NEW">
                    <path d="M26.4347214,0 C11.8356305,0 0,11.8356305 0,26.4347214 C0,41.0338123 11.8356305,52.8694428 26.4347214,52.8694428 C41.0338123,52.8694428 52.8694428,41.0338123 52.8694428,26.4347214 C52.8694428,11.8356305 41.0338123,0 26.4347214,0 L26.4347214,0 Z M51.1504399,26.4347214 C51.1504399,40.0841642 40.0857185,51.1504399 26.4347214,51.1504399 C12.7837243,51.1504399 1.71900293,40.0841642 1.71900293,26.4347214 C1.71900293,12.7852786 12.7852786,1.71900293 26.4347214,1.71900293 C40.0841642,1.71900293 51.1504399,12.7852786 51.1504399,26.4347214 Z" id="Shape" fill="#FFFFFF" fill-rule="nonzero"></path>
                    <g id="Group" transform="translate(7.304985, 3.108504)" fill="#FFFFFF" fill-rule="nonzero">
                        <path d="M31.941437,12.1107331 C32.3004692,12.4961877 32.8180352,13.1178886 33.1086804,13.4955718 L38.4615249,10.0979765 C38.1941935,9.74826979 37.7683284,9.21671554 37.4497067,8.84214076 L34.0598827,11.0833724 L33.8282991,11.2823167 L34.0008211,11.0305279 L35.497566,8.04325513 L34.4391202,6.98480938 L31.4502933,8.48155425 L31.1985044,8.65407625 L31.3990029,8.42249267 L33.6417889,5.03422287 C33.2470088,4.6985044 32.8677713,4.39076246 32.3843988,4.01774194 L28.9868035,9.36592375 C29.4173314,9.69697947 29.9846334,10.1834604 30.3467742,10.5145161 L33.5454252,8.85457478 L33.7505865,8.70381232 L33.599824,8.90897361 L31.941437,12.1107331 Z" id="W_60_"></path>
                        <path d="M19.794956,5.3326393 L21.2575073,2.05627566 L21.3507625,1.7656305 L21.3243402,2.06870968 L21.4782111,6.44703812 C21.9911144,6.49521994 22.5211144,6.56671554 23.0433431,6.65375367 L22.8055425,0.16941349 C22.075044,0.0885923754 21.347654,0.031085044 20.6202639,0 L19.1794721,3.57633431 L19.1281818,3.84211144 L19.0768915,3.57633431 L17.637654,0 C16.9102639,0.031085044 16.1828739,0.0885923754 15.4523754,0.16941349 L15.2145748,6.65375367 C15.7368035,6.56671554 16.2668035,6.49677419 16.7797067,6.44703812 L16.9335777,2.06870968 L16.9071554,1.7656305 L17.0004106,2.05627566 L18.4629619,5.3326393 L19.794956,5.3326393 Z" id="M_60_"></path>
                        <path d="M7.96554252,10.5005279 C8.81105572,9.60994135 9.2897654,8.58102639 8.4442522,7.598739 C7.98419355,7.0656305 7.21173021,6.94906158 6.5713783,7.21173021 L6.50765396,7.23659824 L6.52785924,7.18064516 C6.62266862,6.92730205 6.68328446,6.11909091 5.99475073,5.56111437 C5.65903226,5.28912023 5.23782991,5.18809384 4.81196481,5.2316129 C4.01774194,5.31243402 3.40692082,5.85486804 1.74387097,7.70909091 C1.24184751,8.2686217 0.511348974,9.15143695 0.0730498534,9.72340176 C0.0730498534,9.72340176 4.64099707,14.0566569 4.64099707,14.0566569 C6.15483871,12.381173 6.77187683,11.7579179 7.96554252,10.5005279 Z M2.00498534,9.44052786 C2.92510264,8.31524927 3.90272727,7.29410557 4.34568915,6.89 C4.48557185,6.76255132 4.63788856,6.63510264 4.82284457,6.58536657 C5.12281525,6.5029912 5.43211144,6.71592375 5.50205279,7.02366569 C5.57199413,7.33296188 5.37771261,7.62671554 5.16167155,7.86917889 C4.67519062,8.41782991 2.89090909,10.2844868 2.89090909,10.2844868 C2.89090909,10.2844868 2.00498534,9.44052786 2.00498534,9.44052786 Z M3.79392962,11.1377713 C3.79392962,11.1377713 5.53158358,9.30064516 6.09888563,8.71313783 C6.3242522,8.48 6.46879765,8.33856305 6.62422287,8.26240469 C6.82472141,8.1644868 7.04387097,8.14428152 7.23970674,8.27483871 C7.43243402,8.40384164 7.52102639,8.62609971 7.47284457,8.84680352 C7.41533724,9.10947214 7.20085044,9.35970674 7.02366569,9.55087977 C6.78431085,9.80733138 4.72337243,12.0128152 4.72026393,12.0159238 L3.79392962,11.1377713 Z" id="B_x5F_22d_60_"></path>
                    </g>
                    <path d="M42.1109091,26.4347214 L26.4347214,26.4347214 L26.4347214,10.7585337 C35.0981232,10.7585337 42.1109091,17.7713196 42.1109091,26.4347214 Z" id="Path" fill="#FFFFFF" fill-rule="nonzero"></path>
                    <path d="M26.4347214,26.4347214 L26.4347214,42.1109091 C17.7713196,42.1109091 10.7585337,35.0981232 10.7585337,26.4347214 L26.4347214,26.4347214 L26.4347214,26.4347214 Z" id="Path" fill="#FFFFFF" fill-rule="nonzero"></path>
                    <path d="M26.4347214,10.7585337 L26.4347214,26.4347214 L10.7585337,26.4347214 C10.7585337,17.7713196 17.7713196,10.7585337 26.4347214,10.7585337 Z" id="Path" fill="#0066B1" fill-rule="nonzero"></path>
                    <path d="M42.1109091,26.4347214 C42.1109091,35.0981232 35.0981232,42.1109091 26.4347214,42.1109091 L26.4347214,26.4347214 L42.1109091,26.4347214 Z" id="Path" fill="#0066B1" fill-rule="nonzero"></path>
                </g>
            </g>
        </g>
    </g>
</svg>