<?xml version="1.0" encoding="utf-8"?>
<!-- Generator: Adobe Illustrator 24.1.3, SVG Export Plug-In . SVG Version: 6.00 Build 0)  -->
<svg version="1.1" id="Layer_1" xmlns="http://www.w3.org/2000/svg" xmlns:xlink="http://www.w3.org/1999/xlink" x="0px" y="0px"
	 viewBox="0 0 45 45" style="enable-background:new 0 0 45 45;" xml:space="preserve">
<style type="text/css">
	.st0{fill:#F8F8F8;}
	.st1{fill:#383838;}
</style>
<g id="그룹_16465" transform="translate(-1203 -43.003)">
	<g id="그룹_16459" transform="translate(1203 43.003)">
		<g id="그룹_16351">
			<path id="패스_7789" class="st0" d="M22.5,0C34.9,0,45,10.1,45,22.5S34.9,45,22.5,45S0,34.9,0,22.5S10.1,0,22.5,0z"/>
			<g id="그룹_14479" transform="translate(12.607 12.607)">
				<path id="패스_7756" class="st1" d="M10,1.8c2.7,0,3,0,4,0.1c0.6,0,1.3,0.1,1.9,0.3c0.9,0.3,1.6,1,1.9,1.9
					C18,4.7,18.1,5.3,18.1,6c0,1.1,0.1,1.4,0.1,4s0,3-0.1,4c0,0.6-0.1,1.3-0.3,1.9c-0.3,0.9-1,1.6-1.9,1.9c-0.6,0.2-1.2,0.3-1.9,0.3
					c-1.1,0-1.4,0.1-4,0.1s-3,0-4-0.1c-0.6,0-1.3-0.1-1.9-0.3c-0.9-0.3-1.6-1-1.9-1.9C2,15.3,1.9,14.7,1.9,14c0-1.1-0.1-1.4-0.1-4
					s0-3,0.1-4c0-0.6,0.1-1.3,0.3-1.9c0.3-0.9,1-1.6,1.9-1.9C4.7,2,5.3,1.9,6,1.9C7,1.8,7.3,1.8,10,1.8 M10,0C7.3,0,6.9,0,5.9,0.1
					C5,0.1,4.2,0.2,3.4,0.5C2.1,1,1,2.1,0.5,3.4C0.2,4.2,0.1,5,0.1,5.9C0,6.9,0,7.3,0,10s0,3.1,0.1,4.1c0,0.8,0.2,1.6,0.5,2.4
					c0.5,1.3,1.6,2.4,2.9,2.9c0.8,0.3,1.6,0.4,2.4,0.5C6.9,20,7.3,20,10,20s3.1,0,4.1-0.1c0.8,0,1.6-0.2,2.4-0.5
					c1.3-0.5,2.4-1.6,2.9-2.9c0.3-0.8,0.4-1.6,0.5-2.4C20,13,20,12.7,20,10s0-3.1-0.1-4.1c0-0.8-0.2-1.6-0.5-2.4
					c-0.5-1.3-1.6-2.4-2.9-2.9c-0.8-0.3-1.6-0.4-2.4-0.5C13,0,12.7,0,10,0z"/>
				<path id="패스_7757" class="st1" d="M10,4.9c-2.8,0-5.1,2.3-5.1,5.1s2.3,5.1,5.1,5.1s5.1-2.3,5.1-5.1c0,0,0,0,0,0
					C15.1,7.2,12.8,4.9,10,4.9z M10,13.3c-1.8,0-3.3-1.5-3.3-3.3c0-1.8,1.5-3.3,3.3-3.3c1.8,0,3.3,1.5,3.3,3.3S11.8,13.3,10,13.3
					L10,13.3z"/>
				<circle id="타원_232" class="st1" cx="15.3" cy="4.7" r="1.2"/>
			</g>
		</g>
	</g>
</g>
</svg>
