<?xml version="1.0" encoding="utf-8"?>
<!-- Generator: Adobe Illustrator 24.1.3, SVG Export Plug-In . SVG Version: 6.00 Build 0)  -->
<svg version="1.1" id="Layer_1" xmlns="http://www.w3.org/2000/svg" xmlns:xlink="http://www.w3.org/1999/xlink" x="0px" y="0px"
	 viewBox="0 0 60 60" style="enable-background:new 0 0 60 60;" xml:space="preserve">
<style type="text/css">
	.st0{fill:#2E2E2E;}
	.st1{opacity:0.8;}
	.st2{fill:#FFFFFF;}
</style>
<g id="그룹_14483" transform="translate(-741 -37)">
	<path id="패스_7793" class="st0" d="M771,37c16.6,0,30,13.4,30,30s-13.4,30-30,30s-30-13.4-30-30S754.4,37,771,37z"/>
	<g id="그룹_14430" transform="translate(740.638 36.498)" class="st1">
		<path id="패스_7756" class="st2" d="M30,18.1c3.9,0,4.4,0,5.9,0.1c0.9,0,1.8,0.2,2.7,0.5c1.3,0.5,2.3,1.5,2.8,2.8
			c0.3,0.9,0.5,1.8,0.5,2.7c0.1,1.5,0.1,2,0.1,5.9s0,4.4-0.1,5.9c0,0.9-0.2,1.8-0.5,2.7c-0.5,1.3-1.5,2.3-2.8,2.8
			c-0.9,0.3-1.8,0.5-2.7,0.5c-1.5,0.1-2,0.1-5.9,0.1s-4.4,0-5.9-0.1c-0.9,0-1.8-0.2-2.7-0.5c-1.3-0.5-2.3-1.5-2.8-2.8
			c-0.3-0.9-0.5-1.8-0.5-2.7C18,34.5,18,34,18,30.1s0-4.4,0.1-5.9c0-0.9,0.2-1.8,0.5-2.7c0.5-1.3,1.5-2.3,2.8-2.8
			c0.9-0.3,1.8-0.5,2.7-0.5C25.6,18.2,26.1,18.1,30,18.1 M30,15.5c-4,0-4.5,0-6,0.1c-1.2,0-2.4,0.3-3.5,0.7c-2,0.8-3.5,2.3-4.3,4.3
			c-0.4,1.1-0.7,2.3-0.7,3.5c-0.1,1.6-0.1,2.1-0.1,6s0,4.5,0.1,6c0,1.2,0.3,2.4,0.7,3.5c0.8,2,2.3,3.5,4.3,4.3
			c1.1,0.4,2.3,0.7,3.5,0.7c1.6,0.1,2.1,0.1,6,0.1s4.5,0,6-0.1c1.2,0,2.4-0.3,3.5-0.7c2-0.8,3.5-2.3,4.3-4.3
			c0.4-1.1,0.7-2.3,0.7-3.5c0.1-1.6,0.1-2.1,0.1-6s0-4.5-0.1-6c0-1.2-0.3-2.4-0.7-3.5c-0.8-2-2.3-3.5-4.3-4.3
			c-1.1-0.4-2.3-0.7-3.5-0.7C34.4,15.5,33.9,15.5,30,15.5L30,15.5z"/>
		<path id="패스_7757" class="st2" d="M30,22.6c-4.1,0-7.5,3.4-7.5,7.5s3.4,7.5,7.5,7.5s7.5-3.4,7.5-7.5l0,0
			C37.5,26,34.1,22.6,30,22.6z M30,35c-2.7,0-4.9-2.2-4.9-4.9c0-2.7,2.2-4.9,4.9-4.9c2.7,0,4.9,2.2,4.9,4.9C34.8,32.8,32.7,35,30,35
			C30,35,30,35,30,35z"/>
		<circle id="타원_232" class="st2" cx="37.8" cy="22.3" r="1.8"/>
	</g>
</g>
</svg>
