<svg width="81" height="21" viewBox="0 0 81 21" fill="none" xmlns="http://www.w3.org/2000/svg">
<path d="M0 0.4767V20.5222H15.3446V15.3856H6.2984V0.4767H0Z" fill="white"/>
<path d="M36.4464 12.7733C36.4464 18.333 33.3836 20.999 27.1429 20.999C20.9032 20.999 17.8095 18.333 17.8095 12.7733V0.4767H24.1079V11.3978C24.1079 13.4474 24.1079 16.001 27.1706 16.001C30.148 16.001 30.148 13.4463 30.148 11.3978V0.4767H36.4453V12.7733H36.4464Z" fill="white"/>
<path d="M45.9975 13.7854C45.9975 14.2905 46.084 14.7388 46.227 15.1042C46.685 16.3118 48.06 16.5637 49.2332 16.5637C50.2633 16.5637 51.839 16.2277 51.839 14.7388C51.839 13.7004 50.9508 13.42 47.428 12.4372C44.1934 11.5384 40.4998 10.669 40.4998 6.6255C40.4998 1.9929 44.5361 0 48.7453 0C53.1809 0 57.104 1.6569 57.278 6.5415H51.3213C51.4355 5.7834 51.0885 5.2773 50.5772 4.94235C50.0637 4.57695 49.3474 4.43625 48.7176 4.43625C47.8571 4.43625 46.4544 4.6599 46.4544 5.7834C46.5686 7.21665 49.4905 7.5243 52.3813 8.31075C55.2732 9.09615 58.1374 10.416 58.1374 14.0941C58.1374 19.3158 53.2396 21 48.6887 21C46.3701 21 39.7578 20.1852 39.6991 13.7854H45.9975Z" fill="white"/>
<path d="M73.8845 0.4767V7.43925H67.9843V0.4767H61.6859V20.5222H67.9843V12.5769H73.8845V20.5222H80.1818V0.4767H73.8845Z" fill="white"/>
</svg>
