<svg width="800" height="800" viewBox="0 0 800 800" fill="none" xmlns="http://www.w3.org/2000/svg">
<g clip-path="url(#clip0_1_2)">
<path d="M433.757 69.618C486.32 0.337753 559.396 0 559.396 0C559.396 0 570.266 65.1352 518.047 127.881C462.29 194.88 398.914 183.917 398.914 183.917C398.914 183.917 387.014 131.224 433.757 69.618ZM405.6 229.544C432.641 229.544 482.828 192.372 548.154 192.372C660.601 192.372 704.838 272.386 704.838 272.386C704.838 272.386 618.319 316.621 618.319 423.956C618.319 545.038 726.098 586.767 726.098 586.767C726.098 586.767 650.756 798.825 548.991 798.825C502.251 798.825 465.913 767.327 416.666 767.327C366.478 767.327 316.675 800 284.237 800C191.31 800.003 73.9115 598.844 73.9115 437.145C73.9115 278.057 173.282 194.601 266.487 194.601C327.079 194.601 374.099 229.544 405.6 229.544Z" fill="black"/>
</g>
<defs>
<clipPath id="clip0_1_2">
<rect width="800" height="800" fill="white"/>
</clipPath>
</defs>
</svg>
