<svg width="167" height="49" viewBox="0 0 167 49" fill="none" xmlns="http://www.w3.org/2000/svg">
<path d="M0 37.1757L5.15902 34.1141C6.68762 39.0892 10.7002 42.3422 17.1967 42.3422C23.5022 42.3422 26.7505 39.4719 26.7505 35.4535C26.7505 30.8611 22.7379 29.3303 16.0503 27.2254C8.78944 24.9292 1.91075 22.6329 1.91075 14.2134C1.91075 5.98528 8.59837 1.39282 16.0503 1.39282C23.5022 1.39282 28.8523 5.60258 31.3363 11.3431L26.3683 14.2134C24.8397 10.3864 21.5915 7.32474 16.0503 7.32474C11.2734 7.32474 7.83407 9.81232 7.83407 14.0221C7.83407 18.2318 11.0823 19.7626 17.3878 21.8675C25.2219 24.3551 32.6738 26.8427 32.6738 35.4535C32.6738 43.4903 26.3683 48.4655 17.0057 48.4655C8.59837 48.2741 2.48397 43.873 0 37.1757Z" fill="#191919"/>
<path d="M37.0685 31.2438C37.0685 21.6762 44.5204 14.2134 54.0741 14.2134C63.6279 14.2134 71.0798 21.6762 71.0798 31.2438C71.0798 40.8114 63.4368 48.2742 54.0741 48.2742C44.7115 48.2742 37.0685 40.8114 37.0685 31.2438ZM65.3476 31.2438C65.3476 24.7378 60.3796 19.7626 53.8831 19.7626C47.5776 19.7626 42.6097 24.7378 42.6097 31.2438C42.6097 37.7498 47.5776 42.7249 53.8831 42.7249C60.3796 42.7249 65.3476 37.7498 65.3476 31.2438Z" fill="#191919"/>
<path d="M77.3854 0.244713H82.9265V47.3174H77.3854V0.244713Z" fill="#191919"/>
<path d="M119.613 15.1702L106.62 47.5087H100.123L87.1301 15.1702H93.2445L103.371 41.3855L113.498 15.1702H119.613V15.1702Z" fill="#191919"/>
<path d="M138.338 42.9163C142.733 42.9163 145.981 40.8114 147.701 38.1325L152.478 40.8114C149.612 45.2125 144.644 48.0828 138.338 48.0828C128.02 48.0828 121.141 40.8114 121.141 31.0524C121.141 21.4848 128.02 14.0221 137.956 14.0221C147.701 14.0221 154.006 22.0589 154.006 31.0524C154.006 31.8179 154.006 32.7746 153.815 33.54H126.683C127.829 39.6633 132.415 42.9163 138.338 42.9163ZM126.683 28.9476H148.274C147.319 22.6329 142.733 19.5713 137.956 19.5713C131.842 19.5713 127.638 23.3984 126.683 28.9476Z" fill="#191919"/>
<path d="M158.592 43.873C158.592 41.5768 160.503 39.6633 162.796 39.6633C165.089 39.6633 166.999 41.5768 166.999 43.873C166.999 46.1693 165.28 48.0828 162.796 48.0828C160.503 48.0828 158.592 46.3606 158.592 43.873Z" fill="#191919"/>
</svg>
