<?xml version="1.0" encoding="utf-8"?>
<!-- Generator: Adobe Illustrator 24.1.3, SVG Export Plug-In . SVG Version: 6.00 Build 0)  -->
<svg version="1.1" id="Layer_1" xmlns="http://www.w3.org/2000/svg" xmlns:xlink="http://www.w3.org/1999/xlink" x="0px" y="0px"
	 viewBox="0 0 1032 264" style="enable-background:new 0 0 1032 264;" xml:space="preserve">
<style type="text/css">
	.st0{fill:#00BFFF;}
	.st1{fill:#EF5928;}
	.st2{fill:#CA292F;}
	.st3{fill:#FF8B33;}
	.st4{fill:#FFFFFF;}
	.st5{clip-path:url(#SVGID_2_);}
	.st6{fill:#FFC91A;}
	.st7{fill:#FFD61A;}
	.st8{fill:#FFC026;}
	.st9{fill:#501E00;}
	.st10{fill:#CA8140;}
	.st11{fill:#BA0000;}
</style>
<rect id="사각형_833_5_" x="0.1" y="0.1" class="st0" width="1032.9" height="264.6"/>
<g>
	<g>
		<path class="st1" d="M394.9,80c0,0,4.5-1.1,8.1-5.2c3.5-4,6-8.9,10.6-8.3s11.4,16.2-3.5,20.8c0,0-7.2,2.6-15.6-4.6
			C394.4,82.7,392.5,80.9,394.9,80z"/>
	</g>
	<path class="st2" d="M398.9,82.5c1.6,0.2,3.2,0.2,4.8,0.1c1.6-0.1,3.1-0.4,4.5-1c1.4-0.5,2.8-1.3,4-2.3c1.2-1,2.3-2.2,3.4-3.4
		c-0.3,0.7-0.7,1.5-1.1,2.2c-0.5,0.7-0.9,1.4-1.6,1.9c-1.2,1.2-2.6,2.1-4.2,2.7C405.5,83.9,401.9,83.8,398.9,82.5z"/>
	<path class="st2" d="M397.4,81.8c1.6-0.4,3.1-1,4.5-1.7c1.4-0.7,2.7-1.6,3.8-2.7c1.1-1.1,2.1-2.3,2.8-3.7c0.8-1.4,1.3-2.9,1.8-4.4
		c0,0.8-0.1,1.6-0.2,2.5c-0.2,0.8-0.3,1.6-0.7,2.4c-0.6,1.6-1.6,3-2.8,4.1C404.1,80.6,400.7,81.9,397.4,81.8z"/>
	<path class="st1" d="M367.6,49c0,0-12.1-20.4,2.4-21.7c13.6-1.1,12.3,15.4,6.9,23L367.6,49z"/>
	<path class="st2" d="M368.6,30.7c0.7,1.2,1.3,2.5,1.7,3.9c0.4,1.4,0.6,2.8,0.8,4.2c0.1,1.4,0,2.9-0.2,4.2c-0.2,1.4-0.7,2.8-1.3,4
		c0.1-1.4,0.3-2.8,0.4-4.1c0-1.4,0.1-2.7,0-4.1C369.7,36.1,369.2,33.4,368.6,30.7z"/>
	<path class="st2" d="M376,33.6c0.6,2.6,0.2,5.3-0.6,7.9c-0.5,1.3-1,2.5-1.7,3.6c-0.7,1.1-1.5,2.2-2.5,3.1l1.6-3.5
		c0.5-1.2,1-2.4,1.4-3.6c0.4-1.2,0.7-2.4,1-3.7C375.6,36.2,375.9,35,376,33.6z"/>
	<g>
		<path class="st1" d="M348.9,83.7c0,0-3.1,3.5-8.3,4.9c-5.2,1.3-10.7,1.4-12.2,5.7c-1.5,4.3,9.3,17.4,20.1,6.2c0,0,5.6-5.2,2.9-16
			C351.5,84.4,351.1,81.7,348.9,83.7z"/>
	</g>
	<path class="st2" d="M350.2,86.3c-0.6,1.5-1.6,2.8-2.8,3.9c-1.2,1.1-2.6,2-4.1,2.6c-1.5,0.6-3.1,1.1-4.7,1.3
		c-0.8,0.1-1.6,0.1-2.4,0.2c-0.8,0-1.6-0.1-2.4-0.1c0.8-0.2,1.6-0.3,2.3-0.4c0.8-0.2,1.5-0.3,2.3-0.5c1.5-0.4,3-0.8,4.4-1.5
		c1.4-0.6,2.8-1.4,4-2.3C348.1,88.6,349.3,87.6,350.2,86.3z"/>
	<path class="st2" d="M351.8,87.7c-0.2,3.3-1.7,6.5-4.2,8.8c-1.3,1.1-2.7,2-4.3,2.5c-0.8,0.3-1.6,0.4-2.4,0.5
		c-0.8,0.1-1.7,0.1-2.5,0c1.6-0.4,3.1-0.8,4.6-1.4c1.4-0.6,2.7-1.5,3.9-2.5c1.2-1,2.1-2.3,3-3.6C350.5,90.6,351.2,89.2,351.8,87.7z"
		/>
	<path class="st3" d="M354.1,96c-7.8-6.9-11.5-14.1-12.3-21.9c-1.5-15,9.6-28.4,26.5-30.1c16.9-1.7,30.9,9,32.4,24
		c0,0,5.4,31.3-33.6,51.2l-2.7-3.8C364.4,115.6,370,110.1,354.1,96z"/>
	<path class="st1" d="M374.3,102.1c-0.3,0.9-0.7,1.4-1.2,1.6s-1.1,0-1.6-0.5c-0.5-0.6-0.9-1.4-1.1-2.4c-0.2-1-0.2-2,0.1-2.8
		c0.3-0.9,0.7-1.4,1.2-1.6c0.6-0.2,1.1,0,1.6,0.5c0.5,0.6,0.9,1.4,1.1,2.4C374.6,100.3,374.5,101.2,374.3,102.1z"/>
	<path class="st1" d="M367.9,99.2c-0.1,0.7-0.3,1.1-0.7,1.4c-0.4,0.2-0.8,0.2-1.3-0.2c-0.4-0.4-0.8-0.9-1.1-1.6
		c-0.3-0.7-0.4-1.4-0.3-2.1c0.1-0.7,0.3-1.1,0.7-1.4c0.4-0.2,0.8-0.2,1.3,0.1c0.5,0.3,0.8,0.9,1.1,1.6
		C367.9,97.9,368,98.5,367.9,99.2z"/>
	<path class="st1" d="M369.9,105.1c-0.1,0.4-0.3,0.6-0.5,0.7c-0.2,0.1-0.5,0-0.7-0.3c-0.2-0.3-0.4-0.6-0.4-1.1
		c-0.1-0.4-0.1-0.8,0-1.2c0.1-0.4,0.3-0.6,0.5-0.6c0.2-0.1,0.5,0,0.7,0.3c0.2,0.3,0.4,0.6,0.4,1C370,104.4,370,104.8,369.9,105.1z"
		/>
	<g>
		<circle class="st4" cx="380.6" cy="57.2" r="11.9"/>
	</g>
	<g>
		<circle cx="378.4" cy="57.5" r="5.3"/>
	</g>
	<path class="st4" d="M373.5,55.1c0,0-0.1-0.1-0.1-0.1c0.3-1,0.8-1.5,1-1.7c0,0,0.1,0,0.1,0c0.7,0.5,1,1.2,0.8,1.7
		C374.9,55.6,374.2,55.6,373.5,55.1z"/>
	<g>
		<circle class="st4" cx="357.8" cy="59.6" r="11.9"/>
	</g>
	<g>
		<circle cx="360.5" cy="59.3" r="5.3"/>
	</g>
	<path class="st4" d="M355.6,57c0,0-0.1-0.1-0.1-0.1c0.3-1,0.8-1.5,1-1.7c0,0,0.1,0,0.1,0c0.7,0.5,1,1.2,0.8,1.7
		C357,57.4,356.2,57.4,355.6,57z"/>
	<path class="st1" d="M367.9,118c0,0-2.2,17.5-10,12.9c-7.8-4.6-11-18.1-6.5-20.4S368.1,114.7,367.9,118z"/>
	<path class="st2" d="M352.8,117.3c1,0.1,2,0.2,2.9,0.3c1,0.1,1.9,0.1,2.8,0c1.9,0,3.7-0.4,5.7-0.8c-0.8,0.6-1.7,1.2-2.6,1.5
		c-1,0.4-2,0.5-3,0.6C356.5,118.9,354.4,118.4,352.8,117.3z"/>
	<path class="st2" d="M356.8,126.4c0.8-0.6,1.6-1.2,2.3-1.8c0.7-0.6,1.4-1.2,2.1-1.9c1.3-1.3,2.4-2.8,3.6-4.5c-0.2,1-0.4,2-0.9,2.9
		c-0.5,0.9-1.1,1.7-1.8,2.5C360.6,125,358.8,126.1,356.8,126.4z"/>
	<g>
		<path class="st1" d="M371,79.8c-7,0.7-11.7-1.7-12-1.8c-1.9-0.9-2.9-3.3-2.2-5.3c0.8-2,2.9-2.9,4.8-2c0.4,0.2,8.1,3.5,17.7-1.8
			c1.8-1,4-0.2,5,1.7c0.9,1.9,0.1,4.1-1.5,5.3C379.7,78.2,374.5,79.5,371,79.8z"/>
		<path class="st2" d="M370.6,76c-5.7,0.5-9.6-1.1-9.8-1.2c-0.3-0.1-0.4-0.5-0.3-0.7c0.1-0.3,0.5-0.4,0.7-0.3
			c0.1,0,8.5,3.5,18.8-1.8c0.3-0.1,0.6,0,0.8,0.2c0.1,0.3,0,0.6-0.2,0.8C376.9,74.8,373.5,75.7,370.6,76z"/>
	</g>
</g>
<g>
	<defs>
		<rect id="SVGID_1_" x="79" y="10" width="361" height="254"/>
	</defs>
	<clipPath id="SVGID_2_">
		<use xlink:href="#SVGID_1_"  style="overflow:visible;"/>
	</clipPath>
	<g class="st5">
		<path class="st6" d="M243.5,73.4l12.6,2.2c1.9-12,2.5-21.6,2.7-32c0.1-5.2,0.2-9.8-1.4-10.1c-1.8-0.3-3.5,4.2-5.2,9.1
			C248.7,52.7,245.9,61.8,243.5,73.4z"/>
		<path class="st7" d="M324.9,168.2c3.5-22.8-2.5-50.5-16.6-69.9c-13.7-19-35.1-30.3-57.2-35c0,0-34.3-7.1-64.7,13.4
			c-19.9,13.4-35.4,35.9-40.3,58.4c0,0-0.1,0.5-0.4,1.3c-1.5,6.3-6.5,33.6,15.3,55.6c15.4,15.5,31.4,24.5,61.3,30.8
			c31.9,5.1,48.3,2.2,68.3-6.8c27.2-12.3,33-38.2,34.1-45.7C324.8,169,324.9,168.2,324.9,168.2z"/>
		<path class="st8" d="M310.9,155.1c0.1-0.1,0.2-0.2,0.3-0.2c0.3-0.1,1.1-0.3,1.6-0.5c0.5-0.2,1.5-0.5,2.1-0.8
			c0.3-0.1,0.5-0.5,0.3-0.8c-0.8-1.1-1.8-2.4-2.2-2.9c-0.1-0.1-0.1-0.2-0.1-0.4c0.1-1.3,0.1-3,0.1-3.9c0-0.4-0.4-0.6-0.7-0.5
			c-0.8,0.3-2.3,0.7-3.6,1.2c-0.1,0-0.2,0-0.4,0c-0.6-0.2-2.5-0.9-4-1.2c-0.3-0.1-0.6,0.2-0.7,0.5c-0.2,1.5,0,3.5,0,4.1
			c0,0.1,0,0.3-0.1,0.4c-0.8,1.1-1.7,2.4-2.2,3.1c-0.2,0.3-0.1,0.7,0.3,0.8c0.9,0.3,2.4,0.8,3.8,1.1c0.1,0,0.3,0.1,0.3,0.2
			c0.3,0.5,1.3,1.9,2.1,2.9c0.2,0.3,0.6,0.3,0.9,0c0.3-0.4,0.8-1,1.1-1.4C310.2,156.1,310.7,155.4,310.9,155.1z"/>
		<g>
			<path class="st7" d="M175.7,172.2c14.4,10.9,13.2,40.4,3,49c-5.8-1.9-25.9-11.9-31.1-15.4c-5.9-4-11-8.9-15.5-14.6
				c-0.3-0.4-0.5-0.8-0.8-1.1c-4.1-5.3-6.9-10.7-8.5-16.2c-2.2-6.5-2.7-12.7-1.4-18.5C121.3,155.3,148.6,169.6,175.7,172.2z"/>
			<path class="st7" d="M288.3,194.2c-17.1,5.9-25,34.4-18,45.7c6.1,0,28.3-3.3,34.4-5c6.8-2,13.2-5.1,19.3-9.1
				c0.4-0.3,0.8-0.6,1.1-0.8c5.5-3.8,9.9-8.1,13.1-12.8c4.1-5.5,6.5-11.2,7.1-17.1C345.2,195,314.8,200.1,288.3,194.2z"/>
			<path class="st7" d="M167.3,143.5c-2.5,19.4-2.6,38.1-0.1,56c2.6,19.1,7.8,35.7,15.7,49.9c18.5,33.1,48.2,48.4,89.1,46l1.6-9
				c-9.4-4.6-14-10.4-13.6-17.6c0.3-5.4,4-13.5,11.1-24.1c13.1-19.7,20.2-30.5,21.3-32.5c8.5-14.7,14.3-28.9,17.3-42.7L167.3,143.5z
				"/>
			<path class="st7" d="M266.2,289.9c0,0-8.3-24.4,7.7-35c8.7-5.7,21.4-9.1,40.6-1.7c0,0-49,27.8-37.2,77.6c0,0-39.6-10.6-13.6-39.6
				L266.2,289.9z"/>
			<path class="st4" d="M246.8,275.3c-9.6-15.2,7.4-47.2,12.8-62.3l-63.5-8.9c-0.2,29.6,1.8,49.4,14.1,65.7
				c11.9,15.8,26.2,20.6,46.6,21.5c1.2,0.1,2.6-0.7,2.8-2.2c0,0,1.1-2.9-1.7-4.4C256.1,283.8,252.4,282.8,246.8,275.3z"/>
			<g>
				<g>
					<path class="st4" d="M161,192c15.4,15.5,31.4,24.5,61.3,30.8c31.9,5.1,48.3,2.2,68.3-6.8c27.2-12.3,33-38.2,34.1-45.7
						c-15.3-11.9-35.1-6.6-35.1-6.6c-21.8,4.7-38.7,3.3-56.6,0c-19.5-3.9-34.8-8.1-53.8-20.5c0,0-15.6-11.3-33.5-6.9
						C144.2,142.7,139.2,170,161,192z"/>
				</g>
				<g>
					<g>
						<path class="st8" d="M281.5,112.3c-6.1-0.3-11.4,1.7-16,6s-7,9.6-7.3,16c-0.3,6.5,1.7,12.1,5.7,16.9c4.1,4.8,9.2,7.3,15.3,7.6
							c6.2,0.3,11.5-1.7,16-6c4.5-4.3,7-9.7,7.3-16.2c0.2-6.4-1.7-12-5.8-16.8C292.7,115.1,287.6,112.6,281.5,112.3z"/>
						<path class="st4" d="M278.8,113.5c-6.1-0.3-11.4,1.7-16,6s-7,9.6-7.3,16c-0.3,6.5,1.7,12.1,5.7,16.9c4.1,4.8,9.2,7.3,15.3,7.6
							c6.2,0.3,11.5-1.7,16-6c4.5-4.3,7-9.7,7.3-16.2c0.2-6.4-1.7-12-5.8-16.8C290.1,116.3,285,113.8,278.8,113.5z"/>
						<path class="st9" d="M276.8,120.6c-4.3-1.2-8.5-0.7-12.5,1.5c-4.1,2.2-6.8,5.5-8.2,10c-1.4,4.5-1,8.8,1,13
							c2,4.1,5.2,6.8,9.6,8.1c4.3,1.3,8.5,0.9,12.6-1.3c4-2.3,6.7-5.7,8.1-10.2c1.4-4.5,1-8.8-1.1-12.8
							C284.3,124.6,281.1,121.9,276.8,120.6z"/>
						<path class="st4" d="M261.5,123.5c-0.1-0.1-0.3-0.1-0.4-0.2c-2.7,2-3.7,4.1-4,4.8c0.1,0.1,0.1,0.1,0.2,0.2
							c2.1,1.6,4.8,1.8,5.9,0.5C264.4,127.5,263.6,125.1,261.5,123.5z"/>
					</g>
					<g>
						<path class="st8" d="M206.1,98.3c-5.8-1.8-11.5-1.2-17,1.8c-5.5,3.1-9.2,7.7-11.1,13.8c-1.8,6.1-1.3,12,1.5,17.6
							c2.8,5.6,7.2,9.4,13,11.1c5.9,1.8,11.6,1.2,17-1.8c5.5-3.1,9.2-7.7,11.1-13.8c1.9-6.2,1.4-12.1-1.5-17.7
							C216.4,103.7,212.1,100.1,206.1,98.3z"/>
						<path class="st4" d="M208.2,100.4c-5.8-1.8-11.5-1.2-17,1.8c-5.5,3.1-9.2,7.7-11.1,13.8c-1.8,6.1-1.3,12,1.5,17.6
							c2.8,5.6,7.2,9.4,13,11.1c5.9,1.8,11.6,1.2,17-1.8c5.5-3.1,9.2-7.7,11.1-13.8c1.9-6.2,1.4-12.1-1.5-17.7
							C218.5,105.9,214.1,102.2,208.2,100.4z"/>
						<path class="st9" d="M212,108.6c-4.3-1.2-8.5-0.7-12.5,1.5c-4.1,2.2-6.8,5.5-8.2,10c-1.4,4.5-1,8.8,1,13
							c2,4.1,5.2,6.8,9.6,8.1c4.3,1.3,8.5,0.9,12.6-1.3c4-2.3,6.7-5.7,8.1-10.2c1.4-4.5,1-8.8-1.1-12.8
							C219.5,112.6,216.3,109.9,212,108.6z"/>
						<path class="st4" d="M196.7,111.5c-0.1-0.1-0.3-0.1-0.4-0.2c-2.7,2-3.7,4.1-4,4.8c0.1,0.1,0.1,0.1,0.2,0.2
							c2.1,1.6,4.8,1.8,5.9,0.5C199.6,115.4,198.8,113.1,196.7,111.5z"/>
					</g>
					<g>
						<path class="st10" d="M227.9,144.1c-0.6,0.4-1,1-1.1,1.9c-0.1,0.8,0.1,1.7,0.6,2.6c0.5,0.8,1.1,1.4,1.9,1.8
							c0.8,0.4,1.5,0.4,2.1,0c0.6-0.4,1-1,1.1-1.8c0.1-0.9-0.1-1.7-0.6-2.6c-0.5-0.8-1.1-1.4-1.9-1.8
							C229.2,143.7,228.5,143.7,227.9,144.1z"/>
						<path class="st10" d="M243.2,146.5c-0.8,0.1-1.6,0.5-2.4,1.1c-0.8,0.7-1.2,1.4-1.4,2.3c-0.2,0.8-0.1,1.5,0.4,2.1
							c0.5,0.5,1.2,0.7,2,0.7c0.8-0.1,1.6-0.5,2.4-1.1c0.7-0.7,1.2-1.5,1.4-2.3c0.2-0.9,0.1-1.6-0.4-2.1
							C244.8,146.6,244.1,146.3,243.2,146.5z"/>
					</g>
				</g>
				<path class="st11" d="M283.2,164.5c0,0-2.2,0.4-6.2,0.8c-7.9,0.7-23,1.2-42.9-2.1c-21.1-3.6-33.7-8.6-41.8-12.6
					c-2.4-1.2-4.5-2.4-6.2-3.4c0,0-13.4,42.9,41.1,53C280.2,210,283.2,164.5,283.2,164.5z"/>
				<g>
					<path class="st4" d="M199.6,161.4c3.5-1.9,7.4-3.1,10.8-3.6c1.8,3.4,6.5,10.4,9.8,13.6c1.4-1.2,11.3-6.8,13.2-7.4
						c1.9,1.1,8.8,10.4,9.7,11.5c4.2-1.9,11.2-6.7,14.1-9.3c3.3,2.1,6.9,4.6,8.8,7.1c4.5-2.3,8-5,11-8.1c-7.9,0.7-23,1.2-42.9-2.1
						c-21.1-3.6-33.7-8.6-41.8-12.6C194.1,154.2,196.4,157.8,199.6,161.4z"/>
				</g>
			</g>
		</g>
	</g>
</g>
</svg>
