<svg width="117" height="65" viewBox="0 0 117 65" fill="none" xmlns="http://www.w3.org/2000/svg">
<path d="M75.3125 34.7663H82.3823L78.9429 24.6246L75.3125 34.7663Z" fill="#191919"/>
<path d="M84.6752 0.322906C74.1661 0.322906 64.8034 5.48941 58.8801 13.1435C52.9568 5.29806 43.5941 0.322906 33.085 0.322906C15.315 0.322906 0.793335 14.8657 0.793335 32.6614C0.793335 50.4572 15.315 65 33.085 65C43.5941 65 52.9568 59.8335 58.8801 52.1794C64.8034 60.0248 74.1661 65 84.6752 65C102.445 65 116.967 50.4572 116.967 32.6614C116.776 14.8657 102.445 0.322906 84.6752 0.322906ZM35.1868 17.5446V30.3652H30.7921V17.5446H35.1868ZM17.9901 30.3652H30.7921V34.7663H17.9901V30.3652ZM30.7921 47.5869V34.7663H35.1868V47.5869H30.7921ZM47.9888 34.7663H35.1868V30.3652H47.9888V34.7663ZM86.2038 45.482L83.9109 38.9761H73.7839L71.491 45.482H67.0963L76.0768 19.6495H81.4269L90.4074 45.482H86.2038ZM98.2415 45.482H94.0379V19.6495H98.2415V45.482Z" fill="#191919"/>
</svg>
