<svg width="213" height="48" viewBox="0 0 213 48" fill="none" xmlns="http://www.w3.org/2000/svg">
<path d="M0.19104 24.1306C0.19104 11.1187 9.93586 0.594299 23.8843 0.594299C32.2916 0.594299 39.5525 4.9954 43.374 11.5014L38.2149 14.563C35.5399 9.58785 30.1898 6.33487 23.8843 6.33487C13.3752 6.33487 6.30544 13.989 6.30544 23.9393C6.30544 33.8896 13.3752 41.5437 23.8843 41.5437C29.9987 41.5437 35.5399 38.2907 38.2149 33.3155L43.374 36.3772C39.5525 43.0745 32.2916 47.4756 23.8843 47.4756C9.93586 47.667 0.19104 37.1426 0.19104 24.1306Z" fill="#191919"/>
<path d="M64.0101 13.989V19.9209C59.2332 19.7295 53.8831 22.2171 53.8831 29.8712V46.9015H48.3419V14.563H53.8831V19.9209C55.9849 15.3284 59.9975 13.989 64.0101 13.989Z" fill="#191919"/>
<path d="M83.6908 42.3091C88.0855 42.3091 91.3338 40.2042 93.0534 37.5253L97.8303 40.2042C94.9642 44.6053 89.9962 47.4756 83.6908 47.4756C73.3727 47.4756 66.494 40.2042 66.494 30.4453C66.494 20.8776 73.3727 13.4149 83.3086 13.4149C93.0534 13.4149 99.3589 21.4517 99.3589 30.4453C99.3589 31.2107 99.3589 32.1674 99.1678 32.9328H72.0352C73.1816 39.0561 77.7674 42.3091 83.6908 42.3091ZM72.0352 28.3404H93.6267C92.6713 22.0258 88.0855 18.9641 83.3086 18.9641C77.0031 18.9641 72.9906 22.5998 72.0352 28.3404Z" fill="#191919"/>
<path d="M137.765 14.563V46.9016H132.224V41.3523C129.74 45.3707 125.536 47.667 119.995 47.667C111.015 47.667 103.754 40.2042 103.754 30.6366C103.754 21.069 111.015 13.6062 119.995 13.6062C125.536 13.6062 129.549 16.0938 132.224 19.9209V14.3717H137.765V14.563ZM132.224 30.6366C132.224 24.1306 127.256 19.1555 120.759 19.1555C114.263 19.1555 109.295 24.1306 109.295 30.6366C109.295 37.1426 114.263 42.1178 120.759 42.1178C127.256 42.1178 132.224 37.1426 132.224 30.6366Z" fill="#191919"/>
<path d="M154.58 19.9209V37.3339C154.58 42.3091 157.446 41.9264 163.178 41.735V46.7102C153.433 48.0497 149.038 45.3707 149.038 37.3339V19.9209H142.733V14.563H149.038V7.29162L154.58 5.56944V14.563H163.178V19.9209H154.58V19.9209Z" fill="#191919"/>
<path d="M183.623 42.3091C188.018 42.3091 191.266 40.2042 192.986 37.5253L197.763 40.2042C194.896 44.6053 189.928 47.4756 183.623 47.4756C173.305 47.4756 166.426 40.2042 166.426 30.4453C166.426 20.8776 173.305 13.4149 183.241 13.4149C192.986 13.4149 199.291 21.4517 199.291 30.4453C199.291 31.2107 199.291 32.1674 199.1 32.9328H171.967C172.923 39.0561 177.509 42.3091 183.623 42.3091ZM171.967 28.3404H193.559C192.604 22.0258 188.018 18.9641 183.241 18.9641C176.935 18.9641 172.732 22.5998 171.967 28.3404Z" fill="#191919"/>
<path d="M203.686 43.2659C203.686 40.9696 205.597 39.0561 207.889 39.0561C210.182 39.0561 212.093 40.9696 212.093 43.2659C212.093 45.5621 210.373 47.4756 207.889 47.4756C205.597 47.4756 203.686 45.5621 203.686 43.2659Z" fill="#191919"/>
</svg>
