<svg width="266" height="47" viewBox="0 0 266 47" fill="none" xmlns="http://www.w3.org/2000/svg">
<path d="M0.19104 23.5363C0.19104 10.5244 9.93586 0 23.8843 0C32.2916 0 39.5525 4.4011 43.374 10.9071L38.2149 13.9687C35.5399 8.99356 30.1898 5.74057 23.8843 5.74057C13.3752 5.74057 6.30544 13.3947 6.30544 23.345C6.30544 33.2953 13.3752 40.9494 23.8843 40.9494C29.9987 40.9494 35.5399 37.6964 38.2149 32.7213L43.374 35.7829C39.5525 42.4802 32.2916 46.8813 23.8843 46.8813C9.93586 46.8813 0.19104 36.5483 0.19104 23.5363Z" fill="#191919"/>
<path d="M47.1956 29.851C47.1956 20.2833 54.6475 12.8206 64.2012 12.8206C73.755 12.8206 81.2069 20.2833 81.2069 29.851C81.2069 39.4186 73.5639 46.8813 64.2012 46.8813C54.8386 46.8813 47.1956 39.4186 47.1956 29.851ZM75.4746 29.851C75.4746 23.345 70.5067 18.3698 64.0101 18.3698C57.7047 18.3698 52.7367 23.345 52.7367 29.851C52.7367 36.3569 57.7047 41.3321 64.0101 41.3321C70.5067 41.5235 75.4746 36.5483 75.4746 29.851Z" fill="#191919"/>
<path d="M116.174 26.2153V46.1159H110.441V26.598C110.441 21.2401 107.384 18.3698 102.416 18.3698C97.2571 18.3698 93.0535 21.4315 93.0535 29.0855V46.1159H87.5123V13.7774H93.2446V18.3698C95.5375 14.5428 99.1679 12.8206 103.754 12.8206C111.206 13.012 116.174 17.9871 116.174 26.2153Z" fill="#191919"/>
<path d="M152.478 26.2153V46.1159H146.937V26.598C146.937 21.2401 143.879 18.3698 138.911 18.3698C133.752 18.3698 129.549 21.4315 129.549 29.0855V46.1159H124.008V13.7774H129.549V18.3698C131.842 14.5428 135.472 12.8206 140.058 12.8206C147.51 13.012 152.478 17.9871 152.478 26.2153Z" fill="#191919"/>
<path d="M175.98 41.7148C180.375 41.7148 183.623 39.6099 185.343 36.931L190.119 39.6099C187.253 44.011 182.285 46.8813 175.98 46.8813C165.662 46.8813 158.783 39.6099 158.783 29.851C158.783 20.2833 165.662 12.8206 175.598 12.8206C185.343 12.8206 191.648 20.8574 191.648 29.851C191.648 30.6164 191.648 31.5731 191.457 32.3385H164.324C165.28 38.2705 169.866 41.7148 175.98 41.7148ZM164.324 27.5547H185.916C184.96 21.2401 180.375 18.1785 175.598 18.1785C169.292 18.1785 165.089 22.0055 164.324 27.5547Z" fill="#191919"/>
<path d="M195.852 29.851C195.852 20.2833 203.113 12.8206 212.857 12.8206C219.163 12.8206 224.704 16.2649 227.188 21.2401L222.411 23.919C220.883 20.4747 217.252 18.1785 212.857 18.1785C206.361 18.1785 201.584 23.1536 201.584 29.6596C201.584 36.1656 206.552 41.1408 212.857 41.1408C217.252 41.1408 220.883 38.8445 222.602 35.5915L227.379 38.4618C224.704 43.437 219.163 46.8813 212.857 46.8813C203.113 46.8813 195.852 39.4186 195.852 29.851Z" fill="#191919"/>
<path d="M242.283 19.1352V36.5483C242.283 41.5234 245.149 41.1407 250.881 40.9494V45.9246C241.136 47.264 236.742 44.5851 236.742 36.5483V19.1352H230.436V13.7774H236.742V6.50597L242.283 4.7838V13.7774H250.881V19.1352H242.283V19.1352Z" fill="#191919"/>
<path d="M256.614 42.6716C256.614 40.3753 258.524 38.4618 260.817 38.4618C263.11 38.4618 265.021 40.3753 265.021 42.6716C265.021 44.9678 263.301 46.8813 260.817 46.8813C258.524 46.8813 256.614 44.9678 256.614 42.6716Z" fill="#191919"/>
</svg>
