<?xml version="1.0" encoding="utf-8"?>
<!-- Generator: Adobe Illustrator 24.1.3, SVG Export Plug-In . SVG Version: 6.00 Build 0)  -->
<svg version="1.1" id="Layer_1" xmlns="http://www.w3.org/2000/svg" xmlns:xlink="http://www.w3.org/1999/xlink" x="0px" y="0px"
	 viewBox="0 0 1032 264" style="enable-background:new 0 0 1032 264;" xml:space="preserve">
<style type="text/css">
	.st0{fill:#4A4BB4;}
	.st1{clip-path:url(#SVGID_2_);}
	.st2{fill:#FF66AF;}
	.st3{fill:#F44CA0;}
	.st4{fill:#FAF7F5;}
	.st5{fill:#E80784;}
	.st6{fill:#FFE600;}
	.st7{fill:#FFFFFF;}
	.st8{fill:#511B04;}
	.st9{fill:#FF41A1;}
	.st10{fill:#840000;}
	.st11{fill:#E10C5E;}
</style>
<rect id="사각형_833_5_" x="0.1" y="0.1" class="st0" width="1032.9" height="264.6"/>
<g>
	<defs>
		<rect id="SVGID_1_" x="51" y="6" width="452" height="258"/>
	</defs>
	<clipPath id="SVGID_2_">
		<use xlink:href="#SVGID_1_"  style="overflow:visible;"/>
	</clipPath>
	<g class="st1">
		<g>
			<g>
				<g>
					<g>
						<g>
							<g>
								<g>
									<path class="st2" d="M147.1,200.1c-2.5,10.6-5.9,20.6-9.2,30.5c16.3,7.5,50.3,17,78.4,13.6l-1.4-22.9c0,0-3.3-1.1-8.7-1.6
										C192.7,218.2,166.1,213.9,147.1,200.1z"/>
								</g>
							</g>
						</g>
					</g>
				</g>
			</g>
			<path class="st2" d="M141.1,195.2c0,0,3.6-13.5,1.3-16.9c-2.4-3.3-6.2-2.9-8.1-1.9s-3,5.3-3.1,6.1c-0.2,0.9-0.4,1.7-1.1,1.9
				c-1.4,0.6-3-0.2-4.3-1.9c-1.3-1.6-2.5-5.1-5.9-9.5c-1.9-2.4-4.9-2.5-7-1.3c-1.6,0.9-2.6,2.7-2.5,4.4c0.1,2.8,2.6,8.3,2.8,9
				c0.2,0.7,0.1,1.2-0.3,1.4c-0.3,0.2-0.8,0.3-1.2,0c-1-0.6-4.7-3.3-6.8-3.8c-2.2-0.5-4.6,0.3-5.7,2.1c-0.9,1.6-1.4,3.3-1,5
				c0.9,3.4,8.1,7.3,8.8,7.8c0.7,0.5,0.4,1.6-0.3,1.8c-0.6,0.2-5.5,0.6-7.6,1.4c-1.5,0.6-2.8,2.4-2.9,4.5c-0.1,1.9,0.8,3.8,2.6,4.9
				c2.9,1.7,7.1,2.4,12,2.9c0,0,9,9,27,17.4c3.4-9.8,6.7-19.9,9.2-30.5C145,198.5,143,196.9,141.1,195.2z"/>
		</g>
		<g>
			<g>
				<path class="st3" d="M367.9,258.6c0,0-8.5,4.4-16.4,20c-10,19.6-30.6,27.7-52.8,26.3c-29.4-1.9-42.1-8.8-42.1-8.8l2.1-14.3
					l3.6-0.6c0.4-0.2,0.7-0.4,1.1-0.6c4.7-2.8,8.5-7.2,11.3-11.9c4.7-7.8,5.9-16.9,9.5-25.2c2.6-5.8,5.9-11.3,9.8-16.4
					c9.2-11.9,22.3-22.8,37.6-25.1c2.5-0.4,4.9-0.7,7.4-1l5.1,12.5l15.9,13.8l-7.1,19.5L367.9,258.6"/>
			</g>
			<g>
				<path class="st4" d="M408.6,234.9c-0.5-5.3-4-11.4-17.8-21.6c-15.4-11.3-32.1-13.8-52.1-12.3l-2.8,16.9l16.1,10.9l-3.5,19.4
					l19.2,10.5c20.9-12.7,33.1-15.6,36.7-16.7C409.4,240.3,408.6,234.9,408.6,234.9z"/>
			</g>
		</g>
		<g>
			<g>
				<path class="st2" d="M216.7,294.5l-30-0.5l-4.1,52c-11.2,3.2-12.2,10.9-11.9,18.8c0,1.3,1.1,2.3,2.3,2.3
					c4.4,0.1,18,0.5,38.6,0.9c2.6,0,4.8-2,4.9-4.7L216.7,294.5z"/>
			</g>
		</g>
		<g>
			<path class="st5" d="M275.8,297.3c1.4-0.7,2.2-2.2,2.5-3.7c0.1-0.8,0.2-1.5,0.1-2.3c-0.1-0.8-0.3-1.5-0.6-2.2
				c-0.1,0.8-0.1,1.5-0.2,2.2c-0.1,0.7-0.1,1.4-0.3,2.1c-0.1,0.7-0.3,1.3-0.6,2C276.5,296,276.2,296.6,275.8,297.3z"/>
		</g>
		<path class="st2" d="M288.7,246.8c-8.6-9.7-19.4-16-27-19.7c-3.9-1.9-8.8-3.6-13.3-4.5c-0.8-2.7-1.2-4.7-1.2-5.7l-24-0.4
			l-22.8-0.3c-0.1,3.9-10,24-14.5,35.2c-6.3,15.4-7.7,29.1-2.2,41.7c8.7,19.8,26,22.1,37.7,22.3c1.6,0,3.3,0,5.2-0.1l10,48.4
			c0.8,2.7,2.1,4.8,4.7,4.9c20.6,0.4,34.1,0.5,38.6,0.5c1.3,0,2.3-1,2.4-2.2c0.6-7.9-1.9-15.2-13.3-19.3L256.7,302l0.1,0
			c0,0,15.9,8.8,22.9-0.7c0,0,5-8.2-0.3-14.5c3.5-5.6,9.7-16.6,9.7-16.6C292.3,264.1,295.5,254.4,288.7,246.8z"/>
		<g>
			<g>
				<path class="st6" d="M198.9,216.7l0.4,2c6.6,11.5,36.2,13.3,49.5,5.4l-0.1-1.6"/>
			</g>
		</g>
		<g>
			<g>
				<path class="st6" d="M213.7,290.9l-0.4,0.1c-8.6,2.5-17.5,4.2-21.9,4.9c-1.5,0.2-2.8-0.9-2.8-2.4c0.3-7.6,1.6-17.2,2-20.3
					c0.1-0.6-0.1-1.3-0.5-1.8c-4.7-6.1-9.5-14.3-11.9-18.5c-0.8-1.4,0-3.1,1.5-3.5c4.4-1.1,13.1-3.1,21.1-4.7
					c0.6-0.1,1.1-0.4,1.4-0.9c2-2.6,9.4-11.8,15.7-17.2c1-0.9,2.5-0.7,3.4,0.3c5.2,6.4,10.8,16.9,12.3,19.8c0.3,0.5,0.7,0.9,1.2,1.1
					c7.6,3,15.7,6.6,19.9,8.5c1.4,0.7,1.9,2.5,0.9,3.7c-3.1,3.7-9.3,10.8-15,16c-0.5,0.4-0.8,1-0.8,1.7c-0.1,3.1-0.6,12.8-1.7,20.3
					c-0.2,1.5-1.8,2.4-3.2,1.9c-4.2-1.5-12.7-4.8-20.7-8.8L213.7,290.9z"/>
			</g>
		</g>
		<g>
			<g>
				<g>
					<g>
						<path class="st2" d="M216.1,72.5c0,0-26-34.2-61.3-50c-2.5-1.1-5.3,0.1-6.2,2.7c-4.4,13.5-14.4,55.4,10,106L216.1,72.5z"/>
					</g>
				</g>
				<g>
					<g>
						<path class="st7" d="M199.3,72.9c0,0-18.7-26.2-41.9-35.9c-0.6-0.2-1.2,0.1-1.4,0.7c-1.8,6.1-9.4,37,7.4,71.9L199.3,72.9z"/>
					</g>
				</g>
			</g>
			<g>
				<g>
					<g>
						<path class="st2" d="M266.3,78.2c0,0,33-27.4,71-34.9c2.7-0.5,5.1,1.3,5.4,4c1.3,14.2,1.5,57.2-33.7,101L266.3,78.2z"/>
					</g>
				</g>
				<g>
					<g>
						<path class="st7" d="M282.5,82.4c0,0,24.2-21.3,49-25.6c0.6-0.1,1.2,0.4,1.2,1c0.4,6.4,0.9,38.2-23.4,68.3L282.5,82.4z"/>
					</g>
				</g>
			</g>
			<g>
				<path class="st2" d="M320.1,182.9c-3.3-4.8-8.6-8.2-12.2-10.5c4.6-15.8,22.2-92.8-65.2-103.1l-0.4-0.1c-0.1,0-0.3,0-0.4,0
					c-0.1,0-0.3,0-0.4,0l-0.4,0c-87.5-9.7-87.7,69.2-86.8,85.7c-4,1.5-10,3.5-14.2,7.5c0,0,2.7,7.2,8.1,14.3c0,0-2.5,4.4-2.2,12.4
					c0,0,4,4.5,18.8,8.5c5.1,8.3,31.5,24.3,59.3,27.5c27.8,3.1,57.2-6.5,64-13.4c15.2-0.5,20.2-4,20.2-4c2.1-7.8,0.7-12.6,0.7-12.6
					C315.8,189.3,320.1,182.9,320.1,182.9z"/>
			</g>
			<g>
				<g>
					<g>
						<path class="st6" d="M262.7,73.4c-1.1,2.6-10.8,3.7-21.6,2.5c-10.9-1.3-20.3-4.3-20.7-7.5l0,0l-3.2-28.7
							c-0.1-0.8,0.8-1.3,1.4-0.8l14.5,11L245,36.5c0.4-0.5,1.2-0.4,1.5,0.2l8.7,15.8l16.1-7.4c0.7-0.3,1.5,0.4,1.2,1.1L262.7,73.4z"
							/>
					</g>
				</g>
			</g>
			<g>
				<g>
					<g>
						<path class="st8" d="M241,176.3c-0.5,4.3-4.9,8.3-12.1,7.5s-10.7-5.7-10.2-10c0.5-4.7,5.8-6.5,11.9-5.8
							C236.8,168.7,241.5,171.3,241,176.3z"/>
					</g>
				</g>
				<g>
					<g>
						<g>
							<path class="st9" d="M212.5,156.3c0.6-5.2-0.1-10.3-2.4-14.9c-3-6.1-8.4-10.1-16.5-10.9c-6.6-0.7-13.4,1.6-18.3,7.2
								c-3.8,4.4-5.6,8.5-6.2,13.4c-1.3,9.3,0.7,13.5,3.4,17.4c3.5,5.1,9,7.5,15.4,8.4c4,0.6,7.3,0.3,10-0.3c2.5-0.7,4.9-2,7.4-4.1
								c2.3-2,4.1-4.4,5.3-7.3C211.5,163,212.1,160,212.5,156.3"/>
						</g>
					</g>
					<g>
						<g>
							<g>
								<g>
									<g>
										<path class="st7" d="M212.5,158.9c0.7-6.4-0.6-13.2-4.6-18.4c-3.5-4.5-8.8-6.8-14.3-7.3c-6.6-0.7-13.4,1.7-18.3,7.2
											c-5.6,6.4-8.2,15.7-6.1,24.1c1.7,7,7.3,12.1,14.1,14.1c4.7,1.3,9.8,1.8,14.6,0.6c2.5-0.7,5-2,7.4-4.1
											c2.3-2,4.1-4.4,5.3-7.3C211.4,165.6,212.1,162.6,212.5,158.9"/>
									</g>
								</g>
								<g>
									<g>
										<path d="M209.3,146.4c-6-8.2-18.3-9.4-25.9-2.9c-8.9,7.6-10.2,23.9,0.3,30.8c4.9,3.2,11.8,4.4,17.4,2.4
											c5.3-1.8,9-6.5,10.4-11.7C213.1,158.9,213.2,151.7,209.3,146.4z"/>
									</g>
								</g>
							</g>
						</g>
						<g>
							<g>
								
									<ellipse transform="matrix(0.1083 -0.9941 0.9941 0.1083 21.4507 314.2985)" class="st7" cx="185.9" cy="145.2" rx="3.9" ry="4"/>
							</g>
						</g>
					</g>
				</g>
				<g>
					<g>
						<g>
							<path class="st9" d="M251,160.5c0.6-5.2,2.3-10,5.6-14c4.3-5.3,10.4-8,18.5-7.1c6.6,0.8,12.7,4.5,16.3,10.9
								c2.8,5.1,3.6,9.5,3.2,14.4c-0.7,9.3-3.6,13-7.1,16.3c-4.6,4.2-10.4,5.4-16.9,4.9c-4-0.3-7.3-1.2-9.7-2.5
								c-2.3-1.2-4.4-3.1-6.4-5.6c-1.9-2.4-3-5.2-3.6-8.2C250.5,167.3,250.5,164.2,251,160.5"/>
						</g>
					</g>
					<g>
						<g>
							<g>
								<g>
									<g>
										<path class="st7" d="M250.4,163c0.7-6.3,3.3-12.4,8.1-16.6c4.4-3.8,10.2-5,15.9-4.4c6.6,0.8,12.8,4.5,16.3,11
											c4.1,7.5,4.6,17.1,0.8,24.9c-3.1,6.4-9.6,10.2-16.5,10.7c-4.9,0.4-10.2-0.3-14.6-2.5c-2.3-1.2-4.4-3.1-6.4-5.6
											c-1.9-2.4-3.1-5.2-3.6-8.3C250,169.8,250,166.7,250.4,163"/>
									</g>
								</g>
								<g>
									<g>
										<path d="M256.2,151.6c7.7-6.7,19.9-5.2,25.9,2.8c7.1,9.4,4.7,25.7-7.1,30.1c-5.5,2-12.5,1.6-17.5-1.6
											c-4.8-3-7.3-8.4-7.5-14C249.9,162.7,251.3,155.8,256.2,151.6z"/>
									</g>
								</g>
							</g>
						</g>
						<g>
							<g>
								<path class="st7" d="M254.1,152.3c-1.1,1.8,0.9,4.2,3.1,4.6c2.2,0.5,4.3-0.8,4.8-2.9s-0.9-4.2-3.1-4.6
									C256.7,148.9,255.4,150.2,254.1,152.3z"/>
							</g>
						</g>
					</g>
				</g>
			</g>
			<g>
				<g>
					<g>
						<path d="M195.1,95.1c4.6,0.2,7.7,2.7,9.7,6.5c0.6,1.2,0,2.6-1.3,3l-0.2,0.1c-1,0.3-2.1-0.1-2.6-1.1c-1.2-2.1-3.1-3.6-5.8-3.7
							c-2.6-0.1-4.6,1.2-5.9,3.3c-0.6,0.9-1.7,1.4-2.7,1l-0.4-0.2c-1.3-0.5-1.8-2-1.1-3.2C187,97.2,190.6,95,195.1,95.1z"/>
					</g>
				</g>
				<g>
					<g>
						<path d="M281.8,104.8c-4.5-0.9-8.2,0.8-10.9,4c-0.9,1-0.6,2.5,0.5,3.2l0.2,0.1c0.9,0.6,2.1,0.4,2.8-0.4
							c1.7-1.8,3.9-2.8,6.5-2.2c2.6,0.5,4.2,2.3,5,4.6c0.3,1,1.3,1.7,2.4,1.6l0.5-0.1c1.4-0.2,2.2-1.6,1.8-2.9
							C289.2,108.7,286.3,105.7,281.8,104.8z"/>
					</g>
				</g>
			</g>
			<g>
				<g>
					<g>
						<path class="st10" d="M246.4,193.3c-0.9-1.9-3.4-1.9-5.2-1.7l0,0c-4.5,0.5-12-0.2-13.3-0.3c-1.3-0.1-8.8-1.2-13.1-2.7l0,0
							c-1.6-0.6-4.2-1.2-5.4,0.5c-0.8,1.1-0.8,3-0.8,4.3c-0.1,5,1.6,10.3,5.1,14c7.6,7.8,22.1,7.4,28.7-1.3c1.7-2.3,2.9-4.9,3.6-7.6
							C246.4,197.1,247.1,194.7,246.4,193.3z"/>
					</g>
				</g>
				<g>
					<g>
						<path class="st11" d="M226.9,200.7c-6.1-0.7-11.8,0.3-16.1,2.4c5.2,11.6,23.3,13.3,31.3,3.5
							C238.4,203.6,233,201.4,226.9,200.7z"/>
					</g>
				</g>
			</g>
		</g>
		<g>
			<path class="st3" d="M278.9,296.1c-0.1,0-0.1,0-0.2,0c-0.5-0.1-0.9-0.6-0.8-1.1c0.4-2.7-0.3-4.6-0.3-4.6
				c-0.1-0.3-0.1-0.7,0.1-0.9l2.7-4c0.3-0.4,0.9-0.6,1.4-0.3c0.5,0.3,0.6,0.9,0.3,1.4l-2.4,3.6c0.2,0.9,0.6,2.7,0.2,5.1
				C279.9,295.7,279.4,296.1,278.9,296.1z"/>
		</g>
		<path class="st3" d="M257.4,304.7l-0.7-2.7l0.1,0c0,0,0.2,0.1,0.5,0.2c-1.8-1.1-3.2-2.3-4.1-3.6c-2.1-2.9-3-9.1-0.3-15.7
			c2.9-6.8,14.1-21.1,14.2-21.3c0.3-0.4,0.3-1-0.1-1.4l-6.5-5.8c-0.4-0.4-1-0.3-1.4,0.1c-0.4,0.4-0.3,1,0.1,1.4l5.8,5.2
			c-2.4,3.1-11.3,14.8-13.9,21c-3,7.3-1.9,14.2,0.5,17.6C252.8,301.7,254.9,303.3,257.4,304.7z"/>
	</g>
</g>
</svg>
