<svg xmlns="http://www.w3.org/2000/svg" viewBox="0 0 221.46 54.56"><defs><style>.cls-1{fill:#fff;}.cls-2{fill:#ff66af;}.cls-3{fill:#ffe600;}</style></defs><g id="Layer_2" data-name="Layer 2"><g id="Graphic"><path class="cls-1" d="M208.32,11.51h-3.16a5.18,5.18,0,0,0-1.84.34,10.12,10.12,0,0,0-4.39-1,12.46,12.46,0,0,0-10.77,6.24,12.44,12.44,0,0,0-10.77-6.24,10,10,0,0,0-4.4,1,5.31,5.31,0,0,0-1.83-.35H168A3.06,3.06,0,0,0,165,14.57v0a12.41,12.41,0,0,0-16.82-.92V8.36a3.05,3.05,0,0,0-3-3.06h-4.15a9.54,9.54,0,0,0-9.51,9.46v.05h-.1a3.05,3.05,0,0,0-1,.18,5.36,5.36,0,0,0-1-1.48L127,11.3a3.05,3.05,0,0,0-2.14-.87h0a3,3,0,0,0-2.15.92L121.05,13V10.51a5.22,5.22,0,0,0-5.2-5.21h-3.17a3.06,3.06,0,0,0-3.06,3.06v6.88a12.38,12.38,0,0,0-9.47-4.4,10,10,0,0,0-4.4,1,5.31,5.31,0,0,0-1.83-.35h-3.1A6.26,6.26,0,1,0,78.71,9.29a6.23,6.23,0,0,0,1.69,4.25,4.94,4.94,0,0,0-.73,1.26,12.39,12.39,0,0,0-9.08-4,10.08,10.08,0,0,0-4.38,1,5.27,5.27,0,0,0-1.85-.34H61.21a3.06,3.06,0,0,0-3.06,3.06V41.19a3.06,3.06,0,0,0,3.06,3.06h3.4a2.43,2.43,0,0,0,.38,0,5.26,5.26,0,0,0,4.57-4.74c0-.09,0-.18,0-.26V35.67a8.71,8.71,0,0,0,1,0,12.37,12.37,0,0,0,8.68-3.54v.49a3.06,3.06,0,0,0,3.06,3.06h3.4l.37,0a5.22,5.22,0,0,0,3.1-1.54,5.22,5.22,0,0,0,3.09,1.54,2.43,2.43,0,0,0,.38,0h16.87a3,3,0,0,0,1.57-.45,3,3,0,0,0,1.57.45H118a3.05,3.05,0,0,0,3-2.33,17.26,17.26,0,0,0,8,2.32h.3a3.4,3.4,0,0,0,2.66-1.35,3.05,3.05,0,0,0,2.54,1.36h3.17a5.2,5.2,0,0,0,5.19-5.2V26.22h.1a5.58,5.58,0,0,0,1-.1,12.41,12.41,0,0,0,21.17,5.66,5.25,5.25,0,0,0,4.43,3.92,2.31,2.31,0,0,0,.37,0h7.81a17,17,0,0,0-2.19,1.38A5.43,5.43,0,0,0,173.91,44a19.86,19.86,0,0,0,17.59,10.6h.3a20.18,20.18,0,0,0,19.57-20.3V14.57A3.05,3.05,0,0,0,208.32,11.51Z"/><path d="M156,13.9a9.39,9.39,0,1,0,9.39,9.38A9.39,9.39,0,0,0,156,13.9Zm0,13.46a4.08,4.08,0,1,1,4.08-4.08A4.08,4.08,0,0,1,156,27.36Z"/><path d="M140.93,13.66h4.15V8.36h-4.15a6.46,6.46,0,0,0-6.46,6.4h0v3.1h-3.15v5.31h3.15v9.5h3.17a2.14,2.14,0,0,0,2.14-2.14V23.17h3.15A2.16,2.16,0,0,0,145.08,21V17.86h-5.3v-3A1.16,1.16,0,0,1,140.93,13.66Z"/><path d="M70.59,13.89a7.14,7.14,0,0,0-4.46,1.6,2.15,2.15,0,0,0-1.77-.92H61.21V41.19h3.4a2.16,2.16,0,0,0,1.9-2V31.35a7.14,7.14,0,0,0,4.08,1.32A9.4,9.4,0,0,0,80,23.28h0A9.4,9.4,0,0,0,70.59,13.89Zm0,13.47a4.08,4.08,0,0,1-4.07-4.08h0a4.08,4.08,0,1,1,4.07,4.08Z"/><path d="M109.54,23.28a9.4,9.4,0,0,0-9.39-9.39,7.15,7.15,0,0,0-4.47,1.61,2.19,2.19,0,0,0-1.76-.93H90.76V30.7a2.17,2.17,0,0,0,1.91,2h3.4V23.28h0a4.08,4.08,0,0,1,8.15,0h0v7.24a2.15,2.15,0,0,0,2.15,2.15h3.16V23.28Z"/><path d="M123.38,24.8a9,9,0,0,1-1-1.17l4.78-4.89a2.16,2.16,0,0,0,0-3l-2.27-2.21-6.88,7v-10a2.15,2.15,0,0,0-2.15-2.15h-3.17V32.67H118V28.16l.67-.69a12.16,12.16,0,0,0,1,1.08,14,14,0,0,0,9.55,4.12h0a.4.4,0,0,0,.4-.41V27.38A8.75,8.75,0,0,1,123.38,24.8Z"/><path d="M87.63,30.7V14.57H84.47a2.19,2.19,0,0,0-2.15,2V32.67h3.41A2.17,2.17,0,0,0,87.63,30.7Z"/><circle cx="84.98" cy="9.29" r="3.21"/><path d="M205.16,14.57a2.13,2.13,0,0,0-1.76.92,7.16,7.16,0,0,0-4.47-1.59,9.4,9.4,0,0,0-9.39,9.38h0a9.4,9.4,0,0,0,9.39,9.39A7.07,7.07,0,0,0,203,31.36a6.93,6.93,0,0,1-4.75,6.25c-4.54,1.52-6.13-1.09-12.36-1a14.89,14.89,0,0,0-8.55,2.94,2.33,2.33,0,0,0-.71,3,16.79,16.79,0,0,0,15.14,9c9.26-.14,16.56-8,16.56-17.25V14.57ZM189,46.76l-1.72,1.84a14.44,14.44,0,0,1-8.08-6.22,1.1,1.1,0,0,1,.31-1.53,13,13,0,0,1,6.44-2h.32a17.06,17.06,0,0,1,3,.26l.92,2.37-2.63,2Zm14-23.48a4.07,4.07,0,1,1-4.07-4.07A4.08,4.08,0,0,1,203,23.28Z"/><path d="M186.78,23.28a9.4,9.4,0,0,0-9.39-9.39,7.2,7.2,0,0,0-4.47,1.61,2.19,2.19,0,0,0-1.76-.93H168V30.7a2.17,2.17,0,0,0,1.91,2h3.4V23.28h0a4.08,4.08,0,0,1,8.15,0h0v7.24a2.15,2.15,0,0,0,2.15,2.15h3.15V23.28Z"/><path class="cls-1" d="M215.31,15.34V12h-1.15v-.5H217V12h-1.14v3.33Z"/><path class="cls-1" d="M217.55,15.34V11.51h.83l1.11,3.06h0l1.13-3.06h.82v3.83h-.55V13.11c0-.19,0-.37,0-.56s0-.34,0-.46h0l-1.19,3.25h-.49l-1.18-3.25h0q0,.16,0,.45c0,.2,0,.4,0,.59v2.21Z"/><path class="cls-1" d="M48.09,31.05c0-.82.06-1.65,0-2.45a35.13,35.13,0,0,0,4-23.5A5.83,5.83,0,0,0,44.57.7a35.25,35.25,0,0,0-7.79,3.67,5.07,5.07,0,0,0-6.69-2.72,5.07,5.07,0,0,0-7.48,0,5.06,5.06,0,0,0-6.78,2.7A35.22,35.22,0,0,0,8.09.7,5.84,5.84,0,0,0,.58,5.1a35.25,35.25,0,0,0,4,23.5c0,.8,0,1.63,0,2.45-.21.16-.41.34-.61.52a5.59,5.59,0,0,0-1,7c.27.45.56.89.87,1.31a11.51,11.51,0,0,0,.07,1.43,5.54,5.54,0,0,0,2.72,4.21A14,14,0,0,0,10.81,47a27.78,27.78,0,0,0,31,0A14.14,14.14,0,0,0,46,45.48a5.59,5.59,0,0,0,2.72-4.2,14.16,14.16,0,0,0,.07-1.44c.3-.43.6-.87.87-1.32a5.56,5.56,0,0,0-1-7A7.91,7.91,0,0,0,48.09,31.05Z"/><path class="cls-2" d="M42.9,33.59a25.37,25.37,0,0,0,.26-6.15C48.92,17.65,47.87,9,47.28,6.1A1,1,0,0,0,46,5.37c-6,1.9-11.06,6.14-13.2,8.11a2.51,2.51,0,0,1,.83,1h0a18.8,18.8,0,0,0-7.33-1.26A18.85,18.85,0,0,0,19,14.5h0a2.59,2.59,0,0,1,.83-1c-2.14-2-7.23-6.21-13.2-8.11a1,1,0,0,0-1.24.73C4.78,9,3.73,17.65,9.49,27.44a25.91,25.91,0,0,0,.26,6.15,10.78,10.78,0,0,0-2.48,1.56.67.67,0,0,0-.1.84A13.4,13.4,0,0,0,9,38.37a5.25,5.25,0,0,0-.2,2.37.69.69,0,0,0,.33.52A11.3,11.3,0,0,0,13,42.41c1.19,1.52,7.27,4.42,13.3,4.42s12.11-2.9,13.3-4.42a11.22,11.22,0,0,0,3.91-1.15.66.66,0,0,0,.33-.52,5.25,5.25,0,0,0-.2-2.37A13.56,13.56,0,0,0,45.49,36a.68.68,0,0,0-.11-.84A10.38,10.38,0,0,0,42.9,33.59Z"/><path class="cls-3" d="M26.32,11.86h.17a19.28,19.28,0,0,1,4.36.54l1.43-6A.19.19,0,0,0,32,6.16l-3.25,2L26.51,5a.2.2,0,0,0-.32,0L24,8.09l-3.37-2a.19.19,0,0,0-.29.21l1.43,6.11a19.53,19.53,0,0,1,4.4-.57Z"/><path d="M45.22,32.41a27.06,27.06,0,0,0,.12-4.47C51,17.88,50.07,9,49.38,5.66A3.09,3.09,0,0,0,47.91,3.6a3.15,3.15,0,0,0-2.51-.28A37.47,37.47,0,0,0,33.61,10l.74-3.15a2.32,2.32,0,0,0-3.46-2.53l-1.56.95L28.25,3.73a2.35,2.35,0,0,0-1.9-1h0a2.32,2.32,0,0,0-1.89,1L23.38,5.25l-1.68-1a2.32,2.32,0,0,0-3.44,2.53L19,10A37.37,37.37,0,0,0,7.25,3.32a3.15,3.15,0,0,0-2.51.28A3.08,3.08,0,0,0,3.28,5.66c-.7,3.37-1.66,12.22,4,22.28a27.06,27.06,0,0,0,.12,4.47,9.45,9.45,0,0,0-1.61,1.18,2.81,2.81,0,0,0-.49,3.51A16.3,16.3,0,0,0,6.66,39a8.77,8.77,0,0,0,0,2A2.84,2.84,0,0,0,8,43.11a12.19,12.19,0,0,0,4,1.3C14.37,46.47,20.36,49,26.33,49s12-2.5,14.32-4.56a12.1,12.1,0,0,0,4-1.3A2.82,2.82,0,0,0,46,41a8.23,8.23,0,0,0,0-2,15.15,15.15,0,0,0,1.33-1.88,2.81,2.81,0,0,0-.48-3.51A9.51,9.51,0,0,0,45.22,32.41ZM20.62,6.11l3.37,2L26.19,5a.2.2,0,0,1,.32,0l2.23,3.15,3.25-2a.19.19,0,0,1,.29.21l-1.43,6a19.28,19.28,0,0,0-4.36-.54h-.33a19.53,19.53,0,0,0-4.4.57L20.33,6.32A.19.19,0,0,1,20.62,6.11ZM45.49,36a13.56,13.56,0,0,1-1.82,2.38,5.25,5.25,0,0,1,.2,2.37.66.66,0,0,1-.33.52,11.22,11.22,0,0,1-3.91,1.15c-1.19,1.52-7.28,4.42-13.3,4.42S14.22,43.93,13,42.41a11.3,11.3,0,0,1-3.92-1.15.69.69,0,0,1-.33-.52A5.25,5.25,0,0,1,9,38.37,13.4,13.4,0,0,1,7.17,36a.67.67,0,0,1,.1-.84,10.78,10.78,0,0,1,2.48-1.56,25.91,25.91,0,0,1-.26-6.15C3.73,17.65,4.78,9,5.38,6.1a1,1,0,0,1,1.24-.73c6,1.9,11.06,6.14,13.2,8.11a2.59,2.59,0,0,0-.83,1h0a18.85,18.85,0,0,1,7.34-1.26,18.8,18.8,0,0,1,7.33,1.26h0a2.51,2.51,0,0,0-.83-1c2.14-2,7.23-6.21,13.2-8.11a1,1,0,0,1,1.25.73c.59,2.89,1.64,11.55-4.12,21.34a25.37,25.37,0,0,1-.26,6.15,10.38,10.38,0,0,1,2.48,1.56A.68.68,0,0,1,45.49,36Z"/><path d="M28.74,35.44c0,.92-.85,1.89-2.4,1.9s-2.41-1-2.41-1.88,1.07-1.52,2.4-1.52S28.74,34.36,28.74,35.44Z"/><circle class="cls-1" cx="35.25" cy="32.99" r="4.73"/><path d="M34.44,29.43a3.83,3.83,0,0,0-2.57,1,.83.83,0,0,1-.06,1.65.82.82,0,0,1-.79-.58,3.88,3.88,0,1,0,3.42-2.05Z"/><circle class="cls-1" cx="17.69" cy="32.99" r="4.73"/><path d="M18.48,29.43a3.83,3.83,0,0,0-2.57,1,.83.83,0,0,1-.06,1.65.82.82,0,0,1-.79-.58,3.88,3.88,0,1,0,3.42-2.05Z"/><path d="M30.1,39.72c-.22-.36-.73-.32-1.08-.24h0a15.23,15.23,0,0,1-2.71.22,16.19,16.19,0,0,1-2.72-.26h0c-.35-.09-.88-.15-1.09.21a1.65,1.65,0,0,0-.08.88,4.09,4.09,0,0,0,1.34,2.74,4,4,0,0,0,5.81-.88,4.35,4.35,0,0,0,.57-1.63A1.75,1.75,0,0,0,30.1,39.72Z"/><path class="cls-1" d="M42,22.16l.14-.27A21.65,21.65,0,0,0,44.7,10.37.66.66,0,0,0,44,9.74a.94.94,0,0,0-.27,0,27.62,27.62,0,0,0-7.49,5.46l-.12.12A12.82,12.82,0,0,1,42,22.16Z"/><path class="cls-1" d="M10.66,22.16l-.14-.27A21.65,21.65,0,0,1,8,10.37a.66.66,0,0,1,.68-.63,1,1,0,0,1,.27,0,27.79,27.79,0,0,1,7.49,5.46l.12.12A12.82,12.82,0,0,0,10.66,22.16Z"/><path d="M15.16,22.11a.64.64,0,0,1-.38-.86,2.59,2.59,0,0,1,2-1.52,2.47,2.47,0,0,1,2.51,1.05.66.66,0,1,1-1,.82,1.25,1.25,0,0,0-2.18.15A.66.66,0,0,1,15.16,22.11Z"/><path d="M37.51,22.11a.65.65,0,0,0,.38-.86,2.59,2.59,0,0,0-2-1.52,2.49,2.49,0,0,0-2.52,1.05.65.65,0,0,0,0,.94.64.64,0,0,0,1-.12,1.26,1.26,0,0,1,2.19.15A.65.65,0,0,0,37.51,22.11Z"/></g></g></svg>