<svg xmlns="http://www.w3.org/2000/svg" viewBox="0 0 130.7 121.23"><defs><style>.cls-1{fill:#fff;}.cls-2{fill:#ff66af;}.cls-3{fill:#ffe600;}</style></defs><g id="Layer_2" data-name="Layer 2"><g id="Graphic"><path class="cls-1" d="M94.38,48.94a49.81,49.81,0,0,0,.1-5.32c9.18-16.69,7.55-31.36,6.4-36.95a7.42,7.42,0,0,0-3.54-5A7.52,7.52,0,0,0,91.28,1,57.66,57.66,0,0,0,76.86,8.23,6.23,6.23,0,0,0,67.39,2.9l-.51.3-.4-.57a6.24,6.24,0,0,0-10.18,0l-.41.58-.72-.43a6.23,6.23,0,0,0-9.4,5.41A57.61,57.61,0,0,0,31.42,1a7.47,7.47,0,0,0-9.61,5.63C20.67,12.26,19,26.94,28.22,43.62a49.91,49.91,0,0,0,.1,5.32,17.32,17.32,0,0,0-1.66,1.34,7,7,0,0,0-1.23,8.78,28.19,28.19,0,0,0,1.7,2.5,17.68,17.68,0,0,0,.08,2.71,7.07,7.07,0,0,0,3.43,5.32,21.51,21.51,0,0,0,6.56,2.27c4.68,3.72,14.45,7.5,24.15,7.5s19.46-3.78,24.15-7.5a21.34,21.34,0,0,0,6.55-2.27,7.06,7.06,0,0,0,3.44-5.32,17.68,17.68,0,0,0,.08-2.71c.6-.8,1.17-1.64,1.7-2.5A7,7,0,0,0,96,50.27,18.93,18.93,0,0,0,94.38,48.94Z"/><path class="cls-1" d="M120.19,86.78h-2.53a4.13,4.13,0,0,0-1.48.27,8.06,8.06,0,0,0-3.51-.81,10,10,0,0,0-8.62,5,9.94,9.94,0,0,0-8.62-5,8,8,0,0,0-3.52.82,4,4,0,0,0-1.46-.28H87.92a2.44,2.44,0,0,0-2.44,2.44v0A9.94,9.94,0,0,0,72,88.52V84.25a2.45,2.45,0,0,0-2.45-2.45H66.25a7.64,7.64,0,0,0-7.61,7.58v0h-.08a2.37,2.37,0,0,0-.8.15,4.2,4.2,0,0,0-.83-1.18l-1.81-1.77a2.44,2.44,0,0,0-1.71-.7h0a2.42,2.42,0,0,0-1.72.74L50.34,88V86a4.17,4.17,0,0,0-4.17-4.17H43.64a2.45,2.45,0,0,0-2.44,2.45v5.51a10,10,0,0,0-7.59-3.52,8,8,0,0,0-3.52.82,4,4,0,0,0-1.46-.28H26.14A4.87,4.87,0,0,0,26.49,85a5,5,0,1,0-8.69,3.4,4.15,4.15,0,0,0-.58,1A9.93,9.93,0,0,0,10,86.24a8,8,0,0,0-3.51.81A4.13,4.13,0,0,0,5,86.78H2.44A2.44,2.44,0,0,0,0,89.22v21.31A2.44,2.44,0,0,0,2.44,113H5.17a1.51,1.51,0,0,0,.3,0,4.21,4.21,0,0,0,3.66-3.79c0-.07,0-.14,0-.21v-2.84a7.38,7.38,0,0,0,.82,0,9.9,9.9,0,0,0,6.94-2.83v.39a2.45,2.45,0,0,0,2.45,2.44h3a4.24,4.24,0,0,0,2.48-1.24,4.18,4.18,0,0,0,2.48,1.24h13.8a2.4,2.4,0,0,0,1.25-.35,2.46,2.46,0,0,0,1.26.35H47.9a2.45,2.45,0,0,0,2.37-1.85,14,14,0,0,0,6.41,1.85h.24a2.74,2.74,0,0,0,2.13-1.08,2.44,2.44,0,0,0,2,1.08h2.54A4.15,4.15,0,0,0,67.77,102V98.55h.08a4.28,4.28,0,0,0,.81-.08A9.94,9.94,0,0,0,85.6,103a4.21,4.21,0,0,0,3.55,3.14H95.7a15.5,15.5,0,0,0-1.76,1.11,4.34,4.34,0,0,0-1.29,5.48,15.9,15.9,0,0,0,14.07,8.49H107A16.15,16.15,0,0,0,122.63,105V89.22A2.44,2.44,0,0,0,120.19,86.78Z"/><path d="M78.35,88.68a7.52,7.52,0,1,0,7.51,7.52A7.52,7.52,0,0,0,78.35,88.68Zm0,10.78a3.26,3.26,0,1,1,3.26-3.26A3.27,3.27,0,0,1,78.35,99.46Z"/><path d="M66.25,88.5h3.32V84.25H66.25a5.17,5.17,0,0,0-5.17,5.13h0v2.48H58.56V96.1h2.52v7.61h2.54A1.72,1.72,0,0,0,65.33,102V96.1h2.52a1.72,1.72,0,0,0,1.72-1.72V91.86H65.33V89.41A.92.92,0,0,1,66.25,88.5Z"/><path d="M10,88.68A5.72,5.72,0,0,0,6.38,90,1.7,1.7,0,0,0,5,89.22H2.44v21.31H5.17A1.75,1.75,0,0,0,6.69,109v-6.3A5.67,5.67,0,0,0,10,103.71a7.52,7.52,0,0,0,7.51-7.51h0A7.52,7.52,0,0,0,10,88.68Zm0,10.78A3.27,3.27,0,0,1,6.7,96.2h0A3.26,3.26,0,1,1,10,99.46Z"/><path d="M41.13,96.2a7.52,7.52,0,0,0-7.52-7.52A5.75,5.75,0,0,0,30,90a1.73,1.73,0,0,0-1.4-.75H26.1v12.91a1.75,1.75,0,0,0,1.52,1.58h2.73V96.2h0a3.26,3.26,0,1,1,6.52,0h0V102a1.72,1.72,0,0,0,1.72,1.72h2.53V96.2Z"/><path d="M52.2,97.41a7.45,7.45,0,0,1-.77-.93l3.82-3.92a1.72,1.72,0,0,0,0-2.43l-1.81-1.77L47.9,94V86a1.73,1.73,0,0,0-1.73-1.72H43.64v19.46H47.9V100.1l.53-.56a10.63,10.63,0,0,0,.77.87,11.25,11.25,0,0,0,7.64,3.3h0a.33.33,0,0,0,.33-.33V99.47A7,7,0,0,1,52.2,97.41Z"/><path d="M23.59,102.13V89.22H21.06a1.74,1.74,0,0,0-1.71,1.64v12.85h2.72A1.75,1.75,0,0,0,23.59,102.13Z"/><circle cx="21.47" cy="85" r="2.57"/><path d="M117.66,89.22a1.7,1.7,0,0,0-1.41.74,5.72,5.72,0,0,0-3.58-1.28,7.52,7.52,0,0,0-7.51,7.52h0a7.52,7.52,0,0,0,7.51,7.51,5.67,5.67,0,0,0,3.25-1,5.55,5.55,0,0,1-3.8,5c-3.64,1.22-4.91-.87-9.89-.79a11.93,11.93,0,0,0-6.84,2.36,1.87,1.87,0,0,0-.58,2.37,13.47,13.47,0,0,0,12.12,7.18A13.68,13.68,0,0,0,120.18,105V89.22ZM104.7,115l-1.37,1.48a11.59,11.59,0,0,1-6.47-5,.87.87,0,0,1,.25-1.23,10.39,10.39,0,0,1,5.15-1.55h.25a13.73,13.73,0,0,1,2.4.21l.73,1.9-2.1,1.61ZM115.93,96.2a3.26,3.26,0,1,1-3.26-3.26,3.27,3.27,0,0,1,3.26,3.26Z"/><path d="M103,96.2a7.52,7.52,0,0,0-7.52-7.52A5.77,5.77,0,0,0,91.85,90a1.73,1.73,0,0,0-1.4-.75H87.92v12.91a1.75,1.75,0,0,0,1.52,1.58h2.73V96.2h0a3.26,3.26,0,1,1,6.52,0h0V102a1.72,1.72,0,0,0,1.72,1.72H103V96.2Z"/><path class="cls-1" d="M104.7,115l-1.37,1.48a11.59,11.59,0,0,1-6.47-5,.87.87,0,0,1,.25-1.23,10.39,10.39,0,0,1,5.14-1.55h.26a13.73,13.73,0,0,1,2.4.21l.73,1.9-2.1,1.61Z"/><path class="cls-1" d="M125.78,89.84V87.17h-.92v-.4h2.3v.4h-.92v2.67Z"/><path class="cls-1" d="M127.57,89.84V86.77h.67l.89,2.45h0l.9-2.45h.66v3.07h-.44V88.05c0-.15,0-.29,0-.45s0-.27,0-.36h0l-1,2.6h-.4l-.94-2.6h0c0,.09,0,.21,0,.36s0,.31,0,.47v1.77Z"/><path class="cls-2" d="M88,52.12a40.73,40.73,0,0,0,.43-9.9C97.7,26.47,96,12.54,95.06,7.89a1.54,1.54,0,0,0-2-1.18C83.44,9.77,75.26,16.6,71.82,19.77a4.11,4.11,0,0,1,1.33,1.63h0a30,30,0,0,0-11.8-2,30,30,0,0,0-11.8,2h0a4.11,4.11,0,0,1,1.33-1.63c-3.44-3.17-11.62-10-21.23-13.06a1.54,1.54,0,0,0-2,1.18c-.95,4.65-2.64,18.58,6.62,34.33a40.73,40.73,0,0,0,.43,9.9,16.63,16.63,0,0,0-4,2.5A1.09,1.09,0,0,0,30.52,56a22,22,0,0,0,2.93,3.82,8.33,8.33,0,0,0-.33,3.82,1.11,1.11,0,0,0,.53.83A18,18,0,0,0,40,66.31c1.91,2.44,11.7,7.1,21.4,7.1s19.48-4.66,21.4-7.1a18,18,0,0,0,6.3-1.86,1.11,1.11,0,0,0,.53-.83,8.33,8.33,0,0,0-.33-3.82A22,22,0,0,0,92.18,56,1.09,1.09,0,0,0,92,54.62,16.63,16.63,0,0,0,88,52.12Z"/><path class="cls-3" d="M61.34,17.16h.27a29.85,29.85,0,0,1,7,.87l2.3-9.71A.31.31,0,0,0,70.46,8l-5.23,3.17L61.64,6.08a.32.32,0,0,0-.51,0l-3.55,5L52.17,7.91a.31.31,0,0,0-.46.34L54,18.08a30.2,30.2,0,0,1,7.07-.92Z"/><path d="M91.75,50.22a44.84,44.84,0,0,0,.19-7.2c9.16-16.18,7.61-30.41,6.49-35.84A5,5,0,0,0,92,3.42c-7.68,2.45-14.4,7-19,10.74l1.2-5.07A3.74,3.74,0,0,0,68.68,5L66.19,6.55,64.44,4.08a3.74,3.74,0,0,0-3-1.58h0a3.74,3.74,0,0,0-3,1.58L56.61,6.53,53.9,4.93A3.75,3.75,0,0,0,48.36,9l1.19,5.08C45,10.39,38.3,5.85,30.67,3.42a5,5,0,0,0-6.41,3.76C23.15,12.61,21.6,26.84,30.75,43a44.7,44.7,0,0,0,.2,7.2,15.69,15.69,0,0,0-2.6,1.89,4.54,4.54,0,0,0-.78,5.66,25.27,25.27,0,0,0,2.14,3,13.68,13.68,0,0,0,0,3.22,4.51,4.51,0,0,0,2.21,3.42,19.56,19.56,0,0,0,6.39,2.1c3.81,3.31,13.44,7.33,23.05,7.33s19.24-4,23.05-7.33a19.56,19.56,0,0,0,6.39-2.1A4.51,4.51,0,0,0,93,64a13.6,13.6,0,0,0,0-3.21,26.11,26.11,0,0,0,2.14-3,4.54,4.54,0,0,0-.78-5.66A15.69,15.69,0,0,0,91.75,50.22ZM52.17,7.91l5.41,3.19,3.55-5a.32.32,0,0,1,.51,0l3.59,5.07L70.46,8a.31.31,0,0,1,.46.34L68.62,18a29.85,29.85,0,0,0-7-.87h-.53a30.2,30.2,0,0,0-7.07.92l-2.3-9.83A.31.31,0,0,1,52.17,7.91ZM92.18,56a22,22,0,0,1-2.93,3.82,8.33,8.33,0,0,1,.33,3.82,1.11,1.11,0,0,1-.53.83,18,18,0,0,1-6.3,1.86c-1.92,2.44-11.7,7.1-21.4,7.1S41.86,68.75,40,66.31a18,18,0,0,1-6.3-1.86,1.11,1.11,0,0,1-.53-.83,8.33,8.33,0,0,1,.33-3.82A22,22,0,0,1,30.52,56a1.09,1.09,0,0,1,.18-1.36,16.63,16.63,0,0,1,4-2.5,40.73,40.73,0,0,1-.43-9.9C25,26.47,26.69,12.54,27.64,7.89a1.54,1.54,0,0,1,2-1.18c9.61,3.06,17.79,9.89,21.23,13.06a4.11,4.11,0,0,0-1.33,1.63h0a30,30,0,0,1,11.8-2,30,30,0,0,1,11.8,2h0a4.11,4.11,0,0,0-1.33-1.63c3.44-3.17,11.62-10,21.23-13.06a1.54,1.54,0,0,1,2,1.18c1,4.65,2.64,18.58-6.62,34.33a40.73,40.73,0,0,1-.43,9.9,16.63,16.63,0,0,1,4,2.5A1.09,1.09,0,0,1,92.18,56Z"/><path d="M65.23,55.09c0,1.48-1.36,3-3.85,3s-3.88-1.53-3.89-3c0-1.65,1.72-2.44,3.86-2.45S65.22,53.35,65.23,55.09Z"/><circle class="cls-1" cx="75.71" cy="51.14" r="7.6"/><path d="M74.4,45.42A6.18,6.18,0,0,0,70.27,47a1.33,1.33,0,1,1-1.37,1.72,6.24,6.24,0,1,0,5.5-3.3Z"/><circle class="cls-1" cx="47.46" cy="51.14" r="7.6"/><path d="M48.72,45.42A6.2,6.2,0,0,0,44.59,47a1.33,1.33,0,1,1-1.37,1.72,6.24,6.24,0,1,0,5.5-3.3Z"/><path d="M67.42,62c-.36-.58-1.17-.51-1.74-.37h0a27.17,27.17,0,0,1-4.35.35,26.32,26.32,0,0,1-4.38-.43h0c-.55-.14-1.41-.24-1.75.35a2.54,2.54,0,0,0-.12,1.42,6.53,6.53,0,0,0,2.15,4.4c2.73,2.3,7.49,1.68,9.35-1.42a6.94,6.94,0,0,0,.91-2.62A2.83,2.83,0,0,0,67.42,62Z"/><path class="cls-1" d="M86.58,33.72l.23-.43a35,35,0,0,0,4.1-18.54,1.09,1.09,0,0,0-1.09-1,1.42,1.42,0,0,0-.44.09c-5.82,2.59-11,7.75-12.06,8.77l-.18.2A20.62,20.62,0,0,1,86.58,33.72Z"/><path class="cls-1" d="M36.15,33.72l-.24-.43a34.88,34.88,0,0,1-4.09-18.54,1.08,1.08,0,0,1,1.08-1,1.42,1.42,0,0,1,.44.09c5.82,2.59,11,7.75,12.06,8.77l.18.2A20.56,20.56,0,0,0,36.15,33.72Z"/><path d="M43.38,33.65a1,1,0,0,1-.6-1.39,4.16,4.16,0,0,1,3.15-2.45,4,4,0,0,1,4,1.69,1.06,1.06,0,1,1-1.64,1.33,2,2,0,0,0-2.1-.87,2,2,0,0,0-1.41,1.11A1.07,1.07,0,0,1,43.38,33.65Z"/><path d="M79.35,33.65a1,1,0,0,0,.6-1.39,4.18,4.18,0,0,0-3.16-2.45,4,4,0,0,0-4,1.69,1.06,1.06,0,1,0,1.64,1.33,2,2,0,0,1,2.1-.87,2.07,2.07,0,0,1,1.42,1.11A1.06,1.06,0,0,0,79.35,33.65Z"/></g></g></svg>