<svg xmlns="http://www.w3.org/2000/svg" xmlns:xlink="http://www.w3.org/1999/xlink" width="671" height="543.208" viewBox="0 0 671 543.208">
  <defs>
    <clipPath id="clip-path">
      <path id="패스_6456" data-name="패스 6456" d="M716.972,251.6c25.321,5.816,48.381,18.985,63.814,41.208,15.8,22.718,22.2,54.915,17.761,81.244,0,0-3.521,40.1-40.618,56.39-16.592,7.288-25.934,12.989-48.7,8.111-7.776-1.668-15.529.613-29.537-2.013-12.24-2.295-18.529-8.207-26.039-9.366-21.014-3.245-31.327-13.1-44.053-26.443-27.958-29.325-15.8-67.693-15.8-67.693,6.043-26,24.35-53.252,47.682-68.134,22.8-14.564,49.154-17.834,74.762-13.449Z" transform="translate(-591.166 -249.646)" fill="#a5d024"/>
    </clipPath>
    <clipPath id="clip-path-2">
      <path id="패스_6487" data-name="패스 6487" d="M607.887,287s48.4,32.476,123.96,25c0,0-10.747,54.712-70.478,43.542C596.076,343.323,607.887,287,607.887,287Z" transform="translate(-607.054 -286.996)" fill="#ba0000"/>
    </clipPath>
    <clipPath id="clip-path-3">
      <path id="패스_6500" data-name="패스 6500" d="M618.832,250.787c24.992-1.357,49.854,4.7,70.056,21.168,20.677,16.832,35.175,44.941,38.073,70.5,0,0,7.278,36.621-22.734,61.582-8.108,6.743-10.637,10.131-20.795,13.561-9.544,3.226-5.278.893-15.709,4-11.627,3.467-19.051,6.132-29.623,7.275-17.529.971-26.524-2.219-45.131-2.02-11.8.125-23.961-4.975-34-10.849-33.7-19.709-32.513-57.027-32.513-57.027-1.326-25.689,8.374-55.792,26.015-75.783,17.234-19.555,40.767-29.6,65.644-32.353Z" transform="translate(-526.335 -250.602)" fill="#ffa52e"/>
    </clipPath>
    <clipPath id="clip-path-4">
      <path id="패스_6513" data-name="패스 6513" d="M543.446,298.986s50.746,14.689,115.114-10.47c0,0,4.542,47.924-50.7,53.693C547.466,348.516,543.446,298.986,543.446,298.986Z" transform="translate(-543.446 -288.516)" fill="#ba0000"/>
    </clipPath>
    <clipPath id="clip-path-5">
      <path id="패스_6542" data-name="패스 6542" d="M559.358,302.557c26.423-5.445,53.889-2.968,78.059,11.35,24.736,14.634,44.685,42.276,51.866,69.053,0,0,13.618,37.869-14.378,69.278-17.391,19.513-33.951,30.67-71.173,40.44-35.611,7.382-57.471,5.273-81.74-4.427-39.07-15.616-43.782-55.583-43.782-55.583-5.526-27.169-.005-60.807,15.6-84.94,15.239-23.6,38.715-38.073,64.793-44.993Z" transform="translate(-476.122 -299.892)" fill="#005cee"/>
    </clipPath>
    <clipPath id="clip-path-6">
      <path id="패스_6554" data-name="패스 6554" d="M492.668,369.723c17.39,57.917,71.7,46.468,79.662,44.45,8.027-1.749,61.885-17.124,51.6-76.717,0,0-22.5,16.156-63.3,25.582C517.128,373.088,492.668,369.723,492.668,369.723Z" transform="translate(-492.668 -337.456)" fill="#ba0000"/>
    </clipPath>
    <clipPath id="clip-path-7">
      <path id="패스_6574" data-name="패스 6574" d="M654.733,340.678c-9.661,50.188,35.692,62.95,42.477,64.568,6.727,1.843,52.626,12.47,68.3-36.18,0,0-22.611,2.276-57.011-6.7C671.813,352.8,654.733,340.678,654.733,340.678Z" transform="translate(-653.389 -340.678)" fill="#ba0000"/>
    </clipPath>
    <clipPath id="clip-path-8">
      <path id="패스_6651" data-name="패스 6651" d="M612.884,386.994c6.208,2.211,17.294,5.826,39.234,5.508,23.8-.345,37.994-5.889,37.994-5.889s4.192,35.562-38.047,35.481C608.6,422.01,612.884,386.994,612.884,386.994Z" transform="translate(-612.767 -386.613)" fill="#ba0000"/>
    </clipPath>
  </defs>
  <g id="상어가족" transform="translate(-465 -1263.885)">
    <g id="그룹_10507" data-name="그룹 10507" transform="translate(2.314 1026.749)">
      <g id="그룹_10344" data-name="그룹 10344" transform="translate(742.96 237.136)">
        <path id="패스_6446" data-name="패스 6446" d="M665.5,309.5c-23.126,9.865-31.228,50.224-20.377,65.255,8.494-.566,38.919-7.46,47.175-10.5a97.557,97.557,0,0,0,25.791-14.644c.5-.441.984-.859,1.438-1.248a70.187,70.187,0,0,0,16.926-19.074q7.683-12.064,8.058-24.475S702.855,315.075,665.5,309.5Z" transform="translate(-456.826 -128.153)" fill="#a5d024"/>
        <path id="패스_6447" data-name="패스 6447" d="M641.772,305.638c25.031-2.331,51.37,29.3,48.984,47.69-7.74,3.545-37.778,11.966-46.489,13.222a97.572,97.572,0,0,1-29.652-.6c-.653-.146-1.274-.287-1.858-.412a70.283,70.283,0,0,1-23.964-8.716q-12.5-6.954-18.74-17.688S611.572,328.328,641.772,305.638Z" transform="translate(-570.054 -127.017)" fill="#a5d024"/>
        <g id="그룹_10326" data-name="그룹 10326" transform="translate(191.392 281.44)">
          <g id="그룹_10324" data-name="그룹 10324">
            <path id="패스_6448" data-name="패스 6448" d="M669.083,433.386s-19.173-13.12-25.71-57.617c0,0,33.445-25.243,87.942-30.818,0,0-49.559,38.4-54.064,47.434C677.251,392.385,672.769,404.547,669.083,433.386Z" transform="translate(-643.373 -344.951)" fill="#99be41"/>
          </g>
          <g id="그룹_10325" data-name="그룹 10325">
            <path id="패스_6449" data-name="패스 6449" d="M669.083,433.386s-19.173-13.12-25.71-57.617c0,0,33.445-25.243,87.942-30.818,0,0-49.559,38.4-54.064,47.434C677.251,392.385,672.769,404.547,669.083,433.386Z" transform="translate(-643.373 -344.951)" fill="#a5d024"/>
          </g>
        </g>
        <path id="패스_6450" data-name="패스 6450" d="M597.012,292.142A276.3,276.3,0,0,0,601.69,361.7q7.052,35.237,22.82,60.491,36.932,59.039,108.971,49.039l1.154-11.274q-17.291-7.264-17.552-20.56-.165-10.142,10.964-30.965Q748.572,370,750.352,366.17q13.176-28.478,16.641-54.6Z" transform="translate(-527.364 -148.555)" fill="#a5d024"/>
        <path id="패스_6451" data-name="패스 6451" d="M682.265,406.77c-12.634-19.215,4.049-61.062,10.525-80.586L611.251,316.3c.407,37.966,4.539,64.469,21.755,84.126,16.5,18.831,34.118,25.277,59.243,26.663,1.6.089,4.069-1.015,4.6-3.143a4.558,4.558,0,0,0-2.313-5.534C692.142,417.175,687.551,414.826,682.265,406.77Z" transform="translate(-503.71 -109.652)" fill="#fff"/>
        <path id="패스_6452" data-name="패스 6452" d="M698.086,330.291c-12.634,8.761-22.833,2.088-32.051,3.553-8.9,1.415-16.2,2-30.484-6.291-12.021-6.983-16.691-1.843-25.653-11.822Z" transform="translate(-505.887 -110.569)" fill="#dde5d9"/>
        <g id="그룹_10343" data-name="그룹 10343" transform="translate(55.111)">
          <g id="그룹_10329" data-name="그룹 10329">
            <path id="패스_6453" data-name="패스 6453" d="M635.452,283.1l14.54,2.757a253.591,253.591,0,0,0,3.683-37.008c.206-6.027.381-11.329-1.441-11.692-2.054-.407-4.153,4.777-6.221,10.51A275.978,275.978,0,0,0,635.452,283.1Z" transform="translate(-519.847 -237.136)" fill="#9bc624"/>
            <g id="그룹_10328" data-name="그룹 10328" transform="translate(0 32.655)">
              <path id="패스_6454" data-name="패스 6454" d="M716.972,251.6c25.321,5.816,48.381,18.985,63.814,41.208,15.8,22.718,22.2,54.915,17.761,81.244,0,0-3.521,40.1-40.618,56.39-16.592,7.288-25.934,12.989-48.7,8.111-7.776-1.668-15.529.613-29.537-2.013-12.24-2.295-18.529-8.207-26.039-9.366-21.014-3.245-31.327-13.1-44.053-26.443-27.958-29.325-15.8-67.693-15.8-67.693,6.043-26,24.35-53.252,47.682-68.134,22.8-14.564,49.154-17.834,74.762-13.449Z" transform="translate(-591.166 -249.646)" fill="#a5d024"/>
              <g id="그룹_10327" data-name="그룹 10327" clip-path="url(#clip-path)">
                <path id="패스_6455" data-name="패스 6455" d="M815.279,337.053c-17.231-26-49.308-17.868-49.308-17.868-25.365,5.077-44.977,3.185-65.6-.882-22.5-4.8-40.185-9.951-62.06-24.689,0,0-26.467-19.857-52.383-2.5,0,0-1.2,78.26,97.874,101.563l-.016.07c.347.063.684.11,1.026.17.342.078.671.162,1.013.24l.016-.073C786.246,409.734,815.279,337.053,815.279,337.053Z" transform="translate(-599.605 -194.329)" fill="#fff"/>
              </g>
            </g>
          </g>
          <path id="패스_6457" data-name="패스 6457" d="M667.06,294.294l-3.349-1.778a56.984,56.984,0,0,0-6.6-2.916l.71-2.3a26.031,26.031,0,0,1,7.166,4.649Z" transform="translate(-484.966 -156.356)" fill="#67b02b"/>
          <path id="패스_6458" data-name="패스 6458" d="M660.48,293.128a29.2,29.2,0,0,0-4.55-3.587l2.026-.968a20.871,20.871,0,0,1,2.1,2.154,16.64,16.64,0,0,1,3.172,5.007Z" transform="translate(-486.87 -154.303)" fill="#67b02b"/>
          <path id="패스_6459" data-name="패스 6459" d="M604.205,281.128l3.774-.35a57.568,57.568,0,0,1,7.213-.149l.235-2.4a25.989,25.989,0,0,0-8.406,1.53Z" transform="translate(-570.168 -170.954)" fill="#67b02b"/>
          <path id="패스_6460" data-name="패스 6460" d="M609.26,282.856a29.128,29.128,0,0,1,5.581-1.556l-1.5-1.676a21.174,21.174,0,0,0-2.764,1.182,16.607,16.607,0,0,0-4.853,3.4Z" transform="translate(-567.715 -168.714)" fill="#67b02b"/>
          <g id="그룹_10337" data-name="그룹 10337" transform="translate(41.503 73.936)">
            <g id="그룹_10332" data-name="그룹 10332" transform="translate(57.295 48.342)">
              <g id="그룹_10330" data-name="그룹 10330">
                <path id="패스_6461" data-name="패스 6461" d="M630.114,284.232a2.312,2.312,0,0,0-1.076,1.854,4.2,4.2,0,0,0,.572,2.532,4.316,4.316,0,0,0,1.877,1.812,2.221,2.221,0,0,0,2.112.029,2.252,2.252,0,0,0,1.068-1.8,4.523,4.523,0,0,0-2.441-4.393A2.221,2.221,0,0,0,630.114,284.232Z" transform="translate(-629.014 -283.979)" fill="#44803d"/>
                <path id="패스_6462" data-name="패스 6462" d="M637.07,284.923a4.255,4.255,0,0,0-2.394,1.068,3.884,3.884,0,0,0-1.391,2.219,2.1,2.1,0,0,0,2.391,2.775,4.264,4.264,0,0,0,2.394-1.068,4.533,4.533,0,0,0,1.392-2.219,2.2,2.2,0,0,0-.387-2.088A2.138,2.138,0,0,0,637.07,284.923Z" transform="translate(-622.286 -282.501)" fill="#44803d"/>
              </g>
              <g id="그룹_10331" data-name="그룹 10331">
                <path id="패스_6463" data-name="패스 6463" d="M630.114,284.232a2.312,2.312,0,0,0-1.076,1.854,4.2,4.2,0,0,0,.572,2.532,4.316,4.316,0,0,0,1.877,1.812,2.221,2.221,0,0,0,2.112.029,2.252,2.252,0,0,0,1.068-1.8,4.523,4.523,0,0,0-2.441-4.393A2.221,2.221,0,0,0,630.114,284.232Z" transform="translate(-629.014 -283.979)" fill="#559123"/>
                <path id="패스_6464" data-name="패스 6464" d="M637.07,284.923a4.255,4.255,0,0,0-2.394,1.068,3.884,3.884,0,0,0-1.391,2.219,2.1,2.1,0,0,0,2.391,2.775,4.264,4.264,0,0,0,2.394-1.068,4.533,4.533,0,0,0,1.392-2.219,2.2,2.2,0,0,0-.387-2.088A2.138,2.138,0,0,0,637.07,284.923Z" transform="translate(-622.286 -282.501)" fill="#559123"/>
              </g>
            </g>
            <g id="그룹_10334" data-name="그룹 10334" transform="translate(88.088 17.4)">
              <g id="그룹_10333" data-name="그룹 10333" transform="translate(1.466)">
                <path id="패스_6465" data-name="패스 6465" d="M676.538,321.21c-12.535,7.1-27.237,2.663-32.839-9.917s-.859-28.647,11.679-35.75,27.276-2.8,32.876,9.776S689.075,314.11,676.538,321.21Z" transform="translate(-641.371 -272.125)" fill="#44803d"/>
                <path id="패스_6466" data-name="패스 6466" d="M682.339,286.833c-5.27-11.945-18.858-17.046-30.55-10.369a27.3,27.3,0,0,0-8.353,7.39c13.736,3.882,27.55,8.348,40.981,13.462A24.535,24.535,0,0,0,682.339,286.833Z" transform="translate(-638.047 -269.909)" fill="#dde5d9"/>
                <path id="패스_6467" data-name="패스 6467" d="M646.667,277.468a25.417,25.417,0,0,0-3.161,25.438c5.268,11.945,18.9,17.109,30.6,10.431a26.685,26.685,0,0,0,13.543-22.408C674.218,285.816,660.4,281.35,646.667,277.468Z" transform="translate(-641.278 -263.522)" fill="#fff"/>
              </g>
              <ellipse id="타원_200" data-name="타원 200" cx="18.03" cy="16.163" rx="18.03" ry="16.163" transform="translate(0 43.991) rotate(-84.132)" fill="#501e00"/>
            </g>
            <g id="그룹_10336" data-name="그룹 10336">
              <g id="그룹_10335" data-name="그룹 10335">
                <path id="패스_6468" data-name="패스 6468" d="M612.743,309.216c8.834,11.381,24.112,12.948,34.123,3.5s11.828-26.107,2.994-37.488-24.094-13.094-34.108-3.642S603.909,297.832,612.743,309.216Z" transform="translate(-607.065 -265.46)" fill="#44803d"/>
                <path id="패스_6469" data-name="패스 6469" d="M647.1,275.6c-8.22-10.666-22.721-11.193-32.186-2.2a24.628,24.628,0,0,0-6.735,11.2c14.514-3.185,29.025-.068,43.536.136A27.291,27.291,0,0,0,647.1,275.6Z" transform="translate(-605.271 -262.837)" fill="#dde5d9"/>
                <path id="패스_6470" data-name="패스 6470" d="M652.322,274.81c-14.511-.2-29.022-3.32-43.536-.136a26.783,26.783,0,0,0,4.646,23.572c8.22,10.669,22.792,11.154,32.257,2.161A25.471,25.471,0,0,0,652.322,274.81Z" transform="translate(-605.877 -252.917)" fill="#fff"/>
              </g>
              <ellipse id="타원_201" data-name="타원 201" cx="18.03" cy="16.163" rx="18.03" ry="16.163" transform="matrix(0.289, -0.957, 0.957, 0.289, 10.513, 43.681)" fill="#501e00"/>
              <path id="패스_6471" data-name="패스 6471" d="M616.332,273.134c-.125-.055-.258-.078-.389-.141a11.6,11.6,0,0,0-2.778,5.025c.084.042.128.094.211.141,1.981,1.029,4.242.741,5.067-.655C619.258,276.131,618.315,274.176,616.332,273.134Z" transform="translate(-597.241 -253.329)" fill="#fff"/>
              <path id="패스_6472" data-name="패스 6472" d="M644.957,278.51c-.125-.055-.258-.073-.392-.13a11.584,11.584,0,0,0-2.642,5.1c.086.039.13.089.217.133,2.007.976,4.26.626,5.046-.791C647.964,281.426,646.97,279.495,644.957,278.51Z" transform="translate(-550.928 -244.654)" fill="#fff"/>
            </g>
          </g>
          <g id="그룹_10338" data-name="그룹 10338" transform="translate(133.202 85.132)">
            <g id="Symbol_138_copy_3_1_Layer2_10_FILL" data-name="Symbol 138 copy 3 1 Layer2 10 FILL">
              <path id="패스_6473" data-name="패스 6473" d="M642.252,278.081c.407,2.992,2.895,4.678,7.486,6.469,3.558,1.4,8,1.462,16.344,4.357,16.874,5.85,20.988,10.828,25.48,9.622s2.955-6.476.313-10.773c-2.535-4.083-7.693-8.734-13.457-11.608a62.338,62.338,0,0,0-16.785-5.774q-8.277-1.519-14.047.658Q641.628,273.278,642.252,278.081Z" transform="translate(-642.193 -269.749)" fill="#fff"/>
            </g>
          </g>
          <g id="그룹_10339" data-name="그룹 10339" transform="translate(40.466 71.146)">
            <g id="Symbol_138_copy_3_1_Layer2_10_FILL-2" data-name="Symbol 138 copy 3 1 Layer2 10 FILL">
              <path id="패스_6474" data-name="패스 6474" d="M661.67,279.622c-1.462,2.642-4.393,3.31-9.322,3.318-3.822.013-7.98-1.535-16.811-1.861-17.847-.66-23.483,2.488-27.234-.261s-.407-7.108,3.61-10.154c3.843-2.887,10.334-5.357,16.748-5.947a62.36,62.36,0,0,1,17.738.7q8.262,1.586,12.851,5.7Q663.991,275.373,661.67,279.622Z" transform="translate(-606.668 -264.391)" fill="#fff"/>
            </g>
          </g>
          <g id="그룹_10342" data-name="그룹 10342" transform="translate(38.109 124.601)">
            <path id="패스_6475" data-name="패스 6475" d="M635.474,312.866l-2.8-.193a13.718,13.718,0,0,1-.619,5.1,13.457,13.457,0,0,1-3.375,4.981,6.511,6.511,0,0,0,5.641-3.519A9.879,9.879,0,0,0,635.474,312.866Z" transform="translate(-568.864 -240.093)" fill="#f7c8a4"/>
            <path id="패스_6476" data-name="패스 6476" d="M639.706,312.6l-2.686.616a11.9,11.9,0,0,1,.77,4.623,12.6,12.6,0,0,1-1.869,5.312,6.334,6.334,0,0,0,4.362-4.7A8.189,8.189,0,0,0,639.706,312.6Z" transform="translate(-557.202 -240.209)" fill="#f7c8a4"/>
            <path id="패스_6477" data-name="패스 6477" d="M643.834,310.767l-2.334,1.295a13.572,13.572,0,0,1,2.266,4.229,12.891,12.891,0,0,1-.083,5.584,6.05,6.05,0,0,0,2.694-5.672A8.663,8.663,0,0,0,643.834,310.767Z" transform="translate(-548.217 -243.163)" fill="#f7c8a4"/>
            <path id="패스_6478" data-name="패스 6478" d="M647.369,308.123l-1.7,1.913a14.488,14.488,0,0,1,3.506,3.3,13.8,13.8,0,0,1,1.856,5.284,5.976,5.976,0,0,0,.5-6.153A8.979,8.979,0,0,0,647.369,308.123Z" transform="translate(-541.502 -247.421)" fill="#f7c8a4"/>
            <path id="패스_6479" data-name="패스 6479" d="M650.308,304.983l-1.368,2.169a12.862,12.862,0,0,1,3.986,2.741,13.366,13.366,0,0,1,2.665,4.981,5.889,5.889,0,0,0-.5-6.132A9.535,9.535,0,0,0,650.308,304.983Z" transform="translate(-536.236 -252.477)" fill="#f7c8a4"/>
            <path id="패스_6480" data-name="패스 6480" d="M624.546,311.33l2.684.835a13.682,13.682,0,0,0-1.271,4.981,13.4,13.4,0,0,0,1.339,5.863,6.5,6.5,0,0,1-3.983-5.323A9.878,9.878,0,0,1,624.546,311.33Z" transform="translate(-577.664 -242.256)" fill="#f7c8a4"/>
            <path id="패스_6481" data-name="패스 6481" d="M619.782,308.988l2.279,1.545a11.912,11.912,0,0,0-2.391,4.033,12.585,12.585,0,0,0-.183,5.625,6.331,6.331,0,0,1-2.36-5.962A8.19,8.19,0,0,1,619.782,308.988Z" transform="translate(-587.574 -246.028)" fill="#f7c8a4"/>
            <path id="패스_6482" data-name="패스 6482" d="M617.173,305.459l1.7,2.052a13.6,13.6,0,0,0-3.644,3.122,12.9,12.9,0,0,0-1.945,5.231,6.054,6.054,0,0,1-.457-6.26A8.668,8.668,0,0,1,617.173,305.459Z" transform="translate(-595.452 -251.711)" fill="#f7c8a4"/>
            <path id="패스_6483" data-name="패스 6483" d="M615.947,301.571l.893,2.4a14.453,14.453,0,0,0-4.464,1.8,13.781,13.781,0,0,0-3.644,4.252,5.975,5.975,0,0,1,1.765-5.915A9,9,0,0,1,615.947,301.571Z" transform="translate(-601.282 -257.972)" fill="#f7c8a4"/>
            <path id="패스_6484" data-name="패스 6484" d="M614.851,297.506l.491,2.519a12.9,12.9,0,0,0-4.709,1.109,13.383,13.383,0,0,0-4.286,3.675,5.883,5.883,0,0,1,2.689-5.531A9.55,9.55,0,0,1,614.851,297.506Z" transform="translate(-495.863 -325.519)" fill="#f7c8a4"/>
            <g id="그룹_10341" data-name="그룹 10341" transform="translate(3.364 5.552)">
              <path id="패스_6485" data-name="패스 6485" d="M607.887,287s48.4,32.476,123.96,25c0,0-10.747,54.712-70.478,43.542C596.076,343.323,607.887,287,607.887,287Z" transform="translate(-607.054 -286.996)" fill="#ba0000"/>
              <g id="그룹_10340" data-name="그룹 10340" clip-path="url(#clip-path-2)">
                <path id="패스_6486" data-name="패스 6486" d="M728.816,309.609l.36,3.281c-2.908,3.832-10.1,9.7-15.119,12.107a36.673,36.673,0,0,0-4.715-8.069c-3.359,3.182-8.833,6.155-13.068,8.186-.5-1.731-4.064-7.936-6.844-10.46a41.791,41.791,0,0,1-14.553,9.168c-.3-1.566-4.9-7.988-8.353-12.17-4.738,2.644-11.35,6.965-12.2,8.314a41.756,41.756,0,0,1-10.243-13.817c-3.506,1.347-9.071,5.842-10.167,7.27-3.211-3.425-7.236-8.181-9.215-12.363a36.481,36.481,0,0,0-7.317,5.813c-3.806-4.062-8.385-12.138-9.706-16.761l1.522-2.929S653.268,309.066,728.816,309.609Z" transform="translate(-606.045 -286.7)" fill="#fff"/>
              </g>
            </g>
            <path id="패스_6488" data-name="패스 6488" d="M669.817,310.994c-4.336,2.655-8.152,1.825-11.862-.321a11.6,11.6,0,0,1-4.221-4.046q-7.212,3.465-13,.426a10.873,10.873,0,0,1-4.349-3.691q-6.946,3.352-11.274-.444a11.667,11.667,0,0,1-3.542-4.876c-4.709,1.571-8.024,1.271-11.11-1.731a12.687,12.687,0,0,1-3.229-5l-1.464-6.442,133.358,25-3.7,5.477a12.712,12.712,0,0,1-4.819,3.49c-3.968,1.681-7.166.76-10.985-2.409a11.669,11.669,0,0,1-5.069,3.263q-5.412,1.974-10.669-3.668a10.905,10.905,0,0,1-5.393,1.867q-6.5.74-11.964-5.1a11.6,11.6,0,0,1-5.4,2.245c-4.234.655-8.34-.076-11.418-4.117" transform="translate(-605.765 -284.869)" fill="#a5d024"/>
            <path id="패스_6489" data-name="패스 6489" d="M669.845,309.434a6.517,6.517,0,0,1-5.036,1.95l.1.013a13.769,13.769,0,0,1-12.856-9.181,11.6,11.6,0,0,0,.42,3.751,11.236,11.236,0,0,1-8.643.18,14.535,14.535,0,0,1-8.687-8.019,11.92,11.92,0,0,0,.6,3.986,11.088,11.088,0,0,1-8.886-.875,12.432,12.432,0,0,1-6.745-8.685,13.807,13.807,0,0,0-.151,3.681A10.894,10.894,0,0,1,611.4,294.5a11.266,11.266,0,0,1-4.821-9.3,24.248,24.248,0,0,0-.394,5.427,7.8,7.8,0,0,0,3.3,6.064q5.317,3.8,10.791,1.209a9.856,9.856,0,0,0,5.08,5.769q6.054,3.344,11.094.052a11.479,11.479,0,0,0,6.437,5.069c4.143,1.53,7.429,1.621,10.17-.418a11.147,11.147,0,0,0,6.75,5.443s6.231,1.911,9.395-.856c1.945,3.725,8.656,4.242,8.656,4.242a10.629,10.629,0,0,0,8.053-2.668c1.814,2.895,4.91,4,9.327,4.072a11.469,11.469,0,0,0,7.839-2.391q3.508,4.883,10.358,3.971a9.847,9.847,0,0,0,6.824-3.537q4.166,4.393,10.5,2.783a7.788,7.788,0,0,0,5.27-4.456,24.322,24.322,0,0,0,1.6-5.2,11.254,11.254,0,0,1-7.868,6.923,10.874,10.874,0,0,1-8.6-1.483,13.877,13.877,0,0,0,1.193-3.485,12.425,12.425,0,0,1-9.434,5.649,11.087,11.087,0,0,1-8.6-2.4,11.97,11.97,0,0,0,2-3.5,14.535,14.535,0,0,1-11,4.328,11.254,11.254,0,0,1-7.993-3.3,11.571,11.571,0,0,0,1.751-3.344c-5.247,5.7-11.287,5.323-15.1,3.939l.1.026a7.181,7.181,0,0,1-4.195-3.681" transform="translate(-605.114 -284.337)" fill="#67b02b"/>
          </g>
          <path id="패스_6490" data-name="패스 6490" d="M677.551,299.493c-.619-.141-1.96,1.023-3.616,1.3-3.007.5-4.156-1.493-5.429-3.276a25.968,25.968,0,0,0-4.709-5.552,12.052,12.052,0,0,0-4.315-2.271,9.737,9.737,0,0,0-6.907.984,9.036,9.036,0,0,0-2.819,2.349,9.012,9.012,0,0,0-1.775-3.211A9.759,9.759,0,0,0,641.9,286.4a12.091,12.091,0,0,0-4.845.556,26.1,26.1,0,0,0-6.4,3.467c-1.835,1.2-3.626,2.647-6.247,1.089-1.441-.859-2.271-2.43-2.9-2.522,0,0-1.282-.608-1.065,2.407a12.965,12.965,0,0,0,1.981,6.283,14.834,14.834,0,0,0,13.558,7.132c5.218-.245,10.225-2.5,12.486-4.91,1.232,3.065,5.083,6.98,9.857,9.1a14.836,14.836,0,0,0,15.224-1.736,12.979,12.979,0,0,0,4.119-5.137C678.966,299.391,677.551,299.493,677.551,299.493Z" transform="translate(-544.058 -157.905)" fill="#fff"/>
        </g>
      </g>
      <g id="그룹_10364" data-name="그룹 10364" transform="translate(595.55 238.821)">
        <path id="패스_6491" data-name="패스 6491" d="M677.6,344.747c-5.067,5.393-14.809,12.1-23.1,14.785a69.27,69.27,0,0,1-22.951,3.855c-.543.018-1.12.047-1.728.076a92.272,92.272,0,0,1-26.433-3.751,79.574,79.574,0,0,1-20.513-9.572,45.056,45.056,0,0,1-1.864-4.354,64.95,64.95,0,0,1,12.188-18.944A103.019,103.019,0,0,1,614.4,308.964c.966.031,1.95.068,2.95.128C617.347,309.092,639.1,333.2,677.6,344.747Z" transform="translate(-404.988 -123.15)" fill="#ffa52e"/>
        <path id="패스_6492" data-name="패스 6492" d="M586.281,379.619s-16-29.072-67.957-47.243c0,0,15.281,30.346,38.412,53.3,0,0-8.231,13.741-5.967,34.685C550.769,420.365,580.042,408.921,586.281,379.619Z" transform="translate(-505.951 -85.447)" fill="#ffa52e"/>
        <path id="패스_6493" data-name="패스 6493" d="M513.584,318.948c2.53,6.75,8.857,16.417,15.454,21.9a68.036,68.036,0,0,0,19.7,11.935c.5.217,1.021.454,1.571.7a93.877,93.877,0,0,0,25.979,6.317,82.841,82.841,0,0,0,22.833-1.133c1.222-1.036,2.378-2.127,3.472-3.26a61.134,61.134,0,0,0-3.683-21.653,96.789,96.789,0,0,0-12.446-24c-.906-.329-1.835-.658-2.783-.971C583.681,308.783,553.862,322.642,513.584,318.948Z" transform="translate(-513.584 -123.441)" fill="#ffa52e"/>
        <path id="패스_6494" data-name="패스 6494" d="M690.607,309.171A264.147,264.147,0,0,1,673.141,370.8q-12.871,30.311-31.315,49.963-43.177,45.926-103.208,23l1.188-10.361q16.277-3.184,19.072-15.086,2.1-9.088-3.448-29.957-10.228-38.522-11.021-42.307-5.83-28.149-3.761-52.3Z" transform="translate(-473.267 -147.66)" fill="#ffa52e"/>
        <path id="패스_6495" data-name="패스 6495" d="M559.736,391.562c15.391-15.041,8.5-56.633,6.49-75.777L651.97,314.5c-7.962,34.627-26.263,66.581-45.93,81.108-18.847,13.919-36.246,16.286-59.491,12.533a4.41,4.41,0,0,1-3.582-3.8,4.264,4.264,0,0,1,3.219-4.6C548.626,399.1,553.3,397.871,559.736,391.562Z" transform="translate(-466.291 -114.234)" fill="#fff"/>
        <path id="패스_6496" data-name="패스 6496" d="M634.189,314.5c-8.74,10.421-19.278,7.447-26.9,10.969-7.367,3.4-13.548,5.719-28.041,2.425-12.2-2.775-14.947,2.655-25.253-3.37Z" transform="translate(-448.511 -114.234)" fill="#fce9e9"/>
        <path id="패스_6497" data-name="패스 6497" d="M559.111,284.793l14.2-1.318a244.35,244.35,0,0,0-6.442-35.248c-1.415-5.636-2.663-10.59-4.445-10.442-2.013.167-2.576,5.526-2.963,11.387A266.215,266.215,0,0,0,559.111,284.793Z" transform="translate(-440.982 -237.782)" fill="#ff962e"/>
        <g id="그룹_10346" data-name="그룹 10346" transform="translate(33.285 33.467)">
          <path id="패스_6498" data-name="패스 6498" d="M618.832,250.787c24.992-1.357,49.854,4.7,70.056,21.168,20.677,16.832,35.175,44.941,38.073,70.5,0,0,7.278,36.621-22.734,61.582-8.108,6.743-10.637,10.131-20.795,13.561-9.544,3.226-5.278.893-15.709,4-11.627,3.467-19.051,6.132-29.623,7.275-17.529.971-26.524-2.219-45.131-2.02-11.8.125-23.961-4.975-34-10.849-33.7-19.709-32.513-57.027-32.513-57.027-1.326-25.689,8.374-55.792,26.015-75.783,17.234-19.555,40.767-29.6,65.644-32.353Z" transform="translate(-526.335 -250.602)" fill="#ffa52e"/>
          <g id="그룹_10345" data-name="그룹 10345" clip-path="url(#clip-path-3)">
            <path id="패스_6499" data-name="패스 6499" d="M746.362,296.1c-22.875-19.484-50.41-3.417-50.41-3.417-22.139,11.452-40.8,14.919-60.979,16.644-22.115,1.543-39.858,1.483-64.036-6.341,0,0-29.8-11.342-49.172,11.627,0,0,19.719,72.781,117.661,67.988l.005.068c.337-.034.66-.078.995-.115.337-.018.663-.029,1-.05l-.005-.068C738.828,371.133,746.362,296.1,746.362,296.1Z" transform="translate(-533.694 -192.856)" fill="#fff"/>
          </g>
        </g>
        <g id="그룹_10363" data-name="그룹 10363" transform="translate(59.632 78.711)">
          <g id="그룹_10349" data-name="그룹 10349" transform="translate(12.279 47.732)">
            <path id="패스_6501" data-name="패스 6501" d="M573.053,308.057l-2.509.543a11.136,11.136,0,0,1,.759,4.372,11.273,11.273,0,0,1-1.686,4.965,5.829,5.829,0,0,0,4.049-4.325A8.082,8.082,0,0,0,573.053,308.057Z" transform="translate(-495.258 -251.054)" fill="#f7c8a4"/>
            <path id="패스_6502" data-name="패스 6502" d="M577.593,306.407l-2.2,1.182a9.911,9.911,0,0,1,1.856,3.629,10.293,10.293,0,0,1-.285,4.861,5.453,5.453,0,0,0,2.626-4.983A6.79,6.79,0,0,0,577.593,306.407Z" transform="translate(-485.955 -253.711)" fill="#f7c8a4"/>
            <path id="패스_6503" data-name="패스 6503" d="M581.235,303.629l-1.718,1.655a11.873,11.873,0,0,1,3.067,2.929,10.591,10.591,0,0,1,1.355,4.633,5.034,5.034,0,0,0,.913-5.364A7.5,7.5,0,0,0,581.235,303.629Z" transform="translate(-479.317 -258.185)" fill="#f7c8a4"/>
            <path id="패스_6504" data-name="패스 6504" d="M583.565,300.457l-1.005,2.01a13.275,13.275,0,0,1,3.921,1.846,11.8,11.8,0,0,1,2.976,3.9,4.925,4.925,0,0,0-1.136-5.21A8.186,8.186,0,0,0,583.565,300.457Z" transform="translate(-474.416 -263.293)" fill="#f7c8a4"/>
            <path id="패스_6505" data-name="패스 6505" d="M585.3,297.072l-.648,2.135a12.111,12.111,0,0,1,4.2,1.266,11.708,11.708,0,0,1,3.608,3.446,4.9,4.9,0,0,0-2-4.942A8.917,8.917,0,0,0,585.3,297.072Z" transform="translate(-471.047 -268.744)" fill="#f7c8a4"/>
            <path id="패스_6506" data-name="패스 6506" d="M564.1,308.783l2.566.018a11.143,11.143,0,0,0,.157,4.435,11.27,11.27,0,0,0,2.673,4.511,5.824,5.824,0,0,1-4.853-3.4A8.093,8.093,0,0,1,564.1,308.783Z" transform="translate(-504.558 -249.884)" fill="#f7c8a4"/>
            <path id="패스_6507" data-name="패스 6507" d="M559.1,308.259l2.394.707a9.9,9.9,0,0,0-1.068,3.934,10.264,10.264,0,0,0,1.276,4.7,5.455,5.455,0,0,1-3.594-4.339A6.8,6.8,0,0,1,559.1,308.259Z" transform="translate(-513.987 -250.728)" fill="#f7c8a4"/>
            <path id="패스_6508" data-name="패스 6508" d="M555.739,306.351l2.021,1.269a11.84,11.84,0,0,0-2.4,3.5,10.575,10.575,0,0,0-.37,4.814,5.032,5.032,0,0,1-2-5.062A7.515,7.515,0,0,1,555.739,306.351Z" transform="translate(-522.177 -253.801)" fill="#f7c8a4"/>
            <path id="패스_6509" data-name="패스 6509" d="M553.671,303.816l1.394,1.762a13.325,13.325,0,0,0-3.453,2.61,11.768,11.768,0,0,0-2.109,4.432,4.922,4.922,0,0,1,.037-5.333A8.218,8.218,0,0,1,553.671,303.816Z" transform="translate(-528.888 -257.883)" fill="#f7c8a4"/>
            <path id="패스_6510" data-name="패스 6510" d="M551.707,300.906l1.073,1.958a12.11,12.11,0,0,0-3.845,2.1,11.708,11.708,0,0,0-2.825,4.114,4.893,4.893,0,0,1,.948-5.247A8.9,8.9,0,0,1,551.707,300.906Z" transform="translate(-533.737 -262.57)" fill="#f7c8a4"/>
            <g id="그룹_10348" data-name="그룹 10348" transform="translate(6.04 5.993)">
              <path id="패스_6511" data-name="패스 6511" d="M543.446,298.986s50.746,14.689,115.114-10.47c0,0,4.542,47.924-50.7,53.693C547.466,348.516,543.446,298.986,543.446,298.986Z" transform="translate(-543.446 -288.516)" fill="#ba0000"/>
              <g id="그룹_10347" data-name="그룹 10347" clip-path="url(#clip-path-4)">
                <path id="패스_6512" data-name="패스 6512" d="M655.241,287.759l1.172,2.8c-1.548,4.138-6.32,11.188-10.087,14.621a33.568,33.568,0,0,0-6.236-5.876c-2.114,3.681-6.132,7.729-9.311,10.627a32.432,32.432,0,0,0-8.726-7.429,38.212,38.212,0,0,1-10.358,11.883c-.668-1.3-6.375-5.756-10.494-8.539-3.459,3.568-8.126,9.105-8.515,10.515a38.235,38.235,0,0,1-12.577-9.5,32.351,32.351,0,0,0-7.014,9.063c-3.707-2.18-8.473-5.317-11.3-8.484a33.5,33.5,0,0,0-4.895,7.032c-4.393-2.584-10.512-8.5-12.877-12.232l.572-2.978S598.695,305.862,655.241,287.759Z" transform="translate(-542.513 -289.735)" fill="#fff"/>
              </g>
            </g>
            <path id="패스_6514" data-name="패스 6514" d="M604.925,304.657c-3.177,3.289-6.792,3.566-10.648,2.731a10.821,10.821,0,0,1-4.8-2.279q-5.533,4.687-11.47,3.636a10.311,10.311,0,0,1-4.827-1.953q-5.321,4.526-10.157,2.483a10.538,10.538,0,0,1-4.412-3.135c-3.79,2.488-6.821,3.078-10.345,1.376A11.353,11.353,0,0,1,544.1,304.2l-2.968-4.955L666.369,286.22l-1.887,5.461a11.342,11.342,0,0,1-3.394,4.1c-3.1,2.391-6.184,2.438-10.405.783a10.558,10.558,0,0,1-3.673,3.978q-4.315,3-10.449-.337a10.332,10.332,0,0,1-4.323,2.905q-5.6,2.251-11.971-1.2a10.886,10.886,0,0,1-4.234,3.219c-3.6,1.611-7.448,2.044-11.233-.519" transform="translate(-541.132 -286.22)" fill="#ffa52e"/>
            <path id="패스_6515" data-name="패스 6515" d="M604.321,303.282a6.078,6.078,0,0,1-3.983,2.882l.1-.016a13.176,13.176,0,0,1-13.819-4.338,9.465,9.465,0,0,0,1.342,2.991,11.055,11.055,0,0,1-7.654,2.334,13.651,13.651,0,0,1-9.8-4.432,9.814,9.814,0,0,0,1.559,3.143,10.986,10.986,0,0,1-8.139,1.522,11.309,11.309,0,0,1-8.249-5.471,11.168,11.168,0,0,0,.815,3.078,10.8,10.8,0,0,1-8.069.728,9.888,9.888,0,0,1-6.7-6.469,19.454,19.454,0,0,0,1.049,4.584,6.845,6.845,0,0,0,4.5,4.179q5.717,1.793,9.925-1.728a9.061,9.061,0,0,0,6.012,3.485q6.257,1.233,9.894-2.759a10.921,10.921,0,0,0,7.043,2.563c4.085.217,7.038-.538,8.951-2.916a10.567,10.567,0,0,0,7.416,2.8s6.046,0,8.15-3.08c2.691,2.584,8.8,1.316,8.8,1.316a10.041,10.041,0,0,0,6.484-4.237c2.362,1.932,5.406,2.065,9.361,1.01a10.917,10.917,0,0,0,6.364-3.957q4.385,3.148,10.248.666a9.055,9.055,0,0,0,5.169-4.646q4.843,2.58,10.065-.353a6.834,6.834,0,0,0,3.545-5.012,19.366,19.366,0,0,0,.083-4.7,9.874,9.874,0,0,1-5.221,7.708,10.8,10.8,0,0,1-8.045.948,11.16,11.16,0,0,0,.164-3.182,11.3,11.3,0,0,1-6.946,7.051,10.982,10.982,0,0,1-8.28.188,9.873,9.873,0,0,0,.88-3.4,13.652,13.652,0,0,1-8.685,6.356,11.06,11.06,0,0,1-7.97-.71,9.472,9.472,0,0,0,.7-3.206,12.893,12.893,0,0,1-12.433,7.069l.1,0a6.717,6.717,0,0,1-4.686-1.984" transform="translate(-540.188 -285.866)" fill="#ff7600"/>
          </g>
          <g id="그룹_10350" data-name="그룹 10350" transform="translate(66.048 47.767)">
            <path id="패스_6516" data-name="패스 6516" d="M562.307,287.316a2.352,2.352,0,0,0-.53,2.114,4.265,4.265,0,0,0,1.271,2.318,4.375,4.375,0,0,0,2.347,1.243,2.253,2.253,0,0,0,2.075-.566,2.283,2.283,0,0,0,.535-2.062,4.326,4.326,0,0,0-1.276-2.37,4.376,4.376,0,0,0-2.347-1.243A2.26,2.26,0,0,0,562.307,287.316Z" transform="translate(-561.73 -285.476)" fill="#ce5300"/>
            <path id="패스_6517" data-name="패스 6517" d="M569.04,286.465a4.337,4.337,0,0,0-2.041,1.72,3.971,3.971,0,0,0-.739,2.561,2.14,2.14,0,0,0,3.122,2.041,4.33,4.33,0,0,0,2.041-1.718,4.611,4.611,0,0,0,.736-2.561,2.236,2.236,0,0,0-.963-1.934A2.174,2.174,0,0,0,569.04,286.465Z" transform="translate(-554.453 -286.233)" fill="#ce5300"/>
          </g>
          <path id="패스_6518" data-name="패스 6518" d="M536.428,290.549l3.441-1.514a56.179,56.179,0,0,1,6.732-2.407l-.532-2.328a25.784,25.784,0,0,0-7.421,4.08Z" transform="translate(-536.428 -241.58)" fill="#ff7600"/>
          <path id="패스_6519" data-name="패스 6519" d="M541.4,289.93a29.049,29.049,0,0,1,4.759-3.219l-1.934-1.1A21.058,21.058,0,0,0,542,287.586a16.511,16.511,0,0,0-3.5,4.722Z" transform="translate(-533.082 -239.47)" fill="#ff7600"/>
          <path id="패스_6520" data-name="패스 6520" d="M550.805,317.144c11.452,7.635,26.083,4.372,32.291-7.22a26.649,26.649,0,0,0-8.734-34.439,23.014,23.014,0,0,0-32.821,7.168C535.221,293.034,539.356,309.506,550.805,317.144Z" transform="translate(-532.958 -262.306)" fill="#ff7600"/>
          <path id="패스_6521" data-name="패스 6521" d="M551.305,315.132c10.676,7.176,24.026,3.2,29.876-7.81s1.986-24.9-8.69-32.074-23.974-3.26-29.824,7.753S540.628,307.959,551.305,315.132Z" transform="translate(-530.792 -262.004)" fill="#fff"/>
          <ellipse id="타원_202" data-name="타원 202" cx="16.543" cy="18.455" rx="16.543" ry="18.455" transform="matrix(1, -0.03, 0.03, 1, 19.576, 16.544)" fill="#501e00"/>
          <path id="패스_6522" data-name="패스 6522" d="M548.23,275.978c-.125-.068-.258-.1-.389-.172a11.879,11.879,0,0,0-3.174,4.947c.083.05.125.1.206.157,1.955,1.185,4.284,1.042,5.218-.329C551.018,279.236,550.188,277.174,548.23,275.978Z" transform="translate(-523.16 -255.258)" fill="#fff"/>
          <g id="그룹_10362" data-name="그룹 10362" transform="translate(56.076 32.052)">
            <g id="그룹_10352" data-name="그룹 10352" transform="translate(22.083 1.128)">
              <g id="그룹_10351" data-name="그룹 10351">
                <g id="Symbol_138_copy_2_12_Layer2_23_MEMBER_0_FILL" data-name="Symbol 138 copy 2 12 Layer2 23 MEMBER 0 FILL">
                  <path id="패스_6523" data-name="패스 6523" d="M576.617,282.1a6.258,6.258,0,0,0-10.217,5.411,6.091,6.091,0,0,0,2.245,4.263,6.209,6.209,0,0,0,8.8-.825,6.293,6.293,0,0,0-.828-8.849Z" transform="translate(-566.369 -280.645)" fill="rgba(255,255,255,0.5)"/>
                </g>
              </g>
            </g>
            <g id="그룹_10354" data-name="그룹 10354" transform="translate(1.103 3.076)">
              <g id="그룹_10353" data-name="그룹 10353">
                <g id="Symbol_138_copy_2_12_Layer2_23_MEMBER_3_FILL" data-name="Symbol 138 copy 2 12 Layer2 23 MEMBER 3 FILL">
                  <path id="패스_6524" data-name="패스 6524" d="M568.6,282.847a6.268,6.268,0,0,0-10.235,5.414,6.086,6.086,0,0,0,2.245,4.26,6.236,6.236,0,0,0,8.821-.827,6.293,6.293,0,0,0-.83-8.847Z" transform="translate(-558.332 -281.391)" fill="rgba(255,255,255,0.5)"/>
                </g>
              </g>
            </g>
            <g id="그룹_10361" data-name="그룹 10361">
              <g id="그룹_10356" data-name="그룹 10356" transform="translate(20.96)">
                <g id="그룹_10355" data-name="그룹 10355">
                  <g id="Symbol_138_copy_2_12_Layer2_23_MEMBER_1_FILL" data-name="Symbol 138 copy 2 12 Layer2 23 MEMBER 1 FILL">
                    <path id="패스_6525" data-name="패스 6525" d="M578.02,281.915a7.38,7.38,0,0,0-10.392.974,7.473,7.473,0,0,0,.979,10.447,7.388,7.388,0,0,0,12.063-6.4,7.168,7.168,0,0,0-2.649-5.022m-5.226.157a5.38,5.38,0,0,1,4.067,1.25,5.64,5.64,0,0,1,.736,7.873,5.566,5.566,0,0,1-7.831.733,5.578,5.578,0,0,1,3.028-9.857Z" transform="translate(-565.939 -280.213)" fill="#fff"/>
                  </g>
                </g>
              </g>
              <g id="그룹_10358" data-name="그룹 10358" transform="translate(13.108 5.22)">
                <g id="그룹_10357" data-name="그룹 10357">
                  <g id="Symbol_138_copy_2_12_Layer2_23_MEMBER_2_FILL" data-name="Symbol 138 copy 2 12 Layer2 23 MEMBER 2 FILL">
                    <path id="패스_6526" data-name="패스 6526" d="M571.966,285.85l.1-2.143a6.41,6.41,0,0,0-4.79-1.462,6.051,6.051,0,0,0-4.341,2.318l.491,2.086a6.91,6.91,0,0,1,4.025-2.341A7.167,7.167,0,0,1,571.966,285.85Z" transform="translate(-562.931 -282.213)" fill="#fff"/>
                  </g>
                </g>
              </g>
              <g id="그룹_10360" data-name="그룹 10360" transform="translate(0 1.947)">
                <g id="그룹_10359" data-name="그룹 10359">
                  <g id="Symbol_138_copy_2_12_Layer2_23_MEMBER_4_FILL" data-name="Symbol 138 copy 2 12 Layer2 23 MEMBER 4 FILL">
                    <path id="패스_6527" data-name="패스 6527" d="M564.593,281a7.363,7.363,0,1,0,5.4,1.665,7.134,7.134,0,0,0-5.4-1.665M561,284.8a5.573,5.573,0,0,1,7.831-.734A5.551,5.551,0,1,1,561,284.8Z" transform="translate(-557.91 -280.959)" fill="#fff"/>
                  </g>
                </g>
              </g>
            </g>
          </g>
          <path id="패스_6528" data-name="패스 6528" d="M574.459,286.12s17.9,22.4,36.392-2.2C610.851,283.919,595.661,303.374,574.459,286.12Z" transform="translate(-475.183 -242.193)" fill="#ff7600"/>
          <path id="패스_6529" data-name="패스 6529" d="M577.487,286.76s-12.914,25.6-36.068,5.33C541.419,292.09,560.284,308.009,577.487,286.76Z" transform="translate(-528.391 -237.618)" fill="#ff7600"/>
          <path id="패스_6530" data-name="패스 6530" d="M599.48,283.381l-3.675-.775a56.2,56.2,0,0,0-7.085-.971l.042-2.389a25.873,25.873,0,0,1,8.1,2.467Z" transform="translate(-452.217 -249.719)" fill="#ff7600"/>
          <path id="패스_6531" data-name="패스 6531" d="M593.121,284.294a28.832,28.832,0,0,0-5.318-2.169l1.665-1.477a20.98,20.98,0,0,1,2.584,1.477,16.45,16.45,0,0,1,4.391,3.9Z" transform="translate(-453.693 -247.462)" fill="#ff7600"/>
          <path id="패스_6532" data-name="패스 6532" d="M610.77,311.007c-9.635,9.828-24.627,9.645-33.087-.423a26.65,26.65,0,0,1,1.464-35.5,23.013,23.013,0,0,1,33.593.264C621.063,284.209,620.4,301.182,610.77,311.007Z" transform="translate(-479.764 -267.935)" fill="#ff7600"/>
          <path id="패스_6533" data-name="패스 6533" d="M607.871,309.315c-8.972,9.217-22.854,8.077-30.844-1.5s-7.064-23.958,1.908-33.176,22.791-8.121,30.782,1.454S616.843,300.1,607.871,309.315Z" transform="translate(-479.826 -267.365)" fill="#fff"/>
          <ellipse id="타원_203" data-name="타원 203" cx="16.543" cy="18.455" rx="16.543" ry="18.455" transform="translate(88.87 11.798) rotate(-10.171)" fill="#501e00"/>
          <path id="패스_6534" data-name="패스 6534" d="M575.621,273.129c-.123-.065-.258-.1-.386-.17a11.875,11.875,0,0,0-3.174,4.944c.083.05.123.1.206.159,1.955,1.183,4.284,1.042,5.218-.329C578.411,276.386,577.579,274.324,575.621,273.129Z" transform="translate(-479.046 -259.843)" fill="#fff"/>
        </g>
      </g>
      <g id="그룹_10506" data-name="그룹 10506" transform="translate(462.686 368.088)">
        <g id="그룹_10377" data-name="그룹 10377">
          <g id="그룹_10376" data-name="그룹 10376">
            <path id="패스_6535" data-name="패스 6535" d="M542.93,361.875c24.514,7.147,37.577,46.862,28.456,63.336-8.635.457-40.151-2.809-48.846-4.874a99.039,99.039,0,0,1-27.78-11.645c-.564-.381-1.1-.747-1.6-1.081a71.379,71.379,0,0,1-19.38-17.184q-9.206-11.234-11.092-23.7S505.933,372.027,542.93,361.875Z" transform="translate(-462.686 -167.208)" fill="#005cee"/>
            <path id="패스_6536" data-name="패스 6536" d="M476.914,404.567s54.628,32.714,60.267,41.281c1.882,2.861,3.161,5.636,5.15,11.752l11.616-3.955-9.81,9.776c.439,1.415.454,1.431.867,2.838l7.842-3.976-6.7,8.04c2.563,8.912,4.239,15.882,4.239,15.882s17.746-15.555,18.944-61.214C569.328,424.991,532.544,403.588,476.914,404.567Z" transform="translate(-439.773 -98.509)" fill="#005cee"/>
            <path id="패스_6537" data-name="패스 6537" d="M655.809,341.561a280.688,280.688,0,0,1,3.712,70.708q-2.839,36.384-15.681,63.762Q613.753,540.043,539.9,538.686l-2.53-11.23q16.555-9.417,15.208-22.859-1.065-10.247-14.809-29.894-25.353-36.27-27.615-39.91-16.735-27.12-23.4-53.041Z" transform="translate(-423.927 -199.922)" fill="#005cee"/>
            <path id="패스_6538" data-name="패스 6538" d="M649.962,381.463c-4.406,7.335-13.733,17.158-22.384,21.969a74.492,74.492,0,0,1-24.786,9.131c-.6.133-1.243.285-1.916.439a101.147,101.147,0,0,1-30.477.919,90.587,90.587,0,0,1-25.217-7.09,56.511,56.511,0,0,1-3.109-4.727,76.209,76.209,0,0,1,9.191-24.647,115.222,115.222,0,0,1,19.521-25.209c1.086-.162,2.2-.316,3.331-.446C574.117,351.8,604.144,375.681,649.962,381.463Z" transform="translate(-334.839 -183.431)" fill="#005cee"/>
            <g id="그룹_10367" data-name="그룹 10367" transform="translate(35.073)">
              <path id="패스_6539" data-name="패스 6539" d="M509.71,337.965l14.924-3.678a263.3,263.3,0,0,0-12.509-36.54c-2.407-5.779-4.532-10.862-6.409-10.418-2.117.5-1.861,6.3-1.334,12.613A287.073,287.073,0,0,0,509.71,337.965Z" transform="translate(-431.205 -287.302)" fill="#0054d6"/>
              <g id="그룹_10366" data-name="그룹 10366" transform="translate(0 32.866)">
                <path id="패스_6540" data-name="패스 6540" d="M559.358,302.557c26.423-5.445,53.889-2.968,78.059,11.35,24.736,14.634,44.685,42.276,51.866,69.053,0,0,13.618,37.869-14.378,69.278-17.391,19.513-33.951,30.67-71.173,40.44-35.611,7.382-57.471,5.273-81.74-4.427-39.07-15.616-43.782-55.583-43.782-55.583-5.526-27.169-.005-60.807,15.6-84.94,15.239-23.6,38.715-38.073,64.793-44.993Z" transform="translate(-476.122 -299.892)" fill="#005cee"/>
                <g id="그룹_10365" data-name="그룹 10365" clip-path="url(#clip-path-5)">
                  <path id="패스_6541" data-name="패스 6541" d="M649.481,344.471c-21.9,15.845-41.349,22.57-62.707,27.668-23.465,5.216-42.5,8.006-69.685,3.511,0,0-22.865-4.968-40.482,8.724,2.9,11.616,12.668,38.2,42.918,50.287,24.415,9.76,46.405,11.883,82.228,4.456,37.444-9.828,54.106-21.053,71.6-40.681,21.7-24.342,18.547-52.521,15.958-64.187C667.689,330.265,649.22,344.68,649.481,344.471Z" transform="translate(-475.341 -245.685)" fill="#fff"/>
                </g>
              </g>
            </g>
            <g id="그룹_10373" data-name="그룹 10373" transform="translate(64.048 73.356)">
              <g id="그룹_10368" data-name="그룹 10368" transform="translate(67.347 58.517)">
                <path id="패스_6543" data-name="패스 6543" d="M513.459,340.281a2.767,2.767,0,0,0-.246,2.55A5.018,5.018,0,0,0,515.1,345.3a5.152,5.152,0,0,0,2.939,1.034,2.662,2.662,0,0,0,2.313-1.018,2.69,2.69,0,0,0,.264-2.49,5.071,5.071,0,0,0-1.9-2.532,5.142,5.142,0,0,0-2.942-1.034A2.655,2.655,0,0,0,513.459,340.281Z" transform="translate(-513.021 -335.496)" fill="#132c8d"/>
                <path id="패스_6544" data-name="패스 6544" d="M520.914,338.3a5.091,5.091,0,0,0-2.07,2.352,4.668,4.668,0,0,0-.412,3.1,2.708,2.708,0,0,0,1.459,2.081,2.738,2.738,0,0,0,2.524-.251,5.078,5.078,0,0,0,2.07-2.352,5.424,5.424,0,0,0,.412-3.1,2.626,2.626,0,0,0-1.459-2.081A2.564,2.564,0,0,0,520.914,338.3Z" transform="translate(-504.483 -337.82)" fill="#132c8d"/>
              </g>
              <g id="그룹_10370" data-name="그룹 10370" transform="translate(89.523)">
                <g id="그룹_10369" data-name="그룹 10369" transform="translate(3.547)">
                  <path id="패스_6545" data-name="패스 6545" d="M567.489,361.928c-8.5,12.423-24.06,14.467-34.745,4.563s-13.316-27.733-4.811-40.156,24.037-14.621,34.718-4.72S576,349.505,567.489,361.928Z" transform="translate(-522.875 -315.403)" fill="#132c8d"/>
                  <path id="패스_6546" data-name="패스 6546" d="M564.941,360.833c-7.91,11.64-22.794,12.509-32.894,3.083s-11.6-25.577-3.686-37.219,22.721-12.551,32.821-3.125S572.85,349.191,564.941,360.833Z" transform="translate(-522.175 -312.572)" fill="#fff"/>
                </g>
                <ellipse id="타원_204" data-name="타원 204" cx="17.689" cy="20.784" rx="17.689" ry="20.784" transform="translate(0 19.96) rotate(-16.932)" fill="#501e00"/>
                <path id="패스_6547" data-name="패스 6547" d="M526.434,323.608c-.143-.055-.29-.07-.439-.131a13.387,13.387,0,0,0-2.511,5.994c.1.042.149.1.245.144,2.273,1.016,4.712.5,5.466-1.169C529.945,326.8,528.71,324.636,526.434,323.608Z" transform="translate(-518.348 -302.401)" fill="#fff"/>
              </g>
              <g id="그룹_10372" data-name="그룹 10372" transform="translate(0 22.408)">
                <g id="그룹_10371" data-name="그룹 10371">
                  <path id="패스_6548" data-name="패스 6548" d="M502.767,376.869c13.154,7.322,27.989,2.208,33.129-11.423s-.459-30.761-13.613-38.083-28.033-2.357-33.176,11.272S489.611,369.547,502.767,376.869Z" transform="translate(-487.222 -323.987)" fill="#132c8d"/>
                  <path id="패스_6549" data-name="패스 6549" d="M503.337,375.247c12.274,6.889,25.982,1.023,30.816-11.919s-1.039-28.064-13.313-34.953-25.932-1.094-30.766,11.851S491.063,368.358,503.337,375.247Z" transform="translate(-485.363 -321.637)" fill="#fff"/>
                </g>
                <ellipse id="타원_205" data-name="타원 205" cx="17.689" cy="20.784" rx="17.689" ry="20.784" transform="matrix(0.986, -0.166, 0.166, 0.986, 11.905, 13.498)" fill="#501e00"/>
                <path id="패스_6550" data-name="패스 6550" d="M496.074,330.755c-.141-.052-.29-.068-.439-.128a13.415,13.415,0,0,0-2.511,5.991c.1.042.151.1.248.146,2.271,1.015,4.712.5,5.466-1.172C499.585,333.953,498.35,331.786,496.074,330.755Z" transform="translate(-477.717 -313.294)" fill="#fff"/>
              </g>
            </g>
            <g id="그룹_10375" data-name="그룹 10375" transform="translate(78.265 130.923)">
              <path id="패스_6551" data-name="패스 6551" d="M492.668,369.723c17.39,57.917,71.7,46.468,79.662,44.45,8.027-1.749,61.885-17.124,51.6-76.717,0,0-22.5,16.156-63.3,25.582C517.128,373.088,492.668,369.723,492.668,369.723Z" transform="translate(-492.668 -337.456)" fill="#ba0000"/>
              <g id="그룹_10374" data-name="그룹 10374" clip-path="url(#clip-path-6)">
                <path id="패스_6552" data-name="패스 6552" d="M492.309,368.762a41.71,41.71,0,0,0,6.276,5.247,42.27,42.27,0,0,0,10.41,5.607,39.9,39.9,0,0,1,6.356-9.1c2.9,3.511,9.953,7.547,15.044,9.661.577-1.723,4.547-8.969,7.484-11.139,2.422,2.887,9.246,6.753,14.843,9.238,1.3-2.5,2.827-5.158,4.623-7.92,1.386-2.128,2.777-4.08,4.143-5.865,2,.994,4.1,2.125,6.27,3.414,2.817,1.673,5.352,3.378,7.609,5.036,3.85-4.707,8.176-11.2,9.037-14.861,3.566.64,10.3,5.367,11.572,6.651,3.568-4.151,8.019-10.9,9.029-15.328a40.156,40.156,0,0,1,4.195,1.882,39.245,39.245,0,0,1,5.471,3.448,43.668,43.668,0,0,0,6.69-9.81,46.336,46.336,0,0,0,3.461-7.737Z" transform="translate(-493.246 -337.894)" fill="#fff"/>
                <path id="패스_6553" data-name="패스 6553" d="M588.665,356.239s-1.673,8.254-5.866,13.647c-4.278-3.4-11.54-5.445-11.54-5.445s-3.227,9.225-7.116,14.19L552.07,369.6,545.591,383c-5.683-2.733-12.637-9.538-12.637-9.538s-5.586,5.072-7.9,10.021c-6.158-2.952-11.342-9.593-11.342-9.593s-6.777,4.767-10.228,11c59.8,23.468,99.24-23.371,99.24-23.371C596.86,357.482,588.665,356.239,588.665,356.239Z" transform="translate(-475.243 -307.208)" fill="#fff"/>
              </g>
            </g>
          </g>
          <path id="패스_6555" data-name="패스 6555" d="M530.148,467.347c10.4-20.888-11.475-61.034-20.364-79.923l80.962-19.831c4.187,38.3,3.232,65.508-11.736,87.4-14.339,20.972-31.314,29.6-56.463,34.04-1.6.282-4.226-.533-5.02-2.61a4.622,4.622,0,0,1,1.658-5.855C521.455,479.029,525.8,476.105,530.148,467.347Z" transform="translate(-386.839 -158)" fill="#fff"/>
        </g>
        <g id="그룹_10389" data-name="그룹 10389" transform="translate(414.389 21.231)">
          <path id="패스_6556" data-name="패스 6556" d="M650.663,344.4a257.835,257.835,0,0,0-4.957,62.287q1.476,32.092,11.669,56.327,23.885,56.667,86.571,56.085l2.433-9.875q-13.8-8.442-12.316-20.275,1.163-9.021,13.326-26.224,22.437-31.756,24.449-34.946,14.891-23.764,21.2-46.554Z" transform="translate(-582.754 -216.579)" fill="#ff5aa7"/>
          <path id="패스_6557" data-name="패스 6557" d="M710.553,403.82a76.156,76.156,0,0,1-21.9,4.558,90.556,90.556,0,0,1-26.141-2.342c-.574-.162-1.12-.318-1.631-.462a66.891,66.891,0,0,1-20.975-8.839c-7.265-4.43-14.942-13.039-18.476-19.338,39.548-2.407,66.15-20.6,66.15-20.6S708.337,366.186,710.553,403.82Z" transform="translate(-621.431 -196.622)" fill="#ff5aa7"/>
          <path id="패스_6558" data-name="패스 6558" d="M773.246,375.174c-2.4,6.811-8.487,16.61-14.882,22.22A66.865,66.865,0,0,1,739.216,409.7c-.481.23-.992.478-1.527.736a90.53,90.53,0,0,1-25.352,6.792,79.225,79.225,0,0,1-22.356-.731,46.146,46.146,0,0,1-3.433-3.208,62.775,62.775,0,0,1,3.365-21.768,98.855,98.855,0,0,1,11.917-24.277c.882-.345,1.788-.689,2.712-1.021C704.542,366.225,733.873,379.588,773.246,375.174Z" transform="translate(-516.635 -181.434)" fill="#ff5aa7"/>
          <path id="패스_6559" data-name="패스 6559" d="M681.09,416.778s26.741-18.973,80.954-13.37c0,0-26.642,20.4-57.134,31.012,0,0,1.478,15.54-9.5,33.063C695.405,467.482,674.136,445.21,681.09,416.778Z" transform="translate(-527.606 -123.222)" fill="#ff5aa7"/>
          <g id="그룹_10388" data-name="그룹 10388" transform="translate(43.932)">
            <path id="패스_6560" data-name="패스 6560" d="M681.339,337.45l13.412,3.292a236.661,236.661,0,0,0,5.27-34.309c.491-5.6.916-10.536-.762-10.964-1.895-.486-4.109,4.242-6.32,9.484A257.372,257.372,0,0,0,681.339,337.45Z" transform="translate(-568.887 -295.435)" fill="#ff37a7"/>
            <path id="패스_6561" data-name="패스 6561" d="M760.472,309.513c23.308,6.675,44.145,20.092,57.424,41.565,13.595,21.956,17.962,52.279,12.522,76.592,0,0-4.939,35.828-40.318,49.172-21.979,8.288-39.814,10.269-73.522,2.537-31.429-8.961-47.956-19.75-63.237-37.587-24.6-28.715-11.7-62.5-11.7-62.5,6.923-23.935,25.334-48.418,47.815-61.13,21.972-12.438,46.692-14.18,70.34-8.823Z" transform="translate(-638.26 -277.655)" fill="#ff5aa7"/>
            <path id="패스_6562" data-name="패스 6562" d="M793.56,376.65c-23.893,3.472-42.074.736-61.091-4.077-20.734-5.592-36.958-11.269-56.609-26.086,0,0-16.038-13.4-35.656-9.865-2.516,10.395-5.8,35.481,13.138,57.58,15.281,17.837,31.808,28.626,63.237,37.587,33.708,7.732,51.542,5.751,73.522-2.54,27.253-10.277,36.436-33.883,39.219-44.192C813.856,372.949,793.267,376.708,793.56,376.65Z" transform="translate(-638.261 -230.065)" fill="#fff"/>
            <g id="그룹_10385" data-name="그룹 10385" transform="translate(39.282 65.259)">
              <g id="그룹_10378" data-name="그룹 10378" transform="translate(51.488 53.097)">
                <path id="패스_6563" data-name="패스 6563" d="M674.171,340.984a2.213,2.213,0,0,0-1.1,1.736,4.023,4.023,0,0,0,.454,2.449,4.124,4.124,0,0,0,1.733,1.8,2.011,2.011,0,0,0,3.109-1.582,4.072,4.072,0,0,0-.444-2.5,4.126,4.126,0,0,0-1.733-1.8A2.125,2.125,0,0,0,674.171,340.984Z" transform="translate(-673.033 -340.775)" fill="#c21f77"/>
                <path id="패스_6564" data-name="패스 6564" d="M680.835,341.891a4.068,4.068,0,0,0-2.331.937,3.732,3.732,0,0,0-1.415,2.073,2.014,2.014,0,0,0,2.19,2.746,4.07,4.07,0,0,0,2.334-.937,4.339,4.339,0,0,0,1.412-2.073,2.105,2.105,0,0,0-.292-2.015A2.055,2.055,0,0,0,680.835,341.891Z" transform="translate(-666.692 -338.996)" fill="#c21f77"/>
              </g>
              <g id="그룹_10381" data-name="그룹 10381">
                <path id="패스_6565" data-name="패스 6565" d="M659.634,361.216c9.366,9.771,21.432,15.067,31.315,6.591S701.8,346.088,696.2,333.6c-5.667-12.642-21.471-18.007-34.053-7.826a24.18,24.18,0,0,0-8.834,18.009C653.191,349.665,655.369,356.765,659.634,361.216Z" transform="translate(-653.309 -320.434)" fill="#e80784"/>
                <g id="그룹_10380" data-name="그룹 10380" transform="translate(3.189 4.535)">
                  <g id="그룹_10379" data-name="그룹 10379">
                    <path id="패스_6566" data-name="패스 6566" d="M659.222,361.718c7.369,10.664,21.215,11.59,30.6,3.109s10.755-23.159,3.386-33.82-21.149-11.627-30.534-3.145S651.851,351.054,659.222,361.718Z" transform="translate(-654.531 -322.172)" fill="#fff"/>
                  </g>
                  <ellipse id="타원_206" data-name="타원 206" cx="18.882" cy="16.474" rx="18.882" ry="16.474" transform="translate(4.911 40.338) rotate(-72.139)" fill="#501e00"/>
                  <path id="패스_6567" data-name="패스 6567" d="M665.2,326.344c-.1-.1-.214-.175-.311-.287a12.178,12.178,0,0,0-4.573,3.814c.065.076.086.141.146.219,1.472,1.765,3.717,2.355,5.038,1.316C666.8,330.388,666.668,328.122,665.2,326.344Z" transform="translate(-645.221 -315.914)" fill="#fff"/>
                </g>
              </g>
              <g id="그룹_10384" data-name="그룹 10384" transform="translate(79.052 20.636)">
                <path id="패스_6568" data-name="패스 6568" d="M717.6,374.581c-12.781,4.456-25.934,3.694-30.891-8.343s.193-24.279,10.852-32.865c10.789-8.69,27.308-6.3,33.893,8.486a24.191,24.191,0,0,1-.306,20.058C728.583,367.217,723.422,372.553,717.6,374.581Z" transform="translate(-681.631 -328.34)" fill="#e80784"/>
                <g id="그룹_10383" data-name="그룹 10383" transform="translate(0 3.118)">
                  <g id="그룹_10382" data-name="그룹 10382" transform="translate(2.825)">
                    <path id="패스_6569" data-name="패스 6569" d="M714.936,374.893c-11.408,6.153-24.165.694-28.678-11.123s.932-25.517,12.342-31.669,24.12-.757,28.631,11.06S726.343,368.74,714.936,374.893Z" transform="translate(-684.674 -329.534)" fill="#fff"/>
                  </g>
                  <ellipse id="타원_207" data-name="타원 207" cx="18.882" cy="16.474" rx="18.882" ry="16.474" transform="translate(0 40.73) rotate(-80.859)" fill="#501e00"/>
                  <path id="패스_6570" data-name="패스 6570" d="M691.386,332.632c-.1-.1-.214-.175-.311-.287a12.181,12.181,0,0,0-4.573,3.814c.065.076.086.141.146.219,1.472,1.765,3.717,2.354,5.038,1.316C692.986,336.676,692.858,334.41,691.386,332.632Z" transform="translate(-678.907 -325.007)" fill="#fff"/>
                </g>
              </g>
            </g>
            <g id="그룹_10387" data-name="그룹 10387" transform="translate(39.491 118.103)">
              <path id="패스_6571" data-name="패스 6571" d="M654.733,340.678c-9.661,50.188,35.692,62.95,42.477,64.568,6.727,1.843,52.626,12.47,68.3-36.18,0,0-22.611,2.276-57.011-6.7C671.813,352.8,654.733,340.678,654.733,340.678Z" transform="translate(-653.389 -340.678)" fill="#ba0000"/>
              <g id="그룹_10386" data-name="그룹 10386" clip-path="url(#clip-path-7)">
                <path id="패스_6572" data-name="패스 6572" d="M653.813,340.257a35.26,35.26,0,0,0,2.66,6.393,36.077,36.077,0,0,0,5.631,8.285,33.964,33.964,0,0,1,4.738-2.806,33.24,33.24,0,0,1,3.621-1.509c.8,3.764,4.526,9.557,7.523,13.138,1.112-1.062,6.944-4.926,10.006-5.4.689,3.114,4.3,8.687,7.539,12.744,1.958-1.357,4.153-2.749,6.591-4.109,1.874-1.049,3.691-1.963,5.417-2.764,1.117,1.53,2.253,3.2,3.378,5.017,1.462,2.36,2.7,4.633,3.749,6.761,4.746-2.013,10.548-5.171,12.634-7.575,2.43,1.88,5.638,8.061,6.1,9.525,4.312-1.707,10.314-5.009,12.812-7.928a33.863,33.863,0,0,1,2.417,3.057,33.322,33.322,0,0,1,2.764,4.73,37.042,37.042,0,0,0,8.883-4.714,34.866,34.866,0,0,0,5.331-4.2Z" transform="translate(-652.706 -341.356)" fill="#fff"/>
                <path id="패스_6573" data-name="패스 6573" d="M730.594,372.447s-4.526,5.617-9.812,8.058c-1.869-4.276-6.518-8.706-6.518-8.706s-6.077,5.74-10.966,7.977l-5.5-11.645-10.175,7.628c-3.19-4.325-5.722-12.253-5.722-12.253s-6.208,1.647-9.9,4.5c-3.459-4.683-4.725-11.783-4.725-11.783s-6.98.945-12.042,4.32c35.655,41.508,83.841,21.486,83.841,21.486C736.259,376.634,730.594,372.447,730.594,372.447Z" transform="translate(-650.421 -315.648)" fill="#fff"/>
              </g>
            </g>
          </g>
          <path id="패스_6575" data-name="패스 6575" d="M712.351,458.723c-9.51-19.3,10.825-56.236,19.1-73.616L656.872,366.5c-4.015,35.3-3.245,60.394,10.47,80.638,13.141,19.4,28.759,27.417,51.929,31.612a4.407,4.407,0,0,0,4.641-2.386,4.264,4.264,0,0,0-1.506-5.406C720.32,469.53,716.326,466.816,712.351,458.723Z" transform="translate(-567.768 -180.999)" fill="#fff"/>
        </g>
        <g id="그룹_10505" data-name="그룹 10505" transform="translate(195.327 119.136)">
          <g id="그룹_10495" data-name="그룹 10495">
            <g id="그룹_10394" data-name="그룹 10394" transform="translate(118.733 139.902)">
              <g id="그룹_10391" data-name="그룹 10391" transform="translate(0 0.8)">
                <g id="그룹_10390" data-name="그룹 10390">
                  <path id="패스_6576" data-name="패스 6576" d="M666,429.383s-6.242,3.694-11.653,15.785c-6.839,15.286-22.118,22.228-39.041,22-22.4-.3-32.312-4.991-32.312-4.991l1.01-10.943,2.676-.6a8.462,8.462,0,0,0,.82-.5,25.765,25.765,0,0,0,8.087-9.45c3.263-6.1,3.819-13.086,6.252-19.494a60.047,60.047,0,0,1,6.805-12.828c6.479-9.358,16.043-18.155,27.519-20.5q2.8-.572,5.558-1.026l4.375,9.285,12.585,9.854-4.652,15.044L666,429.383" transform="translate(-582.997 -386.841)" fill="#f44ca0"/>
                </g>
              </g>
              <g id="그룹_10393" data-name="그룹 10393" transform="translate(57.069)">
                <g id="그룹_10392" data-name="그룹 10392">
                  <path id="패스_6577" data-name="패스 6577" d="M660.719,410.28c-.553-3.991-3.467-8.5-14.373-15.686-12.133-8-24.929-9.176-40-7.254l-1.483,12.9,12.647,7.6-1.874,14.848,14.989,7.192c15.367-10.442,24.48-13.172,27.159-14.146C661.521,414.378,660.719,410.28,660.719,410.28Z" transform="translate(-604.859 -386.535)" fill="#faf7f5"/>
                </g>
              </g>
            </g>
            <g id="그룹_10399" data-name="그룹 10399" transform="translate(71.246 212.456)">
              <g id="그룹_10395" data-name="그룹 10395" transform="translate(9.777 13.308)">
                <path id="패스_6578" data-name="패스 6578" d="M583.086,451.047a13.523,13.523,0,0,1,11.214,1.1,19.929,19.929,0,0,1,3.344,2.263l1.206,1.13,6.278-27.686-20.518-8.424-16.059,21.946a19.607,19.607,0,0,1,5.693,1.634A16.89,16.89,0,0,1,583.086,451.047Z" transform="translate(-568.551 -419.427)" fill="#0060ad"/>
              </g>
              <g id="그룹_10396" data-name="그룹 10396" transform="translate(8.006)">
                <path id="패스_6579" data-name="패스 6579" d="M608.426,419.344a9.785,9.785,0,0,0-10.958-4.717,14.874,14.874,0,0,0-6.928,4.036q-5.674,5.509-14.783,19.218-9.018,13.54-7.722,14.376,1.081.685,8.724-8.259l7.442-9.074a28.77,28.77,0,0,0,12.355,7.549,20.357,20.357,0,0,0,3.942.708l1.467,0q-1.324,5.834-2.315,11.695-1.977,11.68-.355,11.752,1.888.082,6.155-16.532,4.19-16.266,4.524-23.815A12.733,12.733,0,0,0,608.426,419.344Z" transform="translate(-567.873 -414.329)" fill="#007dc3"/>
              </g>
              <g id="그룹_10397" data-name="그룹 10397" transform="translate(22.434 23.998)">
                <path id="패스_6580" data-name="패스 6580" d="M573.729,447.812q1.382.7,7.113-10.8l5.44-11.624-4.537-1.869q-2.557,5.815-4.845,11.731Q572.328,447.125,573.729,447.812Z" transform="translate(-573.4 -423.522)" fill="#007dc3"/>
              </g>
              <g id="그룹_10398" data-name="그룹 10398" transform="translate(0 3.365)">
                <path id="패스_6581" data-name="패스 6581" d="M565.942,415.618s-6.252,22.376,10.569,26.255c21.948,5.062,26.376-15.683,26.376-15.683Z" transform="translate(-564.806 -415.618)" fill="#f44ca0"/>
              </g>
            </g>
            <g id="그룹_10405" data-name="그룹 10405" transform="translate(96.062 205.468)">
              <g id="그룹_10400" data-name="그룹 10400" transform="translate(10.011 44.729)">
                <path id="패스_6582" data-name="패스 6582" d="M599.036,467.126a16.89,16.89,0,0,1,13.8-2.772,24.506,24.506,0,0,1,4.819,1.488l1.853.908-2.576-35.366-27.584-2.6-11.2,32.069a24.436,24.436,0,0,1,7.4-.12A21.073,21.073,0,0,1,599.036,467.126Z" transform="translate(-578.147 -428.787)" fill="#0060ad"/>
              </g>
              <g id="그룹_10401" data-name="그룹 10401" transform="translate(8.615 23.125)">
                <path id="패스_6583" data-name="패스 6583" d="M614.343,423.931a12.227,12.227,0,0,0-14.812-1.647,18.613,18.613,0,0,0-6.81,7.343q-4.773,8.65-10.669,28.346-5.846,19.461-3.994,19.988,1.539.423,7.419-13.044l5.589-13.553a35.91,35.91,0,0,0,17.513,4.524,25.2,25.2,0,0,0,4.968-.59l1.754-.538q.536,7.455,1.488,14.819,1.891,14.679,3.853,14.172,2.283-.587,1.336-22-.912-20.964-3.263-30.106A15.875,15.875,0,0,0,614.343,423.931Z" transform="translate(-577.612 -420.511)" fill="#007dc3"/>
              </g>
              <g id="그룹_10402" data-name="그룹 10402" transform="translate(29.065 55.701)">
                <path id="패스_6584" data-name="패스 6584" d="M586.654,464.934q1.907.337,4.568-15.49l2.271-15.871-6.1-.582q-.944,7.878-1.519,15.783Q584.727,464.623,586.654,464.934Z" transform="translate(-585.446 -432.99)" fill="#007dc3"/>
              </g>
              <g id="그룹_10404" data-name="그룹 10404">
                <g id="그룹_10403" data-name="그룹 10403">
                  <path id="패스_6585" data-name="패스 6585" d="M592.5,411.652l-18.192,17.291L580.3,445a17.8,17.8,0,0,0,7.231,8.8l8.972,5.025c3.884,2.248,14.475,4.96,21.588-3.422,4.427-5.218,2.879-15.728-2.047-18.194l-8.836-3.691c-1.295-.59-4.315-2.394-5.075-3.965Z" transform="translate(-574.312 -411.652)" fill="#ff66af"/>
                </g>
              </g>
            </g>
            <g id="그룹_10406" data-name="그룹 10406" transform="translate(0 134.698)">
              <path id="패스_6586" data-name="패스 6586" d="M628.7,399.6a33.15,33.15,0,0,0-6.57.812c-9.985,2.128-30.014,5.124-46.758-.418a46.863,46.863,0,0,1-5.354-2.117s-.493-10.52-2.945-12.371a4.662,4.662,0,0,0-6.215.522c-1.136,1.2-.911,4.461-.843,5.119a1.83,1.83,0,0,1-.366,1.645c-.893.76-2.164.5-3.487-.371s-2.986-3.07-6.406-5.424a4.03,4.03,0,0,0-5.31.671,3.87,3.87,0,0,0-.812,3.7c.687,1.994,3.777,5.359,4.085,5.761.319.418.35.8.141,1.07a.869.869,0,0,1-.843.282c-.848-.167-4.127-1.295-5.745-1.143a3.982,3.982,0,0,0-3.582,2.814,5.039,5.039,0,0,0,.407,3.783c1.415,2.24,7.474,3.362,8.084,3.542a.784.784,0,0,1,.183,1.365,44.876,44.876,0,0,0-5.1,2.751,3.81,3.81,0,0,0-1.044,3.869,3.975,3.975,0,0,0,2.973,2.892c2.435.53,5.641.06,9.23-.681,0,0,8.46,4.393,23.313,6.231,13.36,1.658,39.819.621,59.188-8.244Z" transform="translate(-537.513 -384.541)" fill="#ff66af"/>
            </g>
            <g id="그룹_10408" data-name="그룹 10408" transform="translate(61.083 150.253)">
              <g id="그룹_10407" data-name="그룹 10407">
                <path id="패스_6587" data-name="패스 6587" d="M624.029,447.639c-6.007,15.245-21.45,18.315-30.325,18.615-.741.026-1.519.039-2.31.042-.42,0-.854-.008-1.284-.018a32.423,32.423,0,0,1-14.54-3.425,25.144,25.144,0,0,1-9.063-8.184,31.838,31.838,0,0,1-2.269-3.84c-4.717-9.392-4.143-19.792.011-31.761,2.994-8.664,8.8-24.4,8.7-27.334L609.36,390.5c.1,2.937,6.584,18.414,10.533,26.681C624.879,427.578,628.114,437.294,624.029,447.639Z" transform="translate(-560.912 -390.5)" fill="#ff66af"/>
              </g>
            </g>
            <g id="그룹_10410" data-name="그룹 10410" transform="translate(134.476 203.832)">
              <g id="그룹_10409" data-name="그룹 10409">
                <path id="패스_6588" data-name="패스 6588" d="M589.028,417.34a3.914,3.914,0,0,0,1.785-2.929,5.722,5.722,0,0,0-.036-1.754,5.439,5.439,0,0,0-.574-1.632c-.021.582-.024,1.136-.031,1.681a15.221,15.221,0,0,1-.125,1.6,9.14,9.14,0,0,1-.347,1.54A7.1,7.1,0,0,1,589.028,417.34Z" transform="translate(-589.028 -411.025)" fill="#e80784"/>
              </g>
            </g>
            <g id="그룹_10411" data-name="그룹 10411" transform="translate(105.248 154.487)">
              <path id="패스_6589" data-name="패스 6589" d="M614.544,409.142c-6.889-7.025-15.381-11.4-21.3-13.879a39.7,39.7,0,0,0-12.854-3.14l-2.556.06.379,56.45,14.32,3.733s12.684,5.709,17.683-1.773c0,0,3.49-5.777-1.057-10.59,2.425-4.386,6.743-12.974,6.743-12.974C617.948,422.176,619.994,414.7,614.544,409.142Z" transform="translate(-577.831 -392.122)" fill="#ff66af"/>
            </g>
            <g id="그룹_10413" data-name="그룹 10413" transform="translate(70.362 148.569)">
              <g id="그룹_10412" data-name="그룹 10412">
                <path id="패스_6590" data-name="패스 6590" d="M564.467,389.855l1.853,4.469c6.609,7.518,24.783,7.043,40.054.553h0" transform="translate(-564.467 -389.855)" fill="#ffe600"/>
              </g>
            </g>
            <g id="그룹_10415" data-name="그룹 10415" transform="translate(57.205 157.717)">
              <g id="그룹_10414" data-name="그룹 10414">
                <path id="패스_6591" data-name="패스 6591" d="M584.835,443.369l-.316.084a118.482,118.482,0,0,1-14.172,4.3,1.766,1.766,0,0,1-2.13-1.757c-.052-5.85.54-13.282.747-15.655a1.86,1.86,0,0,0-.418-1.344c-3.7-4.5-6.952-10.59-8.847-13.712a1.866,1.866,0,0,1,.989-2.741c3.24-1.021,7.683-2.775,13.514-4.31a1.745,1.745,0,0,0,1.008-.72c1.4-2.075,5.944-9.277,10.382-13.65a1.7,1.7,0,0,1,2.506.1c4.067,4.714,8.552,12.5,9.779,14.676a1.751,1.751,0,0,0,.945.8c5.688,1.994,11.8,4.425,14.947,5.7a1.863,1.863,0,0,1,.762,2.812,129.978,129.978,0,0,1-10.5,12.9,1.855,1.855,0,0,0-.525,1.305c.011,2.381,0,9.839-.527,15.663a1.766,1.766,0,0,1-2.263,1.582,141.072,141.072,0,0,1-15.566-5.918Z" transform="translate(-559.427 -393.359)" fill="#ffe600"/>
              </g>
            </g>
            <g id="그룹_10416" data-name="그룹 10416" transform="translate(113.928 177.335)">
              <path id="패스_6592" data-name="패스 6592" d="M593.534,441.854a.678.678,0,0,1-.162-.01c-2.9-.514-11.734-2.075-12.2-11.841-.376-7.7,7.753-19.419,10.251-22.831a.747.747,0,0,0-.047-.934l-3.657-4.067a.777.777,0,0,1,1.156-1.039l3.655,4.067a2.305,2.305,0,0,1,.146,2.892c-2.422,3.307-10.3,14.65-9.956,21.836.371,7.643,6.414,9.588,10.924,10.387a.776.776,0,0,1-.107,1.54Z" transform="translate(-581.156 -400.875)" fill="#f44ca0"/>
            </g>
            <g id="그룹_10417" data-name="그룹 10417" transform="translate(135.054 200.535)">
              <path id="패스_6593" data-name="패스 6593" d="M590.556,418.491a.624.624,0,0,1-.12-.005.774.774,0,0,1-.679-.862,8.6,8.6,0,0,0-.462-3.252.775.775,0,0,1,.07-.674l2.232-3.571a.777.777,0,1,1,1.318.822l-2.041,3.266a9.586,9.586,0,0,1,.425,3.592A.777.777,0,0,1,590.556,418.491Z" transform="translate(-589.249 -409.762)" fill="#f44ca0"/>
            </g>
            <g id="그룹_10486" data-name="그룹 10486" transform="translate(20.748)">
              <g id="그룹_10469" data-name="그룹 10469">
                <g id="그룹_10422" data-name="그룹 10422">
                  <g id="그룹_10419" data-name="그룹 10419">
                    <g id="그룹_10418" data-name="그룹 10418">
                      <path id="패스_6594" data-name="패스 6594" d="M602.69,370.422s-21.1-25.835-49-37.2a3.46,3.46,0,0,0-4.717,2.282c-3.067,10.627-9.669,43.39,10.661,82.05Z" transform="translate(-545.461 -332.941)" fill="#ff66af"/>
                    </g>
                  </g>
                  <g id="그룹_10421" data-name="그룹 10421" transform="translate(7.72 11.446)">
                    <g id="그룹_10420" data-name="그룹 10420">
                      <path id="패스_6595" data-name="패스 6595" d="M584.946,364.16s-15.247-19.865-33.552-26.783a.8.8,0,0,0-1.057.559c-1.23,4.8-6.333,28.989,7.672,55.617Z" transform="translate(-548.418 -337.325)" fill="#fff"/>
                    </g>
                  </g>
                </g>
                <g id="그룹_10427" data-name="그룹 10427" transform="translate(96.43 11.449)">
                  <g id="그룹_10424" data-name="그룹 10424">
                    <g id="그룹_10423" data-name="그룹 10423">
                      <path id="패스_6596" data-name="패스 6596" d="M582.4,366.46s24.9-22.194,54.239-29.033a3.459,3.459,0,0,1,4.3,2.994c1.36,10.977,2.725,44.369-23.431,79.351Z" transform="translate(-582.401 -337.327)" fill="#ff66af"/>
                    </g>
                  </g>
                  <g id="그룹_10426" data-name="그룹 10426" transform="translate(12.692 10.773)">
                    <g id="그룹_10425" data-name="그룹 10425">
                      <path id="패스_6597" data-name="패스 6597" d="M587.263,362.646s18.184-17.221,37.35-21.176a.8.8,0,0,1,.953.72c.462,4.931,1.7,29.623-16.32,53.717Z" transform="translate(-587.263 -341.454)" fill="#fff"/>
                    </g>
                  </g>
                </g>
                <g id="그룹_10428" data-name="그룹 10428" transform="translate(0.612 33.978)">
                  <path id="패스_6598" data-name="패스 6598" d="M686.119,432.465c-2.678-3.621-6.884-6.1-9.75-7.813,3.135-12.436,14.715-72.676-53.458-78.286l-.332-.026-.295-.021c-.1-.008-.2-.018-.3-.026l-.332-.026c-68.2-5.182-66.244,56.132-65.1,68.9-3.1,1.243-7.643,3.028-10.856,6.184a48.514,48.514,0,0,0,6.714,10.859s-1.788,3.469-1.357,9.7c0,0,3.26,3.4,14.811,6.074,4.153,6.273,25.167,18.02,46.812,19.766,21.651,1.681,44.252-6.617,49.339-12.159,11.825-.82,15.581-3.67,15.581-3.67,1.4-6.08.183-9.786.183-9.786A48.526,48.526,0,0,0,686.119,432.465Z" transform="translate(-545.695 -345.957)" fill="#ff66af"/>
                </g>
                <g id="그룹_10431" data-name="그룹 10431" transform="translate(57.161 8.541)">
                  <g id="그룹_10430" data-name="그룹 10430">
                    <g id="그룹_10429" data-name="그룹 10429">
                      <path id="패스_6599" data-name="패스 6599" d="M603.643,364.638c-.775,2.068-8.291,3.172-16.683,2.49-8.484-.7-15.918-2.822-16.3-5.26v0l-3.294-22.207a.7.7,0,0,1,1.1-.684l11.6,8.126,8.867-10.635a.7.7,0,0,1,1.143.089l7.166,12.039,12.295-6.2a.705.705,0,0,1,.987.848Z" transform="translate(-567.358 -336.213)" fill="#ffe600"/>
                    </g>
                  </g>
                </g>
                <g id="그룹_10458" data-name="그룹 10458" transform="translate(22.576 83.186)">
                  <g id="그룹_10433" data-name="그룹 10433" transform="translate(39.415 28.115)">
                    <g id="그룹_10432" data-name="그룹 10432">
                      <path id="패스_6600" data-name="패스 6600" d="M586.619,381.751c-.245,3.313-3.608,6.583-9.2,6.168s-8.439-4.145-8.192-7.461c.274-3.7,4.3-5.187,9.105-4.829S586.909,377.841,586.619,381.751Z" transform="translate(-569.208 -375.578)" fill="#511b04"/>
                    </g>
                  </g>
                  <g id="그룹_10445" data-name="그룹 10445">
                    <g id="그룹_10435" data-name="그룹 10435" transform="translate(0.062)">
                      <g id="그룹_10434" data-name="그룹 10434">
                        <path id="패스_6601" data-name="패스 6601" d="M588.221,384.355a20.6,20.6,0,0,0-2.284-11.478c-2.527-4.67-6.782-7.586-13.143-8.03a16.467,16.467,0,0,0-13.989,6.064,19.039,19.039,0,0,0-4.485,10.585c-.754,7.233.88,10.465,3.1,13.425,2.9,3.856,7.166,5.563,12.225,6.124a20.221,20.221,0,0,0,7.771-.512,15.876,15.876,0,0,0,5.649-3.352,14.371,14.371,0,0,0,3.89-5.792,27.372,27.372,0,0,0,1.269-7.035" transform="translate(-554.133 -364.808)" fill="#ff41a1"/>
                      </g>
                    </g>
                    <g id="그룹_10444" data-name="그룹 10444" transform="translate(0 2.071)">
                      <g id="그룹_10441" data-name="그룹 10441">
                        <g id="그룹_10440" data-name="그룹 10440">
                          <g id="그룹_10437" data-name="그룹 10437">
                            <g id="그룹_10436" data-name="그룹 10436">
                              <path id="패스_6602" data-name="패스 6602" d="M588.332,385.074c.368-4.989-.788-10.238-4.046-14.135a15.783,15.783,0,0,0-11.326-5.3,16.606,16.606,0,0,0-14.021,6.106,21.545,21.545,0,0,0-4.122,18.9A15.422,15.422,0,0,0,566.13,401.2a22.156,22.156,0,0,0,11.327.081,16.059,16.059,0,0,0,5.665-3.37,14.468,14.468,0,0,0,3.913-5.8,27.512,27.512,0,0,0,1.3-7.035" transform="translate(-554.109 -365.602)" fill="#fff"/>
                            </g>
                          </g>
                          <g id="그룹_10439" data-name="그룹 10439" transform="translate(6.104 4.778)">
                            <g id="그룹_10438" data-name="그룹 10438">
                              <path id="패스_6603" data-name="패스 6603" d="M581.757,372.538A14.078,14.078,0,0,0,561.539,371c-6.68,6.108-7.241,18.845,1.039,23.9a16.163,16.163,0,0,0,13.6,1.407,13.094,13.094,0,0,0,7.755-9.411C585.038,382.108,584.942,376.545,581.757,372.538Z" transform="translate(-556.447 -367.432)"/>
                            </g>
                          </g>
                        </g>
                      </g>
                      <g id="그룹_10443" data-name="그룹 10443" transform="translate(9.878 6.328)">
                        <g id="그룹_10442" data-name="그룹 10442" transform="translate(0 0)">
                          <ellipse id="타원_208" data-name="타원 208" cx="2.994" cy="3.119" rx="2.994" ry="3.119" transform="matrix(0.074, -0.997, 0.997, 0.074, 0, 5.972)" fill="#fff"/>
                        </g>
                      </g>
                    </g>
                  </g>
                  <g id="그룹_10457" data-name="그룹 10457" transform="translate(63.62 4.685)">
                    <g id="그룹_10447" data-name="그룹 10447" transform="translate(0.393)">
                      <g id="그룹_10446" data-name="그룹 10446">
                        <path id="패스_6604" data-name="패스 6604" d="M578.756,383.686a20.625,20.625,0,0,1,3.952-11.013c3.19-4.247,7.829-6.5,14.187-6a16.464,16.464,0,0,1,12.94,8.061,19.041,19.041,0,0,1,2.874,11.131c-.321,7.267-2.415,10.222-5.046,12.82-3.43,3.388-7.907,4.446-12.995,4.255a20.254,20.254,0,0,1-7.609-1.652,15.882,15.882,0,0,1-5.093-4.148,14.348,14.348,0,0,1-2.991-6.3,27.39,27.39,0,0,1-.219-7.147" transform="translate(-578.631 -366.603)" fill="#ff41a1"/>
                      </g>
                    </g>
                    <g id="그룹_10456" data-name="그룹 10456" transform="translate(0 2.026)">
                      <g id="그룹_10453" data-name="그룹 10453">
                        <g id="그룹_10452" data-name="그룹 10452">
                          <g id="그룹_10449" data-name="그룹 10449" transform="translate(0.039)">
                            <g id="그룹_10448" data-name="그룹 10448">
                              <path id="패스_6605" data-name="패스 6605" d="M578.611,384.4a19.839,19.839,0,0,1,5.821-13.141,15.716,15.716,0,0,1,12.251-3.816,16.6,16.6,0,0,1,12.966,8.108,21.554,21.554,0,0,1,1.287,19.3,15.406,15.406,0,0,1-12.559,8.755,22.171,22.171,0,0,1-11.4-1.574,16.023,16.023,0,0,1-5.109-4.166,14.491,14.491,0,0,1-3.012-6.317,27.4,27.4,0,0,1-.243-7.147" transform="translate(-578.496 -367.379)" fill="#fff"/>
                            </g>
                          </g>
                          <g id="그룹_10451" data-name="그룹 10451" transform="translate(0 4.348)">
                            <g id="그룹_10450" data-name="그룹 10450">
                              <path id="패스_6606" data-name="패스 6606" d="M582.825,372.654a14.078,14.078,0,0,1,20.225,1.462c5.74,7.072,4.346,19.834-4.691,23.535a16.132,16.132,0,0,1-13.647-.744,13.182,13.182,0,0,1-6.174-10.643C578.221,381.438,579.142,376.091,582.825,372.654Z" transform="translate(-578.481 -369.044)"/>
                            </g>
                          </g>
                        </g>
                      </g>
                      <g id="그룹_10455" data-name="그룹 10455" transform="translate(2.556 6.16)">
                        <g id="그룹_10454" data-name="그룹 10454">
                          <path id="패스_6607" data-name="패스 6607" d="M579.68,372.154c-.825,1.433.812,3.2,2.5,3.527A3,3,0,1,0,583.3,369.8C581.609,369.473,580.614,370.528,579.68,372.154Z" transform="translate(-579.46 -369.739)" fill="#fff"/>
                        </g>
                      </g>
                    </g>
                  </g>
                </g>
                <g id="그룹_10463" data-name="그룹 10463" transform="translate(33.5 55.66)">
                  <g id="그룹_10460" data-name="그룹 10460">
                    <g id="그룹_10459" data-name="그룹 10459">
                      <path id="패스_6608" data-name="패스 6608" d="M566.348,354.263a8.617,8.617,0,0,1,7.706,4.756,1.683,1.683,0,0,1-.906,2.376l-.188.07a1.718,1.718,0,0,1-2.065-.768,5.241,5.241,0,0,0-4.573-2.72,5.032,5.032,0,0,0-4.492,2.7,1.726,1.726,0,0,1-2.049.822l-.35-.123a1.7,1.7,0,0,1-.914-2.454A8.712,8.712,0,0,1,566.348,354.263Z" transform="translate(-558.294 -354.263)"/>
                    </g>
                  </g>
                  <g id="그룹_10462" data-name="그룹 10462" transform="translate(66.933 5.042)">
                    <g id="그룹_10461" data-name="그룹 10461">
                      <path id="패스_6609" data-name="패스 6609" d="M592.678,356.321a8.615,8.615,0,0,0-8.387,3.407,1.682,1.682,0,0,0,.5,2.493l.172.1a1.714,1.714,0,0,0,2.164-.412,5.242,5.242,0,0,1,4.962-1.919,5.038,5.038,0,0,1,3.981,3.409,1.724,1.724,0,0,0,1.885,1.151l.366-.06a1.707,1.707,0,0,0,1.308-2.268A8.71,8.71,0,0,0,592.678,356.321Z" transform="translate(-583.935 -356.195)"/>
                    </g>
                  </g>
                </g>
                <g id="그룹_10468" data-name="그룹 10468" transform="translate(54.746 127.398)">
                  <g id="그룹_10465" data-name="그룹 10465">
                    <g id="그룹_10464" data-name="그룹 10464">
                      <path id="패스_6610" data-name="패스 6610" d="M595.785,384.891c-.762-1.425-2.673-1.4-4.051-1.159l-.008,0a64.093,64.093,0,0,1-10.335.128,65.088,65.088,0,0,1-10.248-1.715h-.008c-1.274-.431-3.279-.8-4.185.525a6.129,6.129,0,0,0-.5,3.328,15.374,15.374,0,0,0,4.349,10.721c6.077,5.868,17.393,5.179,22.274-1.814a16.8,16.8,0,0,0,2.587-6.04C595.887,387.791,596.351,385.943,595.785,384.891Z" transform="translate(-566.433 -381.745)" fill="#840000"/>
                    </g>
                  </g>
                  <g id="그룹_10467" data-name="그룹 10467" transform="translate(1.93 9.318)">
                    <g id="그룹_10466" data-name="그룹 10466">
                      <path id="패스_6611" data-name="패스 6611" d="M579.611,385.395a22.753,22.753,0,0,0-12.439,2.326c4.391,8.841,18.445,9.739,24.371,1.879A22.732,22.732,0,0,0,579.611,385.395Z" transform="translate(-567.172 -385.314)" fill="#e10c5e"/>
                    </g>
                  </g>
                </g>
              </g>
              <g id="그룹_10485" data-name="그룹 10485" transform="translate(6.514 24.564)">
                <g id="그룹_10473" data-name="그룹 10473" transform="translate(123.41 41.173)">
                  <g id="그룹_10470" data-name="그룹 10470" transform="translate(2.464 7.605)">
                    <path id="패스_6612" data-name="패스 6612" d="M596.176,369.664l1.537,13.363s4.834-11.833,6.69-21.99C604.4,361.037,598.724,364.065,596.176,369.664Z" transform="translate(-596.176 -361.037)" fill="#3a315d"/>
                  </g>
                  <g id="그룹_10471" data-name="그룹 10471" transform="translate(0 3.138)">
                    <path id="패스_6613" data-name="패스 6613" d="M599.855,372.982c-1.947.449-4.205-.217-4.6-2.77s3.824-9.28,6.5-10.549a3.311,3.311,0,0,1,4.74,2.574C606.89,364.587,601.8,372.533,599.855,372.982Z" transform="translate(-595.232 -359.326)" fill="#007e82"/>
                  </g>
                  <g id="그룹_10472" data-name="그룹 10472" transform="translate(2.026)">
                    <path id="패스_6614" data-name="패스 6614" d="M600.631,371.78c-1.95.449-4.205-.217-4.6-2.77s3.822-9.277,6.5-10.549a3.311,3.311,0,0,1,4.74,2.574C607.666,363.385,602.581,371.331,600.631,371.78Z" transform="translate(-596.008 -358.124)" fill="#007e82"/>
                  </g>
                </g>
                <g id="그룹_10477" data-name="그룹 10477" transform="translate(0 30.874)">
                  <g id="그룹_10474" data-name="그룹 10474" transform="translate(1.927 7.447)">
                    <path id="패스_6615" data-name="패스 6615" d="M555.46,366.844,551.842,379.8s-2.913-12.446-3.148-22.768C548.694,357.031,553.826,360.913,555.46,366.844Z" transform="translate(-548.694 -357.031)" fill="#303f75"/>
                  </g>
                  <g id="그룹_10475" data-name="그룹 10475" transform="translate(1.507 3.419)">
                    <path id="패스_6616" data-name="패스 6616" d="M553.5,369.545c1.856.749,4.187.446,4.978-2.013s-2.318-9.766-4.759-11.439a3.312,3.312,0,0,0-5.088,1.8C547.875,360.148,551.647,368.8,553.5,369.545Z" transform="translate(-548.533 -355.488)" fill="#007e82"/>
                  </g>
                  <g id="그룹_10476" data-name="그룹 10476">
                    <path id="패스_6617" data-name="패스 6617" d="M552.924,368.235c1.853.752,4.187.446,4.975-2.013s-2.315-9.763-4.759-11.436a3.307,3.307,0,0,0-5.085,1.793C547.3,358.84,551.068,367.486,552.924,368.235Z" transform="translate(-547.956 -354.178)" fill="#50bc9a"/>
                  </g>
                </g>
                <g id="그룹_10478" data-name="그룹 10478" transform="translate(4.125 4.59)">
                  <path id="패스_6618" data-name="패스 6618" d="M679.678,368.678c-1.689-21.914-52.3-21.241-63.365-22.115s-60.937-9.5-66.054,11.877c-2.764,11.562,2.858,22.922,9.016,27.37,6.949,5.022,24.039,7.014,33.523,4.25,8.774-2.556,11.6-10.538,20.849-9.807s10.786,9.061,19.048,12.966c8.93,4.218,26.122,4.942,33.776,1.076C673.251,390.866,680.592,380.532,679.678,368.678Z" transform="translate(-549.536 -344.109)" fill="#007e82"/>
                </g>
                <g id="그룹_10479" data-name="그룹 10479" transform="translate(4.284)">
                  <path id="패스_6619" data-name="패스 6619" d="M679.718,369.753c-1.689-21.917-51.958-25.592-63.018-26.469s-61.285-5.148-66.4,16.229c-2.767,11.564,3.1,19.92,9.251,24.371,6.949,5.02,24.042,7.012,33.523,4.25,8.776-2.558,11.6-10.541,20.852-9.807s10.784,9.058,19.048,12.963c8.928,4.221,26.12,4.942,33.773,1.076C673.528,388.939,680.631,381.607,679.718,369.753Z" transform="translate(-549.597 -342.351)" fill="#50bc9a"/>
                </g>
                <g id="그룹_10480" data-name="그룹 10480" transform="translate(10.878 6.785)">
                  <path id="패스_6620" data-name="패스 6620" d="M668.72,365.337c-2.253-14.206-40.756-18.241-56.627-19.419-15.861-1.334-54.521-3.4-58.979,10.272-3.2,9.8,1.731,16.4,9.262,20.218,5.221,2.65,18.772,5,27.133.23,6.748-3.848,12.94-9.335,20.805-8.719l.039,0,.039.005c7.863.626,13.115,7.019,19.174,11.88,7.51,6.025,21.259,5.834,26.832,4.041C664.433,381.258,670.336,375.523,668.72,365.337Z" transform="translate(-552.123 -344.95)" fill="#add8f3"/>
                </g>
                <g id="그룹_10481" data-name="그룹 10481" transform="translate(11.797 9.262)">
                  <path id="패스_6621" data-name="패스 6621" d="M558.824,373.107l11.893-27.07-4.78-.138-13.462,19.594A16.581,16.581,0,0,0,558.824,373.107Z" transform="translate(-552.475 -345.899)" fill="#fff"/>
                </g>
                <g id="그룹_10482" data-name="그룹 10482" transform="translate(21.262 6.952)">
                  <path id="패스_6622" data-name="패스 6622" d="M570.5,379.276l6.3-34.262c-.668.029-1.336.068-2,.107l-7.228,1.595L556.1,376.365C559.106,377.85,564.7,379.221,570.5,379.276Z" transform="translate(-556.101 -345.014)" fill="#fff"/>
                </g>
                <g id="그룹_10484" data-name="그룹 10484" transform="translate(11.867 5.73)">
                  <g id="그룹_10483" data-name="그룹 10483">
                    <path id="패스_6623" data-name="패스 6623" d="M611.286,349.034c-8.868-.7-45.742-3.858-58.784,7.813v-.005c4.459-13.676,43.225-12.953,59.086-11.622,15.871,1.177,54.268,6.563,56.52,20.768l0,.005C657.067,352.417,620.153,349.736,611.286,349.034Z" transform="translate(-552.502 -344.546)" fill="#007e82"/>
                  </g>
                </g>
              </g>
            </g>
            <g id="그룹_10494" data-name="그룹 10494" transform="translate(93.437 7.024)">
              <g id="그룹_10487" data-name="그룹 10487" transform="translate(0 125.664)">
                <path id="패스_6624" data-name="패스 6624" d="M588.566,384.056q-4.08-1.167-8.28,2.449a20.33,20.33,0,0,0-6.019,9.93,20.116,20.116,0,0,0-.191,11.629q1.6,5.306,5.667,6.5,4.108,1.179,8.283-2.448a22.379,22.379,0,0,0,6.247-21.572Q592.671,385.233,588.566,384.056Z" transform="translate(-573.307 -383.771)" fill="#303f75"/>
              </g>
              <g id="그룹_10488" data-name="그룹 10488" transform="translate(6.626 130.879)">
                <path id="패스_6625" data-name="패스 6625" d="M591.57,390.875q-1.2-3.974-4.263-4.889-3.07-.885-6.223,1.832a16.8,16.8,0,0,0-4.675,16.192q1.2,3.975,4.273,4.861t6.223-1.83a15.2,15.2,0,0,0,4.49-7.481A15,15,0,0,0,591.57,390.875Z" transform="translate(-575.845 -385.769)" fill="#0060ad"/>
              </g>
              <g id="그룹_10489" data-name="그룹 10489" transform="translate(11.594)">
                <path id="패스_6626" data-name="패스 6626" d="M636.733,335.706a14.062,14.062,0,0,0-4.965,1.245q-1.754,16.042-7.737,59.019-6.351,45.492-8.494,55.68a44.421,44.421,0,0,1-2.493,8.531,16.076,16.076,0,0,1-5.8,7.166,23.477,23.477,0,0,1-9.444,3.83,37.856,37.856,0,0,1-11.042-.533,6.935,6.935,0,0,0-5.954,1.572,9.15,9.15,0,0,0-2.825,5.153,9.452,9.452,0,0,0,.475,5.732,5.115,5.115,0,0,0,3.887,3.281,49.867,49.867,0,0,0,19.3.24,41.484,41.484,0,0,0,15.263-6.685,27.331,27.331,0,0,0,8.7-9.8,61.041,61.041,0,0,0,5-14.918q2.032-9.2,9.037-57.014,6.143-41.744,8.411-59.481A16.926,16.926,0,0,0,636.733,335.706Z" transform="translate(-577.748 -335.631)" fill="#007dc3"/>
              </g>
              <g id="그룹_10490" data-name="그룹 10490" transform="translate(50.027 86.628)">
                <path id="패스_6627" data-name="패스 6627" d="M592.894,377q-1.077,6.915.588,8.231,2.792,2.181,8.411,2.913a21.957,21.957,0,0,0,8.76-.36q1.422-.388,2.543-7.628,1.1-7.189.136-8.233-1.77-1.864-8.064-2.7-5.987-.83-8.933.031Q593.958,369.957,592.894,377Z" transform="translate(-592.471 -368.817)" fill="#0060ad"/>
              </g>
              <g id="그룹_10491" data-name="그룹 10491" transform="translate(56.53 64.353)">
                <path id="패스_6628" data-name="패스 6628" d="M594.962,365.706a30.535,30.535,0,0,1,8.045.055,26.59,26.59,0,0,1,7.534,2.187l.749-5.077a23.069,23.069,0,0,0-7.722-2.331,23.9,23.9,0,0,0-7.878.141Z" transform="translate(-594.962 -360.284)" fill="#0060ad"/>
              </g>
              <g id="그룹_10492" data-name="그룹 10492" transform="translate(58.221 52.347)">
                <path id="패스_6629" data-name="패스 6629" d="M595.61,361.063a29.792,29.792,0,0,1,8.1.141,25.427,25.427,0,0,1,7.539,2.318l.739-5.051A22.61,22.61,0,0,0,604.3,356a24.5,24.5,0,0,0-7.991.031Z" transform="translate(-595.61 -355.685)" fill="#0060ad"/>
              </g>
              <g id="그룹_10493" data-name="그룹 10493" transform="translate(59.874 40.346)">
                <path id="패스_6630" data-name="패스 6630" d="M604.312,356.655a25.3,25.3,0,0,1,7.492,2.357l.131.057.728-5.022-.078-.037a21.3,21.3,0,0,0-7.594-2.558,24.233,24.233,0,0,0-8.045-.055l-.7,5.035A30.832,30.832,0,0,1,604.312,356.655Z" transform="translate(-596.243 -351.087)" fill="#0060ad"/>
              </g>
            </g>
          </g>
          <g id="그룹_10504" data-name="그룹 10504" transform="translate(144.908 42.824)">
            <path id="패스_6631" data-name="패스 6631" d="M637.625,395.025c13.227,5.082,18.617,27.649,12.814,36.339-4.8-.146-22.074-3.4-26.788-4.949a54.972,54.972,0,0,1-14.827-7.719c-.292-.238-.572-.465-.835-.673a39.606,39.606,0,0,1-9.925-10.4,27.016,27.016,0,0,1-5.041-13.618S616.7,398.933,637.625,395.025Z" transform="translate(-593.024 -277.424)" fill="#ffd61a"/>
            <path id="패스_6632" data-name="패스 6632" d="M693.24,394.763a40.024,40.024,0,0,1-6.093,17.009,42.915,42.915,0,0,1-10.556,10.956c-.282.222-.574.459-.885.71a58.235,58.235,0,0,1-15.571,8.124,52.132,52.132,0,0,1-14.853,2.652c-.966-.512-1.9-1.07-2.8-1.668a43.852,43.852,0,0,1-1.42-15.088,66.337,66.337,0,0,1,3.793-17.973c.525-.355,1.062-.713,1.616-1.065C646.471,398.42,668.033,403.265,693.24,394.763Z" transform="translate(-515.842 -276.206)" fill="#ffd61a"/>
            <path id="패스_6633" data-name="패스 6633" d="M718.737,385.423a165.354,165.354,0,0,1-5.659,43.557q-5.967,21.884-17.346,37.151-26.646,35.687-74.013,26.587l-.35-7.134q11.723-3.9,12.387-12.245.481-6.371-6.124-19.9-12.189-24.969-13.227-27.443-7.682-18.423-9.019-34.987Z" transform="translate(-573.118 -291.248)" fill="#ffd61a"/>
            <path id="패스_6634" data-name="패스 6634" d="M637.481,444.805s6.02-19.306-6.795-27.25c-6.957-4.312-16.944-6.638-31.871-.457,0,0,39.01,20.745,30.821,60.05,0,0,30.8-9.123,9.8-31.353Z" transform="translate(-583.697 -246.315)" fill="#ffd61a"/>
            <g id="그룹_10503" data-name="그룹 10503" transform="translate(18.87)">
              <path id="패스_6635" data-name="패스 6635" d="M625.745,382.021l10.006-.086a171.8,171.8,0,0,0-2.425-25.026c-.655-4.025-1.237-7.562-2.493-7.562-1.417,0-2.127,3.712-2.743,7.787A186.71,186.71,0,0,0,625.745,382.021Z" transform="translate(-559.2 -349.346)" fill="#ffc91a"/>
              <path id="패스_6636" data-name="패스 6636" d="M623.209,377.917c-13.459,13.136-22.225,32.714-22.818,50.751,0,0-3.057,26.026,19.562,41.8,14.054,9.8,27.717,14.42,51.621,15.1,25.295-.59,37.585-5.163,51.676-14.905,22.682-15.683,19.722-41.72,19.722-41.72-.525-18.043-9.087-38.553-22.687-51.542C707,364.693,688.936,358.992,671.2,358.464,671.2,358.464,643.771,357.853,623.209,377.917Z" transform="translate(-600.252 -334.665)" fill="#ffd61a"/>
              <path id="패스_6637" data-name="패스 6637" d="M743.077,388.166c-13.462-7-27.965-.107-27.965-.107-16.156,6.7-29.409,8.024-43.622,8.043-15.553-.227-27.958-1.316-44.4-8.212,0,0-13.645-6.542-26.78-.567-.282,5.051-.251,26.845,19.646,40.717,14.054,9.8,27.717,14.42,51.621,15.1,25.295-.59,37.585-5.163,51.675-14.905C742.523,414.909,743.283,394.117,743.077,388.166Z" transform="translate(-600.253 -292.241)" fill="#fff"/>
              <g id="그룹_10496" data-name="그룹 10496" transform="translate(121.914 78.328)">
                <path id="패스_6638" data-name="패스 6638" d="M654.634,387.2a.4.4,0,0,1,.2-.211c.248-.123.768-.381,1.148-.582s1.057-.606,1.5-.875a.428.428,0,0,0,.081-.666c-.747-.757-1.728-1.6-2.078-1.9a.411.411,0,0,1-.146-.282,24.1,24.1,0,0,0-.488-2.994.426.426,0,0,0-.614-.284c-.6.313-1.65.872-2.6,1.423a.409.409,0,0,1-.287.052,20.6,20.6,0,0,0-3.219-.368.429.429,0,0,0-.431.462,20.27,20.27,0,0,0,.582,3.166.421.421,0,0,1-.031.292c-.491.979-.979,2.057-1.253,2.67a.426.426,0,0,0,.326.6,24.356,24.356,0,0,0,3.033.287.4.4,0,0,1,.292.123c.321.329,1.237,1.25,2.049,1.942a.427.427,0,0,0,.655-.123c.188-.352.444-.848.642-1.269C654.253,388.1,654.519,387.473,654.634,387.2Z" transform="translate(-646.956 -379.352)" fill="#ffc026"/>
              </g>
              <g id="그룹_10500" data-name="그룹 10500" transform="translate(21.674 57)">
                <g id="그룹_10497" data-name="그룹 10497" transform="translate(62.762 0.123)">
                  <path id="패스_6639" data-name="패스 6639" d="M648.364,371.393a16.472,16.472,0,0,0-11.478,6.892,17.921,17.921,0,0,0-3.383,13.394,18.623,18.623,0,0,0,6.829,12.256,16.766,16.766,0,0,0,24.358-3.169,18.111,18.111,0,0,0,3.383-13.5,18.551,18.551,0,0,0-6.829-12.151A16.2,16.2,0,0,0,648.364,371.393Z" transform="translate(-631.426 -371.229)" fill="#ffc026"/>
                  <path id="패스_6640" data-name="패스 6640" d="M647.636,371.885a16.476,16.476,0,0,0-11.478,6.894,17.936,17.936,0,0,0-3.383,13.391,18.615,18.615,0,0,0,6.831,12.256,16.76,16.76,0,0,0,24.358-3.169,18.1,18.1,0,0,0,3.38-13.5,18.545,18.545,0,0,0-6.829-12.151A16.2,16.2,0,0,0,647.636,371.885Z" transform="translate(-632.596 -370.437)" fill="#fff"/>
                  <path id="패스_6641" data-name="패스 6641" d="M647.033,374.036a12.487,12.487,0,0,0-9.413,2.913,12.9,12.9,0,0,0-4.915,8.907,13.234,13.234,0,0,0,2.647,9.865,11.449,11.449,0,0,0,8.549,4.855,12.45,12.45,0,0,0,9.525-2.8,13.453,13.453,0,0,0,4.8-9.019A12.89,12.89,0,0,0,655.585,379,12.084,12.084,0,0,0,647.033,374.036Z" transform="translate(-632.598 -366.808)" fill="#501e00"/>
                  <path id="패스_6642" data-name="패스 6642" d="M635.489,375.776c-.115-.052-.24-.073-.36-.128a9.112,9.112,0,0,0-2.4,4.263,2.231,2.231,0,0,1,.2.125c1.851.911,3.918.7,4.634-.483C638.266,378.389,637.342,376.7,635.489,375.776Z" transform="translate(-632.391 -364.113)" fill="#fff"/>
                </g>
                <g id="그룹_10498" data-name="그룹 10498">
                  <path id="패스_6643" data-name="패스 6643" d="M628.13,371.305a16.671,16.671,0,0,0-12.867,3.832,17.882,17.882,0,0,0-6.576,12.2,18.065,18.065,0,0,0,3.639,13.373,16.917,16.917,0,0,0,24.475,2.918,17.9,17.9,0,0,0,6.576-12.2,18.236,18.236,0,0,0-3.641-13.478A16.234,16.234,0,0,0,628.13,371.305Z" transform="translate(-608.555 -371.182)" fill="#ffc026"/>
                  <path id="패스_6644" data-name="패스 6644" d="M628.852,371.82a16.67,16.67,0,0,0-12.864,3.835,18.68,18.68,0,0,0-2.937,25.572,16.917,16.917,0,0,0,24.475,2.918,17.89,17.89,0,0,0,6.573-12.2,18.216,18.216,0,0,0-3.639-13.475A16.237,16.237,0,0,0,628.852,371.82Z" transform="translate(-607.39 -370.352)" fill="#fff"/>
                  <path id="패스_6645" data-name="패스 6645" d="M627.242,374a12.481,12.481,0,0,0-9.413,2.911,12.9,12.9,0,0,0-4.913,8.907,13.219,13.219,0,0,0,2.644,9.865,11.458,11.458,0,0,0,8.552,4.858,12.453,12.453,0,0,0,9.523-2.8,13.456,13.456,0,0,0,4.806-9.016,12.887,12.887,0,0,0-2.647-9.755A12.066,12.066,0,0,0,627.242,374Z" transform="translate(-601.705 -366.745)" fill="#501e00"/>
                  <path id="패스_6646" data-name="패스 6646" d="M615.693,375.738c-.115-.05-.24-.073-.36-.128a9.153,9.153,0,0,0-2.4,4.263c.081.039.123.084.2.125,1.851.911,3.918.7,4.633-.483C618.47,378.354,617.546,376.659,615.693,375.738Z" transform="translate(-601.514 -364.05)" fill="#fff"/>
                </g>
                <g id="그룹_10499" data-name="그룹 10499" transform="translate(42.248 31.93)">
                  <path id="패스_6647" data-name="패스 6647" d="M625.3,383.819a1.828,1.828,0,0,0-.551,1.608,3.326,3.326,0,0,0,.835,1.882,3.418,3.418,0,0,0,1.739,1.117,1.761,1.761,0,0,0,1.647-.3,1.781,1.781,0,0,0,.551-1.566,3.357,3.357,0,0,0-.835-1.924,3.433,3.433,0,0,0-1.738-1.117A1.76,1.76,0,0,0,625.3,383.819Z" transform="translate(-624.74 -383.374)" fill="#ca8140"/>
                  <path id="패스_6648" data-name="패스 6648" d="M631.129,383.532a3.368,3.368,0,0,0-1.7,1.2,3.075,3.075,0,0,0-.739,1.937,1.666,1.666,0,0,0,2.287,1.791,3.356,3.356,0,0,0,1.7-1.2,3.58,3.58,0,0,0,.741-1.939,1.741,1.741,0,0,0-.622-1.564A1.7,1.7,0,0,0,631.129,383.532Z" transform="translate(-618.377 -383.414)" fill="#ca8140"/>
                </g>
              </g>
              <g id="그룹_10502" data-name="그룹 10502" transform="translate(32.669 97.282)">
                <path id="패스_6649" data-name="패스 6649" d="M612.884,386.994c6.208,2.211,17.294,5.826,39.234,5.508,23.8-.345,37.994-5.889,37.994-5.889s4.192,35.562-38.047,35.481C608.6,422.01,612.884,386.994,612.884,386.994Z" transform="translate(-612.767 -386.613)" fill="#ba0000"/>
                <g id="그룹_10501" data-name="그룹 10501" clip-path="url(#clip-path-8)">
                  <path id="패스_6650" data-name="패스 6650" d="M649.763,386.272l-35.823-.123a33.516,33.516,0,0,0,9.445,11.042,28.292,28.292,0,0,1,7.784-4.312,55.429,55.429,0,0,0,9.463,9.105,75.119,75.119,0,0,1,9.118-7.544c1.616.611,8.28,6.766,9.074,7.484a56.77,56.77,0,0,0,9.575-9.17c2.869,1.172,6.009,2.574,7.81,4.258a33.573,33.573,0,0,0,9.374-11.107Z" transform="translate(-610.879 -387.755)" fill="#fff"/>
                </g>
              </g>
            </g>
            <path id="패스_6652" data-name="패스 6652" d="M626.988,452.411c9.017-10.807-.913-37.42-3.5-49.741l50.269-.352c-2.882,23.058-6.513,38.242-17.722,49.65-10.854,11.021-22.523,13.339-38.472,11.9a2.14,2.14,0,0,1-1.987-2.031,2.79,2.79,0,0,1,1.791-3.206C618.917,458.052,621.854,457.7,626.988,452.411Z" transform="translate(-556.779 -264.041)" fill="#fff"/>
          </g>
        </g>
      </g>
    </g>
  </g>
</svg>
