<?xml version="1.0" encoding="utf-8"?>
<!-- Generator: Adobe Illustrator 24.1.3, SVG Export Plug-In . SVG Version: 6.00 Build 0)  -->
<svg version="1.1" id="Layer_1" xmlns="http://www.w3.org/2000/svg" xmlns:xlink="http://www.w3.org/1999/xlink" x="0px" y="0px"
	 viewBox="0 0 45 45" style="enable-background:new 0 0 45 45;" xml:space="preserve">
<style type="text/css">
	.st0{fill:#F8F8F8;}
	.st1{fill:#383838;}
</style>
<path id="패스_7788" class="st0" d="M22.5,0C34.9,0,45,10.1,45,22.5S34.9,45,22.5,45S0,34.9,0,22.5S10.1,0,22.5,0z"/>
<path id="패스_8320" class="st1" d="M31.8,14.4c-1.8-0.5-9.2-0.5-9.2-0.5s-7.4,0-9.2,0.5c-1,0.3-1.8,1.1-2.1,2.1
	c-0.3,1.9-0.5,3.8-0.5,5.6c0,1.9,0.2,3.8,0.5,5.6c0.3,1,1.1,1.8,2.1,2.1c1.8,0.5,9.2,0.5,9.2,0.5s7.4,0,9.2-0.5
	c1-0.3,1.8-1.1,2.1-2.1c0.3-1.9,0.5-3.8,0.5-5.6c0-1.9-0.2-3.8-0.5-5.6C33.6,15.5,32.8,14.7,31.8,14.4z M20.2,25.6v-6.9l6.1,3.5
	L20.2,25.6z"/>
</svg>
