<?xml version="1.0" encoding="utf-8"?>
<!-- Generator: Adobe Illustrator 24.1.3, SVG Export Plug-In . SVG Version: 6.00 Build 0)  -->
<svg version="1.1" id="Layer_1" xmlns="http://www.w3.org/2000/svg" xmlns:xlink="http://www.w3.org/1999/xlink" x="0px" y="0px"
	 viewBox="0 0 60 60" style="enable-background:new 0 0 60 60;" xml:space="preserve">
<style type="text/css">
	.st0{fill:#2E2E2E;}
	.st1{opacity:0.8;}
	.st2{fill:#FFFFFF;}
	.st3{fill:#383838;}
</style>
<g id="그룹_14482" transform="translate(-661 -37)">
	<path id="패스_7792" class="st0" d="M691,37c16.6,0,30,13.4,30,30s-13.4,30-30,30s-30-13.4-30-30S674.4,37,691,37z"/>
	<g id="그룹_14428" transform="translate(660.492 36.944)" class="st1">
		<path id="패스_7754" class="st2" d="M45.1,22.5c-0.4-1.4-1.4-2.4-2.8-2.8c-2.4-0.7-12.2-0.7-12.2-0.7s-9.8,0-12.2,0.7
			c-1.4,0.4-2.4,1.4-2.8,2.8c-0.4,2.5-0.7,5-0.7,7.6c0,2.5,0.2,5.1,0.7,7.6c0.4,1.4,1.4,2.4,2.8,2.8c2.4,0.7,12.2,0.7,12.2,0.7
			s9.8,0,12.2-0.7c1.3-0.4,2.4-1.4,2.8-2.8c0.5-2.5,0.7-5,0.7-7.6C45.8,27.5,45.5,25,45.1,22.5z"/>
		<path id="패스_7755" class="st3" d="M26.9,34.7l8.2-4.6l-8.2-4.6L26.9,34.7z"/>
	</g>
</g>
</svg>
