<svg xmlns="http://www.w3.org/2000/svg" viewBox="0 0 24 24"><g fill-rule="evenodd"><path d="m4 20.5v-17c0-.53.21-1.04.59-1.41.38-.38.88-.59 1.41-.59h12c.53 0 1.04.21 1.41.59.38.38.59.88.59 1.41v17c0 .53-.21 1.04-.59 1.41-.38.38-.88.59-1.41.59h-12c-.53 0-1.04-.21-1.41-.59-.38-.38-.59-.88-.59-1.41z" fill="#c370e0"/><path d="m10.5 7.5h3v-3h-3z" fill="#fff"/><path d="m17 23c.79 0 1.57-.16 2.3-.46s1.39-.74 1.95-1.3 1-1.22 1.3-1.95.46-1.51.46-2.3-.16-1.57-.46-2.3-.74-1.39-1.3-1.95-1.22-1-1.95-1.3-1.51-.46-2.3-.46c-1.59 0-3.12.63-4.24 1.76-1.13 1.13-1.76 2.65-1.76 4.24s.63 3.12 1.76 4.24c1.13 1.13 2.65 1.76 4.24 1.76z" fill="#2272e6"/><path d="m17.38 13.89.76 1.53c.03.06.07.11.13.15.05.04.12.07.19.08l1.69.25c.34.05.48.47.23.71l-1.22 1.19s-.09.11-.11.17-.03.13-.01.2l.29 1.68c.01.08 0 .16-.03.23s-.08.13-.14.18-.14.07-.22.08c-.08 0-.16-.01-.22-.05l-1.51-.79c-.06-.03-.13-.05-.19-.05s-.13.02-.19.05l-1.51.8c-.07.04-.15.05-.22.05-.08 0-.15-.03-.22-.08-.06-.05-.11-.11-.14-.18s-.04-.15-.02-.23l.29-1.68c.01-.07 0-.14-.01-.2-.02-.06-.06-.12-.11-.17l-1.22-1.19c-.06-.05-.1-.12-.11-.2-.02-.08-.02-.16 0-.23s.07-.14.13-.19.13-.08.21-.09l1.69-.25c.07 0 .13-.04.19-.07.05-.04.1-.09.13-.15l.76-1.53c.03-.07.09-.13.15-.17s.14-.06.22-.06.15.02.22.06.12.1.15.17z" fill="#fff"/></g></svg>