<svg xmlns="http://www.w3.org/2000/svg" viewBox="0 0 24 24" class=" "><g fill="none" fill-rule="evenodd"><path fill="#FFB131" d="M3.5 18.205h16V9.858h-16z"/><path fill="#FFCF58" d="M2 21.069h18v-3H2zM11.5 7.932a1.5 1.5 0 110-3 1.5 1.5 0 010 3m8.992-1.923L11.5.932 2.508 6.009a1 1 0 00-.508.87v3.417h19V6.88a1 1 0 00-.508-.871"/><path fill="#4E5968" d="M14.5 17.5c0-1.378 1.121-2.5 2.5-2.5s2.5 1.122 2.5 2.5S18.379 20 17 20a2.503 2.503 0 01-2.5-2.5zm8.707 4.793l-2.406-2.407A4.467 4.467 0 0021.5 17.5c0-2.48-2.019-4.5-4.5-4.5a4.505 4.505 0 00-4.5 4.5c0 2.481 2.019 4.5 4.5 4.5.879 0 1.692-.263 2.387-.7l2.406 2.407 1.414-1.414z"/></g></svg>