<svg xmlns="http://www.w3.org/2000/svg" viewBox="0 0 24 24" class=" "><g fill-rule="evenodd" clip-rule="evenodd"><path d="M12 2.5c-5.2 0-9.5 4.3-9.5 9.5s4.3 9.5 9.5 9.5 9.5-4.3 9.5-9.5-4.3-9.5-9.5-9.5m0 21C5.7 23.5.5 18.3.5 12S5.7.5 12 .5 23.5 5.7 23.5 12 18.3 23.5 12 23.5" fill="#afb7c0"/><path d="M12 2.5c-5.2 0-9.5 4.3-9.5 9.5s4.3 9.5 9.5 9.5 9.5-4.3 9.5-9.5-4.3-9.5-9.5-9.5" fill="#fff"/><path d="M7.3 15.9c-.3 0-.6-.2-.8-.4-.3-.5-.2-1.1.3-1.4l4.7-3.2c.5-.3 1.1-.2 1.4.3.3.5.2 1.1-.3 1.4l-4.7 3.1c-.2.2-.4.2-.6.2" fill="#ef4452"/><path d="M12 12.8c-.6 0-1-.4-1-1V6.6c0-.6.4-1 1-1s1 .4 1 1v5.2c0 .5-.4 1-1 1" fill="#4e5968"/></g></svg>