<svg xmlns="http://www.w3.org/2000/svg" width="37" height="36" viewBox="0 0 37 36">
    <g fill="none" fill-rule="evenodd" opacity=".7">
        <path fill="#6B7684" d="M36 18c0 9.941-8.059 18-18 18S0 27.941 0 18 8.059 0 18 0s18 8.059 18 18"/>
        <path fill="#F1F1F2" d="M16.247 19.452v2.946h2.551c1.411 0 2.034-.54 2.034-1.494s-.519-1.452-2.096-1.452h-2.49zm0-5.87v2.696h2.634c1.287 0 1.764-.58 1.764-1.39 0-.83-.519-1.307-1.784-1.307h-2.614zm-3.527-3.154h5.995c3.652 0 5.519 1.493 5.519 4.335 0 1.37-.56 2.345-1.535 2.967 1.161.664 1.825 1.722 1.825 3.258 0 3.153-2.178 4.584-5.809 4.584H12.72V10.428z"/>
    </g>
</svg>
