<svg width="34" height="34" viewBox="0 0 34 34" fill="none" xmlns="http://www.w3.org/2000/svg">
<path d="M22.6809 27.0109H7.85746C6.83224 27.0109 6 26.0822 6 24.9364V22.7171C6 21.137 6.66338 19.557 7.9057 18.5559C9.29276 17.4463 11.1743 17.2171 12.8268 16.7226C15.9386 15.7938 21.7884 14.6601 20.8958 10.1732C20.6908 9.13594 20.0757 8.23134 19.2314 7.62827C18.5921 7.182 17.8081 6.98901 17.0241 6.98901H16.9759C16.1919 6.98901 15.4079 7.16993 14.7686 7.62827C13.9243 8.23134 13.3092 9.13594 13.1042 10.1732C12.2116 14.6601 18.0614 15.8059 21.1732 16.7226C22.8257 17.2171 24.7193 17.4342 26.0943 18.5559C27.3366 19.557 28 21.137 28 22.7171V24.9364C28 26.0822 27.1678 27.0109 26.1425 27.0109" stroke="#333333" stroke-width="1.5" stroke-miterlimit="10" stroke-linecap="round"/>
</svg>
