<svg xmlns="http://www.w3.org/2000/svg" width="16" height="16" viewBox="0 0 16 16"><defs><style>.a,.b{fill:#c80a1e;}.a{opacity:0;}</style></defs><rect class="a" width="16" height="16"/><g transform="translate(2 3)"><path class="b" d="M309.644,76.169h0a3.109,3.109,0,0,0-4.392,0l-.7.7-.7-.7a3.109,3.109,0,0,0-4.392,0h0a3.109,3.109,0,0,0,0,4.392l4.725,4.725c.009.011.016.022.026.032a.477.477,0,0,0,.675,0l4.757-4.757A3.109,3.109,0,0,0,309.644,76.169Zm-.675,3.717L304.552,84.3l-4.417-4.417a2.151,2.151,0,0,1,3.042-3.042l1.036,1.036h0a.476.476,0,0,0,.338.14h0a.476.476,0,0,0,.338-.14l1.037-1.037a2.151,2.151,0,0,1,3.042,3.042Z" transform="translate(-298.552 -75.26)"/></g></svg>