<svg xmlns="http://www.w3.org/2000/svg" width="22" height="22" viewBox="0 0 22 22"><defs><style>.a{fill:none;}.b{fill:#c80a1e;}</style></defs><rect class="a" width="22" height="22"/><path class="b" d="M21130.02,15574.22h0a.47.47,0,0,1-.359-.181.435.435,0,0,1-.08-.393l1.348-5.217a.338.338,0,0,0-.111-.345l-4.16-3.429a.445.445,0,0,1-.139-.493.435.435,0,0,1,.4-.313l5.375-.329a.353.353,0,0,0,.3-.218l1.975-5.01a.466.466,0,0,1,.256-.254.436.436,0,0,1,.17-.033.458.458,0,0,1,.424.287l1.975,5.01a.345.345,0,0,0,.3.218l5.381.329a.432.432,0,0,1,.318.165.441.441,0,0,1,.107.327.446.446,0,0,1-.16.314l-4.156,3.429a.329.329,0,0,0-.115.345l1.348,5.217a.443.443,0,0,1-.086.393.451.451,0,0,1-.355.175.423.423,0,0,1-.244-.068l-4.543-2.893a.337.337,0,0,0-.186-.053.33.33,0,0,0-.186.053l-4.553,2.893A.425.425,0,0,1,21130.02,15574.22Z" transform="translate(-21123.992 -15555.006)"/></svg>