<svg xmlns="http://www.w3.org/2000/svg" width="20" height="20" viewBox="0 0 20 20">
    <g id="prefix__그룹_13" data-name="그룹 13" transform="translate(-1289 -760)">
        <path id="prefix__사각형_46" d="M0 0H20V20H0z" data-name="사각형 46" transform="translate(1289 760)" style="fill:#f55;opacity:0"/>
        <path id="prefix__아트웍_10" d="M30.165 23.2c-4.883.047-8.865 3.176-8.865 7.016A6.7 6.7 0 0 0 25.235 36a8.109 8.109 0 0 1-1.659 2.987c-.047.047-.379.332-.047.379a16.428 16.428 0 0 0 5.025-2.276l1.659.095c4.883-.047 8.865-3.176 8.865-7.016s-4.03-7.017-8.913-6.969z" data-name="아트웍 10" transform="translate(1268.811 739.023)" style="fill:#333"/>
    </g>
</svg>
