<?xml version="1.0" encoding="UTF-8"?>
<svg width="40px" height="40px" viewBox="0 0 40 40" version="1.1" xmlns="http://www.w3.org/2000/svg" xmlns:xlink="http://www.w3.org/1999/xlink">
    <!-- Generator: Sketch 61.2 (89653) - https://sketch.com -->
    <title>icon-factory</title>
    <desc>Created with Sketch.</desc>
    <g id="icon-factory" stroke="none" stroke-width="1" fill="none" fill-rule="evenodd">
        <path d="M7.4878,12.293 L10.3558,12.293 L11.8688,38.004 L5.9738,38.004 L7.4878,12.293 Z M23.8818,22.455 L23.8818,30.864 L34.8648,22.746 L34.8648,38.004 L13.8718,38.004 L13.2998,28.277 L23.8818,22.455 Z M36.8648,38.004 L36.8648,18.781 L25.8818,26.899 L25.8818,19.072 L13.1688,26.066 L12.2408,10.293 L9.9428,10.293 C10.0528,8.323 11.6758,6.751 13.6748,6.751 L21.5968,6.751 C24.7688,6.751 27.3498,4.171 27.3498,1 L25.3498,1 C25.3498,3.068 23.6658,4.751 21.5968,4.751 L13.6748,4.751 C10.5728,4.751 8.0428,7.219 7.9318,10.293 L5.6018,10.293 L3.9708,38.004 L0.9998,38.004 L0.9998,40.004 L39.0248,40.004 L39.0248,38.004 L36.8648,38.004 Z" id="Fill-1" fill="#E4E4E4"></path>
    </g>
</svg>