<svg width="10" height="10" viewBox="0 0 10 10" fill="none" xmlns="http://www.w3.org/2000/svg">
<path d="M5.5 0.5C5.5 0.223858 5.27614 4.82823e-08 5 0C4.72386 -4.82823e-08 4.5 0.223858 4.5 0.5L5.5 0.5ZM4.64645 9.35355C4.84171 9.54882 5.15829 9.54882 5.35355 9.35355L8.53553 6.17157C8.7308 5.97631 8.7308 5.65973 8.53553 5.46447C8.34027 5.2692 8.02369 5.2692 7.82843 5.46447L5 8.29289L2.17157 5.46447C1.97631 5.2692 1.65973 5.2692 1.46447 5.46447C1.2692 5.65973 1.2692 5.97631 1.46447 6.17157L4.64645 9.35355ZM4.5 0.5L4.5 9L5.5 9L5.5 0.5L4.5 0.5Z" fill="#4A95FF"/>
</svg>
