<svg width="30" height="30" viewBox="0 0 30 30" fill="none" xmlns="http://www.w3.org/2000/svg">
<path fill-rule="evenodd" clip-rule="evenodd" d="M5.3999 14.7999C5.3999 14.3293 5.75807 13.9478 6.1999 13.9478H24.1999C24.6417 13.9478 24.9999 14.3293 24.9999 14.7999C24.9999 15.2706 24.6417 15.6521 24.1999 15.6521H6.1999C5.75807 15.6521 5.3999 15.2706 5.3999 14.7999Z" fill="#3C3C3C"/>
<path fill-rule="evenodd" clip-rule="evenodd" d="M5.3999 7.34338C5.3999 6.87274 5.75807 6.49121 6.1999 6.49121H24.1999C24.6417 6.49121 24.9999 6.87274 24.9999 7.34338C24.9999 7.81403 24.6417 8.19556 24.1999 8.19556H6.1999C5.75807 8.19556 5.3999 7.81403 5.3999 7.34338Z" fill="#3C3C3C"/>
<path fill-rule="evenodd" clip-rule="evenodd" d="M5.3999 22.2565C5.3999 21.7858 5.75807 21.4043 6.1999 21.4043H24.1999C24.6417 21.4043 24.9999 21.7858 24.9999 22.2565C24.9999 22.7271 24.6417 23.1086 24.1999 23.1086H6.1999C5.75807 23.1086 5.3999 22.7271 5.3999 22.2565Z" fill="#3C3C3C"/>
</svg>
