<svg width="10" height="10" viewBox="0 0 10 10" fill="none" xmlns="http://www.w3.org/2000/svg">
<path d="M4.5 9.5C4.5 9.77614 4.72386 10 5 10C5.27614 10 5.5 9.77614 5.5 9.5L4.5 9.5ZM5.35355 0.646447C5.15829 0.451184 4.84171 0.451184 4.64645 0.646447L1.46447 3.82843C1.2692 4.02369 1.2692 4.34027 1.46447 4.53553C1.65973 4.7308 1.97631 4.7308 2.17157 4.53553L5 1.70711L7.82843 4.53553C8.02369 4.7308 8.34027 4.7308 8.53553 4.53553C8.7308 4.34027 8.7308 4.02369 8.53553 3.82843L5.35355 0.646447ZM5.5 9.5L5.5 1L4.5 1L4.5 9.5L5.5 9.5Z" fill="#EF3E43"/>
</svg>
