<svg width="45" height="45" viewBox="0 0 45 45" fill="none" xmlns="http://www.w3.org/2000/svg">
<path d="M19.4904 16.3144C19.4904 14.4022 21.1268 12.883 23.0488 13.0838C24.7197 13.2584 25.9405 14.7777 25.9405 16.4716V17.2749C25.9405 18.1044 25.2738 18.7767 24.4513 18.7767H14.5382C13.3781 18.7767 12.5123 19.8594 12.7634 21.0032L14.7027 29.8832C14.8845 30.7214 15.6204 31.3239 16.4775 31.3239H28.962C29.8105 31.3239 30.5551 30.7214 30.7369 29.8832L32.6762 21.0032C32.9273 19.8594 32.0615 18.7767 30.9014 18.7767H29.0226" stroke="#333333" stroke-width="1.5" stroke-miterlimit="10" stroke-linecap="round"/>
<path d="M19.6198 23.1613C19.1248 23.1613 18.7198 22.7563 18.7198 22.2613C18.7198 21.7663 19.1248 21.3613 19.6198 21.3613C20.1148 21.3613 20.5198 21.7663 20.5198 22.2613C20.5198 22.7563 20.1148 23.1613 19.6198 23.1613Z" fill="#333333"/>
<path d="M26.1198 23.1613C25.6248 23.1613 25.2198 22.7563 25.2198 22.2613C25.2198 21.7663 25.6248 21.3613 26.1198 21.3613C26.6148 21.3613 27.0198 21.7663 27.0198 22.2613C27.0198 22.7563 26.6148 23.1613 26.1198 23.1613Z" fill="#333333"/>
</svg>
