<svg width="45" height="45" viewBox="0 0 45 45" fill="none" xmlns="http://www.w3.org/2000/svg">
<path d="M29.7415 16.7705C31.1128 16.7705 32.2197 17.8804 32.2197 19.2555V28.7649C32.2197 30.1399 31.1128 31.2499 29.7415 31.2499H15.698C14.3267 31.2499 13.2197 30.1399 13.2197 28.7649V19.2555C13.2197 17.8804 14.3267 16.7705 15.698 16.7705H25.3549C25.958 16.7705 26.4454 16.2817 26.4454 15.6771V14.7659C26.4454 13.9292 25.768 13.25 24.9336 13.25H20.5058C20.0233 13.25 19.5934 13.4771 19.3165 13.8305C19.1736 14.0129 19.0514 14.2289 18.9923 14.4646" stroke="#333333" stroke-width="1.5" stroke-miterlimit="10" stroke-linecap="round"/>
<path d="M19.0022 19.877V28.1604" stroke="#333333" stroke-width="1.5" stroke-miterlimit="10" stroke-linecap="round"/>
<path d="M26.437 19.877V28.1604" stroke="#333333" stroke-width="1.5" stroke-miterlimit="10" stroke-linecap="round"/>
</svg>
