<svg width="45" height="45" viewBox="0 0 45 45" fill="none" xmlns="http://www.w3.org/2000/svg">
<path d="M27.0349 14.3741L23.0599 15.3574C22.8451 15.4157 22.6123 15.4157 22.3974 15.3574L14.179 13.3324C13.4538 13.1574 12.7197 13.5907 12.7197 14.2074V28.0991C12.7197 28.5075 13.051 28.8658 13.5165 28.9741L22.3885 31.1658C22.6033 31.2241 22.8361 31.2241 23.051 31.1658L31.923 28.9741C32.3974 28.8575 32.7197 28.4991 32.7197 28.0991V14.2074C32.7197 13.5907 31.9856 13.1491 31.2605 13.3324L30.2846 13.5741" stroke="#333333" stroke-width="1.5" stroke-miterlimit="10" stroke-linecap="round"/>
<path d="M24.1982 26.4269L29.6265 24.9478" stroke="#333333" stroke-width="1.5" stroke-miterlimit="10" stroke-linecap="round"/>
<path d="M24.1982 22.9894L29.6265 21.5103" stroke="#333333" stroke-width="1.5" stroke-miterlimit="10" stroke-linecap="round"/>
<path d="M24.1982 19.5519L29.6265 18.0728" stroke="#333333" stroke-width="1.5" stroke-miterlimit="10" stroke-linecap="round"/>
</svg>
