<?xml version="1.0" encoding="UTF-8"?>
<svg width="40px" height="40px" viewBox="0 0 40 40" version="1.1" xmlns="http://www.w3.org/2000/svg" xmlns:xlink="http://www.w3.org/1999/xlink">
    <!-- Generator: Sketch 61.2 (89653) - https://sketch.com -->
    <title>icon-cs</title>
    <desc>Created with Sketch.</desc>
    <g id="icon-cs" stroke="none" stroke-width="1" fill="none" fill-rule="evenodd">
        <path d="M4.1226,5.3408 C4.8236,13.2138 8.2396,20.5898 13.8016,26.1998 C19.3876,31.8328 26.8906,35.2488 35.0196,35.8798 L35.8466,27.8048 L29.6136,26.3498 C29.0396,26.2348 28.4276,26.3088 27.8716,26.5698 L23.8086,28.3198 L23.3626,28.0348 C21.0226,26.5408 19.1586,25.1958 17.0926,23.1128 C14.9546,20.9568 13.6386,19.0938 12.2096,16.7868 L11.9546,16.3738 L13.2946,12.6838 C13.5426,12.0958 13.6036,11.5078 13.4896,10.9328 L11.7926,4.2368 L4.1226,5.3408 Z M36.8136,37.9858 L35.8656,37.9378 C26.8746,37.4818 18.5346,33.8128 12.3816,27.6078 C6.2616,21.4358 2.5956,13.2458 2.0576,4.5458 L1.9996,3.6258 L13.2896,1.9998 L15.4396,10.4928 C15.6436,11.5138 15.5416,12.5078 15.1546,13.4168 L14.1656,16.1428 C15.4256,18.1448 16.6346,19.8108 18.5126,21.7048 C20.3166,23.5248 21.9756,24.7538 23.9946,26.0628 L27.0506,24.7468 C27.9696,24.3138 29.0116,24.1898 30.0396,24.3958 L38.0166,26.2578 L36.8136,37.9858 Z" id="Fill-1" fill="#E4E4E4"></path>
    </g>
</svg>