<svg width="45" height="45" viewBox="0 0 45 45" fill="none" xmlns="http://www.w3.org/2000/svg">
<path d="M27.9682 15.25H21.413C21.0155 15.25 20.6349 15.4755 20.508 15.8431C20.2627 16.5949 19.5438 17.1295 18.6979 17.1295C17.8521 17.1295 17.1501 16.5949 16.8879 15.8431C16.761 15.4672 16.3719 15.25 15.9744 15.25H13.2423C12.405 15.25 11.7198 15.9266 11.7198 16.7536V27.7463C11.7198 28.5733 12.405 29.2499 13.2423 29.2499H15.9828C16.3804 29.2499 16.761 29.0244 16.8879 28.6568C17.1416 27.9134 17.8606 27.3705 18.6979 27.3705C19.5353 27.3705 20.2543 27.9134 20.508 28.6568C20.6349 29.0244 21.024 29.2499 21.413 29.2499H32.1974C33.0347 29.2499 33.7198 28.5733 33.7198 27.7463V16.7536C33.7198 15.9266 33.0347 15.25 32.1974 15.25H31.1824" stroke="#333333" stroke-width="1.5" stroke-miterlimit="10" stroke-linecap="round"/>
<path d="M18.769 25.2614C18.279 25.2614 17.869 24.8514 17.869 24.3614C17.869 23.8714 18.279 23.4614 18.769 23.4614C19.259 23.4614 19.669 23.8714 19.669 24.3614C19.669 24.8514 19.259 25.2614 18.769 25.2614Z" fill="#333333"/>
<path d="M18.769 21.3434C19.2661 21.3434 19.669 20.9405 19.669 20.4435C19.669 19.9464 19.2661 19.5435 18.769 19.5435C18.272 19.5435 17.869 19.9464 17.869 20.4435C17.869 20.9405 18.272 21.3434 18.769 21.3434Z" fill="#333333"/>
</svg>
