<svg width="30" height="30" viewBox="0 0 30 30" fill="none" xmlns="http://www.w3.org/2000/svg">
<path fill-rule="evenodd" clip-rule="evenodd" d="M11.5714 4.71436C11.0665 4.71436 10.6572 5.12829 10.6572 5.63891V7.95027H8.14286C7.51167 7.95027 7 8.46769 7 9.10596V24.1301C7 24.7683 7.51168 25.2858 8.14286 25.2858H21.8571C22.4883 25.2858 23 24.7683 23 24.1301V9.10596C23 8.46769 22.4883 7.95027 21.8571 7.95027H19.3429V5.63891C19.3429 5.12829 18.9335 4.71436 18.4286 4.71436H11.5714ZM17.5143 9.79938V12.5731C17.5143 13.0837 17.9236 13.4977 18.4286 13.4977C18.9335 13.4977 19.3429 13.0837 19.3429 12.5731V9.79938H21.1714V23.4366H8.82857V9.79938H10.6572V12.5731C10.6572 13.0837 11.0665 13.4977 11.5714 13.4977C12.0764 13.4977 12.4857 13.0837 12.4857 12.5731V9.79938H17.5143ZM17.5143 7.95027V6.56347H12.4857V7.95027H17.5143Z" fill="#3C3C3C"/>
</svg>
