<svg width="24" height="24" viewBox="0 0 24 24" fill="none" xmlns="http://www.w3.org/2000/svg">
<path d="M12 21C16.9706 21 21 16.9706 21 12C21 7.02944 16.9706 3 12 3C7.02944 3 3 7.02944 3 12C3 16.9706 7.02944 21 12 21Z" fill="#BEBEBE"/>
<path fill-rule="evenodd" clip-rule="evenodd" d="M8.43231 14.3987C8.11892 14.7101 8.11892 15.215 8.43231 15.5265C8.74571 15.8379 9.25383 15.8379 9.56723 15.5265L11.9809 13.1279L14.4323 15.564C14.7457 15.8754 15.2538 15.8754 15.5672 15.564C15.8806 15.2525 15.8806 14.7476 15.5672 14.4362L13.1158 12.0001L15.5672 9.56403C15.8806 9.25259 15.8806 8.74765 15.5672 8.43621C15.2538 8.12478 14.7457 8.12478 14.4323 8.43621L11.9809 10.8723L9.56723 8.47373C9.25383 8.16229 8.74571 8.16229 8.43231 8.47373C8.11892 8.78517 8.11892 9.29011 8.43231 9.60154L10.846 12.0001L8.43231 14.3987Z" fill="white"/>
</svg>
