<svg width="30" height="30" viewBox="0 0 30 30" fill="none" xmlns="http://www.w3.org/2000/svg">
<path fill-rule="evenodd" clip-rule="evenodd" d="M13.8427 18.7933C17.1601 18.7933 19.8494 16.1039 19.8494 12.7865C19.8494 9.46908 17.1601 6.77978 13.8427 6.77978C10.5252 6.77978 7.83593 9.46908 7.83593 12.7865C7.83593 16.1039 10.5252 18.7933 13.8427 18.7933ZM13.8427 20.573C18.143 20.573 21.6292 17.0869 21.6292 12.7865C21.6292 8.48614 18.143 5 13.8427 5C9.54229 5 6.05615 8.48614 6.05615 12.7865C6.05615 17.0869 9.54229 20.573 13.8427 20.573Z" fill="#3C3C3C"/>
<path fill-rule="evenodd" clip-rule="evenodd" d="M17.663 17.7191C18.0105 17.3716 18.574 17.3716 18.9215 17.7191L24.4833 23.2809C24.8308 23.6285 24.8308 24.1919 24.4833 24.5394C24.1358 24.8869 23.5723 24.8869 23.2248 24.5394L17.663 18.9776C17.3155 18.6301 17.3155 18.0667 17.663 17.7191Z" fill="#3C3C3C"/>
</svg>
