<svg xmlns="http://www.w3.org/2000/svg" width="380" height="44" viewBox="0 0 380 44">
    <g>
        <path fill="#fff" d="M0 0H380V44H0z" transform="translate(-770 -3182) translate(770 3182)"/>
    </g>
    <path fill="#333" d="M-54.372 0h3.024v-13.128h.048L-43.236 0h3.84v-16.992h-3.024v12.72h-.048l-7.9-12.72h-4.008zm22.464-8.544a8.7 8.7 0 0 0 9.1 8.976c5.3 0 9.168-3.672 9.168-8.976 0-5.448-3.864-8.88-9.168-8.88-5.236 0-9.1 3.432-9.1 8.88zm3.288 0c0-3.5 2.328-6.216 5.832-6.216 3.528 0 5.856 2.712 5.856 6.216 0 3.624-2.376 6.264-5.856 6.264-3.456 0-5.832-2.64-5.832-6.264zM-3.3 0h3.024v-14.352h5.208v-2.64h-13.44v2.64H-3.3zm14.184 0h3.024v-16.992h-3.024zm25.9-14.832c-1.344-1.776-3.96-2.592-6.168-2.592-5.232 0-9.216 3.432-9.216 8.88A8.644 8.644 0 0 0 30.468.432a8.028 8.028 0 0 0 6.576-2.976l-2.424-1.7a4.989 4.989 0 0 1-4.128 1.964c-3.5 0-5.76-2.568-5.76-6.264 0-3.5 2.376-6.216 5.88-6.216a4.815 4.815 0 0 1 3.864 1.752zM43.476 0h11.688v-2.688H46.5v-4.8h7.8v-2.544h-7.8v-4.32h8.232v-2.64H43.476z" transform="translate(190 28)"/>
</svg>
