<svg xmlns="http://www.w3.org/2000/svg" width="380" height="44" viewBox="0 0 380 44">
    <path fill="#fff" d="M0 0H380V44H0z"/>
    <path fill="#333" d="M-78.276-2.448h-4.2V-2.5a7.5 7.5 0 0 0 3.024-6.216c0-5.16-3.816-8.712-9.024-8.712s-9.1 3.552-9.1 8.712c0 5.52 3.624 8.712 9.048 8.712h10.248zm-10.2-12.264c3.432 0 5.736 2.544 5.736 6 0 3.624-2.424 6.072-5.784 6.072-3.408 0-5.736-2.448-5.736-6.072a5.75 5.75 0 0 1 5.784-6zm30.432-2.28h-3.024V-6.36c0 1.968-.912 4.08-3.816 4.08S-68.7-4.392-68.7-6.36v-10.632h-3.024V-6.24c0 4.1 2.952 6.672 6.84 6.672s6.84-2.568 6.84-6.672zM-49.884 0h3.024v-16.992h-3.024zm25.9-14.832c-1.344-1.776-3.96-2.592-6.168-2.592-5.232 0-9.216 3.432-9.216 8.88A8.644 8.644 0 0 0-30.3.432a8.028 8.028 0 0 0 6.576-2.976l-2.424-1.7a4.989 4.989 0 0 1-4.128 1.964c-3.5 0-5.76-2.568-5.76-6.264 0-3.5 2.376-6.216 5.88-6.216a4.815 4.815 0 0 1 3.864 1.752zM-17.292 0h3.024v-8.52h.072L-6.732 0h4.248l-8.472-9.144 7.944-7.848h-4.08l-7.1 7.344h-.072v-7.344h-3.024zm31.368 0h2.88v-13.656H17L22.092 0H24.2l5.16-13.656h.048V0h3v-16.992H27.66L23.292-4.92h-.072L18.8-16.992h-4.724zm26.64 0H52.4v-2.688h-8.66v-4.8h7.8v-2.544h-7.8v-4.32h8.232v-2.64H40.716zm19.2 0h3.024v-13.128h.048L71.052 0h3.84v-16.992h-3.024v12.72h-.048l-7.9-12.72h-4.004zm36.816-16.992h-3.024V-6.36c0 1.968-.912 4.08-3.816 4.08s-3.816-2.112-3.816-4.08v-10.632h-3.024V-6.24c0 4.1 2.952 6.672 6.84 6.672s6.84-2.568 6.84-6.672z" transform="translate(191 28)"/>
</svg>
