<svg xmlns="http://www.w3.org/2000/svg" width="360" height="42">
    <path data-name="사각형 8613" style="fill:#f0f0f0" d="M0 0h360v42H0z"/>
    <path data-name="패스 1908" d="M-86.184 0h3.024v-16.992h-3.024zm11.328 0h3.024v-13.128h.048L-63.72 0h3.84v-16.992h-3.02v12.72h-.048l-7.9-12.72h-4.008zm33.912-15.6a7.42 7.42 0 0 0-4.944-1.824c-3.072 0-6.216 1.536-6.216 4.992 0 3.168 2.232 4.176 4.3 4.824 2.136.672 3.912 1.176 3.912 2.952 0 1.824-1.656 2.52-3.072 2.52a4.839 4.839 0 0 1-3.72-1.872l-2.16 2.016A7.743 7.743 0 0 0-47.016.432c3.336 0 6.192-1.776 6.192-5.424 0-3.336-2.784-4.3-4.968-4.968-1.92-.6-3.24-1.056-3.24-2.616 0-1.656 1.608-2.328 3-2.328a4.162 4.162 0 0 1 3.12 1.464zM-30.384 0h3.024v-14.352h5.208v-2.64h-13.44v2.64h5.208zM-18.7 0h3.384l1.536-3.888h7.368L-4.824 0h3.456l-7.32-16.992H-11.3zm5.952-6.48 2.664-6.912 2.62 6.912zM19.32-9.7h-6.5v2.5h3.576v4.32a8.777 8.777 0 0 1-3.384.6c-3.748 0-6.052-2.64-6.052-6.264 0-3.5 2.328-6.216 5.9-6.216a6.037 6.037 0 0 1 4.344 1.728l2.096-2.256a9.727 9.727 0 0 0-6.456-2.136c-5.232 0-9.216 3.432-9.216 8.88 0 5.3 3.816 8.976 9.288 8.976a14.446 14.446 0 0 0 6.404-1.32zM27.552 0h3.024v-7.2h2.208L36.72 0h3.648l-4.536-7.536a4.516 4.516 0 0 0 3.888-4.584c0-3.6-3.072-4.872-6.264-4.872h-5.9zm3.024-9.672v-4.776h2.736c1.56 0 3.384.456 3.384 2.3 0 2.064-1.944 2.472-3.648 2.472zM44.712 0H48.1l1.536-3.888H57L58.584 0h3.456l-7.32-16.992H52.1zm5.952-6.48 2.664-6.912 2.616 6.912zM67.848 0h2.88v-13.656h.048L75.864 0h2.112l5.16-13.656h.048V0h3v-16.992h-4.752L77.064-4.92h-.072l-4.416-12.072h-4.728z" transform="translate(180.184 29.424)" style="fill:#333"/>
</svg>
