<svg xmlns="http://www.w3.org/2000/svg" width="110" height="20" viewBox="0 0 110 20"><defs><style>.a{fill:#ca001e;}.b{fill:#535555;}</style></defs><path class="a" d="M101.81,10.532c-2.356.345-4.11-.986-4.11-3.2a4.446,4.446,0,0,1,4.11-4.288c2.356-.3,4.06.986,4.06,3.2A4.468,4.468,0,0,1,101.81,10.532Zm0-.937a3.223,3.223,0,0,0,2.857-3.2,2.344,2.344,0,0,0-2.857-2.465A3.223,3.223,0,0,0,98.9,7.18,2.347,2.347,0,0,0,101.81,9.6Zm8.371,7.394,1.6-.1a.2.2,0,0,1,.175.037.2.2,0,0,1,.075.16,1.023,1.023,0,0,1-.2.641l-.2.1-8.522,1.232c-1,.148-1.3-.148-1.3-.986V16.2a1.878,1.878,0,0,0-1.053-.3V15.56a.2.2,0,0,1,.2-.148,17.379,17.379,0,0,1,2.055-.148l6.015-.937.3-.148c.05-.493.05-1.725.05-2.218l-5.664.838a7.352,7.352,0,0,0-1.454.493,5.318,5.318,0,0,1-1.454-.542.146.146,0,0,1-.05-.2l.1-.2a9.532,9.532,0,0,0,1.654-.049l6.867-1.035.551-.345h.3l.652.3c.1.049.1.148.05.246l-.2.444a13.3,13.3,0,0,1-.4,2.218l.351.148a.148.148,0,0,1,.1.148.683.683,0,0,1-.15.444L103.013,16v2.12c0,.246.1.3.351.3l6.316-.887Zm-.451-15.478a3.03,3.03,0,0,0-1.6-.739l.15-.444c0-.1.05-.1.2-.148a8.612,8.612,0,0,1,2.256.148c.15.049.2.148.2.345V7.032a10.626,10.626,0,0,1-.4,3.056l-.7.1a21.915,21.915,0,0,1-.1-2.612Z" transform="translate(-51.362 -0.062)"/><path class="a" d="M143.271,8.582a9.277,9.277,0,0,1,2.055-.049.3.3,0,0,1,.251.3.933.933,0,0,1-.4.69l-2.105.2-5.464.789v.3a12.029,12.029,0,0,1-.2,2.119l2.807-.444.551-.345h.3l.7.3c.1.049.1.1.05.2l-.2.641a26.034,26.034,0,0,1-.4,3.45l.351.1c.1.049.1.1.1.2a.781.781,0,0,1-.2.542L134,18.687a1.417,1.417,0,0,1-.2.493l-.652.1a2.526,2.526,0,0,1-.15-.838l-.3-3.992a2.372,2.372,0,0,0-.9-.444l.1-.345c0-.049.05-.1.15-.1a12.182,12.182,0,0,1,1.9-.049l2.657-.394c-.05-.591-.05-1.331-.05-1.824V10.7l-4.461.69a10.551,10.551,0,0,0-1.955.641,4.506,4.506,0,0,1-1.8-.69.1.1,0,0,1-.062-.062.1.1,0,0,1,.012-.086l.15-.3a12.029,12.029,0,0,0,2.005-.1c1.153-.148,10.878-1.627,12.181-1.873Zm-11.178-2.81a1.929,1.929,0,0,0-1.053-.3V5.132c0-.049.05-.1.2-.1l2.055-.2L139.762,3.8l.3-.148a16.908,16.908,0,0,0,.05-2.169l-5.765.937-1.554.493a5.018,5.018,0,0,1-1.554-.542.146.146,0,0,1-.05-.2l.1-.2a10.041,10.041,0,0,0,1.7-.1L140.163.745l.5-.345h.3l.7.3a.2.2,0,0,1,.05.246l-.2.444a14.9,14.9,0,0,1-.351,2.119l.351.148c.05.049.1.049.1.1a.634.634,0,0,1-.15.444l-8.121,1.232V7.6c0,.246.05.345.3.3,1.6-.2,5.313-.789,6.416-1.035l.551-.345a9.684,9.684,0,0,1,1.6-.1.2.2,0,0,1,.2.2.975.975,0,0,1-.2.591l-.2.1-8.672,1.282c-.952.148-1.253-.148-1.253-.937Zm8.171,7.443-6.416.986v3.647c1.7-.2,4.562-.69,5.915-.937l.4-.148Z" transform="translate(-67.536 -0.18)"/><path class="a" d="M167.479,7.819a19.755,19.755,0,0,1-4.361,5.077c-.1.049-.15.1-.2.049l-.15-.148c-.05-.049-.05-.1.05-.2a19.262,19.262,0,0,0,4.712-7.838,2.759,2.759,0,0,0-1.1-.739l.2-.394c.05-.1.1-.1.2-.1a5.133,5.133,0,0,1,1.855.444.3.3,0,0,1,.2.3,1.212,1.212,0,0,1-.05.394,12.635,12.635,0,0,1-.9,2.366L170.086,8.9l.752.246a5.067,5.067,0,0,1,.7,1.084.486.486,0,0,1,.05.444.552.552,0,0,1-.551.345.6.6,0,0,1-.351-.246Zm9.825,7.2a4.238,4.238,0,0,1-4.01,4.042c-2.356.3-4.01-.887-4.01-2.958s1.654-3.6,4.01-3.943S177.3,13.044,177.3,15.016Zm-1.2.148c0-1.577-1.153-2.415-2.807-2.218a3.028,3.028,0,0,0-2.807,2.958c0,1.577,1.153,2.415,2.807,2.218A3.028,3.028,0,0,0,176.1,15.164ZM175.149.327c0-.1.1-.1.2-.148A7.644,7.644,0,0,1,177.5.327a.3.3,0,0,1,.2.345V8.854a13.729,13.729,0,0,1-.4,3.2l-.7.1c-.05-.69-.1-1.972-.1-2.711V6.833l-2.607.444v.887a12.658,12.658,0,0,1-.351,3.155l-.652.1c-.05-.69-.1-1.922-.1-2.662V2.939a2.473,2.473,0,0,0-1.353-.641l.15-.444c0-.049.05-.1.2-.148a5.91,5.91,0,0,1,1.955.148.27.27,0,0,1,.2.3V6.488l2.607-.444V1.461a2.727,2.727,0,0,0-1.5-.69Z" transform="translate(-85.58 -0.06)"/><path class="a" d="M210.658,5.552a8.455,8.455,0,0,1,1.654-.148.3.3,0,0,1,.251.247.88.88,0,0,1-.251.641l-.3.1-3.359.493V8.264a10.532,10.532,0,0,1-.4,3.057l-.7.1c-.05-.345-.05-.937-.1-1.479a84.633,84.633,0,0,1-9.524,2.712,7.342,7.342,0,0,0-1.4.542,6.167,6.167,0,0,1-1.7-.74c-.1-.049-.1-.1-.05-.148l.1-.247a7.337,7.337,0,0,0,1.855-.1l3.709-.74V9.743c-1.8.1-3.108-.641-3.108-1.972s1.6-2.613,3.609-2.909,3.609.444,3.609,1.923S203.289,9.2,201.585,9.6v1.381c2.155-.493,4.411-1.134,5.915-1.627V1.312a3.029,3.029,0,0,0-1.6-.74l.15-.444c0-.1.05-.1.2-.148A8.61,8.61,0,0,1,208.5.129c.15.049.2.148.2.345V6.242l1.4-.247Zm-6.216-2.761a7.389,7.389,0,0,1,1.6-.049.2.2,0,0,1,.15.2.885.885,0,0,1-.4.69l-1.554.148-6.216.986-1.353.493a4.653,4.653,0,0,1-1.4-.592.147.147,0,0,1-.05-.148l.1-.247a9.222,9.222,0,0,0,1.6-.1l6.968-1.035Zm-6.266-1.035a24.712,24.712,0,0,0,4.562-.247c.15,0,.2.049.2.148a.97.97,0,0,1,0,.542.3.3,0,0,1-.251.148l-3.208.542h-.3a3.356,3.356,0,0,1-1.153-.838.092.092,0,0,1,0-.148ZM208.1,17.09a9.018,9.018,0,0,1,1.6-.1.2.2,0,0,1,.2.2,1.022,1.022,0,0,1-.15.641l-.2.1-8.672,1.233c-1,.148-1.3-.148-1.3-.986V16.7a1.878,1.878,0,0,0-1.053-.3v-.345c0-.049.05-.1.2-.148l2.055-.2,6.116-.937.3-.148c.05-.394.05-1.331.05-1.726l-5.765.887a7.858,7.858,0,0,0-1.454.493,4.912,4.912,0,0,1-1.454-.542c-.1-.049-.1-.1-.05-.2l.1-.2a7.745,7.745,0,0,0,1.6-.049l7.068-1.134.5-.345h.3l.652.3c.1.049.1.148.05.247l-.2.444a9.477,9.477,0,0,1-.351,1.726l.351.148a.148.148,0,0,1,.1.148.683.683,0,0,1-.15.444L200.883,16.4v1.676q0,.37.3.3l6.517-.937ZM200.983,9c1.353-.2,2.456-.986,2.456-2.071s-1.053-1.578-2.456-1.381-2.456.986-2.456,2.071S199.63,9.2,200.983,9Z" transform="translate(-102.563 0.038)"/><path class="b" d="M38.289,9.625a8.561,8.561,0,0,1,1.654-.148.3.3,0,0,1,.251.246.879.879,0,0,1-.251.641l-.3.148-3.409.493v6.161a21.623,21.623,0,0,1-.4,3.943l-.7.1c-.05-.838-.1-2.612-.1-3.45V13.716a44.927,44.927,0,0,1-8.672,2.957l-.6.1a1,1,0,0,1-1.1-.739,3.1,3.1,0,0,1-.1-.838v-6.7A4.216,4.216,0,0,0,23.1,8.1l.1-.444c0-.1.1-.1.2-.148a14.17,14.17,0,0,1,2.155-.148c.15,0,.251.148.251.345v7.639q0,.37.3.3a44.981,44.981,0,0,0,8.973-2.661V3.81a3.385,3.385,0,0,0-1.654-.739l.1-.444c0-.1.1-.1.2-.148a8.766,8.766,0,0,1,2.306.148c.15.049.2.148.2.345v7.343l1.4-.246Z" transform="translate(-11.521 -1.207)"/><path class="b" d="M69.561,2.226c0-.1.05-.1.2-.148a8.613,8.613,0,0,1,2.306.148.329.329,0,0,1,.251.345V16.765a21.576,21.576,0,0,1-.4,3.943l-.7.1c-.05-.838-.1-2.612-.1-3.45V14.645A77,77,0,0,1,60.939,17.5a6.94,6.94,0,0,0-1.454.542,6.626,6.626,0,0,1-1.855-.789.146.146,0,0,1-.05-.2l.1-.246a10.448,10.448,0,0,0,2.055-.148,99.445,99.445,0,0,0,11.379-2.711V3.458a3.183,3.183,0,0,0-1.654-.739ZM59.536,9.816A4.662,4.662,0,0,1,63.7,5.429c2.356-.345,4.161,1.035,4.161,3.2A4.576,4.576,0,0,1,63.7,12.97C61.34,13.266,59.536,11.984,59.536,9.816Zm1.253-.148A2.385,2.385,0,0,0,63.7,12.132,3.272,3.272,0,0,0,66.6,8.879,2.344,2.344,0,0,0,63.7,6.415a3.273,3.273,0,0,0-2.958,3.253Z" transform="translate(-30.267 -1.007)"/><path class="b" d="M7.469,15.613l-.5,3.509H9.023v1.3H6.817l-.6,4.11H5.564l.6-4.11H2.657l-.6,4.06H1.4l.6-4.11H0v-1.3H2.155l.5-3.509H.652V14.31H2.857l.551-3.91h.7l-.6,3.91H7.018l.551-3.91h.652l-.551,3.91H9.725v1.3Zm-.652,0H3.359l-.5,3.509H6.316Z" transform="translate(0 -5.488)"/></svg>