<svg width="152" height="38" viewBox="0 0 152 38" fill="none" xmlns="http://www.w3.org/2000/svg">
<g clip-path="url(#clip0_937_49858)">
<path d="M32.2447 12.0841C31.8244 11.669 31.6133 11.1538 31.6133 10.5348C31.6133 9.91584 31.8244 9.39876 32.2447 8.98359C32.6651 8.56842 33.1937 8.36084 33.8306 8.36084C34.4676 8.36084 34.9944 8.56842 35.4166 8.98359C35.8369 9.39876 36.048 9.91584 36.048 10.5348C36.048 11.1538 35.8369 11.6709 35.4166 12.086C34.9962 12.5012 34.4676 12.7088 33.8306 12.7088C33.1937 12.7088 32.6669 12.5012 32.2447 12.086V12.0841ZM35.6093 14.4563V29.14H32.0006V14.4563H35.6093Z" fill="black"/>
<path d="M51.2059 15.9024C52.254 17.0064 52.779 18.5482 52.779 20.5278V29.1425H49.1702V21.0317C49.1702 19.8654 48.8876 18.969 48.3204 18.3406C47.7532 17.7141 46.9804 17.3989 46.0002 17.3989C45.02 17.3989 44.216 17.7122 43.6415 18.3406C43.0651 18.9671 42.7769 19.8654 42.7769 21.0317V29.1425H39.1682V14.4569H42.7769V16.2855C43.2579 15.6496 43.8728 15.1495 44.6199 14.7871C45.3669 14.4248 46.1874 14.2437 47.0814 14.2437C48.7829 14.2437 50.1578 14.7966 51.2059 15.9006V15.9024Z" fill="black"/>
<path d="M60.4105 17.5056V24.6088C60.4105 25.1032 60.5261 25.4618 60.7592 25.6826C60.9905 25.9034 61.3815 26.0147 61.9321 26.0147H63.608V29.1417H61.3393C58.2977 29.1417 56.776 27.6225 56.776 24.5824V17.5056H55.0745V14.4579H56.776V10.8252H60.4105V14.456H63.608V17.5037H60.4105V17.5056Z" fill="black"/>
<path d="M79.3842 22.9132H68.9435C69.0297 23.9737 69.3895 24.8041 70.0264 25.4042C70.6615 26.0043 71.4453 26.3062 72.3723 26.3062C73.7123 26.3062 74.6668 25.7137 75.2339 24.5305H79.1272C78.7142 25.9439 77.9231 27.1064 76.7556 28.016C75.5864 28.9256 74.151 29.3804 72.4494 29.3804C71.0746 29.3804 69.841 29.0671 68.7489 28.4387C67.6567 27.8122 66.8069 26.9233 66.1974 25.7741C65.5862 24.6248 65.2815 23.3 65.2815 21.7979C65.2815 20.2957 65.5825 18.9445 66.1846 17.7953C66.7867 16.646 67.6292 15.7628 68.7103 15.1458C69.7933 14.5268 71.0397 14.2173 72.4494 14.2173C73.8591 14.2173 75.0229 14.5173 76.0967 15.1193C77.1705 15.7194 78.0038 16.5724 78.5967 17.6764C79.1896 18.7804 79.487 20.0485 79.487 21.479C79.487 22.0092 79.4521 22.4867 79.3842 22.9094V22.9132ZM75.7497 20.4222C75.7332 19.4673 75.3973 18.7049 74.7439 18.1293C74.0904 17.5556 73.2919 17.2688 72.3466 17.2688C71.4527 17.2688 70.7001 17.5481 70.0907 18.1029C69.4794 18.6596 69.1068 19.4333 68.9692 20.4222H75.7497Z" fill="black"/>
<path d="M87.5453 14.908C88.2924 14.4664 89.1478 14.2456 90.1115 14.2456V18.1425H89.157C88.0226 18.1425 87.1672 18.4162 86.5927 18.9634C86.0163 19.5107 85.7281 20.4656 85.7281 21.8262V29.1407H82.1194V14.457H85.7281V16.7366C86.1925 15.9591 86.7983 15.3496 87.5453 14.908Z" fill="black"/>
<path d="M98.0632 14.8943C98.88 14.4433 99.8125 14.2188 100.861 14.2188C102.081 14.2188 103.184 14.5282 104.174 15.1472C105.161 15.7662 105.943 16.6456 106.52 17.7835C107.096 18.9234 107.384 20.2444 107.384 21.7465C107.384 23.2487 107.096 24.5791 106.52 25.7359C105.943 26.8927 105.161 27.7891 104.174 28.427C103.186 29.0629 102.081 29.3818 100.861 29.3818C99.8125 29.3818 98.8892 29.161 98.0889 28.7195C97.2904 28.2779 96.6406 27.7212 96.1431 27.0493V36.1397H92.5344V14.4565H96.1431V16.5777C96.6075 15.9058 97.2463 15.3454 98.0632 14.8943ZM103.168 19.4536C102.815 18.8083 102.351 18.3176 101.777 17.9836C101.2 17.6477 100.578 17.4797 99.9079 17.4797C99.2379 17.4797 98.6395 17.6514 98.065 17.9968C97.4886 18.3421 97.0242 18.8403 96.6736 19.4952C96.3212 20.15 96.145 20.9181 96.145 21.8012C96.145 22.6844 96.3212 23.4544 96.6736 24.1073C97.0261 24.7603 97.4905 25.2603 98.065 25.6057C98.6414 25.951 99.2544 26.1228 99.9079 26.1228C100.561 26.1228 101.2 25.9454 101.777 25.5925C102.353 25.2396 102.815 24.7357 103.168 24.0809C103.52 23.4279 103.697 22.6504 103.697 21.7484C103.697 20.8464 103.52 20.1009 103.168 19.4555V19.4536Z" fill="black"/>
<path d="M109.948 17.7967C110.525 16.6475 111.307 15.7643 112.294 15.1472C113.282 14.5282 114.387 14.2188 115.607 14.2188C116.672 14.2188 117.604 14.4395 118.405 14.8811C119.203 15.3227 119.844 15.8794 120.325 16.5512V14.4565H123.959V29.1403H120.325V26.9927C119.86 27.6815 119.22 28.2514 118.405 28.7025C117.588 29.1535 116.646 29.3781 115.582 29.3781C114.379 29.3781 113.284 29.0591 112.294 28.4232C111.305 27.7872 110.523 26.8908 109.948 25.7321C109.372 24.5753 109.084 23.2449 109.084 21.7427C109.084 20.2406 109.372 18.9422 109.948 17.793V17.7967ZM119.809 19.4801C119.466 18.8347 119.001 18.3402 118.418 17.9949C117.834 17.6496 117.206 17.4778 116.536 17.4778C115.866 17.4778 115.248 17.6458 114.68 17.9817C114.113 18.3176 113.652 18.8083 113.302 19.4518C112.949 20.0972 112.773 20.8614 112.773 21.7446C112.773 22.6278 112.949 23.4015 113.302 24.0639C113.654 24.7263 114.119 25.2339 114.693 25.5887C115.27 25.9416 115.883 26.119 116.536 26.119C117.19 26.119 117.834 25.9473 118.418 25.6019C119.001 25.2566 119.466 24.7621 119.809 24.1167C120.152 23.4713 120.325 22.6995 120.325 21.7975C120.325 20.8954 120.152 20.1236 119.809 19.4782V19.4801Z" fill="black"/>
<path d="M132.596 14.908C133.343 14.4664 134.199 14.2456 135.162 14.2456V18.1425H134.208C133.073 18.1425 132.218 18.4162 131.643 18.9634C131.067 19.5107 130.779 20.4656 130.779 21.8262V29.1407H127.17V14.457H130.779V16.7366C131.243 15.9591 131.849 15.3496 132.596 14.908Z" fill="black"/>
<path d="M146.361 29.1408L141.515 22.8849V29.1408H137.907V9.52783H141.515V20.6864L146.31 14.457H151.002L144.711 21.8263L151.053 29.1408H146.361Z" fill="black"/>
</g>
<path d="M22.126 34.3109H21.6255C21.4541 34.3109 21.3087 34.1812 21.2842 34.0072C20.9812 31.7624 19.8134 28.9925 17.1503 26.1655C16.9804 25.9868 16.9482 25.7083 17.0798 25.4995C19.4109 21.7741 21.5674 16.1819 20.395 12.4564C20.095 11.4994 19.5991 10.7131 18.9303 10.1215C18.7956 10.0028 18.8185 9.78454 18.9747 9.69753C20.6475 8.77842 21.7556 6.89908 21.6087 4.77295C21.4312 2.23236 19.4277 0.178998 16.9712 0.0113119C14.0739 -0.184849 11.6556 2.19597 11.6556 5.14945C11.6556 6.66812 12.2939 8.03491 13.3086 8.97617C13.4387 9.09639 13.4127 9.31154 13.2581 9.39538C13.0331 9.51719 12.8142 9.65798 12.6015 9.81618C10.1633 11.6576 9.38737 15.5191 9.3139 17.5092C9.28023 18.3982 9.34145 19.2683 9.49604 20.1257C9.80061 21.8421 10.4802 23.5015 11.5454 25.1246C11.8684 25.615 12.228 26.0817 12.6168 26.5183L14.5943 28.7504C16.5962 31.0648 17.6722 33.3365 17.8268 35.4215C17.8344 35.499 17.8405 35.5749 17.8436 35.6524C17.9002 36.9686 18.944 38 20.2205 38H22.1842C23.1806 38 23.9856 37.1568 23.9688 36.1207C23.952 35.1051 23.1071 34.3094 22.1245 34.3094L22.126 34.3109ZM16.6375 3.68774C17.4166 3.68774 18.0517 4.34266 18.0517 5.14945C18.0517 5.95624 17.4181 6.61117 16.6375 6.61117C15.8569 6.61117 15.2248 5.95624 15.2248 5.14945C15.2248 4.34266 15.8569 3.68774 16.6375 3.68774ZM14.1244 22.4511C13.2214 20.8803 12.8204 19.3078 12.8801 17.6515C12.9443 15.9304 13.6622 13.5859 14.706 12.7966C14.8896 12.6589 15.1208 12.5292 15.4713 12.5292C15.6258 12.5292 15.8034 12.5545 16.0115 12.613C16.5396 12.7649 16.8258 13.0497 16.9972 13.597C17.5252 15.2707 16.6482 19.0025 14.7228 22.4416C14.5897 22.6805 14.2591 22.6853 14.1228 22.4511H14.1244Z" fill="#1769FF"/>
<path d="M10.1755 28.0108C10.1219 27.9349 10.0209 27.9175 9.94437 27.9665C7.04094 29.8538 4.88747 28.7575 3.96303 28.4506C2.79217 28.0599 1.54019 28.6452 1.05195 29.8142L0.1474 31.972C-0.244418 32.9069 0.171889 33.9921 1.07644 34.3971C1.98098 34.8021 3.03093 34.3718 3.42275 33.4385L3.81304 32.5083C3.87732 32.3532 4.03803 32.2662 4.1972 32.2995C6.10119 32.6902 8.88218 33.179 12.1866 30.871C12.2738 30.8109 12.2876 30.6827 12.2172 30.6036C11.905 30.2461 11.5943 29.8759 11.2882 29.4915C10.8964 28.9995 10.526 28.506 10.177 28.0124L10.1755 28.0108Z" fill="#1769FF"/>
<defs>
<clipPath id="clip0_937_49858">
<rect width="119.44" height="27.7767" fill="white" transform="translate(31.6135 8.36035)"/>
</clipPath>
</defs>
</svg>
