<?xml version="1.0" encoding="utf-8"?>
<!-- Generator: Adobe Illustrator 24.0.3, SVG Export Plug-In . SVG Version: 6.00 Build 0)  -->
<svg version="1.1" id="Layer_1" xmlns="http://www.w3.org/2000/svg" xmlns:xlink="http://www.w3.org/1999/xlink" x="0px" y="0px"
	 viewBox="0 0 86 33" style="enable-background:new 0 0 86 33;" xml:space="preserve">
<style type="text/css">
	.st0{fill:url(#SVGID_1_);}
</style>
<g>
	<linearGradient id="SVGID_1_" gradientUnits="userSpaceOnUse" x1="0" y1="16.5" x2="86" y2="16.5">
		<stop  offset="0" style="stop-color:#FEF481"/>
		<stop  offset="1" style="stop-color:#FC8DB0"/>
	</linearGradient>
	<path class="st0" d="M69.5,1C78,1,85,8,85,16.5C85,25,78,32,69.5,32h-53C8,32,1,25,1,16.5C1,8,8,1,16.5,1H69.5 M69.5,0h-53
		C7.4,0,0,7.4,0,16.5C0,25.6,7.4,33,16.5,33h53C78.6,33,86,25.6,86,16.5C86,7.4,78.6,0,69.5,0L69.5,0z"/>
</g>
<g>
	<path d="M17.5,10.5H20l3.7,6.7l1.3,2.7H25c-0.1-1.3-0.3-3-0.3-4.4v-5h2.4v12.6h-2.6l-3.6-6.7l-1.3-2.7h-0.1
		c0.1,1.4,0.3,2.9,0.3,4.4v5h-2.4V10.5z"/>
	<path d="M29.8,21.7c0-0.9,0.7-1.6,1.5-1.6c0.9,0,1.6,0.7,1.6,1.6s-0.7,1.6-1.6,1.6C30.5,23.3,29.8,22.6,29.8,21.7z"/>
	<path d="M35.7,10.5h2.5V21h5.1v2.1h-7.6V10.5z"/>
	<path d="M45.5,10.5H48v12.6h-2.5V10.5z"/>
	<path d="M49.5,10.5h2.6l1.7,6.1c0.4,1.4,0.6,2.7,1.1,4.1h0.1c0.4-1.4,0.7-2.7,1.1-4.1l1.6-6.1h2.5l-3.9,12.6h-3L49.5,10.5z"/>
	<path d="M61.6,10.5h7.7v2.1h-5.2v2.9h4.4v2.1h-4.4V21h5.4v2.1h-7.9V10.5z"/>
</g>
</svg>
