<svg xmlns="http://www.w3.org/2000/svg" width="530.319" height="139.63" viewBox="0 0 140.31356 36.943773"><path fill="#00CD3C" d="M113.498 4.941a4.945 4.945 0 1 1-9.89.005 4.945 4.945 0 0 1 9.89-.005M26.703 3.226C27.56 1.506 28.99.64 31.014.64c2.749 0 4.27 1.834 4.27 4.524v27.772c0 2.59-1.672 4.006-3.758 4.006-2.08 0-3.76-1.417-3.76-4.006v-16.45l-6.043 11.523c-1.009 1.936-2.434 2.59-4.105 2.59-1.682 0-3.1-.656-4.065-2.54L7.509 16.484v16.453c0 2.59-1.68 4.007-3.757 4.007-2.08 0-3.752-1.417-3.752-4.007V5.163C0 2.473 1.518.639 4.261.639c2.028 0 3.455.865 4.317 2.587l9.04 17.827zm34.872 22.548H48.836c.406 2.59 2.386 4.574 5.583 4.574 1.977 0 3.404-.661 4.463-1.528 1.886-1.475 3.863-.916 5.083.713 1.062 1.468.908 3.404-1.069 4.922-2.078 1.579-4.463 2.486-8.27 2.486-7.469 0-13.105-5.022-13.105-12.84 0-7.518 5.023-13.202 12.237-13.202 8.019 0 11.829 6.143 11.829 10.91 0 2.242-1.02 3.965-4.015 3.965m-12.388-4.819h8.944c-.151-2.088-1.833-3.709-4.218-3.709-2.688 0-4.26 1.672-4.726 3.707m29.751 12.136c0 2.486-1.62 3.852-3.605 3.852-1.977 0-3.606-1.366-3.606-3.852V4.754c0-2.486 1.629-3.86 3.606-3.86 1.984 0 3.605 1.374 3.605 3.86zm19.144-22.19c7.46 0 13.144 5.583 13.144 13.052 0 7.458-5.683 12.99-13.144 12.99-7.467 0-13.153-5.532-13.153-12.99 0-7.469 5.686-13.052 13.153-13.052m0 19.34c3.353 0 5.789-2.64 5.789-6.288 0-3.66-2.436-6.3-5.79-6.3-3.35 0-5.794 2.64-5.794 6.3 0 3.648 2.444 6.286 5.795 6.286m19.135-14.824c0-2.486 1.622-3.853 3.598-3.853 1.528 0 2.8.756 3.354 2.232 1.324-1.579 3.505-2.588 6.042-2.588 6.091 0 10.106 3.954 10.106 11.014v10.87c0 2.487-1.63 3.853-3.606 3.853-1.977 0-3.606-1.366-3.606-3.852v-10.31c0-2.64-1.215-4.872-4.11-4.872-3.401 0-4.571 2.539-4.571 6.349v8.833c0 2.486-1.622 3.852-3.606 3.852-1.98 0-3.6-1.366-3.6-3.852zm0 0"/></svg>