<svg width="200" height="200" viewBox="0 0 200 200" fill="none" xmlns="http://www.w3.org/2000/svg">
<circle cx="100" cy="100" r="100" fill="#9A9A9A"/>
<path fill-rule="evenodd" clip-rule="evenodd" d="M81.8182 82.0217C83.5295 73.9512 91.0076 68 99.8325 68C108.659 68 116.139 73.9538 117.848 82.027C118.118 82.9022 118.204 84.0522 118.211 85.3625C118.211 85.3638 118.211 85.365 118.211 85.3662L116.211 85.3752L118.21 85.3578C118.21 85.3594 118.211 85.361 118.211 85.3625C118.211 85.4102 118.211 85.4579 118.211 85.5056C118.211 85.5862 118.211 85.6667 118.209 85.7471C118.134 92.0614 115.132 98.0493 111.62 102.86C108.09 107.696 103.882 111.567 101.026 113.692C100.317 114.219 99.3471 114.219 98.6386 113.692C95.7646 111.554 91.5212 107.647 87.9774 102.768C84.4522 97.9147 81.4536 91.8703 81.4536 85.5057C81.4536 84.1264 81.5388 82.9249 81.8182 82.0217ZM81.8182 82.0217C81.8103 82.0589 81.8025 82.0962 81.7948 82.1335L83.7541 82.5351L81.8624 81.8859C81.8472 81.9304 81.8324 81.9756 81.8182 82.0217ZM99.8325 72C92.7532 72 86.9754 76.779 85.7134 82.9366C85.6962 83.0205 85.6736 83.1032 85.6458 83.1842C85.5643 83.4217 85.4536 84.0919 85.4536 85.5057C85.4536 90.6595 87.9146 95.8751 91.2138 100.417C94.0227 104.285 97.3194 107.498 99.8322 109.549C102.327 107.513 105.594 104.331 108.39 100.501C111.676 95.9983 114.149 90.8223 114.21 85.6974L114.21 85.6922C114.211 85.6302 114.211 85.568 114.211 85.5056C114.211 85.468 114.211 85.4303 114.211 85.3926L114.211 85.3842C114.205 84.0506 114.097 83.4138 114.019 83.1851C113.992 83.1049 113.969 83.023 113.952 82.9399C112.692 76.7807 106.913 72 99.8325 72Z" fill="white"/>
<path fill-rule="evenodd" clip-rule="evenodd" d="M99.8324 91.7199C102.795 91.7199 105.192 89.3208 105.192 86.3673C105.192 83.4138 102.795 81.0146 99.8324 81.0146C96.8699 81.0146 94.4731 83.4138 94.4731 86.3673C94.4731 89.3208 96.8699 91.7199 99.8324 91.7199ZM99.8324 95.7199C105.001 95.7199 109.192 91.5326 109.192 86.3673C109.192 81.202 105.001 77.0146 99.8324 77.0146C94.6634 77.0146 90.4731 81.202 90.4731 86.3673C90.4731 91.5326 94.6634 95.7199 99.8324 95.7199Z" fill="white"/>
<path fill-rule="evenodd" clip-rule="evenodd" d="M77.5231 105.15C77.8527 104.448 78.5581 104 79.3333 104H92.7667C93.8712 104 94.7667 104.895 94.7667 106C94.7667 107.105 93.8712 108 92.7667 108H80.6036L72.149 126H127.851L119.396 108H107.233C106.129 108 105.233 107.105 105.233 106C105.233 104.895 106.129 104 107.233 104H120.667C121.442 104 122.147 104.448 122.477 105.15L132.81 127.15C133.101 127.769 133.055 128.494 132.688 129.072C132.321 129.65 131.684 130 131 130H69C68.3156 130 67.6787 129.65 67.3117 129.072C66.9448 128.494 66.8988 127.769 67.1897 127.15L77.5231 105.15Z" fill="white"/>
</svg>
