<svg width="200" height="200" viewBox="0 0 200 200" fill="none" xmlns="http://www.w3.org/2000/svg">
<circle cx="100" cy="100" r="100" fill="#F0F0F0"/>
<path fill-rule="evenodd" clip-rule="evenodd" d="M130.414 69.5858C131.195 70.3668 131.195 71.6332 130.414 72.4142L128.194 74.6349V92.5161C128.194 93.0466 127.983 93.5553 127.608 93.9303L91.1239 130.414C90.3428 131.195 89.0765 131.195 88.2955 130.414L69.5858 111.705C68.8047 110.923 68.8047 109.657 69.5858 108.876L106.07 72.3922C106.445 72.0172 106.953 71.8065 107.484 71.8065H125.365L127.586 69.5858C128.367 68.8047 129.633 68.8047 130.414 69.5858ZM121.365 75.8065H108.312L73.8284 110.29L89.7097 126.172L124.194 91.6877V78.6349L116.85 85.9787C116.069 86.7598 114.802 86.7598 114.021 85.9787C113.24 85.1977 113.24 83.9314 114.021 83.1503L121.365 75.8065Z" fill="#3C3C3C"/>
<path fill-rule="evenodd" clip-rule="evenodd" d="M113.564 89.9194C115.489 89.9194 117.048 88.3596 117.048 86.4355C117.048 84.5114 115.489 82.9517 113.564 82.9517C111.64 82.9517 110.081 84.5114 110.081 86.4355C110.081 88.3596 111.64 89.9194 113.564 89.9194ZM113.564 93.9194C117.698 93.9194 121.048 90.5688 121.048 86.4355C121.048 82.3023 117.698 78.9517 113.564 78.9517C109.431 78.9517 106.081 82.3023 106.081 86.4355C106.081 90.5688 109.431 93.9194 113.564 93.9194Z" fill="#3C3C3C"/>
</svg>
