<svg width="200" height="200" viewBox="0 0 200 200" fill="none" xmlns="http://www.w3.org/2000/svg">
<circle cx="100" cy="100" r="100" fill="#F0F0F0"/>
<path fill-rule="evenodd" clip-rule="evenodd" d="M70 72.0667C70 70.9253 70.8954 70 72 70H102.847C103.952 70 104.847 70.9253 104.847 72.0667V91.264H128C129.105 91.264 130 92.1893 130 93.3307V119.045C130 120.187 129.105 121.112 128 121.112H110.915C109.811 121.112 108.915 120.187 108.915 119.045C108.915 117.904 109.811 116.979 110.915 116.979H126V95.3974H104.847V105.199C104.847 106.34 103.952 107.266 102.847 107.266C101.743 107.266 100.847 106.34 100.847 105.199V95.3974H95.0004C94.5183 97.3522 93.5913 99.6717 92.0489 101.712C89.9428 104.497 86.6657 106.771 81.9661 106.771C80.8615 106.771 79.9661 105.846 79.9661 104.704V95.3974H74V116.979H93.3559C93.9226 116.979 94.4627 117.227 94.8419 117.662L104.333 128.55C105.073 129.398 105.007 130.705 104.186 131.469C103.365 132.233 102.101 132.165 101.361 131.317L92.4657 121.112H72C70.8954 121.112 70 120.187 70 119.045V72.0667ZM74 91.264H81.9661C83.0707 91.264 83.9661 92.1893 83.9661 93.3307V102.43C86.162 101.951 87.7439 100.692 88.8968 99.167C90.4259 97.1446 91.1716 94.6702 91.3725 93.0656C91.5014 92.0353 92.3505 91.264 93.3559 91.264H100.847V74.1333H74V91.264Z" fill="#3C3C3C"/>
</svg>
