<?xml version="1.0" encoding="utf-8"?>
<!-- Generator: Adobe Illustrator 24.0.3, SVG Export Plug-In . SVG Version: 6.00 Build 0)  -->
<svg version="1.1" xmlns="http://www.w3.org/2000/svg" xmlns:xlink="http://www.w3.org/1999/xlink" x="0px" y="0px"
	 viewBox="0 0 370 370" style="enable-background:new 0 0 370 370;" xml:space="preserve">
<style type="text/css">
	.st0{clip-path:url(#SVGID_2_);fill:none;stroke:url(#SVGID_3_);stroke-miterlimit:10;}
	.st1{clip-path:url(#SVGID_2_);fill:none;stroke:url(#SVGID_4_);stroke-miterlimit:10;}
	.st2{clip-path:url(#SVGID_2_);fill:none;stroke:url(#SVGID_5_);stroke-miterlimit:10;}
	.st3{clip-path:url(#SVGID_2_);fill:none;stroke:url(#SVGID_6_);stroke-miterlimit:10;}
	.st4{clip-path:url(#SVGID_2_);fill:none;stroke:url(#SVGID_7_);stroke-miterlimit:10;}
	.st5{clip-path:url(#SVGID_2_);fill:none;stroke:url(#SVGID_8_);stroke-miterlimit:10;}
	.st6{clip-path:url(#SVGID_2_);fill:none;stroke:url(#SVGID_9_);stroke-miterlimit:10;}
	.st7{clip-path:url(#SVGID_2_);fill:none;stroke:url(#SVGID_10_);stroke-miterlimit:10;}
	.st8{clip-path:url(#SVGID_2_);fill:none;stroke:url(#SVGID_11_);stroke-miterlimit:10;}
	.st9{clip-path:url(#SVGID_2_);fill:none;stroke:url(#SVGID_12_);stroke-miterlimit:10;}
	.st10{clip-path:url(#SVGID_2_);fill:none;stroke:url(#SVGID_13_);stroke-miterlimit:10;}
	.st11{clip-path:url(#SVGID_2_);fill:none;stroke:url(#SVGID_14_);stroke-miterlimit:10;}
	.st12{clip-path:url(#SVGID_2_);fill:none;stroke:url(#SVGID_15_);stroke-miterlimit:10;}
	.st13{clip-path:url(#SVGID_2_);fill:none;stroke:url(#SVGID_16_);stroke-miterlimit:10;}
	.st14{clip-path:url(#SVGID_2_);fill:none;stroke:url(#SVGID_17_);stroke-miterlimit:10;}
	.st15{clip-path:url(#SVGID_2_);fill:none;stroke:url(#SVGID_18_);stroke-miterlimit:10;}
	.st16{clip-path:url(#SVGID_2_);fill:none;stroke:url(#SVGID_19_);stroke-miterlimit:10;}
	.st17{clip-path:url(#SVGID_2_);fill:none;stroke:url(#SVGID_20_);stroke-miterlimit:10;}
	.st18{clip-path:url(#SVGID_2_);fill:none;stroke:url(#SVGID_21_);stroke-miterlimit:10;}
	.st19{clip-path:url(#SVGID_2_);fill:none;stroke:url(#SVGID_22_);stroke-miterlimit:10;}
	.st20{clip-path:url(#SVGID_2_);fill:none;stroke:url(#SVGID_23_);stroke-miterlimit:10;}
	.st21{clip-path:url(#SVGID_2_);fill:none;stroke:url(#SVGID_24_);stroke-miterlimit:10;}
	.st22{clip-path:url(#SVGID_2_);fill:none;stroke:url(#SVGID_25_);stroke-miterlimit:10;}
	.st23{clip-path:url(#SVGID_2_);fill:none;stroke:url(#SVGID_26_);stroke-miterlimit:10;}
	.st24{clip-path:url(#SVGID_2_);fill:none;stroke:url(#SVGID_27_);stroke-miterlimit:10;}
	.st25{clip-path:url(#SVGID_2_);fill:none;stroke:url(#SVGID_28_);stroke-miterlimit:10;}
	.st26{clip-path:url(#SVGID_2_);fill:none;stroke:url(#SVGID_29_);stroke-miterlimit:10;}
	.st27{clip-path:url(#SVGID_2_);fill:none;stroke:url(#SVGID_30_);stroke-miterlimit:10;}
	.st28{clip-path:url(#SVGID_2_);fill:none;stroke:url(#SVGID_31_);stroke-miterlimit:10;}
	.st29{clip-path:url(#SVGID_2_);fill:none;stroke:url(#SVGID_32_);stroke-miterlimit:10;}
	.st30{clip-path:url(#SVGID_2_);fill:none;stroke:url(#SVGID_33_);stroke-miterlimit:10;}
	.st31{clip-path:url(#SVGID_2_);fill:none;stroke:url(#SVGID_34_);stroke-miterlimit:10;}
	.st32{clip-path:url(#SVGID_2_);fill:none;stroke:url(#SVGID_35_);stroke-miterlimit:10;}
	.st33{clip-path:url(#SVGID_2_);fill:none;stroke:url(#SVGID_36_);stroke-miterlimit:10;}
	.st34{clip-path:url(#SVGID_2_);fill:none;stroke:url(#SVGID_37_);stroke-miterlimit:10;}
	.st35{clip-path:url(#SVGID_2_);fill:none;stroke:url(#SVGID_38_);stroke-miterlimit:10;}
	.st36{clip-path:url(#SVGID_2_);fill:none;stroke:url(#SVGID_39_);stroke-miterlimit:10;}
	.st37{clip-path:url(#SVGID_2_);fill:none;stroke:url(#SVGID_40_);stroke-miterlimit:10;}
	.st38{clip-path:url(#SVGID_2_);fill:none;stroke:url(#SVGID_41_);stroke-miterlimit:10;}
	.st39{clip-path:url(#SVGID_2_);fill:none;stroke:url(#SVGID_42_);stroke-miterlimit:10;}
	.st40{clip-path:url(#SVGID_2_);fill:none;stroke:url(#SVGID_43_);stroke-miterlimit:10;}
	.st41{clip-path:url(#SVGID_2_);fill:none;stroke:url(#SVGID_44_);stroke-miterlimit:10;}
	.st42{clip-path:url(#SVGID_2_);fill:none;stroke:url(#SVGID_45_);stroke-miterlimit:10;}
	.st43{clip-path:url(#SVGID_2_);fill:none;stroke:url(#SVGID_46_);stroke-miterlimit:10;}
	.st44{clip-path:url(#SVGID_2_);fill:none;stroke:url(#SVGID_47_);stroke-miterlimit:10;}
	.st45{clip-path:url(#SVGID_2_);fill:none;stroke:url(#SVGID_48_);stroke-miterlimit:10;}
	.st46{clip-path:url(#SVGID_2_);fill:none;stroke:url(#SVGID_49_);stroke-miterlimit:10;}
	.st47{clip-path:url(#SVGID_2_);}
</style>
<g id="Layer_1">
	<g>
		<defs>
			<circle id="SVGID_1_" cx="184.91" cy="185.05" r="166.5"/>
		</defs>
		<clipPath id="SVGID_2_">
			<use xlink:href="#SVGID_1_"  style="overflow:visible;"/>
		</clipPath>
		<linearGradient id="SVGID_3_" gradientUnits="userSpaceOnUse" x1="17.9113" y1="185.051" x2="351.9113" y2="185.051">
			<stop  offset="0" style="stop-color:#92D04D"/>
			<stop  offset="1" style="stop-color:#F2FF9A"/>
		</linearGradient>
		<circle class="st0" cx="184.91" cy="185.05" r="166.5"/>
		<linearGradient id="SVGID_4_" gradientUnits="userSpaceOnUse" x1="21.214" y1="190.451" x2="348.6086" y2="190.451">
			<stop  offset="0" style="stop-color:#92D04D"/>
			<stop  offset="1" style="stop-color:#F2FF9A"/>
		</linearGradient>
		<circle class="st1" cx="184.91" cy="190.45" r="163.17"/>
		<linearGradient id="SVGID_5_" gradientUnits="userSpaceOnUse" x1="24.4612" y1="195.851" x2="345.3614" y2="195.851">
			<stop  offset="0" style="stop-color:#92D04D"/>
			<stop  offset="1" style="stop-color:#F2FF9A"/>
		</linearGradient>
		<circle class="st2" cx="184.91" cy="195.85" r="159.91"/>
		<linearGradient id="SVGID_6_" gradientUnits="userSpaceOnUse" x1="27.6767" y1="201.251" x2="342.1459" y2="201.251">
			<stop  offset="0" style="stop-color:#92D04D"/>
			<stop  offset="1" style="stop-color:#F2FF9A"/>
		</linearGradient>
		<circle class="st3" cx="184.91" cy="201.25" r="156.71"/>
		<linearGradient id="SVGID_7_" gradientUnits="userSpaceOnUse" x1="30.8334" y1="206.651" x2="338.9892" y2="206.651">
			<stop  offset="0" style="stop-color:#92D04D"/>
			<stop  offset="1" style="stop-color:#F2FF9A"/>
		</linearGradient>
		<circle class="st4" cx="184.91" cy="206.65" r="153.57"/>
		<linearGradient id="SVGID_8_" gradientUnits="userSpaceOnUse" x1="33.905" y1="212.051" x2="335.9176" y2="212.051">
			<stop  offset="0" style="stop-color:#92D04D"/>
			<stop  offset="1" style="stop-color:#F2FF9A"/>
		</linearGradient>
		<circle class="st5" cx="184.91" cy="212.05" r="150.5"/>
		<linearGradient id="SVGID_9_" gradientUnits="userSpaceOnUse" x1="36.8939" y1="217.451" x2="332.9287" y2="217.451">
			<stop  offset="0" style="stop-color:#92D04D"/>
			<stop  offset="1" style="stop-color:#F2FF9A"/>
		</linearGradient>
		<circle class="st6" cx="184.91" cy="217.45" r="147.49"/>
		<linearGradient id="SVGID_10_" gradientUnits="userSpaceOnUse" x1="39.829" y1="222.851" x2="329.9935" y2="222.851">
			<stop  offset="0" style="stop-color:#92D04D"/>
			<stop  offset="1" style="stop-color:#F2FF9A"/>
		</linearGradient>
		<circle class="st7" cx="184.91" cy="222.85" r="144.54"/>
		<linearGradient id="SVGID_11_" gradientUnits="userSpaceOnUse" x1="42.7356" y1="228.251" x2="327.087" y2="228.251">
			<stop  offset="0" style="stop-color:#92D04D"/>
			<stop  offset="1" style="stop-color:#F2FF9A"/>
		</linearGradient>
		<circle class="st8" cx="184.91" cy="228.25" r="141.65"/>
		<linearGradient id="SVGID_12_" gradientUnits="userSpaceOnUse" x1="45.5923" y1="233.651" x2="324.2303" y2="233.651">
			<stop  offset="0" style="stop-color:#92D04D"/>
			<stop  offset="1" style="stop-color:#F2FF9A"/>
		</linearGradient>
		<circle class="st9" cx="184.91" cy="233.65" r="138.82"/>
		<linearGradient id="SVGID_13_" gradientUnits="userSpaceOnUse" x1="48.3459" y1="239.051" x2="321.4767" y2="239.051">
			<stop  offset="0" style="stop-color:#92D04D"/>
			<stop  offset="1" style="stop-color:#F2FF9A"/>
		</linearGradient>
		<circle class="st10" cx="184.91" cy="239.05" r="136.04"/>
		<linearGradient id="SVGID_14_" gradientUnits="userSpaceOnUse" x1="51.0532" y1="244.451" x2="318.7693" y2="244.451">
			<stop  offset="0" style="stop-color:#92D04D"/>
			<stop  offset="1" style="stop-color:#F2FF9A"/>
		</linearGradient>
		<circle class="st11" cx="184.91" cy="244.45" r="133.32"/>
		<linearGradient id="SVGID_15_" gradientUnits="userSpaceOnUse" x1="53.7341" y1="249.851" x2="316.0884" y2="249.851">
			<stop  offset="0" style="stop-color:#92D04D"/>
			<stop  offset="1" style="stop-color:#F2FF9A"/>
		</linearGradient>
		<circle class="st12" cx="184.91" cy="249.85" r="130.66"/>
		<linearGradient id="SVGID_16_" gradientUnits="userSpaceOnUse" x1="56.3661" y1="255.251" x2="313.4565" y2="255.251">
			<stop  offset="0" style="stop-color:#92D04D"/>
			<stop  offset="1" style="stop-color:#F2FF9A"/>
		</linearGradient>
		<circle class="st13" cx="184.91" cy="255.25" r="128.04"/>
		<linearGradient id="SVGID_17_" gradientUnits="userSpaceOnUse" x1="58.927" y1="260.651" x2="310.8956" y2="260.651">
			<stop  offset="0" style="stop-color:#92D04D"/>
			<stop  offset="1" style="stop-color:#F2FF9A"/>
		</linearGradient>
		<circle class="st14" cx="184.91" cy="260.65" r="125.48"/>
		<linearGradient id="SVGID_18_" gradientUnits="userSpaceOnUse" x1="61.419" y1="266.051" x2="308.4036" y2="266.051">
			<stop  offset="0" style="stop-color:#92D04D"/>
			<stop  offset="1" style="stop-color:#F2FF9A"/>
		</linearGradient>
		<circle class="st15" cx="184.91" cy="266.05" r="122.97"/>
		<linearGradient id="SVGID_19_" gradientUnits="userSpaceOnUse" x1="63.8662" y1="271.451" x2="305.9564" y2="271.451">
			<stop  offset="0" style="stop-color:#92D04D"/>
			<stop  offset="1" style="stop-color:#F2FF9A"/>
		</linearGradient>
		<circle class="st16" cx="184.91" cy="271.45" r="120.51"/>
		<linearGradient id="SVGID_20_" gradientUnits="userSpaceOnUse" x1="66.2895" y1="276.851" x2="303.5331" y2="276.851">
			<stop  offset="0" style="stop-color:#92D04D"/>
			<stop  offset="1" style="stop-color:#F2FF9A"/>
		</linearGradient>
		<circle class="st17" cx="184.91" cy="276.85" r="118.1"/>
		<linearGradient id="SVGID_21_" gradientUnits="userSpaceOnUse" x1="68.6713" y1="282.251" x2="301.1513" y2="282.251">
			<stop  offset="0" style="stop-color:#92D04D"/>
			<stop  offset="1" style="stop-color:#F2FF9A"/>
		</linearGradient>
		<circle class="st18" cx="184.91" cy="282.25" r="115.74"/>
		<linearGradient id="SVGID_22_" gradientUnits="userSpaceOnUse" x1="70.9671" y1="287.651" x2="298.8555" y2="287.651">
			<stop  offset="0" style="stop-color:#92D04D"/>
			<stop  offset="1" style="stop-color:#F2FF9A"/>
		</linearGradient>
		<circle class="st19" cx="184.91" cy="287.65" r="113.43"/>
		<linearGradient id="SVGID_23_" gradientUnits="userSpaceOnUse" x1="73.2243" y1="293.051" x2="296.5983" y2="293.051">
			<stop  offset="0" style="stop-color:#92D04D"/>
			<stop  offset="1" style="stop-color:#F2FF9A"/>
		</linearGradient>
		<circle class="st20" cx="184.91" cy="293.05" r="111.16"/>
		<linearGradient id="SVGID_24_" gradientUnits="userSpaceOnUse" x1="75.4595" y1="298.451" x2="294.3631" y2="298.451">
			<stop  offset="0" style="stop-color:#92D04D"/>
			<stop  offset="1" style="stop-color:#F2FF9A"/>
		</linearGradient>
		<circle class="st21" cx="184.91" cy="298.45" r="108.93"/>
		<linearGradient id="SVGID_25_" gradientUnits="userSpaceOnUse" x1="77.6539" y1="303.851" x2="292.1687" y2="303.851">
			<stop  offset="0" style="stop-color:#92D04D"/>
			<stop  offset="1" style="stop-color:#F2FF9A"/>
		</linearGradient>
		<circle class="st22" cx="184.91" cy="303.85" r="106.75"/>
		<linearGradient id="SVGID_26_" gradientUnits="userSpaceOnUse" x1="79.789" y1="309.251" x2="290.0335" y2="309.251">
			<stop  offset="0" style="stop-color:#92D04D"/>
			<stop  offset="1" style="stop-color:#F2FF9A"/>
		</linearGradient>
		<circle class="st23" cx="184.91" cy="309.25" r="104.62"/>
		<linearGradient id="SVGID_27_" gradientUnits="userSpaceOnUse" x1="81.8667" y1="314.651" x2="287.9558" y2="314.651">
			<stop  offset="0" style="stop-color:#92D04D"/>
			<stop  offset="1" style="stop-color:#F2FF9A"/>
		</linearGradient>
		<circle class="st24" cx="184.91" cy="314.65" r="102.53"/>
		<linearGradient id="SVGID_28_" gradientUnits="userSpaceOnUse" x1="83.9071" y1="320.051" x2="285.9155" y2="320.051">
			<stop  offset="0" style="stop-color:#92D04D"/>
			<stop  offset="1" style="stop-color:#F2FF9A"/>
		</linearGradient>
		<circle class="st25" cx="184.91" cy="320.05" r="100.48"/>
		<linearGradient id="SVGID_29_" gradientUnits="userSpaceOnUse" x1="85.9275" y1="325.451" x2="283.8951" y2="325.451">
			<stop  offset="0" style="stop-color:#92D04D"/>
			<stop  offset="1" style="stop-color:#F2FF9A"/>
		</linearGradient>
		<circle class="st26" cx="184.91" cy="325.45" r="98.47"/>
		<linearGradient id="SVGID_30_" gradientUnits="userSpaceOnUse" x1="87.9133" y1="330.851" x2="281.9093" y2="330.851">
			<stop  offset="0" style="stop-color:#92D04D"/>
			<stop  offset="1" style="stop-color:#F2FF9A"/>
		</linearGradient>
		<circle class="st27" cx="184.91" cy="330.85" r="96.5"/>
		<linearGradient id="SVGID_31_" gradientUnits="userSpaceOnUse" x1="89.8274" y1="336.251" x2="279.9951" y2="336.251">
			<stop  offset="0" style="stop-color:#92D04D"/>
			<stop  offset="1" style="stop-color:#F2FF9A"/>
		</linearGradient>
		<circle class="st28" cx="184.91" cy="336.25" r="94.57"/>
		<linearGradient id="SVGID_32_" gradientUnits="userSpaceOnUse" x1="91.7094" y1="341.651" x2="278.1132" y2="341.651">
			<stop  offset="0" style="stop-color:#92D04D"/>
			<stop  offset="1" style="stop-color:#F2FF9A"/>
		</linearGradient>
		<circle class="st29" cx="184.91" cy="341.65" r="92.68"/>
		<linearGradient id="SVGID_33_" gradientUnits="userSpaceOnUse" x1="93.573" y1="347.051" x2="276.2496" y2="347.051">
			<stop  offset="0" style="stop-color:#92D04D"/>
			<stop  offset="1" style="stop-color:#F2FF9A"/>
		</linearGradient>
		<circle class="st30" cx="184.91" cy="347.05" r="90.82"/>
		<linearGradient id="SVGID_34_" gradientUnits="userSpaceOnUse" x1="95.4025" y1="352.451" x2="274.42" y2="352.451">
			<stop  offset="0" style="stop-color:#92D04D"/>
			<stop  offset="1" style="stop-color:#F2FF9A"/>
		</linearGradient>
		<circle class="st31" cx="184.91" cy="352.45" r="89.01"/>
		<linearGradient id="SVGID_35_" gradientUnits="userSpaceOnUse" x1="97.1827" y1="357.851" x2="272.6399" y2="357.851">
			<stop  offset="0" style="stop-color:#92D04D"/>
			<stop  offset="1" style="stop-color:#F2FF9A"/>
		</linearGradient>
		<circle class="st32" cx="184.91" cy="357.85" r="87.23"/>
		<linearGradient id="SVGID_36_" gradientUnits="userSpaceOnUse" x1="98.915" y1="363.251" x2="270.9076" y2="363.251">
			<stop  offset="0" style="stop-color:#92D04D"/>
			<stop  offset="1" style="stop-color:#F2FF9A"/>
		</linearGradient>
		<circle class="st33" cx="184.91" cy="363.25" r="85.48"/>
		<linearGradient id="SVGID_37_" gradientUnits="userSpaceOnUse" x1="100.6161" y1="368.651" x2="269.2065" y2="368.651">
			<stop  offset="0" style="stop-color:#92D04D"/>
			<stop  offset="1" style="stop-color:#F2FF9A"/>
		</linearGradient>
		<circle class="st34" cx="184.91" cy="368.65" r="83.77"/>
		<linearGradient id="SVGID_38_" gradientUnits="userSpaceOnUse" x1="102.3006" y1="374.051" x2="267.5219" y2="374.051">
			<stop  offset="0" style="stop-color:#92D04D"/>
			<stop  offset="1" style="stop-color:#F2FF9A"/>
		</linearGradient>
		<circle class="st35" cx="184.91" cy="374.05" r="82.1"/>
		<linearGradient id="SVGID_39_" gradientUnits="userSpaceOnUse" x1="103.9563" y1="379.451" x2="265.8663" y2="379.451">
			<stop  offset="0" style="stop-color:#92D04D"/>
			<stop  offset="1" style="stop-color:#F2FF9A"/>
		</linearGradient>
		<circle class="st36" cx="184.91" cy="379.45" r="80.45"/>
		<linearGradient id="SVGID_40_" gradientUnits="userSpaceOnUse" x1="105.5522" y1="384.851" x2="264.2704" y2="384.851">
			<stop  offset="0" style="stop-color:#92D04D"/>
			<stop  offset="1" style="stop-color:#F2FF9A"/>
		</linearGradient>
		<circle class="st37" cx="184.91" cy="384.85" r="78.85"/>
		<linearGradient id="SVGID_41_" gradientUnits="userSpaceOnUse" x1="107.1213" y1="390.251" x2="262.7013" y2="390.251">
			<stop  offset="0" style="stop-color:#92D04D"/>
			<stop  offset="1" style="stop-color:#F2FF9A"/>
		</linearGradient>
		<circle class="st38" cx="184.91" cy="390.25" r="77.27"/>
		<linearGradient id="SVGID_42_" gradientUnits="userSpaceOnUse" x1="108.6751" y1="395.651" x2="261.1475" y2="395.651">
			<stop  offset="0" style="stop-color:#92D04D"/>
			<stop  offset="1" style="stop-color:#F2FF9A"/>
		</linearGradient>
		<circle class="st39" cx="184.91" cy="395.65" r="75.72"/>
		<linearGradient id="SVGID_43_" gradientUnits="userSpaceOnUse" x1="110.2004" y1="401.051" x2="259.6221" y2="401.051">
			<stop  offset="0" style="stop-color:#92D04D"/>
			<stop  offset="1" style="stop-color:#F2FF9A"/>
		</linearGradient>
		<circle class="st40" cx="184.91" cy="401.05" r="74.21"/>
		<linearGradient id="SVGID_44_" gradientUnits="userSpaceOnUse" x1="111.6847" y1="406.451" x2="258.1379" y2="406.451">
			<stop  offset="0" style="stop-color:#92D04D"/>
			<stop  offset="1" style="stop-color:#F2FF9A"/>
		</linearGradient>
		<circle class="st41" cx="184.91" cy="406.45" r="72.72"/>
		<linearGradient id="SVGID_45_" gradientUnits="userSpaceOnUse" x1="113.129" y1="411.851" x2="256.6936" y2="411.851">
			<stop  offset="0" style="stop-color:#92D04D"/>
			<stop  offset="1" style="stop-color:#F2FF9A"/>
		</linearGradient>
		<circle class="st42" cx="184.91" cy="411.85" r="71.27"/>
		<linearGradient id="SVGID_46_" gradientUnits="userSpaceOnUse" x1="114.5472" y1="417.251" x2="255.2753" y2="417.251">
			<stop  offset="0" style="stop-color:#92D04D"/>
			<stop  offset="1" style="stop-color:#F2FF9A"/>
		</linearGradient>
		<circle class="st43" cx="184.91" cy="417.25" r="69.85"/>
		<linearGradient id="SVGID_47_" gradientUnits="userSpaceOnUse" x1="115.9517" y1="422.651" x2="253.8709" y2="422.651">
			<stop  offset="0" style="stop-color:#92D04D"/>
			<stop  offset="1" style="stop-color:#F2FF9A"/>
		</linearGradient>
		<circle class="st44" cx="184.91" cy="422.65" r="68.45"/>
		<linearGradient id="SVGID_48_" gradientUnits="userSpaceOnUse" x1="117.3321" y1="428.051" x2="252.4904" y2="428.051">
			<stop  offset="0" style="stop-color:#92D04D"/>
			<stop  offset="1" style="stop-color:#F2FF9A"/>
		</linearGradient>
		<circle class="st45" cx="184.91" cy="428.05" r="67.08"/>
		<linearGradient id="SVGID_49_" gradientUnits="userSpaceOnUse" x1="118.6627" y1="433.451" x2="251.1599" y2="433.451">
			<stop  offset="0" style="stop-color:#92D04D"/>
			<stop  offset="1" style="stop-color:#F2FF9A"/>
		</linearGradient>
		<circle class="st46" cx="184.91" cy="433.45" r="65.74"/>
		<g class="st47">
			<path d="M184.91,374.41v1c26.56,0,50.51,16.78,59.6,41.75c11.96,32.86-5.04,69.33-37.91,81.29c-7.01,2.55-14.3,3.84-21.69,3.84
				c-26.56,0-50.51-16.78-59.6-41.75c-5.79-15.92-5.04-33.14,2.12-48.5s19.87-27,35.79-32.79c7.01-2.55,14.3-3.84,21.69-3.84
				L184.91,374.41 M184.91,374.41c-7.32,0-14.76,1.26-22.03,3.9c-33.43,12.17-50.67,49.14-38.5,82.57
				c9.52,26.16,34.23,42.41,60.54,42.41c7.32,0,14.76-1.26,22.03-3.9c33.43-12.17,50.67-49.14,38.5-82.57
				C235.93,390.66,211.22,374.41,184.91,374.41L184.91,374.41z"/>
		</g>
		<g class="st47">
			<path d="M184.86,381.11v1c22.16,0,42.8,11.91,53.87,31.08c17.13,29.67,6.93,67.75-22.74,84.88c-9.44,5.45-20.17,8.33-31.01,8.33
				c-22.16,0-42.8-11.91-53.87-31.08c-8.3-14.37-10.5-31.12-6.21-47.15c4.3-16.03,14.58-29.43,28.95-37.73
				c9.44-5.45,20.17-8.33,31.01-8.33L184.86,381.11 M184.85,381.11c-10.71,0-21.57,2.73-31.51,8.47
				c-30.2,17.43-40.54,56.05-23.11,86.24c11.69,20.26,32.91,31.58,54.73,31.58c10.71,0,21.57-2.73,31.51-8.47
				c30.2-17.43,40.54-56.05,23.11-86.24C227.89,392.43,206.67,381.1,184.85,381.11L184.85,381.11z"/>
		</g>
		<g class="st47">
			<path d="M184.88,387.78v1c18.06,0,35.06,7.93,46.66,21.75c10.45,12.46,15.43,28.24,14.01,44.43s-9.06,30.87-21.51,41.33
				c-10.95,9.18-24.83,14.24-39.1,14.24c-18.06,0-35.07-7.93-46.66-21.75c-10.45-12.46-15.43-28.24-14.01-44.43
				s9.06-30.87,21.51-41.33c10.94-9.18,24.83-14.24,39.1-14.24L184.88,387.78 M184.88,387.78c-14.03,0-28.15,4.75-39.74,14.48
				c-26.18,21.96-29.59,60.99-7.63,87.17c12.24,14.59,29.77,22.1,47.43,22.1c14.03,0,28.15-4.75,39.74-14.48
				c26.18-21.96,29.59-60.99,7.63-87.17C220.07,395.3,202.54,387.78,184.88,387.78L184.88,387.78z"/>
		</g>
		<g class="st47">
			<path d="M184.95,395.42c13.97,0,27.57,4.96,38.3,13.95c25.19,21.14,28.49,58.83,7.35,84.01c-11.36,13.54-28.02,21.3-45.71,21.3
				c-13.98,0-27.58-4.96-38.3-13.95c-12.2-10.24-19.69-24.62-21.08-40.49c-1.39-15.87,3.49-31.33,13.72-43.53
				C150.59,403.18,167.25,395.42,184.95,395.42L184.95,395.42 M184.94,394.42c-17.3,0-34.49,7.37-46.48,21.66
				c-21.53,25.65-18.18,63.9,7.47,85.42c11.36,9.53,25.19,14.19,38.94,14.19c17.3,0,34.49-7.37,46.48-21.66
				c21.53-25.65,18.18-63.9-7.47-85.42C212.53,399.07,198.7,394.41,184.94,394.42L184.94,394.42z"/>
		</g>
		<g class="st47">
			<path d="M184.97,402.02c10.19,0,20.27,2.71,29.15,7.84c13.51,7.8,23.18,20.4,27.22,35.47c4.04,15.07,1.97,30.82-5.84,44.33
				c-10.41,18.02-29.81,29.22-50.65,29.22c-10.19,0-20.28-2.71-29.16-7.84c-13.51-7.8-23.18-20.4-27.22-35.47
				c-4.04-15.07-1.97-30.82,5.84-44.33C144.72,413.22,164.13,402.02,184.97,402.02L184.97,402.02 M184.97,401.02
				c-20.54,0-40.51,10.66-51.52,29.72c-16.41,28.42-6.67,64.76,21.75,81.17c9.36,5.4,19.57,7.97,29.66,7.97
				c20.54,0,40.51-10.66,51.52-29.72c16.41-28.42,6.67-64.76-21.75-81.17C205.26,403.59,195.05,401.02,184.97,401.02L184.97,401.02z
				"/>
		</g>
		<g class="st47">
			<path d="M184.92,407.6v1c6.66,0,13.24,1.17,19.56,3.47c14.37,5.23,25.84,15.74,32.3,29.59c6.46,13.86,7.14,29.4,1.91,43.76
				c-8.2,22.53-29.82,37.67-53.79,37.67c-6.66,0-13.25-1.17-19.57-3.47c-29.66-10.79-45-43.7-34.21-73.36
				c8.2-22.53,29.82-37.67,53.79-37.67L184.92,407.6 M184.92,407.6c-23.78,0-46.12,14.69-54.73,38.33
				c-11,30.22,4.58,63.64,34.8,74.64c6.58,2.39,13.3,3.53,19.91,3.53c23.78,0,46.12-14.69,54.73-38.33
				c11-30.22-4.58-63.64-34.8-74.64C198.25,408.74,191.53,407.6,184.92,407.6L184.92,407.6z"/>
		</g>
		<linearGradient id="SVGID_50_" gradientUnits="userSpaceOnUse" x1="18.3613" y1="185.051" x2="351.4613" y2="185.051">
			<stop  offset="0" style="stop-color:#92D04D"/>
			<stop  offset="1" style="stop-color:#F2FF9A"/>
		</linearGradient>
		
			<use xlink:href="#SVGID_1_"  style="overflow:visible;fill:none;stroke:url(#SVGID_50_);stroke-width:0.1;stroke-miterlimit:10;"/>
	</g>
</g>
<g id="Layer_2">
</g>
</svg>
