<?xml version="1.0" encoding="utf-8"?>
<!-- Generator: Adobe Illustrator 24.0.3, SVG Export Plug-In . SVG Version: 6.00 Build 0)  -->
<svg version="1.1" id="Layer_1" xmlns="http://www.w3.org/2000/svg" xmlns:xlink="http://www.w3.org/1999/xlink" x="0px" y="0px"
	 viewBox="0 0 370 370" style="enable-background:new 0 0 370 370;" xml:space="preserve">
<style type="text/css">
	.st0{clip-path:url(#SVGID_2_);}
	.st1{fill:none;stroke:url(#SVGID_3_);stroke-miterlimit:10;}
	.st2{fill:none;stroke:url(#SVGID_4_);stroke-miterlimit:10;}
	.st3{fill:none;stroke:url(#SVGID_5_);stroke-miterlimit:10;}
	.st4{fill:none;stroke:url(#SVGID_6_);stroke-miterlimit:10;}
	.st5{fill:none;stroke:url(#SVGID_7_);stroke-miterlimit:10;}
	.st6{fill:none;stroke:url(#SVGID_8_);stroke-miterlimit:10;}
	.st7{fill:none;stroke:url(#SVGID_9_);stroke-miterlimit:10;}
	.st8{fill:none;stroke:url(#SVGID_10_);stroke-miterlimit:10;}
	.st9{fill:none;stroke:url(#SVGID_11_);stroke-miterlimit:10;}
	.st10{fill:none;stroke:url(#SVGID_12_);stroke-miterlimit:10;}
	.st11{fill:none;stroke:url(#SVGID_13_);stroke-miterlimit:10;}
	.st12{fill:none;stroke:url(#SVGID_14_);stroke-miterlimit:10;}
	.st13{fill:none;stroke:url(#SVGID_15_);stroke-miterlimit:10;}
	.st14{fill:none;stroke:url(#SVGID_16_);stroke-miterlimit:10;}
	.st15{fill:none;stroke:url(#SVGID_17_);stroke-miterlimit:10;}
	.st16{fill:none;stroke:url(#SVGID_18_);stroke-miterlimit:10;}
	.st17{fill:none;stroke:url(#SVGID_19_);stroke-miterlimit:10;}
	.st18{fill:none;stroke:url(#SVGID_20_);stroke-miterlimit:10;}
	.st19{fill:none;stroke:url(#SVGID_21_);stroke-miterlimit:10;}
	.st20{fill:none;stroke:url(#SVGID_22_);stroke-miterlimit:10;}
	.st21{fill:none;stroke:url(#SVGID_23_);stroke-miterlimit:10;}
	.st22{fill:none;stroke:url(#SVGID_24_);stroke-miterlimit:10;}
	.st23{fill:none;stroke:url(#SVGID_25_);stroke-miterlimit:10;}
	.st24{fill:none;stroke:url(#SVGID_26_);stroke-miterlimit:10;}
	.st25{fill:none;stroke:url(#SVGID_27_);stroke-miterlimit:10;}
	.st26{fill:none;stroke:url(#SVGID_28_);stroke-miterlimit:10;}
	.st27{fill:none;stroke:url(#SVGID_29_);stroke-miterlimit:10;}
	.st28{fill:none;stroke:url(#SVGID_30_);stroke-miterlimit:10;}
	.st29{fill:none;stroke:url(#SVGID_31_);stroke-miterlimit:10;}
	.st30{fill:none;stroke:url(#SVGID_32_);stroke-miterlimit:10;}
	.st31{fill:none;stroke:url(#SVGID_33_);stroke-miterlimit:10;}
	.st32{fill:none;stroke:url(#SVGID_34_);stroke-miterlimit:10;}
	.st33{fill:none;stroke:url(#SVGID_35_);stroke-miterlimit:10;}
	.st34{fill:none;stroke:url(#SVGID_36_);stroke-miterlimit:10;}
	.st35{fill:none;stroke:url(#SVGID_37_);stroke-miterlimit:10;}
	.st36{fill:none;stroke:url(#SVGID_38_);stroke-miterlimit:10;}
	.st37{fill:none;stroke:url(#SVGID_39_);stroke-miterlimit:10;}
	.st38{fill:none;stroke:url(#SVGID_40_);stroke-miterlimit:10;}
	.st39{fill:none;stroke:url(#SVGID_41_);stroke-miterlimit:10;}
	.st40{fill:none;stroke:url(#SVGID_42_);stroke-miterlimit:10;}
	.st41{fill:none;stroke:url(#SVGID_43_);stroke-miterlimit:10;}
	.st42{fill:none;stroke:url(#SVGID_44_);stroke-miterlimit:10;}
	.st43{fill:none;stroke:url(#SVGID_45_);stroke-miterlimit:10;}
	.st44{fill:none;stroke:url(#SVGID_46_);stroke-miterlimit:10;}
	.st45{fill:none;stroke:url(#SVGID_47_);stroke-miterlimit:10;}
	.st46{fill:none;stroke:url(#SVGID_48_);stroke-miterlimit:10;}
	.st47{fill:none;stroke:url(#SVGID_49_);stroke-miterlimit:10;}
	.st48{fill:none;stroke:url(#SVGID_50_);stroke-miterlimit:10;}
	.st49{fill:none;stroke:url(#SVGID_51_);stroke-miterlimit:10;}
	.st50{fill:none;stroke:url(#SVGID_52_);stroke-miterlimit:10;}
	.st51{fill:none;stroke:url(#SVGID_53_);stroke-miterlimit:10;}
</style>
<g>
	<defs>
		<circle id="SVGID_1_" cx="186.26" cy="187.04" r="166.5"/>
	</defs>
	<clipPath id="SVGID_2_">
		<use xlink:href="#SVGID_1_"  style="overflow:visible;"/>
	</clipPath>
	<g class="st0">
		<g>
			<g>
				<g>
					<linearGradient id="SVGID_3_" gradientUnits="userSpaceOnUse" x1="35.3962" y1="462.4137" x2="296.3752" y2="201.4346">
						<stop  offset="0" style="stop-color:#92D04D"/>
						<stop  offset="1" style="stop-color:#F2FF9A"/>
					</linearGradient>
					<path class="st1" d="M-107.27,318.93l0.51-0.74l44.94,30.85c42.46,29.14,96.2,34.74,143.76,14.97l9.19-3.82
						c43.98-18.28,94.73-14.76,135.76,9.43c42.35,24.97,94.39,27.78,139.19,7.54l72.39-32.71l0.37,0.82l-72.39,32.71
						c-45.07,20.36-97.41,17.53-140.02-7.58c-40.79-24.04-91.24-27.55-134.96-9.37l-9.19,3.82
						c-47.84,19.89-101.9,14.26-144.61-15.06L-107.27,318.93z"/>
				</g>
				<g>
					<linearGradient id="SVGID_4_" gradientUnits="userSpaceOnUse" x1="32.8826" y1="455.8792" x2="298.8092" y2="189.9525">
						<stop  offset="0" style="stop-color:#92D04D"/>
						<stop  offset="1" style="stop-color:#F2FF9A"/>
					</linearGradient>
					<path class="st2" d="M-107.47,314.69l0.5-0.75l45.47,30.06c42.96,28.4,96.79,33.06,143.99,12.46l9.12-3.98
						c43.65-19.05,94.46-16.41,135.91,7.06c42.78,24.22,94.86,26.13,139.3,5.11l71.81-33.97l0.38,0.81l-71.81,33.97
						c-44.71,21.15-97.09,19.23-140.13-5.14c-41.2-23.33-91.71-25.95-135.11-7.01l-9.12,3.98C35.36,378-18.79,373.31-62,344.74
						L-107.47,314.69z"/>
				</g>
				<g>
					<linearGradient id="SVGID_5_" gradientUnits="userSpaceOnUse" x1="30.4423" y1="449.305" x2="301.2336" y2="178.5137">
						<stop  offset="0" style="stop-color:#92D04D"/>
						<stop  offset="1" style="stop-color:#F2FF9A"/>
					</linearGradient>
					<path class="st3" d="M-107.57,310.45l0.48-0.76l45.99,29.26c43.45,27.64,97.35,31.36,144.19,9.95l9.05-4.14
						c43.32-19.81,94.16-18.05,136.01,4.69c43.2,23.47,95.3,24.47,139.37,2.68l71.21-35.22l0.4,0.81l-71.21,35.22
						c-44.33,21.92-96.74,20.92-140.19-2.69c-41.6-22.61-92.15-24.35-135.21-4.66l-9.05,4.14c-47.11,21.54-101.34,17.8-145.05-10.01
						L-107.57,310.45z"/>
				</g>
				<g>
					<linearGradient id="SVGID_6_" gradientUnits="userSpaceOnUse" x1="28.0619" y1="442.6914" x2="303.6364" y2="167.1168">
						<stop  offset="0" style="stop-color:#92D04D"/>
						<stop  offset="1" style="stop-color:#F2FF9A"/>
					</linearGradient>
					<path class="st4" d="M-107.56,306.22l0.47-0.77l46.49,28.45c43.93,26.88,97.89,29.66,144.34,7.43l8.97-4.29
						c42.96-20.56,93.83-19.7,136.07,2.31c43.6,22.71,95.71,22.81,139.39,0.24l70.58-36.45l0.41,0.8l-70.58,36.45
						c-43.94,22.7-96.36,22.6-140.22-0.25c-41.99-21.88-92.56-22.73-135.27-2.3l-8.97,4.29c-46.73,22.36-101.01,19.57-145.2-7.47
						L-107.56,306.22z"/>
				</g>
				<g>
					<linearGradient id="SVGID_7_" gradientUnits="userSpaceOnUse" x1="25.7418" y1="436.0354" x2="306.0149" y2="155.7624">
						<stop  offset="0" style="stop-color:#92D04D"/>
						<stop  offset="1" style="stop-color:#F2FF9A"/>
					</linearGradient>
					<path class="st5" d="M-107.45,301.98l0.46-0.77l46.98,27.64c44.39,26.11,98.39,27.94,144.45,4.91l8.9-4.45
						c42.6-21.31,93.47-21.33,136.09-0.07c43.99,21.95,96.09,21.13,139.37-2.19l69.93-37.68l0.43,0.79l-69.93,37.68
						c-43.54,23.46-95.95,24.28-140.2,2.2c-42.37-21.14-92.94-21.12-135.29,0.07l-8.9,4.45c-46.33,23.17-100.65,21.33-145.31-4.94
						L-107.45,301.98z"/>
				</g>
				<g>
					<linearGradient id="SVGID_8_" gradientUnits="userSpaceOnUse" x1="23.4824" y1="429.3379" x2="308.369" y2="144.4514">
						<stop  offset="0" style="stop-color:#92D04D"/>
						<stop  offset="1" style="stop-color:#F2FF9A"/>
					</linearGradient>
					<path class="st6" d="M-107.24,297.75l0.44-0.78l47.46,26.81c44.84,25.33,98.86,26.22,144.51,2.39l8.82-4.61
						c42.22-22.05,93.09-22.96,136.07-2.44c44.37,21.18,96.45,19.45,139.32-4.62l69.27-38.9l0.44,0.78l-69.27,38.9
						c-43.12,24.22-95.51,25.95-140.14,4.65c-42.73-20.4-93.3-19.49-135.27,2.43l-8.82,4.61c-45.92,23.98-100.27,23.08-145.37-2.4
						L-107.24,297.75z"/>
				</g>
				<g>
					<linearGradient id="SVGID_9_" gradientUnits="userSpaceOnUse" x1="21.2841" y1="422.5985" x2="310.6984" y2="133.1842">
						<stop  offset="0" style="stop-color:#92D04D"/>
						<stop  offset="1" style="stop-color:#F2FF9A"/>
					</linearGradient>
					<path class="st7" d="M-106.92,293.51l0.43-0.79l47.92,25.98c45.27,24.55,99.3,24.49,144.53-0.14l8.74-4.76
						c41.83-22.78,92.67-24.58,136.01-4.82c44.73,20.4,96.77,17.77,139.21-7.05l68.58-40.1l0.45,0.78l-68.58,40.1
						c-42.69,24.96-95.04,27.62-140.04,7.09c-43.08-19.65-93.62-17.86-135.2,4.79l-8.74,4.76c-45.5,24.78-99.85,24.83-145.39,0.14
						L-106.92,293.51z"/>
				</g>
				<g>
					<linearGradient id="SVGID_10_" gradientUnits="userSpaceOnUse" x1="19.1474" y1="415.8157" x2="312.9997" y2="121.9634">
						<stop  offset="0" style="stop-color:#92D04D"/>
						<stop  offset="1" style="stop-color:#F2FF9A"/>
					</linearGradient>
					<path class="st8" d="M-106.51,289.27l0.42-0.8l48.36,25.14c45.7,23.75,99.72,22.76,144.51-2.66l8.65-4.91
						c41.42-23.51,92.23-26.19,135.9-7.19c45.08,19.62,97.07,16.07,139.07-9.48l67.87-41.29l0.47,0.77l-67.87,41.29
						c-42.25,25.71-94.55,29.27-139.9,9.54c-43.42-18.89-93.92-16.22-135.1,7.15l-8.65,4.91c-45.06,25.57-99.4,26.57-145.37,2.68
						L-106.51,289.27z"/>
				</g>
				<g>
					<linearGradient id="SVGID_11_" gradientUnits="userSpaceOnUse" x1="17.0732" y1="408.9884" x2="315.275" y2="110.7867">
						<stop  offset="0" style="stop-color:#92D04D"/>
						<stop  offset="1" style="stop-color:#F2FF9A"/>
					</linearGradient>
					<path class="st9" d="M-106,285.02l0.4-0.8l48.8,24.29c46.1,22.95,100.1,21.01,144.44-5.18l8.57-5.06
						c41.01-24.23,91.76-27.8,135.76-9.56c45.42,18.83,97.33,14.38,138.88-11.9l67.14-42.47l0.48,0.76l-67.13,42.47
						c-41.8,26.44-94.02,30.92-139.71,11.98c-43.74-18.13-94.19-14.58-134.95,9.5l-8.57,5.06c-44.6,26.35-98.92,28.3-145.3,5.21
						L-106,285.02z"/>
				</g>
				<g>
					<linearGradient id="SVGID_12_" gradientUnits="userSpaceOnUse" x1="15.0606" y1="402.1167" x2="317.5208" y2="99.6564">
						<stop  offset="0" style="stop-color:#92D04D"/>
						<stop  offset="1" style="stop-color:#F2FF9A"/>
					</linearGradient>
					<path class="st10" d="M-105.38,280.77l0.39-0.81l49.21,23.43c46.5,22.14,100.45,19.26,144.33-7.7l8.48-5.21
						c40.58-24.94,91.26-29.4,135.57-11.93c45.74,18.03,97.57,12.68,138.65-14.33l66.38-43.63l0.49,0.75l-66.38,43.63
						c-41.33,27.17-93.47,32.55-139.48,14.41c-44.05-17.37-94.43-12.93-134.77,11.86l-8.48,5.21
						C44.88,323.58-9.4,326.48-56.17,304.2L-105.38,280.77z"/>
				</g>
				<g>
					<linearGradient id="SVGID_13_" gradientUnits="userSpaceOnUse" x1="13.1123" y1="395.1989" x2="319.7381" y2="88.5731">
						<stop  offset="0" style="stop-color:#92D04D"/>
						<stop  offset="1" style="stop-color:#F2FF9A"/>
					</linearGradient>
					<path class="st11" d="M-104.67,276.51l0.37-0.82l49.61,22.57c46.88,21.33,100.77,17.51,144.17-10.22l8.38-5.36
						c40.14-25.64,90.73-30.99,135.34-14.29c46.04,17.23,97.78,10.97,138.38-16.74l65.61-44.78l0.51,0.74l-65.61,44.78
						c-40.85,27.88-92.89,34.18-139.2,16.84c-44.34-16.6-94.64-11.28-134.54,14.21l-8.38,5.36C46.31,316.69-7.9,320.53-55.06,299.08
						L-104.67,276.51z"/>
				</g>
				<g>
					<linearGradient id="SVGID_14_" gradientUnits="userSpaceOnUse" x1="11.2258" y1="388.2359" x2="321.9246" y2="77.5372">
						<stop  offset="0" style="stop-color:#92D04D"/>
						<stop  offset="1" style="stop-color:#F2FF9A"/>
					</linearGradient>
					<path class="st12" d="M-103.5,271.41l50,21.7c47.24,20.51,101.06,15.75,143.97-12.73l8.29-5.5
						c39.68-26.34,90.18-32.56,135.07-16.65c46.34,16.43,97.95,9.27,138.07-19.16l64.82-45.92l0.52,0.73l-64.82,45.92
						c-40.35,28.59-92.28,35.79-138.89,19.27c-44.63-15.82-94.82-9.63-134.27,16.55l-8.29,5.5c-43.16,28.65-97.3,33.44-144.83,12.81
						l-50-21.7L-103.5,271.41z"/>
				</g>
				<g>
					<linearGradient id="SVGID_15_" gradientUnits="userSpaceOnUse" x1="9.4033" y1="381.2256" x2="324.0807" y2="66.5483">
						<stop  offset="0" style="stop-color:#92D04D"/>
						<stop  offset="1" style="stop-color:#F2FF9A"/>
					</linearGradient>
					<path class="st13" d="M-102.61,267.12l50.37,20.83c47.59,19.68,101.32,13.98,143.73-15.24l8.19-5.65
						c39.22-27.03,89.59-34.13,134.76-19.01c46.62,15.61,98.1,7.55,137.71-21.56l64.01-47.05l0.53,0.73l-64.01,47.05
						c-39.85,29.29-91.64,37.4-138.53,21.69c-44.9-15.04-94.98-7.97-133.96,18.89L92,273.44c-42.66,29.4-96.71,35.13-144.58,15.33
						l-50.37-20.83L-102.61,267.12z"/>
				</g>
				<g>
					<linearGradient id="SVGID_16_" gradientUnits="userSpaceOnUse" x1="7.6441" y1="374.1688" x2="326.2043" y2="55.6086">
						<stop  offset="0" style="stop-color:#92D04D"/>
						<stop  offset="1" style="stop-color:#F2FF9A"/>
					</linearGradient>
					<path class="st14" d="M-101.61,262.82l50.73,19.95c47.93,18.85,101.55,12.21,143.44-17.75l8.09-5.79
						c38.74-27.71,88.99-35.69,134.41-21.35c46.88,14.8,98.22,5.84,137.32-23.96l63.18-48.16l0.55,0.72l-63.18,48.16
						c-39.33,29.98-90.97,38.99-138.13,24.11c-45.15-14.25-95.1-6.32-133.61,21.23l-8.09,5.79C50.94,295.88-3,302.56-51.21,283.6
						l-50.73-19.95L-101.61,262.82z"/>
				</g>
				<g>
					<linearGradient id="SVGID_17_" gradientUnits="userSpaceOnUse" x1="5.9496" y1="367.0637" x2="328.2942" y2="44.7192">
						<stop  offset="0" style="stop-color:#92D04D"/>
						<stop  offset="1" style="stop-color:#F2FF9A"/>
					</linearGradient>
					<path class="st15" d="M-100.52,258.5l51.07,19.06c48.25,18.01,101.75,10.44,143.11-20.25l7.99-5.93
						c38.25-28.38,88.35-37.24,134.01-23.7c47.14,13.98,98.3,4.12,136.88-26.36l62.33-49.25l0.56,0.71l-62.33,49.25
						c-38.8,30.66-90.28,40.57-137.69,26.51c-45.39-13.46-95.2-4.66-133.22,23.56l-7.99,5.93C52.58,288.9-1.23,296.51-49.77,278.4
						l-51.07-19.06L-100.52,258.5z"/>
				</g>
				<g>
					<linearGradient id="SVGID_18_" gradientUnits="userSpaceOnUse" x1="4.3185" y1="359.9104" x2="330.3501" y2="33.8788">
						<stop  offset="0" style="stop-color:#92D04D"/>
						<stop  offset="1" style="stop-color:#F2FF9A"/>
					</linearGradient>
					<path class="st16" d="M-99.33,254.17l51.39,18.16c48.56,17.16,101.91,8.66,142.73-22.74l7.89-6.07
						c37.75-29.04,87.69-38.77,133.58-26.03c47.37,13.15,98.36,2.41,136.4-28.74l61.46-50.33l0.57,0.7l-61.46,50.33
						c-38.26,31.34-89.55,42.14-137.21,28.91c-45.62-12.67-95.26-2.99-132.79,25.88l-7.89,6.07
						C54.28,281.89,0.6,290.44-48.24,273.18l-51.39-18.16L-99.33,254.17z"/>
				</g>
				<g>
					<linearGradient id="SVGID_19_" gradientUnits="userSpaceOnUse" x1="2.7517" y1="352.7079" x2="332.3712" y2="23.0884">
						<stop  offset="0" style="stop-color:#92D04D"/>
						<stop  offset="1" style="stop-color:#F2FF9A"/>
					</linearGradient>
					<path class="st17" d="M-98.05,249.82l51.7,17.26C2.5,283.39,55.7,273.96,95.97,241.85l7.78-6.2c37.24-29.7,87-40.3,133.1-28.36
						c47.59,12.32,98.39,0.69,135.87-31.12l60.57-51.4l0.58,0.69l-60.57,51.4c-37.71,32-88.81,43.7-136.68,31.3
						c-45.84-11.87-95.3-1.33-132.32,28.19l-7.78,6.2c-40.5,32.3-94.02,41.79-143.16,25.38l-51.7-17.26L-98.05,249.82z"/>
				</g>
				<g>
					<linearGradient id="SVGID_20_" gradientUnits="userSpaceOnUse" x1="1.2497" y1="345.4559" x2="334.3572" y2="12.3484">
						<stop  offset="0" style="stop-color:#92D04D"/>
						<stop  offset="1" style="stop-color:#F2FF9A"/>
					</linearGradient>
					<path class="st18" d="M-96.67,245.45l51.99,16.36c49.13,15.46,102.15,5.1,141.85-27.71l7.67-6.34
						c36.71-30.34,86.28-41.81,132.59-30.68c47.8,11.49,98.39-1.03,135.31-33.48l59.66-52.45l0.59,0.68l-59.66,52.45
						c-37.14,32.65-88.03,45.24-136.11,33.68c-46.04-11.07-95.31,0.33-131.81,30.5l-7.67,6.34c-39.93,33-93.28,43.43-142.69,27.88
						l-51.99-16.36L-96.67,245.45z"/>
				</g>
				<g>
					<linearGradient id="SVGID_21_" gradientUnits="userSpaceOnUse" x1="-0.1871" y1="338.1531" x2="336.3057" y2="1.6603">
						<stop  offset="0" style="stop-color:#92D04D"/>
						<stop  offset="1" style="stop-color:#F2FF9A"/>
					</linearGradient>
					<path class="st19" d="M-95.2,241.07l52.27,15.45c49.39,14.6,102.23,3.31,141.35-30.18l7.56-6.47
						c36.18-30.98,85.54-43.31,132.03-32.99c47.99,10.66,98.35-2.74,134.71-35.84l58.74-53.48l0.61,0.67l-58.74,53.48
						c-36.57,33.29-87.23,46.77-135.51,36.05c-46.22-10.26-95.29,2-131.25,32.79l-7.56,6.47c-39.35,33.69-92.5,45.05-142.19,30.36
						l-52.27-15.45L-95.2,241.07z"/>
				</g>
				<g>
					<linearGradient id="SVGID_22_" gradientUnits="userSpaceOnUse" x1="-1.5595" y1="330.8011" x2="338.2174" y2="-8.9758">
						<stop  offset="0" style="stop-color:#92D04D"/>
						<stop  offset="1" style="stop-color:#F2FF9A"/>
					</linearGradient>
					<path class="st20" d="M-93.63,236.66l52.53,14.53c49.64,13.73,102.27,1.53,140.8-32.65l7.44-6.6
						c35.63-31.61,84.77-44.8,131.44-35.29c48.17,9.82,98.29-4.46,134.06-38.19l57.8-54.5l0.62,0.66l-57.8,54.5
						c-35.98,33.93-86.4,48.29-134.86,38.41c-46.39-9.45-95.24,3.66-130.66,35.08l-7.44,6.6C61.54,253.6,8.6,265.87-41.34,252.06
						l-52.53-14.53L-93.63,236.66z"/>
				</g>
				<g>
					<linearGradient id="SVGID_23_" gradientUnits="userSpaceOnUse" x1="-2.8662" y1="323.3962" x2="340.0893" y2="-19.5592">
						<stop  offset="0" style="stop-color:#92D04D"/>
						<stop  offset="1" style="stop-color:#F2FF9A"/>
					</linearGradient>
					<path class="st21" d="M-91.97,232.23l52.78,13.61c49.87,12.86,102.28-0.26,140.21-35.1l7.33-6.73
						c35.08-32.22,83.97-46.27,130.8-37.57c48.34,8.97,98.2-6.17,133.37-40.52l56.84-55.5l0.63,0.64l-56.84,55.5
						c-35.38,34.55-85.54,49.79-134.17,40.76c-46.55-8.64-95.16,5.32-130.03,37.35l-7.33,6.73
						c-38.15,35.05-90.88,48.25-141.04,35.31l-52.78-13.61L-91.97,232.23z"/>
				</g>
				<g>
					<linearGradient id="SVGID_24_" gradientUnits="userSpaceOnUse" x1="-3.9516" y1="316.0973" x2="342.0873" y2="-29.9417">
						<stop  offset="0" style="stop-color:#92D04D"/>
						<stop  offset="1" style="stop-color:#F2FF9A"/>
					</linearGradient>
					<path class="st22" d="M-90.22,227.78l53.01,12.69c50.08,11.99,102.26-2.04,139.57-37.54l7.21-6.86
						c34.51-32.83,83.15-47.73,130.13-39.85c48.49,8.13,98.07-7.89,132.65-42.84l55.86-56.48l0.64,0.63l-55.86,56.48
						c-34.78,35.16-84.66,51.27-133.43,43.1c-46.7-7.83-95.05,6.98-129.36,39.62l-7.21,6.86c-37.53,35.71-90.02,49.83-140.4,37.76
						l-53.01-12.69L-90.22,227.78z"/>
				</g>
				<g>
					<linearGradient id="SVGID_25_" gradientUnits="userSpaceOnUse" x1="-4.6207" y1="309.096" x2="344.4112" y2="-39.9359">
						<stop  offset="0" style="stop-color:#92D04D"/>
						<stop  offset="1" style="stop-color:#F2FF9A"/>
					</linearGradient>
					<path class="st23" d="M-88.37,223.3l53.22,11.77c50.29,11.11,102.21-3.83,138.9-39.97l7.09-6.98
						c33.93-33.43,82.31-49.17,129.41-42.12c48.62,7.28,97.92-9.6,131.88-45.15l54.87-57.45l0.65,0.62l-54.87,57.45
						c-34.16,35.76-83.75,52.74-132.66,45.42c-46.83-7.01-94.92,8.64-128.65,41.87l-7.09,6.98c-36.9,36.36-89.14,51.39-139.72,40.21
						l-53.22-11.77L-88.37,223.3z"/>
				</g>
				<g>
					<linearGradient id="SVGID_26_" gradientUnits="userSpaceOnUse" x1="-5.209" y1="302.0577" x2="346.7102" y2="-49.8614">
						<stop  offset="0" style="stop-color:#92D04D"/>
						<stop  offset="1" style="stop-color:#F2FF9A"/>
					</linearGradient>
					<path class="st24" d="M-86.44,218.79l53.42,10.83c50.47,10.24,102.13-5.61,138.18-42.39l6.96-7.1
						c33.34-34.01,81.44-50.6,128.66-44.37c48.74,6.43,97.74-11.3,131.07-47.44l53.86-58.4l0.66,0.61l-53.86,58.4
						c-33.53,36.36-82.82,54.2-131.85,47.73c-46.94-6.19-94.75,10.29-127.9,44.11l-6.96,7.1c-36.26,37-88.23,52.94-139,42.64
						l-53.42-10.83L-86.44,218.79z"/>
				</g>
				<g>
					<linearGradient id="SVGID_27_" gradientUnits="userSpaceOnUse" x1="-5.716" y1="294.9837" x2="348.9834" y2="-59.7157">
						<stop  offset="0" style="stop-color:#92D04D"/>
						<stop  offset="1" style="stop-color:#F2FF9A"/>
					</linearGradient>
					<path class="st25" d="M-84.41,214.26l53.6,9.9c50.64,9.35,102.01-7.39,137.42-44.79l6.84-7.23
						c32.74-34.59,80.54-52.01,127.86-46.61c48.85,5.58,97.53-13.01,130.22-49.72l52.83-59.33l0.67,0.6L372.2,76.4
						c-32.89,36.94-81.86,55.63-130.99,50.02c-47.04-5.37-94.56,11.95-127.11,46.33l-6.84,7.23
						c-35.61,37.62-87.29,54.47-138.23,45.06l-53.6-9.9L-84.41,214.26z"/>
				</g>
				<g>
					<linearGradient id="SVGID_28_" gradientUnits="userSpaceOnUse" x1="-6.1413" y1="287.8718" x2="351.2308" y2="-69.5004">
						<stop  offset="0" style="stop-color:#92D04D"/>
						<stop  offset="1" style="stop-color:#F2FF9A"/>
					</linearGradient>
					<path class="st26" d="M-82.3,209.69l53.77,8.96c50.8,8.47,101.87-9.17,136.61-47.18l6.71-7.34
						c32.13-35.16,79.62-53.41,127.03-48.83c48.94,4.73,97.29-14.71,129.33-51.99l51.78-60.24l0.68,0.59l-51.78,60.24
						c-32.24,37.5-80.88,57.05-130.1,52.3c-47.13-4.55-94.34,13.59-126.28,48.54l-6.71,7.34c-34.95,38.24-86.33,55.98-137.43,47.46
						l-53.77-8.96L-82.3,209.69z"/>
				</g>
				<g>
					<linearGradient id="SVGID_29_" gradientUnits="userSpaceOnUse" x1="-6.4853" y1="280.7207" x2="353.4488" y2="-79.2133">
						<stop  offset="0" style="stop-color:#92D04D"/>
						<stop  offset="1" style="stop-color:#F2FF9A"/>
					</linearGradient>
					<path class="st27" d="M-80.09,205.1l53.91,8.02c50.94,7.58,101.69-10.95,135.77-49.56l6.58-7.46
						c31.51-35.71,78.68-54.79,126.16-51.04c49.01,3.87,97.01-16.4,128.41-54.24l50.73-61.13l0.69,0.58L371.43,51.4
						c-31.58,38.06-79.87,58.46-129.17,54.56c-47.2-3.73-94.08,15.24-125.41,50.74l-6.58,7.46C75.98,203,24.93,221.64-26.31,214.01
						l-53.91-8.02L-80.09,205.1z"/>
				</g>
				<g>
					<linearGradient id="SVGID_30_" gradientUnits="userSpaceOnUse" x1="-6.7482" y1="273.5312" x2="355.6396" y2="-88.8566">
						<stop  offset="0" style="stop-color:#92D04D"/>
						<stop  offset="1" style="stop-color:#F2FF9A"/>
					</linearGradient>
					<path class="st28" d="M-77.81,200.47l54.05,7.08c51.06,6.69,101.49-12.72,134.88-51.92l6.45-7.57
						c30.89-36.26,77.71-56.16,125.25-53.24c49.07,3.02,96.71-18.09,127.44-56.47l49.65-62.01l0.7,0.56l-49.65,62.01
						c-30.91,38.61-78.84,59.84-128.2,56.81c-47.26-2.9-93.8,16.88-124.51,52.92l-6.45,7.57c-33.6,39.44-84.32,58.96-135.69,52.23
						l-54.05-7.08L-77.81,200.47z"/>
				</g>
				<g>
					<linearGradient id="SVGID_31_" gradientUnits="userSpaceOnUse" x1="-6.9303" y1="266.3028" x2="357.801" y2="-98.4285">
						<stop  offset="0" style="stop-color:#92D04D"/>
						<stop  offset="1" style="stop-color:#F2FF9A"/>
					</linearGradient>
					<path class="st29" d="M-75.43,195.81l54.16,6.14c51.17,5.8,101.25-14.49,133.96-54.27l6.32-7.69
						c30.25-36.79,76.72-57.51,124.3-55.41c49.12,2.16,96.38-19.78,126.44-58.69l48.56-62.87l0.71,0.55l-48.56,62.87
						c-30.23,39.14-77.78,61.21-127.19,59.04c-47.3-2.08-93.49,18.51-123.57,55.09l-6.32,7.69c-32.9,40.02-83.28,60.43-134.75,54.59
						l-54.16-6.14L-75.43,195.81z"/>
				</g>
				<g>
					<linearGradient id="SVGID_32_" gradientUnits="userSpaceOnUse" x1="-7.0314" y1="259.0342" x2="359.9314" y2="-107.9286">
						<stop  offset="0" style="stop-color:#92D04D"/>
						<stop  offset="1" style="stop-color:#F2FF9A"/>
					</linearGradient>
					<path class="st30" d="M-72.97,191.12l54.26,5.19c51.27,4.9,100.98-16.25,132.99-56.6l6.18-7.79
						c29.6-37.31,75.7-58.84,123.31-57.57c49.15,1.3,96.02-21.46,125.39-60.88l47.46-63.71l0.72,0.54L369.89,14
						c-29.54,39.66-76.7,62.56-126.14,61.25c-47.33-1.25-93.16,20.14-122.58,57.23l-6.18,7.79c-32.2,40.58-82.21,61.87-133.78,56.94
						l-54.26-5.19L-72.97,191.12z"/>
				</g>
				<g>
					<linearGradient id="SVGID_33_" gradientUnits="userSpaceOnUse" x1="-7.052" y1="251.7245" x2="362.0306" y2="-117.3581">
						<stop  offset="0" style="stop-color:#92D04D"/>
						<stop  offset="1" style="stop-color:#F2FF9A"/>
					</linearGradient>
					<path class="st31" d="M-70.42,186.39l54.34,4.24c51.34,4.01,100.68-18.02,131.98-58.91l6.05-7.9
						c28.95-37.82,74.66-60.15,122.29-59.72c49.16,0.44,95.63-23.13,124.31-63.06l46.34-64.52l0.73,0.53L369.28,1.56
						C340.43,41.73,293.68,65.45,244.23,65c-47.35-0.43-92.79,21.76-121.57,59.36l-6.05,7.9c-31.48,41.14-81.12,63.29-132.77,59.26
						l-54.34-4.24L-70.42,186.39z"/>
				</g>
				<g>
					<linearGradient id="SVGID_34_" gradientUnits="userSpaceOnUse" x1="-6.9931" y1="244.3749" x2="364.0981" y2="-126.7164">
						<stop  offset="0" style="stop-color:#92D04D"/>
						<stop  offset="1" style="stop-color:#F2FF9A"/>
					</linearGradient>
					<path class="st32" d="M-67.8,181.62l54.41,3.29c51.41,3.11,100.35-19.77,130.93-61.21l5.91-8.01
						c28.28-38.32,73.6-61.44,121.23-61.84c49.16-0.41,95.21-24.8,123.19-65.22l45.2-65.32l0.74,0.51l-45.2,65.32
						c-28.14,40.67-74.47,65.2-123.92,65.61c-47.35,0.4-92.4,23.38-120.51,61.48l-5.91,8.01c-30.76,41.68-80,64.7-131.71,61.57
						l-54.41-3.29L-67.8,181.62z"/>
				</g>
				<g>
					<linearGradient id="SVGID_35_" gradientUnits="userSpaceOnUse" x1="-6.8538" y1="236.9839" x2="366.1324" y2="-136.0023">
						<stop  offset="0" style="stop-color:#92D04D"/>
						<stop  offset="1" style="stop-color:#F2FF9A"/>
					</linearGradient>
					<path class="st33" d="M-65.09,176.81l54.46,2.34c51.45,2.21,99.99-21.52,129.85-63.48l5.77-8.11
						c27.61-38.81,72.52-62.72,120.13-63.95c49.15-1.27,94.77-26.45,122.03-67.36l44.06-66.1l0.75,0.5l-44.06,66.1
						c-27.43,41.15-73.32,66.48-122.76,67.76c-47.33,1.22-91.98,24.99-119.42,63.57l-5.77,8.11
						c-30.03,42.21-78.86,66.09-130.62,63.86l-54.46-2.34L-65.09,176.81z"/>
				</g>
				<g>
					<linearGradient id="SVGID_36_" gradientUnits="userSpaceOnUse" x1="-6.6375" y1="229.5502" x2="368.1292" y2="-145.2165">
						<stop  offset="0" style="stop-color:#92D04D"/>
						<stop  offset="1" style="stop-color:#F2FF9A"/>
					</linearGradient>
					<path class="st34" d="M-62.3,171.97l54.49,1.39c51.48,1.32,99.6-23.26,128.72-65.74l5.62-8.21
						c26.93-39.29,71.41-63.97,119-66.04c49.12-2.13,94.29-28.1,120.84-69.48l42.9-66.86l0.76,0.49l-42.9,66.86
						c-26.71,41.62-72.15,67.75-121.56,69.9c-47.3,2.05-91.53,26.59-118.29,65.65l-5.62,8.21c-29.29,42.73-77.69,67.45-129.48,66.13
						l-54.49-1.39L-62.3,171.97z"/>
				</g>
				<g>
					<linearGradient id="SVGID_37_" gradientUnits="userSpaceOnUse" x1="-6.3494" y1="222.0732" x2="370.0835" y2="-154.3596">
						<stop  offset="0" style="stop-color:#92D04D"/>
						<stop  offset="1" style="stop-color:#F2FF9A"/>
					</linearGradient>
					<path class="st35" d="M-59.44,167.08l54.51,0.44c51.5,0.42,99.18-24.99,127.55-67.98l5.48-8.3
						c26.24-39.75,70.28-65.21,117.83-68.1C295,20.15,339.71-6.61,365.53-48.44l41.72-67.6l0.77,0.47l-41.72,67.6
						c-25.98,42.09-70.95,69-120.32,72.01c-47.26,2.88-91.05,28.18-117.13,67.7l-5.48,8.3c-28.54,43.24-76.5,68.8-128.31,68.38
						l-54.51-0.44L-59.44,167.08z"/>
				</g>
				<g>
					<linearGradient id="SVGID_38_" gradientUnits="userSpaceOnUse" x1="-5.9909" y1="214.5538" x2="371.9952" y2="-163.4323">
						<stop  offset="0" style="stop-color:#92D04D"/>
						<stop  offset="1" style="stop-color:#F2FF9A"/>
					</linearGradient>
					<path class="st36" d="M-56.51,162.15l54.5-0.51c51.5-0.48,98.73-26.72,126.34-70.19l5.33-8.4
						c25.54-40.2,69.14-66.43,116.62-70.15c49.01-3.84,93.25-31.38,118.34-73.66l40.54-68.32l0.77,0.46L365.41-60.3
						c-25.24,42.53-69.74,70.23-119.04,74.1c-47.2,3.7-90.54,29.77-115.93,69.73l-5.33,8.4c-27.78,43.73-75.29,70.12-127.1,70.61
						l-54.5,0.51L-56.51,162.15z"/>
				</g>
				<g>
					<linearGradient id="SVGID_39_" gradientUnits="userSpaceOnUse" x1="-5.5601" y1="206.9897" x2="373.863" y2="-172.4334">
						<stop  offset="0" style="stop-color:#92D04D"/>
						<stop  offset="1" style="stop-color:#F2FF9A"/>
					</linearGradient>
					<path class="st37" d="M-53.51,157.17l54.49-1.46c51.48-1.38,98.25-28.44,125.1-72.39l5.19-8.49
						C156.1,34.19,199.24,7.21,246.65,2.66c48.94-4.7,92.69-33,117.04-75.71l39.34-69.02l0.78,0.45l-39.34,69.02
						c-24.49,42.97-68.5,71.44-117.73,76.16C199.6,8.08,156.73,34.9,132.04,75.3l-5.19,8.49C99.84,128,52.79,155.22,1.01,156.61
						l-54.49,1.46L-53.51,157.17z"/>
				</g>
				<g>
					<linearGradient id="SVGID_40_" gradientUnits="userSpaceOnUse" x1="-5.0585" y1="199.3822" x2="375.6864" y2="-181.3627">
						<stop  offset="0" style="stop-color:#92D04D"/>
						<stop  offset="1" style="stop-color:#F2FF9A"/>
					</linearGradient>
					<path class="st38" d="M-50.44,152.15l54.45-2.41c51.45-2.28,97.74-30.15,123.82-74.56l5.04-8.58
						C157,25.53,199.65-2.2,246.98-7.58c48.85-5.55,92.1-34.61,115.7-77.74l38.13-69.69l0.79,0.43l-38.13,69.69
						C339.73-41.5,296.22-12.27,247.08-6.68c-47.05,5.35-89.45,32.91-113.43,73.74l-5.04,8.58c-26.24,44.67-72.8,72.71-124.55,75
						l-54.45,2.41L-50.44,152.15z"/>
				</g>
				<g>
					<linearGradient id="SVGID_41_" gradientUnits="userSpaceOnUse" x1="-4.4848" y1="191.729" x2="377.4652" y2="-190.221">
						<stop  offset="0" style="stop-color:#92D04D"/>
						<stop  offset="1" style="stop-color:#F2FF9A"/>
					</linearGradient>
					<path class="st39" d="M-47.3,147.08l54.4-3.36c51.4-3.18,97.2-31.85,122.5-76.71l4.89-8.67
						c23.4-41.48,65.57-69.95,112.79-76.16c48.74-6.4,91.48-36.22,114.32-79.75l36.91-70.34l0.8,0.42L362.4-97.14
						c-22.98,43.79-65.97,73.79-115,80.23c-46.94,6.16-88.86,34.47-112.12,75.71l-4.89,8.67c-25.45,45.12-71.52,73.97-123.23,77.16
						l-54.4,3.36L-47.3,147.08z"/>
				</g>
				<g>
					<linearGradient id="SVGID_42_" gradientUnits="userSpaceOnUse" x1="-3.8403" y1="184.0317" x2="379.1996" y2="-199.0081">
						<stop  offset="0" style="stop-color:#92D04D"/>
						<stop  offset="1" style="stop-color:#F2FF9A"/>
					</linearGradient>
					<path class="st40" d="M-44.09,141.96l54.34-4.31c51.34-4.07,96.62-33.54,121.14-78.83l4.74-8.75
						c22.67-41.89,64.33-71.09,111.44-78.11c48.63-7.25,90.84-37.81,112.91-81.73l35.67-70.98l0.8,0.4l-35.67,70.98
						c-22.21,44.19-64.67,74.93-113.59,82.22c-46.83,6.98-88.25,36.01-110.78,77.65l-4.74,8.75c-24.66,45.56-70.22,75.2-121.86,79.3
						l-54.34,4.31L-44.09,141.96z"/>
				</g>
				<g>
					<linearGradient id="SVGID_43_" gradientUnits="userSpaceOnUse" x1="-3.1248" y1="176.2888" x2="380.8877" y2="-207.7237">
						<stop  offset="0" style="stop-color:#92D04D"/>
						<stop  offset="1" style="stop-color:#F2FF9A"/>
					</linearGradient>
					<path class="st41" d="M-40.81,136.8l54.25-5.26c51.26-4.97,96.02-35.22,119.75-80.93l4.58-8.83
						c21.94-42.28,63.08-72.2,110.06-80.05c48.49-8.1,90.16-39.39,111.47-83.69l34.43-71.59l0.81,0.39l-34.43,71.59
						c-21.43,44.57-63.35,76.04-112.13,84.19c-46.7,7.8-87.6,37.55-109.41,79.57l-4.58,8.83C110.12,97,65.09,127.44,13.53,132.43
						l-54.25,5.26L-40.81,136.8z"/>
				</g>
				<g>
					<linearGradient id="SVGID_44_" gradientUnits="userSpaceOnUse" x1="-2.3373" y1="168.4998" x2="382.5301" y2="-216.3676">
						<stop  offset="0" style="stop-color:#92D04D"/>
						<stop  offset="1" style="stop-color:#F2FF9A"/>
					</linearGradient>
					<path class="st42" d="M-37.47,131.58l54.15-6.2c51.17-5.86,95.4-36.9,118.32-83.01l4.43-8.91
						c21.2-42.65,61.81-73.29,108.65-81.95c48.34-8.94,89.46-40.95,109.99-85.63l33.17-72.18l0.82,0.38l-33.17,72.18
						c-20.65,44.94-62.02,77.14-110.65,86.13C201.68-39,161.3-8.55,140.23,33.85l-4.43,8.91c-23.06,46.39-67.55,77.61-119.02,83.51
						l-54.15,6.2L-37.47,131.58z"/>
				</g>
				<g>
					<linearGradient id="SVGID_45_" gradientUnits="userSpaceOnUse" x1="-1.4792" y1="160.6651" x2="384.1259" y2="-224.94">
						<stop  offset="0" style="stop-color:#92D04D"/>
						<stop  offset="1" style="stop-color:#F2FF9A"/>
					</linearGradient>
					<path class="st43" d="M-34.07,126.31l54.04-7.15c51.06-6.75,94.74-38.55,116.85-85.06l4.27-8.99
						c20.45-43.02,60.53-74.36,107.2-83.84c48.14-9.78,88.66-42.45,108.43-87.41c0.02-0.04,0.04-0.08,0.05-0.12L388.68-219
						l0.82,0.36l-31.91,72.75c-0.02,0.04-0.04,0.08-0.05,0.12c-19.89,45.23-60.65,78.09-109.07,87.93
						c-46.4,9.43-86.24,40.58-106.57,83.34l-4.27,8.99c-22.24,46.79-66.19,78.78-117.54,85.57l-54.04,7.15L-34.07,126.31z"/>
				</g>
				<g>
					<linearGradient id="SVGID_46_" gradientUnits="userSpaceOnUse" x1="-0.5511" y1="152.7817" x2="385.6748" y2="-233.4442">
						<stop  offset="0" style="stop-color:#92D04D"/>
						<stop  offset="1" style="stop-color:#F2FF9A"/>
					</linearGradient>
					<path class="st44" d="M-30.6,120.99l53.9-8.09c50.93-7.64,94.05-40.2,115.35-87.09l4.11-9.06
						c19.7-43.37,59.22-75.4,105.72-85.7c47.1-10.43,86.47-42.8,105.85-86.87c0.37-0.84,0.73-1.69,1.09-2.54l30.64-73.29l0.83,0.35
						l-30.64,73.29c-19.08,45.63-59.29,79.25-107.57,89.94c-46.23,10.23-85.52,42.08-105.1,85.19l-4.11,9.06
						c-21.42,47.17-64.8,79.92-116.03,87.61l-53.9,8.09L-30.6,120.99z"/>
				</g>
				<g>
					<linearGradient id="SVGID_47_" gradientUnits="userSpaceOnUse" x1="0.4511" y1="144.8555" x2="387.18" y2="-241.8734">
						<stop  offset="0" style="stop-color:#92D04D"/>
						<stop  offset="1" style="stop-color:#F2FF9A"/>
					</linearGradient>
					<path class="st45" d="M-27.06,115.62l53.75-9.03c50.52-8.49,92.88-41.48,113.48-88.33c0.11-0.25,0.22-0.5,0.33-0.76l3.96-9.13
						c0.11-0.24,0.21-0.49,0.32-0.74c19.05-43.34,57.83-75.75,103.89-86.79c47.81-11.46,87.19-45.56,105.36-91.26l29.35-73.82
						l0.84,0.33l-29.35,73.82c-18.26,45.95-57.89,80.28-105.99,91.81C203.09-67.31,164.54-35.08,145.6,8
						c-0.11,0.24-0.21,0.49-0.32,0.73l-3.96,9.13c-0.11,0.25-0.22,0.51-0.33,0.76c-20.72,47.13-63.34,80.32-114.15,88.86
						l-53.75,9.03L-27.06,115.62z"/>
				</g>
				<g>
					<linearGradient id="SVGID_48_" gradientUnits="userSpaceOnUse" x1="1.521" y1="136.8798" x2="388.6358" y2="-250.2351">
						<stop  offset="0" style="stop-color:#92D04D"/>
						<stop  offset="1" style="stop-color:#F2FF9A"/>
					</linearGradient>
					<path class="st46" d="M-23.46,110.19l53.59-9.97C80.75,90.81,122.7,56.8,142.36,9.16l3.8-9.2
						c18.18-44.05,56.55-77.42,102.67-89.33c47.6-12.29,86.38-47.07,103.75-93.09l28.06-74.32l0.84,0.32l-28.06,74.32
						c-17.47,46.27-56.48,81.28-104.37,93.64c-45.84,11.84-84.01,45.03-102.06,88.81l-3.8,9.2c-19.8,47.92-61.97,82.13-112.9,91.6
						l-53.59,9.97L-23.46,110.19z"/>
				</g>
				<g>
					<linearGradient id="SVGID_49_" gradientUnits="userSpaceOnUse" x1="2.6617" y1="128.8563" x2="390.0438" y2="-258.5258">
						<stop  offset="0" style="stop-color:#92D04D"/>
						<stop  offset="1" style="stop-color:#F2FF9A"/>
					</linearGradient>
					<path class="st47" d="M-19.81,104.71l53.41-10.9c50.46-10.3,91.82-45.05,110.63-93.01l3.63-9.26
						c17.4-44.34,55.19-78.4,101.09-91.11c47.38-13.12,85.55-48.6,102.11-94.88l26.76-74.8l0.85,0.3l-26.76,74.8
						c-16.65,46.56-55.06,82.25-102.72,95.45C203.57-86.07,165.99-52.2,148.7-8.13l-3.63,9.26c-18.93,48.25-60.53,83.2-111.29,93.56
						l-53.41,10.9L-19.81,104.71z"/>
				</g>
				<g>
					<linearGradient id="SVGID_50_" gradientUnits="userSpaceOnUse" x1="3.8724" y1="120.7856" x2="391.405" y2="-266.747">
						<stop  offset="0" style="stop-color:#92D04D"/>
						<stop  offset="1" style="stop-color:#F2FF9A"/>
					</linearGradient>
					<path class="st48" d="M-16.09,99.17l53.21-11.83c50.27-11.18,91.01-46.65,108.99-94.92l3.47-9.32c1.01-2.71,2.1-5.39,3.25-8.02
						c17.92-40.76,53.33-72.15,96.23-84.84c47.14-13.95,84.69-50.08,100.44-96.65l25.45-75.25l0.85,0.29l-25.45,75.25
						c-15.84,46.85-53.61,83.2-101.04,97.23c-45.4,13.43-82.38,47.95-98.9,92.31l-3.47,9.32C128.87,41.29,87.89,76.97,37.32,88.21
						l-53.21,11.83L-16.09,99.17z"/>
				</g>
				<g>
					<linearGradient id="SVGID_51_" gradientUnits="userSpaceOnUse" x1="4.3417" y1="111.8529" x2="391.9045" y2="-275.7099">
						<stop  offset="0" style="stop-color:#92D04D"/>
						<stop  offset="1" style="stop-color:#F2FF9A"/>
					</linearGradient>
					<path class="st49" d="M-12.31,93.57l52.99-12.76C90.75,68.76,130.87,32.56,148-16l3.31-9.38c1.25-3.56,2.64-7.06,4.15-10.49
						c17.54-39.9,51.87-70.92,93.7-84.1c46.89-14.77,83.81-51.56,98.74-98.39l24.13-75.69l0.86,0.27l-24.13,75.69
						c-15.02,47.13-52.15,84.12-99.33,98.98c-45.16,14.22-81.53,49.38-97.27,94.03l-3.31,9.38C131.62,33.15,91.26,69.56,40.9,81.68
						L-12.1,94.44L-12.31,93.57z"/>
				</g>
				<g>
					<linearGradient id="SVGID_52_" gradientUnits="userSpaceOnUse" x1="3.9743" y1="101.969" x2="391.4521" y2="-285.5088">
						<stop  offset="0" style="stop-color:#92D04D"/>
						<stop  offset="1" style="stop-color:#F2FF9A"/>
					</linearGradient>
					<path class="st50" d="M-8.47,87.91l52.76-13.68c49.85-12.93,89.33-49.8,105.61-98.67l3.14-9.44c1.47-4.41,3.14-8.74,5-12.97
						c17.17-39.05,50.42-69.68,91.18-83.31c46.63-15.59,82.89-53.01,97.01-100.1l22.81-76.1l0.86,0.26L347.1-230
						c-14.2,47.39-50.68,85.02-97.58,100.69c-44.91,15.01-80.65,50.79-95.62,95.71l-3.14,9.44C134.38,24.98,94.66,62.1,44.52,75.1
						L-8.25,88.78L-8.47,87.91z"/>
				</g>
				<g>
					<linearGradient id="SVGID_53_" gradientUnits="userSpaceOnUse" x1="3.7564" y1="92.1134" x2="391.0289" y2="-295.1591">
						<stop  offset="0" style="stop-color:#92D04D"/>
						<stop  offset="1" style="stop-color:#F2FF9A"/>
					</linearGradient>
					<path class="st51" d="M-4.58,82.19l52.52-14.6c49.62-13.79,88.45-51.36,103.87-100.5l2.98-9.49
						c14.27-45.44,49.59-82.06,94.49-97.94c46.35-16.4,81.95-54.44,95.24-101.78L366-318.6l0.87,0.24l-21.47,76.48
						c-13.37,47.61-49.19,85.89-95.81,102.38c-44.64,15.79-79.75,52.19-93.93,97.36l-2.98,9.49
						C137.15,16.79,98.09,54.58,48.18,68.46l-52.52,14.6L-4.58,82.19z"/>
				</g>
			</g>
		</g>
	</g>
</g>
</svg>
