<svg xmlns="http://www.w3.org/2000/svg" xml:space="preserve" width="192px" height="192px" x="0px" y="0px" viewBox="0 0 32 32"><path d="M12.046 16.604 7.834 7.978h5.559V6.243H3.325a.868.868 0 0 0 0 1.735H5.54l-4.212 8.626h-.97a6.33 6.33 0 0 0 12.659 0h-.971zm-9.271 0 3.912-8.011 3.912 8.011H2.775zM30.672 16.604 26.46 7.978h2.215a.867.867 0 1 0 0-1.735H18.607v1.734h5.558l-4.212 8.626h-.969a6.33 6.33 0 1 0 12.659 0h-.971zm-9.271 0 3.912-8.011 3.912 8.011h-7.824z" style="fill:#fff"/><path d="M17.307 4.364h-2.614v21.537h-2.946v1.735h8.506v-1.735h-2.946z" style="fill:#fff"/></svg>