<?xml version="1.0" encoding="utf-8"?>
<!-- Generator: Adobe Illustrator 25.4.0, SVG Export Plug-In . SVG Version: 6.00 Build 0)  -->
<svg version="1.1" id="레이어_1" xmlns="http://www.w3.org/2000/svg" xmlns:xlink="http://www.w3.org/1999/xlink" x="0px"
	 y="0px" viewBox="0 0 258 87" style="enable-background:new 0 0 258 87;" xml:space="preserve">
<path d="M86.9,87c-19.7,0-39.7-1.1-58.7-6.9c-3.9-1.1-7.3-3.3-10.8-5.5c-2.3-1.1-4.4-2.4-6.3-4.1c-3.2-2.3-6.4-4.8-8.5-8.3
	C-2.9,52.4,1,41.7,7.2,33c2.6-4.4,6.6-7.8,10.6-11.1c4.9-4.3,10.9-7.1,17.1-9.2c9.5-3.4,19.3-5.3,29.1-7.3c11.1-2.3,22.4-4,33.8-4.9
	c15.7-1.4,31.3,0.7,46.9,0.9c13.5,0.1,27,0.8,40.4,1.5c11.7,0.9,23.7,1,35,4.3c12.6,2.9,25.2,5.2,33.2,16.4
	c5.7,8.1,6.5,18.5,0.8,26.8c-1.8,2.6-3.2,5.4-5,8c-1.9,2.4-4.3,4.4-6.5,6.5c-3.7,2.5-8.1,4.2-12.3,5.7c-1.8,1.5-4.5,2.7-6.5,3.7
	c-2.3,1.1-4.5,2.4-6.8,3.2c-10.3,3.6-21.2,3.3-31.9,3.2c-5.3,0.7-10.6,1.9-15.9,2.8c-7.3,1-14.2,0.9-21.4,1.2
	c-7.7,1-15.5,0.9-23.3,0.7c-6.3,0.4-13.2,0.5-19.3,0.7C98.9,86.3,92.9,87.1,86.9,87z M69.7,81.8c9.2,0.4,18.4,0.6,27.6-0.4
	c-4.8-0.2-9.5,0.5-14.3,0.4c-6.2,0-12.8-0.7-18.8-0.3C66,81.7,67.9,81.7,69.7,81.8z M143.9,77.8c9.7,0.7,19.3-0.3,29.1-0.2
	c11.7-2.3,23.4-4.1,35-6.9c2.4-0.5,4.6-1.5,6.9-2.2c4.4-0.7,8.5-1.9,12.9-2.9c3.1-2.4,6.6-4.3,9-7.4c6-5.6,11.3-12.2,12.6-20.3
	c0.8-3.3-0.2-7.1-1.5-10.1c-0.7-1.5-2-2.7-3.1-3.8c-6.6-7.2-16.7-7.9-25.7-10.1c-11.5-3-23.2-3.8-34.9-4.8
	c-14.4-1.2-28.8-1.6-43.2-1.5c-10.6-0.5-21.3-1.4-31.9-0.9C97.8,7,86.5,8.1,75.4,9.9c-4.2,0.9-8.5,2-12.6,3.4
	c-7.7,1.9-15.5,4-22.7,7.4c-7,3.1-13.1,7.7-19.1,12.4c-4.4,4.1-7.6,9.2-10,14.6c-0.6,2.5-0.4,5.1-0.4,7.7c0,2.2,1.5,3.6,3,5.1
	c1,1.2,2.3,2.2,3.5,3.2c5.1,5.1,11.8,8,18.7,10c4.4,0.5,8.8,1.3,13.2,1.8c5.5,0.4,11,1.1,16.5,0.5c6.8,0,13.6,0.9,20.3,1
	C105.2,76.6,124.6,77.9,143.9,77.8z M6.3,55.6c0-3.2-0.1-6.5,1.1-9.6c2.8-5.9,6.4-11.6,11.4-16c8.4-6.3,17-12.3,27-15.6
	c-7.2,1.5-14.4,3.9-20.7,7.7c-4.7,3.4-8.8,7-12.2,11.6C8.8,40.1,4.3,47.6,6.3,55.6z"/>
</svg>
