<svg xmlns="http://www.w3.org/2000/svg" width="238.265" height="66.658997" fill="none" viewBox="0 0 238.265 66.658997"><path fill="#FF8A3D" d="M25.312 12.37C11.34 12.37 0 23.709 0 37.682c0 5.841 2.062 11.224 5.383 15.577.23.343.573.687.802.916.343.458.802.916 1.26 1.374a40.418 40.418 0 0 0 17.867 11.11A40.417 40.417 0 0 0 43.18 55.55c.458-.458.801-.916 1.26-1.374.228-.344.572-.687.801-.916a25.146 25.146 0 0 0 5.383-15.577c0-13.973-11.339-25.312-25.312-25.312zm0 34.933a9.727 9.727 0 0 1-9.735-9.735 9.727 9.727 0 0 1 9.735-9.736c5.383 0 9.621 4.352 9.621 9.736 0 5.383-4.238 9.735-9.62 9.735z"/><path fill="#56C271" d="M33.559 11.797c1.718-.344 2.978-1.832 2.978-3.665 0-2.062-1.718-3.665-3.665-3.665-.573 0-1.146.114-1.604.343C30.581 2.062 28.176 0 25.312 0c-2.863 0-5.268 2.062-5.841 4.81-.458-.229-1.03-.343-1.604-.343-2.061 0-3.665 1.718-3.665 3.665 0 1.833 1.26 3.321 2.978 3.665a24.922 24.922 0 0 1 8.247-1.374c2.863 0 5.497.458 8.132 1.374z"/><g fill="#FF8A3D"><path d="M68.72 38.025h15.463c1.947 0 3.436-1.145 3.436-3.55s-1.489-3.55-3.436-3.55H70.668c-.687 0-1.146-.459-1.146-1.032v-6.07c0-.687.459-1.03 1.146-1.03h13.515c1.947 0 3.436-1.146 3.436-3.551 0-2.406-1.489-3.55-3.436-3.55H68.721c-5.269 0-7.789 2.29-7.789 6.757v8.933c0 4.353 2.52 6.643 7.789 6.643zM88.077 40.889H72.844c-6.872 0-11.339 3.78-11.339 9.277 0 5.383 4.467 9.163 11.34 9.163h15.232c6.872 0 11.454-3.78 11.454-9.163 0-5.498-4.582-9.277-11.454-9.277zm0 11.339H72.844c-1.718 0-2.634-.917-2.634-2.062 0-1.26.916-2.176 2.634-2.176h15.233c1.718 0 2.635.916 2.635 2.176 0 1.145-.917 2.062-2.635 2.062zM101.02 22.907h-2.406V18.21c0-2.062-1.717-3.55-4.352-3.55-2.52 0-4.352 1.488-4.352 3.55v17.982c0 2.062 1.832 3.55 4.352 3.55 2.52 0 4.352-1.488 4.352-3.55v-4.925h2.406c1.947 0 3.55-1.718 3.55-4.238 0-2.29-1.603-4.123-3.55-4.123zM144.2 42.034h-35.392c-2.062 0-3.78-1.374-3.78-3.894 0-2.29 1.718-3.78 3.78-3.78h35.391c2.062 0 3.78 1.49 3.78 3.78 0 2.52-1.604 3.894-3.78 3.894zm-7.216-12.484v-4.582c0-.801-.459-1.26-1.146-1.26h-24.625c-2.176 0-3.894-1.374-3.894-3.894s1.832-4.008 3.894-4.008h26.458c5.268 0 7.903 2.749 7.903 7.56v6.298c0 2.062-1.719 3.551-4.353 3.551-2.634 0-4.237-1.604-4.237-3.665zm-20.731 17.41v3.092c0 .572.458 1.03 1.145 1.03h25.312c2.176 0 3.894 1.375 3.894 3.895s-1.832 3.894-3.894 3.894h-27.03c-5.269 0-8.017-2.176-8.017-6.987V46.96c0-2.062 1.718-3.55 4.352-3.55 2.405 0 4.238 1.603 4.238 3.55zM152.446 50.968V21.762c0-4.01 2.061-6.07 6.184-6.07h11.34c4.123 0 6.184 2.06 6.184 6.07v29.206c0 4.009-2.061 6.07-6.185 6.07H158.63c-4.237 0-6.184-2.061-6.184-6.07zm15.462-2.749V24.51c0-.572-.344-.916-.802-.916h-5.612c-.458 0-.802.344-.802.916v23.595c0 .572.344.916.802.916h5.612c.458.114.802-.344.802-.802zm13.4 7.445v-37.11c0-2.176 1.833-3.779 4.353-3.779 2.52 0 4.352 1.718 4.352 3.78v12.14h2.405c1.947 0 3.55 1.833 3.55 4.238 0 2.52-1.603 4.352-3.55 4.352h-2.405v16.493c0 2.177-1.718 3.78-4.352 3.78-2.52-.115-4.353-1.718-4.353-3.894zM218.189 24.854h1.717v-6.643c0-1.947 1.604-3.207 3.894-3.207 2.292 0 3.894 1.26 3.894 3.207v20.044c0 1.947-1.488 3.207-3.894 3.207-2.403 0-3.894-1.375-3.894-3.322V32.3h-1.717a2.99 2.99 0 0 1-2.406-1.26c-2.406 5.268-6.529 9.506-12.37 12.14-1.831.802-3.894.344-4.924-1.488-1.031-1.833-.344-4.01 1.26-4.81 2.633-1.146 4.81-2.75 6.529-4.697h-4.24c-1.603 0-3.091-.916-3.091-3.092 0-1.947 1.374-3.093 3.092-3.093h7.444c.23-.801.46-1.603.46-2.405.113-.687-.23-1.145-.916-1.145h-6.872c-1.947 0-3.323-1.146-3.323-3.322s1.376-3.436 3.323-3.436h8.246c5.498 0 8.017 2.635 7.215 8.59 0 .23 0 .458-.115.687.345-.114.458-.114.688-.114zm15.462 33.788c-5.269-1.146-11.568-4.009-15.692-7.33-3.78 3.78-8.819 6.528-14.203 7.559-1.83.343-3.894-.458-4.58-2.75-.573-2.175.457-4.008 2.406-4.58 5.84-1.49 10.65-4.925 13.056-9.392.802-1.375 2.749-2.291 5.155-1.604 2.403.802 3.435 3.093 2.633 4.696v.115c3.437 2.749 8.362 4.925 13.287 6.07 1.832.458 2.977 2.29 2.404 4.467-.572 2.29-2.633 3.207-4.466 2.749zm-4.008-19.128V17.982c0-1.947 1.602-3.207 4.008-3.207 2.405 0 4.01 1.26 4.01 3.207v21.532c0 1.948-1.605 3.207-4.01 3.207-2.406 0-4.008-1.26-4.008-3.207z"/></g></svg>