<svg xmlns="http://www.w3.org/2000/svg" width="1910" height="153.3" viewBox="0 0 1910 153.3">
  <path d="M0,80.42S20,27.86,80,31.9s78,54.58,78,54.58S174,34.93,222,37,297,88.5,297,88.5s17-55.59,69-53.57,59,43.46,59,43.46,13-62.67,55-58.62,48,41.44,48,41.44,5-35.38,42-47.5S627,60.2,627,60.2s22-42.45,53-39.42,36,31.33,36,31.33,2-37.4,59-38.41,58,39.42,58,39.42,21-39.42,61-40.43,67,37.4,70,46.49c0,0,10-43.46,55-51.55s67,50.54,67,50.54,8-50.54,65-57.61,92,54.58,92,54.58,4-41.44,51-47.5,62,46.49,62,46.49,18-44.47,64-48.52,67,47.5,67,47.5,11-40.43,58-42.45,73,29.31,81,42.45c0,0,9-39.42,63-34.37s65,35.38,65,35.38,10-38.41,56-33.35,62,47.5,62,47.5,14-36.39,38-40.43V153.3H0Z" style="fill: #000000"/>
</svg>
