<svg xmlns="http://www.w3.org/2000/svg" xml:space="preserve" width="240px" height="240px" x="0px" y="0px" viewBox="0 0 240 240"><g fill="#c7c7c7"><path d="M120.001 10.002C59.248 10.002 10 59.245 10 120c0 60.754 49.247 109.998 110.001 109.998C180.756 229.998 230 180.754 230 120c0-60.755-49.244-109.998-109.999-109.998zm71.82 129.116c-5.549.04-10.554-2.319-14.067-6.082l-33.124 14.015 4.554 10.757a5.079 5.079 0 0 1-2.694 6.656 5.084 5.084 0 0 1-6.659-2.704l-11.282-26.649-44.758 18.94c.103.773.174 1.556.18 2.342.078 10.514-8.408 19.126-18.919 19.212-10.505.074-19.126-8.405-19.202-18.919-.08-10.509 8.405-19.121 18.917-19.208 6.093-.045 11.531 2.796 15.056 7.237l8.284-3.509-16.47-38.905c-.611.063-1.227.105-1.845.105-10.512.085-19.129-8.406-19.209-18.915-.08-10.507 8.405-19.126 18.916-19.206 10.511-.075 19.124 8.411 19.205 18.919.046 6.267-2.964 11.845-7.62 15.353l16.377 38.686 27.127-11.482-3.525-8.33c-.846.119-1.702.213-2.582.219-10.51.081-19.125-8.405-19.207-18.912-.08-10.515 8.405-19.127 18.917-19.207 10.51-.075 19.127 8.41 19.207 18.912.044 6.003-2.709 11.384-7.036 14.91l10.309 24.345L173.032 124a19.097 19.097 0 0 1-.412-3.791c-.078-10.515 8.405-19.127 18.916-19.208 10.51-.081 19.124 8.405 19.203 18.912.078 10.517-8.411 19.133-18.918 19.205z"/><path d="M77.529 83.29c-.034-4.35-3.597-7.863-7.943-7.827-4.353.033-7.865 3.599-7.83 7.943.032 4.354 3.597 7.863 7.948 7.829 4.346-.029 7.86-3.596 7.825-7.945zM64.853 148.647c-4.353.045-7.866 3.602-7.829 7.948a7.895 7.895 0 0 0 7.946 7.837c4.344-.033 7.857-3.606 7.827-7.949-.033-4.344-3.598-7.864-7.944-7.836zM126.223 98.528c-.032-4.344-3.6-7.858-7.946-7.83-4.353.039-7.861 3.601-7.829 7.95.03 4.349 3.601 7.858 7.946 7.825 4.353-.031 7.861-3.596 7.829-7.945zM191.618 112.17c-4.349.035-7.855 3.601-7.825 7.951.031 4.348 3.595 7.855 7.947 7.827 4.346-.033 7.857-3.594 7.829-7.948-.04-4.345-3.605-7.859-7.951-7.83z"/></g></svg>