<svg width="450" height="55" viewBox="0 0 450 55" fill="none" xmlns="http://www.w3.org/2000/svg">
<path d="M53.5437 53.9602V31.6879C53.5437 23.7582 50.225 19.6727 43.9187 19.6727C40.7625 19.6727 37.9313 20.8736 36.3187 22.8792C34.7 24.9591 34.2125 27.0452 34.2125 31.6879V53.9602H26.6937V31.6879C26.6937 26.6428 26.45 25.5224 25.075 23.4363C23.5375 21.0345 20.7875 19.6727 17.4688 19.6727C14.475 19.6727 11.7312 20.7993 9.95 22.7183C8.0875 24.7177 7.51875 26.8843 7.51875 31.6879V53.9602H0V13.9096H7.0375V18.2365C9.7875 14.5472 13.5062 12.8696 18.85 12.8696C24.2687 12.8696 29.3687 15.5933 31.3062 19.5179C34.2188 14.9495 38.2625 12.8696 44.4125 12.8696C54.85 12.8696 61.075 19.0413 61.075 29.5337V53.9664H53.5437V53.9602Z" fill="black"/>
<path d="M118.513 53.9601V47.708C115.438 52.5116 110.263 55 103.388 55C91.6563 55 82.6813 45.9438 82.6813 34.0895C82.6813 21.9938 91.7375 12.8633 103.713 12.8633C109.944 12.8633 115.925 15.587 118.513 19.6725V13.9032H125.55V53.9539H118.513V53.9601ZM90.2 34.17C90.2 41.7035 96.5063 48.1908 103.869 48.1908C111.631 48.1908 117.944 41.9387 117.944 34.17C117.944 25.9184 111.8 19.6725 103.788 19.6725C96.2688 19.6725 90.2 26.0794 90.2 34.17Z" fill="black"/>
<path d="M186.787 13.9033L173.606 33.4458L187.681 53.954H178.787L168.837 39.7722L159.05 53.954H150.231L164.225 33.4458L150.719 13.9033H159.944L168.837 27.1194L177.575 13.9033H186.787Z" fill="black"/>
<path d="M213.7 53.4339V0H221.3V18.9854C224.537 14.5779 229.469 12.1761 235.294 12.1761C246.781 12.1761 256.162 21.7895 256.162 33.6438C256.162 45.2628 246.944 54.4738 235.294 54.4738C228.744 54.4738 224.131 52.3135 220.731 47.7389V53.4277H213.7V53.4339ZM221.062 33.2414C221.062 41.5734 227.05 47.6646 235.056 47.6646C242.256 47.6646 248.644 41.0968 248.644 33.6438C248.644 25.3922 242.575 18.9854 234.894 18.9854C227.206 18.9854 221.062 25.3922 221.062 33.2414Z" fill="black"/>
<path d="M322.75 33.3221C322.75 44.9411 312.963 54.474 300.988 54.474C288.938 54.474 279.15 44.9411 279.15 33.3221C279.15 21.7092 288.856 12.3311 300.913 12.3311C313.038 12.3372 322.75 21.6288 322.75 33.3221ZM286.675 33.2416C286.675 41.2517 293.063 47.6648 300.988 47.6648C308.831 47.6648 315.225 41.2517 315.225 33.2416C315.225 25.4729 308.838 19.1465 300.913 19.1465C293.063 19.1465 286.675 25.5533 286.675 33.2416Z" fill="black"/>
<path d="M376.306 53.4339V31.6443C376.306 23.1576 373.075 19.1463 366.275 19.1463C359.644 19.1463 355.681 23.789 355.681 31.6443V53.4339H348V13.3832H355.038V17.6297C357.706 14.1818 361.837 12.3433 367.012 12.3433C377.119 12.3433 383.838 18.9915 383.838 28.8464V53.4401H376.306V53.4339Z" fill="black"/>
<path d="M448.706 40.8553C445.637 49.1873 438.112 54.4738 429.294 54.4738C418.05 54.4738 408.75 44.8604 408.75 33.3218C408.75 21.3871 417.975 12.0151 429.7 12.0151C440.781 12.0151 450 21.4676 450 32.839C450 33.6375 449.925 35.247 449.756 36.6831H416.35C417.969 43.3314 423.225 47.6584 429.694 47.6584C434.469 47.6584 438.513 45.2504 441.1 40.8429H448.706V40.8553ZM442.481 30.92C442.156 24.1851 436.25 18.8244 429.219 18.8244C425.737 18.8244 421.937 20.5081 419.512 23.2318C417.65 25.3117 416.925 27.0759 416.356 30.92H442.481Z" fill="black"/>
</svg>
