<svg width="263" height="159" viewBox="0 0 263 159" fill="none" xmlns="http://www.w3.org/2000/svg">
<path d="M100.937 15.9882V26.9646H95.7687V0H105.839C109.281 0 111.31 0.844697 112.803 2.42616C114.146 3.81052 114.911 5.88941 114.911 8.01054C114.911 10.1317 114.146 12.2106 112.803 13.5949C111.352 15.1342 109.286 15.9835 105.839 15.9835H100.937V15.9882ZM105.61 11.3659C107.369 11.3659 108.25 10.9435 108.866 10.2865C109.44 9.67178 109.743 8.90217 109.743 8.01523C109.743 7.1283 109.44 6.32115 108.866 5.7064C108.25 5.04941 107.369 4.62706 105.61 4.62706H100.937V11.3706H105.61V11.3659Z" fill="black"/>
<path d="M131.577 4.62237V10.2068H139.805V14.8291H131.577V22.3422H142.869V26.9646H126.404V0H142.487V4.62237H131.577Z" fill="black"/>
<path d="M172.931 0V4.62237H165.846V26.9646H160.683V4.62237H153.597V0H172.931Z" fill="black"/>
<path d="M4.37983 91.4104C6.37151 93.616 9.40801 95.2678 12.5984 95.2678C15.5883 95.2678 17.6779 93.4142 17.6779 90.8566C17.6779 86.3469 11.2038 85.7978 6.52077 83.0385C3.7828 81.4335 1.59055 79.0308 1.59055 75.0701C1.59055 68.8053 7.32304 65.1965 13.0975 65.1965C16.6378 65.1965 19.9215 66.0459 23.2099 68.5049L19.7209 73.5168C18.3263 72.2169 15.9848 71.2127 13.6946 71.2127C11.1525 71.2127 8.31655 72.3155 8.31655 75.0232C8.31655 80.6874 24.4039 78.9323 24.4039 90.7581C24.4039 96.9713 18.8767 101.279 12.6031 101.279C7.92008 101.279 3.58689 99.3271 0 96.0187L4.37983 91.4104Z" fill="black"/>
<path d="M56.2802 65.2061C67.0362 65.2061 74.4619 73.2729 74.4619 83.245C74.4619 93.2171 67.0409 101.284 56.2802 101.284C45.5242 101.284 38.0985 93.2171 38.0985 83.245C38.0985 73.2729 45.5242 65.2061 56.2802 65.2061ZM56.2802 95.2725C62.857 95.2725 67.7359 89.8618 67.7359 83.245C67.7359 76.6329 62.857 71.2175 56.2802 71.2175C49.7035 71.2175 44.8245 76.6282 44.8245 83.245C44.8245 89.8571 49.7035 95.2725 56.2802 95.2725Z" fill="black"/>
<path d="M117.547 83.245C117.547 90.0589 122.729 95.2725 129.45 95.2725C133.984 95.2725 137.272 93.0669 139.315 90.4108L143.942 94.5686C140.854 98.5293 135.677 101.284 129.296 101.284C118.442 101.284 110.821 93.3156 110.821 83.245C110.821 73.1743 118.344 65.2061 129.203 65.2061C134.38 65.2061 138.816 67.1582 141.95 70.2179L137.617 74.8262C135.523 72.7238 132.589 71.2175 129.151 71.2175C122.528 71.2175 117.547 76.5813 117.547 83.245Z" fill="black"/>
<path d="M183.048 85.0001H165.617V100.782H158.891V65.7083H165.617V78.984H183.048V65.7083H189.774V100.782H183.048V85.0001Z" fill="black"/>
<path d="M207.704 65.7083H214.43V100.782H207.704V65.7083Z" fill="black"/>
<path d="M236.6 83.245C236.6 90.0589 241.777 95.2725 248.503 95.2725C253.037 95.2725 256.321 93.0669 258.364 90.4108L262.995 94.5686C259.908 98.5293 254.725 101.284 248.354 101.284C237.495 101.284 229.874 93.3156 229.874 83.245C229.874 73.1743 237.393 65.2061 248.251 65.2061C253.433 65.2061 257.865 67.1582 260.999 70.2179L256.67 74.8262C254.576 72.7238 251.638 71.2175 248.2 71.2175C241.577 71.2175 236.6 76.5813 236.6 83.245Z" fill="black"/>
<path d="M115.732 138.756V158.667L155.314 138.756V158.667L115.732 138.756Z" fill="black"/>
</svg>
