<svg width="402" height="63" viewBox="0 0 402 63" fill="none" xmlns="http://www.w3.org/2000/svg">
<path d="M390.838 22.8499C390.838 19.7472 393.34 17.2407 396.412 17.2407C399.496 17.2407 401.987 19.7582 401.987 22.8499C401.987 25.9415 399.496 28.459 396.412 28.459C393.34 28.459 390.838 25.9415 390.838 22.8499ZM391.836 22.8499C391.847 25.4005 393.889 27.4542 396.423 27.4653C398.958 27.4542 400.999 25.4005 401.01 22.8499C401.01 20.2992 398.958 18.2455 396.423 18.2345C393.889 18.2345 391.847 20.2992 391.836 22.8499Z" fill="black"/>
<path d="M398.893 25.1686L398.388 23.8657C398.256 23.5455 398.08 23.2915 397.872 23.1148C397.905 23.1038 397.938 23.0817 397.96 23.0707C398.113 22.9934 398.256 22.883 398.366 22.7505C398.475 22.629 398.574 22.4744 398.629 22.3199C398.695 22.1542 398.717 21.9776 398.717 21.7899C398.717 21.569 398.673 21.3482 398.585 21.1494C398.497 20.9397 398.355 20.763 398.179 20.6194C398.069 20.5311 397.96 20.4649 397.85 20.4207C397.74 20.3765 397.62 20.3434 397.499 20.3213C397.378 20.2992 397.257 20.2882 397.115 20.2772C396.994 20.2661 396.851 20.2661 396.72 20.2661H394.459C394.415 20.2661 394.371 20.2882 394.327 20.3213C394.295 20.3544 394.273 20.3986 394.273 20.4538V25.2569C394.273 25.3121 394.295 25.3563 394.327 25.3894C394.36 25.4225 394.404 25.4446 394.459 25.4446H395.139C395.183 25.4446 395.227 25.4225 395.26 25.3894C395.293 25.3563 395.315 25.3011 395.315 25.2569V23.4019H396.391C396.511 23.4019 396.61 23.413 396.709 23.4461C396.808 23.4792 396.895 23.5234 396.983 23.5786C397.06 23.6338 397.137 23.7001 397.192 23.7884C397.246 23.8657 397.301 23.954 397.334 24.0423L397.817 25.3232C397.85 25.4005 397.905 25.4446 397.982 25.4446H398.717C398.783 25.4446 398.838 25.4115 398.871 25.3563C398.903 25.3011 398.914 25.2238 398.893 25.1686ZM397.62 22.099C397.587 22.1763 397.543 22.2315 397.477 22.2757C397.411 22.3199 397.301 22.364 397.17 22.3861C397.027 22.4082 396.862 22.4192 396.665 22.4192H395.326V21.1605H396.764C397.104 21.1605 397.345 21.2267 397.477 21.3261C397.609 21.4255 397.674 21.5469 397.674 21.7788C397.674 21.9224 397.652 22.0217 397.62 22.099Z" fill="black"/>
<path d="M38.9784 17.1196H33.4916C31.2859 17.1196 29.596 17.8815 28.312 19.4384L19.8952 29.6298L19.5002 30.1046L19.1051 29.6298L10.6115 19.4384C9.32761 17.9036 7.64864 17.1417 5.48683 17.1196H0V57.2559H5.48683C9.18495 57.2559 10.9737 55.688 10.9737 52.4638V34.2783L11.8735 35.3493L19.4892 44.282L27.094 35.2941L28.0048 34.2231V52.4638C28.0048 55.688 29.7935 57.2559 33.4916 57.2559C35.3571 57.2559 36.7508 56.8584 37.6506 56.0523C38.5505 55.2573 38.9784 54.0869 38.9784 52.4638V17.1196Z" fill="black"/>
<path d="M43.0167 21.9117V57.2559H48.5036C52.2017 57.2559 53.9904 55.688 53.9904 52.4638V17.1196H48.5036C44.8164 17.1196 43.0167 18.6875 43.0167 21.9117Z" fill="black"/>
<path d="M82.1707 48.588H69.0133V21.9115C69.0133 20.2773 68.5854 19.1069 67.6855 18.3119C66.7857 17.528 65.392 17.1084 63.5265 17.1084H58.0397V52.4636C58.0397 55.7319 59.7845 57.2557 63.5265 57.2557H78.9225C80.3162 57.2557 82.1707 56.803 82.1707 52.9274V48.588Z" fill="black"/>
<path d="M113.786 57.5539C115.267 57.7416 116.595 57.2889 117.835 56.1627C119.064 55.0364 119.734 53.8329 119.832 52.5521C119.92 51.2712 119.295 49.88 117.989 48.4225L108.409 37.4471L108.113 37.1048L108.409 36.7626L117.989 25.8424C119.273 24.407 119.898 23.0268 119.799 21.746C119.712 20.4541 119.031 19.2285 117.802 18.1133C116.562 16.9981 115.245 16.5454 113.786 16.7331C112.315 16.9208 110.944 17.8152 109.671 19.4052L98.0936 32.2907L97.1937 33.2955V17.1195H86.2201V57.2558H91.7069C93.5615 57.2558 94.9661 56.8583 95.8659 56.0522C96.7548 55.2572 97.1937 54.0868 97.1937 52.4637V40.9584L98.0936 41.9632C98.0936 41.9632 109.671 54.937 109.682 54.937C110.922 56.4939 112.304 57.3772 113.786 57.5539Z" fill="black"/>
<path d="M225.388 21.0722C223.237 18.5326 220.516 17.2407 217.322 17.2407H198.261V57.2445H203.748C207.501 57.2445 209.235 55.7207 209.235 52.4524V43.5197H215.874C219.561 43.5197 222.601 42.1837 224.905 39.5779C227.243 36.9389 228.472 33.8031 228.548 30.2588C228.636 26.7255 227.572 23.6338 225.388 21.0722ZM213.196 34.8079H209.224V24.3846H213.196C216.861 24.3846 218.804 26.1844 218.804 29.6073C218.804 33.0081 216.861 34.8079 213.196 34.8079Z" fill="black"/>
<path d="M243.099 32.7325V25.7873H252.164C254.995 25.7873 256.301 24.4181 256.301 21.459V17.1196H232.115V57.2559H252.153C254.984 57.2559 256.29 55.8757 256.29 52.9276V48.5992H243.088V41.4664H250.935C253.766 41.4664 255.094 40.0751 255.094 37.0939V32.7325H243.099Z" fill="black"/>
<path d="M287.51 21.0722C285.315 18.4884 282.671 17.2407 279.433 17.2407H260.372V57.2445H265.87C269.601 57.2445 271.335 55.7207 271.335 52.4524V43.5197H277.963C281.661 43.5197 284.701 42.1837 287.005 39.5779C289.332 36.9389 290.561 33.8031 290.648 30.2588C290.736 26.7255 289.672 23.6338 287.51 21.0722ZM275.307 34.8079H271.335V24.3846H275.307C278.972 24.3846 280.915 26.1844 280.915 29.6073C280.915 33.0081 278.961 34.8079 275.307 34.8079Z" fill="black"/>
<path d="M321.375 21.0723C319.213 18.5328 316.502 17.252 313.298 17.252H294.237V57.2557H299.724C303.466 57.2557 305.21 55.7319 305.21 52.4636V43.531H311.849C315.537 43.531 318.576 42.1949 320.892 39.5891C323.218 36.9502 324.447 33.8144 324.535 30.27C324.601 26.7257 323.558 23.634 321.375 21.0723ZM309.172 34.8081H305.199V24.3848H309.172C312.837 24.3848 314.768 26.1846 314.768 29.6075C314.768 33.0083 312.837 34.8081 309.172 34.8081Z" fill="black"/>
<path d="M339.075 32.7325V25.7873H348.139C350.971 25.7873 352.287 24.4181 352.287 21.459V17.1196H328.101V57.2559H348.139C350.971 57.2559 352.287 55.8757 352.287 52.9276V48.5992H339.075V41.4664H346.932C349.763 41.4664 351.08 40.0751 351.08 37.0939V32.7325H339.075Z" fill="black"/>
<path d="M388.029 52.552C388.083 51.2601 387.414 49.7584 385.998 48.0691L380.545 40.5829L380.193 40.097L380.709 39.821C384.649 37.5795 386.569 33.991 386.569 28.8346C386.569 26.0079 385.483 23.3138 383.354 20.8294C381.214 18.334 378.602 17.1084 375.387 17.1084H356.326V57.2446H361.802C365.555 57.2446 367.288 55.7209 367.288 52.4526V40.5829L368.221 41.8526C368.221 41.8526 377.713 54.9038 377.68 54.8707C379.173 56.5932 380.632 57.4986 382.004 57.5428C383.42 57.5869 384.769 57.079 386.042 56.0301C387.337 54.9701 387.985 53.8328 388.029 52.552ZM371.283 34.8081H367.31V24.3848H371.283C374.948 24.3848 376.879 26.1846 376.879 29.6075C376.879 33.0083 374.948 34.8081 371.283 34.8081Z" fill="black"/>
<path d="M191.359 47.4727C190.854 47.1304 190.261 46.9538 189.636 46.9538C189.109 46.9538 188.604 47.0863 188.165 47.3402C187.606 47.6604 187.222 48.1463 187.068 48.7536C186.706 50.2773 186.091 51.4808 185.235 52.32C184.456 53.0819 183.161 53.4683 181.406 53.4683C180.517 53.4683 179.518 53.1923 178.465 52.6512C177.279 52.044 176.083 51.2711 174.887 50.3436C173.658 49.4161 172.462 48.4002 171.332 47.3734C171.332 47.3623 170.037 46.1588 169.104 45.2975L173.175 40.0859L173.845 39.2247C175.282 37.4028 176.489 35.9343 177.433 34.8853C178.53 33.6487 179.233 33.0966 179.628 32.8537C180.089 32.5666 180.506 32.4341 180.912 32.4341C181.131 32.4341 181.241 32.4672 181.274 32.4782C181.296 32.5224 181.318 32.6107 181.318 32.7984C181.318 33.1518 181.384 33.5162 181.548 33.9137C181.702 34.3443 181.987 34.7528 182.371 35.1061C182.733 35.4484 183.216 35.7245 183.842 35.9122C184.401 36.0999 185.06 36.1882 185.839 36.1882C188.045 36.1882 189.592 35.5588 190.415 34.3222C191.183 33.2953 191.589 32.0476 191.589 30.6564C191.589 28.9781 190.953 27.5206 189.68 26.3391C188.429 25.1797 186.673 24.5945 184.445 24.5945C182.668 24.5945 180.967 25.0252 179.375 25.8533C177.872 26.6593 176.314 27.8297 174.723 29.3535C173.197 30.833 171.529 32.6991 169.773 34.8853L164.791 41.168L158.482 34.7528L152.534 28.5806C153.478 28.0837 154.454 27.5647 155.475 26.9795C157.154 26.041 158.712 24.9479 160.128 23.7222C161.576 22.4635 162.794 21.0391 163.76 19.4491C164.769 17.7708 165.285 15.8496 165.285 13.7296C165.285 11.2673 164.78 9.12525 163.782 7.35859C162.783 5.61402 161.488 4.16757 159.897 3.07445C158.35 2.01445 156.605 1.21946 154.707 0.722587C152.841 0.247798 150.965 0.00488281 149.121 0.00488281C146.169 0.00488281 143.59 0.446547 141.45 1.31883C139.322 2.2132 137.522 3.37257 136.128 4.77486C134.735 6.18818 133.681 7.77817 133.012 9.54483C132.353 11.2894 132.024 13.034 132.024 14.7233C132.024 16.7108 132.266 18.4775 132.737 20.0012C133.198 21.5029 133.824 22.9162 134.603 24.1639C135.371 25.4006 136.249 26.571 137.237 27.642C137.829 28.3045 138.367 28.8676 138.916 29.4749C137.588 30.1705 136.293 30.8883 135.086 31.617C133.319 32.677 131.75 33.9578 130.422 35.4153C129.061 36.8949 127.975 38.6395 127.196 40.5938C126.417 42.5482 126.032 44.9111 126.032 47.5832C126.032 50.0233 126.526 52.2206 127.481 54.0867C128.425 55.9527 129.742 57.5316 131.355 58.7793C132.935 59.9939 134.811 60.9435 136.896 61.5618C138.948 62.1691 141.143 62.4783 143.415 62.4783C147.069 62.4783 150.449 61.7054 153.478 60.1816C156.243 58.7904 158.921 56.6262 161.477 53.7885C162.487 54.7712 163.508 55.7429 164.561 56.6373C165.922 57.7635 167.359 58.7904 168.841 59.6295C170.355 60.4797 171.968 61.1754 173.647 61.6943C175.359 62.2133 177.214 62.4783 179.167 62.4783C181.076 62.4783 182.832 62.0808 184.412 61.3299C185.96 60.5791 187.309 59.5743 188.44 58.3487C189.57 57.1341 190.459 55.7539 191.128 54.2302C191.776 52.7285 192.193 51.1938 192.357 49.67C192.467 48.7867 192.116 47.9696 191.359 47.4727ZM141.429 10.0527C141.648 9.04796 142.043 8.14255 142.625 7.35859C143.206 6.57464 144.007 5.93422 145.028 5.44839C146.048 4.96256 147.387 4.73069 149.033 4.73069C149.878 4.73069 150.734 4.9184 151.601 5.33798C152.468 5.74652 153.258 6.34276 153.971 7.1488C154.674 7.9438 155.244 8.93754 155.683 10.0859C156.111 11.2452 156.342 12.5813 156.342 14.094C156.342 15.4852 156.199 16.7329 155.892 17.8592C155.585 18.9744 155.113 19.9791 154.443 20.8846C153.785 21.79 152.951 22.6181 151.941 23.38C150.932 24.1308 149.725 24.8375 148.276 25.4999C147.563 24.6939 146.784 23.8216 145.961 22.8831C145.138 21.9556 144.369 20.9398 143.645 19.8908C142.932 18.8308 142.328 17.7377 141.846 16.6004C141.374 15.4742 141.132 14.3258 141.132 13.1444C141.121 12.0954 141.22 11.0686 141.429 10.0527ZM158.986 50.0896C157.483 51.4477 155.585 52.585 153.269 53.4904C150.932 54.3958 148.671 54.8596 146.509 54.8596C144.918 54.8596 143.546 54.6056 142.416 54.1308C141.275 53.645 140.331 52.9604 139.574 52.1102C138.828 51.249 138.279 50.2111 137.928 48.9854C137.588 47.7598 137.412 46.4017 137.412 44.9332C137.412 42.6696 137.851 40.4613 138.729 38.3082C139.629 36.1661 141.143 34.1786 143.305 32.3678C145.873 35.2718 148.441 38.0984 150.998 40.8257C153.554 43.553 156.177 46.3686 158.877 49.2725C159.195 49.5706 159.217 49.8467 158.986 50.0896Z" fill="black"/>
</svg>
