<?xml version="1.0" encoding="utf-8"?>
<!-- Generator: Adobe Illustrator 25.4.0, SVG Export Plug-In . SVG Version: 6.00 Build 0)  -->
<svg version="1.1" id="레이어_1" xmlns="http://www.w3.org/2000/svg" xmlns:xlink="http://www.w3.org/1999/xlink" x="0px"
	 y="0px" viewBox="0 0 30 52" style="enable-background:new 0 0 30 52;" xml:space="preserve">
<style type="text/css">
	.st0{fill:#F0EDE6;}
	.st1{fill:none;stroke:#000000;stroke-width:3;stroke-linecap:round;stroke-linejoin:round;stroke-miterlimit:10;}
</style>
<path class="st0" d="M6.1,50L3.6,13.8C1.9,11.2,0.8,6.9,3,5.1c2.3-1.9,6,0.7,6,0.7s1.2-4.1,5.6-3.2c3,0.6,3.6,3.1,3.6,3.1
	s2.6-3.3,6-1.2c3,1.9,2,4.9,1,7.2L28.4,50"/>
<path class="st1" d="M6.1,50L3.6,13.8C1.9,11.2,0.8,6.9,3,5.1c2.3-1.9,6,0.7,6,0.7s1.2-4.1,5.6-3.2c3,0.6,3.6,3.1,3.6,3.1
	s2.6-3.3,6-1.2c3,1.9,2,4.9,1,7.2L28.4,50"/>
</svg>
