<?xml version="1.0" encoding="utf-8"?>
<!-- Generator: Adobe Illustrator 25.4.0, SVG Export Plug-In . SVG Version: 6.00 Build 0)  -->
<svg version="1.1" id="레이어_1" xmlns="http://www.w3.org/2000/svg" xmlns:xlink="http://www.w3.org/1999/xlink" x="0px"
	 y="0px" viewBox="0 0 30 52" style="enable-background:new 0 0 30 52;" xml:space="preserve">
<style type="text/css">
	.st0{fill:#F0EDE6;}
	.st1{fill:none;stroke:#000000;stroke-width:3;stroke-linecap:round;stroke-linejoin:round;stroke-miterlimit:10;}
</style>
<path class="st0" d="M6.1,50L3.6,13.8C1.9,11.2,0.8,6.9,3,5.1c2.3-1.9,6,0.7,6,0.7s1.2-4.1,5.6-3.2c3,0.6,3.6,3.1,3.6,3.1
	s2.6-3.3,6-1.2c3,1.9,2,4.9,1,7.2L28.4,50"/>
<path d="M19.3,16.2c-1,0.8-1.5,2.1-1.2,3.2c0.1,0.6,0.4,1.1,0.9,1.5c0.4,0.3,0.9,0.4,1.3,0.2c0.3-0.2,0.5-0.6,0.7-0.9
	c0.4-0.7,0.6-1.5,0.6-2.3c0-0.8-0.3-1.6-1.2-1.9c-0.8-0.3-1.6,0.1-2,0.7c-0.2,0.4-0.3,0.8-0.4,1.2c0,0.4,0,0.7,0.1,1.1
	c0.2,0.4,0.6,0.7,1,0.7c0.5,0.1,0.9-0.2,1.2-0.6c0.5-0.7,0.5-1.7,0.3-2.5c-0.1-0.4-0.6-0.5-1-0.2c-0.8,0.8-1,2-0.4,2.9
	c0.2,0.3,0.6,0.4,0.9,0.1c0.6-0.6,0.8-1.6,0.3-2.4c-0.2-0.3-0.7-0.4-0.9-0.1c-0.7,0.8-0.9,1.9-0.4,2.9c0.2,0.3,0.9,0.4,1,0
	c0.2-0.6,0.3-1.3,0.4-1.9c0-0.3-0.2-0.5-0.5-0.5c-0.3,0-0.6,0.2-0.6,0.4c0,0.6-0.1,1.1-0.3,1.7c0.3,0,0.7,0,1,0
	c-0.4-0.6-0.3-1.4,0.2-1.9c-0.3,0-0.6-0.1-0.9-0.1c0.3,0.5,0.2,1-0.2,1.4c0.3,0,0.6,0.1,0.9,0.1c-0.4-0.7-0.3-1.4,0.3-2
	c-0.3-0.1-0.6-0.1-1-0.2c0.1,0.5,0.2,1,0,1.5c0,0.1-0.1,0.4-0.2,0.5c0.1,0,0,0-0.1,0c0.1,0-0.1,0-0.1-0.1c0,0,0,0,0,0
	c-0.1-0.2-0.1-0.4-0.1-0.6c0-0.3,0-0.6,0.2-0.8c0.1-0.3,0.5-0.6,0.9-0.4c0.5,0.2,0.5,0.7,0.4,1.1c-0.1,0.5-0.2,1.1-0.5,1.6
	c-0.1,0.2-0.2,0.4-0.4,0.6c-0.1,0.1,0,0,0,0c0,0,0.1,0,0.1,0c0,0-0.2-0.2-0.2-0.2c-0.2-0.3-0.4-0.6-0.5-1c-0.2-0.8,0.1-1.7,0.8-2.2
	C20.4,16.5,19.8,15.8,19.3,16.2z"/>
<path d="M10.3,31.2c-0.5-0.4-1.2-0.3-1.7,0C8,31.5,7.8,32,7.9,32.6c0.1,0.6,0.5,1,1,1.4c0.3,0.2,0.6,0.3,0.9,0.5
	c0.3,0.1,0.6,0.2,0.9,0.3c1.5,0.4,2.1-1.3,1.8-2.3c-0.3-1.2-1.5-1.9-2.7-2.4c-0.6-0.3-1.3-0.3-1.8,0.2c-0.2,0.2-0.4,0.5-0.6,0.8
	c-0.2,0.3-0.3,0.6-0.4,0.9c-0.1,0.3-0.2,0.6,0,0.9c0.1,0.3,0.4,0.5,0.7,0.6c0.6,0.3,1.2,0.6,1.8,0.6c1.1,0.1,2.5-0.6,2.5-1.7
	c0-1.1-1.3-1.6-2.4-1.9c-0.4-0.1-0.7-0.1-1,0.1c-0.3,0.2-0.4,0.6-0.3,1c0,0.5,0.2,1,0.5,1.5c0.6,1,1.6,1.7,2.6,2.4
	c0.4,0.2,0.9,0,0.9-0.4c-0.2-0.7-0.5-1.4-1-2c-0.2-0.3-0.5-0.6-0.8-0.8c-0.3-0.3-0.7-0.5-1.1-0.6c-0.8-0.2-1.5,0.5-1.5,1.1
	c-0.1,0.8,0.7,1.3,1.4,1.7c0.6,0.3,1.2-0.4,0.6-0.8c-0.2-0.1-0.5-0.3-0.7-0.5c-0.1-0.1-0.3-0.3-0.3-0.5c0-0.1,0-0.1,0-0.2
	c0,0,0.1-0.1,0.1-0.1c0,0,0,0,0,0c-0.1,0,0,0,0.1,0c0.1,0,0.2,0.1,0.3,0.2c0.9,0.6,1.6,1.5,1.8,2.5c0.3-0.1,0.6-0.3,0.9-0.4
	c-1.2-0.7-2.5-1.7-2.7-3c0,0,0-0.3,0-0.3c0,0-0.2,0-0.1,0c-0.1,0,0,0,0,0c0.1,0,0.2,0,0.3,0.1c0.3,0.1,0.7,0.2,1,0.4
	c0.5,0.3,0.4,0.9-0.1,1.1c-0.7,0.4-1.6,0-2.2-0.3c-0.1-0.1-0.3-0.1-0.3-0.2c0-0.2,0.1-0.4,0.2-0.5c0.1-0.2,0.2-0.4,0.3-0.6
	c0.1-0.1,0.2-0.4,0.4-0.5c0.1,0,0.2,0,0.3,0c0.2,0.1,0.4,0.2,0.7,0.3c0.4,0.2,0.8,0.4,1.1,0.7c0.5,0.4,0.8,1.2,0.5,1.8
	c-0.1,0.1-0.1,0.3-0.3,0.3c-0.2,0-0.4-0.1-0.6-0.2c-0.5-0.2-1-0.4-1.3-0.7C9,32.8,8.8,32.4,9,32.1c0.1-0.1,0.2-0.2,0.3-0.2
	c0.2,0,0.3,0,0.3,0C10.2,32.3,10.8,31.6,10.3,31.2z"/>
<path d="M8.8,33.7c2.6,0.9,4.1-2.6,1.6-3.5C7.8,29.4,6.3,32.9,8.8,33.7z"/>
<path d="M9.3,34.5c0,0,0.1,0,0.1,0.1c-0.1-0.1-0.3-0.2-0.4-0.3c0,0,0.1,0.1,0.1,0.1C9,34.2,8.9,34.1,8.8,34c0,0,0,0.1,0,0.1
	c0-0.1-0.1-0.3-0.2-0.5c0,0.1,0,0.1,0,0.2c0-0.2,0-0.3,0-0.5c0,0.1,0,0.1,0,0.2c0.1-0.2,0.1-0.3,0.1-0.5c0,0.1,0,0.1-0.1,0.2
	C8.8,33,8.9,32.9,9,32.7c0,0-0.1,0.1-0.1,0.1c0.1-0.1,0.3-0.2,0.4-0.3c0,0-0.1,0.1-0.1,0.1c0.2-0.1,0.3-0.2,0.5-0.2
	c0,0-0.1,0-0.1,0.1c0.2,0,0.4-0.1,0.5-0.1c-0.1,0-0.1,0-0.2,0c0.2,0,0.4,0,0.6,0c-0.1,0-0.2,0-0.2,0c0.2,0,0.4,0.1,0.6,0.1
	c-0.1,0-0.2-0.1-0.3-0.1c0.2,0.1,0.3,0.2,0.5,0.2c-0.1-0.1-0.2-0.1-0.3-0.2c0.1,0.1,0.3,0.2,0.4,0.3c-0.1-0.1-0.1-0.1-0.2-0.2
	c0.1,0.1,0.2,0.3,0.3,0.4c-0.1-0.1-0.1-0.2-0.1-0.3c0,0.1,0.1,0.3,0.2,0.5c-0.1-0.3-0.1-0.6-0.1-0.9c-0.1-0.4-0.2-0.8-0.4-1.2
	c-0.3-0.5-0.7-0.9-1.2-1.3c-0.4-0.3-0.8-0.5-1.3-0.6c-0.5,1.2-1,2.3-1.6,3.5c0.1,0,0.2,0.1,0.3,0.1c-0.2-0.1-0.3-0.2-0.5-0.2
	c0.2,0.1,0.3,0.2,0.5,0.3c-0.1-0.1-0.3-0.2-0.4-0.3c0.5,0.4,0.8,1,1.3,1.4c0.7,0.8,1.7,1.4,2.9,1.5c0.5,0.1,1.1-0.1,1.6-0.4
	s0.8-0.8,0.8-1.3c0-0.5-0.1-1-0.4-1.4c-0.4-0.4-0.9-0.6-1.5-0.7c-0.1,0-0.1,0-0.2,0c0.2,0,0.4,0.1,0.6,0.1c-0.1,0-0.3-0.1-0.4-0.1
	c0.2,0.1,0.3,0.2,0.5,0.2c-0.2-0.1-0.3-0.2-0.5-0.3c0.1,0.1,0.3,0.2,0.4,0.3c-0.4-0.4-0.8-0.9-1.1-1.3c-0.3-0.3-0.6-0.6-1-0.9
	c-0.1-0.1-0.2-0.2-0.4-0.2c-0.3-0.1-0.6-0.3-0.9-0.4C7.6,29,7,29,6.5,29.2c-0.5,0.2-1,0.6-1.1,1c-0.2,0.5-0.2,1,0,1.4
	c0.2,0.4,0.6,0.8,1.2,1c0.1,0,0.3,0.1,0.4,0.2c-0.2-0.1-0.3-0.2-0.5-0.2c0.2,0.1,0.3,0.2,0.5,0.3c-0.1-0.1-0.3-0.2-0.4-0.3
	c0.1,0.1,0.3,0.3,0.4,0.4c-0.1-0.1-0.2-0.3-0.3-0.4c0.1,0.1,0.2,0.3,0.2,0.5c0-0.1-0.1-0.3-0.2-0.5c0.1,0.2,0.1,0.5,0.1,0.7
	c0,0.4,0.1,0.8,0.3,1.1c0.5,0.9,1.5,1.6,2.6,1.7c1.3,0.1,2.5-0.5,3-1.6c0.2-0.4,0.2-0.9,0.2-1.3c-0.1-0.4-0.2-0.7-0.5-1
	c-0.1-0.2-0.4-0.4-0.6-0.5c-0.5-0.3-1-0.4-1.6-0.4c-0.5,0.1-1.1,0.3-1.4,0.7c-0.3,0.4-0.5,0.9-0.4,1.4C8.5,33.8,8.8,34.3,9.3,34.5z"
	/>
<path d="M20.4,36.4c-0.1,0.2-0.2,0.4-0.3,0.5c-0.2,0.3-0.3,0.6-0.3,0.9c-0.1,0.3,0,0.8,0.2,1.1c0.3,0.5,0.7,0.9,1.3,1.1
	c0.7,0.2,1.4,0.2,2.1-0.1c0.2-0.1,0.5-0.2,0.7-0.4c0.1,0,0.2-0.1,0.2-0.2c0.2-0.1,0.4-0.3,0.6-0.5c0.2-0.2,0.3-0.4,0.4-0.6
	c0.1-0.2,0.2-0.4,0.2-0.7c0-0.2,0-0.4,0-0.6c-0.1-0.4-0.3-0.8-0.6-1.2c-0.3-0.3-0.7-0.6-1.2-0.8c-0.4-0.1-0.8-0.2-1.3-0.1
	c0,0,0,0-0.1,0c-0.2,0-0.4,0.1-0.5,0.1c0,0,0,0,0,0c-0.2,0.1-0.4,0.2-0.5,0.3c-0.2,0.2-0.4,0.3-0.5,0.6c-0.2,0.2-0.3,0.4-0.3,0.7
	c0,0.2,0,0.5,0.1,0.7c0.1,0.2,0.2,0.5,0.4,0.6c0.1,0.1,0.3,0.2,0.4,0.3c0.3,0.2,0.7,0.3,1.1,0.4c0.2,0,0.4,0,0.6,0
	c0.4-0.1,0.7-0.2,1-0.4c0,0,0,0,0,0c-0.2,0.1-0.3,0.2-0.5,0.2c0,0,0.1,0,0.1,0c-0.2,0-0.4,0.1-0.5,0.1c0,0,0.1,0,0.1,0
	c-0.2,0-0.4,0-0.6,0c0,0,0.1,0,0.1,0c-0.2,0-0.4-0.1-0.6-0.1c0,0,0.1,0,0.1,0c-0.2-0.1-0.3-0.2-0.5-0.2c0,0,0.1,0,0.1,0.1
	c-0.1-0.1-0.3-0.2-0.4-0.3c0,0,0.1,0.1,0.1,0.1c-0.1-0.1-0.2-0.3-0.3-0.4c0,0,0.1,0.1,0.1,0.1c0-0.1-0.1-0.3-0.2-0.5
	c0,0,0,0.1,0,0.2c0-0.2,0-0.3,0-0.5c0,0,0,0.1,0,0.1c0.1-0.2,0.1-0.3,0.1-0.5c0,0.1,0,0.1-0.1,0.2c0.1-0.2,0.2-0.3,0.3-0.4
	c0,0.1-0.1,0.1-0.2,0.2c0.1-0.1,0.3-0.2,0.4-0.3c-0.1,0.1-0.3,0.2-0.4,0.3c0.2-0.1,0.3-0.2,0.5-0.2c-0.1,0.1-0.3,0.1-0.4,0.2
	c0.2,0,0.4-0.1,0.5-0.1c0,0-0.1,0-0.1,0c0.2,0,0.4,0,0.6,0c0,0,0,0-0.1,0c0.2,0,0.4,0.1,0.6,0.1c0,0,0,0-0.1,0
	c0.2,0.1,0.3,0.2,0.5,0.2c0,0,0,0,0,0c0.1,0.1,0.3,0.2,0.4,0.3c0,0,0,0,0,0c0.1,0.1,0.2,0.3,0.3,0.4c0,0,0,0,0,0
	c0,0.1,0.1,0.3,0.2,0.5c0,0,0,0,0-0.1c0,0.2,0,0.3,0,0.5c0,0,0-0.1,0-0.1c-0.1,0.2-0.1,0.3-0.1,0.5c0-0.2,0.1-0.3,0.2-0.4
	c0.1-0.2,0.2-0.3,0.2-0.5c0.1-0.2,0.2-0.5,0.1-0.7c0-0.2,0-0.5-0.2-0.7c-0.1-0.2-0.3-0.4-0.5-0.6c-0.2-0.2-0.4-0.3-0.7-0.4
	c-0.2,0-0.4-0.1-0.6-0.1c-0.4,0-0.7,0-1.1,0.1c-0.2,0.1-0.3,0.2-0.5,0.2C20.8,35.8,20.5,36.1,20.4,36.4z"/>
<path d="M9.7,12.9C9.8,12.9,9.8,13,9.7,12.9c0,0-0.1-0.1-0.2-0.2c0.1,0.1,0.3,0.3,0.4,0.4C9.8,13,9.8,12.9,9.7,12.9
	c0,0,0.1,0.1,0.1,0.2c0-0.1-0.1-0.2-0.1-0.3C9.7,12.8,9.7,12.9,9.7,12.9c0-0.1,0-0.2,0-0.4c0,0,0,0.1,0,0.1c0-0.1,0.1-0.2,0.1-0.4
	c0,0,0,0.1-0.1,0.1c0.1-0.1,0.1-0.2,0.2-0.3c0,0-0.1,0.1-0.1,0.1c0.1-0.1,0.2-0.2,0.3-0.3c0,0-0.1,0-0.1,0.1
	c0.1-0.1,0.2-0.1,0.3-0.2c0,0-0.1,0-0.1,0c0.1,0,0.3-0.1,0.4-0.1c-0.1,0-0.1,0-0.1,0c0.1,0,0.3,0,0.4,0c-0.1,0-0.1,0-0.2,0
	c0.1,0,0.3,0.1,0.4,0.1c-0.1,0-0.2,0-0.2-0.1c0.1,0.1,0.2,0.1,0.4,0.2c-0.1,0-0.1-0.1-0.2-0.1c0.1,0.1,0.2,0.2,0.3,0.3
	c0,0-0.1-0.1-0.1-0.1c0.1,0.1,0.1,0.2,0.2,0.3c0-0.1-0.1-0.1-0.1-0.2c0,0.1,0.1,0.2,0.1,0.3c0-0.1,0-0.2,0-0.3c0,0.1,0,0.2,0,0.4
	c0-0.1,0-0.3,0.1-0.4c0,0.1-0.1,0.2-0.1,0.4c0.1-0.2,0.1-0.4,0.2-0.6c0.1-0.2,0.1-0.4,0.1-0.5c0-0.2,0-0.4-0.1-0.5
	c-0.1-0.2-0.2-0.3-0.4-0.4c-0.1-0.1-0.3-0.3-0.5-0.3c-0.1,0-0.3-0.1-0.4-0.1c-0.3,0-0.6,0-0.8,0.1c-0.1,0.1-0.2,0.1-0.3,0.2
	c-0.2,0.2-0.4,0.4-0.5,0.6c-0.1,0.2-0.2,0.3-0.2,0.5c-0.1,0.3-0.2,0.6-0.2,0.8c0,0.2,0,0.4,0,0.6c0,0.2,0.1,0.4,0.2,0.5
	c0.2,0.3,0.4,0.6,0.8,0.8c0.7,0.4,1.5,0.6,2.3,0.3c0.2-0.1,0.3-0.1,0.5-0.3c0.3-0.3,0.4-0.4,0.6-0.7c0.1-0.2,0.1-0.3,0.2-0.5
	c0-0.2,0-0.4,0-0.6s-0.1-0.4-0.2-0.5c-0.1-0.2-0.2-0.4-0.4-0.5c-0.2-0.2-0.4-0.4-0.7-0.6c-0.2-0.1-0.4-0.2-0.6-0.2
	c-0.2-0.1-0.4-0.1-0.6,0c-0.2,0-0.4,0.1-0.6,0.2c-0.2,0.1-0.3,0.2-0.5,0.4c-0.1,0.1-0.1,0.2-0.2,0.3c-0.1,0.2-0.1,0.5-0.1,0.7
	c0,0.1,0.1,0.2,0.1,0.3C9.3,12.6,9.5,12.8,9.7,12.9z"/>
<path d="M5.8,33.1c0.4,0.7,1,1.3,1.8,1.7C8,35,8.4,35.2,8.8,35.4c0.7,0.3,1.4,0.3,2.1,0.1c1.1-0.3,1.8-1.3,1.9-2.2
	c0.1-0.9-0.3-1.8-1-2.4c-0.4-0.3-0.8-0.6-1.2-0.9c-0.5-0.3-1-0.5-1.5-0.7c0.1,0.1,0.2,0.1,0.4,0.2c-0.2-0.1-0.4-0.2-0.6-0.3
	c-0.1-0.1-0.2-0.1-0.3-0.2c-0.1,0-0.1-0.1-0.1-0.1C8.6,29,8.6,29.1,8.5,29c-0.5,0.8-1,1.5-1.4,2.3c0.3,0,0.6,0,0.9,0.1
	c-0.1,0-0.3-0.1-0.4-0.1c0.3,0.1,0.7,0.2,1,0.3c-0.1-0.1-0.2-0.1-0.4-0.2c0.2,0.1,0.3,0.2,0.5,0.3c0.1,0.1,0.2,0.1,0.3,0.2
	c-0.1-0.1-0.1-0.1-0.2-0.2c0,0,0.1,0.1,0.1,0.1C8.9,32,9,32.1,9.2,32.3C9,32.1,9,32,9.1,32.1c0,0,0,0.1,0.1,0.1
	c0,0.1,0.1,0.2,0.1,0.2c0,0.1,0.1,0.1,0.1,0.2c0.1,0.1,0,0.1,0-0.1c0,0,0,0.1,0,0.1c0,0.2,0.1,0.3,0.1,0.5c0,0.3,0-0.3,0-0.1
	c0,0.1,0,0.2,0,0.3c0,0.2-0.1,0.3-0.1,0.5c0-0.1,0.1-0.2,0.1-0.4c-0.1,0.3-0.2,0.5-0.3,0.8c0.1-0.1,0.1-0.2,0.2-0.3
	c-0.1,0.1-0.3,0.3,0,0c-0.1,0.1-0.1,0.1,0.1-0.1c0.3-0.1,0.3-0.1,0.2,0c0.4,0,0.2,0,0.1,0c-0.1,0-0.2,0-0.3-0.1
	c-0.5-0.1-1.1-0.2-1.6-0.3c0,0.9,0,1.9,0.1,2.8c0,0,0.1,0,0.1,0c0.1,0,0.1,0-0.2,0c0.1,0,0.2,0,0.2,0c0.2,0,0.3,0,0.5,0.1
	c-0.1,0-0.3-0.1-0.4-0.1c0.4,0.1,0.7,0.2,1.1,0.2c0.3,0.1,0.6,0.1,1,0c0.8,0,1.5-0.3,2-0.9c1-1.1,0.4-2.5-0.5-3.4
	c-0.5-0.6-1.6-0.7-2.3-0.2c-0.6,0.5-0.8,1.4-0.3,2c0.1,0.1,0.2,0.2,0.2,0.3c0,0,0.1,0.2,0.1,0.2c0,0-0.2-0.3-0.1-0.1
	c0,0,0,0.1,0.1,0.2c0.1,0.2-0.1-0.3,0-0.1c0.1,0.3,0-0.2,0-0.1c0,0,0,0.2,0,0.2c0-0.1,0.1-0.2,0.1-0.4c0,0.1-0.1,0.1-0.1,0.2
	c0.1-0.1,0.1-0.2,0.2-0.3c-0.1,0.2-0.1,0,0.1-0.1c-0.1,0-0.3,0.1,0,0c0.2-0.1,0,0,0,0c0.3-0.1,0.3-0.1,0.1,0c-0.1,0-0.3,0,0,0
	c0.3,0,0,0,0,0c-0.2,0-0.3,0-0.5-0.1c0.1,0,0.3,0.1,0.4,0.1c-0.8-0.2-1.6-0.4-2.4-0.3C6.6,33.7,6,34.3,6,35c0,0.3,0.1,0.6,0.3,0.8
	c0.3,0.3,0.6,0.4,1.1,0.5c1,0.2,2.2,0.6,3.2,0.2c1.2-0.4,1.7-1.6,1.9-2.6c0.4-1.7-0.5-3.5-2.1-4.6c-0.9-0.6-2-1-3.1-1
	c-0.7,0-1.2,0.2-1.6,0.7c-0.3,0.5-0.3,1.1,0.1,1.5c0.4,0.4,0.8,0.7,1.3,0.9s1,0.5,1.5,0.7c-0.1-0.1-0.2-0.1-0.4-0.2
	c0.3,0.1,0.5,0.3,0.8,0.4c0.1,0.1,0.2,0.1,0.3,0.2c0.2,0.1-0.3-0.3-0.1-0.1c0,0,0.1,0.1,0.1,0.1c0,0,0.1,0.1,0.1,0.2
	c0,0-0.2-0.3-0.1-0.1c0,0,0,0.1,0.1,0.1c0.1,0.2,0-0.1,0-0.1c0,0,0,0.1,0,0.2c0,0.1,0,0.2,0-0.1c0,0.1,0,0.2,0,0.3
	c0-0.1,0.1-0.2,0.1-0.4c0,0.1-0.1,0.2-0.2,0.4c0.1-0.1,0.1-0.2,0.2-0.3c0,0.1-0.1,0.1-0.1,0.2c-0.1,0.2,0.3-0.3,0.1-0.1
	c-0.2,0.2,0.4-0.1,0.1,0c0.1,0,0.1,0,0.2-0.1c0.3,0,0.3,0,0.1,0c0.1,0,0.3,0.1,0.4,0.1c-0.3-0.1-0.7-0.3-1-0.4
	c0.1,0.1,0.2,0.1,0.4,0.2c-0.3-0.2-0.6-0.3-0.9-0.5C8.9,32.1,8.8,32,9,32.2c0-0.1-0.1-0.1-0.2-0.2c0,0-0.1-0.1-0.1-0.2
	c0.1,0.2,0.2,0.2,0.1,0.1c0,0-0.1-0.1-0.1-0.1c-0.4-0.7-1.3-1.1-2.1-0.7C5.8,31.5,5.4,32.3,5.8,33.1z"/>
<path d="M9.3,33.1C9.3,33.1,9.3,33.1,9.3,33.1c-0.1,0-0.2,0-0.3-0.1C9.1,33,9.2,33.1,9.3,33.1c0,0-0.2-0.1-0.3-0.1
	c0.2,0.1,0.4,0.2,0.5,0.3C9.4,33.2,9.3,33.1,9.3,33.1c0.2,0.2,0.4,0.5,0.6,0.8c-0.1-0.1-0.1-0.2-0.2-0.3c0.2,0.3,0.3,0.6,0.4,0.9
	c0-0.1-0.1-0.2-0.1-0.3c0.1,0.2,0.1,0.3,0.1,0.5c0-0.1,0-0.2,0-0.4c0,0.1,0,0.2,0,0.3c0-0.1,0.1-0.2,0.1-0.4c0,0.1-0.1,0.2-0.1,0.3
	c0.1-0.1,0.1-0.2,0.2-0.3c0,0.1-0.1,0.1-0.2,0.2c0.1-0.1,0.2-0.2,0.3-0.3c-0.1,0.1-0.2,0.1-0.2,0.2c0.1-0.1,0.2-0.1,0.3-0.2
	c-0.1,0.1-0.2,0.1-0.4,0.1c0.1,0,0.3-0.1,0.4-0.1c-0.2,0.1-0.4,0.1-0.7,0.1c0.1,0,0.3,0,0.4,0c-0.9,0-1.8-0.2-2.7,0
	c-0.4,0.1-0.8,0.2-1,0.5c-0.2,0.3-0.4,0.7-0.3,1.1c0.1,0.4,0.3,0.7,0.6,0.9c0.3,0.2,0.8,0.4,1.2,0.3c0.2,0,0.4-0.1,0.6-0.1
	c-0.1,0-0.3,0-0.4,0c0.9,0,1.7,0.2,2.6,0.1c0.5-0.1,1.1-0.3,1.5-0.6c0.5-0.4,0.9-1,1-1.6c0.1-1-0.4-1.9-0.9-2.7
	c-0.3-0.4-0.6-0.7-1-1c-0.5-0.4-1.1-0.6-1.8-0.7c-0.4-0.1-0.9,0.1-1.2,0.3c-0.3,0.2-0.6,0.6-0.6,1c0,0.4,0.1,0.7,0.3,1
	c0.1,0.1,0.2,0.2,0.3,0.3C8.7,32.9,9,33,9.3,33.1z"/>
<path d="M16.6,44.9c-0.4-0.1-0.7-0.2-1.1-0.2c-0.3-0.1-0.5-0.1-0.8-0.1c-0.5,0-1,0.1-1.3,0.4c-1.1,0.8-0.7,2.3,0.4,2.9
	c1.4,0.8,3.1,1.2,4.7,1.1c1,0,2-0.4,2.3-1.3c0.4-1,0-2-0.9-2.6c-0.6-0.4-1.3-0.6-2-0.8c-0.8-0.2-1.6-0.4-2.4-0.4
	c-0.6-0.1-1.2-0.1-1.7,0.1c-0.7,0.3-1.1,0.8-1.2,1.5C12.6,46,13,46.6,13.5,47c0.5,0.3,1,0.5,1.6,0.5c0.8,0.1,1.7-0.5,1.8-1.2
	c0.1-0.8-0.5-1.4-1.4-1.5c-0.1,0-0.2,0-0.3-0.1c0.1,0,0.3,0.1,0.4,0.1c-0.1,0-0.2-0.1-0.3-0.1c0.1,0.1,0.2,0.1,0.4,0.2
	c-0.1,0-0.1-0.1-0.2-0.1c0.1,0.1,0.2,0.2,0.3,0.3c-0.2-0.2,0.2,0.3,0.1,0.1c-0.1-0.1,0.1,0.4,0.1,0.2c0,0.1,0,0.2,0,0.4
	c0-0.1,0-0.1,0-0.2c0,0.1-0.1,0.2-0.1,0.4c0,0,0,0,0,0c-0.1,0.1-0.1,0.2-0.2,0.3c0,0,0-0.1,0.1-0.1c-0.1,0.1-0.2,0.2-0.3,0.3
	c0.1-0.1,0-0.1-0.2,0.1c-0.3,0.1-0.4,0.1-0.2,0.1c-0.1,0-0.3,0-0.4,0c0.7,0,1.4,0.1,2.1,0.3c-0.1,0-0.3-0.1-0.4-0.1
	c0.6,0.1,1.3,0.3,1.9,0.6c-0.1-0.1-0.2-0.1-0.4-0.2c0.1,0.1,0.3,0.2,0.4,0.2c-0.1-0.1-0.2-0.2-0.3-0.3c0.1,0,0.1,0.1,0.1,0.1
	c0.1,0.1,0,0,0-0.1c-0.1-0.1-0.1-0.1,0,0c0.1,0.2-0.1-0.2-0.1-0.2c0,0,0,0.2,0,0.2c0-0.1,0-0.2,0-0.4c0,0.1,0,0.1,0,0.2
	c0-0.1,0.1-0.2,0.1-0.4c0,0.1,0,0.1-0.1,0.2c0.1-0.1,0.1-0.2,0.2-0.3c0,0-0.1,0.1-0.1,0.1c0.1-0.1,0.2-0.2,0.3-0.3
	c-0.2,0.1,0.3-0.1,0.1-0.1c-0.1,0.1,0.4-0.1,0.1,0c-0.1,0-0.3,0-0.4,0c0.1,0,0.3,0,0.4,0c-0.6,0-1.1,0-1.7-0.2
	c0.1,0,0.3,0.1,0.4,0.1c-0.5-0.1-1-0.3-1.5-0.5c0.1,0.1,0.2,0.1,0.4,0.2c-0.2-0.1-0.4-0.2-0.6-0.3c0.1,0.1,0.2,0.2,0.3,0.3
	c-0.1-0.1-0.1-0.2,0,0.1c-0.1-0.2,0.1,0.3,0,0.1c0,0.1,0,0.2,0,0.4c0,0,0,0,0,0c0,0.1-0.1,0.2-0.1,0.4c0,0,0,0,0,0
	c-0.1,0.1-0.1,0.2-0.2,0.3c0,0,0,0,0,0c-0.1,0.1-0.2,0.2-0.3,0.3c-0.2,0.1-0.4,0.1-0.6,0.2c-0.1,0-0.3,0-0.4,0c0.1,0,0.1,0,0.2,0
	c-0.1,0-0.3-0.1-0.4-0.1c0.4,0.1,0.8,0.2,1.2,0.3c0.4,0.1,0.8,0.1,1.2,0c0.4-0.1,0.7-0.4,0.9-0.8c0.1-0.3,0.2-0.7,0-1.1
	C17.3,45.4,17,45,16.6,44.9z"/>
<path d="M18.6,26.7c-0.1,0-0.1,0-0.2,0c-0.2,0-0.4,0-0.6,0c-0.1,0-0.1,0-0.2,0c-0.2,0-0.4,0.1-0.6,0.1c-0.1,0.1-0.3,0.1-0.4,0.2
	c0,0,0,0-0.1,0c-0.1,0-0.1,0.1-0.2,0.2c-0.1,0.1-0.1,0.1-0.2,0.2c0,0,0,0,0,0.1c-0.1,0.1-0.2,0.2-0.2,0.4c0,0,0,0,0,0.1
	c0,0.1,0,0.1-0.1,0.2c0,0.1,0,0.1-0.1,0.2c-0.1,0.3,0,0.7,0.2,0.9c0.2,0.3,0.3,0.4,0.6,0.6c0.1,0.1,0.3,0.2,0.5,0.2
	c0.2,0.1,0.3,0.1,0.5,0.1c0,0,0,0,0,0c0.1,0,0.3,0,0.4,0c0,0,0,0,0.1,0c0.2,0,0.3-0.1,0.5-0.1c0.1,0,0.2-0.1,0.2-0.1
	c0.1,0,0.2-0.1,0.2-0.1c0,0,0.1-0.1,0.1-0.1c0.1-0.1,0.3-0.2,0.4-0.4c0.2-0.2,0.3-0.4,0.4-0.6c0.1-0.2,0.1-0.4,0.1-0.5
	c0-0.2,0-0.4-0.1-0.5c-0.1-0.2-0.2-0.3-0.4-0.4c-0.1-0.1-0.3-0.3-0.5-0.3c-0.1,0-0.3-0.1-0.4-0.1c-0.3,0-0.6,0-0.8,0.1
	c-0.1,0.1-0.2,0.1-0.3,0.2c-0.2,0.2-0.4,0.4-0.5,0.6c0,0,0,0,0,0.1c0.1-0.1,0.1-0.2,0.2-0.3c-0.1,0.1-0.1,0.2-0.2,0.3
	c0.1-0.1,0.2-0.2,0.3-0.3c-0.1,0.1-0.1,0.1-0.2,0.1c0.1-0.1,0.2-0.1,0.3-0.2c0,0-0.1,0-0.1,0.1c0.1,0,0.3-0.1,0.4-0.1
	c0,0-0.1,0-0.1,0c0.1,0,0.3,0,0.4,0c0,0,0,0-0.1,0c0.1,0,0.3,0.1,0.4,0.1c0,0-0.1,0-0.1,0c0.1,0.1,0.2,0.1,0.4,0.2c0,0,0,0-0.1,0
	c0.1,0.1,0.2,0.2,0.3,0.3c0,0,0,0-0.1-0.1c0.1,0.1,0.1,0.2,0.2,0.3c0,0,0,0,0-0.1c0,0.1,0.1,0.2,0.1,0.3c0,0,0-0.1,0-0.1
	c0,0.1,0,0.2,0,0.4c0,0,0-0.1,0-0.1c0,0.1-0.1,0.2-0.1,0.4c0,0,0-0.1,0.1-0.1c-0.1,0.1-0.1,0.2-0.2,0.3c0,0,0.1-0.1,0.1-0.1
	c-0.1,0.1-0.2,0.2-0.3,0.3c0,0,0.1-0.1,0.1-0.1c-0.1,0.1-0.2,0.1-0.3,0.2c0.1,0,0.1-0.1,0.2-0.1c-0.1,0-0.3,0.1-0.4,0.1
	c0.1,0,0.2,0,0.4,0c-0.1,0-0.3,0-0.4,0c0.1,0,0.1,0,0.2,0c0.2,0,0.4,0,0.6-0.1c0.2,0,0.4-0.1,0.5-0.2c0.2-0.1,0.3-0.3,0.4-0.4
	c0.1-0.2,0.2-0.3,0.2-0.5c0-0.1,0-0.2,0-0.4c0-0.2-0.2-0.5-0.3-0.6c-0.1-0.1-0.2-0.2-0.3-0.3C19.1,26.8,18.9,26.7,18.6,26.7z"/>
<path class="st1" d="M6.1,50L3.6,13.8C1.9,11.2,0.8,6.9,3,5.1c2.3-1.9,6,0.7,6,0.7s1.2-4.1,5.6-3.2c3,0.6,3.6,3.1,3.6,3.1
	s2.6-3.3,6-1.2c3,1.9,2,4.9,1,7.2L28.4,50"/>
</svg>
