<?xml version="1.0" encoding="utf-8"?>
<!-- Generator: Adobe Illustrator 25.3.0, SVG Export Plug-In . SVG Version: 6.00 Build 0)  -->
<svg version="1.1" id="레이어_1" xmlns="http://www.w3.org/2000/svg" xmlns:xlink="http://www.w3.org/1999/xlink" x="0px"
	 y="0px" viewBox="0 0 84 523" style="enable-background:new 0 0 84 523;" xml:space="preserve">
<style type="text/css">
	.st0{fill:#D85E0B;stroke:#000000;stroke-width:12;stroke-linecap:round;stroke-linejoin:round;stroke-miterlimit:10;}
</style>
<path class="st0" d="M78,9c0,0-31,221-31,364c0,41-8,144-8,144l-33-5c0,0,1-77,3-116s5.3-116.5,8-173C20,161,40,6,40,6L78,9z"/>
<path d="M25,464c1.7,0,3-1.3,3-3s-1.3-3-3-3c-1.7,0-3,1.3-3,3S23.3,464,25,464z"/>
<path d="M27,445c1.7,0,3-1.3,3-3s-1.3-3-3-3c-1.7,0-3,1.3-3,3S25.3,445,27,445z"/>
<path d="M28,427c1.7,0,3-1.3,3-3s-1.3-3-3-3c-1.7,0-3,1.3-3,3S26.3,427,28,427z"/>
<path d="M28,408c1.7,0,3-1.3,3-3s-1.3-3-3-3c-1.7,0-3,1.3-3,3S26.3,408,28,408z"/>
</svg>
