<?xml version="1.0" encoding="utf-8"?>
<!-- Generator: Adobe Illustrator 25.3.0, SVG Export Plug-In . SVG Version: 6.00 Build 0)  -->
<svg version="1.1" id="레이어_1" xmlns="http://www.w3.org/2000/svg" xmlns:xlink="http://www.w3.org/1999/xlink" x="0px"
	 y="0px" viewBox="0 0 111 291" style="enable-background:new 0 0 111 291;" xml:space="preserve">
<style type="text/css">
	.st0{fill:#D85E0B;}
	.st1{fill:none;stroke:#000000;stroke-width:10;stroke-linecap:round;stroke-linejoin:round;stroke-miterlimit:10;}
	.st2{fill:none;stroke:#000000;stroke-width:12;stroke-linecap:round;stroke-linejoin:round;stroke-miterlimit:10;}
</style>
<path class="st0" d="M97.2,15.7l-33.3-5.2c-5,6-34,72-45,107c-11,35-11,86-14,116s13,44,13,44l22.6,6c6.4,1.7,13.1-1.9,15.2-8.2
	c7.3-21.6,22.7-68.4,24.2-82.8c2-19,22-118,24-137C105.8,36.5,97.2,15.7,97.2,15.7z M61.8,120.5c0,0-12,62-15,74c-3,12,0-19,2-37
	c1.7-15.1,9.7-45.1,12.2-54.3c0.5-1.7,0.8-2.7,0.8-2.7V120.5z"/>
<path class="st1" d="M71.8,53.5c0,0-15,44-22,76s-11,78-9,88"/>
<path class="st2" d="M14.8,276.8l38,7.7c0,0,16.3-18.8,33-98c14.3-67.8,15.9-102,18.2-125.2s-2.9-49.1-2.9-49.1L70.7,6.5"/>
<path class="st2" d="M6.5,252.1c0,0-4.7-159.6,54.5-242.4c1-1.4,2.4-2.6,4.1-3.1c5.3-1.7,13,12.6,4.7,65.9
	C56,160.9,19.8,340.5,6.5,252.1z"/>
</svg>
