<?xml version="1.0" encoding="utf-8"?>
<!-- Generator: Adobe Illustrator 25.3.0, SVG Export Plug-In . SVG Version: 6.00 Build 0)  -->
<svg version="1.1" id="레이어_1" xmlns="http://www.w3.org/2000/svg" xmlns:xlink="http://www.w3.org/1999/xlink" x="0px"
	 y="0px" viewBox="0 0 312 130" style="enable-background:new 0 0 312 130;" xml:space="preserve">
<style type="text/css">
	.st0{fill:#FFFFFF;stroke:#000000;stroke-width:12;stroke-linecap:round;stroke-linejoin:round;stroke-miterlimit:10;}
	.st1{fill:none;stroke:#000000;stroke-width:12;stroke-linecap:round;stroke-linejoin:round;stroke-miterlimit:10;}
</style>
<path id="rice" class="st0" d="M62.5,39.2L258,62.5c0,0,16.9-25.4,38.1-13.7c21.2,11.6,3.2,34.9-19,34.9c0,0,28.5,15.9,16.9,32.8
	c-11.6,16.9-44.5,2.2-44.5-15.8l-188-26c0,0-25.9,36.1-49.8,12.2c0,0-16.9-24.3,12.7-34.9c0,0-32-20.4-10.6-39.1
	C30.7-2,58.2,7.5,62.5,39.2z"/>
<path id="loop_1_" class="st1" d="M155.5,46.6c0,0-2-7-8-6s-14,33-7,43s10.9,12.3,17.4,6.2"/>
<path id="loop" class="st1" d="M171.5,46.6c0,0-2-7-8-6s-14,33-7,43s10.9,12.3,17.4,6.2"/>
</svg>
