<?xml version="1.0" encoding="utf-8"?>
<!-- Generator: Adobe Illustrator 25.3.0, SVG Export Plug-In . SVG Version: 6.00 Build 0)  -->
<svg version="1.1" id="Layer_1" xmlns="http://www.w3.org/2000/svg" xmlns:xlink="http://www.w3.org/1999/xlink" x="0px" y="0px"
	 viewBox="0 0 490.4 490.4" style="enable-background:new 0 0 490.4 490.4;" xml:space="preserve">
<g>
	<path d="M345.9,0H144.5C64.8,0,0,64.8,0,144.5v201.4c0,79.7,64.8,144.5,144.5,144.5h201.4c79.7,0,144.5-64.8,144.5-144.5V144.5
		C490.4,64.8,425.6,0,345.9,0z M458.2,345.9c0,61.9-50.4,112.3-112.3,112.3H144.5c-61.9,0-112.3-50.4-112.3-112.3V144.5
		c0-61.9,50.4-112.3,112.3-112.3h201.4c61.9,0,112.3,50.4,112.3,112.3V345.9z"/>
	<path d="M244.1,117.8c-71.5,0-129.7,58.2-129.7,129.7s58.2,129.7,129.7,129.7S373.7,319,373.7,247.5S315.6,117.8,244.1,117.8z
		 M244.1,345c-53.7,0-97.5-43.7-97.5-97.5s43.7-97.5,97.5-97.5s97.5,43.7,97.5,97.5S297.8,345,244.1,345z"/>
	<path d="M381.7,95c-10.4,0-18.8,8.4-18.8,18.8c0,10.4,8.4,18.8,18.8,18.8s18.8-8.4,18.8-18.8C400.5,103.4,392.1,95,381.7,95z"/>
</g>
</svg>
